M48
; DRILL file {KiCad 8.0.1} date 2024-04-23T08:11:42+0700
; FORMAT={-:-/ absolute / metric / decimal}
; #@! TF.CreationDate,2024-04-23T08:11:42+07:00
; #@! TF.GenerationSoftware,Kicad,Pcbnew,8.0.1
; #@! TF.FileFunction,Plated,1,2,PTH
FMAT,2
METRIC
; #@! TA.AperFunction,Plated,PTH,ViaDrill
T1C0.400
; #@! TA.AperFunction,Plated,PTH,ComponentDrill
T2C0.800
; #@! TA.AperFunction,Plated,PTH,ComponentDrill
T3C0.950
; #@! TA.AperFunction,Plated,PTH,ComponentDrill
T4C1.000
; #@! TA.AperFunction,Plated,PTH,ComponentDrill
T5C3.200
%
G90
G05
T1
X96.1Y-86.2
X96.2Y-89.9
X96.2Y-89.9
X96.3Y-93.3
X96.3Y-97.1
X96.6Y-77.4
X100.4Y-95.3
X100.7Y-82.1
X100.8Y-109.1
X105.6Y-86.1
X105.6Y-88.1
X105.6Y-99.6
X105.6Y-101.6
X105.6Y-113.1
X105.6Y-115.1
X108.3Y-88.1
X108.3Y-101.6
X108.3Y-115.1
X109.6Y-125.2
X110.4Y-79.2
X111.1Y-125.3
X114.0Y-92.3
X115.769Y-71.975
X115.8Y-67.6
X116.3Y-70.9
X116.5Y-90.1
X116.5Y-109.3
X116.9Y-103.6
X118.33Y-72.99
X119.35Y-73.77
X119.38Y-81.788
X120.1Y-124.7
X120.5Y-123.4
X120.65Y-127.254
X120.65Y-127.254
X121.3Y-124.5
X121.5Y-77.7
X124.1Y-77.7
X127.0Y-70.816
X133.4Y-120.2
X134.0Y-118.9
X135.5Y-118.6
X140.208Y-98.552
X140.6Y-117.8
X143.0Y-67.0
X144.6Y-64.4
X144.9Y-86.7
X146.0Y-64.3
X146.6Y-124.5
X147.2Y-107.4
X147.4Y-88.1
X147.574Y-101.6
X147.7Y-65.4
X147.7Y-67.2
X150.0Y-113.8
X150.0Y-130.9
X150.3Y-67.9
X150.3Y-69.3
X150.5Y-82.1
X152.0Y-104.8
X152.0Y-130.9
X152.6Y-84.6
X154.3Y-68.3
X154.4Y-69.4
X154.94Y-91.44
X154.94Y-98.552
X155.0Y-87.9
X155.2Y-116.0
X156.2Y-126.4
X156.8Y-105.7
X157.2Y-103.6
X158.3Y-123.8
X162.56Y-92.202
X162.8Y-98.7
X165.1Y-118.872
X168.8Y-94.4
X168.881Y-109.313
X169.3Y-93.4
X172.212Y-123.698
X174.2Y-128.1
X174.2Y-129.5
X174.2Y-131.0
X175.1Y-127.1
X176.6Y-106.9
X176.6Y-111.7
X177.8Y-100.584
X179.6Y-96.6
X179.7Y-95.2
X180.1Y-94.3
X181.5Y-98.9
X181.64Y-96.74
X181.83Y-114.12
X182.35Y-112.34
X185.5Y-132.2
X186.7Y-132.2
X186.944Y-116.84
X186.944Y-123.19
X187.9Y-132.2
X191.0Y-67.2
X191.4Y-70.2
X193.22Y-118.12
X194.4Y-67.2
X194.8Y-70.3
X197.8Y-78.0
X198.0Y-79.7
X198.0Y-116.0
X198.4Y-80.9
X198.8Y-114.7
X199.41Y-100.54
X199.45Y-103.47
X199.6Y-81.9
X199.76Y-108.66
X200.0Y-113.8
X200.4Y-124.6
X201.5Y-113.8
X201.6Y-124.3
X202.5Y-121.2
X202.6Y-123.3
X204.0Y-76.5
X204.0Y-77.9
X204.0Y-79.0
X204.0Y-80.3
X205.33Y-100.43
X208.63Y-108.45
X208.98Y-112.05
X215.752Y-104.47
X215.752Y-106.5
X215.752Y-107.8
X215.752Y-109.0
T2
X120.122Y-85.857
X120.122Y-88.397
X120.122Y-90.937
X120.122Y-93.477
X120.122Y-96.017
X120.122Y-98.557
X120.122Y-101.097
X120.122Y-103.637
X120.122Y-106.177
X120.122Y-108.717
X120.122Y-111.257
X120.122Y-113.797
X137.902Y-85.857
X137.902Y-88.397
X137.902Y-90.937
X137.902Y-93.477
X137.902Y-96.017
X137.902Y-98.557
X137.902Y-101.097
X137.902Y-103.637
X137.902Y-106.177
X137.902Y-108.717
X137.902Y-111.257
X137.902Y-113.797
X159.284Y-79.396
X159.284Y-81.936
X159.284Y-84.476
X159.284Y-87.016
X159.284Y-89.556
X159.284Y-92.096
X159.284Y-94.636
X159.284Y-97.176
X159.284Y-99.716
X159.284Y-102.256
X159.284Y-104.796
X159.284Y-107.336
X159.284Y-109.876
X159.284Y-112.416
X166.904Y-79.396
X166.904Y-81.936
X166.904Y-84.476
X166.904Y-87.016
X166.904Y-89.556
X166.904Y-92.096
X166.904Y-94.636
X166.904Y-97.176
X166.904Y-99.716
X166.904Y-102.256
X166.904Y-104.796
X166.904Y-107.336
X166.904Y-109.876
X166.904Y-112.416
X172.72Y-89.08
X172.72Y-93.98
X177.1Y-87.8
X177.1Y-90.3
X177.1Y-92.7
X177.1Y-95.2
X203.982Y-123.19
X206.482Y-123.19
T3
X212.852Y-100.47
X212.852Y-102.97
X212.852Y-105.47
X212.852Y-107.97
X212.852Y-110.47
X212.852Y-112.97
T4
X181.61Y-78.74
X181.61Y-116.84
X200.66Y-78.74
X200.66Y-116.84
T5
X104.648Y-130.048
X204.724Y-130.556
X205.232Y-68.072
M30
