%TF.GenerationSoftware,KiCad,Pcbnew,7.0.9*%
%TF.CreationDate,2023-12-29T10:55:07+07:00*%
%TF.ProjectId,incuTester,696e6375-5465-4737-9465-722e6b696361,rev?*%
%TF.SameCoordinates,Original*%
%TF.FileFunction,Soldermask,Top*%
%TF.FilePolarity,Negative*%
%FSLAX46Y46*%
G04 Gerber Fmt 4.6, Leading zero omitted, Abs format (unit mm)*
G04 Created by KiCad (PCBNEW 7.0.9) date 2023-12-29 10:55:07*
%MOMM*%
%LPD*%
G01*
G04 APERTURE LIST*
G04 Aperture macros list*
%AMRoundRect*
0 Rectangle with rounded corners*
0 $1 Rounding radius*
0 $2 $3 $4 $5 $6 $7 $8 $9 X,Y pos of 4 corners*
0 Add a 4 corners polygon primitive as box body*
4,1,4,$2,$3,$4,$5,$6,$7,$8,$9,$2,$3,0*
0 Add four circle primitives for the rounded corners*
1,1,$1+$1,$2,$3*
1,1,$1+$1,$4,$5*
1,1,$1+$1,$6,$7*
1,1,$1+$1,$8,$9*
0 Add four rect primitives between the rounded corners*
20,1,$1+$1,$2,$3,$4,$5,0*
20,1,$1+$1,$4,$5,$6,$7,0*
20,1,$1+$1,$6,$7,$8,$9,0*
20,1,$1+$1,$8,$9,$2,$3,0*%
G04 Aperture macros list end*
%ADD10R,2.000000X1.500000*%
%ADD11R,2.000000X3.800000*%
%ADD12C,1.600000*%
%ADD13O,1.600000X1.600000*%
%ADD14R,1.700000X1.700000*%
%ADD15O,1.700000X1.700000*%
%ADD16C,3.000000*%
%ADD17R,2.400000X1.600000*%
%ADD18O,2.400000X1.600000*%
%ADD19R,1.600000X1.600000*%
%ADD20C,5.500000*%
%ADD21RoundRect,0.135000X0.185000X-0.135000X0.185000X0.135000X-0.185000X0.135000X-0.185000X-0.135000X0*%
%ADD22R,3.200000X3.200000*%
%ADD23O,3.200000X3.200000*%
%ADD24R,1.200000X0.700000*%
%ADD25R,0.800000X1.000000*%
%ADD26R,1.200000X1.000000*%
%ADD27R,2.800000X1.000000*%
%ADD28R,1.900000X1.300000*%
%ADD29C,1.500000*%
%ADD30RoundRect,0.250000X-0.725000X0.600000X-0.725000X-0.600000X0.725000X-0.600000X0.725000X0.600000X0*%
%ADD31O,1.950000X1.700000*%
%TA.AperFunction,Profile*%
%ADD32C,0.100000*%
%TD*%
G04 APERTURE END LIST*
D10*
%TO.C,U3*%
X145390000Y-70880000D03*
X145390000Y-68580000D03*
D11*
X139090000Y-68580000D03*
D10*
X145390000Y-66280000D03*
%TD*%
D12*
%TO.C,R5*%
X154940000Y-101600000D03*
D13*
X154940000Y-91440000D03*
%TD*%
D14*
%TO.C,P2*%
X179197000Y-129540000D03*
D15*
X176657000Y-129540000D03*
%TD*%
D12*
%TO.C,R4*%
X158300000Y-117520000D03*
D13*
X158300000Y-127680000D03*
%TD*%
D14*
%TO.C,J3*%
X149800000Y-111460000D03*
D15*
X149800000Y-114000000D03*
X149800000Y-116540000D03*
X149800000Y-119080000D03*
%TD*%
D12*
%TO.C,R1*%
X179832000Y-68961000D03*
D13*
X169672000Y-68961000D03*
%TD*%
D14*
%TO.C,J1*%
X190246000Y-129540000D03*
D15*
X187706000Y-129540000D03*
%TD*%
D12*
%TO.C,C_Rst*%
X206550000Y-116600000D03*
X209050000Y-116600000D03*
%TD*%
D14*
%TO.C,J7*%
X113020000Y-96000000D03*
D15*
X110480000Y-96000000D03*
X107940000Y-96000000D03*
X105400000Y-96000000D03*
%TD*%
D14*
%TO.C,J9*%
X113080000Y-108000000D03*
D15*
X110540000Y-108000000D03*
X108000000Y-108000000D03*
X105460000Y-108000000D03*
%TD*%
D16*
%TO.C,U1*%
X181610000Y-116840000D03*
X200660000Y-116840000D03*
X181610000Y-78740000D03*
X200660000Y-78740000D03*
%TD*%
D17*
%TO.C,U4*%
X139700000Y-113281000D03*
D18*
X139700000Y-110741000D03*
X139700000Y-108201000D03*
X139700000Y-105661000D03*
X139700000Y-103121000D03*
X139700000Y-100581000D03*
X139700000Y-98041000D03*
X139700000Y-95501000D03*
X139700000Y-92961000D03*
X139700000Y-90421000D03*
X139700000Y-87881000D03*
X139700000Y-85341000D03*
X124460000Y-85341000D03*
X124460000Y-87881000D03*
X124460000Y-90421000D03*
X124460000Y-92961000D03*
X124460000Y-95501000D03*
X124460000Y-98041000D03*
X124460000Y-100581000D03*
X124460000Y-103121000D03*
X124460000Y-105661000D03*
X124460000Y-108201000D03*
X124460000Y-110741000D03*
X124460000Y-113281000D03*
%TD*%
D19*
%TO.C,U2*%
X166904000Y-112416000D03*
D13*
X166904000Y-109876000D03*
X166904000Y-107336000D03*
X166904000Y-104796000D03*
X166904000Y-102256000D03*
X166904000Y-99716000D03*
X166904000Y-97176000D03*
X166904000Y-94636000D03*
X166904000Y-92096000D03*
X166904000Y-89556000D03*
X166904000Y-87016000D03*
X166904000Y-84476000D03*
X166904000Y-81936000D03*
X166904000Y-79396000D03*
X159284000Y-79396000D03*
X159284000Y-81936000D03*
X159284000Y-84476000D03*
X159284000Y-87016000D03*
X159284000Y-89556000D03*
X159284000Y-92096000D03*
X159284000Y-94636000D03*
X159284000Y-97176000D03*
X159284000Y-99716000D03*
X159284000Y-102256000D03*
X159284000Y-104796000D03*
X159284000Y-107336000D03*
X159284000Y-109876000D03*
X159284000Y-112416000D03*
%TD*%
D20*
%TO.C,*%
X99420000Y-129820000D03*
%TD*%
D21*
%TO.C,R0*%
X208950000Y-110800000D03*
X208950000Y-109780000D03*
%TD*%
D19*
%TO.C,C1*%
X147320000Y-93980000D03*
D12*
X147320000Y-97480000D03*
%TD*%
D14*
%TO.C,J2*%
X175260000Y-109220000D03*
D15*
X175260000Y-111760000D03*
X175260000Y-114300000D03*
X175260000Y-116840000D03*
%TD*%
D14*
%TO.C,P1*%
X126746000Y-129540000D03*
D15*
X124206000Y-129540000D03*
%TD*%
D14*
%TO.C,J5*%
X113080000Y-83820000D03*
D15*
X110540000Y-83820000D03*
X108000000Y-83820000D03*
X105460000Y-83820000D03*
%TD*%
D22*
%TO.C,D1*%
X150876000Y-129540000D03*
D23*
X135636000Y-129540000D03*
%TD*%
D14*
%TO.C,J10*%
X113080000Y-114000000D03*
D15*
X110540000Y-114000000D03*
X108000000Y-114000000D03*
X105460000Y-114000000D03*
%TD*%
D14*
%TO.C,J8*%
X113020000Y-102000000D03*
D15*
X110480000Y-102000000D03*
X107940000Y-102000000D03*
X105400000Y-102000000D03*
%TD*%
D20*
%TO.C,REF\u002A\u002A*%
X214330000Y-129680000D03*
%TD*%
D12*
%TO.C,R2*%
X152400000Y-78740000D03*
D13*
X152400000Y-68580000D03*
%TD*%
D12*
%TO.C,R6*%
X179832000Y-73025000D03*
D13*
X169672000Y-73025000D03*
%TD*%
D19*
%TO.C,C3*%
X114300000Y-127000000D03*
D12*
X117800000Y-127000000D03*
%TD*%
%TO.C,C5*%
X177100000Y-87800000D03*
X177100000Y-90300000D03*
%TD*%
%TO.C,C4*%
X177100000Y-95200000D03*
X177100000Y-92700000D03*
%TD*%
D24*
%TO.C,J4*%
X99150000Y-74850000D03*
X99150000Y-73750000D03*
X99150000Y-72650000D03*
X99150000Y-71550000D03*
X99150000Y-70450000D03*
X99150000Y-69350000D03*
X99150000Y-68250000D03*
X99150000Y-67150000D03*
X99150000Y-66200000D03*
D25*
X88650000Y-65250000D03*
D26*
X94850000Y-65250000D03*
D27*
X84500000Y-65250000D03*
D26*
X99150000Y-76400000D03*
D28*
X84050000Y-78750000D03*
%TD*%
D29*
%TO.C,X1*%
X172720000Y-93980000D03*
X172720000Y-89080000D03*
%TD*%
D14*
%TO.C,i2C1*%
X143700000Y-114020000D03*
D15*
X143700000Y-111480000D03*
X143700000Y-108940000D03*
X143700000Y-106400000D03*
%TD*%
D14*
%TO.C,J6*%
X113080000Y-90000000D03*
D15*
X110540000Y-90000000D03*
X108000000Y-90000000D03*
X105460000Y-90000000D03*
%TD*%
D19*
%TO.C,C2*%
X164378000Y-122555000D03*
D12*
X167878000Y-122555000D03*
%TD*%
%TO.C,R3*%
X146580000Y-122900000D03*
D13*
X136420000Y-122900000D03*
%TD*%
D30*
%TO.C,REF\u002A\u002A*%
X216700000Y-100470000D03*
D31*
X216700000Y-102970000D03*
X216700000Y-105470000D03*
X216700000Y-107970000D03*
X216700000Y-110470000D03*
X216700000Y-112970000D03*
%TD*%
D20*
%TO.C,*%
X214930000Y-68560000D03*
%TD*%
D32*
X92592500Y-136510000D02*
X221175000Y-136470000D01*
X82190000Y-62250000D02*
X82070000Y-82930000D01*
X92647500Y-82850000D02*
X92592500Y-136510000D01*
X82070000Y-82930000D02*
X92647500Y-82850000D01*
X220870000Y-62090000D02*
X82190000Y-62250000D01*
X221175000Y-136470000D02*
X220870000Y-62090000D01*
M02*
