G04 #@! TF.GenerationSoftware,KiCad,Pcbnew,8.0.1*
G04 #@! TF.CreationDate,2024-04-23T14:43:40+07:00*
G04 #@! TF.ProjectId,IncuTester_SMD,496e6375-5465-4737-9465-725f534d442e,rev?*
G04 #@! TF.SameCoordinates,Original*
G04 #@! TF.FileFunction,Copper,L2,Bot*
G04 #@! TF.FilePolarity,Positive*
%FSLAX46Y46*%
G04 Gerber Fmt 4.6, Leading zero omitted, Abs format (unit mm)*
G04 Created by KiCad (PCBNEW 8.0.1) date 2024-04-23 14:43:40*
%MOMM*%
%LPD*%
G01*
G04 APERTURE LIST*
G04 Aperture macros list*
%AMRoundRect*
0 Rectangle with rounded corners*
0 $1 Rounding radius*
0 $2 $3 $4 $5 $6 $7 $8 $9 X,Y pos of 4 corners*
0 Add a 4 corners polygon primitive as box body*
4,1,4,$2,$3,$4,$5,$6,$7,$8,$9,$2,$3,0*
0 Add four circle primitives for the rounded corners*
1,1,$1+$1,$2,$3*
1,1,$1+$1,$4,$5*
1,1,$1+$1,$6,$7*
1,1,$1+$1,$8,$9*
0 Add four rect primitives between the rounded corners*
20,1,$1+$1,$2,$3,$4,$5,0*
20,1,$1+$1,$4,$5,$6,$7,0*
20,1,$1+$1,$6,$7,$8,$9,0*
20,1,$1+$1,$8,$9,$2,$3,0*%
G04 Aperture macros list end*
G04 #@! TA.AperFunction,ComponentPad*
%ADD10C,1.600000*%
G04 #@! TD*
G04 #@! TA.AperFunction,ComponentPad*
%ADD11C,3.000000*%
G04 #@! TD*
G04 #@! TA.AperFunction,ComponentPad*
%ADD12R,2.400000X1.600000*%
G04 #@! TD*
G04 #@! TA.AperFunction,ComponentPad*
%ADD13O,2.400000X1.600000*%
G04 #@! TD*
G04 #@! TA.AperFunction,ComponentPad*
%ADD14R,1.600000X1.600000*%
G04 #@! TD*
G04 #@! TA.AperFunction,ComponentPad*
%ADD15O,1.600000X1.600000*%
G04 #@! TD*
G04 #@! TA.AperFunction,ComponentPad*
%ADD16C,5.500000*%
G04 #@! TD*
G04 #@! TA.AperFunction,ComponentPad*
%ADD17C,1.500000*%
G04 #@! TD*
G04 #@! TA.AperFunction,ComponentPad*
%ADD18RoundRect,0.250000X-0.725000X0.600000X-0.725000X-0.600000X0.725000X-0.600000X0.725000X0.600000X0*%
G04 #@! TD*
G04 #@! TA.AperFunction,ComponentPad*
%ADD19O,1.950000X1.700000*%
G04 #@! TD*
G04 #@! TA.AperFunction,ViaPad*
%ADD20C,0.800000*%
G04 #@! TD*
G04 #@! TA.AperFunction,Conductor*
%ADD21C,0.250000*%
G04 #@! TD*
G04 #@! TA.AperFunction,Conductor*
%ADD22C,0.400000*%
G04 #@! TD*
G04 #@! TA.AperFunction,Conductor*
%ADD23C,1.000000*%
G04 #@! TD*
G04 #@! TA.AperFunction,Conductor*
%ADD24C,0.600000*%
G04 #@! TD*
G04 #@! TA.AperFunction,Conductor*
%ADD25C,1.300000*%
G04 #@! TD*
G04 #@! TA.AperFunction,Conductor*
%ADD26C,0.800000*%
G04 #@! TD*
G04 #@! TA.AperFunction,Profile*
%ADD27C,0.100000*%
G04 #@! TD*
G04 APERTURE END LIST*
D10*
X203982000Y-123190000D03*
X206482000Y-123190000D03*
D11*
X181610000Y-116840000D03*
X200660000Y-116840000D03*
X181610000Y-78740000D03*
X200660000Y-78740000D03*
D12*
X137902000Y-113797000D03*
D13*
X137902000Y-111257000D03*
X137902000Y-108717000D03*
X137902000Y-106177000D03*
X137902000Y-103637000D03*
X137902000Y-101097000D03*
X137902000Y-98557000D03*
X137902000Y-96017000D03*
X137902000Y-93477000D03*
X137902000Y-90937000D03*
X137902000Y-88397000D03*
X137902000Y-85857000D03*
X120122000Y-85857000D03*
X120122000Y-88397000D03*
X120122000Y-90937000D03*
X120122000Y-93477000D03*
X120122000Y-96017000D03*
X120122000Y-98557000D03*
X120122000Y-101097000D03*
X120122000Y-103637000D03*
X120122000Y-106177000D03*
X120122000Y-108717000D03*
X120122000Y-111257000D03*
X120122000Y-113797000D03*
D14*
X166904000Y-112416000D03*
D15*
X166904000Y-109876000D03*
X166904000Y-107336000D03*
X166904000Y-104796000D03*
X166904000Y-102256000D03*
X166904000Y-99716000D03*
X166904000Y-97176000D03*
X166904000Y-94636000D03*
X166904000Y-92096000D03*
X166904000Y-89556000D03*
X166904000Y-87016000D03*
X166904000Y-84476000D03*
X166904000Y-81936000D03*
X166904000Y-79396000D03*
X159284000Y-79396000D03*
X159284000Y-81936000D03*
X159284000Y-84476000D03*
X159284000Y-87016000D03*
X159284000Y-89556000D03*
X159284000Y-92096000D03*
X159284000Y-94636000D03*
X159284000Y-97176000D03*
X159284000Y-99716000D03*
X159284000Y-102256000D03*
X159284000Y-104796000D03*
X159284000Y-107336000D03*
X159284000Y-109876000D03*
X159284000Y-112416000D03*
D16*
X104648000Y-130048000D03*
X204724000Y-130556000D03*
D10*
X177100000Y-87800000D03*
X177100000Y-90300000D03*
X177100000Y-95200000D03*
X177100000Y-92700000D03*
D17*
X172720000Y-93980000D03*
X172720000Y-89080000D03*
D18*
X212852000Y-100470000D03*
D19*
X212852000Y-102970000D03*
X212852000Y-105470000D03*
X212852000Y-107970000D03*
X212852000Y-110470000D03*
X212852000Y-112970000D03*
D16*
X205232000Y-68072000D03*
D20*
X215752000Y-109000000D03*
X154300000Y-68300000D03*
X144600000Y-64400000D03*
X215752000Y-106500000D03*
X120650000Y-127254000D03*
X147400000Y-88100000D03*
X96300000Y-97100000D03*
X96600000Y-77400000D03*
X144900000Y-86700000D03*
X176600000Y-106900000D03*
X215752000Y-107800000D03*
X133400000Y-120200000D03*
X146000000Y-64300000D03*
X108300000Y-88100000D03*
X198000000Y-116000000D03*
X169300000Y-93400000D03*
X154400000Y-69400000D03*
X201500000Y-113800000D03*
X152000000Y-130900000D03*
X121300000Y-124500000D03*
X191000000Y-67200000D03*
X150000000Y-113800000D03*
X176600000Y-111700000D03*
X162800000Y-98700000D03*
X174200000Y-128100000D03*
X201600000Y-124300000D03*
X174200000Y-131000000D03*
X179700000Y-95200000D03*
X199600000Y-81900000D03*
X120100000Y-124700000D03*
X202500000Y-121200000D03*
X150300000Y-69300000D03*
X174200000Y-129500000D03*
X134000000Y-118900000D03*
X115800000Y-67600000D03*
X175100000Y-127100000D03*
X147700000Y-67200000D03*
X140208000Y-98552000D03*
X179600000Y-96600000D03*
X172212000Y-123698000D03*
X168800000Y-94400000D03*
X135500000Y-118600000D03*
X105600000Y-115100000D03*
X200400000Y-124600000D03*
X119380000Y-81788000D03*
X194800000Y-70300000D03*
X109600000Y-125200000D03*
X121500000Y-77700000D03*
X120500000Y-123400000D03*
X198400000Y-80900000D03*
X187900000Y-132200000D03*
X96200000Y-89900000D03*
X150500000Y-82100000D03*
X147574000Y-101600000D03*
X108300000Y-101600000D03*
X204000000Y-77900000D03*
X96100000Y-86200000D03*
X191400000Y-70200000D03*
X204000000Y-80300000D03*
X197800000Y-78000000D03*
X185500000Y-132200000D03*
X200000000Y-113800000D03*
X204000000Y-76500000D03*
X96200000Y-89900000D03*
X96300000Y-93300000D03*
X215752000Y-104470000D03*
X180100000Y-94300000D03*
X111100000Y-125300000D03*
X202600000Y-123300000D03*
X105600000Y-101600000D03*
X124100000Y-77700000D03*
X181500000Y-98900000D03*
X204000000Y-79000000D03*
X198800000Y-114700000D03*
X186700000Y-132200000D03*
X150300000Y-67900000D03*
X120650000Y-127254000D03*
X158300000Y-123800000D03*
X108300000Y-115100000D03*
X198000000Y-79700000D03*
X194400000Y-67200000D03*
X147700000Y-65400000D03*
X105600000Y-88100000D03*
X152600000Y-84600000D03*
X181640000Y-96740000D03*
X208630000Y-108450000D03*
X205330000Y-100430000D03*
X165100000Y-118872000D03*
X162560000Y-92202000D03*
X143000000Y-67000000D03*
X177800000Y-100584000D03*
X156200000Y-126400000D03*
X199410000Y-100540000D03*
X147200000Y-107400000D03*
X152000000Y-104800000D03*
X140600000Y-117800000D03*
X186944000Y-116840000D03*
X186944000Y-123190000D03*
X168881107Y-109313107D03*
X199450000Y-103470000D03*
X199760000Y-108660000D03*
X182350000Y-112340000D03*
X150000000Y-130900000D03*
X157200000Y-103600000D03*
X146600000Y-124500000D03*
X119350000Y-73770000D03*
X115768873Y-71975491D03*
X116300000Y-70900000D03*
X118330000Y-72990000D03*
X127000000Y-70815500D03*
X110400000Y-79200000D03*
X100700000Y-82100000D03*
X105600000Y-86100000D03*
X116500000Y-90100000D03*
X114000000Y-92300000D03*
X100400000Y-95300000D03*
X105600000Y-99600000D03*
X116900000Y-103600000D03*
X100800000Y-109100000D03*
X105600000Y-113100000D03*
X116500000Y-109300000D03*
X155000000Y-87900000D03*
X154940000Y-98552000D03*
X154940000Y-91440000D03*
X156800000Y-105700000D03*
X155200000Y-116000000D03*
X193220000Y-118120000D03*
X181830000Y-114120000D03*
X208980000Y-112050000D03*
D21*
X158980000Y-97480000D02*
X159284000Y-97176000D01*
X201200000Y-116300000D02*
X200660000Y-116840000D01*
X198420000Y-76500000D02*
X200660000Y-78740000D01*
X201200000Y-79280000D02*
X201200000Y-116300000D01*
X200660000Y-78740000D02*
X201200000Y-79280000D01*
D22*
X161840000Y-70400000D02*
X146400000Y-70400000D01*
D23*
X165100000Y-118872000D02*
X157572000Y-126400000D01*
X165100000Y-98980000D02*
X165100000Y-118872000D01*
X181640000Y-96740000D02*
X195370000Y-96740000D01*
X208630000Y-108500000D02*
X208530000Y-108400000D01*
X162560000Y-92202000D02*
X162560000Y-92832000D01*
X205330000Y-100430000D02*
X205330000Y-105200000D01*
X156200000Y-126400000D02*
X156300000Y-126400000D01*
D22*
X170180000Y-78740000D02*
X161840000Y-70400000D01*
D23*
X199410000Y-100540000D02*
X199210000Y-100580000D01*
X157572000Y-126400000D02*
X156200000Y-126400000D01*
X208580000Y-108450000D02*
X208630000Y-108450000D01*
D22*
X146400000Y-70400000D02*
X143000000Y-67000000D01*
D23*
X162560000Y-92832000D02*
X166904000Y-97176000D01*
X208630000Y-108450000D02*
X208630000Y-108500000D01*
X205330000Y-105200000D02*
X208580000Y-108450000D01*
D22*
X181610000Y-78740000D02*
X170180000Y-78740000D01*
D23*
X195370000Y-96740000D02*
X199410000Y-100540000D01*
X166904000Y-97176000D02*
X165100000Y-98980000D01*
D21*
X158628000Y-93980000D02*
X159284000Y-94636000D01*
D24*
X149400000Y-107400000D02*
X147200000Y-107400000D01*
X152000000Y-104800000D02*
X149400000Y-107400000D01*
X136177000Y-107902000D02*
X136177000Y-114877000D01*
X139100000Y-117800000D02*
X140600000Y-117800000D01*
X137902000Y-106177000D02*
X136177000Y-107902000D01*
X136177000Y-114877000D02*
X139100000Y-117800000D01*
D25*
X186998000Y-116894000D02*
X186998000Y-122882000D01*
X186998000Y-122882000D02*
X186944000Y-122936000D01*
X186944000Y-116840000D02*
X186998000Y-116894000D01*
D22*
X168881107Y-110217107D02*
X168881107Y-109313107D01*
X188170000Y-109570000D02*
X182190000Y-109570000D01*
X190110000Y-107630000D02*
X195415000Y-107630000D01*
X188170000Y-109570000D02*
X190110000Y-107630000D01*
X168881107Y-109313107D02*
X166904000Y-107336000D01*
X199450000Y-103470000D02*
X199450000Y-103595000D01*
X199420000Y-103625000D02*
X199420000Y-103495000D01*
X199450000Y-103595000D02*
X195415000Y-107630000D01*
X172466000Y-113802000D02*
X168881107Y-110217107D01*
X177958000Y-113802000D02*
X182190000Y-109570000D01*
X172466000Y-113802000D02*
X177958000Y-113802000D01*
X199770000Y-108660000D02*
X199690000Y-108740000D01*
X198030000Y-110400000D02*
X199760000Y-108670000D01*
X199760000Y-108660000D02*
X199770000Y-108660000D01*
X199760000Y-108670000D02*
X199760000Y-108660000D01*
X190620000Y-110400000D02*
X198030000Y-110400000D01*
X188680000Y-112340000D02*
X190620000Y-110400000D01*
X182350000Y-112340000D02*
X188680000Y-112340000D01*
D26*
X150000000Y-127900000D02*
X150000000Y-130900000D01*
X146302943Y-125900000D02*
X148000000Y-125900000D01*
X148000000Y-125900000D02*
X150000000Y-127900000D01*
X157200000Y-103600000D02*
X151300000Y-109500000D01*
X151300000Y-117400000D02*
X145400000Y-123300000D01*
X145400000Y-124997057D02*
X146302943Y-125900000D01*
X151300000Y-109500000D02*
X151300000Y-117400000D01*
X150000000Y-130800000D02*
X150000000Y-130900000D01*
X145400000Y-123300000D02*
X145400000Y-124997057D01*
D24*
X160784000Y-106296000D02*
X160784000Y-113037321D01*
X160784000Y-113037321D02*
X149321321Y-124500000D01*
X149321321Y-124500000D02*
X146600000Y-124500000D01*
X159284000Y-104796000D02*
X160784000Y-106296000D01*
D22*
X119205000Y-73915000D02*
X119350000Y-73770000D01*
X115768873Y-71975491D02*
X117708382Y-73915000D01*
X117708382Y-73915000D02*
X119205000Y-73915000D01*
D21*
X118330000Y-72930000D02*
X118330000Y-72990000D01*
D22*
X116300000Y-70900000D02*
X118330000Y-72930000D01*
X153056000Y-89556000D02*
X159284000Y-89556000D01*
X127000000Y-70815500D02*
X129871896Y-70815500D01*
X137796396Y-78740000D02*
X142240000Y-78740000D01*
X129871896Y-70815500D02*
X137796396Y-78740000D01*
X142240000Y-78740000D02*
X153056000Y-89556000D01*
D24*
X103600000Y-79200000D02*
X100700000Y-82100000D01*
X110400000Y-79200000D02*
X103600000Y-79200000D01*
X141600000Y-88521000D02*
X139184000Y-90937000D01*
X111700000Y-80000000D02*
X138420000Y-80000000D01*
X141600000Y-83180000D02*
X141600000Y-88521000D01*
X139184000Y-90937000D02*
X137902000Y-90937000D01*
X138420000Y-80000000D02*
X141600000Y-83180000D01*
X105600000Y-86100000D02*
X111700000Y-80000000D01*
X137902000Y-88397000D02*
X139802000Y-86497000D01*
X138957000Y-84357000D02*
X119043000Y-84357000D01*
X139802000Y-86497000D02*
X139802000Y-85202000D01*
X116500000Y-86900000D02*
X116500000Y-90100000D01*
X139802000Y-85202000D02*
X138957000Y-84357000D01*
X119043000Y-84357000D02*
X116500000Y-86900000D01*
X111000000Y-95300000D02*
X100400000Y-95300000D01*
X114000000Y-92300000D02*
X111000000Y-95300000D01*
X105600000Y-99600000D02*
X108919000Y-99600000D01*
X108919000Y-99600000D02*
X120122000Y-88397000D01*
X116900000Y-94159000D02*
X120122000Y-90937000D01*
X116900000Y-103600000D02*
X116900000Y-94159000D01*
D21*
X119800000Y-92600000D02*
X119800000Y-92541000D01*
D24*
X118000000Y-104055635D02*
X112955635Y-109100000D01*
X100800000Y-109100000D02*
X100700000Y-109100000D01*
X120122000Y-96017000D02*
X118000000Y-98139000D01*
X118000000Y-98139000D02*
X118000000Y-104055635D01*
X112955635Y-109100000D02*
X100800000Y-109100000D01*
X112700000Y-113100000D02*
X105600000Y-113100000D01*
X116500000Y-109300000D02*
X112700000Y-113100000D01*
D21*
X155000000Y-80300000D02*
X155000000Y-87900000D01*
X161768000Y-76800000D02*
X158500000Y-76800000D01*
X155000000Y-87900000D02*
X155000000Y-87800000D01*
X154940000Y-91440000D02*
X154940000Y-98552000D01*
X158500000Y-76800000D02*
X155000000Y-80300000D01*
X166904000Y-81936000D02*
X161768000Y-76800000D01*
D25*
X156210000Y-114990000D02*
X156210000Y-106640610D01*
X155200000Y-116000000D02*
X156210000Y-114990000D01*
X156210000Y-106640610D02*
X156975305Y-105875305D01*
D24*
X208980000Y-112050000D02*
X206550000Y-114480000D01*
X181830000Y-114120000D02*
X188880000Y-114120000D01*
X206550000Y-114480000D02*
X206550000Y-116600000D01*
X193220000Y-118120000D02*
X193260000Y-118160000D01*
X208980000Y-112050000D02*
X209050000Y-112120000D01*
X192920000Y-118160000D02*
X193220000Y-118120000D01*
X188880000Y-114120000D02*
X192920000Y-118160000D01*
G04 #@! TA.AperFunction,Conductor*
G36*
X138152000Y-100781314D02*
G01*
X138147606Y-100776920D01*
X138056394Y-100724259D01*
X137954661Y-100697000D01*
X137849339Y-100697000D01*
X137747606Y-100724259D01*
X137656394Y-100776920D01*
X137652000Y-100781314D01*
X137652000Y-98872686D01*
X137656394Y-98877080D01*
X137747606Y-98929741D01*
X137849339Y-98957000D01*
X137954661Y-98957000D01*
X138056394Y-98929741D01*
X138147606Y-98877080D01*
X138152000Y-98872686D01*
X138152000Y-100781314D01*
G37*
G04 #@! TD.AperFunction*
G04 #@! TA.AperFunction,Conductor*
G36*
X138152000Y-98241314D02*
G01*
X138147606Y-98236920D01*
X138056394Y-98184259D01*
X137954661Y-98157000D01*
X137849339Y-98157000D01*
X137747606Y-98184259D01*
X137656394Y-98236920D01*
X137652000Y-98241314D01*
X137652000Y-96332686D01*
X137656394Y-96337080D01*
X137747606Y-96389741D01*
X137849339Y-96417000D01*
X137954661Y-96417000D01*
X138056394Y-96389741D01*
X138147606Y-96337080D01*
X138152000Y-96332686D01*
X138152000Y-98241314D01*
G37*
G04 #@! TD.AperFunction*
G04 #@! TA.AperFunction,Conductor*
G36*
X217875039Y-61995685D02*
G01*
X217920794Y-62048489D01*
X217932000Y-62100000D01*
X217932000Y-135258000D01*
X217912315Y-135325039D01*
X217859511Y-135370794D01*
X217808000Y-135382000D01*
X95628000Y-135382000D01*
X95560961Y-135362315D01*
X95515206Y-135309511D01*
X95504000Y-135258000D01*
X95504000Y-130048000D01*
X101492536Y-130048000D01*
X101512376Y-130401295D01*
X101512378Y-130401307D01*
X101571649Y-130750153D01*
X101571651Y-130750162D01*
X101666461Y-131079254D01*
X101669610Y-131090184D01*
X101707793Y-131182366D01*
X101805021Y-131417098D01*
X101805023Y-131417102D01*
X101976194Y-131726812D01*
X101976197Y-131726817D01*
X102180956Y-132015396D01*
X102180962Y-132015404D01*
X102416748Y-132279248D01*
X102416751Y-132279251D01*
X102680595Y-132515037D01*
X102680603Y-132515043D01*
X102969182Y-132719802D01*
X102969187Y-132719805D01*
X102969190Y-132719806D01*
X102969192Y-132719808D01*
X103091219Y-132787250D01*
X103278897Y-132890976D01*
X103278901Y-132890978D01*
X103385013Y-132934930D01*
X103605816Y-133026390D01*
X103945843Y-133124350D01*
X104294700Y-133183623D01*
X104648000Y-133203464D01*
X105001300Y-133183623D01*
X105350157Y-133124350D01*
X105690184Y-133026390D01*
X106017105Y-132890975D01*
X106326808Y-132719808D01*
X106326813Y-132719804D01*
X106326817Y-132719802D01*
X106417786Y-132655255D01*
X106615400Y-132515041D01*
X106879250Y-132279250D01*
X107115041Y-132015400D01*
X107319808Y-131726808D01*
X107490975Y-131417105D01*
X107626390Y-131090184D01*
X107724350Y-130750157D01*
X107783623Y-130401300D01*
X107803464Y-130048000D01*
X107783623Y-129694700D01*
X107724350Y-129345843D01*
X107626390Y-129005816D01*
X107534930Y-128785013D01*
X107490978Y-128678901D01*
X107490976Y-128678897D01*
X107319805Y-128369187D01*
X107319802Y-128369182D01*
X107115043Y-128080603D01*
X107115037Y-128080595D01*
X106879251Y-127816751D01*
X106879248Y-127816748D01*
X106615404Y-127580962D01*
X106615396Y-127580956D01*
X106326817Y-127376197D01*
X106326812Y-127376194D01*
X106017102Y-127205023D01*
X106017098Y-127205021D01*
X105762258Y-127099464D01*
X105690184Y-127069610D01*
X105690180Y-127069608D01*
X105690178Y-127069608D01*
X105350162Y-126971651D01*
X105350153Y-126971649D01*
X105001307Y-126912378D01*
X105001295Y-126912376D01*
X104648000Y-126892536D01*
X104294704Y-126912376D01*
X104294692Y-126912378D01*
X103945846Y-126971649D01*
X103945837Y-126971651D01*
X103605821Y-127069608D01*
X103278901Y-127205021D01*
X103278897Y-127205023D01*
X102969187Y-127376194D01*
X102969182Y-127376197D01*
X102680603Y-127580956D01*
X102680595Y-127580962D01*
X102416751Y-127816748D01*
X102416748Y-127816751D01*
X102180962Y-128080595D01*
X102180956Y-128080603D01*
X101976197Y-128369182D01*
X101976194Y-128369187D01*
X101805023Y-128678897D01*
X101805021Y-128678901D01*
X101669608Y-129005821D01*
X101571651Y-129345837D01*
X101571649Y-129345846D01*
X101512378Y-129694692D01*
X101512376Y-129694704D01*
X101492536Y-130048000D01*
X95504000Y-130048000D01*
X95504000Y-113100003D01*
X104794435Y-113100003D01*
X104814630Y-113279249D01*
X104814631Y-113279254D01*
X104874211Y-113449523D01*
X104933607Y-113544050D01*
X104970184Y-113602262D01*
X105097738Y-113729816D01*
X105162448Y-113770476D01*
X105250474Y-113825787D01*
X105250478Y-113825789D01*
X105420745Y-113885368D01*
X105420750Y-113885369D01*
X105599996Y-113905565D01*
X105600000Y-113905565D01*
X105600004Y-113905565D01*
X105779249Y-113885369D01*
X105779252Y-113885368D01*
X105779255Y-113885368D01*
X105949522Y-113825789D01*
X105950488Y-113825181D01*
X105959523Y-113819506D01*
X106025494Y-113800500D01*
X112768996Y-113800500D01*
X112860040Y-113782389D01*
X112904328Y-113773580D01*
X112984193Y-113740499D01*
X113031807Y-113720777D01*
X113031808Y-113720776D01*
X113031811Y-113720775D01*
X113146543Y-113644114D01*
X116699290Y-110091365D01*
X116746013Y-110062007D01*
X116849522Y-110025789D01*
X117002262Y-109929816D01*
X117129816Y-109802262D01*
X117225789Y-109649522D01*
X117285368Y-109479255D01*
X117285369Y-109479249D01*
X117305565Y-109300003D01*
X117305565Y-109299996D01*
X117285369Y-109120750D01*
X117285368Y-109120745D01*
X117271230Y-109080341D01*
X117225789Y-108950478D01*
X117207106Y-108920745D01*
X117162916Y-108850417D01*
X117129816Y-108797738D01*
X117002262Y-108670184D01*
X116926404Y-108622519D01*
X116849523Y-108574211D01*
X116679254Y-108514631D01*
X116679249Y-108514630D01*
X116500004Y-108494435D01*
X116499996Y-108494435D01*
X116320750Y-108514630D01*
X116320745Y-108514631D01*
X116150476Y-108574211D01*
X115997737Y-108670184D01*
X115870184Y-108797737D01*
X115774212Y-108950475D01*
X115774211Y-108950476D01*
X115737992Y-109053984D01*
X115708632Y-109100709D01*
X112446162Y-112363181D01*
X112384839Y-112396666D01*
X112358481Y-112399500D01*
X106025494Y-112399500D01*
X105959523Y-112380494D01*
X105949525Y-112374212D01*
X105779254Y-112314631D01*
X105779249Y-112314630D01*
X105600004Y-112294435D01*
X105599996Y-112294435D01*
X105420750Y-112314630D01*
X105420745Y-112314631D01*
X105250476Y-112374211D01*
X105097737Y-112470184D01*
X104970184Y-112597737D01*
X104874211Y-112750476D01*
X104814631Y-112920745D01*
X104814630Y-112920750D01*
X104794435Y-113099996D01*
X104794435Y-113100003D01*
X95504000Y-113100003D01*
X95504000Y-95300003D01*
X99594435Y-95300003D01*
X99614630Y-95479249D01*
X99614631Y-95479254D01*
X99674211Y-95649523D01*
X99766009Y-95795618D01*
X99770184Y-95802262D01*
X99897738Y-95929816D01*
X99952681Y-95964339D01*
X100050474Y-96025787D01*
X100050478Y-96025789D01*
X100175857Y-96069661D01*
X100220745Y-96085368D01*
X100220750Y-96085369D01*
X100399996Y-96105565D01*
X100400000Y-96105565D01*
X100400004Y-96105565D01*
X100579249Y-96085369D01*
X100579252Y-96085368D01*
X100579255Y-96085368D01*
X100749522Y-96025789D01*
X100750488Y-96025181D01*
X100759523Y-96019506D01*
X100825494Y-96000500D01*
X111068996Y-96000500D01*
X111160040Y-95982389D01*
X111204328Y-95973580D01*
X111226621Y-95964345D01*
X111296089Y-95956877D01*
X111358568Y-95988152D01*
X111394221Y-96048240D01*
X111391728Y-96118066D01*
X111361754Y-96166588D01*
X108665162Y-98863181D01*
X108603839Y-98896666D01*
X108577481Y-98899500D01*
X106025494Y-98899500D01*
X105959523Y-98880494D01*
X105949525Y-98874212D01*
X105779254Y-98814631D01*
X105779249Y-98814630D01*
X105600004Y-98794435D01*
X105599996Y-98794435D01*
X105420750Y-98814630D01*
X105420745Y-98814631D01*
X105250476Y-98874211D01*
X105097737Y-98970184D01*
X104970184Y-99097737D01*
X104874211Y-99250476D01*
X104814631Y-99420745D01*
X104814630Y-99420750D01*
X104794435Y-99599996D01*
X104794435Y-99600003D01*
X104814630Y-99779249D01*
X104814631Y-99779254D01*
X104874211Y-99949523D01*
X104922489Y-100026356D01*
X104970184Y-100102262D01*
X105097738Y-100229816D01*
X105131392Y-100250962D01*
X105250474Y-100325787D01*
X105250478Y-100325789D01*
X105420745Y-100385368D01*
X105420750Y-100385369D01*
X105599996Y-100405565D01*
X105600000Y-100405565D01*
X105600004Y-100405565D01*
X105779249Y-100385369D01*
X105779252Y-100385368D01*
X105779255Y-100385368D01*
X105949522Y-100325789D01*
X105950488Y-100325181D01*
X105959523Y-100319506D01*
X106025494Y-100300500D01*
X108987996Y-100300500D01*
X109109005Y-100276429D01*
X109123328Y-100273580D01*
X109217734Y-100234476D01*
X109250807Y-100220777D01*
X109250808Y-100220776D01*
X109250811Y-100220775D01*
X109365543Y-100144114D01*
X118344334Y-91165322D01*
X118405655Y-91131839D01*
X118475347Y-91136823D01*
X118531280Y-91178695D01*
X118549944Y-91214686D01*
X118600945Y-91371646D01*
X118602941Y-91441487D01*
X118570695Y-91497646D01*
X116355887Y-93712454D01*
X116279222Y-93827192D01*
X116226421Y-93954667D01*
X116226418Y-93954677D01*
X116199500Y-94090004D01*
X116199500Y-103174507D01*
X116180494Y-103240478D01*
X116174209Y-103250479D01*
X116114633Y-103420737D01*
X116114630Y-103420750D01*
X116094435Y-103599996D01*
X116094435Y-103600003D01*
X116114630Y-103779249D01*
X116114631Y-103779254D01*
X116174211Y-103949523D01*
X116215122Y-104014632D01*
X116270184Y-104102262D01*
X116397738Y-104229816D01*
X116505834Y-104297737D01*
X116534711Y-104315882D01*
X116581002Y-104368217D01*
X116591650Y-104437271D01*
X116563275Y-104501119D01*
X116556420Y-104508557D01*
X112701797Y-108363181D01*
X112640474Y-108396666D01*
X112614116Y-108399500D01*
X101225494Y-108399500D01*
X101159523Y-108380494D01*
X101149525Y-108374212D01*
X100979254Y-108314631D01*
X100979249Y-108314630D01*
X100800004Y-108294435D01*
X100799996Y-108294435D01*
X100620750Y-108314630D01*
X100620745Y-108314631D01*
X100450476Y-108374211D01*
X100297737Y-108470184D01*
X100170184Y-108597737D01*
X100074210Y-108750478D01*
X100014630Y-108920750D01*
X100006332Y-108994405D01*
X100004730Y-109004711D01*
X99999500Y-109031006D01*
X99999500Y-109048085D01*
X99998720Y-109061969D01*
X99994435Y-109099998D01*
X99994435Y-109100001D01*
X99998720Y-109138029D01*
X99999500Y-109151914D01*
X99999500Y-109168994D01*
X100004728Y-109195276D01*
X100006331Y-109205585D01*
X100014630Y-109279249D01*
X100014631Y-109279254D01*
X100014632Y-109279255D01*
X100021194Y-109298009D01*
X100074210Y-109449521D01*
X100105347Y-109499075D01*
X100170184Y-109602262D01*
X100297738Y-109729816D01*
X100319930Y-109743760D01*
X100450474Y-109825787D01*
X100450478Y-109825789D01*
X100504480Y-109844685D01*
X100620745Y-109885368D01*
X100620750Y-109885369D01*
X100799996Y-109905565D01*
X100800000Y-109905565D01*
X100800004Y-109905565D01*
X100979249Y-109885369D01*
X100979252Y-109885368D01*
X100979255Y-109885368D01*
X101149522Y-109825789D01*
X101150488Y-109825181D01*
X101159523Y-109819506D01*
X101225494Y-109800500D01*
X113024631Y-109800500D01*
X113115675Y-109782389D01*
X113159963Y-109773580D01*
X113231958Y-109743759D01*
X113287442Y-109720777D01*
X113287443Y-109720776D01*
X113287446Y-109720775D01*
X113402178Y-109644114D01*
X118544113Y-104502178D01*
X118599808Y-104418824D01*
X118653420Y-104374020D01*
X118722745Y-104365313D01*
X118785772Y-104395467D01*
X118803227Y-104414830D01*
X118806310Y-104419073D01*
X118939927Y-104552690D01*
X119092801Y-104663760D01*
X119154973Y-104695438D01*
X119261163Y-104749545D01*
X119261165Y-104749545D01*
X119261168Y-104749547D01*
X119341467Y-104775638D01*
X119382803Y-104789069D01*
X119440478Y-104828507D01*
X119467676Y-104892866D01*
X119455761Y-104961712D01*
X119408516Y-105013188D01*
X119382803Y-105024931D01*
X119261163Y-105064454D01*
X119092800Y-105150240D01*
X119016536Y-105205650D01*
X118939927Y-105261310D01*
X118939925Y-105261312D01*
X118939924Y-105261312D01*
X118806312Y-105394924D01*
X118806312Y-105394925D01*
X118806310Y-105394927D01*
X118780326Y-105430691D01*
X118695240Y-105547800D01*
X118609454Y-105716163D01*
X118551059Y-105895881D01*
X118521500Y-106082513D01*
X118521500Y-106271486D01*
X118551059Y-106458118D01*
X118609454Y-106637836D01*
X118676889Y-106770184D01*
X118695240Y-106806199D01*
X118806310Y-106959073D01*
X118939927Y-107092690D01*
X119092801Y-107203760D01*
X119126146Y-107220750D01*
X119261163Y-107289545D01*
X119261165Y-107289545D01*
X119261168Y-107289547D01*
X119350734Y-107318649D01*
X119382803Y-107329069D01*
X119440478Y-107368507D01*
X119467676Y-107432866D01*
X119455761Y-107501712D01*
X119408516Y-107553188D01*
X119382803Y-107564931D01*
X119261163Y-107604454D01*
X119092800Y-107690240D01*
X119051840Y-107720000D01*
X118939927Y-107801310D01*
X118939925Y-107801312D01*
X118939924Y-107801312D01*
X118806312Y-107934924D01*
X118806312Y-107934925D01*
X118806310Y-107934927D01*
X118780326Y-107970691D01*
X118695240Y-108087800D01*
X118609454Y-108256163D01*
X118551059Y-108435881D01*
X118521500Y-108622513D01*
X118521500Y-108811486D01*
X118551059Y-108998118D01*
X118609454Y-109177836D01*
X118671702Y-109300003D01*
X118695240Y-109346199D01*
X118806310Y-109499073D01*
X118939927Y-109632690D01*
X119092801Y-109743760D01*
X119151326Y-109773580D01*
X119261163Y-109829545D01*
X119261165Y-109829545D01*
X119261168Y-109829547D01*
X119307758Y-109844685D01*
X119382803Y-109869069D01*
X119440478Y-109908507D01*
X119467676Y-109972866D01*
X119455761Y-110041712D01*
X119408516Y-110093188D01*
X119382803Y-110104931D01*
X119261163Y-110144454D01*
X119092800Y-110230240D01*
X119007843Y-110291966D01*
X118939927Y-110341310D01*
X118939925Y-110341312D01*
X118939924Y-110341312D01*
X118806312Y-110474924D01*
X118806312Y-110474925D01*
X118806310Y-110474927D01*
X118780326Y-110510691D01*
X118695240Y-110627800D01*
X118609454Y-110796163D01*
X118551059Y-110975881D01*
X118521500Y-111162513D01*
X118521500Y-111351486D01*
X118551059Y-111538118D01*
X118609454Y-111717836D01*
X118642408Y-111782511D01*
X118695240Y-111886199D01*
X118806310Y-112039073D01*
X118939927Y-112172690D01*
X119092801Y-112283760D01*
X119153387Y-112314630D01*
X119261163Y-112369545D01*
X119261165Y-112369545D01*
X119261168Y-112369547D01*
X119328107Y-112391297D01*
X119382803Y-112409069D01*
X119440478Y-112448507D01*
X119467676Y-112512866D01*
X119455761Y-112581712D01*
X119408516Y-112633188D01*
X119382803Y-112644931D01*
X119261163Y-112684454D01*
X119092800Y-112770240D01*
X119023597Y-112820520D01*
X118939927Y-112881310D01*
X118939925Y-112881312D01*
X118939924Y-112881312D01*
X118806312Y-113014924D01*
X118806312Y-113014925D01*
X118806310Y-113014927D01*
X118758610Y-113080579D01*
X118695240Y-113167800D01*
X118609454Y-113336163D01*
X118551059Y-113515881D01*
X118521500Y-113702513D01*
X118521500Y-113891486D01*
X118551059Y-114078118D01*
X118609454Y-114257836D01*
X118683164Y-114402499D01*
X118695240Y-114426199D01*
X118806310Y-114579073D01*
X118939927Y-114712690D01*
X119092801Y-114823760D01*
X119154702Y-114855300D01*
X119261163Y-114909545D01*
X119261165Y-114909545D01*
X119261168Y-114909547D01*
X119338411Y-114934645D01*
X119440881Y-114967940D01*
X119627514Y-114997500D01*
X119627519Y-114997500D01*
X120616486Y-114997500D01*
X120803118Y-114967940D01*
X120804100Y-114967621D01*
X120982832Y-114909547D01*
X121151199Y-114823760D01*
X121304073Y-114712690D01*
X121437690Y-114579073D01*
X121548760Y-114426199D01*
X121634547Y-114257832D01*
X121692940Y-114078118D01*
X121699053Y-114039523D01*
X121722500Y-113891486D01*
X121722500Y-113702513D01*
X121692940Y-113515881D01*
X121648179Y-113378123D01*
X121634547Y-113336168D01*
X121634545Y-113336165D01*
X121634545Y-113336163D01*
X121548759Y-113167800D01*
X121546856Y-113165181D01*
X121437690Y-113014927D01*
X121304073Y-112881310D01*
X121151199Y-112770240D01*
X121112410Y-112750476D01*
X120982836Y-112684454D01*
X120908472Y-112660291D01*
X120861195Y-112644930D01*
X120803521Y-112605493D01*
X120776323Y-112541134D01*
X120788238Y-112472288D01*
X120835482Y-112420812D01*
X120861194Y-112409069D01*
X120982832Y-112369547D01*
X121151199Y-112283760D01*
X121304073Y-112172690D01*
X121437690Y-112039073D01*
X121548760Y-111886199D01*
X121634547Y-111717832D01*
X121692940Y-111538118D01*
X121693523Y-111534435D01*
X121722500Y-111351486D01*
X121722500Y-111162513D01*
X121692940Y-110975881D01*
X121634545Y-110796163D01*
X121587938Y-110704692D01*
X121548760Y-110627801D01*
X121437690Y-110474927D01*
X121304073Y-110341310D01*
X121151199Y-110230240D01*
X121086592Y-110197321D01*
X120982836Y-110144454D01*
X120908472Y-110120291D01*
X120861195Y-110104930D01*
X120803521Y-110065493D01*
X120776323Y-110001134D01*
X120788238Y-109932288D01*
X120835482Y-109880812D01*
X120861194Y-109869069D01*
X120982832Y-109829547D01*
X121151199Y-109743760D01*
X121304073Y-109632690D01*
X121437690Y-109499073D01*
X121548760Y-109346199D01*
X121634547Y-109177832D01*
X121692940Y-108998118D01*
X121694272Y-108989711D01*
X121722500Y-108811486D01*
X121722500Y-108622513D01*
X121692940Y-108435881D01*
X121653543Y-108314631D01*
X121634547Y-108256168D01*
X121634545Y-108256165D01*
X121634545Y-108256163D01*
X121582155Y-108153343D01*
X121548760Y-108087801D01*
X121437690Y-107934927D01*
X121304073Y-107801310D01*
X121151199Y-107690240D01*
X121127850Y-107678343D01*
X120982836Y-107604454D01*
X120877379Y-107570189D01*
X120861195Y-107564930D01*
X120803521Y-107525493D01*
X120776323Y-107461134D01*
X120788238Y-107392288D01*
X120835482Y-107340812D01*
X120861194Y-107329069D01*
X120982832Y-107289547D01*
X121151199Y-107203760D01*
X121304073Y-107092690D01*
X121437690Y-106959073D01*
X121548760Y-106806199D01*
X121634547Y-106637832D01*
X121692940Y-106458118D01*
X121698371Y-106423828D01*
X121722500Y-106271486D01*
X121722500Y-106082513D01*
X121692940Y-105895881D01*
X121663135Y-105804152D01*
X121634547Y-105716168D01*
X121634545Y-105716165D01*
X121634545Y-105716163D01*
X121570958Y-105591367D01*
X121548760Y-105547801D01*
X121437690Y-105394927D01*
X121304073Y-105261310D01*
X121151199Y-105150240D01*
X121149790Y-105149522D01*
X120982836Y-105064454D01*
X120888843Y-105033914D01*
X120861195Y-105024930D01*
X120803521Y-104985493D01*
X120776323Y-104921134D01*
X120788238Y-104852288D01*
X120835482Y-104800812D01*
X120861194Y-104789069D01*
X120982832Y-104749547D01*
X121151199Y-104663760D01*
X121304073Y-104552690D01*
X121437690Y-104419073D01*
X121548760Y-104266199D01*
X121634547Y-104097832D01*
X121692940Y-103918118D01*
X121697573Y-103888867D01*
X121722500Y-103731486D01*
X121722500Y-103542513D01*
X121692940Y-103355881D01*
X121634545Y-103176163D01*
X121548759Y-103007800D01*
X121437690Y-102854927D01*
X121304073Y-102721310D01*
X121151199Y-102610240D01*
X121151191Y-102610236D01*
X120982836Y-102524454D01*
X120876705Y-102489970D01*
X120861195Y-102484930D01*
X120803521Y-102445493D01*
X120776323Y-102381134D01*
X120788238Y-102312288D01*
X120835482Y-102260812D01*
X120861194Y-102249069D01*
X120982832Y-102209547D01*
X121151199Y-102123760D01*
X121304073Y-102012690D01*
X121437690Y-101879073D01*
X121548760Y-101726199D01*
X121634547Y-101557832D01*
X121692940Y-101378118D01*
X121694662Y-101367243D01*
X121722500Y-101191486D01*
X121722500Y-101002513D01*
X121692940Y-100815881D01*
X121634545Y-100636163D01*
X121548759Y-100467800D01*
X121437690Y-100314927D01*
X121304073Y-100181310D01*
X121151199Y-100070240D01*
X120982836Y-99984454D01*
X120868521Y-99947311D01*
X120861195Y-99944930D01*
X120803521Y-99905493D01*
X120776323Y-99841134D01*
X120788238Y-99772288D01*
X120835482Y-99720812D01*
X120861194Y-99709069D01*
X120982832Y-99669547D01*
X121151199Y-99583760D01*
X121304073Y-99472690D01*
X121437690Y-99339073D01*
X121548760Y-99186199D01*
X121634547Y-99017832D01*
X121692940Y-98838118D01*
X121697869Y-98807000D01*
X121722500Y-98651486D01*
X121722500Y-98462513D01*
X121692940Y-98275881D01*
X121634545Y-98096163D01*
X121548759Y-97927800D01*
X121543396Y-97920418D01*
X121437690Y-97774927D01*
X121304073Y-97641310D01*
X121151199Y-97530240D01*
X120982836Y-97444454D01*
X120908472Y-97420291D01*
X120861195Y-97404930D01*
X120803521Y-97365493D01*
X120776323Y-97301134D01*
X120788238Y-97232288D01*
X120835482Y-97180812D01*
X120861194Y-97169069D01*
X120982832Y-97129547D01*
X121151199Y-97043760D01*
X121304073Y-96932690D01*
X121437690Y-96799073D01*
X121548760Y-96646199D01*
X121634547Y-96477832D01*
X121692940Y-96298118D01*
X121697869Y-96267000D01*
X121722500Y-96111486D01*
X121722500Y-95922513D01*
X121692940Y-95735881D01*
X121634545Y-95556163D01*
X121548759Y-95387800D01*
X121437690Y-95234927D01*
X121304073Y-95101310D01*
X121151199Y-94990240D01*
X120982836Y-94904454D01*
X120865456Y-94866315D01*
X120861195Y-94864930D01*
X120803521Y-94825493D01*
X120776323Y-94761134D01*
X120788238Y-94692288D01*
X120835482Y-94640812D01*
X120861194Y-94629069D01*
X120982832Y-94589547D01*
X121151199Y-94503760D01*
X121304073Y-94392690D01*
X121437690Y-94259073D01*
X121548760Y-94106199D01*
X121634547Y-93937832D01*
X121692940Y-93758118D01*
X121700172Y-93712457D01*
X121722500Y-93571486D01*
X121722500Y-93382513D01*
X121692940Y-93195881D01*
X121634545Y-93016163D01*
X121559398Y-92868680D01*
X121548760Y-92847801D01*
X121437690Y-92694927D01*
X121304073Y-92561310D01*
X121151199Y-92450240D01*
X121144932Y-92447047D01*
X120982836Y-92364454D01*
X120868361Y-92327259D01*
X120861195Y-92324930D01*
X120803521Y-92285493D01*
X120776323Y-92221134D01*
X120788238Y-92152288D01*
X120835482Y-92100812D01*
X120861194Y-92089069D01*
X120982832Y-92049547D01*
X121151199Y-91963760D01*
X121304073Y-91852690D01*
X121437690Y-91719073D01*
X121548760Y-91566199D01*
X121634547Y-91397832D01*
X121692940Y-91218118D01*
X121705816Y-91136823D01*
X121722500Y-91031486D01*
X121722500Y-90842513D01*
X121692940Y-90655881D01*
X121634545Y-90476163D01*
X121548759Y-90307800D01*
X121437690Y-90154927D01*
X121304073Y-90021310D01*
X121151199Y-89910240D01*
X121131102Y-89900000D01*
X120982836Y-89824454D01*
X120908472Y-89800291D01*
X120861195Y-89784930D01*
X120803521Y-89745493D01*
X120776323Y-89681134D01*
X120788238Y-89612288D01*
X120835482Y-89560812D01*
X120861194Y-89549069D01*
X120982832Y-89509547D01*
X121151199Y-89423760D01*
X121304073Y-89312690D01*
X121437690Y-89179073D01*
X121548760Y-89026199D01*
X121634547Y-88857832D01*
X121692940Y-88678118D01*
X121701228Y-88625788D01*
X121722500Y-88491486D01*
X121722500Y-88302513D01*
X121692940Y-88115881D01*
X121645111Y-87968680D01*
X121634547Y-87936168D01*
X121634545Y-87936165D01*
X121634545Y-87936163D01*
X121565166Y-87800000D01*
X121548760Y-87767801D01*
X121437690Y-87614927D01*
X121304073Y-87481310D01*
X121151199Y-87370240D01*
X120982836Y-87284454D01*
X120908472Y-87260291D01*
X120861195Y-87244930D01*
X120803521Y-87205493D01*
X120776323Y-87141134D01*
X120788238Y-87072288D01*
X120835482Y-87020812D01*
X120861194Y-87009069D01*
X120982832Y-86969547D01*
X121151199Y-86883760D01*
X121304073Y-86772690D01*
X121437690Y-86639073D01*
X121548760Y-86486199D01*
X121634547Y-86317832D01*
X121692940Y-86138118D01*
X121704383Y-86065868D01*
X121722500Y-85951486D01*
X121722500Y-85762513D01*
X121692940Y-85575881D01*
X121634545Y-85396163D01*
X121553852Y-85237795D01*
X121540956Y-85169126D01*
X121567232Y-85104385D01*
X121624339Y-85064128D01*
X121664337Y-85057500D01*
X136359663Y-85057500D01*
X136426702Y-85077185D01*
X136472457Y-85129989D01*
X136482401Y-85199147D01*
X136470148Y-85237795D01*
X136389454Y-85396163D01*
X136331059Y-85575881D01*
X136301500Y-85762513D01*
X136301500Y-85951486D01*
X136331059Y-86138118D01*
X136389454Y-86317836D01*
X136458557Y-86453457D01*
X136475240Y-86486199D01*
X136586310Y-86639073D01*
X136719927Y-86772690D01*
X136872801Y-86883760D01*
X136915596Y-86905565D01*
X137041163Y-86969545D01*
X137041165Y-86969545D01*
X137041168Y-86969547D01*
X137097225Y-86987761D01*
X137162803Y-87009069D01*
X137220478Y-87048507D01*
X137247676Y-87112866D01*
X137235761Y-87181712D01*
X137188516Y-87233188D01*
X137162803Y-87244931D01*
X137041163Y-87284454D01*
X136872800Y-87370240D01*
X136834953Y-87397738D01*
X136719927Y-87481310D01*
X136719925Y-87481312D01*
X136719924Y-87481312D01*
X136586312Y-87614924D01*
X136586312Y-87614925D01*
X136586310Y-87614927D01*
X136560326Y-87650691D01*
X136475240Y-87767800D01*
X136389454Y-87936163D01*
X136331059Y-88115881D01*
X136301500Y-88302513D01*
X136301500Y-88491486D01*
X136331059Y-88678118D01*
X136389454Y-88857836D01*
X136441315Y-88959618D01*
X136475240Y-89026199D01*
X136586310Y-89179073D01*
X136719927Y-89312690D01*
X136872801Y-89423760D01*
X136952347Y-89464290D01*
X137041163Y-89509545D01*
X137041165Y-89509545D01*
X137041168Y-89509547D01*
X137130734Y-89538649D01*
X137162803Y-89549069D01*
X137220478Y-89588507D01*
X137247676Y-89652866D01*
X137235761Y-89721712D01*
X137188516Y-89773188D01*
X137162803Y-89784931D01*
X137041163Y-89824454D01*
X136872800Y-89910240D01*
X136791150Y-89969563D01*
X136719927Y-90021310D01*
X136719925Y-90021312D01*
X136719924Y-90021312D01*
X136586312Y-90154924D01*
X136586312Y-90154925D01*
X136586310Y-90154927D01*
X136560326Y-90190691D01*
X136475240Y-90307800D01*
X136389454Y-90476163D01*
X136331059Y-90655881D01*
X136301500Y-90842513D01*
X136301500Y-91031486D01*
X136331059Y-91218118D01*
X136389454Y-91397836D01*
X136470948Y-91557775D01*
X136475240Y-91566199D01*
X136586310Y-91719073D01*
X136719927Y-91852690D01*
X136872801Y-91963760D01*
X136893931Y-91974526D01*
X137041163Y-92049545D01*
X137041165Y-92049545D01*
X137041168Y-92049547D01*
X137130734Y-92078649D01*
X137162803Y-92089069D01*
X137220478Y-92128507D01*
X137247676Y-92192866D01*
X137235761Y-92261712D01*
X137188516Y-92313188D01*
X137162803Y-92324931D01*
X137041163Y-92364454D01*
X136872800Y-92450240D01*
X136840939Y-92473389D01*
X136719927Y-92561310D01*
X136719925Y-92561312D01*
X136719924Y-92561312D01*
X136586312Y-92694924D01*
X136586312Y-92694925D01*
X136586310Y-92694927D01*
X136560326Y-92730691D01*
X136475240Y-92847800D01*
X136389454Y-93016163D01*
X136331059Y-93195881D01*
X136301500Y-93382513D01*
X136301500Y-93571486D01*
X136331059Y-93758118D01*
X136389454Y-93937836D01*
X136446188Y-94049181D01*
X136475240Y-94106199D01*
X136586310Y-94259073D01*
X136719927Y-94392690D01*
X136872801Y-94503760D01*
X136894135Y-94514630D01*
X137026440Y-94582043D01*
X137077236Y-94630018D01*
X137094031Y-94697839D01*
X137071494Y-94763974D01*
X137016778Y-94807425D01*
X137008469Y-94810457D01*
X137002971Y-94812243D01*
X136820650Y-94905140D01*
X136655105Y-95025417D01*
X136655104Y-95025417D01*
X136510417Y-95170104D01*
X136510417Y-95170105D01*
X136390140Y-95335650D01*
X136297244Y-95517970D01*
X136234009Y-95712586D01*
X136225391Y-95767000D01*
X137586314Y-95767000D01*
X137581920Y-95771394D01*
X137529259Y-95862606D01*
X137502000Y-95964339D01*
X137502000Y-96069661D01*
X137529259Y-96171394D01*
X137581920Y-96262606D01*
X137586314Y-96267000D01*
X136225391Y-96267000D01*
X136234009Y-96321413D01*
X136297244Y-96516029D01*
X136390140Y-96698349D01*
X136510417Y-96863894D01*
X136510417Y-96863895D01*
X136655104Y-97008582D01*
X136820650Y-97128859D01*
X136914179Y-97176515D01*
X136964975Y-97224490D01*
X136981770Y-97292311D01*
X136959232Y-97358446D01*
X136914179Y-97397485D01*
X136820650Y-97445140D01*
X136655105Y-97565417D01*
X136655104Y-97565417D01*
X136510417Y-97710104D01*
X136510417Y-97710105D01*
X136390140Y-97875650D01*
X136297244Y-98057970D01*
X136234009Y-98252586D01*
X136225391Y-98307000D01*
X137586314Y-98307000D01*
X137581920Y-98311394D01*
X137529259Y-98402606D01*
X137502000Y-98504339D01*
X137502000Y-98609661D01*
X137529259Y-98711394D01*
X137581920Y-98802606D01*
X137586314Y-98807000D01*
X136225391Y-98807000D01*
X136234009Y-98861413D01*
X136297244Y-99056029D01*
X136390140Y-99238349D01*
X136510417Y-99403894D01*
X136510417Y-99403895D01*
X136655104Y-99548582D01*
X136820650Y-99668859D01*
X136914179Y-99716515D01*
X136964975Y-99764490D01*
X136981770Y-99832311D01*
X136959232Y-99898446D01*
X136914179Y-99937485D01*
X136820650Y-99985140D01*
X136655105Y-100105417D01*
X136655104Y-100105417D01*
X136510417Y-100250104D01*
X136510417Y-100250105D01*
X136390140Y-100415650D01*
X136297244Y-100597970D01*
X136234009Y-100792586D01*
X136225391Y-100847000D01*
X137586314Y-100847000D01*
X137581920Y-100851394D01*
X137529259Y-100942606D01*
X137502000Y-101044339D01*
X137502000Y-101149661D01*
X137529259Y-101251394D01*
X137581920Y-101342606D01*
X137586314Y-101347000D01*
X136225391Y-101347000D01*
X136234009Y-101401413D01*
X136297244Y-101596029D01*
X136390140Y-101778349D01*
X136510417Y-101943894D01*
X136510417Y-101943895D01*
X136655104Y-102088582D01*
X136820650Y-102208859D01*
X137002967Y-102301754D01*
X137008458Y-102303538D01*
X137066135Y-102342973D01*
X137093336Y-102407331D01*
X137081425Y-102476178D01*
X137034183Y-102527655D01*
X137026440Y-102531955D01*
X136872805Y-102610236D01*
X136780676Y-102677173D01*
X136719927Y-102721310D01*
X136719925Y-102721312D01*
X136719924Y-102721312D01*
X136586312Y-102854924D01*
X136586312Y-102854925D01*
X136586310Y-102854927D01*
X136560326Y-102890691D01*
X136475240Y-103007800D01*
X136389454Y-103176163D01*
X136331059Y-103355881D01*
X136301500Y-103542513D01*
X136301500Y-103731486D01*
X136331059Y-103918118D01*
X136389454Y-104097836D01*
X136467134Y-104250291D01*
X136475240Y-104266199D01*
X136586310Y-104419073D01*
X136719927Y-104552690D01*
X136872801Y-104663760D01*
X136934973Y-104695438D01*
X137041163Y-104749545D01*
X137041165Y-104749545D01*
X137041168Y-104749547D01*
X137121467Y-104775638D01*
X137162803Y-104789069D01*
X137220478Y-104828507D01*
X137247676Y-104892866D01*
X137235761Y-104961712D01*
X137188516Y-105013188D01*
X137162803Y-105024931D01*
X137041163Y-105064454D01*
X136872800Y-105150240D01*
X136796536Y-105205650D01*
X136719927Y-105261310D01*
X136719925Y-105261312D01*
X136719924Y-105261312D01*
X136586312Y-105394924D01*
X136586312Y-105394925D01*
X136586310Y-105394927D01*
X136560326Y-105430691D01*
X136475240Y-105547800D01*
X136389454Y-105716163D01*
X136331059Y-105895881D01*
X136301500Y-106082513D01*
X136301500Y-106271486D01*
X136331059Y-106458118D01*
X136362110Y-106553679D01*
X136377697Y-106601652D01*
X136380945Y-106611646D01*
X136382940Y-106681487D01*
X136350695Y-106737646D01*
X135632887Y-107455454D01*
X135556222Y-107570192D01*
X135503421Y-107697667D01*
X135503418Y-107697679D01*
X135479051Y-107820179D01*
X135479051Y-107820184D01*
X135476500Y-107833007D01*
X135476500Y-114808006D01*
X135476500Y-114945994D01*
X135476500Y-114945996D01*
X135476499Y-114945996D01*
X135503418Y-115081322D01*
X135503421Y-115081332D01*
X135556222Y-115208807D01*
X135632887Y-115323545D01*
X138653454Y-118344112D01*
X138768190Y-118420776D01*
X138866790Y-118461617D01*
X138895671Y-118473580D01*
X138895672Y-118473580D01*
X138895677Y-118473582D01*
X138922545Y-118478925D01*
X138922551Y-118478926D01*
X138922591Y-118478934D01*
X139012937Y-118496905D01*
X139031006Y-118500500D01*
X139031007Y-118500500D01*
X140174506Y-118500500D01*
X140240477Y-118519506D01*
X140250474Y-118525787D01*
X140250475Y-118525787D01*
X140250478Y-118525789D01*
X140385891Y-118573172D01*
X140420745Y-118585368D01*
X140420750Y-118585369D01*
X140599996Y-118605565D01*
X140600000Y-118605565D01*
X140600004Y-118605565D01*
X140779249Y-118585369D01*
X140779252Y-118585368D01*
X140779255Y-118585368D01*
X140949522Y-118525789D01*
X141102262Y-118429816D01*
X141229816Y-118302262D01*
X141325789Y-118149522D01*
X141385368Y-117979255D01*
X141385369Y-117979249D01*
X141405565Y-117800003D01*
X141405565Y-117799996D01*
X141385369Y-117620750D01*
X141385368Y-117620745D01*
X141335715Y-117478846D01*
X141325789Y-117450478D01*
X141229816Y-117297738D01*
X141102262Y-117170184D01*
X141064442Y-117146420D01*
X140949523Y-117074211D01*
X140779254Y-117014631D01*
X140779249Y-117014630D01*
X140600004Y-116994435D01*
X140599996Y-116994435D01*
X140420750Y-117014630D01*
X140420745Y-117014631D01*
X140250474Y-117074212D01*
X140240477Y-117080494D01*
X140174506Y-117099500D01*
X139441519Y-117099500D01*
X139374480Y-117079815D01*
X139353838Y-117063181D01*
X137499837Y-115209180D01*
X137466352Y-115147857D01*
X137471336Y-115078165D01*
X137513208Y-115022232D01*
X137578672Y-114997815D01*
X137587518Y-114997499D01*
X139133517Y-114997499D01*
X139133518Y-114997499D01*
X139227304Y-114982646D01*
X139340342Y-114925050D01*
X139430050Y-114835342D01*
X139487646Y-114722304D01*
X139487646Y-114722302D01*
X139487647Y-114722301D01*
X139502499Y-114628524D01*
X139502500Y-114628519D01*
X139502499Y-112965482D01*
X139487646Y-112871696D01*
X139430050Y-112758658D01*
X139430046Y-112758654D01*
X139430045Y-112758652D01*
X139340347Y-112668954D01*
X139340344Y-112668952D01*
X139340342Y-112668950D01*
X139256166Y-112626060D01*
X139227301Y-112611352D01*
X139133524Y-112596500D01*
X139133519Y-112596500D01*
X139051546Y-112596500D01*
X138984507Y-112576815D01*
X138938752Y-112524011D01*
X138928808Y-112454853D01*
X138957833Y-112391297D01*
X138979980Y-112372513D01*
X138979407Y-112371724D01*
X139148894Y-112248582D01*
X139148895Y-112248582D01*
X139293582Y-112103895D01*
X139293582Y-112103894D01*
X139413859Y-111938349D01*
X139506755Y-111756029D01*
X139569990Y-111561413D01*
X139578609Y-111507000D01*
X138217686Y-111507000D01*
X138222080Y-111502606D01*
X138274741Y-111411394D01*
X138302000Y-111309661D01*
X138302000Y-111204339D01*
X138274741Y-111102606D01*
X138222080Y-111011394D01*
X138217686Y-111007000D01*
X139578609Y-111007000D01*
X139569990Y-110952586D01*
X139506755Y-110757970D01*
X139413859Y-110575650D01*
X139293582Y-110410105D01*
X139293582Y-110410104D01*
X139148895Y-110265417D01*
X138983349Y-110145140D01*
X138801027Y-110052242D01*
X138795534Y-110050458D01*
X138737859Y-110011020D01*
X138710662Y-109946661D01*
X138722578Y-109877815D01*
X138769822Y-109826340D01*
X138777559Y-109822043D01*
X138931199Y-109743760D01*
X139084073Y-109632690D01*
X139217690Y-109499073D01*
X139328760Y-109346199D01*
X139414547Y-109177832D01*
X139472940Y-108998118D01*
X139474272Y-108989711D01*
X139502500Y-108811486D01*
X139502500Y-108622513D01*
X139472940Y-108435881D01*
X139433543Y-108314631D01*
X139414547Y-108256168D01*
X139414545Y-108256165D01*
X139414545Y-108256163D01*
X139362155Y-108153343D01*
X139328760Y-108087801D01*
X139217690Y-107934927D01*
X139084073Y-107801310D01*
X138931199Y-107690240D01*
X138907850Y-107678343D01*
X138762836Y-107604454D01*
X138657379Y-107570189D01*
X138641195Y-107564930D01*
X138583521Y-107525493D01*
X138556323Y-107461134D01*
X138566903Y-107400003D01*
X146394435Y-107400003D01*
X146414630Y-107579249D01*
X146414631Y-107579254D01*
X146474211Y-107749523D01*
X146518608Y-107820180D01*
X146570184Y-107902262D01*
X146697738Y-108029816D01*
X146767385Y-108073578D01*
X146850474Y-108125787D01*
X146850478Y-108125789D01*
X146941783Y-108157738D01*
X147020745Y-108185368D01*
X147020750Y-108185369D01*
X147199996Y-108205565D01*
X147200000Y-108205565D01*
X147200004Y-108205565D01*
X147379249Y-108185369D01*
X147379252Y-108185368D01*
X147379255Y-108185368D01*
X147549522Y-108125789D01*
X147550488Y-108125181D01*
X147559523Y-108119506D01*
X147625494Y-108100500D01*
X149468996Y-108100500D01*
X149560040Y-108082389D01*
X149604328Y-108073580D01*
X149709096Y-108030184D01*
X149731807Y-108020777D01*
X149731808Y-108020776D01*
X149731811Y-108020775D01*
X149846543Y-107944114D01*
X152199290Y-105591365D01*
X152246013Y-105562007D01*
X152349522Y-105525789D01*
X152502262Y-105429816D01*
X152629816Y-105302262D01*
X152725789Y-105149522D01*
X152785368Y-104979255D01*
X152785369Y-104979249D01*
X152805565Y-104800003D01*
X152805565Y-104799996D01*
X152785369Y-104620750D01*
X152785368Y-104620745D01*
X152771355Y-104580697D01*
X152725789Y-104450478D01*
X152717490Y-104437271D01*
X152669234Y-104360472D01*
X152629816Y-104297738D01*
X152502262Y-104170184D01*
X152467840Y-104148555D01*
X152349523Y-104074211D01*
X152179254Y-104014631D01*
X152179249Y-104014630D01*
X152000004Y-103994435D01*
X151999996Y-103994435D01*
X151820750Y-104014630D01*
X151820745Y-104014631D01*
X151650476Y-104074211D01*
X151497737Y-104170184D01*
X151370184Y-104297737D01*
X151274212Y-104450475D01*
X151274211Y-104450476D01*
X151237992Y-104553984D01*
X151208632Y-104600709D01*
X149146162Y-106663181D01*
X149084839Y-106696666D01*
X149058481Y-106699500D01*
X147625494Y-106699500D01*
X147559523Y-106680494D01*
X147549525Y-106674212D01*
X147379254Y-106614631D01*
X147379249Y-106614630D01*
X147200004Y-106594435D01*
X147199996Y-106594435D01*
X147020750Y-106614630D01*
X147020745Y-106614631D01*
X146850476Y-106674211D01*
X146697737Y-106770184D01*
X146570184Y-106897737D01*
X146474211Y-107050476D01*
X146414631Y-107220745D01*
X146414630Y-107220750D01*
X146394435Y-107399996D01*
X146394435Y-107400003D01*
X138566903Y-107400003D01*
X138568238Y-107392288D01*
X138615482Y-107340812D01*
X138641194Y-107329069D01*
X138762832Y-107289547D01*
X138931199Y-107203760D01*
X139084073Y-107092690D01*
X139217690Y-106959073D01*
X139328760Y-106806199D01*
X139414547Y-106637832D01*
X139472940Y-106458118D01*
X139478371Y-106423828D01*
X139502500Y-106271486D01*
X139502500Y-106082513D01*
X139472940Y-105895881D01*
X139443135Y-105804152D01*
X139414547Y-105716168D01*
X139414545Y-105716165D01*
X139414545Y-105716163D01*
X139350958Y-105591367D01*
X139328760Y-105547801D01*
X139217690Y-105394927D01*
X139084073Y-105261310D01*
X138931199Y-105150240D01*
X138929790Y-105149522D01*
X138762836Y-105064454D01*
X138668843Y-105033914D01*
X138641195Y-105024930D01*
X138583521Y-104985493D01*
X138556323Y-104921134D01*
X138568238Y-104852288D01*
X138615482Y-104800812D01*
X138641194Y-104789069D01*
X138762832Y-104749547D01*
X138931199Y-104663760D01*
X139084073Y-104552690D01*
X139217690Y-104419073D01*
X139328760Y-104266199D01*
X139414547Y-104097832D01*
X139472940Y-103918118D01*
X139477573Y-103888867D01*
X139502500Y-103731486D01*
X139502500Y-103542513D01*
X139472940Y-103355881D01*
X139414545Y-103176163D01*
X139328759Y-103007800D01*
X139217690Y-102854927D01*
X139084073Y-102721310D01*
X138931199Y-102610240D01*
X138931191Y-102610236D01*
X138777559Y-102531956D01*
X138726763Y-102483981D01*
X138709968Y-102416160D01*
X138732506Y-102350025D01*
X138787221Y-102306574D01*
X138795544Y-102303537D01*
X138801033Y-102301753D01*
X138983349Y-102208859D01*
X139148894Y-102088582D01*
X139148895Y-102088582D01*
X139293582Y-101943895D01*
X139293582Y-101943894D01*
X139413859Y-101778349D01*
X139506755Y-101596029D01*
X139569990Y-101401413D01*
X139578609Y-101347000D01*
X138217686Y-101347000D01*
X138222080Y-101342606D01*
X138274741Y-101251394D01*
X138302000Y-101149661D01*
X138302000Y-101044339D01*
X138274741Y-100942606D01*
X138222080Y-100851394D01*
X138217686Y-100847000D01*
X139578609Y-100847000D01*
X139569990Y-100792586D01*
X139506755Y-100597970D01*
X139413859Y-100415650D01*
X139293582Y-100250105D01*
X139293582Y-100250104D01*
X139148895Y-100105417D01*
X138983349Y-99985140D01*
X138889820Y-99937485D01*
X138839024Y-99889511D01*
X138822229Y-99821690D01*
X138844766Y-99755555D01*
X138889820Y-99716515D01*
X138983349Y-99668859D01*
X139148894Y-99548582D01*
X139148895Y-99548582D01*
X139293582Y-99403895D01*
X139293582Y-99403894D01*
X139413859Y-99238349D01*
X139506755Y-99056029D01*
X139569990Y-98861413D01*
X139578609Y-98807000D01*
X138217686Y-98807000D01*
X138222080Y-98802606D01*
X138274741Y-98711394D01*
X138302000Y-98609661D01*
X138302000Y-98552003D01*
X154134435Y-98552003D01*
X154154630Y-98731249D01*
X154154631Y-98731254D01*
X154214211Y-98901523D01*
X154231942Y-98929741D01*
X154310184Y-99054262D01*
X154437738Y-99181816D01*
X154497712Y-99219500D01*
X154575304Y-99268255D01*
X154590478Y-99277789D01*
X154760745Y-99337368D01*
X154760750Y-99337369D01*
X154939996Y-99357565D01*
X154940000Y-99357565D01*
X154940004Y-99357565D01*
X155119249Y-99337369D01*
X155119252Y-99337368D01*
X155119255Y-99337368D01*
X155289522Y-99277789D01*
X155442262Y-99181816D01*
X155569816Y-99054262D01*
X155665789Y-98901522D01*
X155725368Y-98731255D01*
X155734356Y-98651486D01*
X155745565Y-98552003D01*
X155745565Y-98551996D01*
X155725369Y-98372750D01*
X155725368Y-98372745D01*
X155684254Y-98255249D01*
X155665789Y-98202478D01*
X155569816Y-98049738D01*
X155501819Y-97981741D01*
X155468334Y-97920418D01*
X155465500Y-97894060D01*
X155465500Y-92097940D01*
X155485185Y-92030901D01*
X155501819Y-92010259D01*
X155569816Y-91942262D01*
X155665789Y-91789522D01*
X155725368Y-91619255D01*
X155725369Y-91619249D01*
X155745565Y-91440003D01*
X155745565Y-91439996D01*
X155725369Y-91260750D01*
X155725368Y-91260745D01*
X155682006Y-91136823D01*
X155665789Y-91090478D01*
X155569816Y-90937738D01*
X155442262Y-90810184D01*
X155370682Y-90765207D01*
X155289523Y-90714211D01*
X155119254Y-90654631D01*
X155119249Y-90654630D01*
X154940004Y-90634435D01*
X154939996Y-90634435D01*
X154760750Y-90654630D01*
X154760745Y-90654631D01*
X154590476Y-90714211D01*
X154437737Y-90810184D01*
X154310184Y-90937737D01*
X154214211Y-91090476D01*
X154154631Y-91260745D01*
X154154630Y-91260750D01*
X154134435Y-91439996D01*
X154134435Y-91440003D01*
X154154630Y-91619249D01*
X154154631Y-91619254D01*
X154214211Y-91789523D01*
X154310184Y-91942262D01*
X154378181Y-92010259D01*
X154411666Y-92071582D01*
X154414500Y-92097940D01*
X154414500Y-97894060D01*
X154394815Y-97961099D01*
X154378181Y-97981741D01*
X154310184Y-98049737D01*
X154214211Y-98202476D01*
X154154631Y-98372745D01*
X154154630Y-98372750D01*
X154134435Y-98551996D01*
X154134435Y-98552003D01*
X138302000Y-98552003D01*
X138302000Y-98504339D01*
X138274741Y-98402606D01*
X138222080Y-98311394D01*
X138217686Y-98307000D01*
X139578609Y-98307000D01*
X139569990Y-98252586D01*
X139506755Y-98057970D01*
X139413859Y-97875650D01*
X139293582Y-97710105D01*
X139293582Y-97710104D01*
X139148895Y-97565417D01*
X138983349Y-97445140D01*
X138889820Y-97397485D01*
X138839024Y-97349511D01*
X138822229Y-97281690D01*
X138844766Y-97215555D01*
X138889820Y-97176515D01*
X138983349Y-97128859D01*
X139148894Y-97008582D01*
X139148895Y-97008582D01*
X139293582Y-96863895D01*
X139293582Y-96863894D01*
X139413859Y-96698349D01*
X139506755Y-96516029D01*
X139569990Y-96321413D01*
X139578609Y-96267000D01*
X138217686Y-96267000D01*
X138222080Y-96262606D01*
X138274741Y-96171394D01*
X138302000Y-96069661D01*
X138302000Y-95964339D01*
X138274741Y-95862606D01*
X138222080Y-95771394D01*
X138217686Y-95767000D01*
X139578609Y-95767000D01*
X139569990Y-95712586D01*
X139506755Y-95517970D01*
X139413859Y-95335650D01*
X139293582Y-95170105D01*
X139293582Y-95170104D01*
X139148895Y-95025417D01*
X138983349Y-94905140D01*
X138801027Y-94812242D01*
X138795534Y-94810458D01*
X138737859Y-94771020D01*
X138710662Y-94706661D01*
X138722578Y-94637815D01*
X138769822Y-94586340D01*
X138777559Y-94582043D01*
X138931199Y-94503760D01*
X139084073Y-94392690D01*
X139217690Y-94259073D01*
X139328760Y-94106199D01*
X139414547Y-93937832D01*
X139472940Y-93758118D01*
X139480172Y-93712457D01*
X139502500Y-93571486D01*
X139502500Y-93382513D01*
X139472940Y-93195881D01*
X139414545Y-93016163D01*
X139339398Y-92868680D01*
X139328760Y-92847801D01*
X139217690Y-92694927D01*
X139084073Y-92561310D01*
X138931199Y-92450240D01*
X138924932Y-92447047D01*
X138762836Y-92364454D01*
X138648361Y-92327259D01*
X138641195Y-92324930D01*
X138583521Y-92285493D01*
X138556323Y-92221134D01*
X138568238Y-92152288D01*
X138615482Y-92100812D01*
X138641194Y-92089069D01*
X138762832Y-92049547D01*
X138931199Y-91963760D01*
X139084073Y-91852690D01*
X139217690Y-91719073D01*
X139252476Y-91671192D01*
X139307803Y-91628526D01*
X139328590Y-91622462D01*
X139388328Y-91610580D01*
X139495474Y-91566199D01*
X139515807Y-91557777D01*
X139515808Y-91557776D01*
X139515811Y-91557775D01*
X139630543Y-91481114D01*
X142144114Y-88967543D01*
X142220775Y-88852811D01*
X142273580Y-88725328D01*
X142293380Y-88625788D01*
X142300500Y-88589996D01*
X142300500Y-83111004D01*
X142273581Y-82975677D01*
X142273580Y-82975676D01*
X142273580Y-82975672D01*
X142241458Y-82898123D01*
X142220776Y-82848191D01*
X142170923Y-82773580D01*
X142144112Y-82733454D01*
X138962839Y-79552181D01*
X138929354Y-79490858D01*
X138934338Y-79421166D01*
X138976210Y-79365233D01*
X139041674Y-79340816D01*
X139050520Y-79340500D01*
X141939903Y-79340500D01*
X142006942Y-79360185D01*
X142027584Y-79376819D01*
X152571139Y-89920374D01*
X152571149Y-89920385D01*
X152575479Y-89924715D01*
X152575480Y-89924716D01*
X152687284Y-90036520D01*
X152730997Y-90061757D01*
X152774095Y-90086639D01*
X152774097Y-90086641D01*
X152797241Y-90100003D01*
X152824215Y-90115577D01*
X152976943Y-90156501D01*
X152976946Y-90156501D01*
X153142653Y-90156501D01*
X153142669Y-90156500D01*
X158171379Y-90156500D01*
X158238418Y-90176185D01*
X158270333Y-90205773D01*
X158393020Y-90368238D01*
X158557437Y-90518123D01*
X158557439Y-90518125D01*
X158746595Y-90635245D01*
X158746596Y-90635245D01*
X158746599Y-90635247D01*
X158940524Y-90710374D01*
X158995924Y-90752946D01*
X159019515Y-90818713D01*
X159003804Y-90886793D01*
X158953780Y-90935572D01*
X158940533Y-90941622D01*
X158820414Y-90988157D01*
X158746601Y-91016752D01*
X158746595Y-91016754D01*
X158557439Y-91133874D01*
X158557437Y-91133876D01*
X158393020Y-91283761D01*
X158258943Y-91461308D01*
X158258938Y-91461316D01*
X158159775Y-91660461D01*
X158159769Y-91660476D01*
X158098885Y-91874462D01*
X158098884Y-91874464D01*
X158078357Y-92095999D01*
X158078357Y-92096000D01*
X158098884Y-92317535D01*
X158098885Y-92317537D01*
X158159769Y-92531523D01*
X158159775Y-92531538D01*
X158258938Y-92730683D01*
X158258943Y-92730691D01*
X158393020Y-92908238D01*
X158557437Y-93058123D01*
X158557439Y-93058125D01*
X158746595Y-93175245D01*
X158746597Y-93175246D01*
X158746599Y-93175247D01*
X158940523Y-93250373D01*
X158995923Y-93292945D01*
X159019514Y-93358711D01*
X159003803Y-93426792D01*
X158953779Y-93475571D01*
X158940522Y-93481626D01*
X158919345Y-93489830D01*
X158849722Y-93495692D01*
X158838711Y-93492320D01*
X158838686Y-93492416D01*
X158830835Y-93490312D01*
X158697183Y-93454499D01*
X158558817Y-93454499D01*
X158505356Y-93468824D01*
X158425162Y-93490312D01*
X158425161Y-93490313D01*
X158305338Y-93559493D01*
X158305332Y-93559498D01*
X158207498Y-93657332D01*
X158207493Y-93657338D01*
X158138313Y-93777161D01*
X158138312Y-93777162D01*
X158124118Y-93830136D01*
X158102499Y-93910817D01*
X158102499Y-94049183D01*
X158121677Y-94120753D01*
X158140416Y-94190686D01*
X158138600Y-94191172D01*
X158144960Y-94250322D01*
X158142196Y-94262240D01*
X158098885Y-94414462D01*
X158078357Y-94635999D01*
X158078357Y-94636000D01*
X158098884Y-94857535D01*
X158098885Y-94857537D01*
X158159769Y-95071523D01*
X158159775Y-95071538D01*
X158258938Y-95270683D01*
X158258943Y-95270691D01*
X158393020Y-95448238D01*
X158557437Y-95598123D01*
X158557439Y-95598125D01*
X158746595Y-95715245D01*
X158746607Y-95715251D01*
X158799774Y-95735847D01*
X158855177Y-95778419D01*
X158878768Y-95844185D01*
X158863058Y-95912266D01*
X158813034Y-95961046D01*
X158807387Y-95963856D01*
X158631517Y-96045865D01*
X158445179Y-96176342D01*
X158284342Y-96337179D01*
X158153865Y-96523517D01*
X158057734Y-96729673D01*
X158057730Y-96729682D01*
X158005127Y-96925999D01*
X158005128Y-96926000D01*
X158968314Y-96926000D01*
X158963920Y-96930394D01*
X158911259Y-97021606D01*
X158884000Y-97123339D01*
X158884000Y-97228661D01*
X158911259Y-97330394D01*
X158963920Y-97421606D01*
X158968314Y-97426000D01*
X158005128Y-97426000D01*
X158057730Y-97622317D01*
X158057734Y-97622326D01*
X158153865Y-97828482D01*
X158284342Y-98014820D01*
X158445179Y-98175657D01*
X158631517Y-98306133D01*
X158807387Y-98388143D01*
X158859826Y-98434315D01*
X158878978Y-98501509D01*
X158858762Y-98568390D01*
X158805597Y-98613724D01*
X158799776Y-98616152D01*
X158746601Y-98636751D01*
X158746595Y-98636754D01*
X158557439Y-98753874D01*
X158557437Y-98753876D01*
X158393020Y-98903761D01*
X158258943Y-99081308D01*
X158258938Y-99081316D01*
X158159775Y-99280461D01*
X158159769Y-99280476D01*
X158098885Y-99494462D01*
X158098884Y-99494464D01*
X158078357Y-99715999D01*
X158078357Y-99716000D01*
X158098884Y-99937535D01*
X158098885Y-99937537D01*
X158159769Y-100151523D01*
X158159775Y-100151538D01*
X158258938Y-100350683D01*
X158258943Y-100350691D01*
X158393020Y-100528238D01*
X158557437Y-100678123D01*
X158557439Y-100678125D01*
X158746595Y-100795245D01*
X158746596Y-100795245D01*
X158746599Y-100795247D01*
X158940524Y-100870374D01*
X158995924Y-100912946D01*
X159019515Y-100978713D01*
X159003804Y-101046793D01*
X158953780Y-101095572D01*
X158940533Y-101101622D01*
X158803351Y-101154767D01*
X158746601Y-101176752D01*
X158746595Y-101176754D01*
X158557439Y-101293874D01*
X158557437Y-101293876D01*
X158393020Y-101443761D01*
X158258943Y-101621308D01*
X158258938Y-101621316D01*
X158159775Y-101820461D01*
X158159769Y-101820476D01*
X158098885Y-102034462D01*
X158098884Y-102034464D01*
X158078357Y-102255999D01*
X158078357Y-102256000D01*
X158098884Y-102477535D01*
X158098885Y-102477537D01*
X158159769Y-102691523D01*
X158159775Y-102691538D01*
X158258938Y-102890683D01*
X158258943Y-102890691D01*
X158393020Y-103068238D01*
X158557437Y-103218123D01*
X158557439Y-103218125D01*
X158746595Y-103335245D01*
X158746596Y-103335245D01*
X158746599Y-103335247D01*
X158940524Y-103410374D01*
X158995924Y-103452946D01*
X159019515Y-103518713D01*
X159003804Y-103586793D01*
X158953780Y-103635572D01*
X158940533Y-103641622D01*
X158792488Y-103698975D01*
X158746601Y-103716752D01*
X158746595Y-103716754D01*
X158557439Y-103833874D01*
X158557437Y-103833876D01*
X158393020Y-103983761D01*
X158258943Y-104161308D01*
X158258938Y-104161316D01*
X158159775Y-104360461D01*
X158159769Y-104360476D01*
X158098885Y-104574462D01*
X158098884Y-104574464D01*
X158078357Y-104795999D01*
X158078357Y-104796000D01*
X158098884Y-105017535D01*
X158098885Y-105017537D01*
X158159769Y-105231523D01*
X158159775Y-105231538D01*
X158258938Y-105430683D01*
X158258943Y-105430691D01*
X158393020Y-105608238D01*
X158557437Y-105758123D01*
X158557439Y-105758125D01*
X158746595Y-105875245D01*
X158746596Y-105875245D01*
X158746599Y-105875247D01*
X158940524Y-105950374D01*
X158995924Y-105992946D01*
X159019515Y-106058713D01*
X159003804Y-106126793D01*
X158953780Y-106175572D01*
X158940533Y-106181622D01*
X158856467Y-106214190D01*
X158746601Y-106256752D01*
X158746595Y-106256754D01*
X158557439Y-106373874D01*
X158557437Y-106373876D01*
X158393020Y-106523761D01*
X158258943Y-106701308D01*
X158258938Y-106701316D01*
X158159775Y-106900461D01*
X158159769Y-106900476D01*
X158098885Y-107114462D01*
X158098884Y-107114464D01*
X158078357Y-107335999D01*
X158078357Y-107336000D01*
X158098884Y-107557535D01*
X158098885Y-107557537D01*
X158159769Y-107771523D01*
X158159775Y-107771538D01*
X158258938Y-107970683D01*
X158258943Y-107970691D01*
X158336642Y-108073581D01*
X158393019Y-108148236D01*
X158393020Y-108148237D01*
X158393019Y-108148237D01*
X158557437Y-108298123D01*
X158557439Y-108298125D01*
X158746595Y-108415245D01*
X158746596Y-108415245D01*
X158746599Y-108415247D01*
X158940524Y-108490374D01*
X158995924Y-108532946D01*
X159019515Y-108598713D01*
X159003804Y-108666793D01*
X158953780Y-108715572D01*
X158940533Y-108721622D01*
X158834585Y-108762667D01*
X158746601Y-108796752D01*
X158746595Y-108796754D01*
X158557439Y-108913874D01*
X158557437Y-108913876D01*
X158393020Y-109063761D01*
X158258943Y-109241308D01*
X158258938Y-109241316D01*
X158159775Y-109440461D01*
X158159769Y-109440476D01*
X158098885Y-109654462D01*
X158098884Y-109654464D01*
X158078357Y-109875999D01*
X158078357Y-109876000D01*
X158098884Y-110097535D01*
X158098885Y-110097537D01*
X158159769Y-110311523D01*
X158159775Y-110311538D01*
X158258938Y-110510683D01*
X158258943Y-110510691D01*
X158393020Y-110688238D01*
X158557437Y-110838123D01*
X158557439Y-110838125D01*
X158746595Y-110955245D01*
X158746596Y-110955245D01*
X158746599Y-110955247D01*
X158940524Y-111030374D01*
X158995924Y-111072946D01*
X159019515Y-111138713D01*
X159003804Y-111206793D01*
X158953780Y-111255572D01*
X158940533Y-111261622D01*
X158792488Y-111318975D01*
X158746601Y-111336752D01*
X158746595Y-111336754D01*
X158557439Y-111453874D01*
X158557437Y-111453876D01*
X158393020Y-111603761D01*
X158258943Y-111781308D01*
X158258938Y-111781316D01*
X158159775Y-111980461D01*
X158159769Y-111980476D01*
X158098885Y-112194462D01*
X158098884Y-112194464D01*
X158078357Y-112415999D01*
X158078357Y-112416000D01*
X158098884Y-112637535D01*
X158098885Y-112637537D01*
X158159769Y-112851523D01*
X158159775Y-112851538D01*
X158258938Y-113050683D01*
X158258943Y-113050691D01*
X158393020Y-113228238D01*
X158557437Y-113378123D01*
X158557439Y-113378125D01*
X158746595Y-113495245D01*
X158746596Y-113495245D01*
X158746599Y-113495247D01*
X158954060Y-113575618D01*
X158976405Y-113579795D01*
X159038684Y-113611462D01*
X159073957Y-113671775D01*
X159071023Y-113741583D01*
X159041299Y-113789364D01*
X157431180Y-115399483D01*
X157369857Y-115432968D01*
X157300165Y-115427984D01*
X157244232Y-115386112D01*
X157219815Y-115320648D01*
X157221882Y-115287610D01*
X157227398Y-115259883D01*
X157249682Y-115147857D01*
X157260501Y-115093467D01*
X157260501Y-114881425D01*
X157260500Y-114881399D01*
X157260500Y-107127103D01*
X157280185Y-107060064D01*
X157296819Y-107039422D01*
X157530043Y-106806199D01*
X157791282Y-106544960D01*
X157906247Y-106372903D01*
X157985435Y-106181725D01*
X158009904Y-106058713D01*
X158025806Y-105978772D01*
X158025806Y-105771837D01*
X157985436Y-105568890D01*
X157985435Y-105568889D01*
X157985435Y-105568885D01*
X157959137Y-105505395D01*
X157906250Y-105377713D01*
X157906243Y-105377700D01*
X157791282Y-105205650D01*
X157791279Y-105205646D01*
X157644963Y-105059330D01*
X157644959Y-105059327D01*
X157472909Y-104944366D01*
X157472900Y-104944361D01*
X157301274Y-104873272D01*
X157246871Y-104829431D01*
X157224806Y-104763137D01*
X157242085Y-104695438D01*
X157261041Y-104671035D01*
X157821789Y-104110289D01*
X157829816Y-104102262D01*
X157870931Y-104036825D01*
X157872777Y-104033979D01*
X157909394Y-103979179D01*
X157909720Y-103978390D01*
X157919287Y-103959868D01*
X157925789Y-103949522D01*
X157947023Y-103888837D01*
X157949484Y-103882389D01*
X157969737Y-103833497D01*
X157972448Y-103819862D01*
X157977023Y-103803100D01*
X157985368Y-103779255D01*
X157991110Y-103728283D01*
X157992707Y-103718017D01*
X158000500Y-103678842D01*
X158000500Y-103651914D01*
X158001280Y-103638029D01*
X158002703Y-103625405D01*
X158005565Y-103600000D01*
X158005458Y-103599054D01*
X158001280Y-103561969D01*
X158000500Y-103548085D01*
X158000500Y-103521157D01*
X157998109Y-103509140D01*
X157992709Y-103481992D01*
X157991110Y-103471714D01*
X157985368Y-103420745D01*
X157977023Y-103396898D01*
X157972449Y-103380139D01*
X157969737Y-103366503D01*
X157965337Y-103355881D01*
X157956791Y-103335249D01*
X157949484Y-103317607D01*
X157947028Y-103311175D01*
X157925789Y-103250478D01*
X157919289Y-103240134D01*
X157909719Y-103221606D01*
X157909394Y-103220821D01*
X157872790Y-103166040D01*
X157870905Y-103163131D01*
X157829816Y-103097738D01*
X157702262Y-102970184D01*
X157702260Y-102970182D01*
X157702257Y-102970180D01*
X157636900Y-102929114D01*
X157633982Y-102927223D01*
X157579179Y-102890605D01*
X157579173Y-102890603D01*
X157578365Y-102890268D01*
X157559865Y-102880709D01*
X157549524Y-102874212D01*
X157549523Y-102874211D01*
X157549522Y-102874211D01*
X157488867Y-102852986D01*
X157482377Y-102850509D01*
X157433496Y-102830262D01*
X157419860Y-102827550D01*
X157403104Y-102822976D01*
X157379260Y-102814633D01*
X157379256Y-102814632D01*
X157379255Y-102814632D01*
X157358575Y-102812301D01*
X157328303Y-102808890D01*
X157318003Y-102807288D01*
X157278844Y-102799500D01*
X157278842Y-102799500D01*
X157251915Y-102799500D01*
X157238031Y-102798720D01*
X157200002Y-102794435D01*
X157199998Y-102794435D01*
X157161969Y-102798720D01*
X157148085Y-102799500D01*
X157121152Y-102799500D01*
X157081994Y-102807288D01*
X157071696Y-102808890D01*
X157020742Y-102814632D01*
X157020735Y-102814634D01*
X156996898Y-102822975D01*
X156980140Y-102827550D01*
X156966502Y-102830263D01*
X156966496Y-102830264D01*
X156917631Y-102850504D01*
X156911140Y-102852982D01*
X156850477Y-102874210D01*
X156850474Y-102874212D01*
X156840127Y-102880713D01*
X156821639Y-102890266D01*
X156820832Y-102890600D01*
X156820824Y-102890604D01*
X156766047Y-102927204D01*
X156763132Y-102929092D01*
X156697742Y-102970180D01*
X156697735Y-102970186D01*
X153717897Y-105950025D01*
X150789711Y-108878211D01*
X150761687Y-108906235D01*
X150678209Y-108989712D01*
X150590609Y-109120814D01*
X150590602Y-109120827D01*
X150530264Y-109266498D01*
X150530261Y-109266510D01*
X150499500Y-109421153D01*
X150499500Y-117017060D01*
X150479815Y-117084099D01*
X150463181Y-117104741D01*
X144889711Y-122678211D01*
X144833960Y-122733962D01*
X144778209Y-122789712D01*
X144690609Y-122920814D01*
X144690602Y-122920827D01*
X144630264Y-123066498D01*
X144630261Y-123066510D01*
X144599500Y-123221154D01*
X144599500Y-125075903D01*
X144630261Y-125230546D01*
X144630264Y-125230558D01*
X144690602Y-125376229D01*
X144690609Y-125376242D01*
X144778210Y-125507345D01*
X144778213Y-125507349D01*
X145681154Y-126410289D01*
X145759556Y-126488691D01*
X145792655Y-126521790D01*
X145923757Y-126609390D01*
X145923761Y-126609392D01*
X145923764Y-126609394D01*
X146052375Y-126662666D01*
X146052378Y-126662667D01*
X146052379Y-126662668D01*
X146069441Y-126669735D01*
X146069446Y-126669737D01*
X146069450Y-126669737D01*
X146069451Y-126669738D01*
X146224097Y-126700500D01*
X146224100Y-126700500D01*
X146224101Y-126700500D01*
X147617060Y-126700500D01*
X147684099Y-126720185D01*
X147704741Y-126736819D01*
X149163181Y-128195259D01*
X149196666Y-128256582D01*
X149199500Y-128282940D01*
X149199500Y-130848085D01*
X149198720Y-130861969D01*
X149194435Y-130899998D01*
X149194435Y-130900001D01*
X149198720Y-130938029D01*
X149199500Y-130951914D01*
X149199500Y-130978844D01*
X149207288Y-131018003D01*
X149208890Y-131028303D01*
X149214632Y-131079252D01*
X149214633Y-131079260D01*
X149222976Y-131103104D01*
X149227550Y-131119860D01*
X149230262Y-131133496D01*
X149250509Y-131182377D01*
X149252988Y-131188872D01*
X149274212Y-131249524D01*
X149280709Y-131259865D01*
X149290268Y-131278365D01*
X149290603Y-131279173D01*
X149290605Y-131279179D01*
X149327223Y-131333982D01*
X149329114Y-131336900D01*
X149370180Y-131402257D01*
X149370182Y-131402260D01*
X149370184Y-131402262D01*
X149497738Y-131529816D01*
X149563096Y-131570883D01*
X149563131Y-131570905D01*
X149566040Y-131572790D01*
X149620821Y-131609394D01*
X149621606Y-131609719D01*
X149640134Y-131619289D01*
X149650478Y-131625789D01*
X149711175Y-131647028D01*
X149717607Y-131649484D01*
X149746021Y-131661253D01*
X149766497Y-131669735D01*
X149766498Y-131669735D01*
X149766503Y-131669737D01*
X149780139Y-131672449D01*
X149796898Y-131677023D01*
X149820745Y-131685368D01*
X149871714Y-131691110D01*
X149881992Y-131692709D01*
X149909140Y-131698109D01*
X149921157Y-131700500D01*
X149921158Y-131700500D01*
X149948085Y-131700500D01*
X149961969Y-131701280D01*
X149999998Y-131705565D01*
X150000000Y-131705565D01*
X150000002Y-131705565D01*
X150038031Y-131701280D01*
X150051915Y-131700500D01*
X150078841Y-131700500D01*
X150078842Y-131700500D01*
X150118017Y-131692707D01*
X150128283Y-131691110D01*
X150179255Y-131685368D01*
X150203100Y-131677023D01*
X150219862Y-131672448D01*
X150233497Y-131669737D01*
X150282389Y-131649484D01*
X150288837Y-131647023D01*
X150349522Y-131625789D01*
X150359868Y-131619287D01*
X150378390Y-131609720D01*
X150379179Y-131609394D01*
X150433987Y-131572771D01*
X150436825Y-131570931D01*
X150502262Y-131529816D01*
X150629816Y-131402262D01*
X150670931Y-131336825D01*
X150672777Y-131333979D01*
X150709389Y-131279186D01*
X150709394Y-131279179D01*
X150709720Y-131278390D01*
X150719287Y-131259868D01*
X150725789Y-131249522D01*
X150747023Y-131188837D01*
X150749490Y-131182377D01*
X150769737Y-131133497D01*
X150772449Y-131119860D01*
X150777023Y-131103100D01*
X150785368Y-131079255D01*
X150791110Y-131028283D01*
X150792707Y-131018017D01*
X150800500Y-130978842D01*
X150800500Y-130951914D01*
X150801280Y-130938029D01*
X150805565Y-130900001D01*
X150805565Y-130899998D01*
X150801280Y-130861969D01*
X150800500Y-130848085D01*
X150800500Y-130556000D01*
X201568536Y-130556000D01*
X201588376Y-130909295D01*
X201588378Y-130909307D01*
X201647649Y-131258153D01*
X201647651Y-131258162D01*
X201738290Y-131572777D01*
X201745610Y-131598184D01*
X201775248Y-131669736D01*
X201881021Y-131925098D01*
X201881023Y-131925102D01*
X202052194Y-132234812D01*
X202052197Y-132234817D01*
X202256956Y-132523396D01*
X202256962Y-132523404D01*
X202492748Y-132787248D01*
X202492751Y-132787251D01*
X202756595Y-133023037D01*
X202756598Y-133023039D01*
X202756600Y-133023041D01*
X202786926Y-133044558D01*
X203045182Y-133227802D01*
X203045187Y-133227805D01*
X203354897Y-133398976D01*
X203354901Y-133398978D01*
X203461013Y-133442930D01*
X203681816Y-133534390D01*
X204021843Y-133632350D01*
X204370700Y-133691623D01*
X204724000Y-133711464D01*
X205077300Y-133691623D01*
X205426157Y-133632350D01*
X205766184Y-133534390D01*
X206093105Y-133398975D01*
X206402808Y-133227808D01*
X206402813Y-133227804D01*
X206402817Y-133227802D01*
X206548621Y-133124348D01*
X206691400Y-133023041D01*
X206955250Y-132787250D01*
X207191041Y-132523400D01*
X207395808Y-132234808D01*
X207566975Y-131925105D01*
X207702390Y-131598184D01*
X207800350Y-131258157D01*
X207859623Y-130909300D01*
X207879464Y-130556000D01*
X207859623Y-130202700D01*
X207800350Y-129853843D01*
X207702390Y-129513816D01*
X207610930Y-129293013D01*
X207566978Y-129186901D01*
X207566976Y-129186897D01*
X207395805Y-128877187D01*
X207395802Y-128877182D01*
X207191043Y-128588603D01*
X207191037Y-128588595D01*
X206955251Y-128324751D01*
X206955248Y-128324748D01*
X206691404Y-128088962D01*
X206691396Y-128088956D01*
X206402817Y-127884197D01*
X206402812Y-127884194D01*
X206093102Y-127713023D01*
X206093098Y-127713021D01*
X205866221Y-127619046D01*
X205766184Y-127577610D01*
X205766180Y-127577608D01*
X205766178Y-127577608D01*
X205426162Y-127479651D01*
X205426153Y-127479649D01*
X205077307Y-127420378D01*
X205077295Y-127420376D01*
X204724000Y-127400536D01*
X204370704Y-127420376D01*
X204370692Y-127420378D01*
X204021846Y-127479649D01*
X204021837Y-127479651D01*
X203681821Y-127577608D01*
X203354901Y-127713021D01*
X203354897Y-127713023D01*
X203045187Y-127884194D01*
X203045182Y-127884197D01*
X202756603Y-128088956D01*
X202756595Y-128088962D01*
X202492751Y-128324748D01*
X202492748Y-128324751D01*
X202256962Y-128588595D01*
X202256956Y-128588603D01*
X202052197Y-128877182D01*
X202052194Y-128877187D01*
X201881023Y-129186897D01*
X201881021Y-129186901D01*
X201745608Y-129513821D01*
X201647651Y-129853837D01*
X201647649Y-129853846D01*
X201588378Y-130202692D01*
X201588376Y-130202704D01*
X201568536Y-130556000D01*
X150800500Y-130556000D01*
X150800500Y-127821155D01*
X150800499Y-127821153D01*
X150769738Y-127666510D01*
X150769737Y-127666503D01*
X150732916Y-127577608D01*
X150709397Y-127520827D01*
X150709390Y-127520814D01*
X150621790Y-127389712D01*
X150608270Y-127376192D01*
X150510289Y-127278211D01*
X149642367Y-126410289D01*
X148644260Y-125412181D01*
X148610775Y-125350858D01*
X148615759Y-125281166D01*
X148657631Y-125225233D01*
X148723095Y-125200816D01*
X148731941Y-125200500D01*
X149390317Y-125200500D01*
X149481361Y-125182389D01*
X149525649Y-125173580D01*
X149589390Y-125147177D01*
X149653128Y-125120777D01*
X149653129Y-125120776D01*
X149653132Y-125120775D01*
X149767864Y-125044114D01*
X161328114Y-113483864D01*
X161404775Y-113369132D01*
X161457580Y-113241649D01*
X161469482Y-113181815D01*
X161484500Y-113106317D01*
X161484500Y-106227004D01*
X161457581Y-106091676D01*
X161457580Y-106091675D01*
X161457580Y-106091672D01*
X161446902Y-106065894D01*
X161418785Y-105998013D01*
X161404775Y-105964189D01*
X161345346Y-105875247D01*
X161328115Y-105849459D01*
X161282808Y-105804152D01*
X161230542Y-105751886D01*
X160873580Y-105394924D01*
X160512571Y-105033914D01*
X160479086Y-104972591D01*
X160476781Y-104934798D01*
X160489643Y-104796000D01*
X160473403Y-104620745D01*
X160469115Y-104574464D01*
X160469114Y-104574462D01*
X160462919Y-104552690D01*
X160408229Y-104360472D01*
X160408224Y-104360461D01*
X160309061Y-104161316D01*
X160309056Y-104161308D01*
X160174979Y-103983761D01*
X160010562Y-103833876D01*
X160010560Y-103833874D01*
X159821404Y-103716754D01*
X159821395Y-103716750D01*
X159723536Y-103678840D01*
X159627475Y-103641625D01*
X159572075Y-103599054D01*
X159548484Y-103533288D01*
X159564195Y-103465207D01*
X159614219Y-103416428D01*
X159627466Y-103410377D01*
X159821401Y-103335247D01*
X160010562Y-103218124D01*
X160174777Y-103068422D01*
X160174979Y-103068238D01*
X160226087Y-103000561D01*
X160309058Y-102890689D01*
X160408229Y-102691528D01*
X160469115Y-102477536D01*
X160489643Y-102256000D01*
X160469115Y-102034464D01*
X160408229Y-101820472D01*
X160408224Y-101820461D01*
X160309061Y-101621316D01*
X160309056Y-101621308D01*
X160174979Y-101443761D01*
X160010562Y-101293876D01*
X160010560Y-101293874D01*
X159821404Y-101176754D01*
X159821395Y-101176750D01*
X159715395Y-101135686D01*
X159627475Y-101101625D01*
X159572075Y-101059054D01*
X159548484Y-100993288D01*
X159564195Y-100925207D01*
X159614219Y-100876428D01*
X159627466Y-100870377D01*
X159821401Y-100795247D01*
X160010562Y-100678124D01*
X160174981Y-100528236D01*
X160309058Y-100350689D01*
X160408229Y-100151528D01*
X160469115Y-99937536D01*
X160489643Y-99716000D01*
X160481858Y-99631990D01*
X160469115Y-99494464D01*
X160469114Y-99494462D01*
X160462919Y-99472690D01*
X160408229Y-99280472D01*
X160406893Y-99277788D01*
X160309061Y-99081316D01*
X160309056Y-99081308D01*
X160174979Y-98903761D01*
X160010562Y-98753876D01*
X160010560Y-98753874D01*
X159821404Y-98636754D01*
X159821395Y-98636750D01*
X159768224Y-98616152D01*
X159712822Y-98573579D01*
X159689231Y-98507813D01*
X159704942Y-98439732D01*
X159754966Y-98390953D01*
X159760613Y-98388143D01*
X159936479Y-98306135D01*
X159936481Y-98306134D01*
X160122820Y-98175657D01*
X160283657Y-98014820D01*
X160414134Y-97828482D01*
X160510265Y-97622326D01*
X160510269Y-97622317D01*
X160562872Y-97426000D01*
X159599686Y-97426000D01*
X159604080Y-97421606D01*
X159656741Y-97330394D01*
X159684000Y-97228661D01*
X159684000Y-97123339D01*
X159656741Y-97021606D01*
X159604080Y-96930394D01*
X159599686Y-96926000D01*
X160562872Y-96926000D01*
X160562872Y-96925999D01*
X160510269Y-96729682D01*
X160510265Y-96729673D01*
X160414134Y-96523517D01*
X160283657Y-96337179D01*
X160122820Y-96176342D01*
X159936482Y-96045865D01*
X159760612Y-95963856D01*
X159708173Y-95917684D01*
X159689021Y-95850490D01*
X159709237Y-95783609D01*
X159762402Y-95738274D01*
X159768206Y-95735854D01*
X159795440Y-95725304D01*
X159821392Y-95715251D01*
X159821396Y-95715248D01*
X159821401Y-95715247D01*
X160010562Y-95598124D01*
X160174981Y-95448236D01*
X160309058Y-95270689D01*
X160408229Y-95071528D01*
X160469115Y-94857536D01*
X160489643Y-94636000D01*
X160483917Y-94574211D01*
X160469115Y-94414464D01*
X160469114Y-94414462D01*
X160464257Y-94397392D01*
X160408229Y-94200472D01*
X160404165Y-94192310D01*
X160309061Y-94001316D01*
X160309056Y-94001308D01*
X160174979Y-93823761D01*
X160010562Y-93673876D01*
X160010560Y-93673874D01*
X159821404Y-93556754D01*
X159821395Y-93556750D01*
X159690044Y-93505865D01*
X159627475Y-93481625D01*
X159572075Y-93439054D01*
X159548484Y-93373288D01*
X159564195Y-93305207D01*
X159614219Y-93256428D01*
X159627466Y-93250377D01*
X159821401Y-93175247D01*
X160010562Y-93058124D01*
X160161313Y-92920696D01*
X160174979Y-92908238D01*
X160215641Y-92854394D01*
X160309058Y-92730689D01*
X160408229Y-92531528D01*
X160469115Y-92317536D01*
X160489643Y-92096000D01*
X160485063Y-92046578D01*
X160469115Y-91874464D01*
X160469114Y-91874462D01*
X160462919Y-91852690D01*
X160408229Y-91660472D01*
X160392322Y-91628526D01*
X160309061Y-91461316D01*
X160309056Y-91461308D01*
X160174979Y-91283761D01*
X160010562Y-91133876D01*
X160010560Y-91133874D01*
X159821404Y-91016754D01*
X159821395Y-91016750D01*
X159710594Y-90973826D01*
X159627475Y-90941625D01*
X159572075Y-90899054D01*
X159548484Y-90833288D01*
X159564195Y-90765207D01*
X159614219Y-90716428D01*
X159627466Y-90710377D01*
X159821401Y-90635247D01*
X160010562Y-90518124D01*
X160174981Y-90368236D01*
X160309058Y-90190689D01*
X160408229Y-89991528D01*
X160469115Y-89777536D01*
X160489643Y-89556000D01*
X160484212Y-89497394D01*
X160469115Y-89334464D01*
X160469114Y-89334462D01*
X160462919Y-89312690D01*
X160408229Y-89120472D01*
X160401468Y-89106894D01*
X160309061Y-88921316D01*
X160309056Y-88921308D01*
X160174979Y-88743761D01*
X160010562Y-88593876D01*
X160010560Y-88593874D01*
X159821404Y-88476754D01*
X159821395Y-88476750D01*
X159727956Y-88440552D01*
X159627475Y-88401625D01*
X159572075Y-88359054D01*
X159548484Y-88293288D01*
X159564195Y-88225207D01*
X159614219Y-88176428D01*
X159627466Y-88170377D01*
X159821401Y-88095247D01*
X160010562Y-87978124D01*
X160174981Y-87828236D01*
X160309058Y-87650689D01*
X160408229Y-87451528D01*
X160469115Y-87237536D01*
X160489643Y-87016000D01*
X160469115Y-86794464D01*
X160408229Y-86580472D01*
X160402113Y-86568189D01*
X160309061Y-86381316D01*
X160309056Y-86381308D01*
X160174979Y-86203761D01*
X160010562Y-86053876D01*
X160010560Y-86053874D01*
X159821404Y-85936754D01*
X159821395Y-85936750D01*
X159727956Y-85900552D01*
X159627475Y-85861625D01*
X159572075Y-85819054D01*
X159548484Y-85753288D01*
X159564195Y-85685207D01*
X159614219Y-85636428D01*
X159627466Y-85630377D01*
X159821401Y-85555247D01*
X160010562Y-85438124D01*
X160174981Y-85288236D01*
X160309058Y-85110689D01*
X160408229Y-84911528D01*
X160469115Y-84697536D01*
X160489643Y-84476000D01*
X160469115Y-84254464D01*
X160408229Y-84040472D01*
X160408224Y-84040461D01*
X160309061Y-83841316D01*
X160309056Y-83841308D01*
X160174979Y-83663761D01*
X160010562Y-83513876D01*
X160010560Y-83513874D01*
X159821404Y-83396754D01*
X159821395Y-83396750D01*
X159727956Y-83360552D01*
X159627475Y-83321625D01*
X159572075Y-83279054D01*
X159548484Y-83213288D01*
X159564195Y-83145207D01*
X159614219Y-83096428D01*
X159627466Y-83090377D01*
X159821401Y-83015247D01*
X160010562Y-82898124D01*
X160174981Y-82748236D01*
X160309058Y-82570689D01*
X160408229Y-82371528D01*
X160469115Y-82157536D01*
X160489643Y-81936000D01*
X160488229Y-81920745D01*
X160469115Y-81714464D01*
X160469114Y-81714462D01*
X160435903Y-81597738D01*
X160408229Y-81500472D01*
X160403686Y-81491348D01*
X160309061Y-81301316D01*
X160309056Y-81301308D01*
X160174979Y-81123761D01*
X160010562Y-80973876D01*
X160010560Y-80973874D01*
X159821404Y-80856754D01*
X159821395Y-80856750D01*
X159727956Y-80820552D01*
X159627475Y-80781625D01*
X159572075Y-80739054D01*
X159548484Y-80673288D01*
X159564195Y-80605207D01*
X159614219Y-80556428D01*
X159627466Y-80550377D01*
X159821401Y-80475247D01*
X160010562Y-80358124D01*
X160174981Y-80208236D01*
X160309058Y-80030689D01*
X160408229Y-79831528D01*
X160469115Y-79617536D01*
X160489643Y-79396000D01*
X160469115Y-79174464D01*
X160408229Y-78960472D01*
X160394546Y-78932993D01*
X160309061Y-78761316D01*
X160309056Y-78761308D01*
X160174979Y-78583761D01*
X160010562Y-78433876D01*
X160010560Y-78433874D01*
X159821404Y-78316754D01*
X159821398Y-78316752D01*
X159613940Y-78236382D01*
X159395243Y-78195500D01*
X159172757Y-78195500D01*
X158954060Y-78236382D01*
X158822864Y-78287207D01*
X158746601Y-78316752D01*
X158746595Y-78316754D01*
X158557439Y-78433874D01*
X158557437Y-78433876D01*
X158393020Y-78583761D01*
X158258943Y-78761308D01*
X158258938Y-78761316D01*
X158159775Y-78960461D01*
X158159769Y-78960476D01*
X158098885Y-79174462D01*
X158098884Y-79174464D01*
X158078357Y-79395999D01*
X158078357Y-79396000D01*
X158098884Y-79617535D01*
X158098885Y-79617537D01*
X158159769Y-79831523D01*
X158159775Y-79831538D01*
X158258938Y-80030683D01*
X158258943Y-80030691D01*
X158393020Y-80208238D01*
X158557437Y-80358123D01*
X158557439Y-80358125D01*
X158746595Y-80475245D01*
X158746596Y-80475245D01*
X158746599Y-80475247D01*
X158940524Y-80550374D01*
X158995924Y-80592946D01*
X159019515Y-80658713D01*
X159003804Y-80726793D01*
X158953780Y-80775572D01*
X158940533Y-80781622D01*
X158792488Y-80838975D01*
X158746601Y-80856752D01*
X158746595Y-80856754D01*
X158557439Y-80973874D01*
X158557437Y-80973876D01*
X158393020Y-81123761D01*
X158258943Y-81301308D01*
X158258938Y-81301316D01*
X158159775Y-81500461D01*
X158159769Y-81500476D01*
X158098885Y-81714462D01*
X158098884Y-81714464D01*
X158078357Y-81935999D01*
X158078357Y-81936000D01*
X158098884Y-82157535D01*
X158098885Y-82157537D01*
X158159769Y-82371523D01*
X158159775Y-82371538D01*
X158258938Y-82570683D01*
X158258943Y-82570691D01*
X158393020Y-82748238D01*
X158557437Y-82898123D01*
X158557439Y-82898125D01*
X158746595Y-83015245D01*
X158746596Y-83015245D01*
X158746599Y-83015247D01*
X158940524Y-83090374D01*
X158995924Y-83132946D01*
X159019515Y-83198713D01*
X159003804Y-83266793D01*
X158953780Y-83315572D01*
X158940533Y-83321622D01*
X158792488Y-83378975D01*
X158746601Y-83396752D01*
X158746595Y-83396754D01*
X158557439Y-83513874D01*
X158557437Y-83513876D01*
X158393020Y-83663761D01*
X158258943Y-83841308D01*
X158258938Y-83841316D01*
X158159775Y-84040461D01*
X158159769Y-84040476D01*
X158098885Y-84254462D01*
X158098884Y-84254464D01*
X158078357Y-84475999D01*
X158078357Y-84476000D01*
X158098884Y-84697535D01*
X158098885Y-84697537D01*
X158159769Y-84911523D01*
X158159775Y-84911538D01*
X158258938Y-85110683D01*
X158258943Y-85110691D01*
X158393020Y-85288238D01*
X158557437Y-85438123D01*
X158557439Y-85438125D01*
X158746595Y-85555245D01*
X158746596Y-85555245D01*
X158746599Y-85555247D01*
X158940524Y-85630374D01*
X158995924Y-85672946D01*
X159019515Y-85738713D01*
X159003804Y-85806793D01*
X158953780Y-85855572D01*
X158940533Y-85861622D01*
X158792488Y-85918975D01*
X158746601Y-85936752D01*
X158746595Y-85936754D01*
X158557439Y-86053874D01*
X158557437Y-86053876D01*
X158393020Y-86203761D01*
X158258943Y-86381308D01*
X158258938Y-86381316D01*
X158159775Y-86580461D01*
X158159769Y-86580476D01*
X158098885Y-86794462D01*
X158098884Y-86794464D01*
X158078357Y-87015999D01*
X158078357Y-87016000D01*
X158098884Y-87237535D01*
X158098885Y-87237537D01*
X158159769Y-87451523D01*
X158159775Y-87451538D01*
X158258938Y-87650683D01*
X158258943Y-87650691D01*
X158393020Y-87828238D01*
X158557437Y-87978123D01*
X158557439Y-87978125D01*
X158746595Y-88095245D01*
X158746596Y-88095245D01*
X158746599Y-88095247D01*
X158940524Y-88170374D01*
X158995924Y-88212946D01*
X159019515Y-88278713D01*
X159003804Y-88346793D01*
X158953780Y-88395572D01*
X158940533Y-88401622D01*
X158810478Y-88452006D01*
X158746601Y-88476752D01*
X158746595Y-88476754D01*
X158557439Y-88593874D01*
X158557437Y-88593876D01*
X158393020Y-88743761D01*
X158270333Y-88906227D01*
X158214224Y-88947863D01*
X158171379Y-88955500D01*
X153356097Y-88955500D01*
X153289058Y-88935815D01*
X153268416Y-88919181D01*
X152249238Y-87900003D01*
X154194435Y-87900003D01*
X154214630Y-88079249D01*
X154214631Y-88079254D01*
X154274211Y-88249523D01*
X154365980Y-88395572D01*
X154370184Y-88402262D01*
X154497738Y-88529816D01*
X154588080Y-88586582D01*
X154628911Y-88612238D01*
X154650478Y-88625789D01*
X154800026Y-88678118D01*
X154820745Y-88685368D01*
X154820750Y-88685369D01*
X154999996Y-88705565D01*
X155000000Y-88705565D01*
X155000004Y-88705565D01*
X155179249Y-88685369D01*
X155179252Y-88685368D01*
X155179255Y-88685368D01*
X155349522Y-88625789D01*
X155502262Y-88529816D01*
X155629816Y-88402262D01*
X155725789Y-88249522D01*
X155785368Y-88079255D01*
X155785369Y-88079249D01*
X155805565Y-87900003D01*
X155805565Y-87899996D01*
X155785369Y-87720750D01*
X155785368Y-87720745D01*
X155760852Y-87650683D01*
X155725789Y-87550478D01*
X155629816Y-87397738D01*
X155561819Y-87329741D01*
X155528334Y-87268418D01*
X155525500Y-87242060D01*
X155525500Y-80569031D01*
X155545185Y-80501992D01*
X155561819Y-80481350D01*
X158681350Y-77361819D01*
X158742673Y-77328334D01*
X158769031Y-77325500D01*
X161498969Y-77325500D01*
X161566008Y-77345185D01*
X161586650Y-77361819D01*
X165716179Y-81491348D01*
X165749664Y-81552671D01*
X165747764Y-81612963D01*
X165718885Y-81714461D01*
X165718884Y-81714464D01*
X165698357Y-81935999D01*
X165698357Y-81936000D01*
X165718884Y-82157535D01*
X165718885Y-82157537D01*
X165779769Y-82371523D01*
X165779775Y-82371538D01*
X165878938Y-82570683D01*
X165878943Y-82570691D01*
X166013020Y-82748238D01*
X166177437Y-82898123D01*
X166177439Y-82898125D01*
X166366595Y-83015245D01*
X166366596Y-83015245D01*
X166366599Y-83015247D01*
X166560524Y-83090374D01*
X166615924Y-83132946D01*
X166639515Y-83198713D01*
X166623804Y-83266793D01*
X166573780Y-83315572D01*
X166560533Y-83321622D01*
X166412488Y-83378975D01*
X166366601Y-83396752D01*
X166366595Y-83396754D01*
X166177439Y-83513874D01*
X166177437Y-83513876D01*
X166013020Y-83663761D01*
X165878943Y-83841308D01*
X165878938Y-83841316D01*
X165779775Y-84040461D01*
X165779769Y-84040476D01*
X165718885Y-84254462D01*
X165718884Y-84254464D01*
X165698357Y-84475999D01*
X165698357Y-84476000D01*
X165718884Y-84697535D01*
X165718885Y-84697537D01*
X165779769Y-84911523D01*
X165779775Y-84911538D01*
X165878938Y-85110683D01*
X165878943Y-85110691D01*
X166013020Y-85288238D01*
X166177437Y-85438123D01*
X166177439Y-85438125D01*
X166366595Y-85555245D01*
X166366596Y-85555245D01*
X166366599Y-85555247D01*
X166560524Y-85630374D01*
X166615924Y-85672946D01*
X166639515Y-85738713D01*
X166623804Y-85806793D01*
X166573780Y-85855572D01*
X166560533Y-85861622D01*
X166412488Y-85918975D01*
X166366601Y-85936752D01*
X166366595Y-85936754D01*
X166177439Y-86053874D01*
X166177437Y-86053876D01*
X166013020Y-86203761D01*
X165878943Y-86381308D01*
X165878938Y-86381316D01*
X165779775Y-86580461D01*
X165779769Y-86580476D01*
X165718885Y-86794462D01*
X165718884Y-86794464D01*
X165698357Y-87015999D01*
X165698357Y-87016000D01*
X165718884Y-87237535D01*
X165718885Y-87237537D01*
X165779769Y-87451523D01*
X165779775Y-87451538D01*
X165878938Y-87650683D01*
X165878943Y-87650691D01*
X166013020Y-87828238D01*
X166177437Y-87978123D01*
X166177439Y-87978125D01*
X166366595Y-88095245D01*
X166366596Y-88095245D01*
X166366599Y-88095247D01*
X166560524Y-88170374D01*
X166615924Y-88212946D01*
X166639515Y-88278713D01*
X166623804Y-88346793D01*
X166573780Y-88395572D01*
X166560533Y-88401622D01*
X166430478Y-88452006D01*
X166366601Y-88476752D01*
X166366595Y-88476754D01*
X166177439Y-88593874D01*
X166177437Y-88593876D01*
X166013020Y-88743761D01*
X165878943Y-88921308D01*
X165878938Y-88921316D01*
X165779775Y-89120461D01*
X165779769Y-89120476D01*
X165718885Y-89334462D01*
X165718884Y-89334464D01*
X165698357Y-89555999D01*
X165698357Y-89556000D01*
X165718884Y-89777535D01*
X165718885Y-89777537D01*
X165779769Y-89991523D01*
X165779775Y-89991538D01*
X165878938Y-90190683D01*
X165878943Y-90190691D01*
X166013020Y-90368238D01*
X166177437Y-90518123D01*
X166177439Y-90518125D01*
X166366595Y-90635245D01*
X166366596Y-90635245D01*
X166366599Y-90635247D01*
X166560524Y-90710374D01*
X166615924Y-90752946D01*
X166639515Y-90818713D01*
X166623804Y-90886793D01*
X166573780Y-90935572D01*
X166560533Y-90941622D01*
X166440414Y-90988157D01*
X166366601Y-91016752D01*
X166366595Y-91016754D01*
X166177439Y-91133874D01*
X166177437Y-91133876D01*
X166013020Y-91283761D01*
X165878943Y-91461308D01*
X165878938Y-91461316D01*
X165779775Y-91660461D01*
X165779769Y-91660476D01*
X165718885Y-91874462D01*
X165718884Y-91874464D01*
X165698357Y-92095999D01*
X165698357Y-92096000D01*
X165718884Y-92317535D01*
X165718885Y-92317537D01*
X165779769Y-92531523D01*
X165779775Y-92531538D01*
X165878938Y-92730683D01*
X165878943Y-92730691D01*
X166013020Y-92908238D01*
X166177437Y-93058123D01*
X166177439Y-93058125D01*
X166366595Y-93175245D01*
X166366607Y-93175251D01*
X166419774Y-93195847D01*
X166475177Y-93238419D01*
X166498768Y-93304185D01*
X166483058Y-93372266D01*
X166433034Y-93421046D01*
X166427387Y-93423856D01*
X166251517Y-93505865D01*
X166065179Y-93636342D01*
X165904342Y-93797179D01*
X165773865Y-93983517D01*
X165677734Y-94189673D01*
X165677731Y-94189680D01*
X165630498Y-94365956D01*
X165594133Y-94425616D01*
X165531286Y-94456145D01*
X165461910Y-94447850D01*
X165423042Y-94421543D01*
X165215054Y-94213555D01*
X163496819Y-92495319D01*
X163463334Y-92433996D01*
X163460500Y-92407638D01*
X163460500Y-92113306D01*
X163460499Y-92113304D01*
X163425896Y-91939341D01*
X163425893Y-91939332D01*
X163358016Y-91775459D01*
X163358009Y-91775446D01*
X163259464Y-91627965D01*
X163259461Y-91627961D01*
X163134038Y-91502538D01*
X163134034Y-91502535D01*
X162986553Y-91403990D01*
X162986540Y-91403983D01*
X162822667Y-91336106D01*
X162822658Y-91336103D01*
X162648694Y-91301500D01*
X162648691Y-91301500D01*
X162471309Y-91301500D01*
X162471306Y-91301500D01*
X162297341Y-91336103D01*
X162297332Y-91336106D01*
X162133459Y-91403983D01*
X162133446Y-91403990D01*
X161985965Y-91502535D01*
X161985961Y-91502538D01*
X161860538Y-91627961D01*
X161860535Y-91627965D01*
X161761990Y-91775446D01*
X161761983Y-91775459D01*
X161694106Y-91939332D01*
X161694103Y-91939341D01*
X161659500Y-92113304D01*
X161659500Y-92920696D01*
X161694103Y-93094658D01*
X161694105Y-93094666D01*
X161727483Y-93175247D01*
X161761984Y-93258542D01*
X161761988Y-93258549D01*
X161770042Y-93270603D01*
X161770045Y-93270606D01*
X161787347Y-93296500D01*
X161860537Y-93406038D01*
X161860538Y-93406039D01*
X165542819Y-97088318D01*
X165576304Y-97149641D01*
X165571320Y-97219333D01*
X165542819Y-97263680D01*
X164400537Y-98405962D01*
X164400536Y-98405964D01*
X164377974Y-98439732D01*
X164362749Y-98462518D01*
X164362748Y-98462519D01*
X164301988Y-98553451D01*
X164301986Y-98553455D01*
X164273933Y-98621182D01*
X164234105Y-98717333D01*
X164234103Y-98717341D01*
X164199500Y-98891303D01*
X164199500Y-118447638D01*
X164179815Y-118514677D01*
X164163181Y-118535319D01*
X157235319Y-125463181D01*
X157173996Y-125496666D01*
X157147638Y-125499500D01*
X156111306Y-125499500D01*
X155937341Y-125534103D01*
X155937332Y-125534106D01*
X155773459Y-125601983D01*
X155773446Y-125601990D01*
X155625965Y-125700535D01*
X155625961Y-125700538D01*
X155500538Y-125825961D01*
X155500535Y-125825965D01*
X155401990Y-125973446D01*
X155401983Y-125973459D01*
X155334106Y-126137332D01*
X155334103Y-126137341D01*
X155299500Y-126311304D01*
X155299500Y-126488695D01*
X155334103Y-126662658D01*
X155334106Y-126662666D01*
X155401983Y-126826540D01*
X155401990Y-126826553D01*
X155500535Y-126974034D01*
X155500538Y-126974038D01*
X155625961Y-127099461D01*
X155625965Y-127099464D01*
X155773446Y-127198009D01*
X155773459Y-127198016D01*
X155896363Y-127248923D01*
X155937334Y-127265894D01*
X155937336Y-127265894D01*
X155937341Y-127265896D01*
X156111304Y-127300499D01*
X156111307Y-127300500D01*
X156111309Y-127300500D01*
X157660693Y-127300500D01*
X157660694Y-127300499D01*
X157834666Y-127265895D01*
X157916606Y-127231953D01*
X157998547Y-127198013D01*
X157998549Y-127198011D01*
X157998552Y-127198010D01*
X158086955Y-127138939D01*
X158086955Y-127138938D01*
X158086959Y-127138936D01*
X158146036Y-127099464D01*
X162206030Y-123039469D01*
X185893500Y-123039469D01*
X185933868Y-123242412D01*
X185933870Y-123242420D01*
X186013057Y-123433595D01*
X186013062Y-123433604D01*
X186128023Y-123605654D01*
X186128026Y-123605658D01*
X186274341Y-123751973D01*
X186274345Y-123751976D01*
X186446395Y-123866937D01*
X186446401Y-123866940D01*
X186446402Y-123866941D01*
X186637580Y-123946130D01*
X186730092Y-123964531D01*
X186746844Y-123969104D01*
X186764745Y-123975368D01*
X186805300Y-123979937D01*
X186815578Y-123981535D01*
X186840535Y-123986500D01*
X186856584Y-123986500D01*
X186870468Y-123987280D01*
X186943997Y-123995565D01*
X186944000Y-123995565D01*
X186944003Y-123995565D01*
X187017532Y-123987280D01*
X187031416Y-123986500D01*
X187047464Y-123986500D01*
X187047465Y-123986500D01*
X187072425Y-123981534D01*
X187082698Y-123979937D01*
X187123255Y-123975368D01*
X187133123Y-123971914D01*
X187141141Y-123969109D01*
X187157908Y-123964530D01*
X187250420Y-123946130D01*
X187441598Y-123866941D01*
X187613655Y-123751976D01*
X187657443Y-123708187D01*
X187657446Y-123708185D01*
X187667653Y-123697977D01*
X187667655Y-123697977D01*
X187813977Y-123551655D01*
X187846777Y-123502566D01*
X187892860Y-123433599D01*
X187892860Y-123433598D01*
X187892862Y-123433595D01*
X187928942Y-123379598D01*
X187994569Y-123221158D01*
X188007476Y-123190000D01*
X202776357Y-123190000D01*
X202796884Y-123411535D01*
X202796885Y-123411537D01*
X202857769Y-123625523D01*
X202857775Y-123625538D01*
X202956938Y-123824683D01*
X202956943Y-123824691D01*
X203091020Y-124002238D01*
X203255437Y-124152123D01*
X203255439Y-124152125D01*
X203444595Y-124269245D01*
X203444596Y-124269245D01*
X203444599Y-124269247D01*
X203652060Y-124349618D01*
X203870757Y-124390500D01*
X203870759Y-124390500D01*
X204093241Y-124390500D01*
X204093243Y-124390500D01*
X204311940Y-124349618D01*
X204519401Y-124269247D01*
X204708562Y-124152124D01*
X204872981Y-124002236D01*
X205007058Y-123824689D01*
X205106229Y-123625528D01*
X205112734Y-123602661D01*
X205150012Y-123543571D01*
X205213322Y-123514013D01*
X205282561Y-123523375D01*
X205335748Y-123568684D01*
X205351264Y-123602658D01*
X205357770Y-123625523D01*
X205357772Y-123625530D01*
X205357775Y-123625538D01*
X205456938Y-123824683D01*
X205456943Y-123824691D01*
X205591020Y-124002238D01*
X205755437Y-124152123D01*
X205755439Y-124152125D01*
X205944595Y-124269245D01*
X205944596Y-124269245D01*
X205944599Y-124269247D01*
X206152060Y-124349618D01*
X206370757Y-124390500D01*
X206370759Y-124390500D01*
X206593241Y-124390500D01*
X206593243Y-124390500D01*
X206811940Y-124349618D01*
X207019401Y-124269247D01*
X207208562Y-124152124D01*
X207372981Y-124002236D01*
X207507058Y-123824689D01*
X207606229Y-123625528D01*
X207667115Y-123411536D01*
X207687643Y-123190000D01*
X207687495Y-123188408D01*
X207667115Y-122968464D01*
X207667114Y-122968462D01*
X207635293Y-122856624D01*
X207606229Y-122754472D01*
X207568256Y-122678212D01*
X207507061Y-122555316D01*
X207507056Y-122555308D01*
X207372979Y-122377761D01*
X207208562Y-122227876D01*
X207208560Y-122227874D01*
X207019404Y-122110754D01*
X207019398Y-122110752D01*
X206811940Y-122030382D01*
X206593243Y-121989500D01*
X206370757Y-121989500D01*
X206152060Y-122030382D01*
X206020864Y-122081207D01*
X205944601Y-122110752D01*
X205944595Y-122110754D01*
X205755439Y-122227874D01*
X205755437Y-122227876D01*
X205591020Y-122377761D01*
X205456943Y-122555308D01*
X205456938Y-122555316D01*
X205357775Y-122754461D01*
X205357769Y-122754476D01*
X205351266Y-122777335D01*
X205313987Y-122836429D01*
X205250677Y-122865986D01*
X205181438Y-122856624D01*
X205128251Y-122811314D01*
X205112734Y-122777335D01*
X205106230Y-122754476D01*
X205106229Y-122754472D01*
X205068256Y-122678212D01*
X205007061Y-122555316D01*
X205007056Y-122555308D01*
X204872979Y-122377761D01*
X204708562Y-122227876D01*
X204708560Y-122227874D01*
X204519404Y-122110754D01*
X204519398Y-122110752D01*
X204311940Y-122030382D01*
X204093243Y-121989500D01*
X203870757Y-121989500D01*
X203652060Y-122030382D01*
X203520864Y-122081207D01*
X203444601Y-122110752D01*
X203444595Y-122110754D01*
X203255439Y-122227874D01*
X203255437Y-122227876D01*
X203091020Y-122377761D01*
X202956943Y-122555308D01*
X202956938Y-122555316D01*
X202857775Y-122754461D01*
X202857769Y-122754476D01*
X202796885Y-122968462D01*
X202796884Y-122968464D01*
X202776357Y-123189999D01*
X202776357Y-123190000D01*
X188007476Y-123190000D01*
X188008130Y-123188420D01*
X188014827Y-123154746D01*
X188032382Y-123066498D01*
X188048501Y-122985467D01*
X188048501Y-122773424D01*
X188048500Y-122773398D01*
X188048500Y-117003600D01*
X188048501Y-117003579D01*
X188048501Y-116790532D01*
X188008132Y-116587588D01*
X188008128Y-116587574D01*
X188007080Y-116585045D01*
X188007077Y-116585039D01*
X187985519Y-116532993D01*
X187967909Y-116490478D01*
X187928942Y-116396402D01*
X187928940Y-116396400D01*
X187928940Y-116396398D01*
X187813978Y-116224346D01*
X187813977Y-116224345D01*
X187730168Y-116140536D01*
X187667655Y-116078023D01*
X187667654Y-116078022D01*
X187663324Y-116073692D01*
X187663324Y-116073691D01*
X187663313Y-116073682D01*
X187613658Y-116024026D01*
X187613654Y-116024023D01*
X187441604Y-115909062D01*
X187441595Y-115909057D01*
X187250420Y-115829870D01*
X187250412Y-115829868D01*
X187047469Y-115789500D01*
X187047465Y-115789500D01*
X186840535Y-115789500D01*
X186840530Y-115789500D01*
X186637587Y-115829868D01*
X186637579Y-115829870D01*
X186446404Y-115909057D01*
X186446395Y-115909062D01*
X186274345Y-116024023D01*
X186274341Y-116024026D01*
X186128026Y-116170341D01*
X186128023Y-116170345D01*
X186013062Y-116342395D01*
X186013057Y-116342404D01*
X185933870Y-116533579D01*
X185933868Y-116533587D01*
X185893500Y-116736530D01*
X185893500Y-116943469D01*
X185933411Y-117144114D01*
X185933870Y-117146420D01*
X185938061Y-117156539D01*
X185947500Y-117203990D01*
X185947500Y-122572010D01*
X185938062Y-122619458D01*
X185933870Y-122629580D01*
X185933869Y-122629583D01*
X185933867Y-122629587D01*
X185893500Y-122832530D01*
X185893500Y-123039469D01*
X162206030Y-123039469D01*
X165799464Y-119446035D01*
X165832538Y-119396536D01*
X165898013Y-119298547D01*
X165917895Y-119250547D01*
X165965895Y-119134666D01*
X166000500Y-118960691D01*
X166000500Y-118783308D01*
X166000500Y-116840001D01*
X179704645Y-116840001D01*
X179724039Y-117111160D01*
X179724040Y-117111167D01*
X179781823Y-117376793D01*
X179781825Y-117376801D01*
X179819886Y-117478846D01*
X179876830Y-117631519D01*
X180007109Y-117870107D01*
X180007110Y-117870108D01*
X180007113Y-117870113D01*
X180170029Y-118087742D01*
X180170033Y-118087746D01*
X180170038Y-118087752D01*
X180362247Y-118279961D01*
X180362253Y-118279966D01*
X180362258Y-118279971D01*
X180579887Y-118442887D01*
X180579891Y-118442889D01*
X180579892Y-118442890D01*
X180818481Y-118573169D01*
X180818480Y-118573169D01*
X180818484Y-118573170D01*
X180818487Y-118573172D01*
X181073199Y-118668175D01*
X181338840Y-118725961D01*
X181590605Y-118743967D01*
X181609999Y-118745355D01*
X181610000Y-118745355D01*
X181610001Y-118745355D01*
X181628100Y-118744060D01*
X181881160Y-118725961D01*
X182146801Y-118668175D01*
X182401513Y-118573172D01*
X182401517Y-118573169D01*
X182401519Y-118573169D01*
X182537349Y-118499000D01*
X182640113Y-118442887D01*
X182857742Y-118279971D01*
X183049971Y-118087742D01*
X183212887Y-117870113D01*
X183278029Y-117750813D01*
X183343169Y-117631519D01*
X183343169Y-117631517D01*
X183343172Y-117631513D01*
X183438175Y-117376801D01*
X183495961Y-117111160D01*
X183515355Y-116840000D01*
X183495961Y-116568840D01*
X183438175Y-116303199D01*
X183343172Y-116048487D01*
X183343170Y-116048484D01*
X183343169Y-116048480D01*
X183212890Y-115809892D01*
X183212889Y-115809891D01*
X183212887Y-115809887D01*
X183049971Y-115592258D01*
X183049966Y-115592253D01*
X183049961Y-115592247D01*
X182857752Y-115400038D01*
X182857746Y-115400033D01*
X182857742Y-115400029D01*
X182640113Y-115237113D01*
X182640108Y-115237110D01*
X182640107Y-115237109D01*
X182401518Y-115106830D01*
X182401514Y-115106828D01*
X182333129Y-115081322D01*
X182277788Y-115060681D01*
X182221856Y-115018811D01*
X182197439Y-114953346D01*
X182212291Y-114885073D01*
X182261696Y-114835668D01*
X182321123Y-114820500D01*
X188538481Y-114820500D01*
X188605520Y-114840185D01*
X188626162Y-114856819D01*
X192406070Y-118636727D01*
X192411482Y-118642495D01*
X192439676Y-118674537D01*
X192451006Y-118683201D01*
X192463364Y-118694021D01*
X192473457Y-118704114D01*
X192499448Y-118721480D01*
X192508957Y-118727834D01*
X192515378Y-118732427D01*
X192549287Y-118758358D01*
X192562094Y-118764647D01*
X192576324Y-118772847D01*
X192588189Y-118780775D01*
X192588194Y-118780777D01*
X192627625Y-118797110D01*
X192634834Y-118800369D01*
X192673144Y-118819183D01*
X192686934Y-118822853D01*
X192702480Y-118828115D01*
X192715672Y-118833580D01*
X192715676Y-118833580D01*
X192715677Y-118833581D01*
X192757552Y-118841911D01*
X192765245Y-118843698D01*
X192806487Y-118854676D01*
X192820729Y-118855585D01*
X192837011Y-118857716D01*
X192851005Y-118860500D01*
X192851006Y-118860500D01*
X192891454Y-118860500D01*
X192932409Y-118867459D01*
X193040748Y-118905369D01*
X193219996Y-118925565D01*
X193220000Y-118925565D01*
X193220004Y-118925565D01*
X193399249Y-118905369D01*
X193399252Y-118905368D01*
X193399255Y-118905368D01*
X193569522Y-118845789D01*
X193722262Y-118749816D01*
X193849816Y-118622262D01*
X193945789Y-118469522D01*
X194005368Y-118299255D01*
X194025565Y-118120000D01*
X194021930Y-118087742D01*
X194005369Y-117940750D01*
X194005368Y-117940745D01*
X193956118Y-117799996D01*
X193945789Y-117770478D01*
X193849816Y-117617738D01*
X193722262Y-117490184D01*
X193704211Y-117478842D01*
X193569523Y-117394211D01*
X193399254Y-117334631D01*
X193399249Y-117334630D01*
X193220004Y-117314435D01*
X193219997Y-117314435D01*
X193140117Y-117323435D01*
X193071295Y-117311380D01*
X193038553Y-117287896D01*
X192590658Y-116840001D01*
X198654891Y-116840001D01*
X198675300Y-117125362D01*
X198736109Y-117404895D01*
X198836091Y-117672958D01*
X198973191Y-117924038D01*
X198973196Y-117924046D01*
X199079882Y-118066561D01*
X199079883Y-118066562D01*
X200177037Y-116969408D01*
X200194075Y-117032993D01*
X200259901Y-117147007D01*
X200352993Y-117240099D01*
X200467007Y-117305925D01*
X200530590Y-117322962D01*
X199433436Y-118420115D01*
X199575960Y-118526807D01*
X199575961Y-118526808D01*
X199827042Y-118663908D01*
X199827041Y-118663908D01*
X200095104Y-118763890D01*
X200374637Y-118824699D01*
X200659999Y-118845109D01*
X200660001Y-118845109D01*
X200945362Y-118824699D01*
X201224895Y-118763890D01*
X201492958Y-118663908D01*
X201744047Y-118526803D01*
X201886561Y-118420116D01*
X201886562Y-118420115D01*
X200789410Y-117322962D01*
X200852993Y-117305925D01*
X200967007Y-117240099D01*
X201060099Y-117147007D01*
X201125925Y-117032993D01*
X201142962Y-116969409D01*
X202240115Y-118066562D01*
X202240116Y-118066561D01*
X202346803Y-117924047D01*
X202483908Y-117672958D01*
X202583890Y-117404895D01*
X202644699Y-117125362D01*
X202665109Y-116840001D01*
X202665109Y-116839998D01*
X202652878Y-116668995D01*
X205849499Y-116668995D01*
X205876418Y-116804322D01*
X205876421Y-116804332D01*
X205929221Y-116931804D01*
X205929228Y-116931817D01*
X206005885Y-117046541D01*
X206005888Y-117046545D01*
X206103454Y-117144111D01*
X206103458Y-117144114D01*
X206218182Y-117220771D01*
X206218195Y-117220778D01*
X206264841Y-117240099D01*
X206345672Y-117273580D01*
X206345676Y-117273580D01*
X206345677Y-117273581D01*
X206481004Y-117300500D01*
X206481007Y-117300500D01*
X206618995Y-117300500D01*
X206710041Y-117282389D01*
X206754328Y-117273580D01*
X206881811Y-117220775D01*
X206996542Y-117144114D01*
X207094114Y-117046542D01*
X207170775Y-116931811D01*
X207223580Y-116804328D01*
X207250368Y-116669658D01*
X207250500Y-116668995D01*
X207250500Y-114821518D01*
X207270185Y-114754479D01*
X207286814Y-114733842D01*
X209179290Y-112841365D01*
X209226013Y-112812007D01*
X209329522Y-112775789D01*
X209482262Y-112679816D01*
X209609816Y-112552262D01*
X209705789Y-112399522D01*
X209765368Y-112229255D01*
X209769288Y-112194464D01*
X209785565Y-112050003D01*
X209785565Y-112049996D01*
X209765369Y-111870750D01*
X209765368Y-111870745D01*
X209737620Y-111791446D01*
X209705789Y-111700478D01*
X209699022Y-111689709D01*
X209648633Y-111609515D01*
X209609816Y-111547738D01*
X209482262Y-111420184D01*
X209468273Y-111411394D01*
X209329523Y-111324211D01*
X209159254Y-111264631D01*
X209159249Y-111264630D01*
X208980004Y-111244435D01*
X208979996Y-111244435D01*
X208800750Y-111264630D01*
X208800745Y-111264631D01*
X208630476Y-111324211D01*
X208477737Y-111420184D01*
X208350184Y-111547737D01*
X208254212Y-111700475D01*
X208254211Y-111700476D01*
X208217992Y-111803984D01*
X208188632Y-111850709D01*
X206005890Y-114033451D01*
X206005884Y-114033458D01*
X205976045Y-114078117D01*
X205976045Y-114078118D01*
X205929228Y-114148183D01*
X205929221Y-114148195D01*
X205876421Y-114275667D01*
X205876418Y-114275677D01*
X205849500Y-114411004D01*
X205849500Y-114411007D01*
X205849500Y-116668993D01*
X205849500Y-116668995D01*
X205849499Y-116668995D01*
X202652878Y-116668995D01*
X202644699Y-116554637D01*
X202583890Y-116275104D01*
X202483908Y-116007041D01*
X202346808Y-115755961D01*
X202346807Y-115755960D01*
X202240115Y-115613436D01*
X201142962Y-116710589D01*
X201125925Y-116647007D01*
X201060099Y-116532993D01*
X200967007Y-116439901D01*
X200852993Y-116374075D01*
X200789409Y-116357037D01*
X201886562Y-115259883D01*
X201886561Y-115259882D01*
X201744046Y-115153196D01*
X201744038Y-115153191D01*
X201492957Y-115016091D01*
X201492958Y-115016091D01*
X201224895Y-114916109D01*
X200945362Y-114855300D01*
X200660001Y-114834891D01*
X200659999Y-114834891D01*
X200374637Y-114855300D01*
X200095104Y-114916109D01*
X199827041Y-115016091D01*
X199575961Y-115153191D01*
X199575953Y-115153196D01*
X199433437Y-115259882D01*
X199433436Y-115259883D01*
X200530591Y-116357037D01*
X200467007Y-116374075D01*
X200352993Y-116439901D01*
X200259901Y-116532993D01*
X200194075Y-116647007D01*
X200177037Y-116710590D01*
X199079883Y-115613436D01*
X199079882Y-115613437D01*
X198973196Y-115755953D01*
X198973191Y-115755961D01*
X198836091Y-116007041D01*
X198736109Y-116275104D01*
X198675300Y-116554637D01*
X198654891Y-116839998D01*
X198654891Y-116840001D01*
X192590658Y-116840001D01*
X189326546Y-113575888D01*
X189326545Y-113575887D01*
X189211807Y-113499222D01*
X189084332Y-113446421D01*
X189084322Y-113446418D01*
X188948996Y-113419500D01*
X188948994Y-113419500D01*
X188948993Y-113419500D01*
X182255494Y-113419500D01*
X182189523Y-113400494D01*
X182179525Y-113394212D01*
X182009254Y-113334631D01*
X182009249Y-113334630D01*
X181830004Y-113314435D01*
X181829996Y-113314435D01*
X181650750Y-113334630D01*
X181650745Y-113334631D01*
X181480476Y-113394211D01*
X181327737Y-113490184D01*
X181200184Y-113617737D01*
X181104211Y-113770476D01*
X181044631Y-113940745D01*
X181044630Y-113940750D01*
X181024435Y-114119996D01*
X181024435Y-114120003D01*
X181044630Y-114299249D01*
X181044631Y-114299254D01*
X181104211Y-114469523D01*
X181200184Y-114622262D01*
X181332662Y-114754740D01*
X181331699Y-114755702D01*
X181367491Y-114806690D01*
X181370345Y-114876502D01*
X181335002Y-114936774D01*
X181276398Y-114967621D01*
X181073206Y-115011823D01*
X181073202Y-115011824D01*
X181073199Y-115011825D01*
X180945843Y-115059326D01*
X180818480Y-115106830D01*
X180579892Y-115237109D01*
X180579891Y-115237110D01*
X180362259Y-115400028D01*
X180362247Y-115400038D01*
X180170038Y-115592247D01*
X180170028Y-115592259D01*
X180007110Y-115809891D01*
X180007109Y-115809892D01*
X179876830Y-116048480D01*
X179842495Y-116140536D01*
X179781825Y-116303199D01*
X179781824Y-116303202D01*
X179781823Y-116303206D01*
X179724040Y-116568832D01*
X179724039Y-116568839D01*
X179704645Y-116839998D01*
X179704645Y-116840001D01*
X166000500Y-116840001D01*
X166000500Y-113740499D01*
X166020185Y-113673460D01*
X166072989Y-113627705D01*
X166124495Y-113616499D01*
X167735518Y-113616499D01*
X167829304Y-113601646D01*
X167942342Y-113544050D01*
X168032050Y-113454342D01*
X168089646Y-113341304D01*
X168089646Y-113341302D01*
X168089647Y-113341301D01*
X168104499Y-113247524D01*
X168104500Y-113247519D01*
X168104499Y-111584482D01*
X168089646Y-111490696D01*
X168032050Y-111377658D01*
X168032046Y-111377654D01*
X168032045Y-111377652D01*
X167942347Y-111287954D01*
X167942344Y-111287952D01*
X167942342Y-111287950D01*
X167865517Y-111248805D01*
X167829301Y-111230352D01*
X167735524Y-111215500D01*
X167432952Y-111215500D01*
X167365913Y-111195815D01*
X167320158Y-111143011D01*
X167310214Y-111073853D01*
X167339239Y-111010297D01*
X167388159Y-110975873D01*
X167413706Y-110965976D01*
X167441401Y-110955247D01*
X167630562Y-110838124D01*
X167776930Y-110704692D01*
X167794979Y-110688238D01*
X167872319Y-110585824D01*
X167929058Y-110510689D01*
X168028229Y-110311528D01*
X168038164Y-110276607D01*
X168075441Y-110217519D01*
X168138750Y-110187960D01*
X168207990Y-110197321D01*
X168261177Y-110242630D01*
X168278160Y-110288404D01*
X168278503Y-110288313D01*
X168279482Y-110291966D01*
X168280367Y-110294352D01*
X168280604Y-110296156D01*
X168280606Y-110296163D01*
X168280606Y-110296164D01*
X168284726Y-110311538D01*
X168321530Y-110448892D01*
X168338946Y-110479057D01*
X168338945Y-110479057D01*
X168338946Y-110479058D01*
X168400582Y-110585816D01*
X168400588Y-110585824D01*
X168519456Y-110704692D01*
X168519462Y-110704697D01*
X171981139Y-114166374D01*
X171981149Y-114166385D01*
X171985479Y-114170715D01*
X171985480Y-114170716D01*
X172097284Y-114282520D01*
X172126271Y-114299255D01*
X172184095Y-114332639D01*
X172184097Y-114332641D01*
X172234213Y-114361576D01*
X172234215Y-114361577D01*
X172386942Y-114402500D01*
X172386943Y-114402500D01*
X177871331Y-114402500D01*
X177871347Y-114402501D01*
X177878943Y-114402501D01*
X178037054Y-114402501D01*
X178037057Y-114402501D01*
X178189785Y-114361577D01*
X178239904Y-114332639D01*
X178326716Y-114282520D01*
X178438520Y-114170716D01*
X178438520Y-114170714D01*
X178448728Y-114160507D01*
X178448729Y-114160504D01*
X180269231Y-112340003D01*
X181544435Y-112340003D01*
X181564630Y-112519249D01*
X181564631Y-112519254D01*
X181624211Y-112689523D01*
X181706524Y-112820522D01*
X181720184Y-112842262D01*
X181847738Y-112969816D01*
X181919532Y-113014927D01*
X181976449Y-113050691D01*
X182000478Y-113065789D01*
X182170745Y-113125368D01*
X182170750Y-113125369D01*
X182349996Y-113145565D01*
X182350000Y-113145565D01*
X182350004Y-113145565D01*
X182529249Y-113125369D01*
X182529252Y-113125368D01*
X182529255Y-113125368D01*
X182699522Y-113065789D01*
X182852262Y-112969816D01*
X182852267Y-112969810D01*
X182855097Y-112967555D01*
X182857275Y-112966665D01*
X182858158Y-112966111D01*
X182858255Y-112966265D01*
X182919783Y-112941145D01*
X182932412Y-112940500D01*
X188593331Y-112940500D01*
X188593347Y-112940501D01*
X188600943Y-112940501D01*
X188759054Y-112940501D01*
X188759057Y-112940501D01*
X188911785Y-112899577D01*
X188972477Y-112864536D01*
X189048716Y-112820520D01*
X189160520Y-112708716D01*
X189160520Y-112708714D01*
X189170724Y-112698511D01*
X189170727Y-112698506D01*
X190832416Y-111036819D01*
X190893739Y-111003334D01*
X190920097Y-111000500D01*
X197943331Y-111000500D01*
X197943347Y-111000501D01*
X197950943Y-111000501D01*
X198109054Y-111000501D01*
X198109057Y-111000501D01*
X198261785Y-110959577D01*
X198311904Y-110930639D01*
X198398716Y-110880520D01*
X198510520Y-110768716D01*
X198510520Y-110768714D01*
X198520728Y-110758507D01*
X198520730Y-110758504D01*
X199789804Y-109489429D01*
X199851125Y-109455946D01*
X199863601Y-109453892D01*
X199939249Y-109445369D01*
X199939252Y-109445368D01*
X199939255Y-109445368D01*
X200109522Y-109385789D01*
X200262262Y-109289816D01*
X200389816Y-109162262D01*
X200485789Y-109009522D01*
X200545368Y-108839255D01*
X200548497Y-108811486D01*
X200565565Y-108660003D01*
X200565565Y-108659996D01*
X200545369Y-108480750D01*
X200545368Y-108480745D01*
X200522449Y-108415247D01*
X200485789Y-108310478D01*
X200478026Y-108298124D01*
X200409822Y-108189577D01*
X200389816Y-108157738D01*
X200262262Y-108030184D01*
X200212181Y-107998716D01*
X200109523Y-107934211D01*
X199939254Y-107874631D01*
X199939249Y-107874630D01*
X199760004Y-107854435D01*
X199759996Y-107854435D01*
X199580750Y-107874630D01*
X199580745Y-107874631D01*
X199410476Y-107934211D01*
X199257737Y-108030184D01*
X199130184Y-108157737D01*
X199034210Y-108310478D01*
X198974630Y-108480750D01*
X198963567Y-108578938D01*
X198936500Y-108643352D01*
X198928028Y-108652735D01*
X197817584Y-109763181D01*
X197756261Y-109796666D01*
X197729903Y-109799500D01*
X190699057Y-109799500D01*
X190540942Y-109799500D01*
X190388215Y-109840423D01*
X190388214Y-109840423D01*
X190388212Y-109840424D01*
X190388209Y-109840425D01*
X190338096Y-109869359D01*
X190338095Y-109869360D01*
X190305913Y-109887940D01*
X190251285Y-109919479D01*
X190251282Y-109919481D01*
X190180794Y-109989970D01*
X190139480Y-110031284D01*
X190139478Y-110031286D01*
X189286506Y-110884259D01*
X188467584Y-111703181D01*
X188406261Y-111736666D01*
X188379903Y-111739500D01*
X182932412Y-111739500D01*
X182865373Y-111719815D01*
X182855097Y-111712445D01*
X182852263Y-111710185D01*
X182852262Y-111710184D01*
X182768400Y-111657490D01*
X182699523Y-111614211D01*
X182529254Y-111554631D01*
X182529249Y-111554630D01*
X182350004Y-111534435D01*
X182349996Y-111534435D01*
X182170750Y-111554630D01*
X182170745Y-111554631D01*
X182000476Y-111614211D01*
X181847737Y-111710184D01*
X181720184Y-111837737D01*
X181624211Y-111990476D01*
X181564631Y-112160745D01*
X181564630Y-112160750D01*
X181544435Y-112339996D01*
X181544435Y-112340003D01*
X180269231Y-112340003D01*
X182402417Y-110206819D01*
X182463740Y-110173334D01*
X182490098Y-110170500D01*
X188083331Y-110170500D01*
X188083347Y-110170501D01*
X188090943Y-110170501D01*
X188249054Y-110170501D01*
X188249057Y-110170501D01*
X188401785Y-110129577D01*
X188477158Y-110086060D01*
X188538716Y-110050520D01*
X188650520Y-109938716D01*
X188650520Y-109938714D01*
X188660724Y-109928511D01*
X188660727Y-109928506D01*
X190322416Y-108266819D01*
X190383739Y-108233334D01*
X190410097Y-108230500D01*
X195328331Y-108230500D01*
X195328347Y-108230501D01*
X195335943Y-108230501D01*
X195494054Y-108230501D01*
X195494057Y-108230501D01*
X195646785Y-108189577D01*
X195718389Y-108148236D01*
X195783716Y-108110520D01*
X195895520Y-107998716D01*
X195895520Y-107998714D01*
X195905724Y-107988511D01*
X195905727Y-107988506D01*
X198605538Y-105288696D01*
X204429500Y-105288696D01*
X204464103Y-105462658D01*
X204464106Y-105462670D01*
X204481804Y-105505395D01*
X204531985Y-105626544D01*
X204558824Y-105666711D01*
X204558824Y-105666712D01*
X204630532Y-105774031D01*
X204630538Y-105774039D01*
X208010285Y-109153786D01*
X208010305Y-109153804D01*
X208055961Y-109199461D01*
X208055965Y-109199464D01*
X208203446Y-109298009D01*
X208203459Y-109298016D01*
X208366887Y-109365709D01*
X208366892Y-109365711D01*
X208367334Y-109365894D01*
X208410827Y-109374545D01*
X208541305Y-109400500D01*
X208541308Y-109400500D01*
X208718693Y-109400500D01*
X208718694Y-109400499D01*
X208792653Y-109385788D01*
X208892658Y-109365896D01*
X208892661Y-109365894D01*
X208892666Y-109365894D01*
X209056547Y-109298013D01*
X209204035Y-109199464D01*
X209329464Y-109074035D01*
X209428013Y-108926547D01*
X209495894Y-108762666D01*
X209498319Y-108750478D01*
X209528700Y-108597738D01*
X209530500Y-108588691D01*
X209530500Y-108361309D01*
X209530500Y-108361306D01*
X209530499Y-108361304D01*
X209502392Y-108220000D01*
X211399769Y-108220000D01*
X211410242Y-108286126D01*
X211410242Y-108286129D01*
X211475904Y-108488217D01*
X211572379Y-108677557D01*
X211697272Y-108849459D01*
X211697276Y-108849464D01*
X211847535Y-108999723D01*
X211847540Y-108999727D01*
X212019442Y-109124620D01*
X212099377Y-109165350D01*
X212150173Y-109213325D01*
X212166968Y-109281146D01*
X212144430Y-109347281D01*
X212099378Y-109386319D01*
X212071597Y-109400474D01*
X211991974Y-109458324D01*
X211912354Y-109516172D01*
X211912352Y-109516174D01*
X211912351Y-109516174D01*
X211773174Y-109655351D01*
X211773174Y-109655352D01*
X211773172Y-109655354D01*
X211767886Y-109662630D01*
X211657476Y-109814594D01*
X211568117Y-109989970D01*
X211507290Y-110177173D01*
X211476500Y-110371577D01*
X211476500Y-110568422D01*
X211507290Y-110762826D01*
X211568117Y-110950029D01*
X211645859Y-111102606D01*
X211657476Y-111125405D01*
X211773172Y-111284646D01*
X211912354Y-111423828D01*
X212071595Y-111539524D01*
X212114555Y-111561413D01*
X212208960Y-111609515D01*
X212259756Y-111657490D01*
X212276551Y-111725311D01*
X212254014Y-111791446D01*
X212208960Y-111830485D01*
X212071594Y-111900476D01*
X211980741Y-111966485D01*
X211912354Y-112016172D01*
X211912352Y-112016174D01*
X211912351Y-112016174D01*
X211773174Y-112155351D01*
X211773174Y-112155352D01*
X211773172Y-112155354D01*
X211769252Y-112160750D01*
X211657476Y-112314594D01*
X211568117Y-112489970D01*
X211507290Y-112677173D01*
X211476500Y-112871577D01*
X211476500Y-113068422D01*
X211507290Y-113262826D01*
X211568117Y-113450029D01*
X211632108Y-113575617D01*
X211657476Y-113625405D01*
X211773172Y-113784646D01*
X211912354Y-113923828D01*
X212071595Y-114039524D01*
X212154455Y-114081743D01*
X212246970Y-114128882D01*
X212246972Y-114128882D01*
X212246975Y-114128884D01*
X212306408Y-114148195D01*
X212434173Y-114189709D01*
X212628578Y-114220500D01*
X212628583Y-114220500D01*
X213075422Y-114220500D01*
X213269826Y-114189709D01*
X213457025Y-114128884D01*
X213632405Y-114039524D01*
X213791646Y-113923828D01*
X213930828Y-113784646D01*
X214046524Y-113625405D01*
X214135884Y-113450025D01*
X214196709Y-113262826D01*
X214199133Y-113247519D01*
X214227500Y-113068422D01*
X214227500Y-112871577D01*
X214196709Y-112677173D01*
X214156122Y-112552262D01*
X214135884Y-112489975D01*
X214135882Y-112489972D01*
X214135882Y-112489970D01*
X214076900Y-112374211D01*
X214046524Y-112314595D01*
X213930828Y-112155354D01*
X213791646Y-112016172D01*
X213632405Y-111900476D01*
X213495038Y-111830484D01*
X213444243Y-111782511D01*
X213427448Y-111714690D01*
X213449985Y-111648555D01*
X213495039Y-111609515D01*
X213544169Y-111584482D01*
X213632405Y-111539524D01*
X213791646Y-111423828D01*
X213930828Y-111284646D01*
X214046524Y-111125405D01*
X214135884Y-110950025D01*
X214196709Y-110762826D01*
X214205916Y-110704697D01*
X214227500Y-110568422D01*
X214227500Y-110371577D01*
X214196709Y-110177173D01*
X214142722Y-110011020D01*
X214135884Y-109989975D01*
X214135882Y-109989972D01*
X214135882Y-109989970D01*
X214074280Y-109869069D01*
X214046524Y-109814595D01*
X213930828Y-109655354D01*
X213791646Y-109516172D01*
X213632405Y-109400476D01*
X213604621Y-109386319D01*
X213553826Y-109338345D01*
X213537031Y-109270524D01*
X213559568Y-109204390D01*
X213604622Y-109165350D01*
X213684558Y-109124620D01*
X213856459Y-108999727D01*
X213856464Y-108999723D01*
X214006723Y-108849464D01*
X214006727Y-108849459D01*
X214131620Y-108677557D01*
X214228095Y-108488217D01*
X214293757Y-108286129D01*
X214293757Y-108286126D01*
X214304231Y-108220000D01*
X213256146Y-108220000D01*
X213294630Y-108153343D01*
X213327000Y-108032535D01*
X213327000Y-107907465D01*
X213294630Y-107786657D01*
X213256146Y-107720000D01*
X214304231Y-107720000D01*
X214293757Y-107653873D01*
X214293757Y-107653870D01*
X214228095Y-107451782D01*
X214131620Y-107262442D01*
X214006727Y-107090540D01*
X214006723Y-107090535D01*
X213856464Y-106940276D01*
X213856459Y-106940272D01*
X213684555Y-106815377D01*
X213604621Y-106774648D01*
X213553826Y-106726674D01*
X213537031Y-106658853D01*
X213559569Y-106592718D01*
X213604623Y-106553679D01*
X213632405Y-106539524D01*
X213791646Y-106423828D01*
X213930828Y-106284646D01*
X214046524Y-106125405D01*
X214135884Y-105950025D01*
X214196709Y-105762826D01*
X214211932Y-105666711D01*
X214227500Y-105568422D01*
X214227500Y-105371577D01*
X214196709Y-105177173D01*
X214160084Y-105064454D01*
X214135884Y-104989975D01*
X214135882Y-104989972D01*
X214135882Y-104989970D01*
X214076421Y-104873272D01*
X214046524Y-104814595D01*
X213930828Y-104655354D01*
X213791646Y-104516172D01*
X213632405Y-104400476D01*
X213495038Y-104330484D01*
X213444243Y-104282511D01*
X213427448Y-104214690D01*
X213449985Y-104148555D01*
X213495039Y-104109515D01*
X213509274Y-104102262D01*
X213632405Y-104039524D01*
X213791646Y-103923828D01*
X213930828Y-103784646D01*
X214046524Y-103625405D01*
X214135884Y-103450025D01*
X214196709Y-103262826D01*
X214202579Y-103225764D01*
X214227500Y-103068422D01*
X214227500Y-102871577D01*
X214196709Y-102677173D01*
X214168487Y-102590317D01*
X214135884Y-102489975D01*
X214135882Y-102489972D01*
X214135882Y-102489970D01*
X214046523Y-102314594D01*
X214040696Y-102306574D01*
X213930828Y-102155354D01*
X213791646Y-102016172D01*
X213670840Y-101928401D01*
X213628177Y-101873073D01*
X213622198Y-101803459D01*
X213654804Y-101741665D01*
X213709133Y-101709009D01*
X213750799Y-101696903D01*
X213837398Y-101671744D01*
X213978865Y-101588081D01*
X214095081Y-101471865D01*
X214178744Y-101330398D01*
X214223382Y-101176754D01*
X214224597Y-101172573D01*
X214224598Y-101172567D01*
X214225063Y-101166660D01*
X214227500Y-101135694D01*
X214227500Y-99804306D01*
X214224598Y-99767431D01*
X214213879Y-99730538D01*
X214185248Y-99631990D01*
X214178744Y-99609602D01*
X214095081Y-99468135D01*
X214095079Y-99468133D01*
X214095076Y-99468129D01*
X213978870Y-99351923D01*
X213978862Y-99351917D01*
X213858054Y-99280472D01*
X213837398Y-99268256D01*
X213837397Y-99268255D01*
X213837396Y-99268255D01*
X213837393Y-99268254D01*
X213679573Y-99222402D01*
X213679567Y-99222401D01*
X213642701Y-99219500D01*
X213642694Y-99219500D01*
X212061306Y-99219500D01*
X212061298Y-99219500D01*
X212024432Y-99222401D01*
X212024426Y-99222402D01*
X211866606Y-99268254D01*
X211866603Y-99268255D01*
X211725137Y-99351917D01*
X211725129Y-99351923D01*
X211608923Y-99468129D01*
X211608917Y-99468137D01*
X211525255Y-99609603D01*
X211525254Y-99609606D01*
X211479402Y-99767426D01*
X211479401Y-99767432D01*
X211476500Y-99804298D01*
X211476500Y-101135701D01*
X211479401Y-101172567D01*
X211479402Y-101172573D01*
X211525254Y-101330393D01*
X211525255Y-101330396D01*
X211525256Y-101330398D01*
X211560247Y-101389565D01*
X211608917Y-101471862D01*
X211608923Y-101471870D01*
X211725129Y-101588076D01*
X211725133Y-101588079D01*
X211725135Y-101588081D01*
X211866602Y-101671744D01*
X211897620Y-101680755D01*
X211994866Y-101709009D01*
X212053752Y-101746615D01*
X212082958Y-101810088D01*
X212073212Y-101879274D01*
X212033157Y-101928403D01*
X211912352Y-102016173D01*
X211773174Y-102155351D01*
X211773174Y-102155352D01*
X211773172Y-102155354D01*
X211734298Y-102208859D01*
X211657476Y-102314594D01*
X211568117Y-102489970D01*
X211507290Y-102677173D01*
X211476500Y-102871577D01*
X211476500Y-103068422D01*
X211507290Y-103262826D01*
X211568117Y-103450029D01*
X211644532Y-103600001D01*
X211657476Y-103625405D01*
X211773172Y-103784646D01*
X211912354Y-103923828D01*
X212071595Y-104039524D01*
X212139673Y-104074211D01*
X212208960Y-104109515D01*
X212259756Y-104157490D01*
X212276551Y-104225311D01*
X212254014Y-104291446D01*
X212208960Y-104330485D01*
X212071594Y-104400476D01*
X211980741Y-104466485D01*
X211912354Y-104516172D01*
X211912352Y-104516174D01*
X211912351Y-104516174D01*
X211773174Y-104655351D01*
X211773174Y-104655352D01*
X211773172Y-104655354D01*
X211767065Y-104663760D01*
X211657476Y-104814594D01*
X211568117Y-104989970D01*
X211507290Y-105177173D01*
X211476500Y-105371577D01*
X211476500Y-105568422D01*
X211507290Y-105762826D01*
X211568117Y-105950029D01*
X211640288Y-106091672D01*
X211657476Y-106125405D01*
X211773172Y-106284646D01*
X211912354Y-106423828D01*
X212071595Y-106539524D01*
X212071598Y-106539526D01*
X212099375Y-106553679D01*
X212150172Y-106601652D01*
X212166968Y-106669473D01*
X212144432Y-106735608D01*
X212099378Y-106774648D01*
X212019444Y-106815377D01*
X211847540Y-106940272D01*
X211847535Y-106940276D01*
X211697276Y-107090535D01*
X211697272Y-107090540D01*
X211572379Y-107262442D01*
X211475904Y-107451782D01*
X211410242Y-107653870D01*
X211410242Y-107653873D01*
X211399769Y-107720000D01*
X212447854Y-107720000D01*
X212409370Y-107786657D01*
X212377000Y-107907465D01*
X212377000Y-108032535D01*
X212409370Y-108153343D01*
X212447854Y-108220000D01*
X211399769Y-108220000D01*
X209502392Y-108220000D01*
X209495896Y-108187341D01*
X209495893Y-108187332D01*
X209428016Y-108023459D01*
X209428009Y-108023446D01*
X209329464Y-107875965D01*
X209329461Y-107875961D01*
X209204038Y-107750538D01*
X209204034Y-107750535D01*
X209063506Y-107656637D01*
X209044716Y-107641216D01*
X206266819Y-104863319D01*
X206233334Y-104801996D01*
X206230500Y-104775638D01*
X206230500Y-100341306D01*
X206230499Y-100341304D01*
X206195896Y-100167341D01*
X206195893Y-100167332D01*
X206128016Y-100003459D01*
X206128009Y-100003446D01*
X206029464Y-99855965D01*
X206029461Y-99855961D01*
X205904038Y-99730538D01*
X205904034Y-99730535D01*
X205756553Y-99631990D01*
X205756540Y-99631983D01*
X205592667Y-99564106D01*
X205592658Y-99564103D01*
X205418694Y-99529500D01*
X205418691Y-99529500D01*
X205241309Y-99529500D01*
X205241306Y-99529500D01*
X205067341Y-99564103D01*
X205067332Y-99564106D01*
X204903459Y-99631983D01*
X204903446Y-99631990D01*
X204755965Y-99730535D01*
X204755961Y-99730538D01*
X204630538Y-99855961D01*
X204630535Y-99855965D01*
X204531990Y-100003446D01*
X204531983Y-100003459D01*
X204464106Y-100167332D01*
X204464103Y-100167341D01*
X204429500Y-100341304D01*
X204429500Y-105288696D01*
X198605538Y-105288696D01*
X199624030Y-104270204D01*
X199670754Y-104240846D01*
X199799522Y-104195789D01*
X199952262Y-104099816D01*
X200079816Y-103972262D01*
X200175789Y-103819522D01*
X200235368Y-103649255D01*
X200235853Y-103644953D01*
X200255565Y-103470003D01*
X200255565Y-103469996D01*
X200235369Y-103290750D01*
X200235368Y-103290745D01*
X200211173Y-103221600D01*
X200175789Y-103120478D01*
X200161500Y-103097738D01*
X200104989Y-103007801D01*
X200079816Y-102967738D01*
X199952262Y-102840184D01*
X199799523Y-102744211D01*
X199629254Y-102684631D01*
X199629249Y-102684630D01*
X199450004Y-102664435D01*
X199449996Y-102664435D01*
X199270750Y-102684630D01*
X199270745Y-102684631D01*
X199100476Y-102744211D01*
X198947737Y-102840184D01*
X198820184Y-102967737D01*
X198724211Y-103120476D01*
X198664631Y-103290745D01*
X198664630Y-103290750D01*
X198644435Y-103469995D01*
X198644435Y-103469996D01*
X198644435Y-103470000D01*
X198645985Y-103483754D01*
X198633929Y-103552576D01*
X198610445Y-103585317D01*
X195202584Y-106993181D01*
X195141261Y-107026666D01*
X195114903Y-107029500D01*
X190030942Y-107029500D01*
X189878213Y-107070423D01*
X189839648Y-107092690D01*
X189839647Y-107092690D01*
X189741287Y-107149477D01*
X189741282Y-107149481D01*
X189670019Y-107220745D01*
X189629480Y-107261284D01*
X189629478Y-107261286D01*
X188780241Y-108110524D01*
X187957584Y-108933181D01*
X187896261Y-108966666D01*
X187869903Y-108969500D01*
X182276670Y-108969500D01*
X182276654Y-108969499D01*
X182269058Y-108969499D01*
X182110943Y-108969499D01*
X181958215Y-109010423D01*
X181837114Y-109080341D01*
X181821281Y-109089482D01*
X177745584Y-113165181D01*
X177684261Y-113198666D01*
X177657903Y-113201500D01*
X172766097Y-113201500D01*
X172699058Y-113181815D01*
X172678416Y-113165181D01*
X169517926Y-110004691D01*
X169484441Y-109943368D01*
X169481607Y-109917010D01*
X169481607Y-109895519D01*
X169501292Y-109828480D01*
X169508662Y-109818204D01*
X169510917Y-109815374D01*
X169510923Y-109815369D01*
X169606896Y-109662629D01*
X169666475Y-109492362D01*
X169666476Y-109492356D01*
X169686672Y-109313110D01*
X169686672Y-109313103D01*
X169666476Y-109133857D01*
X169666475Y-109133852D01*
X169650949Y-109089482D01*
X169606896Y-108963585D01*
X169598660Y-108950478D01*
X169567689Y-108901187D01*
X169510923Y-108810845D01*
X169383369Y-108683291D01*
X169357113Y-108666793D01*
X169230628Y-108587317D01*
X169060356Y-108527737D01*
X168973438Y-108517944D01*
X168909024Y-108490877D01*
X168899641Y-108482405D01*
X168517736Y-108100500D01*
X168115313Y-107698078D01*
X168081829Y-107636756D01*
X168083730Y-107576460D01*
X168089115Y-107557536D01*
X168109643Y-107336000D01*
X168089115Y-107114464D01*
X168028229Y-106900472D01*
X168026868Y-106897738D01*
X167929061Y-106701316D01*
X167929056Y-106701308D01*
X167794979Y-106523761D01*
X167630562Y-106373876D01*
X167630560Y-106373874D01*
X167441404Y-106256754D01*
X167441395Y-106256750D01*
X167331533Y-106214190D01*
X167247475Y-106181625D01*
X167192075Y-106139054D01*
X167168484Y-106073288D01*
X167184195Y-106005207D01*
X167234219Y-105956428D01*
X167247466Y-105950377D01*
X167441401Y-105875247D01*
X167630562Y-105758124D01*
X167794981Y-105608236D01*
X167929058Y-105430689D01*
X168028229Y-105231528D01*
X168089115Y-105017536D01*
X168109643Y-104796000D01*
X168093403Y-104620745D01*
X168089115Y-104574464D01*
X168089114Y-104574462D01*
X168082919Y-104552690D01*
X168028229Y-104360472D01*
X168028224Y-104360461D01*
X167929061Y-104161316D01*
X167929056Y-104161308D01*
X167794979Y-103983761D01*
X167630562Y-103833876D01*
X167630560Y-103833874D01*
X167441404Y-103716754D01*
X167441395Y-103716750D01*
X167343536Y-103678840D01*
X167247475Y-103641625D01*
X167192075Y-103599054D01*
X167168484Y-103533288D01*
X167184195Y-103465207D01*
X167234219Y-103416428D01*
X167247466Y-103410377D01*
X167441401Y-103335247D01*
X167630562Y-103218124D01*
X167794777Y-103068422D01*
X167794979Y-103068238D01*
X167846087Y-103000561D01*
X167929058Y-102890689D01*
X168028229Y-102691528D01*
X168089115Y-102477536D01*
X168109643Y-102256000D01*
X168089115Y-102034464D01*
X168028229Y-101820472D01*
X168028224Y-101820461D01*
X167929061Y-101621316D01*
X167929056Y-101621308D01*
X167794979Y-101443761D01*
X167630562Y-101293876D01*
X167630560Y-101293874D01*
X167441404Y-101176754D01*
X167441395Y-101176750D01*
X167335395Y-101135686D01*
X167247475Y-101101625D01*
X167192075Y-101059054D01*
X167168484Y-100993288D01*
X167184195Y-100925207D01*
X167234219Y-100876428D01*
X167247466Y-100870377D01*
X167441401Y-100795247D01*
X167630562Y-100678124D01*
X167733808Y-100584003D01*
X176994435Y-100584003D01*
X177014630Y-100763249D01*
X177014631Y-100763254D01*
X177074211Y-100933523D01*
X177132899Y-101026923D01*
X177170184Y-101086262D01*
X177297738Y-101213816D01*
X177334185Y-101236717D01*
X177425152Y-101293876D01*
X177450478Y-101309789D01*
X177544264Y-101342606D01*
X177620745Y-101369368D01*
X177620750Y-101369369D01*
X177799996Y-101389565D01*
X177800000Y-101389565D01*
X177800004Y-101389565D01*
X177979249Y-101369369D01*
X177979252Y-101369368D01*
X177979255Y-101369368D01*
X178149522Y-101309789D01*
X178302262Y-101213816D01*
X178429816Y-101086262D01*
X178525789Y-100933522D01*
X178585368Y-100763255D01*
X178585983Y-100757801D01*
X178605565Y-100584003D01*
X178605565Y-100583996D01*
X178585369Y-100404750D01*
X178585368Y-100404745D01*
X178557739Y-100325787D01*
X178525789Y-100234478D01*
X178429816Y-100081738D01*
X178302262Y-99954184D01*
X178294844Y-99949523D01*
X178149523Y-99858211D01*
X177979254Y-99798631D01*
X177979249Y-99798630D01*
X177800004Y-99778435D01*
X177799996Y-99778435D01*
X177620750Y-99798630D01*
X177620745Y-99798631D01*
X177450476Y-99858211D01*
X177297737Y-99954184D01*
X177170184Y-100081737D01*
X177074211Y-100234476D01*
X177014631Y-100404745D01*
X177014630Y-100404750D01*
X176994435Y-100583996D01*
X176994435Y-100584003D01*
X167733808Y-100584003D01*
X167794981Y-100528236D01*
X167929058Y-100350689D01*
X168028229Y-100151528D01*
X168089115Y-99937536D01*
X168109643Y-99716000D01*
X168101858Y-99631990D01*
X168089115Y-99494464D01*
X168089114Y-99494462D01*
X168082919Y-99472690D01*
X168028229Y-99280472D01*
X168026893Y-99277788D01*
X167929061Y-99081316D01*
X167929056Y-99081308D01*
X167794979Y-98903761D01*
X167630562Y-98753876D01*
X167630560Y-98753874D01*
X167441404Y-98636754D01*
X167441395Y-98636750D01*
X167347956Y-98600552D01*
X167247475Y-98561625D01*
X167192075Y-98519054D01*
X167168484Y-98453288D01*
X167184195Y-98385207D01*
X167234219Y-98336428D01*
X167247466Y-98330377D01*
X167441401Y-98255247D01*
X167630562Y-98138124D01*
X167794981Y-97988236D01*
X167929058Y-97810689D01*
X168028229Y-97611528D01*
X168089115Y-97397536D01*
X168109643Y-97176000D01*
X168108766Y-97166540D01*
X168089115Y-96954464D01*
X168089114Y-96954462D01*
X168082919Y-96932690D01*
X168053330Y-96828695D01*
X180739500Y-96828695D01*
X180774103Y-97002658D01*
X180774106Y-97002667D01*
X180841983Y-97166540D01*
X180841990Y-97166553D01*
X180940535Y-97314034D01*
X180940538Y-97314038D01*
X181065961Y-97439461D01*
X181065965Y-97439464D01*
X181213446Y-97538009D01*
X181213459Y-97538016D01*
X181336363Y-97588923D01*
X181377334Y-97605894D01*
X181377336Y-97605894D01*
X181377341Y-97605896D01*
X181551304Y-97640499D01*
X181551307Y-97640500D01*
X181551309Y-97640500D01*
X194963890Y-97640500D01*
X195030929Y-97660185D01*
X195048847Y-97674177D01*
X198298362Y-100730652D01*
X198333708Y-100790922D01*
X198334996Y-100796654D01*
X198344378Y-100843559D01*
X198344379Y-100843564D01*
X198344381Y-100843571D01*
X198344384Y-100843578D01*
X198412433Y-101007380D01*
X198412434Y-101007381D01*
X198511137Y-101154767D01*
X198636697Y-101280064D01*
X198784289Y-101378458D01*
X198948239Y-101446169D01*
X198948238Y-101446169D01*
X198967338Y-101449947D01*
X199122251Y-101480592D01*
X199299634Y-101480407D01*
X199502630Y-101439806D01*
X199523162Y-101437457D01*
X199526204Y-101437364D01*
X199597925Y-101420801D01*
X199601403Y-101420052D01*
X199673571Y-101405619D01*
X199676379Y-101404452D01*
X199696069Y-101398137D01*
X199699038Y-101397452D01*
X199766150Y-101367214D01*
X199769429Y-101365795D01*
X199814672Y-101347000D01*
X199837370Y-101337571D01*
X199837373Y-101337569D01*
X199837381Y-101337566D01*
X199839917Y-101335867D01*
X199857994Y-101325835D01*
X199859093Y-101325339D01*
X199860764Y-101324587D01*
X199885776Y-101306743D01*
X199920642Y-101281871D01*
X199923660Y-101279785D01*
X199984758Y-101238869D01*
X199984757Y-101238869D01*
X199984767Y-101238863D01*
X199986920Y-101236704D01*
X200002688Y-101223341D01*
X200005169Y-101221572D01*
X200055589Y-101167966D01*
X200058055Y-101165419D01*
X200110064Y-101113303D01*
X200111751Y-101110771D01*
X200124618Y-101094577D01*
X200126700Y-101092365D01*
X200165701Y-101029940D01*
X200167629Y-101026955D01*
X200208459Y-100965711D01*
X200209622Y-100962893D01*
X200219080Y-100944504D01*
X200220690Y-100941929D01*
X200246758Y-100873110D01*
X200248062Y-100869814D01*
X200276169Y-100801760D01*
X200276760Y-100798769D01*
X200282448Y-100778894D01*
X200283526Y-100776049D01*
X200295664Y-100703480D01*
X200296314Y-100699919D01*
X200310592Y-100627749D01*
X200310588Y-100624696D01*
X200312289Y-100604103D01*
X200312792Y-100601097D01*
X200310540Y-100527586D01*
X200310483Y-100523926D01*
X200310407Y-100450370D01*
X200310407Y-100450366D01*
X200309807Y-100447366D01*
X200307457Y-100426836D01*
X200307364Y-100423797D01*
X200307364Y-100423796D01*
X200290819Y-100352150D01*
X200290047Y-100348568D01*
X200285491Y-100325787D01*
X200275619Y-100276429D01*
X200274449Y-100273614D01*
X200268138Y-100253936D01*
X200267452Y-100250962D01*
X200267066Y-100250105D01*
X200237230Y-100183882D01*
X200235774Y-100180518D01*
X200207567Y-100112620D01*
X200205868Y-100110084D01*
X200195839Y-100092015D01*
X200194588Y-100089238D01*
X200181035Y-100070240D01*
X200151868Y-100029353D01*
X200149839Y-100026418D01*
X200108864Y-99965233D01*
X200108859Y-99965228D01*
X200106695Y-99963068D01*
X200093341Y-99947311D01*
X200091643Y-99944931D01*
X200091572Y-99944831D01*
X200037983Y-99894426D01*
X200035360Y-99891883D01*
X199983310Y-99839941D01*
X199983298Y-99839931D01*
X199980751Y-99838233D01*
X199964586Y-99825388D01*
X195998383Y-96094802D01*
X195995659Y-96092160D01*
X195944037Y-96040538D01*
X195944033Y-96040535D01*
X195941051Y-96038542D01*
X195924982Y-96025761D01*
X195922367Y-96023302D01*
X195922365Y-96023300D01*
X195860465Y-95984626D01*
X195857279Y-95982567D01*
X195818831Y-95956877D01*
X195796547Y-95941987D01*
X195796544Y-95941985D01*
X195796543Y-95941985D01*
X195793212Y-95940605D01*
X195774975Y-95931212D01*
X195771941Y-95929317D01*
X195771937Y-95929315D01*
X195771929Y-95929310D01*
X195718362Y-95909018D01*
X195703646Y-95903444D01*
X195700121Y-95902046D01*
X195632668Y-95874106D01*
X195632659Y-95874104D01*
X195629136Y-95873403D01*
X195609419Y-95867750D01*
X195606049Y-95866474D01*
X195606048Y-95866473D01*
X195606046Y-95866473D01*
X195534005Y-95854422D01*
X195530273Y-95853738D01*
X195458694Y-95839500D01*
X195458691Y-95839500D01*
X195455100Y-95839500D01*
X195434642Y-95837801D01*
X195431098Y-95837208D01*
X195431097Y-95837208D01*
X195358126Y-95839442D01*
X195354332Y-95839500D01*
X181551306Y-95839500D01*
X181377341Y-95874103D01*
X181377332Y-95874106D01*
X181213459Y-95941983D01*
X181213446Y-95941990D01*
X181065965Y-96040535D01*
X181065961Y-96040538D01*
X180940538Y-96165961D01*
X180940535Y-96165965D01*
X180841990Y-96313446D01*
X180841983Y-96313459D01*
X180774106Y-96477332D01*
X180774103Y-96477341D01*
X180739500Y-96651304D01*
X180739500Y-96828695D01*
X168053330Y-96828695D01*
X168028229Y-96740472D01*
X168028224Y-96740461D01*
X167929061Y-96541316D01*
X167929056Y-96541308D01*
X167794979Y-96363761D01*
X167630562Y-96213876D01*
X167630560Y-96213874D01*
X167441404Y-96096754D01*
X167441395Y-96096750D01*
X167388224Y-96076152D01*
X167332822Y-96033579D01*
X167309231Y-95967813D01*
X167324942Y-95899732D01*
X167374966Y-95850953D01*
X167380613Y-95848143D01*
X167556479Y-95766135D01*
X167556481Y-95766134D01*
X167742820Y-95635657D01*
X167903657Y-95474820D01*
X168034134Y-95288482D01*
X168130265Y-95082326D01*
X168130269Y-95082317D01*
X168182872Y-94886000D01*
X167219686Y-94886000D01*
X167224080Y-94881606D01*
X167276741Y-94790394D01*
X167304000Y-94688661D01*
X167304000Y-94583339D01*
X167276741Y-94481606D01*
X167224080Y-94390394D01*
X167219686Y-94386000D01*
X168182872Y-94386000D01*
X168182872Y-94385999D01*
X168130269Y-94189682D01*
X168130265Y-94189673D01*
X168034134Y-93983517D01*
X168031671Y-93980000D01*
X171564571Y-93980000D01*
X171584244Y-94192310D01*
X171639856Y-94387764D01*
X171642596Y-94397392D01*
X171642596Y-94397394D01*
X171737632Y-94588253D01*
X171827051Y-94706661D01*
X171866128Y-94758407D01*
X172023698Y-94902052D01*
X172204981Y-95014298D01*
X172403802Y-95091321D01*
X172613390Y-95130500D01*
X172613392Y-95130500D01*
X172826608Y-95130500D01*
X172826610Y-95130500D01*
X173036198Y-95091321D01*
X173235019Y-95014298D01*
X173416302Y-94902052D01*
X173573872Y-94758407D01*
X173702366Y-94588255D01*
X173705459Y-94582043D01*
X173797403Y-94397394D01*
X173797403Y-94397393D01*
X173797405Y-94397389D01*
X173855756Y-94192310D01*
X173875429Y-93980000D01*
X173855756Y-93767690D01*
X173797405Y-93562611D01*
X173797403Y-93562606D01*
X173797403Y-93562605D01*
X173702367Y-93371746D01*
X173573872Y-93201593D01*
X173513253Y-93146331D01*
X173416302Y-93057948D01*
X173235019Y-92945702D01*
X173235017Y-92945701D01*
X173135608Y-92907190D01*
X173036198Y-92868679D01*
X172826610Y-92829500D01*
X172613390Y-92829500D01*
X172403802Y-92868679D01*
X172403799Y-92868679D01*
X172403799Y-92868680D01*
X172204982Y-92945701D01*
X172204980Y-92945702D01*
X172023699Y-93057947D01*
X171866127Y-93201593D01*
X171737632Y-93371746D01*
X171642596Y-93562605D01*
X171642596Y-93562607D01*
X171584244Y-93767689D01*
X171570982Y-93910818D01*
X171564571Y-93980000D01*
X168031671Y-93980000D01*
X167903657Y-93797179D01*
X167742820Y-93636342D01*
X167556482Y-93505865D01*
X167380612Y-93423856D01*
X167328173Y-93377684D01*
X167309021Y-93310490D01*
X167329237Y-93243609D01*
X167382402Y-93198274D01*
X167388206Y-93195854D01*
X167415440Y-93185304D01*
X167441392Y-93175251D01*
X167441396Y-93175248D01*
X167441401Y-93175247D01*
X167630562Y-93058124D01*
X167781313Y-92920696D01*
X167794979Y-92908238D01*
X167835641Y-92854394D01*
X167929058Y-92730689D01*
X167944338Y-92700002D01*
X175795034Y-92700002D01*
X175814858Y-92926599D01*
X175814860Y-92926610D01*
X175873730Y-93146317D01*
X175873735Y-93146331D01*
X175969863Y-93352478D01*
X176020974Y-93425472D01*
X176700000Y-92746446D01*
X176700000Y-92752661D01*
X176727259Y-92854394D01*
X176779920Y-92945606D01*
X176854394Y-93020080D01*
X176945606Y-93072741D01*
X177047339Y-93100000D01*
X177053553Y-93100000D01*
X176374526Y-93779025D01*
X176447513Y-93830132D01*
X176447521Y-93830136D01*
X176576531Y-93890294D01*
X176628971Y-93936466D01*
X176648123Y-94003659D01*
X176627908Y-94070540D01*
X176574743Y-94115875D01*
X176568928Y-94118300D01*
X176562607Y-94120748D01*
X176562595Y-94120754D01*
X176373439Y-94237874D01*
X176373437Y-94237876D01*
X176209020Y-94387761D01*
X176074943Y-94565308D01*
X176074938Y-94565316D01*
X175975775Y-94764461D01*
X175975769Y-94764476D01*
X175914885Y-94978462D01*
X175914884Y-94978464D01*
X175894357Y-95199999D01*
X175894357Y-95200000D01*
X175914884Y-95421535D01*
X175914885Y-95421537D01*
X175975769Y-95635523D01*
X175975775Y-95635538D01*
X176074938Y-95834683D01*
X176074943Y-95834691D01*
X176209020Y-96012238D01*
X176373437Y-96162123D01*
X176373439Y-96162125D01*
X176562595Y-96279245D01*
X176562596Y-96279245D01*
X176562599Y-96279247D01*
X176770060Y-96359618D01*
X176988757Y-96400500D01*
X176988759Y-96400500D01*
X177211241Y-96400500D01*
X177211243Y-96400500D01*
X177429940Y-96359618D01*
X177637401Y-96279247D01*
X177826562Y-96162124D01*
X177990981Y-96012236D01*
X178125058Y-95834689D01*
X178224229Y-95635528D01*
X178285115Y-95421536D01*
X178305643Y-95200000D01*
X178285115Y-94978464D01*
X178224229Y-94764472D01*
X178224224Y-94764461D01*
X178125061Y-94565316D01*
X178125056Y-94565308D01*
X177990979Y-94387761D01*
X177826562Y-94237876D01*
X177826560Y-94237874D01*
X177637404Y-94120754D01*
X177637389Y-94120747D01*
X177631075Y-94118301D01*
X177575674Y-94075727D01*
X177552086Y-94009959D01*
X177567799Y-93941879D01*
X177617824Y-93893102D01*
X177623468Y-93890293D01*
X177752482Y-93830133D01*
X177825471Y-93779024D01*
X177146447Y-93100000D01*
X177152661Y-93100000D01*
X177254394Y-93072741D01*
X177345606Y-93020080D01*
X177420080Y-92945606D01*
X177472741Y-92854394D01*
X177500000Y-92752661D01*
X177500000Y-92746447D01*
X178179024Y-93425471D01*
X178230136Y-93352478D01*
X178326264Y-93146331D01*
X178326269Y-93146317D01*
X178385139Y-92926610D01*
X178385141Y-92926599D01*
X178404966Y-92700002D01*
X178404966Y-92699997D01*
X178385141Y-92473400D01*
X178385139Y-92473389D01*
X178326269Y-92253682D01*
X178326264Y-92253668D01*
X178230136Y-92047521D01*
X178230132Y-92047513D01*
X178179025Y-91974526D01*
X177500000Y-92653551D01*
X177500000Y-92647339D01*
X177472741Y-92545606D01*
X177420080Y-92454394D01*
X177345606Y-92379920D01*
X177254394Y-92327259D01*
X177152661Y-92300000D01*
X177146448Y-92300000D01*
X177825472Y-91620974D01*
X177825472Y-91620973D01*
X177797766Y-91601573D01*
X177754141Y-91546996D01*
X177746949Y-91477498D01*
X177778472Y-91415143D01*
X177797766Y-91398425D01*
X177825471Y-91379024D01*
X177146447Y-90700000D01*
X177152661Y-90700000D01*
X177254394Y-90672741D01*
X177345606Y-90620080D01*
X177420080Y-90545606D01*
X177472741Y-90454394D01*
X177500000Y-90352661D01*
X177500000Y-90346447D01*
X178179024Y-91025471D01*
X178230136Y-90952478D01*
X178326264Y-90746331D01*
X178326269Y-90746317D01*
X178385139Y-90526610D01*
X178385141Y-90526599D01*
X178404966Y-90300002D01*
X178404966Y-90299997D01*
X178385141Y-90073400D01*
X178385139Y-90073389D01*
X178326269Y-89853682D01*
X178326264Y-89853668D01*
X178230136Y-89647521D01*
X178230132Y-89647513D01*
X178179025Y-89574526D01*
X177500000Y-90253551D01*
X177500000Y-90247339D01*
X177472741Y-90145606D01*
X177420080Y-90054394D01*
X177345606Y-89979920D01*
X177254394Y-89927259D01*
X177152661Y-89900000D01*
X177146448Y-89900000D01*
X177825472Y-89220974D01*
X177752478Y-89169863D01*
X177623468Y-89109705D01*
X177571028Y-89063533D01*
X177551876Y-88996340D01*
X177572092Y-88929458D01*
X177625257Y-88884124D01*
X177631062Y-88881702D01*
X177637401Y-88879247D01*
X177826562Y-88762124D01*
X177990981Y-88612236D01*
X178125058Y-88434689D01*
X178224229Y-88235528D01*
X178285115Y-88021536D01*
X178305643Y-87800000D01*
X178285115Y-87578464D01*
X178224229Y-87364472D01*
X178206935Y-87329741D01*
X178125061Y-87165316D01*
X178125056Y-87165308D01*
X177990979Y-86987761D01*
X177826562Y-86837876D01*
X177826560Y-86837874D01*
X177637404Y-86720754D01*
X177637398Y-86720752D01*
X177429940Y-86640382D01*
X177211243Y-86599500D01*
X176988757Y-86599500D01*
X176770060Y-86640382D01*
X176638864Y-86691207D01*
X176562601Y-86720752D01*
X176562595Y-86720754D01*
X176373439Y-86837874D01*
X176373437Y-86837876D01*
X176209020Y-86987761D01*
X176074943Y-87165308D01*
X176074938Y-87165316D01*
X175975775Y-87364461D01*
X175975769Y-87364476D01*
X175914885Y-87578462D01*
X175914884Y-87578464D01*
X175894357Y-87799999D01*
X175894357Y-87800000D01*
X175914884Y-88021535D01*
X175914885Y-88021537D01*
X175975769Y-88235523D01*
X175975775Y-88235538D01*
X176074938Y-88434683D01*
X176074943Y-88434691D01*
X176209020Y-88612238D01*
X176373437Y-88762123D01*
X176373439Y-88762125D01*
X176562595Y-88879245D01*
X176562607Y-88879251D01*
X176568919Y-88881696D01*
X176624321Y-88924268D01*
X176647913Y-88990034D01*
X176632203Y-89058115D01*
X176582180Y-89106894D01*
X176576532Y-89109705D01*
X176447516Y-89169866D01*
X176447512Y-89169868D01*
X176374526Y-89220973D01*
X176374526Y-89220974D01*
X177053553Y-89900000D01*
X177047339Y-89900000D01*
X176945606Y-89927259D01*
X176854394Y-89979920D01*
X176779920Y-90054394D01*
X176727259Y-90145606D01*
X176700000Y-90247339D01*
X176700000Y-90253552D01*
X176020974Y-89574526D01*
X176020973Y-89574526D01*
X175969868Y-89647512D01*
X175969866Y-89647516D01*
X175873734Y-89853673D01*
X175873730Y-89853682D01*
X175814860Y-90073389D01*
X175814858Y-90073400D01*
X175795034Y-90299997D01*
X175795034Y-90300002D01*
X175814858Y-90526599D01*
X175814860Y-90526610D01*
X175873730Y-90746317D01*
X175873735Y-90746331D01*
X175969863Y-90952478D01*
X176020974Y-91025472D01*
X176700000Y-90346446D01*
X176700000Y-90352661D01*
X176727259Y-90454394D01*
X176779920Y-90545606D01*
X176854394Y-90620080D01*
X176945606Y-90672741D01*
X177047339Y-90700000D01*
X177053553Y-90700000D01*
X176374527Y-91379024D01*
X176402232Y-91398424D01*
X176445857Y-91453001D01*
X176453049Y-91522500D01*
X176421527Y-91584854D01*
X176402232Y-91601574D01*
X176374526Y-91620973D01*
X176374526Y-91620974D01*
X177053553Y-92300000D01*
X177047339Y-92300000D01*
X176945606Y-92327259D01*
X176854394Y-92379920D01*
X176779920Y-92454394D01*
X176727259Y-92545606D01*
X176700000Y-92647339D01*
X176700000Y-92653552D01*
X176020974Y-91974526D01*
X176020973Y-91974526D01*
X175969868Y-92047512D01*
X175969866Y-92047516D01*
X175873734Y-92253673D01*
X175873730Y-92253682D01*
X175814860Y-92473389D01*
X175814858Y-92473400D01*
X175795034Y-92699997D01*
X175795034Y-92700002D01*
X167944338Y-92700002D01*
X168028229Y-92531528D01*
X168089115Y-92317536D01*
X168109643Y-92096000D01*
X168105063Y-92046578D01*
X168089115Y-91874464D01*
X168089114Y-91874462D01*
X168082919Y-91852690D01*
X168028229Y-91660472D01*
X168012322Y-91628526D01*
X167929061Y-91461316D01*
X167929056Y-91461308D01*
X167794979Y-91283761D01*
X167630562Y-91133876D01*
X167630560Y-91133874D01*
X167441404Y-91016754D01*
X167441395Y-91016750D01*
X167330594Y-90973826D01*
X167247475Y-90941625D01*
X167192075Y-90899054D01*
X167168484Y-90833288D01*
X167184195Y-90765207D01*
X167234219Y-90716428D01*
X167247466Y-90710377D01*
X167441401Y-90635247D01*
X167630562Y-90518124D01*
X167794981Y-90368236D01*
X167929058Y-90190689D01*
X168028229Y-89991528D01*
X168089115Y-89777536D01*
X168109643Y-89556000D01*
X168104212Y-89497394D01*
X168089115Y-89334464D01*
X168089114Y-89334462D01*
X168082919Y-89312690D01*
X168028229Y-89120472D01*
X168021468Y-89106894D01*
X168008076Y-89080000D01*
X171564571Y-89080000D01*
X171584244Y-89292310D01*
X171596237Y-89334462D01*
X171642596Y-89497392D01*
X171642596Y-89497394D01*
X171737632Y-89688253D01*
X171862549Y-89853668D01*
X171866128Y-89858407D01*
X172023698Y-90002052D01*
X172204981Y-90114298D01*
X172403802Y-90191321D01*
X172613390Y-90230500D01*
X172613392Y-90230500D01*
X172826608Y-90230500D01*
X172826610Y-90230500D01*
X173036198Y-90191321D01*
X173235019Y-90114298D01*
X173416302Y-90002052D01*
X173573872Y-89858407D01*
X173702366Y-89688255D01*
X173709212Y-89674507D01*
X173797403Y-89497394D01*
X173797403Y-89497393D01*
X173797405Y-89497389D01*
X173855756Y-89292310D01*
X173875429Y-89080000D01*
X173855756Y-88867690D01*
X173797405Y-88662611D01*
X173797403Y-88662606D01*
X173797403Y-88662605D01*
X173702367Y-88471746D01*
X173573872Y-88301593D01*
X173513460Y-88246520D01*
X173416302Y-88157948D01*
X173235019Y-88045702D01*
X173235017Y-88045701D01*
X173060581Y-87978125D01*
X173036198Y-87968679D01*
X172826610Y-87929500D01*
X172613390Y-87929500D01*
X172403802Y-87968679D01*
X172403799Y-87968679D01*
X172403799Y-87968680D01*
X172204982Y-88045701D01*
X172204980Y-88045702D01*
X172023699Y-88157947D01*
X171866127Y-88301593D01*
X171737632Y-88471746D01*
X171642596Y-88662605D01*
X171642596Y-88662607D01*
X171584244Y-88867689D01*
X171575909Y-88957646D01*
X171564571Y-89080000D01*
X168008076Y-89080000D01*
X167929061Y-88921316D01*
X167929056Y-88921308D01*
X167794979Y-88743761D01*
X167630562Y-88593876D01*
X167630560Y-88593874D01*
X167441404Y-88476754D01*
X167441395Y-88476750D01*
X167347956Y-88440552D01*
X167247475Y-88401625D01*
X167192075Y-88359054D01*
X167168484Y-88293288D01*
X167184195Y-88225207D01*
X167234219Y-88176428D01*
X167247466Y-88170377D01*
X167441401Y-88095247D01*
X167630562Y-87978124D01*
X167794981Y-87828236D01*
X167929058Y-87650689D01*
X168028229Y-87451528D01*
X168089115Y-87237536D01*
X168109643Y-87016000D01*
X168089115Y-86794464D01*
X168028229Y-86580472D01*
X168022113Y-86568189D01*
X167929061Y-86381316D01*
X167929056Y-86381308D01*
X167794979Y-86203761D01*
X167630562Y-86053876D01*
X167630560Y-86053874D01*
X167441404Y-85936754D01*
X167441395Y-85936750D01*
X167347956Y-85900552D01*
X167247475Y-85861625D01*
X167192075Y-85819054D01*
X167168484Y-85753288D01*
X167184195Y-85685207D01*
X167234219Y-85636428D01*
X167247466Y-85630377D01*
X167441401Y-85555247D01*
X167630562Y-85438124D01*
X167794981Y-85288236D01*
X167929058Y-85110689D01*
X168028229Y-84911528D01*
X168089115Y-84697536D01*
X168109643Y-84476000D01*
X168089115Y-84254464D01*
X168028229Y-84040472D01*
X168028224Y-84040461D01*
X167929061Y-83841316D01*
X167929056Y-83841308D01*
X167794979Y-83663761D01*
X167630562Y-83513876D01*
X167630560Y-83513874D01*
X167441404Y-83396754D01*
X167441395Y-83396750D01*
X167347956Y-83360552D01*
X167247475Y-83321625D01*
X167192075Y-83279054D01*
X167168484Y-83213288D01*
X167184195Y-83145207D01*
X167234219Y-83096428D01*
X167247466Y-83090377D01*
X167441401Y-83015247D01*
X167630562Y-82898124D01*
X167794981Y-82748236D01*
X167929058Y-82570689D01*
X168028229Y-82371528D01*
X168089115Y-82157536D01*
X168109643Y-81936000D01*
X168108229Y-81920745D01*
X168089115Y-81714464D01*
X168089114Y-81714462D01*
X168055903Y-81597738D01*
X168028229Y-81500472D01*
X168023686Y-81491348D01*
X167929061Y-81301316D01*
X167929056Y-81301308D01*
X167794979Y-81123761D01*
X167630562Y-80973876D01*
X167630560Y-80973874D01*
X167441404Y-80856754D01*
X167441395Y-80856750D01*
X167347956Y-80820552D01*
X167247475Y-80781625D01*
X167192075Y-80739054D01*
X167168484Y-80673288D01*
X167184195Y-80605207D01*
X167234219Y-80556428D01*
X167247466Y-80550377D01*
X167441401Y-80475247D01*
X167630562Y-80358124D01*
X167794981Y-80208236D01*
X167929058Y-80030689D01*
X168028229Y-79831528D01*
X168089115Y-79617536D01*
X168109643Y-79396000D01*
X168089115Y-79174464D01*
X168028229Y-78960472D01*
X168014546Y-78932993D01*
X167929061Y-78761316D01*
X167929056Y-78761308D01*
X167794979Y-78583761D01*
X167630562Y-78433876D01*
X167630560Y-78433874D01*
X167441404Y-78316754D01*
X167441398Y-78316752D01*
X167233940Y-78236382D01*
X167015243Y-78195500D01*
X166792757Y-78195500D01*
X166574060Y-78236382D01*
X166442864Y-78287207D01*
X166366601Y-78316752D01*
X166366595Y-78316754D01*
X166177439Y-78433874D01*
X166177437Y-78433876D01*
X166013020Y-78583761D01*
X165878943Y-78761308D01*
X165878938Y-78761316D01*
X165779775Y-78960461D01*
X165779769Y-78960476D01*
X165718885Y-79174462D01*
X165718884Y-79174464D01*
X165698357Y-79395999D01*
X165698357Y-79396000D01*
X165718884Y-79617531D01*
X165718884Y-79617533D01*
X165718885Y-79617536D01*
X165718885Y-79617537D01*
X165743389Y-79703657D01*
X165742801Y-79773524D01*
X165704534Y-79831983D01*
X165640737Y-79860473D01*
X165571664Y-79849948D01*
X165536441Y-79825272D01*
X162195575Y-76484406D01*
X162195573Y-76484403D01*
X162090666Y-76379496D01*
X162090661Y-76379492D01*
X161970840Y-76310313D01*
X161942592Y-76302743D01*
X161942591Y-76302743D01*
X161837183Y-76274499D01*
X161698817Y-76274499D01*
X161691221Y-76274499D01*
X161691205Y-76274500D01*
X158430816Y-76274500D01*
X158363989Y-76292405D01*
X158363990Y-76292406D01*
X158297162Y-76310312D01*
X158297161Y-76310313D01*
X158177338Y-76379492D01*
X158177333Y-76379496D01*
X154579496Y-79977333D01*
X154579492Y-79977338D01*
X154510311Y-80097163D01*
X154510312Y-80097163D01*
X154510312Y-80097164D01*
X154510312Y-80097165D01*
X154478136Y-80217246D01*
X154474499Y-80230818D01*
X154474499Y-80379172D01*
X154474500Y-80379185D01*
X154474500Y-87242060D01*
X154454815Y-87309099D01*
X154438181Y-87329741D01*
X154370184Y-87397737D01*
X154274211Y-87550476D01*
X154214631Y-87720745D01*
X154214630Y-87720750D01*
X154194435Y-87899996D01*
X154194435Y-87900003D01*
X152249238Y-87900003D01*
X142727590Y-78378355D01*
X142727588Y-78378352D01*
X142608717Y-78259481D01*
X142608709Y-78259475D01*
X142511235Y-78203199D01*
X142511233Y-78203198D01*
X142471790Y-78180425D01*
X142471789Y-78180424D01*
X142459263Y-78177067D01*
X142319057Y-78139499D01*
X142160943Y-78139499D01*
X142153347Y-78139499D01*
X142153331Y-78139500D01*
X138096493Y-78139500D01*
X138029454Y-78119815D01*
X138008812Y-78103181D01*
X130359486Y-70453855D01*
X130359484Y-70453852D01*
X130240613Y-70334981D01*
X130240612Y-70334980D01*
X130153800Y-70284860D01*
X130153800Y-70284859D01*
X130153796Y-70284858D01*
X130103681Y-70255923D01*
X129950953Y-70214999D01*
X129792839Y-70214999D01*
X129785243Y-70214999D01*
X129785227Y-70215000D01*
X127582412Y-70215000D01*
X127515373Y-70195315D01*
X127505097Y-70187945D01*
X127502263Y-70185685D01*
X127502262Y-70185684D01*
X127389182Y-70114631D01*
X127349523Y-70089711D01*
X127179254Y-70030131D01*
X127179249Y-70030130D01*
X127000004Y-70009935D01*
X126999996Y-70009935D01*
X126820750Y-70030130D01*
X126820745Y-70030131D01*
X126650476Y-70089711D01*
X126497737Y-70185684D01*
X126370184Y-70313237D01*
X126274211Y-70465976D01*
X126214631Y-70636245D01*
X126214630Y-70636250D01*
X126194435Y-70815496D01*
X126194435Y-70815503D01*
X126214630Y-70994749D01*
X126214631Y-70994754D01*
X126274211Y-71165023D01*
X126370184Y-71317762D01*
X126497738Y-71445316D01*
X126650478Y-71541289D01*
X126820745Y-71600868D01*
X126820750Y-71600869D01*
X126999996Y-71621065D01*
X127000000Y-71621065D01*
X127000004Y-71621065D01*
X127179249Y-71600869D01*
X127179252Y-71600868D01*
X127179255Y-71600868D01*
X127349522Y-71541289D01*
X127502262Y-71445316D01*
X127502267Y-71445310D01*
X127505097Y-71443055D01*
X127507275Y-71442165D01*
X127508158Y-71441611D01*
X127508255Y-71441765D01*
X127569783Y-71416645D01*
X127582412Y-71416000D01*
X129571799Y-71416000D01*
X129638838Y-71435685D01*
X129659480Y-71452319D01*
X137294980Y-79087819D01*
X137328465Y-79149142D01*
X137323481Y-79218834D01*
X137281609Y-79274767D01*
X137216145Y-79299184D01*
X137207299Y-79299500D01*
X111631004Y-79299500D01*
X111495677Y-79326418D01*
X111495667Y-79326421D01*
X111370629Y-79378213D01*
X111301159Y-79385682D01*
X111238680Y-79354406D01*
X111203029Y-79294317D01*
X111199957Y-79249770D01*
X111205565Y-79200000D01*
X111193571Y-79093553D01*
X111185369Y-79020750D01*
X111185368Y-79020745D01*
X111125789Y-78850478D01*
X111029816Y-78697738D01*
X110902262Y-78570184D01*
X110865376Y-78547007D01*
X110749523Y-78474211D01*
X110579254Y-78414631D01*
X110579249Y-78414630D01*
X110400004Y-78394435D01*
X110399996Y-78394435D01*
X110220750Y-78414630D01*
X110220745Y-78414631D01*
X110050474Y-78474212D01*
X110040477Y-78480494D01*
X109974506Y-78499500D01*
X103531003Y-78499500D01*
X103422590Y-78521065D01*
X103422589Y-78521065D01*
X103409131Y-78523742D01*
X103395673Y-78526419D01*
X103342866Y-78548291D01*
X103342866Y-78548292D01*
X103295774Y-78567798D01*
X103268186Y-78579226D01*
X103258034Y-78586010D01*
X103257923Y-78586084D01*
X103153457Y-78655886D01*
X103153453Y-78655889D01*
X100500712Y-81308630D01*
X100453987Y-81337990D01*
X100350479Y-81374209D01*
X100197737Y-81470184D01*
X100070184Y-81597737D01*
X99974211Y-81750476D01*
X99914631Y-81920745D01*
X99914630Y-81920750D01*
X99894435Y-82099996D01*
X99894435Y-82100003D01*
X99914630Y-82279249D01*
X99914631Y-82279254D01*
X99974211Y-82449523D01*
X100070184Y-82602262D01*
X100197738Y-82729816D01*
X100350478Y-82825789D01*
X100520745Y-82885368D01*
X100520750Y-82885369D01*
X100699996Y-82905565D01*
X100700000Y-82905565D01*
X100700004Y-82905565D01*
X100879249Y-82885369D01*
X100879252Y-82885368D01*
X100879255Y-82885368D01*
X101049522Y-82825789D01*
X101202262Y-82729816D01*
X101329816Y-82602262D01*
X101425789Y-82449522D01*
X101462007Y-82346012D01*
X101491365Y-82299289D01*
X103853837Y-79936819D01*
X103915160Y-79903334D01*
X103941518Y-79900500D01*
X109974506Y-79900500D01*
X110040477Y-79919506D01*
X110050474Y-79925787D01*
X110050475Y-79925787D01*
X110050478Y-79925789D01*
X110197788Y-79977335D01*
X110220745Y-79985368D01*
X110220750Y-79985369D01*
X110399996Y-80005565D01*
X110404415Y-80005565D01*
X110471454Y-80025250D01*
X110517209Y-80078054D01*
X110527153Y-80147212D01*
X110498128Y-80210768D01*
X110492096Y-80217246D01*
X105400709Y-85308632D01*
X105353984Y-85337992D01*
X105250476Y-85374211D01*
X105250475Y-85374212D01*
X105097737Y-85470184D01*
X104970184Y-85597737D01*
X104874211Y-85750476D01*
X104814631Y-85920745D01*
X104814630Y-85920750D01*
X104794435Y-86099996D01*
X104794435Y-86100003D01*
X104814630Y-86279249D01*
X104814631Y-86279254D01*
X104874211Y-86449523D01*
X104956492Y-86580472D01*
X104970184Y-86602262D01*
X105097738Y-86729816D01*
X105250478Y-86825789D01*
X105285021Y-86837876D01*
X105420745Y-86885368D01*
X105420750Y-86885369D01*
X105599996Y-86905565D01*
X105600000Y-86905565D01*
X105600004Y-86905565D01*
X105779249Y-86885369D01*
X105779252Y-86885368D01*
X105779255Y-86885368D01*
X105949522Y-86825789D01*
X106102262Y-86729816D01*
X106229816Y-86602262D01*
X106325789Y-86449522D01*
X106362007Y-86346013D01*
X106391365Y-86299290D01*
X111953838Y-80736819D01*
X112015161Y-80703334D01*
X112041519Y-80700500D01*
X138078481Y-80700500D01*
X138145520Y-80720185D01*
X138166162Y-80736819D01*
X140863181Y-83433838D01*
X140896666Y-83495161D01*
X140899500Y-83521519D01*
X140899500Y-88179481D01*
X140879815Y-88246520D01*
X140863181Y-88267162D01*
X139173416Y-89956926D01*
X139112093Y-89990411D01*
X139042401Y-89985427D01*
X139012851Y-89969564D01*
X138931199Y-89910240D01*
X138911102Y-89900000D01*
X138762836Y-89824454D01*
X138688472Y-89800291D01*
X138641195Y-89784930D01*
X138583521Y-89745493D01*
X138556323Y-89681134D01*
X138568238Y-89612288D01*
X138615482Y-89560812D01*
X138641194Y-89549069D01*
X138762832Y-89509547D01*
X138931199Y-89423760D01*
X139084073Y-89312690D01*
X139217690Y-89179073D01*
X139328760Y-89026199D01*
X139414547Y-88857832D01*
X139472940Y-88678118D01*
X139481228Y-88625788D01*
X139502500Y-88491486D01*
X139502500Y-88302513D01*
X139472940Y-88115881D01*
X139442285Y-88021536D01*
X139423053Y-87962349D01*
X139421059Y-87892510D01*
X139453302Y-87836353D01*
X140346114Y-86943543D01*
X140422775Y-86828811D01*
X140475580Y-86701328D01*
X140487963Y-86639074D01*
X140502500Y-86565996D01*
X140502500Y-85133004D01*
X140502499Y-85133002D01*
X140475581Y-84997678D01*
X140475580Y-84997674D01*
X140475580Y-84997672D01*
X140467338Y-84977775D01*
X140439898Y-84911528D01*
X140422775Y-84870189D01*
X140422771Y-84870182D01*
X140346115Y-84755459D01*
X140346114Y-84755458D01*
X140248542Y-84657886D01*
X140066655Y-84475999D01*
X139403546Y-83812888D01*
X139403545Y-83812887D01*
X139288807Y-83736222D01*
X139161332Y-83683421D01*
X139161322Y-83683418D01*
X139025996Y-83656500D01*
X139025994Y-83656500D01*
X139025993Y-83656500D01*
X119111994Y-83656500D01*
X118974006Y-83656500D01*
X118974004Y-83656500D01*
X118838677Y-83683418D01*
X118838667Y-83683421D01*
X118711192Y-83736222D01*
X118596454Y-83812887D01*
X115955887Y-86453454D01*
X115905890Y-86528282D01*
X115892557Y-86548235D01*
X115879225Y-86568188D01*
X115879221Y-86568195D01*
X115826421Y-86695667D01*
X115826418Y-86695677D01*
X115799500Y-86831004D01*
X115799500Y-89674507D01*
X115780494Y-89740478D01*
X115774209Y-89750479D01*
X115714633Y-89920737D01*
X115714630Y-89920750D01*
X115694435Y-90099996D01*
X115694435Y-90100003D01*
X115714630Y-90279249D01*
X115714631Y-90279254D01*
X115774211Y-90449523D01*
X115870184Y-90602262D01*
X115997738Y-90729816D01*
X116088080Y-90786582D01*
X116139216Y-90818713D01*
X116150478Y-90825789D01*
X116320745Y-90885368D01*
X116354474Y-90889168D01*
X116418886Y-90916233D01*
X116458443Y-90973826D01*
X116460582Y-91043663D01*
X116428272Y-91100069D01*
X115002459Y-92525882D01*
X114941136Y-92559367D01*
X114871444Y-92554383D01*
X114815511Y-92512511D01*
X114791094Y-92447047D01*
X114791558Y-92424317D01*
X114805565Y-92300002D01*
X114805565Y-92299996D01*
X114785369Y-92120750D01*
X114785368Y-92120745D01*
X114734204Y-91974526D01*
X114725789Y-91950478D01*
X114718785Y-91939332D01*
X114629815Y-91797737D01*
X114502262Y-91670184D01*
X114349523Y-91574211D01*
X114179254Y-91514631D01*
X114179249Y-91514630D01*
X114000004Y-91494435D01*
X113999996Y-91494435D01*
X113820750Y-91514630D01*
X113820745Y-91514631D01*
X113650476Y-91574211D01*
X113497737Y-91670184D01*
X113370184Y-91797737D01*
X113274212Y-91950475D01*
X113274211Y-91950476D01*
X113237992Y-92053984D01*
X113208632Y-92100709D01*
X110746162Y-94563181D01*
X110684839Y-94596666D01*
X110658481Y-94599500D01*
X100825494Y-94599500D01*
X100759523Y-94580494D01*
X100749525Y-94574212D01*
X100579254Y-94514631D01*
X100579249Y-94514630D01*
X100400004Y-94494435D01*
X100399996Y-94494435D01*
X100220750Y-94514630D01*
X100220745Y-94514631D01*
X100050476Y-94574211D01*
X99897737Y-94670184D01*
X99770184Y-94797737D01*
X99674211Y-94950476D01*
X99614631Y-95120745D01*
X99614630Y-95120750D01*
X99594435Y-95299996D01*
X99594435Y-95300003D01*
X95504000Y-95300003D01*
X95504000Y-71975494D01*
X114963308Y-71975494D01*
X114983503Y-72154740D01*
X114983504Y-72154745D01*
X115043084Y-72325014D01*
X115065183Y-72360184D01*
X115139057Y-72477753D01*
X115266611Y-72605307D01*
X115419351Y-72701280D01*
X115589618Y-72760859D01*
X115676542Y-72770652D01*
X115740953Y-72797717D01*
X115750338Y-72806191D01*
X117223521Y-74279374D01*
X117223531Y-74279385D01*
X117227861Y-74283715D01*
X117227862Y-74283716D01*
X117339666Y-74395520D01*
X117426477Y-74445639D01*
X117426479Y-74445641D01*
X117464533Y-74467611D01*
X117476597Y-74474577D01*
X117629325Y-74515501D01*
X117629328Y-74515501D01*
X117795035Y-74515501D01*
X117795051Y-74515500D01*
X119035739Y-74515500D01*
X119076693Y-74522458D01*
X119103252Y-74531751D01*
X119170745Y-74555368D01*
X119170751Y-74555368D01*
X119170753Y-74555369D01*
X119349996Y-74575565D01*
X119350000Y-74575565D01*
X119350004Y-74575565D01*
X119529249Y-74555369D01*
X119529252Y-74555368D01*
X119529255Y-74555368D01*
X119699522Y-74495789D01*
X119852262Y-74399816D01*
X119979816Y-74272262D01*
X120075789Y-74119522D01*
X120135368Y-73949255D01*
X120155565Y-73770000D01*
X120135368Y-73590745D01*
X120075789Y-73420478D01*
X119979816Y-73267738D01*
X119852262Y-73140184D01*
X119699523Y-73044211D01*
X119529254Y-72984631D01*
X119529249Y-72984630D01*
X119350004Y-72964435D01*
X119349996Y-72964435D01*
X119258628Y-72974729D01*
X119189806Y-72962674D01*
X119138427Y-72915325D01*
X119121525Y-72865395D01*
X119115368Y-72810745D01*
X119055789Y-72640478D01*
X118959816Y-72487738D01*
X118832262Y-72360184D01*
X118679523Y-72264211D01*
X118509254Y-72204631D01*
X118509250Y-72204630D01*
X118489949Y-72202456D01*
X118425535Y-72175389D01*
X118416152Y-72166917D01*
X117130700Y-70881465D01*
X117097215Y-70820142D01*
X117095163Y-70807686D01*
X117085368Y-70720745D01*
X117025789Y-70550478D01*
X116929816Y-70397738D01*
X116802262Y-70270184D01*
X116779566Y-70255923D01*
X116649523Y-70174211D01*
X116479254Y-70114631D01*
X116479249Y-70114630D01*
X116300004Y-70094435D01*
X116299996Y-70094435D01*
X116120750Y-70114630D01*
X116120745Y-70114631D01*
X115950476Y-70174211D01*
X115797737Y-70270184D01*
X115670184Y-70397737D01*
X115574211Y-70550476D01*
X115514631Y-70720745D01*
X115514630Y-70720750D01*
X115494435Y-70899996D01*
X115494435Y-70900003D01*
X115514630Y-71079249D01*
X115514633Y-71079261D01*
X115516421Y-71084371D01*
X115519979Y-71154150D01*
X115485247Y-71214775D01*
X115440333Y-71242360D01*
X115419349Y-71249702D01*
X115419348Y-71249703D01*
X115266610Y-71345675D01*
X115139057Y-71473228D01*
X115043084Y-71625967D01*
X114983504Y-71796236D01*
X114983503Y-71796241D01*
X114963308Y-71975487D01*
X114963308Y-71975494D01*
X95504000Y-71975494D01*
X95504000Y-67000003D01*
X142194435Y-67000003D01*
X142214630Y-67179249D01*
X142214631Y-67179254D01*
X142274211Y-67349523D01*
X142286981Y-67369846D01*
X142370184Y-67502262D01*
X142497738Y-67629816D01*
X142650478Y-67725789D01*
X142820745Y-67785368D01*
X142907669Y-67795161D01*
X142972080Y-67822226D01*
X142981465Y-67830700D01*
X145915139Y-70764374D01*
X145915149Y-70764385D01*
X145919479Y-70768715D01*
X145919480Y-70768716D01*
X146031284Y-70880520D01*
X146090965Y-70914976D01*
X146118095Y-70930639D01*
X146118097Y-70930641D01*
X146156151Y-70952611D01*
X146168215Y-70959577D01*
X146320943Y-71000500D01*
X146479057Y-71000500D01*
X161539903Y-71000500D01*
X161606942Y-71020185D01*
X161627584Y-71036819D01*
X169695139Y-79104374D01*
X169695149Y-79104385D01*
X169699479Y-79108715D01*
X169699480Y-79108716D01*
X169811284Y-79220520D01*
X169895244Y-79268994D01*
X169948215Y-79299577D01*
X170100943Y-79340500D01*
X179719489Y-79340500D01*
X179786528Y-79360185D01*
X179832283Y-79412989D01*
X179835671Y-79421166D01*
X179876830Y-79531519D01*
X180007109Y-79770107D01*
X180007110Y-79770108D01*
X180007113Y-79770113D01*
X180170029Y-79987742D01*
X180170033Y-79987746D01*
X180170038Y-79987752D01*
X180362247Y-80179961D01*
X180362253Y-80179966D01*
X180362258Y-80179971D01*
X180579887Y-80342887D01*
X180579891Y-80342889D01*
X180579892Y-80342890D01*
X180818481Y-80473169D01*
X180818480Y-80473169D01*
X180818484Y-80473170D01*
X180818487Y-80473172D01*
X181073199Y-80568175D01*
X181338840Y-80625961D01*
X181590605Y-80643967D01*
X181609999Y-80645355D01*
X181610000Y-80645355D01*
X181610001Y-80645355D01*
X181628100Y-80644060D01*
X181881160Y-80625961D01*
X182146801Y-80568175D01*
X182401513Y-80473172D01*
X182401517Y-80473169D01*
X182401519Y-80473169D01*
X182591955Y-80369183D01*
X182640113Y-80342887D01*
X182857742Y-80179971D01*
X183049971Y-79987742D01*
X183212887Y-79770113D01*
X183296203Y-79617531D01*
X183343169Y-79531519D01*
X183343169Y-79531517D01*
X183343172Y-79531513D01*
X183438175Y-79276801D01*
X183495961Y-79011160D01*
X183515355Y-78740001D01*
X198654891Y-78740001D01*
X198675300Y-79025362D01*
X198736109Y-79304895D01*
X198836091Y-79572958D01*
X198973191Y-79824038D01*
X198973196Y-79824046D01*
X199079882Y-79966561D01*
X199079883Y-79966562D01*
X200177037Y-78869408D01*
X200194075Y-78932993D01*
X200259901Y-79047007D01*
X200352993Y-79140099D01*
X200467007Y-79205925D01*
X200530590Y-79222962D01*
X199433436Y-80320115D01*
X199575960Y-80426807D01*
X199575961Y-80426808D01*
X199827042Y-80563908D01*
X199827041Y-80563908D01*
X200095104Y-80663890D01*
X200374637Y-80724699D01*
X200659999Y-80745109D01*
X200660001Y-80745109D01*
X200945362Y-80724699D01*
X201224895Y-80663890D01*
X201492958Y-80563908D01*
X201744047Y-80426803D01*
X201886561Y-80320116D01*
X201886562Y-80320115D01*
X200789410Y-79222962D01*
X200852993Y-79205925D01*
X200967007Y-79140099D01*
X201060099Y-79047007D01*
X201125925Y-78932993D01*
X201142962Y-78869409D01*
X202240115Y-79966562D01*
X202240116Y-79966561D01*
X202346803Y-79824047D01*
X202483908Y-79572958D01*
X202583890Y-79304895D01*
X202644699Y-79025362D01*
X202665109Y-78740001D01*
X202665109Y-78739998D01*
X202644699Y-78454637D01*
X202583890Y-78175104D01*
X202483908Y-77907041D01*
X202346808Y-77655961D01*
X202346807Y-77655960D01*
X202240115Y-77513436D01*
X201142962Y-78610589D01*
X201125925Y-78547007D01*
X201060099Y-78432993D01*
X200967007Y-78339901D01*
X200852993Y-78274075D01*
X200789409Y-78257037D01*
X201886562Y-77159883D01*
X201886561Y-77159882D01*
X201744046Y-77053196D01*
X201744038Y-77053191D01*
X201492957Y-76916091D01*
X201492958Y-76916091D01*
X201224895Y-76816109D01*
X200945362Y-76755300D01*
X200660001Y-76734891D01*
X200659999Y-76734891D01*
X200374637Y-76755300D01*
X200095104Y-76816109D01*
X199827041Y-76916091D01*
X199575961Y-77053191D01*
X199575953Y-77053196D01*
X199433437Y-77159882D01*
X199433436Y-77159883D01*
X200530591Y-78257037D01*
X200467007Y-78274075D01*
X200352993Y-78339901D01*
X200259901Y-78432993D01*
X200194075Y-78547007D01*
X200177037Y-78610590D01*
X199079883Y-77513436D01*
X199079882Y-77513437D01*
X198973196Y-77655953D01*
X198973191Y-77655961D01*
X198836091Y-77907041D01*
X198736109Y-78175104D01*
X198675300Y-78454637D01*
X198654891Y-78739998D01*
X198654891Y-78740001D01*
X183515355Y-78740001D01*
X183515355Y-78740000D01*
X183495961Y-78468840D01*
X183438175Y-78203199D01*
X183343172Y-77948487D01*
X183343170Y-77948484D01*
X183343169Y-77948480D01*
X183212890Y-77709892D01*
X183212889Y-77709891D01*
X183212887Y-77709887D01*
X183049971Y-77492258D01*
X183049966Y-77492253D01*
X183049961Y-77492247D01*
X182857752Y-77300038D01*
X182857746Y-77300033D01*
X182857742Y-77300029D01*
X182640113Y-77137113D01*
X182640108Y-77137110D01*
X182640107Y-77137109D01*
X182401518Y-77006830D01*
X182401519Y-77006830D01*
X182351920Y-76988330D01*
X182146801Y-76911825D01*
X182146794Y-76911823D01*
X182146793Y-76911823D01*
X181881167Y-76854040D01*
X181881160Y-76854039D01*
X181610001Y-76834645D01*
X181609999Y-76834645D01*
X181338839Y-76854039D01*
X181338832Y-76854040D01*
X181073206Y-76911823D01*
X181073202Y-76911824D01*
X181073199Y-76911825D01*
X180945843Y-76959326D01*
X180818480Y-77006830D01*
X180579892Y-77137109D01*
X180579891Y-77137110D01*
X180362259Y-77300028D01*
X180362247Y-77300038D01*
X180170038Y-77492247D01*
X180170028Y-77492259D01*
X180007110Y-77709891D01*
X180007109Y-77709892D01*
X179876830Y-77948480D01*
X179835671Y-78058834D01*
X179793799Y-78114767D01*
X179728335Y-78139184D01*
X179719489Y-78139500D01*
X170480097Y-78139500D01*
X170413058Y-78119815D01*
X170392416Y-78103181D01*
X162327590Y-70038355D01*
X162327588Y-70038352D01*
X162208717Y-69919481D01*
X162208716Y-69919480D01*
X162121904Y-69869360D01*
X162121904Y-69869359D01*
X162121900Y-69869358D01*
X162071785Y-69840423D01*
X161919057Y-69799499D01*
X161760943Y-69799499D01*
X161753347Y-69799499D01*
X161753331Y-69799500D01*
X146700097Y-69799500D01*
X146633058Y-69779815D01*
X146612416Y-69763181D01*
X144921235Y-68072000D01*
X202076536Y-68072000D01*
X202096376Y-68425295D01*
X202096378Y-68425307D01*
X202155649Y-68774153D01*
X202155651Y-68774162D01*
X202253608Y-69114178D01*
X202389021Y-69441098D01*
X202389023Y-69441102D01*
X202560194Y-69750812D01*
X202560197Y-69750817D01*
X202764956Y-70039396D01*
X202764962Y-70039404D01*
X203000748Y-70303248D01*
X203000751Y-70303251D01*
X203264595Y-70539037D01*
X203264603Y-70539043D01*
X203553182Y-70743802D01*
X203553187Y-70743805D01*
X203553190Y-70743806D01*
X203553192Y-70743808D01*
X203835793Y-70899996D01*
X203862897Y-70914976D01*
X203862901Y-70914978D01*
X203969013Y-70958930D01*
X204189816Y-71050390D01*
X204529843Y-71148350D01*
X204878700Y-71207623D01*
X205232000Y-71227464D01*
X205585300Y-71207623D01*
X205934157Y-71148350D01*
X206274184Y-71050390D01*
X206601105Y-70914975D01*
X206910808Y-70743808D01*
X206910813Y-70743804D01*
X206910817Y-70743802D01*
X207001786Y-70679255D01*
X207199400Y-70539041D01*
X207463250Y-70303250D01*
X207699041Y-70039400D01*
X207869260Y-69799499D01*
X207903802Y-69750817D01*
X207903805Y-69750812D01*
X207903808Y-69750808D01*
X208074975Y-69441105D01*
X208210390Y-69114184D01*
X208308350Y-68774157D01*
X208367623Y-68425300D01*
X208387464Y-68072000D01*
X208367623Y-67718700D01*
X208308350Y-67369843D01*
X208210390Y-67029816D01*
X208118930Y-66809013D01*
X208074978Y-66702901D01*
X208074976Y-66702897D01*
X208046004Y-66650476D01*
X207903808Y-66393192D01*
X207903806Y-66393190D01*
X207903805Y-66393187D01*
X207903802Y-66393182D01*
X207699043Y-66104603D01*
X207699037Y-66104595D01*
X207463251Y-65840751D01*
X207463248Y-65840748D01*
X207199404Y-65604962D01*
X207199396Y-65604956D01*
X206910817Y-65400197D01*
X206910812Y-65400194D01*
X206601102Y-65229023D01*
X206601098Y-65229021D01*
X206374221Y-65135046D01*
X206274184Y-65093610D01*
X206274180Y-65093608D01*
X206274178Y-65093608D01*
X205934162Y-64995651D01*
X205934153Y-64995649D01*
X205585307Y-64936378D01*
X205585295Y-64936376D01*
X205232000Y-64916536D01*
X204878704Y-64936376D01*
X204878692Y-64936378D01*
X204529846Y-64995649D01*
X204529837Y-64995651D01*
X204189821Y-65093608D01*
X203862901Y-65229021D01*
X203862897Y-65229023D01*
X203553187Y-65400194D01*
X203553182Y-65400197D01*
X203264603Y-65604956D01*
X203264595Y-65604962D01*
X203000751Y-65840748D01*
X203000748Y-65840751D01*
X202764962Y-66104595D01*
X202764956Y-66104603D01*
X202560197Y-66393182D01*
X202560194Y-66393187D01*
X202389023Y-66702897D01*
X202389021Y-66702901D01*
X202253608Y-67029821D01*
X202155651Y-67369837D01*
X202155649Y-67369846D01*
X202096378Y-67718692D01*
X202096376Y-67718704D01*
X202076536Y-68072000D01*
X144921235Y-68072000D01*
X143830700Y-66981465D01*
X143797215Y-66920142D01*
X143795163Y-66907686D01*
X143785368Y-66820745D01*
X143725789Y-66650478D01*
X143629816Y-66497738D01*
X143502262Y-66370184D01*
X143349523Y-66274211D01*
X143179254Y-66214631D01*
X143179249Y-66214630D01*
X143000004Y-66194435D01*
X142999996Y-66194435D01*
X142820750Y-66214630D01*
X142820745Y-66214631D01*
X142650476Y-66274211D01*
X142497737Y-66370184D01*
X142370184Y-66497737D01*
X142274211Y-66650476D01*
X142214631Y-66820745D01*
X142214630Y-66820750D01*
X142194435Y-66999996D01*
X142194435Y-67000003D01*
X95504000Y-67000003D01*
X95504000Y-62100000D01*
X95523685Y-62032961D01*
X95576489Y-61987206D01*
X95628000Y-61976000D01*
X217808000Y-61976000D01*
X217875039Y-61995685D01*
G37*
G04 #@! TD.AperFunction*
D27*
X95504000Y-61976000D02*
X217932000Y-61976000D01*
X217932000Y-135382000D01*
X95504000Y-135382000D01*
X95504000Y-61976000D01*
M02*
