G04 #@! TF.GenerationSoftware,KiCad,Pcbnew,8.0.1*
G04 #@! TF.CreationDate,2024-04-23T14:43:40+07:00*
G04 #@! TF.ProjectId,IncuTester_SMD,496e6375-5465-4737-9465-725f534d442e,rev?*
G04 #@! TF.SameCoordinates,Original*
G04 #@! TF.FileFunction,Paste,Top*
G04 #@! TF.FilePolarity,Positive*
%FSLAX46Y46*%
G04 Gerber Fmt 4.6, Leading zero omitted, Abs format (unit mm)*
G04 Created by KiCad (PCBNEW 8.0.1) date 2024-04-23 14:43:40*
%MOMM*%
%LPD*%
G01*
G04 APERTURE LIST*
G04 Aperture macros list*
%AMRoundRect*
0 Rectangle with rounded corners*
0 $1 Rounding radius*
0 $2 $3 $4 $5 $6 $7 $8 $9 X,Y pos of 4 corners*
0 Add a 4 corners polygon primitive as box body*
4,1,4,$2,$3,$4,$5,$6,$7,$8,$9,$2,$3,0*
0 Add four circle primitives for the rounded corners*
1,1,$1+$1,$2,$3*
1,1,$1+$1,$4,$5*
1,1,$1+$1,$6,$7*
1,1,$1+$1,$8,$9*
0 Add four rect primitives between the rounded corners*
20,1,$1+$1,$2,$3,$4,$5,0*
20,1,$1+$1,$4,$5,$6,$7,0*
20,1,$1+$1,$6,$7,$8,$9,0*
20,1,$1+$1,$8,$9,$2,$3,0*%
G04 Aperture macros list end*
%ADD10R,2.000000X1.500000*%
%ADD11R,2.000000X3.800000*%
%ADD12RoundRect,0.250000X0.250000X2.500000X-0.250000X2.500000X-0.250000X-2.500000X0.250000X-2.500000X0*%
%ADD13RoundRect,0.250000X0.550000X1.250000X-0.550000X1.250000X-0.550000X-1.250000X0.550000X-1.250000X0*%
%ADD14RoundRect,0.250000X-0.450000X0.262500X-0.450000X-0.262500X0.450000X-0.262500X0.450000X0.262500X0*%
%ADD15RoundRect,0.250000X0.262500X0.450000X-0.262500X0.450000X-0.262500X-0.450000X0.262500X-0.450000X0*%
%ADD16RoundRect,0.250000X-2.500000X0.250000X-2.500000X-0.250000X2.500000X-0.250000X2.500000X0.250000X0*%
%ADD17RoundRect,0.250000X-1.250000X0.550000X-1.250000X-0.550000X1.250000X-0.550000X1.250000X0.550000X0*%
%ADD18RoundRect,0.250000X-0.262500X-0.450000X0.262500X-0.450000X0.262500X0.450000X-0.262500X0.450000X0*%
%ADD19RoundRect,0.250000X0.450000X-0.262500X0.450000X0.262500X-0.450000X0.262500X-0.450000X-0.262500X0*%
%ADD20RoundRect,0.135000X0.185000X-0.135000X0.185000X0.135000X-0.185000X0.135000X-0.185000X-0.135000X0*%
%ADD21RoundRect,0.250000X2.500000X-0.250000X2.500000X0.250000X-2.500000X0.250000X-2.500000X-0.250000X0*%
%ADD22RoundRect,0.250000X1.250000X-0.550000X1.250000X0.550000X-1.250000X0.550000X-1.250000X-0.550000X0*%
%ADD23RoundRect,0.250000X-1.250000X-0.550000X1.250000X-0.550000X1.250000X0.550000X-1.250000X0.550000X0*%
%ADD24RoundRect,0.250000X0.312500X0.625000X-0.312500X0.625000X-0.312500X-0.625000X0.312500X-0.625000X0*%
%ADD25R,1.200000X0.700000*%
%ADD26R,0.800000X1.000000*%
%ADD27R,1.200000X1.000000*%
%ADD28R,2.800000X1.000000*%
%ADD29R,1.900000X1.300000*%
%ADD30RoundRect,0.250000X0.375000X1.075000X-0.375000X1.075000X-0.375000X-1.075000X0.375000X-1.075000X0*%
%ADD31RoundRect,0.250000X-0.550000X1.250000X-0.550000X-1.250000X0.550000X-1.250000X0.550000X1.250000X0*%
G04 #@! TA.AperFunction,Profile*
%ADD32C,0.100000*%
G04 #@! TD*
G04 APERTURE END LIST*
D10*
X145390000Y-70880000D03*
X145390000Y-68580000D03*
D11*
X139090000Y-68580000D03*
D10*
X145390000Y-66280000D03*
D12*
X181200000Y-129800000D03*
X179200000Y-129800000D03*
D13*
X183600000Y-132050000D03*
X176800000Y-132050000D03*
D14*
X158300000Y-119787500D03*
X158300000Y-121612500D03*
D12*
X154000000Y-127100000D03*
X152000000Y-127100000D03*
X150000000Y-127100000D03*
X148000000Y-127100000D03*
D13*
X156400000Y-129350000D03*
X145600000Y-129350000D03*
D15*
X180744500Y-68961000D03*
X178919500Y-68961000D03*
D12*
X194300000Y-129850000D03*
X192300000Y-129850000D03*
D13*
X196700000Y-132100000D03*
X189900000Y-132100000D03*
D16*
X101650000Y-97600000D03*
X101650000Y-99600000D03*
X101650000Y-101600000D03*
X101650000Y-103600000D03*
D17*
X103900000Y-95200000D03*
X103900000Y-106000000D03*
D16*
X101650000Y-111100000D03*
X101650000Y-113100000D03*
X101650000Y-115100000D03*
X101650000Y-117100000D03*
D17*
X103900000Y-108700000D03*
X103900000Y-119500000D03*
D18*
X138787500Y-122682000D03*
X140612500Y-122682000D03*
D19*
X154940000Y-101496500D03*
X154940000Y-99671500D03*
D20*
X208950000Y-110800000D03*
X208950000Y-109780000D03*
D16*
X172900000Y-105700000D03*
X172900000Y-107700000D03*
X172900000Y-109700000D03*
X172900000Y-111700000D03*
D17*
X175150000Y-103300000D03*
X175150000Y-114100000D03*
D12*
X127700000Y-127900000D03*
X125700000Y-127900000D03*
D13*
X130100000Y-130150000D03*
X123300000Y-130150000D03*
D16*
X101650000Y-84100000D03*
X101650000Y-86100000D03*
X101650000Y-88100000D03*
X101650000Y-90100000D03*
D17*
X103900000Y-81700000D03*
X103900000Y-92500000D03*
D21*
X112250000Y-117100000D03*
X112250000Y-115100000D03*
X112250000Y-113100000D03*
X112250000Y-111100000D03*
D22*
X110000000Y-119500000D03*
X110000000Y-108700000D03*
D21*
X112250000Y-103600000D03*
X112250000Y-101600000D03*
X112250000Y-99600000D03*
X112250000Y-97600000D03*
D22*
X110000000Y-106000000D03*
X110000000Y-95200000D03*
D23*
X113878000Y-127254000D03*
X118278000Y-127254000D03*
D24*
X164276500Y-68834000D03*
X161351500Y-68834000D03*
D19*
X168300000Y-70712500D03*
X168300000Y-68887500D03*
D23*
X165440000Y-123698000D03*
X169840000Y-123698000D03*
D25*
X114218000Y-73100000D03*
X114218000Y-72000000D03*
X114218000Y-70900000D03*
X114218000Y-69800000D03*
X114218000Y-68700000D03*
X114218000Y-67600000D03*
X114218000Y-66500000D03*
X114218000Y-65400000D03*
X114218000Y-64450000D03*
D26*
X103718000Y-63500000D03*
D27*
X109918000Y-63500000D03*
D28*
X99568000Y-63500000D03*
D27*
X114218000Y-74650000D03*
D29*
X99118000Y-77000000D03*
D16*
X145800000Y-111800000D03*
X145800000Y-113800000D03*
X145800000Y-115800000D03*
X145800000Y-117800000D03*
D17*
X148050000Y-109400000D03*
X148050000Y-120200000D03*
D21*
X112250000Y-90100000D03*
X112250000Y-88100000D03*
X112250000Y-86100000D03*
X112250000Y-84100000D03*
D22*
X110000000Y-92500000D03*
X110000000Y-81700000D03*
D30*
X139830000Y-129286000D03*
X137030000Y-129286000D03*
D31*
X147574000Y-94828000D03*
X147574000Y-99228000D03*
D32*
X95504000Y-61976000D02*
X217932000Y-61976000D01*
X217932000Y-135382000D01*
X95504000Y-135382000D01*
X95504000Y-61976000D01*
M02*
