G04 #@! TF.GenerationSoftware,KiCad,Pcbnew,8.0.1*
G04 #@! TF.CreationDate,2024-04-22T13:40:03+07:00*
G04 #@! TF.ProjectId,IncuTester_SMD,496e6375-5465-4737-9465-725f534d442e,rev?*
G04 #@! TF.SameCoordinates,Original*
G04 #@! TF.FileFunction,Soldermask,Top*
G04 #@! TF.FilePolarity,Negative*
%FSLAX46Y46*%
G04 Gerber Fmt 4.6, Leading zero omitted, Abs format (unit mm)*
G04 Created by KiCad (PCBNEW 8.0.1) date 2024-04-22 13:40:03*
%MOMM*%
%LPD*%
G01*
G04 APERTURE LIST*
G04 Aperture macros list*
%AMRoundRect*
0 Rectangle with rounded corners*
0 $1 Rounding radius*
0 $2 $3 $4 $5 $6 $7 $8 $9 X,Y pos of 4 corners*
0 Add a 4 corners polygon primitive as box body*
4,1,4,$2,$3,$4,$5,$6,$7,$8,$9,$2,$3,0*
0 Add four circle primitives for the rounded corners*
1,1,$1+$1,$2,$3*
1,1,$1+$1,$4,$5*
1,1,$1+$1,$6,$7*
1,1,$1+$1,$8,$9*
0 Add four rect primitives between the rounded corners*
20,1,$1+$1,$2,$3,$4,$5,0*
20,1,$1+$1,$4,$5,$6,$7,0*
20,1,$1+$1,$6,$7,$8,$9,0*
20,1,$1+$1,$8,$9,$2,$3,0*%
G04 Aperture macros list end*
%ADD10R,2.000000X1.500000*%
%ADD11R,2.000000X3.800000*%
%ADD12RoundRect,0.250000X0.250000X2.500000X-0.250000X2.500000X-0.250000X-2.500000X0.250000X-2.500000X0*%
%ADD13RoundRect,0.250000X0.550000X1.250000X-0.550000X1.250000X-0.550000X-1.250000X0.550000X-1.250000X0*%
%ADD14RoundRect,0.250000X-0.450000X0.262500X-0.450000X-0.262500X0.450000X-0.262500X0.450000X0.262500X0*%
%ADD15RoundRect,0.250000X0.262500X0.450000X-0.262500X0.450000X-0.262500X-0.450000X0.262500X-0.450000X0*%
%ADD16C,1.600000*%
%ADD17RoundRect,0.250000X-2.500000X0.250000X-2.500000X-0.250000X2.500000X-0.250000X2.500000X0.250000X0*%
%ADD18RoundRect,0.250000X-1.250000X0.550000X-1.250000X-0.550000X1.250000X-0.550000X1.250000X0.550000X0*%
%ADD19C,3.000000*%
%ADD20RoundRect,0.250000X-0.262500X-0.450000X0.262500X-0.450000X0.262500X0.450000X-0.262500X0.450000X0*%
%ADD21R,2.400000X1.600000*%
%ADD22O,2.400000X1.600000*%
%ADD23R,1.600000X1.600000*%
%ADD24O,1.600000X1.600000*%
%ADD25RoundRect,0.250000X0.450000X-0.262500X0.450000X0.262500X-0.450000X0.262500X-0.450000X-0.262500X0*%
%ADD26C,5.500000*%
%ADD27RoundRect,0.135000X0.185000X-0.135000X0.185000X0.135000X-0.185000X0.135000X-0.185000X-0.135000X0*%
%ADD28RoundRect,0.250000X2.500000X-0.250000X2.500000X0.250000X-2.500000X0.250000X-2.500000X-0.250000X0*%
%ADD29RoundRect,0.250000X1.250000X-0.550000X1.250000X0.550000X-1.250000X0.550000X-1.250000X-0.550000X0*%
%ADD30RoundRect,0.250000X-1.250000X-0.550000X1.250000X-0.550000X1.250000X0.550000X-1.250000X0.550000X0*%
%ADD31RoundRect,0.250000X0.312500X0.625000X-0.312500X0.625000X-0.312500X-0.625000X0.312500X-0.625000X0*%
%ADD32R,1.200000X0.700000*%
%ADD33R,0.800000X1.000000*%
%ADD34R,1.200000X1.000000*%
%ADD35R,2.800000X1.000000*%
%ADD36R,1.900000X1.300000*%
%ADD37C,1.500000*%
%ADD38RoundRect,0.250000X-0.725000X0.600000X-0.725000X-0.600000X0.725000X-0.600000X0.725000X0.600000X0*%
%ADD39O,1.950000X1.700000*%
%ADD40RoundRect,0.250000X0.375000X1.075000X-0.375000X1.075000X-0.375000X-1.075000X0.375000X-1.075000X0*%
%ADD41RoundRect,0.250000X-0.550000X1.250000X-0.550000X-1.250000X0.550000X-1.250000X0.550000X1.250000X0*%
%ADD42C,0.800000*%
G04 #@! TA.AperFunction,Profile*
%ADD43C,0.100000*%
G04 #@! TD*
G04 APERTURE END LIST*
D10*
X145390000Y-70880000D03*
X145390000Y-68580000D03*
D11*
X139090000Y-68580000D03*
D10*
X145390000Y-66280000D03*
D12*
X181200000Y-129800000D03*
X179200000Y-129800000D03*
D13*
X183600000Y-132050000D03*
X176800000Y-132050000D03*
D14*
X158300000Y-119787500D03*
X158300000Y-121612500D03*
D12*
X154000000Y-127100000D03*
X152000000Y-127100000D03*
X150000000Y-127100000D03*
X148000000Y-127100000D03*
D13*
X156400000Y-129350000D03*
X145600000Y-129350000D03*
D15*
X180744500Y-68961000D03*
X178919500Y-68961000D03*
D12*
X194300000Y-129850000D03*
X192300000Y-129850000D03*
D13*
X196700000Y-132100000D03*
X189900000Y-132100000D03*
D16*
X203982000Y-123190000D03*
X206482000Y-123190000D03*
D17*
X101650000Y-97600000D03*
X101650000Y-99600000D03*
X101650000Y-101600000D03*
X101650000Y-103600000D03*
D18*
X103900000Y-95200000D03*
X103900000Y-106000000D03*
D17*
X101650000Y-111100000D03*
X101650000Y-113100000D03*
X101650000Y-115100000D03*
X101650000Y-117100000D03*
D18*
X103900000Y-108700000D03*
X103900000Y-119500000D03*
D19*
X181610000Y-116840000D03*
X200660000Y-116840000D03*
X181610000Y-78740000D03*
X200660000Y-78740000D03*
D20*
X138787500Y-122682000D03*
X140612500Y-122682000D03*
D21*
X137902000Y-113797000D03*
D22*
X137902000Y-111257000D03*
X137902000Y-108717000D03*
X137902000Y-106177000D03*
X137902000Y-103637000D03*
X137902000Y-101097000D03*
X137902000Y-98557000D03*
X137902000Y-96017000D03*
X137902000Y-93477000D03*
X137902000Y-90937000D03*
X137902000Y-88397000D03*
X137902000Y-85857000D03*
X120122000Y-85857000D03*
X120122000Y-88397000D03*
X120122000Y-90937000D03*
X120122000Y-93477000D03*
X120122000Y-96017000D03*
X120122000Y-98557000D03*
X120122000Y-101097000D03*
X120122000Y-103637000D03*
X120122000Y-106177000D03*
X120122000Y-108717000D03*
X120122000Y-111257000D03*
X120122000Y-113797000D03*
D23*
X166904000Y-112416000D03*
D24*
X166904000Y-109876000D03*
X166904000Y-107336000D03*
X166904000Y-104796000D03*
X166904000Y-102256000D03*
X166904000Y-99716000D03*
X166904000Y-97176000D03*
X166904000Y-94636000D03*
X166904000Y-92096000D03*
X166904000Y-89556000D03*
X166904000Y-87016000D03*
X166904000Y-84476000D03*
X166904000Y-81936000D03*
X166904000Y-79396000D03*
X159284000Y-79396000D03*
X159284000Y-81936000D03*
X159284000Y-84476000D03*
X159284000Y-87016000D03*
X159284000Y-89556000D03*
X159284000Y-92096000D03*
X159284000Y-94636000D03*
X159284000Y-97176000D03*
X159284000Y-99716000D03*
X159284000Y-102256000D03*
X159284000Y-104796000D03*
X159284000Y-107336000D03*
X159284000Y-109876000D03*
X159284000Y-112416000D03*
D25*
X154940000Y-101496500D03*
X154940000Y-99671500D03*
D26*
X104648000Y-130048000D03*
D27*
X208950000Y-110800000D03*
X208950000Y-109780000D03*
D17*
X172900000Y-105700000D03*
X172900000Y-107700000D03*
X172900000Y-109700000D03*
X172900000Y-111700000D03*
D18*
X175150000Y-103300000D03*
X175150000Y-114100000D03*
D12*
X127700000Y-127900000D03*
X125700000Y-127900000D03*
D13*
X130100000Y-130150000D03*
X123300000Y-130150000D03*
D17*
X101650000Y-84100000D03*
X101650000Y-86100000D03*
X101650000Y-88100000D03*
X101650000Y-90100000D03*
D18*
X103900000Y-81700000D03*
X103900000Y-92500000D03*
D28*
X112250000Y-117100000D03*
X112250000Y-115100000D03*
X112250000Y-113100000D03*
X112250000Y-111100000D03*
D29*
X110000000Y-119500000D03*
X110000000Y-108700000D03*
D28*
X112250000Y-103600000D03*
X112250000Y-101600000D03*
X112250000Y-99600000D03*
X112250000Y-97600000D03*
D29*
X110000000Y-106000000D03*
X110000000Y-95200000D03*
D30*
X113878000Y-127254000D03*
X118278000Y-127254000D03*
D26*
X204724000Y-130556000D03*
D31*
X164276500Y-68834000D03*
X161351500Y-68834000D03*
D25*
X168300000Y-70712500D03*
X168300000Y-68887500D03*
D16*
X177100000Y-87800000D03*
X177100000Y-90300000D03*
D30*
X165440000Y-123698000D03*
X169840000Y-123698000D03*
D16*
X177100000Y-95200000D03*
X177100000Y-92700000D03*
D32*
X114218000Y-73100000D03*
X114218000Y-72000000D03*
X114218000Y-70900000D03*
X114218000Y-69800000D03*
X114218000Y-68700000D03*
X114218000Y-67600000D03*
X114218000Y-66500000D03*
X114218000Y-65400000D03*
X114218000Y-64450000D03*
D33*
X103718000Y-63500000D03*
D34*
X109918000Y-63500000D03*
D35*
X99568000Y-63500000D03*
D34*
X114218000Y-74650000D03*
D36*
X99118000Y-77000000D03*
D37*
X172720000Y-93980000D03*
X172720000Y-89080000D03*
D17*
X145800000Y-111800000D03*
X145800000Y-113800000D03*
X145800000Y-115800000D03*
X145800000Y-117800000D03*
D18*
X148050000Y-109400000D03*
X148050000Y-120200000D03*
D28*
X112250000Y-90100000D03*
X112250000Y-88100000D03*
X112250000Y-86100000D03*
X112250000Y-84100000D03*
D29*
X110000000Y-92500000D03*
X110000000Y-81700000D03*
D38*
X212852000Y-100470000D03*
D39*
X212852000Y-102970000D03*
X212852000Y-105470000D03*
X212852000Y-107970000D03*
X212852000Y-110470000D03*
X212852000Y-112970000D03*
D40*
X139830000Y-129286000D03*
X137030000Y-129286000D03*
D41*
X147574000Y-94828000D03*
X147574000Y-99228000D03*
D26*
X205232000Y-68072000D03*
D42*
X215752000Y-109000000D03*
X154300000Y-68300000D03*
X144600000Y-64400000D03*
X215752000Y-106500000D03*
X120650000Y-127254000D03*
X147400000Y-88100000D03*
X96300000Y-97100000D03*
X96600000Y-77400000D03*
X144900000Y-86700000D03*
X176600000Y-106900000D03*
X215752000Y-107800000D03*
X133400000Y-120200000D03*
X146000000Y-64300000D03*
X108300000Y-88100000D03*
X198000000Y-116000000D03*
X169300000Y-93400000D03*
X154400000Y-69400000D03*
X201500000Y-113800000D03*
X152000000Y-130900000D03*
X121300000Y-124500000D03*
X191000000Y-67200000D03*
X150000000Y-113800000D03*
X176600000Y-111700000D03*
X162800000Y-98700000D03*
X174200000Y-128100000D03*
X201600000Y-124300000D03*
X174200000Y-131000000D03*
X179700000Y-95200000D03*
X199600000Y-81900000D03*
X120100000Y-124700000D03*
X202500000Y-121200000D03*
X150300000Y-69300000D03*
X174200000Y-129500000D03*
X134000000Y-118900000D03*
X115800000Y-67600000D03*
X175100000Y-127100000D03*
X147700000Y-67200000D03*
X140208000Y-98552000D03*
X179600000Y-96600000D03*
X172212000Y-123698000D03*
X168800000Y-94400000D03*
X135500000Y-118600000D03*
X105600000Y-115100000D03*
X200400000Y-124600000D03*
X119380000Y-81788000D03*
X194800000Y-70300000D03*
X109600000Y-125200000D03*
X121500000Y-77700000D03*
X120500000Y-123400000D03*
X198400000Y-80900000D03*
X187900000Y-132200000D03*
X96200000Y-89900000D03*
X150500000Y-82100000D03*
X147574000Y-101600000D03*
X108300000Y-101600000D03*
X204000000Y-77900000D03*
X96100000Y-86200000D03*
X191400000Y-70200000D03*
X204000000Y-80300000D03*
X197800000Y-78000000D03*
X185500000Y-132200000D03*
X200000000Y-113800000D03*
X204000000Y-76500000D03*
X96200000Y-89900000D03*
X96300000Y-93300000D03*
X215752000Y-104470000D03*
X180100000Y-94300000D03*
X111100000Y-125300000D03*
X202600000Y-123300000D03*
X105600000Y-101600000D03*
X124100000Y-77700000D03*
X181500000Y-98900000D03*
X204000000Y-79000000D03*
X198800000Y-114700000D03*
X186700000Y-132200000D03*
X150300000Y-67900000D03*
X120650000Y-127254000D03*
X158300000Y-123800000D03*
X108300000Y-115100000D03*
X198000000Y-79700000D03*
X194400000Y-67200000D03*
X147700000Y-65400000D03*
X105600000Y-88100000D03*
X152600000Y-84600000D03*
X181640000Y-96740000D03*
X208630000Y-108450000D03*
X205330000Y-100430000D03*
X165100000Y-118872000D03*
X162560000Y-92202000D03*
X143000000Y-67000000D03*
X177800000Y-100584000D03*
X156200000Y-126400000D03*
X199410000Y-100540000D03*
X147200000Y-107400000D03*
X152000000Y-104800000D03*
X140600000Y-117800000D03*
X186944000Y-116840000D03*
X186944000Y-123190000D03*
X168881107Y-109313107D03*
X199450000Y-103470000D03*
X199760000Y-108660000D03*
X182350000Y-112340000D03*
X150000000Y-130900000D03*
X157200000Y-103600000D03*
X146600000Y-124500000D03*
X119350000Y-73770000D03*
X115768873Y-71975491D03*
X116300000Y-70900000D03*
X118330000Y-72990000D03*
X127000000Y-70815500D03*
X110400000Y-79200000D03*
X100700000Y-82100000D03*
X105600000Y-86100000D03*
X116500000Y-90100000D03*
X114000000Y-92300000D03*
X100400000Y-95300000D03*
X105600000Y-99600000D03*
X116900000Y-103600000D03*
X100800000Y-109100000D03*
X105600000Y-113100000D03*
X116500000Y-109300000D03*
X155000000Y-87900000D03*
X154940000Y-98552000D03*
X154940000Y-91440000D03*
X156800000Y-105700000D03*
X155200000Y-116000000D03*
X193220000Y-118120000D03*
X181830000Y-114120000D03*
X208980000Y-112050000D03*
D43*
X95504000Y-61976000D02*
X217932000Y-61976000D01*
X217932000Y-135382000D01*
X95504000Y-135382000D01*
X95504000Y-61976000D01*
M02*
