G04 #@! TF.GenerationSoftware,KiCad,Pcbnew,8.0.1*
G04 #@! TF.CreationDate,2024-04-22T13:40:03+07:00*
G04 #@! TF.ProjectId,IncuTester_SMD,496e6375-5465-4737-9465-725f534d442e,rev?*
G04 #@! TF.SameCoordinates,Original*
G04 #@! TF.FileFunction,Legend,Top*
G04 #@! TF.FilePolarity,Positive*
%FSLAX46Y46*%
G04 Gerber Fmt 4.6, Leading zero omitted, Abs format (unit mm)*
G04 Created by KiCad (PCBNEW 8.0.1) date 2024-04-22 13:40:03*
%MOMM*%
%LPD*%
G01*
G04 APERTURE LIST*
G04 Aperture macros list*
%AMRoundRect*
0 Rectangle with rounded corners*
0 $1 Rounding radius*
0 $2 $3 $4 $5 $6 $7 $8 $9 X,Y pos of 4 corners*
0 Add a 4 corners polygon primitive as box body*
4,1,4,$2,$3,$4,$5,$6,$7,$8,$9,$2,$3,0*
0 Add four circle primitives for the rounded corners*
1,1,$1+$1,$2,$3*
1,1,$1+$1,$4,$5*
1,1,$1+$1,$6,$7*
1,1,$1+$1,$8,$9*
0 Add four rect primitives between the rounded corners*
20,1,$1+$1,$2,$3,$4,$5,0*
20,1,$1+$1,$4,$5,$6,$7,0*
20,1,$1+$1,$6,$7,$8,$9,0*
20,1,$1+$1,$8,$9,$2,$3,0*%
G04 Aperture macros list end*
%ADD10C,0.150000*%
%ADD11C,0.120000*%
%ADD12C,0.100000*%
%ADD13R,2.000000X1.500000*%
%ADD14R,2.000000X3.800000*%
%ADD15RoundRect,0.250000X0.250000X2.500000X-0.250000X2.500000X-0.250000X-2.500000X0.250000X-2.500000X0*%
%ADD16RoundRect,0.250000X0.550000X1.250000X-0.550000X1.250000X-0.550000X-1.250000X0.550000X-1.250000X0*%
%ADD17RoundRect,0.250000X-0.450000X0.262500X-0.450000X-0.262500X0.450000X-0.262500X0.450000X0.262500X0*%
%ADD18RoundRect,0.250000X0.262500X0.450000X-0.262500X0.450000X-0.262500X-0.450000X0.262500X-0.450000X0*%
%ADD19C,1.600000*%
%ADD20RoundRect,0.250000X-2.500000X0.250000X-2.500000X-0.250000X2.500000X-0.250000X2.500000X0.250000X0*%
%ADD21RoundRect,0.250000X-1.250000X0.550000X-1.250000X-0.550000X1.250000X-0.550000X1.250000X0.550000X0*%
%ADD22C,3.000000*%
%ADD23RoundRect,0.250000X-0.262500X-0.450000X0.262500X-0.450000X0.262500X0.450000X-0.262500X0.450000X0*%
%ADD24R,2.400000X1.600000*%
%ADD25O,2.400000X1.600000*%
%ADD26R,1.600000X1.600000*%
%ADD27O,1.600000X1.600000*%
%ADD28RoundRect,0.250000X0.450000X-0.262500X0.450000X0.262500X-0.450000X0.262500X-0.450000X-0.262500X0*%
%ADD29C,5.500000*%
%ADD30RoundRect,0.135000X0.185000X-0.135000X0.185000X0.135000X-0.185000X0.135000X-0.185000X-0.135000X0*%
%ADD31RoundRect,0.250000X2.500000X-0.250000X2.500000X0.250000X-2.500000X0.250000X-2.500000X-0.250000X0*%
%ADD32RoundRect,0.250000X1.250000X-0.550000X1.250000X0.550000X-1.250000X0.550000X-1.250000X-0.550000X0*%
%ADD33RoundRect,0.250000X-1.250000X-0.550000X1.250000X-0.550000X1.250000X0.550000X-1.250000X0.550000X0*%
%ADD34RoundRect,0.250000X0.312500X0.625000X-0.312500X0.625000X-0.312500X-0.625000X0.312500X-0.625000X0*%
%ADD35R,1.200000X0.700000*%
%ADD36R,0.800000X1.000000*%
%ADD37R,1.200000X1.000000*%
%ADD38R,2.800000X1.000000*%
%ADD39R,1.900000X1.300000*%
%ADD40C,1.500000*%
%ADD41RoundRect,0.250000X-0.725000X0.600000X-0.725000X-0.600000X0.725000X-0.600000X0.725000X0.600000X0*%
%ADD42O,1.950000X1.700000*%
%ADD43RoundRect,0.250000X0.375000X1.075000X-0.375000X1.075000X-0.375000X-1.075000X0.375000X-1.075000X0*%
%ADD44RoundRect,0.250000X-0.550000X1.250000X-0.550000X-1.250000X0.550000X-1.250000X0.550000X1.250000X0*%
%ADD45C,0.800000*%
G04 #@! TA.AperFunction,Profile*
%ADD46C,0.100000*%
G04 #@! TD*
G04 APERTURE END LIST*
D10*
X208572398Y-113710771D02*
X208372398Y-113425057D01*
X208229541Y-113710771D02*
X208229541Y-113110771D01*
X208229541Y-113110771D02*
X208458112Y-113110771D01*
X208458112Y-113110771D02*
X208515255Y-113139342D01*
X208515255Y-113139342D02*
X208543826Y-113167914D01*
X208543826Y-113167914D02*
X208572398Y-113225057D01*
X208572398Y-113225057D02*
X208572398Y-113310771D01*
X208572398Y-113310771D02*
X208543826Y-113367914D01*
X208543826Y-113367914D02*
X208515255Y-113396485D01*
X208515255Y-113396485D02*
X208458112Y-113425057D01*
X208458112Y-113425057D02*
X208229541Y-113425057D01*
X208800969Y-113682200D02*
X208886684Y-113710771D01*
X208886684Y-113710771D02*
X209029541Y-113710771D01*
X209029541Y-113710771D02*
X209086684Y-113682200D01*
X209086684Y-113682200D02*
X209115255Y-113653628D01*
X209115255Y-113653628D02*
X209143826Y-113596485D01*
X209143826Y-113596485D02*
X209143826Y-113539342D01*
X209143826Y-113539342D02*
X209115255Y-113482200D01*
X209115255Y-113482200D02*
X209086684Y-113453628D01*
X209086684Y-113453628D02*
X209029541Y-113425057D01*
X209029541Y-113425057D02*
X208915255Y-113396485D01*
X208915255Y-113396485D02*
X208858112Y-113367914D01*
X208858112Y-113367914D02*
X208829541Y-113339342D01*
X208829541Y-113339342D02*
X208800969Y-113282200D01*
X208800969Y-113282200D02*
X208800969Y-113225057D01*
X208800969Y-113225057D02*
X208829541Y-113167914D01*
X208829541Y-113167914D02*
X208858112Y-113139342D01*
X208858112Y-113139342D02*
X208915255Y-113110771D01*
X208915255Y-113110771D02*
X209058112Y-113110771D01*
X209058112Y-113110771D02*
X209143826Y-113139342D01*
X209315255Y-113110771D02*
X209658113Y-113110771D01*
X209486684Y-113710771D02*
X209486684Y-113110771D01*
X126431922Y-126631819D02*
X126765255Y-127631819D01*
X126765255Y-127631819D02*
X127098588Y-126631819D01*
X127431922Y-127250866D02*
X128193827Y-127250866D01*
X127812874Y-127631819D02*
X127812874Y-126869914D01*
X178755922Y-125869819D02*
X179089255Y-126869819D01*
X179089255Y-126869819D02*
X179422588Y-125869819D01*
X179755922Y-126488866D02*
X180517827Y-126488866D01*
X180136874Y-126869819D02*
X180136874Y-126107914D01*
X208167826Y-104358771D02*
X208510684Y-104358771D01*
X208339255Y-104958771D02*
X208339255Y-104358771D01*
X208653541Y-104958771D02*
X208967827Y-104558771D01*
X208653541Y-104558771D02*
X208967827Y-104958771D01*
X212115826Y-107377342D02*
X212058684Y-107348771D01*
X212058684Y-107348771D02*
X211972969Y-107348771D01*
X211972969Y-107348771D02*
X211887255Y-107377342D01*
X211887255Y-107377342D02*
X211830112Y-107434485D01*
X211830112Y-107434485D02*
X211801541Y-107491628D01*
X211801541Y-107491628D02*
X211772969Y-107605914D01*
X211772969Y-107605914D02*
X211772969Y-107691628D01*
X211772969Y-107691628D02*
X211801541Y-107805914D01*
X211801541Y-107805914D02*
X211830112Y-107863057D01*
X211830112Y-107863057D02*
X211887255Y-107920200D01*
X211887255Y-107920200D02*
X211972969Y-107948771D01*
X211972969Y-107948771D02*
X212030112Y-107948771D01*
X212030112Y-107948771D02*
X212115826Y-107920200D01*
X212115826Y-107920200D02*
X212144398Y-107891628D01*
X212144398Y-107891628D02*
X212144398Y-107691628D01*
X212144398Y-107691628D02*
X212030112Y-107691628D01*
X212401541Y-107948771D02*
X212401541Y-107348771D01*
X212401541Y-107348771D02*
X212744398Y-107948771D01*
X212744398Y-107948771D02*
X212744398Y-107348771D01*
X213030112Y-107948771D02*
X213030112Y-107348771D01*
X213030112Y-107348771D02*
X213172969Y-107348771D01*
X213172969Y-107348771D02*
X213258683Y-107377342D01*
X213258683Y-107377342D02*
X213315826Y-107434485D01*
X213315826Y-107434485D02*
X213344397Y-107491628D01*
X213344397Y-107491628D02*
X213372969Y-107605914D01*
X213372969Y-107605914D02*
X213372969Y-107691628D01*
X213372969Y-107691628D02*
X213344397Y-107805914D01*
X213344397Y-107805914D02*
X213315826Y-107863057D01*
X213315826Y-107863057D02*
X213258683Y-107920200D01*
X213258683Y-107920200D02*
X213172969Y-107948771D01*
X213172969Y-107948771D02*
X213030112Y-107948771D01*
X189423922Y-125869819D02*
X189757255Y-126869819D01*
X189757255Y-126869819D02*
X190090588Y-125869819D01*
X190423922Y-126488866D02*
X191185827Y-126488866D01*
X190804874Y-126869819D02*
X190804874Y-126107914D01*
X208509255Y-99528771D02*
X208223541Y-99528771D01*
X208223541Y-99528771D02*
X208194969Y-99814485D01*
X208194969Y-99814485D02*
X208223541Y-99785914D01*
X208223541Y-99785914D02*
X208280684Y-99757342D01*
X208280684Y-99757342D02*
X208423541Y-99757342D01*
X208423541Y-99757342D02*
X208480684Y-99785914D01*
X208480684Y-99785914D02*
X208509255Y-99814485D01*
X208509255Y-99814485D02*
X208537826Y-99871628D01*
X208537826Y-99871628D02*
X208537826Y-100014485D01*
X208537826Y-100014485D02*
X208509255Y-100071628D01*
X208509255Y-100071628D02*
X208480684Y-100100200D01*
X208480684Y-100100200D02*
X208423541Y-100128771D01*
X208423541Y-100128771D02*
X208280684Y-100128771D01*
X208280684Y-100128771D02*
X208223541Y-100100200D01*
X208223541Y-100100200D02*
X208194969Y-100071628D01*
X208709255Y-99528771D02*
X208909255Y-100128771D01*
X208909255Y-100128771D02*
X209109255Y-99528771D01*
X208526398Y-102548771D02*
X208326398Y-102263057D01*
X208183541Y-102548771D02*
X208183541Y-101948771D01*
X208183541Y-101948771D02*
X208412112Y-101948771D01*
X208412112Y-101948771D02*
X208469255Y-101977342D01*
X208469255Y-101977342D02*
X208497826Y-102005914D01*
X208497826Y-102005914D02*
X208526398Y-102063057D01*
X208526398Y-102063057D02*
X208526398Y-102148771D01*
X208526398Y-102148771D02*
X208497826Y-102205914D01*
X208497826Y-102205914D02*
X208469255Y-102234485D01*
X208469255Y-102234485D02*
X208412112Y-102263057D01*
X208412112Y-102263057D02*
X208183541Y-102263057D01*
X208726398Y-102548771D02*
X209040684Y-102148771D01*
X208726398Y-102148771D02*
X209040684Y-102548771D01*
X141478095Y-72534819D02*
X141478095Y-73344342D01*
X141478095Y-73344342D02*
X141525714Y-73439580D01*
X141525714Y-73439580D02*
X141573333Y-73487200D01*
X141573333Y-73487200D02*
X141668571Y-73534819D01*
X141668571Y-73534819D02*
X141859047Y-73534819D01*
X141859047Y-73534819D02*
X141954285Y-73487200D01*
X141954285Y-73487200D02*
X142001904Y-73439580D01*
X142001904Y-73439580D02*
X142049523Y-73344342D01*
X142049523Y-73344342D02*
X142049523Y-72534819D01*
X142430476Y-72534819D02*
X143049523Y-72534819D01*
X143049523Y-72534819D02*
X142716190Y-72915771D01*
X142716190Y-72915771D02*
X142859047Y-72915771D01*
X142859047Y-72915771D02*
X142954285Y-72963390D01*
X142954285Y-72963390D02*
X143001904Y-73011009D01*
X143001904Y-73011009D02*
X143049523Y-73106247D01*
X143049523Y-73106247D02*
X143049523Y-73344342D01*
X143049523Y-73344342D02*
X143001904Y-73439580D01*
X143001904Y-73439580D02*
X142954285Y-73487200D01*
X142954285Y-73487200D02*
X142859047Y-73534819D01*
X142859047Y-73534819D02*
X142573333Y-73534819D01*
X142573333Y-73534819D02*
X142478095Y-73487200D01*
X142478095Y-73487200D02*
X142430476Y-73439580D01*
X182461905Y-126154819D02*
X182461905Y-125154819D01*
X182461905Y-125154819D02*
X182842857Y-125154819D01*
X182842857Y-125154819D02*
X182938095Y-125202438D01*
X182938095Y-125202438D02*
X182985714Y-125250057D01*
X182985714Y-125250057D02*
X183033333Y-125345295D01*
X183033333Y-125345295D02*
X183033333Y-125488152D01*
X183033333Y-125488152D02*
X182985714Y-125583390D01*
X182985714Y-125583390D02*
X182938095Y-125631009D01*
X182938095Y-125631009D02*
X182842857Y-125678628D01*
X182842857Y-125678628D02*
X182461905Y-125678628D01*
X183414286Y-125250057D02*
X183461905Y-125202438D01*
X183461905Y-125202438D02*
X183557143Y-125154819D01*
X183557143Y-125154819D02*
X183795238Y-125154819D01*
X183795238Y-125154819D02*
X183890476Y-125202438D01*
X183890476Y-125202438D02*
X183938095Y-125250057D01*
X183938095Y-125250057D02*
X183985714Y-125345295D01*
X183985714Y-125345295D02*
X183985714Y-125440533D01*
X183985714Y-125440533D02*
X183938095Y-125583390D01*
X183938095Y-125583390D02*
X183366667Y-126154819D01*
X183366667Y-126154819D02*
X183985714Y-126154819D01*
X160404819Y-120866666D02*
X159928628Y-121199999D01*
X160404819Y-121438094D02*
X159404819Y-121438094D01*
X159404819Y-121438094D02*
X159404819Y-121057142D01*
X159404819Y-121057142D02*
X159452438Y-120961904D01*
X159452438Y-120961904D02*
X159500057Y-120914285D01*
X159500057Y-120914285D02*
X159595295Y-120866666D01*
X159595295Y-120866666D02*
X159738152Y-120866666D01*
X159738152Y-120866666D02*
X159833390Y-120914285D01*
X159833390Y-120914285D02*
X159881009Y-120961904D01*
X159881009Y-120961904D02*
X159928628Y-121057142D01*
X159928628Y-121057142D02*
X159928628Y-121438094D01*
X159738152Y-120009523D02*
X160404819Y-120009523D01*
X159357200Y-120247618D02*
X160071485Y-120485713D01*
X160071485Y-120485713D02*
X160071485Y-119866666D01*
X150666666Y-132504819D02*
X150666666Y-133219104D01*
X150666666Y-133219104D02*
X150619047Y-133361961D01*
X150619047Y-133361961D02*
X150523809Y-133457200D01*
X150523809Y-133457200D02*
X150380952Y-133504819D01*
X150380952Y-133504819D02*
X150285714Y-133504819D01*
X151047619Y-132504819D02*
X151666666Y-132504819D01*
X151666666Y-132504819D02*
X151333333Y-132885771D01*
X151333333Y-132885771D02*
X151476190Y-132885771D01*
X151476190Y-132885771D02*
X151571428Y-132933390D01*
X151571428Y-132933390D02*
X151619047Y-132981009D01*
X151619047Y-132981009D02*
X151666666Y-133076247D01*
X151666666Y-133076247D02*
X151666666Y-133314342D01*
X151666666Y-133314342D02*
X151619047Y-133409580D01*
X151619047Y-133409580D02*
X151571428Y-133457200D01*
X151571428Y-133457200D02*
X151476190Y-133504819D01*
X151476190Y-133504819D02*
X151190476Y-133504819D01*
X151190476Y-133504819D02*
X151095238Y-133457200D01*
X151095238Y-133457200D02*
X151047619Y-133409580D01*
X179665333Y-71065819D02*
X179332000Y-70589628D01*
X179093905Y-71065819D02*
X179093905Y-70065819D01*
X179093905Y-70065819D02*
X179474857Y-70065819D01*
X179474857Y-70065819D02*
X179570095Y-70113438D01*
X179570095Y-70113438D02*
X179617714Y-70161057D01*
X179617714Y-70161057D02*
X179665333Y-70256295D01*
X179665333Y-70256295D02*
X179665333Y-70399152D01*
X179665333Y-70399152D02*
X179617714Y-70494390D01*
X179617714Y-70494390D02*
X179570095Y-70542009D01*
X179570095Y-70542009D02*
X179474857Y-70589628D01*
X179474857Y-70589628D02*
X179093905Y-70589628D01*
X180617714Y-71065819D02*
X180046286Y-71065819D01*
X180332000Y-71065819D02*
X180332000Y-70065819D01*
X180332000Y-70065819D02*
X180236762Y-70208676D01*
X180236762Y-70208676D02*
X180141524Y-70303914D01*
X180141524Y-70303914D02*
X180046286Y-70351533D01*
X196566666Y-125254819D02*
X196566666Y-125969104D01*
X196566666Y-125969104D02*
X196519047Y-126111961D01*
X196519047Y-126111961D02*
X196423809Y-126207200D01*
X196423809Y-126207200D02*
X196280952Y-126254819D01*
X196280952Y-126254819D02*
X196185714Y-126254819D01*
X197566666Y-126254819D02*
X196995238Y-126254819D01*
X197280952Y-126254819D02*
X197280952Y-125254819D01*
X197280952Y-125254819D02*
X197185714Y-125397676D01*
X197185714Y-125397676D02*
X197090476Y-125492914D01*
X197090476Y-125492914D02*
X196995238Y-125540533D01*
X209170094Y-124749580D02*
X209122475Y-124797200D01*
X209122475Y-124797200D02*
X208979618Y-124844819D01*
X208979618Y-124844819D02*
X208884380Y-124844819D01*
X208884380Y-124844819D02*
X208741523Y-124797200D01*
X208741523Y-124797200D02*
X208646285Y-124701961D01*
X208646285Y-124701961D02*
X208598666Y-124606723D01*
X208598666Y-124606723D02*
X208551047Y-124416247D01*
X208551047Y-124416247D02*
X208551047Y-124273390D01*
X208551047Y-124273390D02*
X208598666Y-124082914D01*
X208598666Y-124082914D02*
X208646285Y-123987676D01*
X208646285Y-123987676D02*
X208741523Y-123892438D01*
X208741523Y-123892438D02*
X208884380Y-123844819D01*
X208884380Y-123844819D02*
X208979618Y-123844819D01*
X208979618Y-123844819D02*
X209122475Y-123892438D01*
X209122475Y-123892438D02*
X209170094Y-123940057D01*
X209360571Y-124940057D02*
X210122475Y-124940057D01*
X210931999Y-124844819D02*
X210598666Y-124368628D01*
X210360571Y-124844819D02*
X210360571Y-123844819D01*
X210360571Y-123844819D02*
X210741523Y-123844819D01*
X210741523Y-123844819D02*
X210836761Y-123892438D01*
X210836761Y-123892438D02*
X210884380Y-123940057D01*
X210884380Y-123940057D02*
X210931999Y-124035295D01*
X210931999Y-124035295D02*
X210931999Y-124178152D01*
X210931999Y-124178152D02*
X210884380Y-124273390D01*
X210884380Y-124273390D02*
X210836761Y-124321009D01*
X210836761Y-124321009D02*
X210741523Y-124368628D01*
X210741523Y-124368628D02*
X210360571Y-124368628D01*
X211312952Y-124797200D02*
X211408190Y-124844819D01*
X211408190Y-124844819D02*
X211598666Y-124844819D01*
X211598666Y-124844819D02*
X211693904Y-124797200D01*
X211693904Y-124797200D02*
X211741523Y-124701961D01*
X211741523Y-124701961D02*
X211741523Y-124654342D01*
X211741523Y-124654342D02*
X211693904Y-124559104D01*
X211693904Y-124559104D02*
X211598666Y-124511485D01*
X211598666Y-124511485D02*
X211455809Y-124511485D01*
X211455809Y-124511485D02*
X211360571Y-124463866D01*
X211360571Y-124463866D02*
X211312952Y-124368628D01*
X211312952Y-124368628D02*
X211312952Y-124321009D01*
X211312952Y-124321009D02*
X211360571Y-124225771D01*
X211360571Y-124225771D02*
X211455809Y-124178152D01*
X211455809Y-124178152D02*
X211598666Y-124178152D01*
X211598666Y-124178152D02*
X211693904Y-124225771D01*
X212027238Y-124178152D02*
X212408190Y-124178152D01*
X212170095Y-123844819D02*
X212170095Y-124701961D01*
X212170095Y-124701961D02*
X212217714Y-124797200D01*
X212217714Y-124797200D02*
X212312952Y-124844819D01*
X212312952Y-124844819D02*
X212408190Y-124844819D01*
X107054819Y-100933333D02*
X107769104Y-100933333D01*
X107769104Y-100933333D02*
X107911961Y-100980952D01*
X107911961Y-100980952D02*
X108007200Y-101076190D01*
X108007200Y-101076190D02*
X108054819Y-101219047D01*
X108054819Y-101219047D02*
X108054819Y-101314285D01*
X107054819Y-100552380D02*
X107054819Y-99885714D01*
X107054819Y-99885714D02*
X108054819Y-100314285D01*
X106904819Y-112433333D02*
X107619104Y-112433333D01*
X107619104Y-112433333D02*
X107761961Y-112480952D01*
X107761961Y-112480952D02*
X107857200Y-112576190D01*
X107857200Y-112576190D02*
X107904819Y-112719047D01*
X107904819Y-112719047D02*
X107904819Y-112814285D01*
X107904819Y-111909523D02*
X107904819Y-111719047D01*
X107904819Y-111719047D02*
X107857200Y-111623809D01*
X107857200Y-111623809D02*
X107809580Y-111576190D01*
X107809580Y-111576190D02*
X107666723Y-111480952D01*
X107666723Y-111480952D02*
X107476247Y-111433333D01*
X107476247Y-111433333D02*
X107095295Y-111433333D01*
X107095295Y-111433333D02*
X107000057Y-111480952D01*
X107000057Y-111480952D02*
X106952438Y-111528571D01*
X106952438Y-111528571D02*
X106904819Y-111623809D01*
X106904819Y-111623809D02*
X106904819Y-111814285D01*
X106904819Y-111814285D02*
X106952438Y-111909523D01*
X106952438Y-111909523D02*
X107000057Y-111957142D01*
X107000057Y-111957142D02*
X107095295Y-112004761D01*
X107095295Y-112004761D02*
X107333390Y-112004761D01*
X107333390Y-112004761D02*
X107428628Y-111957142D01*
X107428628Y-111957142D02*
X107476247Y-111909523D01*
X107476247Y-111909523D02*
X107523866Y-111814285D01*
X107523866Y-111814285D02*
X107523866Y-111623809D01*
X107523866Y-111623809D02*
X107476247Y-111528571D01*
X107476247Y-111528571D02*
X107428628Y-111480952D01*
X107428628Y-111480952D02*
X107333390Y-111433333D01*
X193129819Y-99186904D02*
X193939342Y-99186904D01*
X193939342Y-99186904D02*
X194034580Y-99139285D01*
X194034580Y-99139285D02*
X194082200Y-99091666D01*
X194082200Y-99091666D02*
X194129819Y-98996428D01*
X194129819Y-98996428D02*
X194129819Y-98805952D01*
X194129819Y-98805952D02*
X194082200Y-98710714D01*
X194082200Y-98710714D02*
X194034580Y-98663095D01*
X194034580Y-98663095D02*
X193939342Y-98615476D01*
X193939342Y-98615476D02*
X193129819Y-98615476D01*
X194129819Y-97615476D02*
X194129819Y-98186904D01*
X194129819Y-97901190D02*
X193129819Y-97901190D01*
X193129819Y-97901190D02*
X193272676Y-97996428D01*
X193272676Y-97996428D02*
X193367914Y-98091666D01*
X193367914Y-98091666D02*
X193415533Y-98186904D01*
X139533333Y-121486819D02*
X139200000Y-121010628D01*
X138961905Y-121486819D02*
X138961905Y-120486819D01*
X138961905Y-120486819D02*
X139342857Y-120486819D01*
X139342857Y-120486819D02*
X139438095Y-120534438D01*
X139438095Y-120534438D02*
X139485714Y-120582057D01*
X139485714Y-120582057D02*
X139533333Y-120677295D01*
X139533333Y-120677295D02*
X139533333Y-120820152D01*
X139533333Y-120820152D02*
X139485714Y-120915390D01*
X139485714Y-120915390D02*
X139438095Y-120963009D01*
X139438095Y-120963009D02*
X139342857Y-121010628D01*
X139342857Y-121010628D02*
X138961905Y-121010628D01*
X139866667Y-120486819D02*
X140485714Y-120486819D01*
X140485714Y-120486819D02*
X140152381Y-120867771D01*
X140152381Y-120867771D02*
X140295238Y-120867771D01*
X140295238Y-120867771D02*
X140390476Y-120915390D01*
X140390476Y-120915390D02*
X140438095Y-120963009D01*
X140438095Y-120963009D02*
X140485714Y-121058247D01*
X140485714Y-121058247D02*
X140485714Y-121296342D01*
X140485714Y-121296342D02*
X140438095Y-121391580D01*
X140438095Y-121391580D02*
X140390476Y-121439200D01*
X140390476Y-121439200D02*
X140295238Y-121486819D01*
X140295238Y-121486819D02*
X140009524Y-121486819D01*
X140009524Y-121486819D02*
X139914286Y-121439200D01*
X139914286Y-121439200D02*
X139866667Y-121391580D01*
X128270095Y-116040819D02*
X128270095Y-116850342D01*
X128270095Y-116850342D02*
X128317714Y-116945580D01*
X128317714Y-116945580D02*
X128365333Y-116993200D01*
X128365333Y-116993200D02*
X128460571Y-117040819D01*
X128460571Y-117040819D02*
X128651047Y-117040819D01*
X128651047Y-117040819D02*
X128746285Y-116993200D01*
X128746285Y-116993200D02*
X128793904Y-116945580D01*
X128793904Y-116945580D02*
X128841523Y-116850342D01*
X128841523Y-116850342D02*
X128841523Y-116040819D01*
X129746285Y-116374152D02*
X129746285Y-117040819D01*
X129508190Y-115993200D02*
X129270095Y-116707485D01*
X129270095Y-116707485D02*
X129889142Y-116707485D01*
X162560095Y-115024819D02*
X162560095Y-115834342D01*
X162560095Y-115834342D02*
X162607714Y-115929580D01*
X162607714Y-115929580D02*
X162655333Y-115977200D01*
X162655333Y-115977200D02*
X162750571Y-116024819D01*
X162750571Y-116024819D02*
X162941047Y-116024819D01*
X162941047Y-116024819D02*
X163036285Y-115977200D01*
X163036285Y-115977200D02*
X163083904Y-115929580D01*
X163083904Y-115929580D02*
X163131523Y-115834342D01*
X163131523Y-115834342D02*
X163131523Y-115024819D01*
X163560095Y-115120057D02*
X163607714Y-115072438D01*
X163607714Y-115072438D02*
X163702952Y-115024819D01*
X163702952Y-115024819D02*
X163941047Y-115024819D01*
X163941047Y-115024819D02*
X164036285Y-115072438D01*
X164036285Y-115072438D02*
X164083904Y-115120057D01*
X164083904Y-115120057D02*
X164131523Y-115215295D01*
X164131523Y-115215295D02*
X164131523Y-115310533D01*
X164131523Y-115310533D02*
X164083904Y-115453390D01*
X164083904Y-115453390D02*
X163512476Y-116024819D01*
X163512476Y-116024819D02*
X164131523Y-116024819D01*
X153744819Y-100750666D02*
X153268628Y-101083999D01*
X153744819Y-101322094D02*
X152744819Y-101322094D01*
X152744819Y-101322094D02*
X152744819Y-100941142D01*
X152744819Y-100941142D02*
X152792438Y-100845904D01*
X152792438Y-100845904D02*
X152840057Y-100798285D01*
X152840057Y-100798285D02*
X152935295Y-100750666D01*
X152935295Y-100750666D02*
X153078152Y-100750666D01*
X153078152Y-100750666D02*
X153173390Y-100798285D01*
X153173390Y-100798285D02*
X153221009Y-100845904D01*
X153221009Y-100845904D02*
X153268628Y-100941142D01*
X153268628Y-100941142D02*
X153268628Y-101322094D01*
X152744819Y-99845904D02*
X152744819Y-100322094D01*
X152744819Y-100322094D02*
X153221009Y-100369713D01*
X153221009Y-100369713D02*
X153173390Y-100322094D01*
X153173390Y-100322094D02*
X153125771Y-100226856D01*
X153125771Y-100226856D02*
X153125771Y-99988761D01*
X153125771Y-99988761D02*
X153173390Y-99893523D01*
X153173390Y-99893523D02*
X153221009Y-99845904D01*
X153221009Y-99845904D02*
X153316247Y-99798285D01*
X153316247Y-99798285D02*
X153554342Y-99798285D01*
X153554342Y-99798285D02*
X153649580Y-99845904D01*
X153649580Y-99845904D02*
X153697200Y-99893523D01*
X153697200Y-99893523D02*
X153744819Y-99988761D01*
X153744819Y-99988761D02*
X153744819Y-100226856D01*
X153744819Y-100226856D02*
X153697200Y-100322094D01*
X153697200Y-100322094D02*
X153649580Y-100369713D01*
X208234819Y-110456666D02*
X207758628Y-110789999D01*
X208234819Y-111028094D02*
X207234819Y-111028094D01*
X207234819Y-111028094D02*
X207234819Y-110647142D01*
X207234819Y-110647142D02*
X207282438Y-110551904D01*
X207282438Y-110551904D02*
X207330057Y-110504285D01*
X207330057Y-110504285D02*
X207425295Y-110456666D01*
X207425295Y-110456666D02*
X207568152Y-110456666D01*
X207568152Y-110456666D02*
X207663390Y-110504285D01*
X207663390Y-110504285D02*
X207711009Y-110551904D01*
X207711009Y-110551904D02*
X207758628Y-110647142D01*
X207758628Y-110647142D02*
X207758628Y-111028094D01*
X207234819Y-109837618D02*
X207234819Y-109742380D01*
X207234819Y-109742380D02*
X207282438Y-109647142D01*
X207282438Y-109647142D02*
X207330057Y-109599523D01*
X207330057Y-109599523D02*
X207425295Y-109551904D01*
X207425295Y-109551904D02*
X207615771Y-109504285D01*
X207615771Y-109504285D02*
X207853866Y-109504285D01*
X207853866Y-109504285D02*
X208044342Y-109551904D01*
X208044342Y-109551904D02*
X208139580Y-109599523D01*
X208139580Y-109599523D02*
X208187200Y-109647142D01*
X208187200Y-109647142D02*
X208234819Y-109742380D01*
X208234819Y-109742380D02*
X208234819Y-109837618D01*
X208234819Y-109837618D02*
X208187200Y-109932856D01*
X208187200Y-109932856D02*
X208139580Y-109980475D01*
X208139580Y-109980475D02*
X208044342Y-110028094D01*
X208044342Y-110028094D02*
X207853866Y-110075713D01*
X207853866Y-110075713D02*
X207615771Y-110075713D01*
X207615771Y-110075713D02*
X207425295Y-110028094D01*
X207425295Y-110028094D02*
X207330057Y-109980475D01*
X207330057Y-109980475D02*
X207282438Y-109932856D01*
X207282438Y-109932856D02*
X207234819Y-109837618D01*
X178304819Y-109033333D02*
X179019104Y-109033333D01*
X179019104Y-109033333D02*
X179161961Y-109080952D01*
X179161961Y-109080952D02*
X179257200Y-109176190D01*
X179257200Y-109176190D02*
X179304819Y-109319047D01*
X179304819Y-109319047D02*
X179304819Y-109414285D01*
X178400057Y-108604761D02*
X178352438Y-108557142D01*
X178352438Y-108557142D02*
X178304819Y-108461904D01*
X178304819Y-108461904D02*
X178304819Y-108223809D01*
X178304819Y-108223809D02*
X178352438Y-108128571D01*
X178352438Y-108128571D02*
X178400057Y-108080952D01*
X178400057Y-108080952D02*
X178495295Y-108033333D01*
X178495295Y-108033333D02*
X178590533Y-108033333D01*
X178590533Y-108033333D02*
X178733390Y-108080952D01*
X178733390Y-108080952D02*
X179304819Y-108652380D01*
X179304819Y-108652380D02*
X179304819Y-108033333D01*
X125961905Y-134304819D02*
X125961905Y-133304819D01*
X125961905Y-133304819D02*
X126342857Y-133304819D01*
X126342857Y-133304819D02*
X126438095Y-133352438D01*
X126438095Y-133352438D02*
X126485714Y-133400057D01*
X126485714Y-133400057D02*
X126533333Y-133495295D01*
X126533333Y-133495295D02*
X126533333Y-133638152D01*
X126533333Y-133638152D02*
X126485714Y-133733390D01*
X126485714Y-133733390D02*
X126438095Y-133781009D01*
X126438095Y-133781009D02*
X126342857Y-133828628D01*
X126342857Y-133828628D02*
X125961905Y-133828628D01*
X127485714Y-134304819D02*
X126914286Y-134304819D01*
X127200000Y-134304819D02*
X127200000Y-133304819D01*
X127200000Y-133304819D02*
X127104762Y-133447676D01*
X127104762Y-133447676D02*
X127009524Y-133542914D01*
X127009524Y-133542914D02*
X126914286Y-133590533D01*
X107054819Y-87433333D02*
X107769104Y-87433333D01*
X107769104Y-87433333D02*
X107911961Y-87480952D01*
X107911961Y-87480952D02*
X108007200Y-87576190D01*
X108007200Y-87576190D02*
X108054819Y-87719047D01*
X108054819Y-87719047D02*
X108054819Y-87814285D01*
X107054819Y-86480952D02*
X107054819Y-86957142D01*
X107054819Y-86957142D02*
X107531009Y-87004761D01*
X107531009Y-87004761D02*
X107483390Y-86957142D01*
X107483390Y-86957142D02*
X107435771Y-86861904D01*
X107435771Y-86861904D02*
X107435771Y-86623809D01*
X107435771Y-86623809D02*
X107483390Y-86528571D01*
X107483390Y-86528571D02*
X107531009Y-86480952D01*
X107531009Y-86480952D02*
X107626247Y-86433333D01*
X107626247Y-86433333D02*
X107864342Y-86433333D01*
X107864342Y-86433333D02*
X107959580Y-86480952D01*
X107959580Y-86480952D02*
X108007200Y-86528571D01*
X108007200Y-86528571D02*
X108054819Y-86623809D01*
X108054819Y-86623809D02*
X108054819Y-86861904D01*
X108054819Y-86861904D02*
X108007200Y-86957142D01*
X108007200Y-86957142D02*
X107959580Y-87004761D01*
X105604819Y-112909523D02*
X106319104Y-112909523D01*
X106319104Y-112909523D02*
X106461961Y-112957142D01*
X106461961Y-112957142D02*
X106557200Y-113052380D01*
X106557200Y-113052380D02*
X106604819Y-113195237D01*
X106604819Y-113195237D02*
X106604819Y-113290475D01*
X106604819Y-111909523D02*
X106604819Y-112480951D01*
X106604819Y-112195237D02*
X105604819Y-112195237D01*
X105604819Y-112195237D02*
X105747676Y-112290475D01*
X105747676Y-112290475D02*
X105842914Y-112385713D01*
X105842914Y-112385713D02*
X105890533Y-112480951D01*
X105604819Y-111290475D02*
X105604819Y-111195237D01*
X105604819Y-111195237D02*
X105652438Y-111099999D01*
X105652438Y-111099999D02*
X105700057Y-111052380D01*
X105700057Y-111052380D02*
X105795295Y-111004761D01*
X105795295Y-111004761D02*
X105985771Y-110957142D01*
X105985771Y-110957142D02*
X106223866Y-110957142D01*
X106223866Y-110957142D02*
X106414342Y-111004761D01*
X106414342Y-111004761D02*
X106509580Y-111052380D01*
X106509580Y-111052380D02*
X106557200Y-111099999D01*
X106557200Y-111099999D02*
X106604819Y-111195237D01*
X106604819Y-111195237D02*
X106604819Y-111290475D01*
X106604819Y-111290475D02*
X106557200Y-111385713D01*
X106557200Y-111385713D02*
X106509580Y-111433332D01*
X106509580Y-111433332D02*
X106414342Y-111480951D01*
X106414342Y-111480951D02*
X106223866Y-111528570D01*
X106223866Y-111528570D02*
X105985771Y-111528570D01*
X105985771Y-111528570D02*
X105795295Y-111480951D01*
X105795295Y-111480951D02*
X105700057Y-111433332D01*
X105700057Y-111433332D02*
X105652438Y-111385713D01*
X105652438Y-111385713D02*
X105604819Y-111290475D01*
X105754819Y-100933333D02*
X106469104Y-100933333D01*
X106469104Y-100933333D02*
X106611961Y-100980952D01*
X106611961Y-100980952D02*
X106707200Y-101076190D01*
X106707200Y-101076190D02*
X106754819Y-101219047D01*
X106754819Y-101219047D02*
X106754819Y-101314285D01*
X106183390Y-100314285D02*
X106135771Y-100409523D01*
X106135771Y-100409523D02*
X106088152Y-100457142D01*
X106088152Y-100457142D02*
X105992914Y-100504761D01*
X105992914Y-100504761D02*
X105945295Y-100504761D01*
X105945295Y-100504761D02*
X105850057Y-100457142D01*
X105850057Y-100457142D02*
X105802438Y-100409523D01*
X105802438Y-100409523D02*
X105754819Y-100314285D01*
X105754819Y-100314285D02*
X105754819Y-100123809D01*
X105754819Y-100123809D02*
X105802438Y-100028571D01*
X105802438Y-100028571D02*
X105850057Y-99980952D01*
X105850057Y-99980952D02*
X105945295Y-99933333D01*
X105945295Y-99933333D02*
X105992914Y-99933333D01*
X105992914Y-99933333D02*
X106088152Y-99980952D01*
X106088152Y-99980952D02*
X106135771Y-100028571D01*
X106135771Y-100028571D02*
X106183390Y-100123809D01*
X106183390Y-100123809D02*
X106183390Y-100314285D01*
X106183390Y-100314285D02*
X106231009Y-100409523D01*
X106231009Y-100409523D02*
X106278628Y-100457142D01*
X106278628Y-100457142D02*
X106373866Y-100504761D01*
X106373866Y-100504761D02*
X106564342Y-100504761D01*
X106564342Y-100504761D02*
X106659580Y-100457142D01*
X106659580Y-100457142D02*
X106707200Y-100409523D01*
X106707200Y-100409523D02*
X106754819Y-100314285D01*
X106754819Y-100314285D02*
X106754819Y-100123809D01*
X106754819Y-100123809D02*
X106707200Y-100028571D01*
X106707200Y-100028571D02*
X106659580Y-99980952D01*
X106659580Y-99980952D02*
X106564342Y-99933333D01*
X106564342Y-99933333D02*
X106373866Y-99933333D01*
X106373866Y-99933333D02*
X106278628Y-99980952D01*
X106278628Y-99980952D02*
X106231009Y-100028571D01*
X106231009Y-100028571D02*
X106183390Y-100123809D01*
X115911333Y-123913580D02*
X115863714Y-123961200D01*
X115863714Y-123961200D02*
X115720857Y-124008819D01*
X115720857Y-124008819D02*
X115625619Y-124008819D01*
X115625619Y-124008819D02*
X115482762Y-123961200D01*
X115482762Y-123961200D02*
X115387524Y-123865961D01*
X115387524Y-123865961D02*
X115339905Y-123770723D01*
X115339905Y-123770723D02*
X115292286Y-123580247D01*
X115292286Y-123580247D02*
X115292286Y-123437390D01*
X115292286Y-123437390D02*
X115339905Y-123246914D01*
X115339905Y-123246914D02*
X115387524Y-123151676D01*
X115387524Y-123151676D02*
X115482762Y-123056438D01*
X115482762Y-123056438D02*
X115625619Y-123008819D01*
X115625619Y-123008819D02*
X115720857Y-123008819D01*
X115720857Y-123008819D02*
X115863714Y-123056438D01*
X115863714Y-123056438D02*
X115911333Y-123104057D01*
X116244667Y-123008819D02*
X116863714Y-123008819D01*
X116863714Y-123008819D02*
X116530381Y-123389771D01*
X116530381Y-123389771D02*
X116673238Y-123389771D01*
X116673238Y-123389771D02*
X116768476Y-123437390D01*
X116768476Y-123437390D02*
X116816095Y-123485009D01*
X116816095Y-123485009D02*
X116863714Y-123580247D01*
X116863714Y-123580247D02*
X116863714Y-123818342D01*
X116863714Y-123818342D02*
X116816095Y-123913580D01*
X116816095Y-123913580D02*
X116768476Y-123961200D01*
X116768476Y-123961200D02*
X116673238Y-124008819D01*
X116673238Y-124008819D02*
X116387524Y-124008819D01*
X116387524Y-124008819D02*
X116292286Y-123961200D01*
X116292286Y-123961200D02*
X116244667Y-123913580D01*
X162647333Y-71108819D02*
X162314000Y-70632628D01*
X162075905Y-71108819D02*
X162075905Y-70108819D01*
X162075905Y-70108819D02*
X162456857Y-70108819D01*
X162456857Y-70108819D02*
X162552095Y-70156438D01*
X162552095Y-70156438D02*
X162599714Y-70204057D01*
X162599714Y-70204057D02*
X162647333Y-70299295D01*
X162647333Y-70299295D02*
X162647333Y-70442152D01*
X162647333Y-70442152D02*
X162599714Y-70537390D01*
X162599714Y-70537390D02*
X162552095Y-70585009D01*
X162552095Y-70585009D02*
X162456857Y-70632628D01*
X162456857Y-70632628D02*
X162075905Y-70632628D01*
X163028286Y-70204057D02*
X163075905Y-70156438D01*
X163075905Y-70156438D02*
X163171143Y-70108819D01*
X163171143Y-70108819D02*
X163409238Y-70108819D01*
X163409238Y-70108819D02*
X163504476Y-70156438D01*
X163504476Y-70156438D02*
X163552095Y-70204057D01*
X163552095Y-70204057D02*
X163599714Y-70299295D01*
X163599714Y-70299295D02*
X163599714Y-70394533D01*
X163599714Y-70394533D02*
X163552095Y-70537390D01*
X163552095Y-70537390D02*
X162980667Y-71108819D01*
X162980667Y-71108819D02*
X163599714Y-71108819D01*
X167104819Y-69966666D02*
X166628628Y-70299999D01*
X167104819Y-70538094D02*
X166104819Y-70538094D01*
X166104819Y-70538094D02*
X166104819Y-70157142D01*
X166104819Y-70157142D02*
X166152438Y-70061904D01*
X166152438Y-70061904D02*
X166200057Y-70014285D01*
X166200057Y-70014285D02*
X166295295Y-69966666D01*
X166295295Y-69966666D02*
X166438152Y-69966666D01*
X166438152Y-69966666D02*
X166533390Y-70014285D01*
X166533390Y-70014285D02*
X166581009Y-70061904D01*
X166581009Y-70061904D02*
X166628628Y-70157142D01*
X166628628Y-70157142D02*
X166628628Y-70538094D01*
X166104819Y-69109523D02*
X166104819Y-69299999D01*
X166104819Y-69299999D02*
X166152438Y-69395237D01*
X166152438Y-69395237D02*
X166200057Y-69442856D01*
X166200057Y-69442856D02*
X166342914Y-69538094D01*
X166342914Y-69538094D02*
X166533390Y-69585713D01*
X166533390Y-69585713D02*
X166914342Y-69585713D01*
X166914342Y-69585713D02*
X167009580Y-69538094D01*
X167009580Y-69538094D02*
X167057200Y-69490475D01*
X167057200Y-69490475D02*
X167104819Y-69395237D01*
X167104819Y-69395237D02*
X167104819Y-69204761D01*
X167104819Y-69204761D02*
X167057200Y-69109523D01*
X167057200Y-69109523D02*
X167009580Y-69061904D01*
X167009580Y-69061904D02*
X166914342Y-69014285D01*
X166914342Y-69014285D02*
X166676247Y-69014285D01*
X166676247Y-69014285D02*
X166581009Y-69061904D01*
X166581009Y-69061904D02*
X166533390Y-69109523D01*
X166533390Y-69109523D02*
X166485771Y-69204761D01*
X166485771Y-69204761D02*
X166485771Y-69395237D01*
X166485771Y-69395237D02*
X166533390Y-69490475D01*
X166533390Y-69490475D02*
X166581009Y-69538094D01*
X166581009Y-69538094D02*
X166676247Y-69585713D01*
X176959580Y-85866666D02*
X177007200Y-85914285D01*
X177007200Y-85914285D02*
X177054819Y-86057142D01*
X177054819Y-86057142D02*
X177054819Y-86152380D01*
X177054819Y-86152380D02*
X177007200Y-86295237D01*
X177007200Y-86295237D02*
X176911961Y-86390475D01*
X176911961Y-86390475D02*
X176816723Y-86438094D01*
X176816723Y-86438094D02*
X176626247Y-86485713D01*
X176626247Y-86485713D02*
X176483390Y-86485713D01*
X176483390Y-86485713D02*
X176292914Y-86438094D01*
X176292914Y-86438094D02*
X176197676Y-86390475D01*
X176197676Y-86390475D02*
X176102438Y-86295237D01*
X176102438Y-86295237D02*
X176054819Y-86152380D01*
X176054819Y-86152380D02*
X176054819Y-86057142D01*
X176054819Y-86057142D02*
X176102438Y-85914285D01*
X176102438Y-85914285D02*
X176150057Y-85866666D01*
X176054819Y-84961904D02*
X176054819Y-85438094D01*
X176054819Y-85438094D02*
X176531009Y-85485713D01*
X176531009Y-85485713D02*
X176483390Y-85438094D01*
X176483390Y-85438094D02*
X176435771Y-85342856D01*
X176435771Y-85342856D02*
X176435771Y-85104761D01*
X176435771Y-85104761D02*
X176483390Y-85009523D01*
X176483390Y-85009523D02*
X176531009Y-84961904D01*
X176531009Y-84961904D02*
X176626247Y-84914285D01*
X176626247Y-84914285D02*
X176864342Y-84914285D01*
X176864342Y-84914285D02*
X176959580Y-84961904D01*
X176959580Y-84961904D02*
X177007200Y-85009523D01*
X177007200Y-85009523D02*
X177054819Y-85104761D01*
X177054819Y-85104761D02*
X177054819Y-85342856D01*
X177054819Y-85342856D02*
X177007200Y-85438094D01*
X177007200Y-85438094D02*
X176959580Y-85485713D01*
X167473333Y-120357580D02*
X167425714Y-120405200D01*
X167425714Y-120405200D02*
X167282857Y-120452819D01*
X167282857Y-120452819D02*
X167187619Y-120452819D01*
X167187619Y-120452819D02*
X167044762Y-120405200D01*
X167044762Y-120405200D02*
X166949524Y-120309961D01*
X166949524Y-120309961D02*
X166901905Y-120214723D01*
X166901905Y-120214723D02*
X166854286Y-120024247D01*
X166854286Y-120024247D02*
X166854286Y-119881390D01*
X166854286Y-119881390D02*
X166901905Y-119690914D01*
X166901905Y-119690914D02*
X166949524Y-119595676D01*
X166949524Y-119595676D02*
X167044762Y-119500438D01*
X167044762Y-119500438D02*
X167187619Y-119452819D01*
X167187619Y-119452819D02*
X167282857Y-119452819D01*
X167282857Y-119452819D02*
X167425714Y-119500438D01*
X167425714Y-119500438D02*
X167473333Y-119548057D01*
X167854286Y-119548057D02*
X167901905Y-119500438D01*
X167901905Y-119500438D02*
X167997143Y-119452819D01*
X167997143Y-119452819D02*
X168235238Y-119452819D01*
X168235238Y-119452819D02*
X168330476Y-119500438D01*
X168330476Y-119500438D02*
X168378095Y-119548057D01*
X168378095Y-119548057D02*
X168425714Y-119643295D01*
X168425714Y-119643295D02*
X168425714Y-119738533D01*
X168425714Y-119738533D02*
X168378095Y-119881390D01*
X168378095Y-119881390D02*
X167806667Y-120452819D01*
X167806667Y-120452819D02*
X168425714Y-120452819D01*
X176959580Y-97466666D02*
X177007200Y-97514285D01*
X177007200Y-97514285D02*
X177054819Y-97657142D01*
X177054819Y-97657142D02*
X177054819Y-97752380D01*
X177054819Y-97752380D02*
X177007200Y-97895237D01*
X177007200Y-97895237D02*
X176911961Y-97990475D01*
X176911961Y-97990475D02*
X176816723Y-98038094D01*
X176816723Y-98038094D02*
X176626247Y-98085713D01*
X176626247Y-98085713D02*
X176483390Y-98085713D01*
X176483390Y-98085713D02*
X176292914Y-98038094D01*
X176292914Y-98038094D02*
X176197676Y-97990475D01*
X176197676Y-97990475D02*
X176102438Y-97895237D01*
X176102438Y-97895237D02*
X176054819Y-97752380D01*
X176054819Y-97752380D02*
X176054819Y-97657142D01*
X176054819Y-97657142D02*
X176102438Y-97514285D01*
X176102438Y-97514285D02*
X176150057Y-97466666D01*
X176388152Y-96609523D02*
X177054819Y-96609523D01*
X176007200Y-96847618D02*
X176721485Y-97085713D01*
X176721485Y-97085713D02*
X176721485Y-96466666D01*
X115472819Y-70583333D02*
X116187104Y-70583333D01*
X116187104Y-70583333D02*
X116329961Y-70630952D01*
X116329961Y-70630952D02*
X116425200Y-70726190D01*
X116425200Y-70726190D02*
X116472819Y-70869047D01*
X116472819Y-70869047D02*
X116472819Y-70964285D01*
X115806152Y-69678571D02*
X116472819Y-69678571D01*
X115425200Y-69916666D02*
X116139485Y-70154761D01*
X116139485Y-70154761D02*
X116139485Y-69535714D01*
X172254819Y-85209523D02*
X173254819Y-84542857D01*
X172254819Y-84542857D02*
X173254819Y-85209523D01*
X173254819Y-83638095D02*
X173254819Y-84209523D01*
X173254819Y-83923809D02*
X172254819Y-83923809D01*
X172254819Y-83923809D02*
X172397676Y-84019047D01*
X172397676Y-84019047D02*
X172492914Y-84114285D01*
X172492914Y-84114285D02*
X172540533Y-84209523D01*
X152204819Y-116252380D02*
X151538152Y-116252380D01*
X151204819Y-116252380D02*
X151252438Y-116299999D01*
X151252438Y-116299999D02*
X151300057Y-116252380D01*
X151300057Y-116252380D02*
X151252438Y-116204761D01*
X151252438Y-116204761D02*
X151204819Y-116252380D01*
X151204819Y-116252380D02*
X151300057Y-116252380D01*
X151300057Y-115823809D02*
X151252438Y-115776190D01*
X151252438Y-115776190D02*
X151204819Y-115680952D01*
X151204819Y-115680952D02*
X151204819Y-115442857D01*
X151204819Y-115442857D02*
X151252438Y-115347619D01*
X151252438Y-115347619D02*
X151300057Y-115300000D01*
X151300057Y-115300000D02*
X151395295Y-115252381D01*
X151395295Y-115252381D02*
X151490533Y-115252381D01*
X151490533Y-115252381D02*
X151633390Y-115300000D01*
X151633390Y-115300000D02*
X152204819Y-115871428D01*
X152204819Y-115871428D02*
X152204819Y-115252381D01*
X152109580Y-114252381D02*
X152157200Y-114300000D01*
X152157200Y-114300000D02*
X152204819Y-114442857D01*
X152204819Y-114442857D02*
X152204819Y-114538095D01*
X152204819Y-114538095D02*
X152157200Y-114680952D01*
X152157200Y-114680952D02*
X152061961Y-114776190D01*
X152061961Y-114776190D02*
X151966723Y-114823809D01*
X151966723Y-114823809D02*
X151776247Y-114871428D01*
X151776247Y-114871428D02*
X151633390Y-114871428D01*
X151633390Y-114871428D02*
X151442914Y-114823809D01*
X151442914Y-114823809D02*
X151347676Y-114776190D01*
X151347676Y-114776190D02*
X151252438Y-114680952D01*
X151252438Y-114680952D02*
X151204819Y-114538095D01*
X151204819Y-114538095D02*
X151204819Y-114442857D01*
X151204819Y-114442857D02*
X151252438Y-114300000D01*
X151252438Y-114300000D02*
X151300057Y-114252381D01*
X152204819Y-113300000D02*
X152204819Y-113871428D01*
X152204819Y-113585714D02*
X151204819Y-113585714D01*
X151204819Y-113585714D02*
X151347676Y-113680952D01*
X151347676Y-113680952D02*
X151442914Y-113776190D01*
X151442914Y-113776190D02*
X151490533Y-113871428D01*
X105754819Y-87433333D02*
X106469104Y-87433333D01*
X106469104Y-87433333D02*
X106611961Y-87480952D01*
X106611961Y-87480952D02*
X106707200Y-87576190D01*
X106707200Y-87576190D02*
X106754819Y-87719047D01*
X106754819Y-87719047D02*
X106754819Y-87814285D01*
X105754819Y-86528571D02*
X105754819Y-86719047D01*
X105754819Y-86719047D02*
X105802438Y-86814285D01*
X105802438Y-86814285D02*
X105850057Y-86861904D01*
X105850057Y-86861904D02*
X105992914Y-86957142D01*
X105992914Y-86957142D02*
X106183390Y-87004761D01*
X106183390Y-87004761D02*
X106564342Y-87004761D01*
X106564342Y-87004761D02*
X106659580Y-86957142D01*
X106659580Y-86957142D02*
X106707200Y-86909523D01*
X106707200Y-86909523D02*
X106754819Y-86814285D01*
X106754819Y-86814285D02*
X106754819Y-86623809D01*
X106754819Y-86623809D02*
X106707200Y-86528571D01*
X106707200Y-86528571D02*
X106659580Y-86480952D01*
X106659580Y-86480952D02*
X106564342Y-86433333D01*
X106564342Y-86433333D02*
X106326247Y-86433333D01*
X106326247Y-86433333D02*
X106231009Y-86480952D01*
X106231009Y-86480952D02*
X106183390Y-86528571D01*
X106183390Y-86528571D02*
X106135771Y-86623809D01*
X106135771Y-86623809D02*
X106135771Y-86814285D01*
X106135771Y-86814285D02*
X106183390Y-86909523D01*
X106183390Y-86909523D02*
X106231009Y-86957142D01*
X106231009Y-86957142D02*
X106326247Y-87004761D01*
X216106819Y-115633333D02*
X215630628Y-115966666D01*
X216106819Y-116204761D02*
X215106819Y-116204761D01*
X215106819Y-116204761D02*
X215106819Y-115823809D01*
X215106819Y-115823809D02*
X215154438Y-115728571D01*
X215154438Y-115728571D02*
X215202057Y-115680952D01*
X215202057Y-115680952D02*
X215297295Y-115633333D01*
X215297295Y-115633333D02*
X215440152Y-115633333D01*
X215440152Y-115633333D02*
X215535390Y-115680952D01*
X215535390Y-115680952D02*
X215583009Y-115728571D01*
X215583009Y-115728571D02*
X215630628Y-115823809D01*
X215630628Y-115823809D02*
X215630628Y-116204761D01*
X215583009Y-115204761D02*
X215583009Y-114871428D01*
X216106819Y-114728571D02*
X216106819Y-115204761D01*
X216106819Y-115204761D02*
X215106819Y-115204761D01*
X215106819Y-115204761D02*
X215106819Y-114728571D01*
X215583009Y-113966666D02*
X215583009Y-114299999D01*
X216106819Y-114299999D02*
X215106819Y-114299999D01*
X215106819Y-114299999D02*
X215106819Y-113823809D01*
X215106819Y-113299999D02*
X215344914Y-113299999D01*
X215249676Y-113538094D02*
X215344914Y-113299999D01*
X215344914Y-113299999D02*
X215249676Y-113061904D01*
X215535390Y-113442856D02*
X215344914Y-113299999D01*
X215344914Y-113299999D02*
X215535390Y-113157142D01*
X215106819Y-112538094D02*
X215344914Y-112538094D01*
X215249676Y-112776189D02*
X215344914Y-112538094D01*
X215344914Y-112538094D02*
X215249676Y-112299999D01*
X215535390Y-112680951D02*
X215344914Y-112538094D01*
X215344914Y-112538094D02*
X215535390Y-112395237D01*
X137691905Y-132020819D02*
X137691905Y-131020819D01*
X137691905Y-131020819D02*
X137930000Y-131020819D01*
X137930000Y-131020819D02*
X138072857Y-131068438D01*
X138072857Y-131068438D02*
X138168095Y-131163676D01*
X138168095Y-131163676D02*
X138215714Y-131258914D01*
X138215714Y-131258914D02*
X138263333Y-131449390D01*
X138263333Y-131449390D02*
X138263333Y-131592247D01*
X138263333Y-131592247D02*
X138215714Y-131782723D01*
X138215714Y-131782723D02*
X138168095Y-131877961D01*
X138168095Y-131877961D02*
X138072857Y-131973200D01*
X138072857Y-131973200D02*
X137930000Y-132020819D01*
X137930000Y-132020819D02*
X137691905Y-132020819D01*
X139215714Y-132020819D02*
X138644286Y-132020819D01*
X138930000Y-132020819D02*
X138930000Y-131020819D01*
X138930000Y-131020819D02*
X138834762Y-131163676D01*
X138834762Y-131163676D02*
X138739524Y-131258914D01*
X138739524Y-131258914D02*
X138644286Y-131306533D01*
X151633580Y-97194666D02*
X151681200Y-97242285D01*
X151681200Y-97242285D02*
X151728819Y-97385142D01*
X151728819Y-97385142D02*
X151728819Y-97480380D01*
X151728819Y-97480380D02*
X151681200Y-97623237D01*
X151681200Y-97623237D02*
X151585961Y-97718475D01*
X151585961Y-97718475D02*
X151490723Y-97766094D01*
X151490723Y-97766094D02*
X151300247Y-97813713D01*
X151300247Y-97813713D02*
X151157390Y-97813713D01*
X151157390Y-97813713D02*
X150966914Y-97766094D01*
X150966914Y-97766094D02*
X150871676Y-97718475D01*
X150871676Y-97718475D02*
X150776438Y-97623237D01*
X150776438Y-97623237D02*
X150728819Y-97480380D01*
X150728819Y-97480380D02*
X150728819Y-97385142D01*
X150728819Y-97385142D02*
X150776438Y-97242285D01*
X150776438Y-97242285D02*
X150824057Y-97194666D01*
X151728819Y-96242285D02*
X151728819Y-96813713D01*
X151728819Y-96527999D02*
X150728819Y-96527999D01*
X150728819Y-96527999D02*
X150871676Y-96623237D01*
X150871676Y-96623237D02*
X150966914Y-96718475D01*
X150966914Y-96718475D02*
X151014533Y-96813713D01*
D11*
X140330000Y-65170000D02*
X140330000Y-66430000D01*
X140330000Y-71990000D02*
X140330000Y-70730000D01*
X144090000Y-65170000D02*
X140330000Y-65170000D01*
X146340000Y-71990000D02*
X140330000Y-71990000D01*
X176115000Y-129440000D02*
X178440000Y-129440000D01*
X176115000Y-130290000D02*
X176115000Y-129440000D01*
X176115000Y-134660000D02*
X176115000Y-133810000D01*
X181960000Y-129440000D02*
X181960000Y-127050000D01*
X184285000Y-129440000D02*
X181960000Y-129440000D01*
X184285000Y-130290000D02*
X184285000Y-129440000D01*
X184285000Y-133810000D02*
X184285000Y-134660000D01*
X184285000Y-134660000D02*
X176115000Y-134660000D01*
X157565000Y-120472936D02*
X157565000Y-120927064D01*
X159035000Y-120472936D02*
X159035000Y-120927064D01*
X144915000Y-126740000D02*
X147240000Y-126740000D01*
X144915000Y-127590000D02*
X144915000Y-126740000D01*
X144915000Y-131960000D02*
X144915000Y-131110000D01*
X154760000Y-126740000D02*
X154760000Y-124350000D01*
X157085000Y-126740000D02*
X154760000Y-126740000D01*
X157085000Y-127590000D02*
X157085000Y-126740000D01*
X157085000Y-131110000D02*
X157085000Y-131960000D01*
X157085000Y-131960000D02*
X144915000Y-131960000D01*
X180059064Y-68226000D02*
X179604936Y-68226000D01*
X180059064Y-69696000D02*
X179604936Y-69696000D01*
X189215000Y-129490000D02*
X191540000Y-129490000D01*
X189215000Y-130340000D02*
X189215000Y-129490000D01*
X189215000Y-134710000D02*
X189215000Y-133860000D01*
X195060000Y-129490000D02*
X195060000Y-127100000D01*
X197385000Y-129490000D02*
X195060000Y-129490000D01*
X197385000Y-130340000D02*
X197385000Y-129490000D01*
X197385000Y-133860000D02*
X197385000Y-134710000D01*
X197385000Y-134710000D02*
X189215000Y-134710000D01*
X202612000Y-121820000D02*
X202612000Y-124560000D01*
X202612000Y-121820000D02*
X207852000Y-121820000D01*
X202612000Y-124560000D02*
X207852000Y-124560000D01*
X207852000Y-121820000D02*
X207852000Y-124560000D01*
X101290000Y-94515000D02*
X101290000Y-96840000D01*
X101290000Y-96840000D02*
X98900000Y-96840000D01*
X101290000Y-106685000D02*
X101290000Y-104360000D01*
X102140000Y-94515000D02*
X101290000Y-94515000D01*
X102140000Y-106685000D02*
X101290000Y-106685000D01*
X105660000Y-94515000D02*
X106510000Y-94515000D01*
X106510000Y-94515000D02*
X106510000Y-106685000D01*
X106510000Y-106685000D02*
X105660000Y-106685000D01*
X101290000Y-108015000D02*
X101290000Y-110340000D01*
X101290000Y-110340000D02*
X98900000Y-110340000D01*
X101290000Y-120185000D02*
X101290000Y-117860000D01*
X102140000Y-108015000D02*
X101290000Y-108015000D01*
X102140000Y-120185000D02*
X101290000Y-120185000D01*
X105660000Y-108015000D02*
X106510000Y-108015000D01*
X106510000Y-108015000D02*
X106510000Y-120185000D01*
X106510000Y-120185000D02*
X105660000Y-120185000D01*
D10*
X179070000Y-76200000D02*
X179070000Y-119380000D01*
X179070000Y-119380000D02*
X203200000Y-119380000D01*
X203200000Y-76200000D02*
X179070000Y-76200000D01*
X203200000Y-119380000D02*
X203200000Y-76200000D01*
D11*
X139472936Y-121947000D02*
X139927064Y-121947000D01*
X139472936Y-123417000D02*
X139927064Y-123417000D01*
X121682000Y-84527000D02*
X121682000Y-115127000D01*
X121682000Y-115127000D02*
X126742000Y-115127000D01*
X128742000Y-115127000D02*
X133802000Y-115127000D01*
X133802000Y-84527000D02*
X121682000Y-84527000D01*
D12*
X133802000Y-84527000D02*
X136462000Y-84527000D01*
X136542000Y-115187000D02*
X133802000Y-115127000D01*
D11*
X136542000Y-115187000D02*
X136542000Y-84587000D01*
X126742000Y-115127000D02*
G75*
G02*
X128742000Y-115127000I1000000J0D01*
G01*
X160444000Y-78066000D02*
X160444000Y-113746000D01*
X160444000Y-113746000D02*
X162094000Y-113746000D01*
X164094000Y-113746000D02*
X165744000Y-113746000D01*
X165744000Y-78066000D02*
X160444000Y-78066000D01*
X165744000Y-113746000D02*
X165744000Y-78066000D01*
X162094000Y-113746000D02*
G75*
G02*
X164094000Y-113746000I1000000J0D01*
G01*
X154205000Y-100811064D02*
X154205000Y-100356936D01*
X155675000Y-100811064D02*
X155675000Y-100356936D01*
X208570000Y-110443641D02*
X208570000Y-110136359D01*
X209330000Y-110443641D02*
X209330000Y-110136359D01*
X172540000Y-102615000D02*
X172540000Y-104940000D01*
X172540000Y-104940000D02*
X170150000Y-104940000D01*
X172540000Y-114785000D02*
X172540000Y-112460000D01*
X173390000Y-102615000D02*
X172540000Y-102615000D01*
X173390000Y-114785000D02*
X172540000Y-114785000D01*
X176910000Y-102615000D02*
X177760000Y-102615000D01*
X177760000Y-102615000D02*
X177760000Y-114785000D01*
X177760000Y-114785000D02*
X176910000Y-114785000D01*
X122615000Y-127540000D02*
X124940000Y-127540000D01*
X122615000Y-128390000D02*
X122615000Y-127540000D01*
X122615000Y-132760000D02*
X122615000Y-131910000D01*
X128460000Y-127540000D02*
X128460000Y-125150000D01*
X130785000Y-127540000D02*
X128460000Y-127540000D01*
X130785000Y-128390000D02*
X130785000Y-127540000D01*
X130785000Y-131910000D02*
X130785000Y-132760000D01*
X130785000Y-132760000D02*
X122615000Y-132760000D01*
X101290000Y-81015000D02*
X101290000Y-83340000D01*
X101290000Y-83340000D02*
X98900000Y-83340000D01*
X101290000Y-93185000D02*
X101290000Y-90860000D01*
X102140000Y-81015000D02*
X101290000Y-81015000D01*
X102140000Y-93185000D02*
X101290000Y-93185000D01*
X105660000Y-81015000D02*
X106510000Y-81015000D01*
X106510000Y-81015000D02*
X106510000Y-93185000D01*
X106510000Y-93185000D02*
X105660000Y-93185000D01*
X107390000Y-108015000D02*
X108240000Y-108015000D01*
X107390000Y-120185000D02*
X107390000Y-108015000D01*
X108240000Y-120185000D02*
X107390000Y-120185000D01*
X111760000Y-108015000D02*
X112610000Y-108015000D01*
X111760000Y-120185000D02*
X112610000Y-120185000D01*
X112610000Y-108015000D02*
X112610000Y-110340000D01*
X112610000Y-117860000D02*
X115000000Y-117860000D01*
X112610000Y-120185000D02*
X112610000Y-117860000D01*
X107390000Y-94515000D02*
X108240000Y-94515000D01*
X107390000Y-106685000D02*
X107390000Y-94515000D01*
X108240000Y-106685000D02*
X107390000Y-106685000D01*
X111760000Y-94515000D02*
X112610000Y-94515000D01*
X111760000Y-106685000D02*
X112610000Y-106685000D01*
X112610000Y-94515000D02*
X112610000Y-96840000D01*
X112610000Y-104360000D02*
X115000000Y-104360000D01*
X112610000Y-106685000D02*
X112610000Y-104360000D01*
X112453000Y-125569000D02*
X113078000Y-125569000D01*
X112765500Y-125256500D02*
X112765500Y-125881500D01*
X113318000Y-125558437D02*
X113318000Y-126194000D01*
X113318000Y-125558437D02*
X114382437Y-124494000D01*
X113318000Y-128949563D02*
X113318000Y-128314000D01*
X113318000Y-128949563D02*
X114382437Y-130014000D01*
X114382437Y-124494000D02*
X118838000Y-124494000D01*
X114382437Y-130014000D02*
X118838000Y-130014000D01*
X118838000Y-124494000D02*
X118838000Y-126194000D01*
X118838000Y-130014000D02*
X118838000Y-128314000D01*
X163541064Y-67924000D02*
X162086936Y-67924000D01*
X163541064Y-69744000D02*
X162086936Y-69744000D01*
X167565000Y-70027064D02*
X167565000Y-69572936D01*
X169035000Y-70027064D02*
X169035000Y-69572936D01*
X175980000Y-87430000D02*
X175980000Y-90670000D01*
X176045000Y-87430000D02*
X175980000Y-87430000D01*
X176045000Y-90670000D02*
X175980000Y-90670000D01*
X178220000Y-87430000D02*
X178155000Y-87430000D01*
X178220000Y-87430000D02*
X178220000Y-90670000D01*
X178220000Y-90670000D02*
X178155000Y-90670000D01*
X164015000Y-122013000D02*
X164640000Y-122013000D01*
X164327500Y-121700500D02*
X164327500Y-122325500D01*
X164880000Y-122002437D02*
X164880000Y-122638000D01*
X164880000Y-122002437D02*
X165944437Y-120938000D01*
X164880000Y-125393563D02*
X164880000Y-124758000D01*
X164880000Y-125393563D02*
X165944437Y-126458000D01*
X165944437Y-120938000D02*
X170400000Y-120938000D01*
X165944437Y-126458000D02*
X170400000Y-126458000D01*
X170400000Y-120938000D02*
X170400000Y-122638000D01*
X170400000Y-126458000D02*
X170400000Y-124758000D01*
X175980000Y-92330000D02*
X176045000Y-92330000D01*
X175980000Y-95570000D02*
X175980000Y-92330000D01*
X175980000Y-95570000D02*
X176045000Y-95570000D01*
X178155000Y-92330000D02*
X178220000Y-92330000D01*
X178155000Y-95570000D02*
X178220000Y-95570000D01*
X178220000Y-95570000D02*
X178220000Y-92330000D01*
X98108000Y-64380000D02*
X98108000Y-66240000D01*
X98108000Y-64380000D02*
X98308000Y-64180000D01*
X98108000Y-66240000D02*
X98308000Y-66450000D01*
X98108000Y-73330000D02*
X98458000Y-72820000D01*
X98108000Y-75640000D02*
X98108000Y-73330000D01*
X98108000Y-75640000D02*
X98308000Y-75840000D01*
X98308000Y-75840000D02*
X98308000Y-76100000D01*
X98458000Y-66450000D02*
X98308000Y-66450000D01*
X98458000Y-66450000D02*
X98458000Y-72820000D01*
X103068000Y-63350000D02*
X101268000Y-63350000D01*
X109068000Y-63350000D02*
X104368000Y-63350000D01*
X114378000Y-63350000D02*
X110768000Y-63350000D01*
X114378000Y-63800000D02*
X114378000Y-63350000D01*
X114378000Y-75400000D02*
X114378000Y-77320000D01*
X114378000Y-77320000D02*
X100368000Y-77320000D01*
X170195000Y-94655000D02*
X170195000Y-88405000D01*
X175245000Y-94655000D02*
X175245000Y-88405000D01*
X170195000Y-88405000D02*
G75*
G02*
X175245000Y-88405000I2525000J0D01*
G01*
X175245000Y-94655000D02*
G75*
G02*
X170195000Y-94655000I-2525000J0D01*
G01*
X145440000Y-108715000D02*
X145440000Y-111040000D01*
X145440000Y-111040000D02*
X143050000Y-111040000D01*
X145440000Y-120885000D02*
X145440000Y-118560000D01*
X146290000Y-108715000D02*
X145440000Y-108715000D01*
X146290000Y-120885000D02*
X145440000Y-120885000D01*
X149810000Y-108715000D02*
X150660000Y-108715000D01*
X150660000Y-108715000D02*
X150660000Y-120885000D01*
X150660000Y-120885000D02*
X149810000Y-120885000D01*
X107390000Y-81015000D02*
X108240000Y-81015000D01*
X107390000Y-93185000D02*
X107390000Y-81015000D01*
X108240000Y-93185000D02*
X107390000Y-93185000D01*
X111760000Y-81015000D02*
X112610000Y-81015000D01*
X111760000Y-93185000D02*
X112610000Y-93185000D01*
X112610000Y-81015000D02*
X112610000Y-83340000D01*
X112610000Y-90860000D02*
X115000000Y-90860000D01*
X112610000Y-93185000D02*
X112610000Y-90860000D01*
X210242000Y-97560000D02*
X210242000Y-100060000D01*
X210542000Y-97860000D02*
X210542000Y-115580000D01*
X210542000Y-115580000D02*
X214562000Y-115580000D01*
X212042000Y-97860000D02*
X212042000Y-98860000D01*
X212042000Y-98860000D02*
X210542000Y-98860000D01*
X212042000Y-114580000D02*
X210542000Y-114580000D01*
X212042000Y-115580000D02*
X212042000Y-114580000D01*
X212742000Y-97560000D02*
X210242000Y-97560000D01*
X212852000Y-97860000D02*
X212852000Y-98360000D01*
X212852000Y-98360000D02*
X214062000Y-98360000D01*
X212852000Y-115080000D02*
X212852000Y-115580000D01*
X214062000Y-98360000D02*
X214062000Y-115080000D01*
X214062000Y-115080000D02*
X212852000Y-115080000D01*
X214562000Y-97860000D02*
X210542000Y-97860000D01*
X214562000Y-115580000D02*
X214562000Y-97860000D01*
X136830000Y-130871000D02*
X140715000Y-130871000D01*
X140715000Y-127701000D02*
X136830000Y-127701000D01*
X140715000Y-130871000D02*
X140715000Y-127701000D01*
X144814000Y-95332437D02*
X144814000Y-99788000D01*
X144814000Y-99788000D02*
X146514000Y-99788000D01*
X145878437Y-94268000D02*
X144814000Y-95332437D01*
X145878437Y-94268000D02*
X146514000Y-94268000D01*
X149259000Y-93403000D02*
X149259000Y-94028000D01*
X149269563Y-94268000D02*
X148634000Y-94268000D01*
X149269563Y-94268000D02*
X150334000Y-95332437D01*
X149571500Y-93715500D02*
X148946500Y-93715500D01*
X150334000Y-95332437D02*
X150334000Y-99788000D01*
X150334000Y-99788000D02*
X148634000Y-99788000D01*
%LPC*%
D13*
X145390000Y-70880000D03*
X145390000Y-68580000D03*
D14*
X139090000Y-68580000D03*
D13*
X145390000Y-66280000D03*
D15*
X181200000Y-129800000D03*
X179200000Y-129800000D03*
D16*
X183600000Y-132050000D03*
X176800000Y-132050000D03*
D17*
X158300000Y-119787500D03*
X158300000Y-121612500D03*
D15*
X154000000Y-127100000D03*
X152000000Y-127100000D03*
X150000000Y-127100000D03*
X148000000Y-127100000D03*
D16*
X156400000Y-129350000D03*
X145600000Y-129350000D03*
D18*
X180744500Y-68961000D03*
X178919500Y-68961000D03*
D15*
X194300000Y-129850000D03*
X192300000Y-129850000D03*
D16*
X196700000Y-132100000D03*
X189900000Y-132100000D03*
D19*
X203982000Y-123190000D03*
X206482000Y-123190000D03*
D20*
X101650000Y-97600000D03*
X101650000Y-99600000D03*
X101650000Y-101600000D03*
X101650000Y-103600000D03*
D21*
X103900000Y-95200000D03*
X103900000Y-106000000D03*
D20*
X101650000Y-111100000D03*
X101650000Y-113100000D03*
X101650000Y-115100000D03*
X101650000Y-117100000D03*
D21*
X103900000Y-108700000D03*
X103900000Y-119500000D03*
D22*
X181610000Y-116840000D03*
X200660000Y-116840000D03*
X181610000Y-78740000D03*
X200660000Y-78740000D03*
D23*
X138787500Y-122682000D03*
X140612500Y-122682000D03*
D24*
X137902000Y-113797000D03*
D25*
X137902000Y-111257000D03*
X137902000Y-108717000D03*
X137902000Y-106177000D03*
X137902000Y-103637000D03*
X137902000Y-101097000D03*
X137902000Y-98557000D03*
X137902000Y-96017000D03*
X137902000Y-93477000D03*
X137902000Y-90937000D03*
X137902000Y-88397000D03*
X137902000Y-85857000D03*
X120122000Y-85857000D03*
X120122000Y-88397000D03*
X120122000Y-90937000D03*
X120122000Y-93477000D03*
X120122000Y-96017000D03*
X120122000Y-98557000D03*
X120122000Y-101097000D03*
X120122000Y-103637000D03*
X120122000Y-106177000D03*
X120122000Y-108717000D03*
X120122000Y-111257000D03*
X120122000Y-113797000D03*
D26*
X166904000Y-112416000D03*
D27*
X166904000Y-109876000D03*
X166904000Y-107336000D03*
X166904000Y-104796000D03*
X166904000Y-102256000D03*
X166904000Y-99716000D03*
X166904000Y-97176000D03*
X166904000Y-94636000D03*
X166904000Y-92096000D03*
X166904000Y-89556000D03*
X166904000Y-87016000D03*
X166904000Y-84476000D03*
X166904000Y-81936000D03*
X166904000Y-79396000D03*
X159284000Y-79396000D03*
X159284000Y-81936000D03*
X159284000Y-84476000D03*
X159284000Y-87016000D03*
X159284000Y-89556000D03*
X159284000Y-92096000D03*
X159284000Y-94636000D03*
X159284000Y-97176000D03*
X159284000Y-99716000D03*
X159284000Y-102256000D03*
X159284000Y-104796000D03*
X159284000Y-107336000D03*
X159284000Y-109876000D03*
X159284000Y-112416000D03*
D28*
X154940000Y-101496500D03*
X154940000Y-99671500D03*
D29*
X104648000Y-130048000D03*
D30*
X208950000Y-110800000D03*
X208950000Y-109780000D03*
D20*
X172900000Y-105700000D03*
X172900000Y-107700000D03*
X172900000Y-109700000D03*
X172900000Y-111700000D03*
D21*
X175150000Y-103300000D03*
X175150000Y-114100000D03*
D15*
X127700000Y-127900000D03*
X125700000Y-127900000D03*
D16*
X130100000Y-130150000D03*
X123300000Y-130150000D03*
D20*
X101650000Y-84100000D03*
X101650000Y-86100000D03*
X101650000Y-88100000D03*
X101650000Y-90100000D03*
D21*
X103900000Y-81700000D03*
X103900000Y-92500000D03*
D31*
X112250000Y-117100000D03*
X112250000Y-115100000D03*
X112250000Y-113100000D03*
X112250000Y-111100000D03*
D32*
X110000000Y-119500000D03*
X110000000Y-108700000D03*
D31*
X112250000Y-103600000D03*
X112250000Y-101600000D03*
X112250000Y-99600000D03*
X112250000Y-97600000D03*
D32*
X110000000Y-106000000D03*
X110000000Y-95200000D03*
D33*
X113878000Y-127254000D03*
X118278000Y-127254000D03*
D29*
X204724000Y-130556000D03*
D34*
X164276500Y-68834000D03*
X161351500Y-68834000D03*
D28*
X168300000Y-70712500D03*
X168300000Y-68887500D03*
D19*
X177100000Y-87800000D03*
X177100000Y-90300000D03*
D33*
X165440000Y-123698000D03*
X169840000Y-123698000D03*
D19*
X177100000Y-95200000D03*
X177100000Y-92700000D03*
D35*
X114218000Y-73100000D03*
X114218000Y-72000000D03*
X114218000Y-70900000D03*
X114218000Y-69800000D03*
X114218000Y-68700000D03*
X114218000Y-67600000D03*
X114218000Y-66500000D03*
X114218000Y-65400000D03*
X114218000Y-64450000D03*
D36*
X103718000Y-63500000D03*
D37*
X109918000Y-63500000D03*
D38*
X99568000Y-63500000D03*
D37*
X114218000Y-74650000D03*
D39*
X99118000Y-77000000D03*
D40*
X172720000Y-93980000D03*
X172720000Y-89080000D03*
D20*
X145800000Y-111800000D03*
X145800000Y-113800000D03*
X145800000Y-115800000D03*
X145800000Y-117800000D03*
D21*
X148050000Y-109400000D03*
X148050000Y-120200000D03*
D31*
X112250000Y-90100000D03*
X112250000Y-88100000D03*
X112250000Y-86100000D03*
X112250000Y-84100000D03*
D32*
X110000000Y-92500000D03*
X110000000Y-81700000D03*
D41*
X212852000Y-100470000D03*
D42*
X212852000Y-102970000D03*
X212852000Y-105470000D03*
X212852000Y-107970000D03*
X212852000Y-110470000D03*
X212852000Y-112970000D03*
D43*
X139830000Y-129286000D03*
X137030000Y-129286000D03*
D44*
X147574000Y-94828000D03*
X147574000Y-99228000D03*
D29*
X205232000Y-68072000D03*
D45*
X215752000Y-109000000D03*
X154300000Y-68300000D03*
X144600000Y-64400000D03*
X215752000Y-106500000D03*
X120650000Y-127254000D03*
X147400000Y-88100000D03*
X96300000Y-97100000D03*
X96600000Y-77400000D03*
X144900000Y-86700000D03*
X176600000Y-106900000D03*
X215752000Y-107800000D03*
X133400000Y-120200000D03*
X146000000Y-64300000D03*
X108300000Y-88100000D03*
X198000000Y-116000000D03*
X169300000Y-93400000D03*
X154400000Y-69400000D03*
X201500000Y-113800000D03*
X152000000Y-130900000D03*
X121300000Y-124500000D03*
X191000000Y-67200000D03*
X150000000Y-113800000D03*
X176600000Y-111700000D03*
X162800000Y-98700000D03*
X174200000Y-128100000D03*
X201600000Y-124300000D03*
X174200000Y-131000000D03*
X179700000Y-95200000D03*
X199600000Y-81900000D03*
X120100000Y-124700000D03*
X202500000Y-121200000D03*
X150300000Y-69300000D03*
X174200000Y-129500000D03*
X134000000Y-118900000D03*
X115800000Y-67600000D03*
X175100000Y-127100000D03*
X147700000Y-67200000D03*
X140208000Y-98552000D03*
X179600000Y-96600000D03*
X172212000Y-123698000D03*
X168800000Y-94400000D03*
X135500000Y-118600000D03*
X105600000Y-115100000D03*
X200400000Y-124600000D03*
X119380000Y-81788000D03*
X194800000Y-70300000D03*
X109600000Y-125200000D03*
X121500000Y-77700000D03*
X120500000Y-123400000D03*
X198400000Y-80900000D03*
X187900000Y-132200000D03*
X96200000Y-89900000D03*
X150500000Y-82100000D03*
X147574000Y-101600000D03*
X108300000Y-101600000D03*
X204000000Y-77900000D03*
X96100000Y-86200000D03*
X191400000Y-70200000D03*
X204000000Y-80300000D03*
X197800000Y-78000000D03*
X185500000Y-132200000D03*
X200000000Y-113800000D03*
X204000000Y-76500000D03*
X96200000Y-89900000D03*
X96300000Y-93300000D03*
X215752000Y-104470000D03*
X180100000Y-94300000D03*
X111100000Y-125300000D03*
X202600000Y-123300000D03*
X105600000Y-101600000D03*
X124100000Y-77700000D03*
X181500000Y-98900000D03*
X204000000Y-79000000D03*
X198800000Y-114700000D03*
X186700000Y-132200000D03*
X150300000Y-67900000D03*
X120650000Y-127254000D03*
X158300000Y-123800000D03*
X108300000Y-115100000D03*
X198000000Y-79700000D03*
X194400000Y-67200000D03*
X147700000Y-65400000D03*
X105600000Y-88100000D03*
X152600000Y-84600000D03*
X181640000Y-96740000D03*
X208630000Y-108450000D03*
X205330000Y-100430000D03*
X165100000Y-118872000D03*
X162560000Y-92202000D03*
X143000000Y-67000000D03*
X177800000Y-100584000D03*
X156200000Y-126400000D03*
X199410000Y-100540000D03*
X147200000Y-107400000D03*
X152000000Y-104800000D03*
X140600000Y-117800000D03*
X186944000Y-116840000D03*
X186944000Y-123190000D03*
X168881107Y-109313107D03*
X199450000Y-103470000D03*
X199760000Y-108660000D03*
X182350000Y-112340000D03*
X150000000Y-130900000D03*
X157200000Y-103600000D03*
X146600000Y-124500000D03*
X119350000Y-73770000D03*
X115768873Y-71975491D03*
X116300000Y-70900000D03*
X118330000Y-72990000D03*
X127000000Y-70815500D03*
X110400000Y-79200000D03*
X100700000Y-82100000D03*
X105600000Y-86100000D03*
X116500000Y-90100000D03*
X114000000Y-92300000D03*
X100400000Y-95300000D03*
X105600000Y-99600000D03*
X116900000Y-103600000D03*
X100800000Y-109100000D03*
X105600000Y-113100000D03*
X116500000Y-109300000D03*
X155000000Y-87900000D03*
X154940000Y-98552000D03*
X154940000Y-91440000D03*
X156800000Y-105700000D03*
X155200000Y-116000000D03*
X193220000Y-118120000D03*
X181830000Y-114120000D03*
X208980000Y-112050000D03*
%LPD*%
D46*
X95504000Y-61976000D02*
X217932000Y-61976000D01*
X217932000Y-135382000D01*
X95504000Y-135382000D01*
X95504000Y-61976000D01*
M02*
