%TF.GenerationSoftware,KiCad,Pcbnew,8.0.2*%
%TF.CreationDate,2024-06-06T11:53:52+07:00*%
%TF.ProjectId,IncubatorTesterV6,496e6375-6261-4746-9f72-546573746572,rev?*%
%TF.SameCoordinates,Original*%
%TF.FileFunction,Legend,Top*%
%TF.FilePolarity,Positive*%
%FSLAX46Y46*%
G04 Gerber Fmt 4.6, Leading zero omitted, Abs format (unit mm)*
G04 Created by KiCad (PCBNEW 8.0.2) date 2024-06-06 11:53:52*
%MOMM*%
%LPD*%
G01*
G04 APERTURE LIST*
%ADD10C,0.100000*%
%ADD11C,0.150000*%
%ADD12C,0.120000*%
%ADD13C,0.152400*%
%ADD14C,0.127000*%
%ADD15C,0.200000*%
G04 APERTURE END LIST*
D10*
X171207495Y-87626019D02*
X171207495Y-88435542D01*
X171207495Y-88435542D02*
X171255114Y-88530780D01*
X171255114Y-88530780D02*
X171302733Y-88578400D01*
X171302733Y-88578400D02*
X171397971Y-88626019D01*
X171397971Y-88626019D02*
X171588447Y-88626019D01*
X171588447Y-88626019D02*
X171683685Y-88578400D01*
X171683685Y-88578400D02*
X171731304Y-88530780D01*
X171731304Y-88530780D02*
X171778923Y-88435542D01*
X171778923Y-88435542D02*
X171778923Y-87626019D01*
X172683685Y-87626019D02*
X172493209Y-87626019D01*
X172493209Y-87626019D02*
X172397971Y-87673638D01*
X172397971Y-87673638D02*
X172350352Y-87721257D01*
X172350352Y-87721257D02*
X172255114Y-87864114D01*
X172255114Y-87864114D02*
X172207495Y-88054590D01*
X172207495Y-88054590D02*
X172207495Y-88435542D01*
X172207495Y-88435542D02*
X172255114Y-88530780D01*
X172255114Y-88530780D02*
X172302733Y-88578400D01*
X172302733Y-88578400D02*
X172397971Y-88626019D01*
X172397971Y-88626019D02*
X172588447Y-88626019D01*
X172588447Y-88626019D02*
X172683685Y-88578400D01*
X172683685Y-88578400D02*
X172731304Y-88530780D01*
X172731304Y-88530780D02*
X172778923Y-88435542D01*
X172778923Y-88435542D02*
X172778923Y-88197447D01*
X172778923Y-88197447D02*
X172731304Y-88102209D01*
X172731304Y-88102209D02*
X172683685Y-88054590D01*
X172683685Y-88054590D02*
X172588447Y-88006971D01*
X172588447Y-88006971D02*
X172397971Y-88006971D01*
X172397971Y-88006971D02*
X172302733Y-88054590D01*
X172302733Y-88054590D02*
X172255114Y-88102209D01*
X172255114Y-88102209D02*
X172207495Y-88197447D01*
X150965865Y-101946038D02*
X151632531Y-103946038D01*
X151632531Y-103946038D02*
X152299198Y-101946038D01*
X153346817Y-101946038D02*
X153727770Y-101946038D01*
X153727770Y-101946038D02*
X153918246Y-102041276D01*
X153918246Y-102041276D02*
X154108722Y-102231752D01*
X154108722Y-102231752D02*
X154203960Y-102612704D01*
X154203960Y-102612704D02*
X154203960Y-103279371D01*
X154203960Y-103279371D02*
X154108722Y-103660323D01*
X154108722Y-103660323D02*
X153918246Y-103850800D01*
X153918246Y-103850800D02*
X153727770Y-103946038D01*
X153727770Y-103946038D02*
X153346817Y-103946038D01*
X153346817Y-103946038D02*
X153156341Y-103850800D01*
X153156341Y-103850800D02*
X152965865Y-103660323D01*
X152965865Y-103660323D02*
X152870627Y-103279371D01*
X152870627Y-103279371D02*
X152870627Y-102612704D01*
X152870627Y-102612704D02*
X152965865Y-102231752D01*
X152965865Y-102231752D02*
X153156341Y-102041276D01*
X153156341Y-102041276D02*
X153346817Y-101946038D01*
X155061103Y-101946038D02*
X155061103Y-103565085D01*
X155061103Y-103565085D02*
X155156341Y-103755561D01*
X155156341Y-103755561D02*
X155251579Y-103850800D01*
X155251579Y-103850800D02*
X155442055Y-103946038D01*
X155442055Y-103946038D02*
X155823008Y-103946038D01*
X155823008Y-103946038D02*
X156013484Y-103850800D01*
X156013484Y-103850800D02*
X156108722Y-103755561D01*
X156108722Y-103755561D02*
X156203960Y-103565085D01*
X156203960Y-103565085D02*
X156203960Y-101946038D01*
X156870627Y-101946038D02*
X158013484Y-101946038D01*
X157442055Y-103946038D02*
X157442055Y-101946038D01*
X188303865Y-101590438D02*
X188970531Y-103590438D01*
X188970531Y-103590438D02*
X189637198Y-101590438D01*
X190303865Y-103590438D02*
X190303865Y-101590438D01*
X191256246Y-103590438D02*
X191256246Y-101590438D01*
X191256246Y-101590438D02*
X192399103Y-103590438D01*
X192399103Y-103590438D02*
X192399103Y-101590438D01*
X171137495Y-65106019D02*
X171137495Y-65915542D01*
X171137495Y-65915542D02*
X171185114Y-66010780D01*
X171185114Y-66010780D02*
X171232733Y-66058400D01*
X171232733Y-66058400D02*
X171327971Y-66106019D01*
X171327971Y-66106019D02*
X171518447Y-66106019D01*
X171518447Y-66106019D02*
X171613685Y-66058400D01*
X171613685Y-66058400D02*
X171661304Y-66010780D01*
X171661304Y-66010780D02*
X171708923Y-65915542D01*
X171708923Y-65915542D02*
X171708923Y-65106019D01*
X172661304Y-65106019D02*
X172185114Y-65106019D01*
X172185114Y-65106019D02*
X172137495Y-65582209D01*
X172137495Y-65582209D02*
X172185114Y-65534590D01*
X172185114Y-65534590D02*
X172280352Y-65486971D01*
X172280352Y-65486971D02*
X172518447Y-65486971D01*
X172518447Y-65486971D02*
X172613685Y-65534590D01*
X172613685Y-65534590D02*
X172661304Y-65582209D01*
X172661304Y-65582209D02*
X172708923Y-65677447D01*
X172708923Y-65677447D02*
X172708923Y-65915542D01*
X172708923Y-65915542D02*
X172661304Y-66010780D01*
X172661304Y-66010780D02*
X172613685Y-66058400D01*
X172613685Y-66058400D02*
X172518447Y-66106019D01*
X172518447Y-66106019D02*
X172280352Y-66106019D01*
X172280352Y-66106019D02*
X172185114Y-66058400D01*
X172185114Y-66058400D02*
X172137495Y-66010780D01*
X150895865Y-79426038D02*
X151562531Y-81426038D01*
X151562531Y-81426038D02*
X152229198Y-79426038D01*
X153276817Y-79426038D02*
X153657770Y-79426038D01*
X153657770Y-79426038D02*
X153848246Y-79521276D01*
X153848246Y-79521276D02*
X154038722Y-79711752D01*
X154038722Y-79711752D02*
X154133960Y-80092704D01*
X154133960Y-80092704D02*
X154133960Y-80759371D01*
X154133960Y-80759371D02*
X154038722Y-81140323D01*
X154038722Y-81140323D02*
X153848246Y-81330800D01*
X153848246Y-81330800D02*
X153657770Y-81426038D01*
X153657770Y-81426038D02*
X153276817Y-81426038D01*
X153276817Y-81426038D02*
X153086341Y-81330800D01*
X153086341Y-81330800D02*
X152895865Y-81140323D01*
X152895865Y-81140323D02*
X152800627Y-80759371D01*
X152800627Y-80759371D02*
X152800627Y-80092704D01*
X152800627Y-80092704D02*
X152895865Y-79711752D01*
X152895865Y-79711752D02*
X153086341Y-79521276D01*
X153086341Y-79521276D02*
X153276817Y-79426038D01*
X154991103Y-79426038D02*
X154991103Y-81045085D01*
X154991103Y-81045085D02*
X155086341Y-81235561D01*
X155086341Y-81235561D02*
X155181579Y-81330800D01*
X155181579Y-81330800D02*
X155372055Y-81426038D01*
X155372055Y-81426038D02*
X155753008Y-81426038D01*
X155753008Y-81426038D02*
X155943484Y-81330800D01*
X155943484Y-81330800D02*
X156038722Y-81235561D01*
X156038722Y-81235561D02*
X156133960Y-81045085D01*
X156133960Y-81045085D02*
X156133960Y-79426038D01*
X156800627Y-79426038D02*
X157943484Y-79426038D01*
X157372055Y-81426038D02*
X157372055Y-79426038D01*
X188233865Y-79070438D02*
X188900531Y-81070438D01*
X188900531Y-81070438D02*
X189567198Y-79070438D01*
X190233865Y-81070438D02*
X190233865Y-79070438D01*
X191186246Y-81070438D02*
X191186246Y-79070438D01*
X191186246Y-79070438D02*
X192329103Y-81070438D01*
X192329103Y-81070438D02*
X192329103Y-79070438D01*
D11*
X121022354Y-69309124D02*
X121022354Y-69984040D01*
X121022354Y-69984040D02*
X120977359Y-70119023D01*
X120977359Y-70119023D02*
X120887371Y-70209012D01*
X120887371Y-70209012D02*
X120752387Y-70254006D01*
X120752387Y-70254006D02*
X120662399Y-70254006D01*
X121877247Y-69309124D02*
X121697269Y-69309124D01*
X121697269Y-69309124D02*
X121607281Y-69354118D01*
X121607281Y-69354118D02*
X121562286Y-69399113D01*
X121562286Y-69399113D02*
X121472297Y-69534096D01*
X121472297Y-69534096D02*
X121427303Y-69714073D01*
X121427303Y-69714073D02*
X121427303Y-70074028D01*
X121427303Y-70074028D02*
X121472297Y-70164017D01*
X121472297Y-70164017D02*
X121517292Y-70209012D01*
X121517292Y-70209012D02*
X121607281Y-70254006D01*
X121607281Y-70254006D02*
X121787258Y-70254006D01*
X121787258Y-70254006D02*
X121877247Y-70209012D01*
X121877247Y-70209012D02*
X121922241Y-70164017D01*
X121922241Y-70164017D02*
X121967236Y-70074028D01*
X121967236Y-70074028D02*
X121967236Y-69849056D01*
X121967236Y-69849056D02*
X121922241Y-69759068D01*
X121922241Y-69759068D02*
X121877247Y-69714073D01*
X121877247Y-69714073D02*
X121787258Y-69669079D01*
X121787258Y-69669079D02*
X121607281Y-69669079D01*
X121607281Y-69669079D02*
X121517292Y-69714073D01*
X121517292Y-69714073D02*
X121472297Y-69759068D01*
X121472297Y-69759068D02*
X121427303Y-69849056D01*
X141203333Y-131489580D02*
X141155714Y-131537200D01*
X141155714Y-131537200D02*
X141012857Y-131584819D01*
X141012857Y-131584819D02*
X140917619Y-131584819D01*
X140917619Y-131584819D02*
X140774762Y-131537200D01*
X140774762Y-131537200D02*
X140679524Y-131441961D01*
X140679524Y-131441961D02*
X140631905Y-131346723D01*
X140631905Y-131346723D02*
X140584286Y-131156247D01*
X140584286Y-131156247D02*
X140584286Y-131013390D01*
X140584286Y-131013390D02*
X140631905Y-130822914D01*
X140631905Y-130822914D02*
X140679524Y-130727676D01*
X140679524Y-130727676D02*
X140774762Y-130632438D01*
X140774762Y-130632438D02*
X140917619Y-130584819D01*
X140917619Y-130584819D02*
X141012857Y-130584819D01*
X141012857Y-130584819D02*
X141155714Y-130632438D01*
X141155714Y-130632438D02*
X141203333Y-130680057D01*
X142060476Y-130918152D02*
X142060476Y-131584819D01*
X141822381Y-130537200D02*
X141584286Y-131251485D01*
X141584286Y-131251485D02*
X142203333Y-131251485D01*
X106798354Y-69309124D02*
X106798354Y-69984040D01*
X106798354Y-69984040D02*
X106753359Y-70119023D01*
X106753359Y-70119023D02*
X106663371Y-70209012D01*
X106663371Y-70209012D02*
X106528387Y-70254006D01*
X106528387Y-70254006D02*
X106438399Y-70254006D01*
X107698241Y-69309124D02*
X107248297Y-69309124D01*
X107248297Y-69309124D02*
X107203303Y-69759068D01*
X107203303Y-69759068D02*
X107248297Y-69714073D01*
X107248297Y-69714073D02*
X107338286Y-69669079D01*
X107338286Y-69669079D02*
X107563258Y-69669079D01*
X107563258Y-69669079D02*
X107653247Y-69714073D01*
X107653247Y-69714073D02*
X107698241Y-69759068D01*
X107698241Y-69759068D02*
X107743236Y-69849056D01*
X107743236Y-69849056D02*
X107743236Y-70074028D01*
X107743236Y-70074028D02*
X107698241Y-70164017D01*
X107698241Y-70164017D02*
X107653247Y-70209012D01*
X107653247Y-70209012D02*
X107563258Y-70254006D01*
X107563258Y-70254006D02*
X107338286Y-70254006D01*
X107338286Y-70254006D02*
X107248297Y-70209012D01*
X107248297Y-70209012D02*
X107203303Y-70164017D01*
X103233639Y-102423639D02*
X103233639Y-103098555D01*
X103233639Y-103098555D02*
X103188644Y-103233538D01*
X103188644Y-103233538D02*
X103098656Y-103323527D01*
X103098656Y-103323527D02*
X102963672Y-103368521D01*
X102963672Y-103368521D02*
X102873684Y-103368521D01*
X103728577Y-103368521D02*
X103908554Y-103368521D01*
X103908554Y-103368521D02*
X103998543Y-103323527D01*
X103998543Y-103323527D02*
X104043537Y-103278532D01*
X104043537Y-103278532D02*
X104133526Y-103143549D01*
X104133526Y-103143549D02*
X104178521Y-102963571D01*
X104178521Y-102963571D02*
X104178521Y-102603616D01*
X104178521Y-102603616D02*
X104133526Y-102513628D01*
X104133526Y-102513628D02*
X104088532Y-102468633D01*
X104088532Y-102468633D02*
X103998543Y-102423639D01*
X103998543Y-102423639D02*
X103818566Y-102423639D01*
X103818566Y-102423639D02*
X103728577Y-102468633D01*
X103728577Y-102468633D02*
X103683582Y-102513628D01*
X103683582Y-102513628D02*
X103638588Y-102603616D01*
X103638588Y-102603616D02*
X103638588Y-102828588D01*
X103638588Y-102828588D02*
X103683582Y-102918577D01*
X103683582Y-102918577D02*
X103728577Y-102963571D01*
X103728577Y-102963571D02*
X103818566Y-103008566D01*
X103818566Y-103008566D02*
X103998543Y-103008566D01*
X103998543Y-103008566D02*
X104088532Y-102963571D01*
X104088532Y-102963571D02*
X104133526Y-102918577D01*
X104133526Y-102918577D02*
X104178521Y-102828588D01*
X178504410Y-135259504D02*
X178504410Y-136069027D01*
X178504410Y-136069027D02*
X178552029Y-136164265D01*
X178552029Y-136164265D02*
X178599648Y-136211885D01*
X178599648Y-136211885D02*
X178694886Y-136259504D01*
X178694886Y-136259504D02*
X178885362Y-136259504D01*
X178885362Y-136259504D02*
X178980600Y-136211885D01*
X178980600Y-136211885D02*
X179028219Y-136164265D01*
X179028219Y-136164265D02*
X179075838Y-136069027D01*
X179075838Y-136069027D02*
X179075838Y-135259504D01*
X179980600Y-135592837D02*
X179980600Y-136259504D01*
X179742505Y-135211885D02*
X179504410Y-135926170D01*
X179504410Y-135926170D02*
X180123457Y-135926170D01*
X121938095Y-118454819D02*
X121938095Y-119264342D01*
X121938095Y-119264342D02*
X121985714Y-119359580D01*
X121985714Y-119359580D02*
X122033333Y-119407200D01*
X122033333Y-119407200D02*
X122128571Y-119454819D01*
X122128571Y-119454819D02*
X122319047Y-119454819D01*
X122319047Y-119454819D02*
X122414285Y-119407200D01*
X122414285Y-119407200D02*
X122461904Y-119359580D01*
X122461904Y-119359580D02*
X122509523Y-119264342D01*
X122509523Y-119264342D02*
X122509523Y-118454819D01*
X123509523Y-119454819D02*
X122938095Y-119454819D01*
X123223809Y-119454819D02*
X123223809Y-118454819D01*
X123223809Y-118454819D02*
X123128571Y-118597676D01*
X123128571Y-118597676D02*
X123033333Y-118692914D01*
X123033333Y-118692914D02*
X122938095Y-118740533D01*
X135246354Y-69309124D02*
X135246354Y-69984040D01*
X135246354Y-69984040D02*
X135201359Y-70119023D01*
X135201359Y-70119023D02*
X135111371Y-70209012D01*
X135111371Y-70209012D02*
X134976387Y-70254006D01*
X134976387Y-70254006D02*
X134886399Y-70254006D01*
X135651303Y-69399113D02*
X135696297Y-69354118D01*
X135696297Y-69354118D02*
X135786286Y-69309124D01*
X135786286Y-69309124D02*
X136011258Y-69309124D01*
X136011258Y-69309124D02*
X136101247Y-69354118D01*
X136101247Y-69354118D02*
X136146241Y-69399113D01*
X136146241Y-69399113D02*
X136191236Y-69489101D01*
X136191236Y-69489101D02*
X136191236Y-69579090D01*
X136191236Y-69579090D02*
X136146241Y-69714073D01*
X136146241Y-69714073D02*
X135606309Y-70254006D01*
X135606309Y-70254006D02*
X136191236Y-70254006D01*
X116393457Y-110732504D02*
X116060124Y-110256313D01*
X115822029Y-110732504D02*
X115822029Y-109732504D01*
X115822029Y-109732504D02*
X116202981Y-109732504D01*
X116202981Y-109732504D02*
X116298219Y-109780123D01*
X116298219Y-109780123D02*
X116345838Y-109827742D01*
X116345838Y-109827742D02*
X116393457Y-109922980D01*
X116393457Y-109922980D02*
X116393457Y-110065837D01*
X116393457Y-110065837D02*
X116345838Y-110161075D01*
X116345838Y-110161075D02*
X116298219Y-110208694D01*
X116298219Y-110208694D02*
X116202981Y-110256313D01*
X116202981Y-110256313D02*
X115822029Y-110256313D01*
X117345838Y-110732504D02*
X116774410Y-110732504D01*
X117060124Y-110732504D02*
X117060124Y-109732504D01*
X117060124Y-109732504D02*
X116964886Y-109875361D01*
X116964886Y-109875361D02*
X116869648Y-109970599D01*
X116869648Y-109970599D02*
X116774410Y-110018218D01*
X117964886Y-109732504D02*
X118060124Y-109732504D01*
X118060124Y-109732504D02*
X118155362Y-109780123D01*
X118155362Y-109780123D02*
X118202981Y-109827742D01*
X118202981Y-109827742D02*
X118250600Y-109922980D01*
X118250600Y-109922980D02*
X118298219Y-110113456D01*
X118298219Y-110113456D02*
X118298219Y-110351551D01*
X118298219Y-110351551D02*
X118250600Y-110542027D01*
X118250600Y-110542027D02*
X118202981Y-110637265D01*
X118202981Y-110637265D02*
X118155362Y-110684885D01*
X118155362Y-110684885D02*
X118060124Y-110732504D01*
X118060124Y-110732504D02*
X117964886Y-110732504D01*
X117964886Y-110732504D02*
X117869648Y-110684885D01*
X117869648Y-110684885D02*
X117822029Y-110637265D01*
X117822029Y-110637265D02*
X117774410Y-110542027D01*
X117774410Y-110542027D02*
X117726791Y-110351551D01*
X117726791Y-110351551D02*
X117726791Y-110113456D01*
X117726791Y-110113456D02*
X117774410Y-109922980D01*
X117774410Y-109922980D02*
X117822029Y-109827742D01*
X117822029Y-109827742D02*
X117869648Y-109780123D01*
X117869648Y-109780123D02*
X117964886Y-109732504D01*
X116869648Y-103620504D02*
X116536315Y-103144313D01*
X116298220Y-103620504D02*
X116298220Y-102620504D01*
X116298220Y-102620504D02*
X116679172Y-102620504D01*
X116679172Y-102620504D02*
X116774410Y-102668123D01*
X116774410Y-102668123D02*
X116822029Y-102715742D01*
X116822029Y-102715742D02*
X116869648Y-102810980D01*
X116869648Y-102810980D02*
X116869648Y-102953837D01*
X116869648Y-102953837D02*
X116822029Y-103049075D01*
X116822029Y-103049075D02*
X116774410Y-103096694D01*
X116774410Y-103096694D02*
X116679172Y-103144313D01*
X116679172Y-103144313D02*
X116298220Y-103144313D01*
X117774410Y-102620504D02*
X117298220Y-102620504D01*
X117298220Y-102620504D02*
X117250601Y-103096694D01*
X117250601Y-103096694D02*
X117298220Y-103049075D01*
X117298220Y-103049075D02*
X117393458Y-103001456D01*
X117393458Y-103001456D02*
X117631553Y-103001456D01*
X117631553Y-103001456D02*
X117726791Y-103049075D01*
X117726791Y-103049075D02*
X117774410Y-103096694D01*
X117774410Y-103096694D02*
X117822029Y-103191932D01*
X117822029Y-103191932D02*
X117822029Y-103430027D01*
X117822029Y-103430027D02*
X117774410Y-103525265D01*
X117774410Y-103525265D02*
X117726791Y-103572885D01*
X117726791Y-103572885D02*
X117631553Y-103620504D01*
X117631553Y-103620504D02*
X117393458Y-103620504D01*
X117393458Y-103620504D02*
X117298220Y-103572885D01*
X117298220Y-103572885D02*
X117250601Y-103525265D01*
X189244239Y-128748998D02*
X189244239Y-129464375D01*
X189244239Y-129464375D02*
X189196548Y-129607451D01*
X189196548Y-129607451D02*
X189101164Y-129702835D01*
X189101164Y-129702835D02*
X188958089Y-129750526D01*
X188958089Y-129750526D02*
X188862705Y-129750526D01*
X190245767Y-129750526D02*
X189673466Y-129750526D01*
X189959617Y-129750526D02*
X189959617Y-128748998D01*
X189959617Y-128748998D02*
X189864233Y-128892074D01*
X189864233Y-128892074D02*
X189768849Y-128987457D01*
X189768849Y-128987457D02*
X189673466Y-129035149D01*
X190579610Y-128748998D02*
X191199603Y-128748998D01*
X191199603Y-128748998D02*
X190865761Y-129130533D01*
X190865761Y-129130533D02*
X191008836Y-129130533D01*
X191008836Y-129130533D02*
X191104220Y-129178225D01*
X191104220Y-129178225D02*
X191151912Y-129225916D01*
X191151912Y-129225916D02*
X191199603Y-129321300D01*
X191199603Y-129321300D02*
X191199603Y-129559759D01*
X191199603Y-129559759D02*
X191151912Y-129655143D01*
X191151912Y-129655143D02*
X191104220Y-129702835D01*
X191104220Y-129702835D02*
X191008836Y-129750526D01*
X191008836Y-129750526D02*
X190722685Y-129750526D01*
X190722685Y-129750526D02*
X190627302Y-129702835D01*
X190627302Y-129702835D02*
X190579610Y-129655143D01*
X191124791Y-124797176D02*
X191124791Y-123796404D01*
X191124791Y-123796404D02*
X191458381Y-124511241D01*
X191458381Y-124511241D02*
X191791972Y-123796404D01*
X191791972Y-123796404D02*
X191791972Y-124797176D01*
X192268530Y-124797176D02*
X192268530Y-124129995D01*
X192268530Y-123796404D02*
X192220874Y-123844060D01*
X192220874Y-123844060D02*
X192268530Y-123891716D01*
X192268530Y-123891716D02*
X192316185Y-123844060D01*
X192316185Y-123844060D02*
X192268530Y-123796404D01*
X192268530Y-123796404D02*
X192268530Y-123891716D01*
X193173990Y-124749521D02*
X193078678Y-124797176D01*
X193078678Y-124797176D02*
X192888055Y-124797176D01*
X192888055Y-124797176D02*
X192792743Y-124749521D01*
X192792743Y-124749521D02*
X192745088Y-124701865D01*
X192745088Y-124701865D02*
X192697432Y-124606553D01*
X192697432Y-124606553D02*
X192697432Y-124320618D01*
X192697432Y-124320618D02*
X192745088Y-124225307D01*
X192745088Y-124225307D02*
X192792743Y-124177651D01*
X192792743Y-124177651D02*
X192888055Y-124129995D01*
X192888055Y-124129995D02*
X193078678Y-124129995D01*
X193078678Y-124129995D02*
X193173990Y-124177651D01*
X193602893Y-124797176D02*
X193602893Y-124129995D01*
X193602893Y-124320618D02*
X193650548Y-124225307D01*
X193650548Y-124225307D02*
X193698204Y-124177651D01*
X193698204Y-124177651D02*
X193793516Y-124129995D01*
X193793516Y-124129995D02*
X193888827Y-124129995D01*
X194365386Y-124797176D02*
X194270074Y-124749521D01*
X194270074Y-124749521D02*
X194222419Y-124701865D01*
X194222419Y-124701865D02*
X194174763Y-124606553D01*
X194174763Y-124606553D02*
X194174763Y-124320618D01*
X194174763Y-124320618D02*
X194222419Y-124225307D01*
X194222419Y-124225307D02*
X194270074Y-124177651D01*
X194270074Y-124177651D02*
X194365386Y-124129995D01*
X194365386Y-124129995D02*
X194508353Y-124129995D01*
X194508353Y-124129995D02*
X194603665Y-124177651D01*
X194603665Y-124177651D02*
X194651321Y-124225307D01*
X194651321Y-124225307D02*
X194698977Y-124320618D01*
X194698977Y-124320618D02*
X194698977Y-124606553D01*
X194698977Y-124606553D02*
X194651321Y-124701865D01*
X194651321Y-124701865D02*
X194603665Y-124749521D01*
X194603665Y-124749521D02*
X194508353Y-124797176D01*
X194508353Y-124797176D02*
X194365386Y-124797176D01*
X195080223Y-124749521D02*
X195223190Y-124797176D01*
X195223190Y-124797176D02*
X195461469Y-124797176D01*
X195461469Y-124797176D02*
X195556781Y-124749521D01*
X195556781Y-124749521D02*
X195604437Y-124701865D01*
X195604437Y-124701865D02*
X195652092Y-124606553D01*
X195652092Y-124606553D02*
X195652092Y-124511241D01*
X195652092Y-124511241D02*
X195604437Y-124415930D01*
X195604437Y-124415930D02*
X195556781Y-124368274D01*
X195556781Y-124368274D02*
X195461469Y-124320618D01*
X195461469Y-124320618D02*
X195270846Y-124272962D01*
X195270846Y-124272962D02*
X195175534Y-124225307D01*
X195175534Y-124225307D02*
X195127879Y-124177651D01*
X195127879Y-124177651D02*
X195080223Y-124082339D01*
X195080223Y-124082339D02*
X195080223Y-123987028D01*
X195080223Y-123987028D02*
X195127879Y-123891716D01*
X195127879Y-123891716D02*
X195175534Y-123844060D01*
X195175534Y-123844060D02*
X195270846Y-123796404D01*
X195270846Y-123796404D02*
X195509125Y-123796404D01*
X195509125Y-123796404D02*
X195652092Y-123844060D01*
X196080995Y-124797176D02*
X196080995Y-123796404D01*
X196080995Y-123796404D02*
X196319274Y-123796404D01*
X196319274Y-123796404D02*
X196462241Y-123844060D01*
X196462241Y-123844060D02*
X196557553Y-123939372D01*
X196557553Y-123939372D02*
X196605208Y-124034683D01*
X196605208Y-124034683D02*
X196652864Y-124225307D01*
X196652864Y-124225307D02*
X196652864Y-124368274D01*
X196652864Y-124368274D02*
X196605208Y-124558897D01*
X196605208Y-124558897D02*
X196557553Y-124654209D01*
X196557553Y-124654209D02*
X196462241Y-124749521D01*
X196462241Y-124749521D02*
X196319274Y-124797176D01*
X196319274Y-124797176D02*
X196080995Y-124797176D01*
X133923333Y-131439580D02*
X133875714Y-131487200D01*
X133875714Y-131487200D02*
X133732857Y-131534819D01*
X133732857Y-131534819D02*
X133637619Y-131534819D01*
X133637619Y-131534819D02*
X133494762Y-131487200D01*
X133494762Y-131487200D02*
X133399524Y-131391961D01*
X133399524Y-131391961D02*
X133351905Y-131296723D01*
X133351905Y-131296723D02*
X133304286Y-131106247D01*
X133304286Y-131106247D02*
X133304286Y-130963390D01*
X133304286Y-130963390D02*
X133351905Y-130772914D01*
X133351905Y-130772914D02*
X133399524Y-130677676D01*
X133399524Y-130677676D02*
X133494762Y-130582438D01*
X133494762Y-130582438D02*
X133637619Y-130534819D01*
X133637619Y-130534819D02*
X133732857Y-130534819D01*
X133732857Y-130534819D02*
X133875714Y-130582438D01*
X133875714Y-130582438D02*
X133923333Y-130630057D01*
X134780476Y-130534819D02*
X134590000Y-130534819D01*
X134590000Y-130534819D02*
X134494762Y-130582438D01*
X134494762Y-130582438D02*
X134447143Y-130630057D01*
X134447143Y-130630057D02*
X134351905Y-130772914D01*
X134351905Y-130772914D02*
X134304286Y-130963390D01*
X134304286Y-130963390D02*
X134304286Y-131344342D01*
X134304286Y-131344342D02*
X134351905Y-131439580D01*
X134351905Y-131439580D02*
X134399524Y-131487200D01*
X134399524Y-131487200D02*
X134494762Y-131534819D01*
X134494762Y-131534819D02*
X134685238Y-131534819D01*
X134685238Y-131534819D02*
X134780476Y-131487200D01*
X134780476Y-131487200D02*
X134828095Y-131439580D01*
X134828095Y-131439580D02*
X134875714Y-131344342D01*
X134875714Y-131344342D02*
X134875714Y-131106247D01*
X134875714Y-131106247D02*
X134828095Y-131011009D01*
X134828095Y-131011009D02*
X134780476Y-130963390D01*
X134780476Y-130963390D02*
X134685238Y-130915771D01*
X134685238Y-130915771D02*
X134494762Y-130915771D01*
X134494762Y-130915771D02*
X134399524Y-130963390D01*
X134399524Y-130963390D02*
X134351905Y-131011009D01*
X134351905Y-131011009D02*
X134304286Y-131106247D01*
X135324410Y-103890504D02*
X135324410Y-104700027D01*
X135324410Y-104700027D02*
X135372029Y-104795265D01*
X135372029Y-104795265D02*
X135419648Y-104842885D01*
X135419648Y-104842885D02*
X135514886Y-104890504D01*
X135514886Y-104890504D02*
X135705362Y-104890504D01*
X135705362Y-104890504D02*
X135800600Y-104842885D01*
X135800600Y-104842885D02*
X135848219Y-104795265D01*
X135848219Y-104795265D02*
X135895838Y-104700027D01*
X135895838Y-104700027D02*
X135895838Y-103890504D01*
X136324410Y-103985742D02*
X136372029Y-103938123D01*
X136372029Y-103938123D02*
X136467267Y-103890504D01*
X136467267Y-103890504D02*
X136705362Y-103890504D01*
X136705362Y-103890504D02*
X136800600Y-103938123D01*
X136800600Y-103938123D02*
X136848219Y-103985742D01*
X136848219Y-103985742D02*
X136895838Y-104080980D01*
X136895838Y-104080980D02*
X136895838Y-104176218D01*
X136895838Y-104176218D02*
X136848219Y-104319075D01*
X136848219Y-104319075D02*
X136276791Y-104890504D01*
X136276791Y-104890504D02*
X136895838Y-104890504D01*
X114785039Y-120484439D02*
X114785039Y-121159355D01*
X114785039Y-121159355D02*
X114740044Y-121294338D01*
X114740044Y-121294338D02*
X114650056Y-121384327D01*
X114650056Y-121384327D02*
X114515072Y-121429321D01*
X114515072Y-121429321D02*
X114425084Y-121429321D01*
X115369966Y-120889388D02*
X115279977Y-120844394D01*
X115279977Y-120844394D02*
X115234982Y-120799400D01*
X115234982Y-120799400D02*
X115189988Y-120709411D01*
X115189988Y-120709411D02*
X115189988Y-120664416D01*
X115189988Y-120664416D02*
X115234982Y-120574428D01*
X115234982Y-120574428D02*
X115279977Y-120529433D01*
X115279977Y-120529433D02*
X115369966Y-120484439D01*
X115369966Y-120484439D02*
X115549943Y-120484439D01*
X115549943Y-120484439D02*
X115639932Y-120529433D01*
X115639932Y-120529433D02*
X115684926Y-120574428D01*
X115684926Y-120574428D02*
X115729921Y-120664416D01*
X115729921Y-120664416D02*
X115729921Y-120709411D01*
X115729921Y-120709411D02*
X115684926Y-120799400D01*
X115684926Y-120799400D02*
X115639932Y-120844394D01*
X115639932Y-120844394D02*
X115549943Y-120889388D01*
X115549943Y-120889388D02*
X115369966Y-120889388D01*
X115369966Y-120889388D02*
X115279977Y-120934383D01*
X115279977Y-120934383D02*
X115234982Y-120979377D01*
X115234982Y-120979377D02*
X115189988Y-121069366D01*
X115189988Y-121069366D02*
X115189988Y-121249343D01*
X115189988Y-121249343D02*
X115234982Y-121339332D01*
X115234982Y-121339332D02*
X115279977Y-121384327D01*
X115279977Y-121384327D02*
X115369966Y-121429321D01*
X115369966Y-121429321D02*
X115549943Y-121429321D01*
X115549943Y-121429321D02*
X115639932Y-121384327D01*
X115639932Y-121384327D02*
X115684926Y-121339332D01*
X115684926Y-121339332D02*
X115729921Y-121249343D01*
X115729921Y-121249343D02*
X115729921Y-121069366D01*
X115729921Y-121069366D02*
X115684926Y-120979377D01*
X115684926Y-120979377D02*
X115639932Y-120934383D01*
X115639932Y-120934383D02*
X115549943Y-120889388D01*
X165383648Y-128512504D02*
X165050315Y-128036313D01*
X164812220Y-128512504D02*
X164812220Y-127512504D01*
X164812220Y-127512504D02*
X165193172Y-127512504D01*
X165193172Y-127512504D02*
X165288410Y-127560123D01*
X165288410Y-127560123D02*
X165336029Y-127607742D01*
X165336029Y-127607742D02*
X165383648Y-127702980D01*
X165383648Y-127702980D02*
X165383648Y-127845837D01*
X165383648Y-127845837D02*
X165336029Y-127941075D01*
X165336029Y-127941075D02*
X165288410Y-127988694D01*
X165288410Y-127988694D02*
X165193172Y-128036313D01*
X165193172Y-128036313D02*
X164812220Y-128036313D01*
X165859839Y-128512504D02*
X166050315Y-128512504D01*
X166050315Y-128512504D02*
X166145553Y-128464885D01*
X166145553Y-128464885D02*
X166193172Y-128417265D01*
X166193172Y-128417265D02*
X166288410Y-128274408D01*
X166288410Y-128274408D02*
X166336029Y-128083932D01*
X166336029Y-128083932D02*
X166336029Y-127702980D01*
X166336029Y-127702980D02*
X166288410Y-127607742D01*
X166288410Y-127607742D02*
X166240791Y-127560123D01*
X166240791Y-127560123D02*
X166145553Y-127512504D01*
X166145553Y-127512504D02*
X165955077Y-127512504D01*
X165955077Y-127512504D02*
X165859839Y-127560123D01*
X165859839Y-127560123D02*
X165812220Y-127607742D01*
X165812220Y-127607742D02*
X165764601Y-127702980D01*
X165764601Y-127702980D02*
X165764601Y-127941075D01*
X165764601Y-127941075D02*
X165812220Y-128036313D01*
X165812220Y-128036313D02*
X165859839Y-128083932D01*
X165859839Y-128083932D02*
X165955077Y-128131551D01*
X165955077Y-128131551D02*
X166145553Y-128131551D01*
X166145553Y-128131551D02*
X166240791Y-128083932D01*
X166240791Y-128083932D02*
X166288410Y-128036313D01*
X166288410Y-128036313D02*
X166336029Y-127941075D01*
X165383648Y-124702504D02*
X165050315Y-124226313D01*
X164812220Y-124702504D02*
X164812220Y-123702504D01*
X164812220Y-123702504D02*
X165193172Y-123702504D01*
X165193172Y-123702504D02*
X165288410Y-123750123D01*
X165288410Y-123750123D02*
X165336029Y-123797742D01*
X165336029Y-123797742D02*
X165383648Y-123892980D01*
X165383648Y-123892980D02*
X165383648Y-124035837D01*
X165383648Y-124035837D02*
X165336029Y-124131075D01*
X165336029Y-124131075D02*
X165288410Y-124178694D01*
X165288410Y-124178694D02*
X165193172Y-124226313D01*
X165193172Y-124226313D02*
X164812220Y-124226313D01*
X165764601Y-123797742D02*
X165812220Y-123750123D01*
X165812220Y-123750123D02*
X165907458Y-123702504D01*
X165907458Y-123702504D02*
X166145553Y-123702504D01*
X166145553Y-123702504D02*
X166240791Y-123750123D01*
X166240791Y-123750123D02*
X166288410Y-123797742D01*
X166288410Y-123797742D02*
X166336029Y-123892980D01*
X166336029Y-123892980D02*
X166336029Y-123988218D01*
X166336029Y-123988218D02*
X166288410Y-124131075D01*
X166288410Y-124131075D02*
X165716982Y-124702504D01*
X165716982Y-124702504D02*
X166336029Y-124702504D01*
X165383648Y-116320504D02*
X165050315Y-115844313D01*
X164812220Y-116320504D02*
X164812220Y-115320504D01*
X164812220Y-115320504D02*
X165193172Y-115320504D01*
X165193172Y-115320504D02*
X165288410Y-115368123D01*
X165288410Y-115368123D02*
X165336029Y-115415742D01*
X165336029Y-115415742D02*
X165383648Y-115510980D01*
X165383648Y-115510980D02*
X165383648Y-115653837D01*
X165383648Y-115653837D02*
X165336029Y-115749075D01*
X165336029Y-115749075D02*
X165288410Y-115796694D01*
X165288410Y-115796694D02*
X165193172Y-115844313D01*
X165193172Y-115844313D02*
X164812220Y-115844313D01*
X166336029Y-116320504D02*
X165764601Y-116320504D01*
X166050315Y-116320504D02*
X166050315Y-115320504D01*
X166050315Y-115320504D02*
X165955077Y-115463361D01*
X165955077Y-115463361D02*
X165859839Y-115558599D01*
X165859839Y-115558599D02*
X165764601Y-115606218D01*
X196292380Y-76471009D02*
X196435237Y-76518628D01*
X196435237Y-76518628D02*
X196482856Y-76566247D01*
X196482856Y-76566247D02*
X196530475Y-76661485D01*
X196530475Y-76661485D02*
X196530475Y-76804342D01*
X196530475Y-76804342D02*
X196482856Y-76899580D01*
X196482856Y-76899580D02*
X196435237Y-76947200D01*
X196435237Y-76947200D02*
X196339999Y-76994819D01*
X196339999Y-76994819D02*
X195959047Y-76994819D01*
X195959047Y-76994819D02*
X195959047Y-75994819D01*
X195959047Y-75994819D02*
X196292380Y-75994819D01*
X196292380Y-75994819D02*
X196387618Y-76042438D01*
X196387618Y-76042438D02*
X196435237Y-76090057D01*
X196435237Y-76090057D02*
X196482856Y-76185295D01*
X196482856Y-76185295D02*
X196482856Y-76280533D01*
X196482856Y-76280533D02*
X196435237Y-76375771D01*
X196435237Y-76375771D02*
X196387618Y-76423390D01*
X196387618Y-76423390D02*
X196292380Y-76471009D01*
X196292380Y-76471009D02*
X195959047Y-76471009D01*
X197387618Y-76994819D02*
X197387618Y-76471009D01*
X197387618Y-76471009D02*
X197339999Y-76375771D01*
X197339999Y-76375771D02*
X197244761Y-76328152D01*
X197244761Y-76328152D02*
X197054285Y-76328152D01*
X197054285Y-76328152D02*
X196959047Y-76375771D01*
X197387618Y-76947200D02*
X197292380Y-76994819D01*
X197292380Y-76994819D02*
X197054285Y-76994819D01*
X197054285Y-76994819D02*
X196959047Y-76947200D01*
X196959047Y-76947200D02*
X196911428Y-76851961D01*
X196911428Y-76851961D02*
X196911428Y-76756723D01*
X196911428Y-76756723D02*
X196959047Y-76661485D01*
X196959047Y-76661485D02*
X197054285Y-76613866D01*
X197054285Y-76613866D02*
X197292380Y-76613866D01*
X197292380Y-76613866D02*
X197387618Y-76566247D01*
X197720952Y-76328152D02*
X198101904Y-76328152D01*
X197863809Y-75994819D02*
X197863809Y-76851961D01*
X197863809Y-76851961D02*
X197911428Y-76947200D01*
X197911428Y-76947200D02*
X198006666Y-76994819D01*
X198006666Y-76994819D02*
X198101904Y-76994819D01*
X198292381Y-76328152D02*
X198673333Y-76328152D01*
X198435238Y-75994819D02*
X198435238Y-76851961D01*
X198435238Y-76851961D02*
X198482857Y-76947200D01*
X198482857Y-76947200D02*
X198578095Y-76994819D01*
X198578095Y-76994819D02*
X198673333Y-76994819D01*
X199387619Y-76947200D02*
X199292381Y-76994819D01*
X199292381Y-76994819D02*
X199101905Y-76994819D01*
X199101905Y-76994819D02*
X199006667Y-76947200D01*
X199006667Y-76947200D02*
X198959048Y-76851961D01*
X198959048Y-76851961D02*
X198959048Y-76471009D01*
X198959048Y-76471009D02*
X199006667Y-76375771D01*
X199006667Y-76375771D02*
X199101905Y-76328152D01*
X199101905Y-76328152D02*
X199292381Y-76328152D01*
X199292381Y-76328152D02*
X199387619Y-76375771D01*
X199387619Y-76375771D02*
X199435238Y-76471009D01*
X199435238Y-76471009D02*
X199435238Y-76566247D01*
X199435238Y-76566247D02*
X198959048Y-76661485D01*
X199863810Y-76994819D02*
X199863810Y-76328152D01*
X199863810Y-76518628D02*
X199911429Y-76423390D01*
X199911429Y-76423390D02*
X199959048Y-76375771D01*
X199959048Y-76375771D02*
X200054286Y-76328152D01*
X200054286Y-76328152D02*
X200149524Y-76328152D01*
X200387620Y-76328152D02*
X200625715Y-76994819D01*
X200863810Y-76328152D02*
X200625715Y-76994819D01*
X200625715Y-76994819D02*
X200530477Y-77232914D01*
X200530477Y-77232914D02*
X200482858Y-77280533D01*
X200482858Y-77280533D02*
X200387620Y-77328152D01*
X201768572Y-76994819D02*
X201197144Y-76994819D01*
X201482858Y-76994819D02*
X201482858Y-75994819D01*
X201482858Y-75994819D02*
X201387620Y-76137676D01*
X201387620Y-76137676D02*
X201292382Y-76232914D01*
X201292382Y-76232914D02*
X201197144Y-76280533D01*
X113910354Y-69309124D02*
X113910354Y-69984040D01*
X113910354Y-69984040D02*
X113865359Y-70119023D01*
X113865359Y-70119023D02*
X113775371Y-70209012D01*
X113775371Y-70209012D02*
X113640387Y-70254006D01*
X113640387Y-70254006D02*
X113550399Y-70254006D01*
X114765247Y-69624085D02*
X114765247Y-70254006D01*
X114540275Y-69264130D02*
X114315303Y-69939045D01*
X114315303Y-69939045D02*
X114900230Y-69939045D01*
X197749000Y-108132819D02*
X198082333Y-109132819D01*
X198082333Y-109132819D02*
X198415666Y-108132819D01*
X198749000Y-109132819D02*
X198749000Y-108132819D01*
X198749000Y-108132819D02*
X198987095Y-108132819D01*
X198987095Y-108132819D02*
X199129952Y-108180438D01*
X199129952Y-108180438D02*
X199225190Y-108275676D01*
X199225190Y-108275676D02*
X199272809Y-108370914D01*
X199272809Y-108370914D02*
X199320428Y-108561390D01*
X199320428Y-108561390D02*
X199320428Y-108704247D01*
X199320428Y-108704247D02*
X199272809Y-108894723D01*
X199272809Y-108894723D02*
X199225190Y-108989961D01*
X199225190Y-108989961D02*
X199129952Y-109085200D01*
X199129952Y-109085200D02*
X198987095Y-109132819D01*
X198987095Y-109132819D02*
X198749000Y-109132819D01*
X200320428Y-109037580D02*
X200272809Y-109085200D01*
X200272809Y-109085200D02*
X200129952Y-109132819D01*
X200129952Y-109132819D02*
X200034714Y-109132819D01*
X200034714Y-109132819D02*
X199891857Y-109085200D01*
X199891857Y-109085200D02*
X199796619Y-108989961D01*
X199796619Y-108989961D02*
X199749000Y-108894723D01*
X199749000Y-108894723D02*
X199701381Y-108704247D01*
X199701381Y-108704247D02*
X199701381Y-108561390D01*
X199701381Y-108561390D02*
X199749000Y-108370914D01*
X199749000Y-108370914D02*
X199796619Y-108275676D01*
X199796619Y-108275676D02*
X199891857Y-108180438D01*
X199891857Y-108180438D02*
X200034714Y-108132819D01*
X200034714Y-108132819D02*
X200129952Y-108132819D01*
X200129952Y-108132819D02*
X200272809Y-108180438D01*
X200272809Y-108180438D02*
X200320428Y-108228057D01*
X200749000Y-109132819D02*
X200749000Y-108132819D01*
X201225190Y-108466152D02*
X201225190Y-109132819D01*
X201225190Y-108561390D02*
X201272809Y-108513771D01*
X201272809Y-108513771D02*
X201368047Y-108466152D01*
X201368047Y-108466152D02*
X201510904Y-108466152D01*
X201510904Y-108466152D02*
X201606142Y-108513771D01*
X201606142Y-108513771D02*
X201653761Y-108609009D01*
X201653761Y-108609009D02*
X201653761Y-109132819D01*
X202653761Y-109132819D02*
X202082333Y-109132819D01*
X202368047Y-109132819D02*
X202368047Y-108132819D01*
X202368047Y-108132819D02*
X202272809Y-108275676D01*
X202272809Y-108275676D02*
X202177571Y-108370914D01*
X202177571Y-108370914D02*
X202082333Y-108418533D01*
X165383648Y-135370504D02*
X165050315Y-134894313D01*
X164812220Y-135370504D02*
X164812220Y-134370504D01*
X164812220Y-134370504D02*
X165193172Y-134370504D01*
X165193172Y-134370504D02*
X165288410Y-134418123D01*
X165288410Y-134418123D02*
X165336029Y-134465742D01*
X165336029Y-134465742D02*
X165383648Y-134560980D01*
X165383648Y-134560980D02*
X165383648Y-134703837D01*
X165383648Y-134703837D02*
X165336029Y-134799075D01*
X165336029Y-134799075D02*
X165288410Y-134846694D01*
X165288410Y-134846694D02*
X165193172Y-134894313D01*
X165193172Y-134894313D02*
X164812220Y-134894313D01*
X165716982Y-134370504D02*
X166383648Y-134370504D01*
X166383648Y-134370504D02*
X165955077Y-135370504D01*
X146587648Y-110891265D02*
X146540029Y-110938885D01*
X146540029Y-110938885D02*
X146397172Y-110986504D01*
X146397172Y-110986504D02*
X146301934Y-110986504D01*
X146301934Y-110986504D02*
X146159077Y-110938885D01*
X146159077Y-110938885D02*
X146063839Y-110843646D01*
X146063839Y-110843646D02*
X146016220Y-110748408D01*
X146016220Y-110748408D02*
X145968601Y-110557932D01*
X145968601Y-110557932D02*
X145968601Y-110415075D01*
X145968601Y-110415075D02*
X146016220Y-110224599D01*
X146016220Y-110224599D02*
X146063839Y-110129361D01*
X146063839Y-110129361D02*
X146159077Y-110034123D01*
X146159077Y-110034123D02*
X146301934Y-109986504D01*
X146301934Y-109986504D02*
X146397172Y-109986504D01*
X146397172Y-109986504D02*
X146540029Y-110034123D01*
X146540029Y-110034123D02*
X146587648Y-110081742D01*
X146920982Y-109986504D02*
X147587648Y-109986504D01*
X147587648Y-109986504D02*
X147159077Y-110986504D01*
D10*
X143960848Y-111191169D02*
X143960848Y-111953074D01*
D11*
X124743648Y-107605265D02*
X124696029Y-107652885D01*
X124696029Y-107652885D02*
X124553172Y-107700504D01*
X124553172Y-107700504D02*
X124457934Y-107700504D01*
X124457934Y-107700504D02*
X124315077Y-107652885D01*
X124315077Y-107652885D02*
X124219839Y-107557646D01*
X124219839Y-107557646D02*
X124172220Y-107462408D01*
X124172220Y-107462408D02*
X124124601Y-107271932D01*
X124124601Y-107271932D02*
X124124601Y-107129075D01*
X124124601Y-107129075D02*
X124172220Y-106938599D01*
X124172220Y-106938599D02*
X124219839Y-106843361D01*
X124219839Y-106843361D02*
X124315077Y-106748123D01*
X124315077Y-106748123D02*
X124457934Y-106700504D01*
X124457934Y-106700504D02*
X124553172Y-106700504D01*
X124553172Y-106700504D02*
X124696029Y-106748123D01*
X124696029Y-106748123D02*
X124743648Y-106795742D01*
X125124601Y-106795742D02*
X125172220Y-106748123D01*
X125172220Y-106748123D02*
X125267458Y-106700504D01*
X125267458Y-106700504D02*
X125505553Y-106700504D01*
X125505553Y-106700504D02*
X125600791Y-106748123D01*
X125600791Y-106748123D02*
X125648410Y-106795742D01*
X125648410Y-106795742D02*
X125696029Y-106890980D01*
X125696029Y-106890980D02*
X125696029Y-106986218D01*
X125696029Y-106986218D02*
X125648410Y-107129075D01*
X125648410Y-107129075D02*
X125076982Y-107700504D01*
X125076982Y-107700504D02*
X125696029Y-107700504D01*
D10*
X127703781Y-106570200D02*
X127703781Y-105808296D01*
D11*
X165383648Y-121146504D02*
X165050315Y-120670313D01*
X164812220Y-121146504D02*
X164812220Y-120146504D01*
X164812220Y-120146504D02*
X165193172Y-120146504D01*
X165193172Y-120146504D02*
X165288410Y-120194123D01*
X165288410Y-120194123D02*
X165336029Y-120241742D01*
X165336029Y-120241742D02*
X165383648Y-120336980D01*
X165383648Y-120336980D02*
X165383648Y-120479837D01*
X165383648Y-120479837D02*
X165336029Y-120575075D01*
X165336029Y-120575075D02*
X165288410Y-120622694D01*
X165288410Y-120622694D02*
X165193172Y-120670313D01*
X165193172Y-120670313D02*
X164812220Y-120670313D01*
X165716982Y-120146504D02*
X166336029Y-120146504D01*
X166336029Y-120146504D02*
X166002696Y-120527456D01*
X166002696Y-120527456D02*
X166145553Y-120527456D01*
X166145553Y-120527456D02*
X166240791Y-120575075D01*
X166240791Y-120575075D02*
X166288410Y-120622694D01*
X166288410Y-120622694D02*
X166336029Y-120717932D01*
X166336029Y-120717932D02*
X166336029Y-120956027D01*
X166336029Y-120956027D02*
X166288410Y-121051265D01*
X166288410Y-121051265D02*
X166240791Y-121098885D01*
X166240791Y-121098885D02*
X166145553Y-121146504D01*
X166145553Y-121146504D02*
X165859839Y-121146504D01*
X165859839Y-121146504D02*
X165764601Y-121098885D01*
X165764601Y-121098885D02*
X165716982Y-121051265D01*
X128134354Y-69309124D02*
X128134354Y-69984040D01*
X128134354Y-69984040D02*
X128089359Y-70119023D01*
X128089359Y-70119023D02*
X127999371Y-70209012D01*
X127999371Y-70209012D02*
X127864387Y-70254006D01*
X127864387Y-70254006D02*
X127774399Y-70254006D01*
X129079236Y-70254006D02*
X128539303Y-70254006D01*
X128809269Y-70254006D02*
X128809269Y-69309124D01*
X128809269Y-69309124D02*
X128719281Y-69444107D01*
X128719281Y-69444107D02*
X128629292Y-69534096D01*
X128629292Y-69534096D02*
X128539303Y-69579090D01*
X180369648Y-119527265D02*
X180322029Y-119574885D01*
X180322029Y-119574885D02*
X180179172Y-119622504D01*
X180179172Y-119622504D02*
X180083934Y-119622504D01*
X180083934Y-119622504D02*
X179941077Y-119574885D01*
X179941077Y-119574885D02*
X179845839Y-119479646D01*
X179845839Y-119479646D02*
X179798220Y-119384408D01*
X179798220Y-119384408D02*
X179750601Y-119193932D01*
X179750601Y-119193932D02*
X179750601Y-119051075D01*
X179750601Y-119051075D02*
X179798220Y-118860599D01*
X179798220Y-118860599D02*
X179845839Y-118765361D01*
X179845839Y-118765361D02*
X179941077Y-118670123D01*
X179941077Y-118670123D02*
X180083934Y-118622504D01*
X180083934Y-118622504D02*
X180179172Y-118622504D01*
X180179172Y-118622504D02*
X180322029Y-118670123D01*
X180322029Y-118670123D02*
X180369648Y-118717742D01*
X181322029Y-119622504D02*
X180750601Y-119622504D01*
X181036315Y-119622504D02*
X181036315Y-118622504D01*
X181036315Y-118622504D02*
X180941077Y-118765361D01*
X180941077Y-118765361D02*
X180845839Y-118860599D01*
X180845839Y-118860599D02*
X180750601Y-118908218D01*
D10*
X179911630Y-121962218D02*
X179149726Y-121962218D01*
D11*
X116869648Y-107176504D02*
X116536315Y-106700313D01*
X116298220Y-107176504D02*
X116298220Y-106176504D01*
X116298220Y-106176504D02*
X116679172Y-106176504D01*
X116679172Y-106176504D02*
X116774410Y-106224123D01*
X116774410Y-106224123D02*
X116822029Y-106271742D01*
X116822029Y-106271742D02*
X116869648Y-106366980D01*
X116869648Y-106366980D02*
X116869648Y-106509837D01*
X116869648Y-106509837D02*
X116822029Y-106605075D01*
X116822029Y-106605075D02*
X116774410Y-106652694D01*
X116774410Y-106652694D02*
X116679172Y-106700313D01*
X116679172Y-106700313D02*
X116298220Y-106700313D01*
X117726791Y-106176504D02*
X117536315Y-106176504D01*
X117536315Y-106176504D02*
X117441077Y-106224123D01*
X117441077Y-106224123D02*
X117393458Y-106271742D01*
X117393458Y-106271742D02*
X117298220Y-106414599D01*
X117298220Y-106414599D02*
X117250601Y-106605075D01*
X117250601Y-106605075D02*
X117250601Y-106986027D01*
X117250601Y-106986027D02*
X117298220Y-107081265D01*
X117298220Y-107081265D02*
X117345839Y-107128885D01*
X117345839Y-107128885D02*
X117441077Y-107176504D01*
X117441077Y-107176504D02*
X117631553Y-107176504D01*
X117631553Y-107176504D02*
X117726791Y-107128885D01*
X117726791Y-107128885D02*
X117774410Y-107081265D01*
X117774410Y-107081265D02*
X117822029Y-106986027D01*
X117822029Y-106986027D02*
X117822029Y-106747932D01*
X117822029Y-106747932D02*
X117774410Y-106652694D01*
X117774410Y-106652694D02*
X117726791Y-106605075D01*
X117726791Y-106605075D02*
X117631553Y-106557456D01*
X117631553Y-106557456D02*
X117441077Y-106557456D01*
X117441077Y-106557456D02*
X117345839Y-106605075D01*
X117345839Y-106605075D02*
X117298220Y-106652694D01*
X117298220Y-106652694D02*
X117250601Y-106747932D01*
X165383648Y-112510504D02*
X165050315Y-112034313D01*
X164812220Y-112510504D02*
X164812220Y-111510504D01*
X164812220Y-111510504D02*
X165193172Y-111510504D01*
X165193172Y-111510504D02*
X165288410Y-111558123D01*
X165288410Y-111558123D02*
X165336029Y-111605742D01*
X165336029Y-111605742D02*
X165383648Y-111700980D01*
X165383648Y-111700980D02*
X165383648Y-111843837D01*
X165383648Y-111843837D02*
X165336029Y-111939075D01*
X165336029Y-111939075D02*
X165288410Y-111986694D01*
X165288410Y-111986694D02*
X165193172Y-112034313D01*
X165193172Y-112034313D02*
X164812220Y-112034313D01*
X166240791Y-111843837D02*
X166240791Y-112510504D01*
X166002696Y-111462885D02*
X165764601Y-112177170D01*
X165764601Y-112177170D02*
X166383648Y-112177170D01*
X102751354Y-85779124D02*
X102751354Y-86454040D01*
X102751354Y-86454040D02*
X102706359Y-86589023D01*
X102706359Y-86589023D02*
X102616371Y-86679012D01*
X102616371Y-86679012D02*
X102481387Y-86724006D01*
X102481387Y-86724006D02*
X102391399Y-86724006D01*
X103111309Y-85779124D02*
X103741230Y-85779124D01*
X103741230Y-85779124D02*
X103336281Y-86724006D01*
X142358354Y-69309124D02*
X142358354Y-69984040D01*
X142358354Y-69984040D02*
X142313359Y-70119023D01*
X142313359Y-70119023D02*
X142223371Y-70209012D01*
X142223371Y-70209012D02*
X142088387Y-70254006D01*
X142088387Y-70254006D02*
X141998399Y-70254006D01*
X142718309Y-69309124D02*
X143303236Y-69309124D01*
X143303236Y-69309124D02*
X142988275Y-69669079D01*
X142988275Y-69669079D02*
X143123258Y-69669079D01*
X143123258Y-69669079D02*
X143213247Y-69714073D01*
X143213247Y-69714073D02*
X143258241Y-69759068D01*
X143258241Y-69759068D02*
X143303236Y-69849056D01*
X143303236Y-69849056D02*
X143303236Y-70074028D01*
X143303236Y-70074028D02*
X143258241Y-70164017D01*
X143258241Y-70164017D02*
X143213247Y-70209012D01*
X143213247Y-70209012D02*
X143123258Y-70254006D01*
X143123258Y-70254006D02*
X142853292Y-70254006D01*
X142853292Y-70254006D02*
X142763303Y-70209012D01*
X142763303Y-70209012D02*
X142718309Y-70164017D01*
X165383648Y-131814504D02*
X165050315Y-131338313D01*
X164812220Y-131814504D02*
X164812220Y-130814504D01*
X164812220Y-130814504D02*
X165193172Y-130814504D01*
X165193172Y-130814504D02*
X165288410Y-130862123D01*
X165288410Y-130862123D02*
X165336029Y-130909742D01*
X165336029Y-130909742D02*
X165383648Y-131004980D01*
X165383648Y-131004980D02*
X165383648Y-131147837D01*
X165383648Y-131147837D02*
X165336029Y-131243075D01*
X165336029Y-131243075D02*
X165288410Y-131290694D01*
X165288410Y-131290694D02*
X165193172Y-131338313D01*
X165193172Y-131338313D02*
X164812220Y-131338313D01*
X165955077Y-131243075D02*
X165859839Y-131195456D01*
X165859839Y-131195456D02*
X165812220Y-131147837D01*
X165812220Y-131147837D02*
X165764601Y-131052599D01*
X165764601Y-131052599D02*
X165764601Y-131004980D01*
X165764601Y-131004980D02*
X165812220Y-130909742D01*
X165812220Y-130909742D02*
X165859839Y-130862123D01*
X165859839Y-130862123D02*
X165955077Y-130814504D01*
X165955077Y-130814504D02*
X166145553Y-130814504D01*
X166145553Y-130814504D02*
X166240791Y-130862123D01*
X166240791Y-130862123D02*
X166288410Y-130909742D01*
X166288410Y-130909742D02*
X166336029Y-131004980D01*
X166336029Y-131004980D02*
X166336029Y-131052599D01*
X166336029Y-131052599D02*
X166288410Y-131147837D01*
X166288410Y-131147837D02*
X166240791Y-131195456D01*
X166240791Y-131195456D02*
X166145553Y-131243075D01*
X166145553Y-131243075D02*
X165955077Y-131243075D01*
X165955077Y-131243075D02*
X165859839Y-131290694D01*
X165859839Y-131290694D02*
X165812220Y-131338313D01*
X165812220Y-131338313D02*
X165764601Y-131433551D01*
X165764601Y-131433551D02*
X165764601Y-131624027D01*
X165764601Y-131624027D02*
X165812220Y-131719265D01*
X165812220Y-131719265D02*
X165859839Y-131766885D01*
X165859839Y-131766885D02*
X165955077Y-131814504D01*
X165955077Y-131814504D02*
X166145553Y-131814504D01*
X166145553Y-131814504D02*
X166240791Y-131766885D01*
X166240791Y-131766885D02*
X166288410Y-131719265D01*
X166288410Y-131719265D02*
X166336029Y-131624027D01*
X166336029Y-131624027D02*
X166336029Y-131433551D01*
X166336029Y-131433551D02*
X166288410Y-131338313D01*
X166288410Y-131338313D02*
X166240791Y-131290694D01*
X166240791Y-131290694D02*
X166145553Y-131243075D01*
X146223333Y-105329580D02*
X146175714Y-105377200D01*
X146175714Y-105377200D02*
X146032857Y-105424819D01*
X146032857Y-105424819D02*
X145937619Y-105424819D01*
X145937619Y-105424819D02*
X145794762Y-105377200D01*
X145794762Y-105377200D02*
X145699524Y-105281961D01*
X145699524Y-105281961D02*
X145651905Y-105186723D01*
X145651905Y-105186723D02*
X145604286Y-104996247D01*
X145604286Y-104996247D02*
X145604286Y-104853390D01*
X145604286Y-104853390D02*
X145651905Y-104662914D01*
X145651905Y-104662914D02*
X145699524Y-104567676D01*
X145699524Y-104567676D02*
X145794762Y-104472438D01*
X145794762Y-104472438D02*
X145937619Y-104424819D01*
X145937619Y-104424819D02*
X146032857Y-104424819D01*
X146032857Y-104424819D02*
X146175714Y-104472438D01*
X146175714Y-104472438D02*
X146223333Y-104520057D01*
X147128095Y-104424819D02*
X146651905Y-104424819D01*
X146651905Y-104424819D02*
X146604286Y-104901009D01*
X146604286Y-104901009D02*
X146651905Y-104853390D01*
X146651905Y-104853390D02*
X146747143Y-104805771D01*
X146747143Y-104805771D02*
X146985238Y-104805771D01*
X146985238Y-104805771D02*
X147080476Y-104853390D01*
X147080476Y-104853390D02*
X147128095Y-104901009D01*
X147128095Y-104901009D02*
X147175714Y-104996247D01*
X147175714Y-104996247D02*
X147175714Y-105234342D01*
X147175714Y-105234342D02*
X147128095Y-105329580D01*
X147128095Y-105329580D02*
X147080476Y-105377200D01*
X147080476Y-105377200D02*
X146985238Y-105424819D01*
X146985238Y-105424819D02*
X146747143Y-105424819D01*
X146747143Y-105424819D02*
X146651905Y-105377200D01*
X146651905Y-105377200D02*
X146604286Y-105329580D01*
D10*
X143452848Y-105603169D02*
X143452848Y-106365074D01*
D11*
X140526124Y-127020313D02*
X140526124Y-127496504D01*
X140192791Y-126496504D02*
X140526124Y-127020313D01*
X140526124Y-127020313D02*
X140859457Y-126496504D01*
X141716600Y-127496504D02*
X141145172Y-127496504D01*
X141430886Y-127496504D02*
X141430886Y-126496504D01*
X141430886Y-126496504D02*
X141335648Y-126639361D01*
X141335648Y-126639361D02*
X141240410Y-126734599D01*
X141240410Y-126734599D02*
X141145172Y-126782218D01*
X126738095Y-88396504D02*
X126738095Y-89206027D01*
X126738095Y-89206027D02*
X126785714Y-89301265D01*
X126785714Y-89301265D02*
X126833333Y-89348885D01*
X126833333Y-89348885D02*
X126928571Y-89396504D01*
X126928571Y-89396504D02*
X127119047Y-89396504D01*
X127119047Y-89396504D02*
X127214285Y-89348885D01*
X127214285Y-89348885D02*
X127261904Y-89301265D01*
X127261904Y-89301265D02*
X127309523Y-89206027D01*
X127309523Y-89206027D02*
X127309523Y-88396504D01*
X127690476Y-88396504D02*
X128309523Y-88396504D01*
X128309523Y-88396504D02*
X127976190Y-88777456D01*
X127976190Y-88777456D02*
X128119047Y-88777456D01*
X128119047Y-88777456D02*
X128214285Y-88825075D01*
X128214285Y-88825075D02*
X128261904Y-88872694D01*
X128261904Y-88872694D02*
X128309523Y-88967932D01*
X128309523Y-88967932D02*
X128309523Y-89206027D01*
X128309523Y-89206027D02*
X128261904Y-89301265D01*
X128261904Y-89301265D02*
X128214285Y-89348885D01*
X128214285Y-89348885D02*
X128119047Y-89396504D01*
X128119047Y-89396504D02*
X127833333Y-89396504D01*
X127833333Y-89396504D02*
X127738095Y-89348885D01*
X127738095Y-89348885D02*
X127690476Y-89301265D01*
D10*
X111767419Y-96400657D02*
X112767419Y-96067324D01*
X112767419Y-96067324D02*
X111767419Y-95733991D01*
X112767419Y-95400657D02*
X111767419Y-95400657D01*
X112767419Y-94924467D02*
X111767419Y-94924467D01*
X111767419Y-94924467D02*
X112767419Y-94353039D01*
X112767419Y-94353039D02*
X111767419Y-94353039D01*
X140659800Y-84240419D02*
X140707419Y-84097562D01*
X140707419Y-84097562D02*
X140707419Y-83859467D01*
X140707419Y-83859467D02*
X140659800Y-83764229D01*
X140659800Y-83764229D02*
X140612180Y-83716610D01*
X140612180Y-83716610D02*
X140516942Y-83668991D01*
X140516942Y-83668991D02*
X140421704Y-83668991D01*
X140421704Y-83668991D02*
X140326466Y-83716610D01*
X140326466Y-83716610D02*
X140278847Y-83764229D01*
X140278847Y-83764229D02*
X140231228Y-83859467D01*
X140231228Y-83859467D02*
X140183609Y-84049943D01*
X140183609Y-84049943D02*
X140135990Y-84145181D01*
X140135990Y-84145181D02*
X140088371Y-84192800D01*
X140088371Y-84192800D02*
X139993133Y-84240419D01*
X139993133Y-84240419D02*
X139897895Y-84240419D01*
X139897895Y-84240419D02*
X139802657Y-84192800D01*
X139802657Y-84192800D02*
X139755038Y-84145181D01*
X139755038Y-84145181D02*
X139707419Y-84049943D01*
X139707419Y-84049943D02*
X139707419Y-83811848D01*
X139707419Y-83811848D02*
X139755038Y-83668991D01*
X140707419Y-83240419D02*
X139707419Y-83240419D01*
X139707419Y-83240419D02*
X139707419Y-83002324D01*
X139707419Y-83002324D02*
X139755038Y-82859467D01*
X139755038Y-82859467D02*
X139850276Y-82764229D01*
X139850276Y-82764229D02*
X139945514Y-82716610D01*
X139945514Y-82716610D02*
X140135990Y-82668991D01*
X140135990Y-82668991D02*
X140278847Y-82668991D01*
X140278847Y-82668991D02*
X140469323Y-82716610D01*
X140469323Y-82716610D02*
X140564561Y-82764229D01*
X140564561Y-82764229D02*
X140659800Y-82859467D01*
X140659800Y-82859467D02*
X140707419Y-83002324D01*
X140707419Y-83002324D02*
X140707419Y-83240419D01*
X139802657Y-82288038D02*
X139755038Y-82240419D01*
X139755038Y-82240419D02*
X139707419Y-82145181D01*
X139707419Y-82145181D02*
X139707419Y-81907086D01*
X139707419Y-81907086D02*
X139755038Y-81811848D01*
X139755038Y-81811848D02*
X139802657Y-81764229D01*
X139802657Y-81764229D02*
X139897895Y-81716610D01*
X139897895Y-81716610D02*
X139993133Y-81716610D01*
X139993133Y-81716610D02*
X140135990Y-81764229D01*
X140135990Y-81764229D02*
X140707419Y-82335657D01*
X140707419Y-82335657D02*
X140707419Y-81716610D01*
D11*
X197832220Y-95746504D02*
X197832220Y-94746504D01*
X197832220Y-94746504D02*
X198070315Y-94746504D01*
X198070315Y-94746504D02*
X198213172Y-94794123D01*
X198213172Y-94794123D02*
X198308410Y-94889361D01*
X198308410Y-94889361D02*
X198356029Y-94984599D01*
X198356029Y-94984599D02*
X198403648Y-95175075D01*
X198403648Y-95175075D02*
X198403648Y-95317932D01*
X198403648Y-95317932D02*
X198356029Y-95508408D01*
X198356029Y-95508408D02*
X198308410Y-95603646D01*
X198308410Y-95603646D02*
X198213172Y-95698885D01*
X198213172Y-95698885D02*
X198070315Y-95746504D01*
X198070315Y-95746504D02*
X197832220Y-95746504D01*
X199356029Y-95746504D02*
X198784601Y-95746504D01*
X199070315Y-95746504D02*
X199070315Y-94746504D01*
X199070315Y-94746504D02*
X198975077Y-94889361D01*
X198975077Y-94889361D02*
X198879839Y-94984599D01*
X198879839Y-94984599D02*
X198784601Y-95032218D01*
X201625134Y-87933589D02*
X200625134Y-87933589D01*
X201625134Y-87362161D02*
X201053705Y-87790732D01*
X200625134Y-87362161D02*
X201196562Y-87933589D01*
%TO.C,U6*%
D10*
X150100000Y-86670000D02*
X193280000Y-86670000D01*
X193280000Y-106990000D01*
X150100000Y-106990000D01*
X150100000Y-86670000D01*
%TO.C,U5*%
X150030000Y-64150000D02*
X193210000Y-64150000D01*
X193210000Y-84470000D01*
X150030000Y-84470000D01*
X150030000Y-64150000D01*
%TO.C,J6*%
X122861315Y-66446485D02*
X122861315Y-65430485D01*
X122861315Y-65430485D02*
X123877315Y-65430485D01*
X122759715Y-75234885D02*
X125045715Y-75234885D01*
X125045715Y-67716485D01*
X122759715Y-67716485D01*
X122759715Y-75234885D01*
X125045715Y-72390085D02*
X125553715Y-72390085D01*
X125553715Y-68072085D01*
X125045715Y-68072085D01*
X125045715Y-72390085D01*
D12*
%TO.C,C4*%
X144113315Y-130185685D02*
X145371315Y-130185685D01*
X144113315Y-132025685D02*
X145371315Y-132025685D01*
D10*
%TO.C,J5*%
X108637315Y-66446485D02*
X108637315Y-65430485D01*
X108637315Y-65430485D02*
X109653315Y-65430485D01*
X108535715Y-75234885D02*
X110821715Y-75234885D01*
X110821715Y-67716485D01*
X108535715Y-67716485D01*
X108535715Y-75234885D01*
X110821715Y-72390085D02*
X111329715Y-72390085D01*
X111329715Y-68072085D01*
X110821715Y-68072085D01*
X110821715Y-72390085D01*
%TO.C,J9*%
X104717000Y-97910000D02*
X104717000Y-96995600D01*
X104717000Y-96995600D02*
X105987000Y-96995600D01*
X104717000Y-109187600D02*
X106901400Y-109187600D01*
X106901400Y-99281600D01*
X104717000Y-99281600D01*
X104717000Y-109187600D01*
X106901400Y-105479200D02*
X107460200Y-105479200D01*
X107460200Y-100450000D01*
X106901400Y-100450000D01*
X106901400Y-105479200D01*
D13*
%TO.C,U4*%
X177691515Y-134458485D02*
X180841115Y-134458485D01*
X178961515Y-125720885D02*
X177691515Y-125720885D01*
X179571115Y-125720885D02*
X178961515Y-125720885D01*
X180841115Y-125720885D02*
X179571115Y-125720885D01*
X179571115Y-125720885D02*
G75*
G02*
X178961515Y-125720885I-304800J0D01*
G01*
D12*
%TO.C,U1*%
X119262315Y-121563685D02*
X154942315Y-121563685D01*
X154942315Y-121563685D02*
X154942315Y-116263685D01*
X119262315Y-119913685D02*
X119262315Y-121563685D01*
X119262315Y-116263685D02*
X119262315Y-117913685D01*
X154942315Y-116263685D02*
X119262315Y-116263685D01*
X119262315Y-117913685D02*
G75*
G02*
X119262315Y-119913685I0J-1000000D01*
G01*
D10*
%TO.C,J2*%
X137085315Y-66446485D02*
X137085315Y-65430485D01*
X137085315Y-65430485D02*
X138101315Y-65430485D01*
X136983715Y-75234885D02*
X139269715Y-75234885D01*
X139269715Y-67716485D01*
X136983715Y-67716485D01*
X136983715Y-75234885D01*
X139269715Y-72390085D02*
X139777715Y-72390085D01*
X139777715Y-68072085D01*
X139269715Y-68072085D01*
X139269715Y-72390085D01*
D12*
%TO.C,R10*%
X121076315Y-110277685D02*
X120306315Y-110277685D01*
X120306315Y-111647685D02*
X120306315Y-108907685D01*
X120306315Y-108907685D02*
X113766315Y-108907685D01*
X113766315Y-111647685D02*
X120306315Y-111647685D01*
X113766315Y-108907685D02*
X113766315Y-111647685D01*
X112996315Y-110277685D02*
X113766315Y-110277685D01*
%TO.C,R5*%
X121076315Y-103165685D02*
X120306315Y-103165685D01*
X120306315Y-104535685D02*
X120306315Y-101795685D01*
X120306315Y-101795685D02*
X113766315Y-101795685D01*
X113766315Y-104535685D02*
X120306315Y-104535685D01*
X113766315Y-101795685D02*
X113766315Y-104535685D01*
X112996315Y-103165685D02*
X113766315Y-103165685D01*
D14*
%TO.C,J13*%
X186425000Y-136220000D02*
X186425000Y-135840000D01*
X189905000Y-136220000D02*
X186425000Y-136220000D01*
X199425000Y-136220000D02*
X197825000Y-136220000D01*
X202575000Y-135300000D02*
X202575000Y-123590000D01*
X186425000Y-124150000D02*
X186425000Y-122370000D01*
X186425000Y-122370000D02*
X200355000Y-122370000D01*
D15*
X185025000Y-126520000D02*
G75*
G02*
X184825000Y-126520000I-100000J0D01*
G01*
X184825000Y-126520000D02*
G75*
G02*
X185025000Y-126520000I100000J0D01*
G01*
D12*
%TO.C,C6*%
X138045315Y-132025685D02*
X136787315Y-132025685D01*
X138045315Y-130185685D02*
X136787315Y-130185685D01*
%TO.C,U2*%
X137936315Y-107845685D02*
X134176315Y-107845685D01*
X137936315Y-101025685D02*
X134176315Y-101025685D01*
X134176315Y-107845685D02*
X134176315Y-106585685D01*
X134176315Y-101025685D02*
X134176315Y-102285685D01*
X139456315Y-108075685D02*
X138976315Y-108075685D01*
X139216315Y-107745685D01*
X139456315Y-108075685D01*
G36*
X139456315Y-108075685D02*
G01*
X138976315Y-108075685D01*
X139216315Y-107745685D01*
X139456315Y-108075685D01*
G37*
D10*
%TO.C,J8*%
X113480315Y-124958885D02*
X113480315Y-125974885D01*
X113480315Y-125974885D02*
X112464315Y-125974885D01*
X113581915Y-116170485D02*
X111295915Y-116170485D01*
X111295915Y-123688885D01*
X113581915Y-123688885D01*
X113581915Y-116170485D01*
X111295915Y-119015285D02*
X110787915Y-119015285D01*
X110787915Y-123333285D01*
X111295915Y-123333285D01*
X111295915Y-119015285D01*
D12*
%TO.C,R9*%
X161510315Y-128057685D02*
X162280315Y-128057685D01*
X162280315Y-126687685D02*
X162280315Y-129427685D01*
X162280315Y-129427685D02*
X168820315Y-129427685D01*
X168820315Y-126687685D02*
X162280315Y-126687685D01*
X168820315Y-129427685D02*
X168820315Y-126687685D01*
X169590315Y-128057685D02*
X168820315Y-128057685D01*
%TO.C,R2*%
X161510315Y-124247685D02*
X162280315Y-124247685D01*
X162280315Y-122877685D02*
X162280315Y-125617685D01*
X162280315Y-125617685D02*
X168820315Y-125617685D01*
X168820315Y-122877685D02*
X162280315Y-122877685D01*
X168820315Y-125617685D02*
X168820315Y-122877685D01*
X169590315Y-124247685D02*
X168820315Y-124247685D01*
%TO.C,R1*%
X161510315Y-115865685D02*
X162280315Y-115865685D01*
X162280315Y-114495685D02*
X162280315Y-117235685D01*
X162280315Y-117235685D02*
X168820315Y-117235685D01*
X168820315Y-114495685D02*
X162280315Y-114495685D01*
X168820315Y-117235685D02*
X168820315Y-114495685D01*
X169590315Y-115865685D02*
X168820315Y-115865685D01*
%TO.C,Battery1*%
X202560000Y-75451285D02*
X201140000Y-75451285D01*
X202560000Y-63731285D02*
X202560000Y-75451285D01*
X201140000Y-75451285D02*
X201140000Y-70951285D01*
X201140000Y-70951285D02*
X198750000Y-70951285D01*
X200300000Y-75141285D02*
X199700000Y-75141285D01*
X200250000Y-69841285D02*
X200250000Y-64341285D01*
X200250000Y-64341285D02*
X199750000Y-64341285D01*
X200000000Y-74541285D02*
X200300000Y-75141285D01*
X199750000Y-69841285D02*
X200250000Y-69841285D01*
X199750000Y-64341285D02*
X199750000Y-69841285D01*
X199700000Y-75141285D02*
X200000000Y-74541285D01*
X198750000Y-63731285D02*
X202560000Y-63731285D01*
X198750000Y-63731285D02*
X194940000Y-63731285D01*
X197750000Y-69841285D02*
X197750000Y-64341285D01*
X197750000Y-64341285D02*
X197250000Y-64341285D01*
X197250000Y-69841285D02*
X197750000Y-69841285D01*
X197250000Y-64341285D02*
X197250000Y-69841285D01*
X196360000Y-75451285D02*
X196360000Y-70951285D01*
X196360000Y-70951285D02*
X198750000Y-70951285D01*
X194940000Y-75451285D02*
X196360000Y-75451285D01*
X194940000Y-63731285D02*
X194940000Y-75451285D01*
D10*
%TO.C,J4*%
X115749315Y-66446485D02*
X115749315Y-65430485D01*
X115749315Y-65430485D02*
X116765315Y-65430485D01*
X115647715Y-75234885D02*
X117933715Y-75234885D01*
X117933715Y-67716485D01*
X115647715Y-67716485D01*
X115647715Y-75234885D01*
X117933715Y-72390085D02*
X118441715Y-72390085D01*
X118441715Y-68072085D01*
X117933715Y-68072085D01*
X117933715Y-72390085D01*
D12*
%TO.C,VDCIn1*%
X205599000Y-119028000D02*
X190899000Y-119028000D01*
X205599000Y-109828000D02*
X205599000Y-119028000D01*
X196799000Y-109828000D02*
X205599000Y-109828000D01*
X191749000Y-119228000D02*
X190699000Y-119228000D01*
X190899000Y-119028000D02*
X190899000Y-116428000D01*
X190899000Y-112528000D02*
X190899000Y-109828000D01*
X190899000Y-109828000D02*
X192799000Y-109828000D01*
X190699000Y-118178000D02*
X190699000Y-119228000D01*
%TO.C,R7*%
X169590315Y-134915685D02*
X168820315Y-134915685D01*
X168820315Y-136285685D02*
X168820315Y-133545685D01*
X168820315Y-133545685D02*
X162280315Y-133545685D01*
X162280315Y-136285685D02*
X168820315Y-136285685D01*
X162280315Y-133545685D02*
X162280315Y-136285685D01*
X161510315Y-134915685D02*
X162280315Y-134915685D01*
%TO.C,C7*%
X147850315Y-110515685D02*
G75*
G02*
X142610315Y-110515685I-2620000J0D01*
G01*
X142610315Y-110515685D02*
G75*
G02*
X147850315Y-110515685I2620000J0D01*
G01*
%TO.C,C2*%
X129054315Y-107245685D02*
G75*
G02*
X123814315Y-107245685I-2620000J0D01*
G01*
X123814315Y-107245685D02*
G75*
G02*
X129054315Y-107245685I2620000J0D01*
G01*
%TO.C,R3*%
X161510315Y-120691685D02*
X162280315Y-120691685D01*
X162280315Y-119321685D02*
X162280315Y-122061685D01*
X162280315Y-122061685D02*
X168820315Y-122061685D01*
X168820315Y-119321685D02*
X162280315Y-119321685D01*
X168820315Y-122061685D02*
X168820315Y-119321685D01*
X169590315Y-120691685D02*
X168820315Y-120691685D01*
D10*
%TO.C,J1*%
X129973315Y-66446485D02*
X129973315Y-65430485D01*
X129973315Y-65430485D02*
X130989315Y-65430485D01*
X129871715Y-75234885D02*
X132157715Y-75234885D01*
X132157715Y-67716485D01*
X129871715Y-67716485D01*
X129871715Y-75234885D01*
X132157715Y-72390085D02*
X132665715Y-72390085D01*
X132665715Y-68072085D01*
X132157715Y-68072085D01*
X132157715Y-72390085D01*
D12*
%TO.C,C1*%
X183156315Y-120691685D02*
G75*
G02*
X177916315Y-120691685I-2620000J0D01*
G01*
X177916315Y-120691685D02*
G75*
G02*
X183156315Y-120691685I2620000J0D01*
G01*
%TO.C,R6*%
X112996315Y-106721685D02*
X113766315Y-106721685D01*
X113766315Y-105351685D02*
X113766315Y-108091685D01*
X113766315Y-108091685D02*
X120306315Y-108091685D01*
X120306315Y-105351685D02*
X113766315Y-105351685D01*
X120306315Y-108091685D02*
X120306315Y-105351685D01*
X121076315Y-106721685D02*
X120306315Y-106721685D01*
%TO.C,R4*%
X161510315Y-112055685D02*
X162280315Y-112055685D01*
X162280315Y-110685685D02*
X162280315Y-113425685D01*
X162280315Y-113425685D02*
X168820315Y-113425685D01*
X168820315Y-110685685D02*
X162280315Y-110685685D01*
X168820315Y-113425685D02*
X168820315Y-110685685D01*
X169590315Y-112055685D02*
X168820315Y-112055685D01*
%TO.C,SwitchSlot1*%
D10*
X196151915Y-79882285D02*
X201130315Y-79882285D01*
X201130315Y-82320685D01*
X196151915Y-82320685D01*
X196151915Y-79882285D01*
X196761515Y-82320685D02*
X200571515Y-82320685D01*
X200571515Y-82879485D01*
X196761515Y-82879485D01*
X196761515Y-82320685D01*
%TO.C,J7*%
X104590315Y-82916485D02*
X104590315Y-81900485D01*
X104590315Y-81900485D02*
X105606315Y-81900485D01*
X104488715Y-91704885D02*
X106774715Y-91704885D01*
X106774715Y-84186485D01*
X104488715Y-84186485D01*
X104488715Y-91704885D01*
X106774715Y-88860085D02*
X107282715Y-88860085D01*
X107282715Y-84542085D01*
X106774715Y-84542085D01*
X106774715Y-88860085D01*
%TO.C,J3*%
X144197315Y-66446485D02*
X144197315Y-65430485D01*
X144197315Y-65430485D02*
X145213315Y-65430485D01*
X144095715Y-75234885D02*
X146381715Y-75234885D01*
X146381715Y-67716485D01*
X144095715Y-67716485D01*
X144095715Y-75234885D01*
X146381715Y-72390085D02*
X146889715Y-72390085D01*
X146889715Y-68072085D01*
X146381715Y-68072085D01*
X146381715Y-72390085D01*
D12*
%TO.C,R8*%
X169590315Y-131359685D02*
X168820315Y-131359685D01*
X168820315Y-132729685D02*
X168820315Y-129989685D01*
X168820315Y-129989685D02*
X162280315Y-129989685D01*
X162280315Y-132729685D02*
X168820315Y-132729685D01*
X162280315Y-129989685D02*
X162280315Y-132729685D01*
X161510315Y-131359685D02*
X162280315Y-131359685D01*
%TO.C,C5*%
X147342315Y-104927685D02*
G75*
G02*
X142102315Y-104927685I-2620000J0D01*
G01*
X142102315Y-104927685D02*
G75*
G02*
X147342315Y-104927685I2620000J0D01*
G01*
%TO.C,Y1*%
X144212315Y-129566685D02*
X137812315Y-129566685D01*
X144212315Y-124516685D02*
X137812315Y-124516685D01*
X144212315Y-124516685D02*
G75*
G02*
X144212315Y-129566685I0J-2525000D01*
G01*
X137812315Y-129566685D02*
G75*
G02*
X137812315Y-124516685I0J2525000D01*
G01*
D14*
%TO.C,U3*%
X110990000Y-99136685D02*
X110990000Y-78746685D01*
X141470000Y-99136685D02*
X110990000Y-99136685D01*
X110990000Y-78746685D02*
X141470000Y-78746685D01*
X141470000Y-78746685D02*
X141470000Y-99136685D01*
D12*
%TO.C,D1*%
X198570315Y-89511685D02*
X198570315Y-90421685D01*
X201290315Y-90421685D02*
X195850315Y-90421685D01*
X195850315Y-90421685D02*
X195850315Y-100161685D01*
X201290315Y-91846685D02*
X195850315Y-91846685D01*
X201290315Y-91966685D02*
X195850315Y-91966685D01*
X201290315Y-92086685D02*
X195850315Y-92086685D01*
X201290315Y-100161685D02*
X201290315Y-90421685D01*
X195850315Y-100161685D02*
X201290315Y-100161685D01*
X198570315Y-101071685D02*
X198570315Y-100161685D01*
%TD*%
M02*
