%TF.GenerationSoftware,KiCad,Pcbnew,8.0.2*%
%TF.CreationDate,2024-06-06T11:53:57+07:00*%
%TF.ProjectId,IncubatorTesterV6,496e6375-6261-4746-9f72-546573746572,rev?*%
%TF.SameCoordinates,Original*%
%TF.FileFunction,Drillmap*%
%TF.FilePolarity,Positive*%
%FSLAX45Y45*%
G04 Gerber Fmt 4.5, Leading zero omitted, Abs format (unit mm)*
G04 Created by KiCad (PCBNEW 8.0.2) date 2024-06-06 11:53:57*
%MOMM*%
%LPD*%
G01*
G04 APERTURE LIST*
%ADD10C,0.050000*%
%ADD11C,0.200000*%
%ADD12C,0.100000*%
%ADD13C,0.105000*%
%ADD14C,0.160000*%
%ADD15C,0.300000*%
G04 APERTURE END LIST*
D10*
X9859472Y-6283668D02*
X20359472Y-6283668D01*
X20359472Y-13783668D01*
X9859472Y-13783668D01*
X9859472Y-6283668D01*
D11*
D12*
X10729200Y-11097500D02*
X10759200Y-11127500D01*
X10759200Y-11097500D02*
X10729200Y-11127500D01*
X11085000Y-8910000D02*
X11115000Y-8940000D01*
X11115000Y-8910000D02*
X11085000Y-8940000D01*
X11104432Y-7736168D02*
X11134432Y-7766168D01*
X11134432Y-7736168D02*
X11104432Y-7766168D01*
X11485000Y-9185000D02*
X11515000Y-9215000D01*
X11515000Y-9185000D02*
X11485000Y-9215000D01*
X11942631Y-7736168D02*
X11972631Y-7766168D01*
X11972631Y-7736168D02*
X11942631Y-7766168D01*
X12349031Y-11266768D02*
X12379031Y-11296768D01*
X12379031Y-11266768D02*
X12349031Y-11296768D01*
X12476031Y-7736168D02*
X12506031Y-7766168D01*
X12506031Y-7736168D02*
X12476031Y-7766168D01*
X13376000Y-11283000D02*
X13406000Y-11313000D01*
X13406000Y-11283000D02*
X13376000Y-11313000D01*
X13552000Y-11655000D02*
X13582000Y-11685000D01*
X13582000Y-11655000D02*
X13552000Y-11685000D01*
X13669831Y-10199969D02*
X13699831Y-10229969D01*
X13699831Y-10199969D02*
X13669831Y-10229969D01*
X14314000Y-10485000D02*
X14344000Y-10515000D01*
X14344000Y-10485000D02*
X14314000Y-10515000D01*
X14835000Y-10135000D02*
X14865000Y-10165000D01*
X14865000Y-10135000D02*
X14835000Y-10165000D01*
X17530632Y-12612968D02*
X17560632Y-12642968D01*
X17560632Y-12612968D02*
X17530632Y-12642968D01*
X17784632Y-12996508D02*
X17814632Y-13026508D01*
X17814632Y-12996508D02*
X17784632Y-13026508D01*
X17784632Y-13374968D02*
X17814632Y-13404968D01*
X17814632Y-13374968D02*
X17784632Y-13404968D01*
X17787172Y-13250508D02*
X17817172Y-13280508D01*
X17817172Y-13250508D02*
X17787172Y-13280508D01*
X17810032Y-12866968D02*
X17840032Y-12896968D01*
X17840032Y-12866968D02*
X17810032Y-12896968D01*
X18024000Y-12442000D02*
X18054000Y-12472000D01*
X18054000Y-12442000D02*
X18024000Y-12472000D01*
X18028472Y-13136208D02*
X18058472Y-13166208D01*
X18058472Y-13136208D02*
X18028472Y-13166208D01*
X18287552Y-12739968D02*
X18317552Y-12769968D01*
X18317552Y-12739968D02*
X18287552Y-12769968D01*
X18292632Y-12612968D02*
X18322632Y-12642968D01*
X18322632Y-12612968D02*
X18292632Y-12642968D01*
X18302792Y-13242888D02*
X18332792Y-13272888D01*
X18332792Y-13242888D02*
X18302792Y-13272888D01*
X18305332Y-12866968D02*
X18335332Y-12896968D01*
X18335332Y-12866968D02*
X18305332Y-12896968D01*
X18527232Y-12872968D02*
X18557232Y-12902968D01*
X18557232Y-12872968D02*
X18527232Y-12902968D01*
X18542220Y-13077000D02*
X18572220Y-13107000D01*
X18572220Y-13077000D02*
X18542220Y-13107000D01*
X18552400Y-13297000D02*
X18582400Y-13327000D01*
X18582400Y-13297000D02*
X18552400Y-13327000D01*
X18819100Y-12940000D02*
X18849100Y-12970000D01*
X18849100Y-12940000D02*
X18819100Y-12970000D01*
X18864000Y-13668000D02*
X18894000Y-13698000D01*
X18894000Y-13668000D02*
X18864000Y-13698000D01*
X19068000Y-13471000D02*
X19098000Y-13501000D01*
X19098000Y-13471000D02*
X19068000Y-13501000D01*
X19855000Y-13604000D02*
X19885000Y-13634000D01*
X19885000Y-13604000D02*
X19855000Y-13634000D01*
X14353000Y-10248537D02*
G75*
G02*
X14303000Y-10248537I-25000J0D01*
G01*
X14303000Y-10248537D02*
G75*
G02*
X14353000Y-10248537I25000J0D01*
G01*
X18034000Y-10536400D02*
X18034000Y-10596400D01*
X18004000Y-10566400D02*
X18064000Y-10566400D01*
X11223916Y-10344853D02*
X11223916Y-10288284D01*
X11167347Y-10288284D01*
X11167347Y-10344853D01*
X11223916Y-10344853D01*
X11223916Y-10700453D02*
X11223916Y-10643884D01*
X11167347Y-10643884D01*
X11167347Y-10700453D01*
X11223916Y-10700453D01*
X11223916Y-11056053D02*
X11223916Y-10999484D01*
X11167347Y-10999484D01*
X11167347Y-11056053D01*
X11223916Y-11056053D01*
X12087516Y-11538653D02*
X12087516Y-11482084D01*
X12030947Y-11482084D01*
X12030947Y-11538653D01*
X12087516Y-11538653D01*
X12087516Y-12300653D02*
X12087516Y-12244084D01*
X12030947Y-12244084D01*
X12030947Y-12300653D01*
X12087516Y-12300653D01*
X12239916Y-10344853D02*
X12239916Y-10288284D01*
X12183347Y-10288284D01*
X12183347Y-10344853D01*
X12239916Y-10344853D01*
X12239916Y-10700453D02*
X12239916Y-10643884D01*
X12183347Y-10643884D01*
X12183347Y-10700453D01*
X12239916Y-10700453D01*
X12239916Y-11056053D02*
X12239916Y-10999484D01*
X12183347Y-10999484D01*
X12183347Y-11056053D01*
X12239916Y-11056053D01*
X12341516Y-11538653D02*
X12341516Y-11482084D01*
X12284947Y-11482084D01*
X12284947Y-11538653D01*
X12341516Y-11538653D01*
X12341516Y-12300653D02*
X12341516Y-12244084D01*
X12284947Y-12244084D01*
X12284947Y-12300653D01*
X12341516Y-12300653D01*
X12595516Y-11538653D02*
X12595516Y-11482084D01*
X12538947Y-11482084D01*
X12538947Y-11538653D01*
X12595516Y-11538653D01*
X12595516Y-12300653D02*
X12595516Y-12244084D01*
X12538947Y-12244084D01*
X12538947Y-12300653D01*
X12595516Y-12300653D01*
X12671716Y-10652853D02*
X12671716Y-10596284D01*
X12615147Y-10596284D01*
X12615147Y-10652853D01*
X12671716Y-10652853D01*
X12671716Y-10852853D02*
X12671716Y-10796284D01*
X12615147Y-10796284D01*
X12615147Y-10852853D01*
X12671716Y-10852853D01*
X12849516Y-11538653D02*
X12849516Y-11482084D01*
X12792947Y-11482084D01*
X12792947Y-11538653D01*
X12849516Y-11538653D01*
X12849516Y-12300653D02*
X12849516Y-12244084D01*
X12792947Y-12244084D01*
X12792947Y-12300653D01*
X12849516Y-12300653D01*
X13103516Y-11538653D02*
X13103516Y-11482084D01*
X13046947Y-11482084D01*
X13046947Y-11538653D01*
X13103516Y-11538653D01*
X13103516Y-12300653D02*
X13103516Y-12244084D01*
X13046947Y-12244084D01*
X13046947Y-12300653D01*
X13103516Y-12300653D01*
X13357516Y-11538653D02*
X13357516Y-11482084D01*
X13300947Y-11482084D01*
X13300947Y-11538653D01*
X13357516Y-11538653D01*
X13357516Y-12300653D02*
X13357516Y-12244084D01*
X13300947Y-12244084D01*
X13300947Y-12300653D01*
X13357516Y-12300653D01*
X13611516Y-11538653D02*
X13611516Y-11482084D01*
X13554947Y-11482084D01*
X13554947Y-11538653D01*
X13611516Y-11538653D01*
X13611516Y-12300653D02*
X13611516Y-12244084D01*
X13554947Y-12244084D01*
X13554947Y-12300653D01*
X13611516Y-12300653D01*
X13644916Y-13138853D02*
X13644916Y-13082284D01*
X13588347Y-13082284D01*
X13588347Y-13138853D01*
X13644916Y-13138853D01*
X13865516Y-11538653D02*
X13865516Y-11482084D01*
X13808947Y-11482084D01*
X13808947Y-11538653D01*
X13865516Y-11538653D01*
X13865516Y-12300653D02*
X13865516Y-12244084D01*
X13808947Y-12244084D01*
X13808947Y-12300653D01*
X13865516Y-12300653D01*
X13885516Y-12732453D02*
X13885516Y-12675884D01*
X13828947Y-12675884D01*
X13828947Y-12732453D01*
X13885516Y-12732453D01*
X13894916Y-13138853D02*
X13894916Y-13082284D01*
X13838347Y-13082284D01*
X13838347Y-13138853D01*
X13894916Y-13138853D01*
X14119516Y-11538653D02*
X14119516Y-11482084D01*
X14062947Y-11482084D01*
X14062947Y-11538653D01*
X14119516Y-11538653D01*
X14119516Y-12300653D02*
X14119516Y-12244084D01*
X14062947Y-12244084D01*
X14062947Y-12300653D01*
X14119516Y-12300653D01*
X14373516Y-11538653D02*
X14373516Y-11482084D01*
X14316947Y-11482084D01*
X14316947Y-11538653D01*
X14373516Y-11538653D01*
X14373516Y-12300653D02*
X14373516Y-12244084D01*
X14316947Y-12244084D01*
X14316947Y-12300653D01*
X14373516Y-12300653D01*
X14373516Y-12732453D02*
X14373516Y-12675884D01*
X14316947Y-12675884D01*
X14316947Y-12732453D01*
X14373516Y-12732453D01*
X14377516Y-13138853D02*
X14377516Y-13082284D01*
X14320947Y-13082284D01*
X14320947Y-13138853D01*
X14377516Y-13138853D01*
X14500516Y-10421053D02*
X14500516Y-10364484D01*
X14443947Y-10364484D01*
X14443947Y-10421053D01*
X14500516Y-10421053D01*
X14500516Y-10621053D02*
X14500516Y-10564484D01*
X14443947Y-10564484D01*
X14443947Y-10621053D01*
X14500516Y-10621053D01*
X14551316Y-10979853D02*
X14551316Y-10923284D01*
X14494747Y-10923284D01*
X14494747Y-10979853D01*
X14551316Y-10979853D01*
X14551316Y-11179853D02*
X14551316Y-11123284D01*
X14494747Y-11123284D01*
X14494747Y-11179853D01*
X14551316Y-11179853D01*
X14627516Y-11538653D02*
X14627516Y-11482084D01*
X14570947Y-11482084D01*
X14570947Y-11538653D01*
X14627516Y-11538653D01*
X14627516Y-12300653D02*
X14627516Y-12244084D01*
X14570947Y-12244084D01*
X14570947Y-12300653D01*
X14627516Y-12300653D01*
X14627516Y-13138853D02*
X14627516Y-13082284D01*
X14570947Y-13082284D01*
X14570947Y-13138853D01*
X14627516Y-13138853D01*
X14881516Y-11538653D02*
X14881516Y-11482084D01*
X14824947Y-11482084D01*
X14824947Y-11538653D01*
X14881516Y-11538653D01*
X14881516Y-12300653D02*
X14881516Y-12244084D01*
X14824947Y-12244084D01*
X14824947Y-12300653D01*
X14881516Y-12300653D01*
X15135516Y-11538653D02*
X15135516Y-11482084D01*
X15078947Y-11482084D01*
X15078947Y-11538653D01*
X15135516Y-11538653D01*
X15135516Y-12300653D02*
X15135516Y-12244084D01*
X15078947Y-12244084D01*
X15078947Y-12300653D01*
X15135516Y-12300653D01*
X15389516Y-11538653D02*
X15389516Y-11482084D01*
X15332947Y-11482084D01*
X15332947Y-11538653D01*
X15389516Y-11538653D01*
X15389516Y-12300653D02*
X15389516Y-12244084D01*
X15332947Y-12244084D01*
X15332947Y-12300653D01*
X15389516Y-12300653D01*
X16075316Y-11233853D02*
X16075316Y-11177284D01*
X16018747Y-11177284D01*
X16018747Y-11233853D01*
X16075316Y-11233853D01*
X16075316Y-11614853D02*
X16075316Y-11558284D01*
X16018747Y-11558284D01*
X16018747Y-11614853D01*
X16075316Y-11614853D01*
X16075316Y-12097453D02*
X16075316Y-12040884D01*
X16018747Y-12040884D01*
X16018747Y-12097453D01*
X16075316Y-12097453D01*
X16075316Y-12453053D02*
X16075316Y-12396484D01*
X16018747Y-12396484D01*
X16018747Y-12453053D01*
X16075316Y-12453053D01*
X16075316Y-12834053D02*
X16075316Y-12777484D01*
X16018747Y-12777484D01*
X16018747Y-12834053D01*
X16075316Y-12834053D01*
X16075316Y-13164253D02*
X16075316Y-13107684D01*
X16018747Y-13107684D01*
X16018747Y-13164253D01*
X16075316Y-13164253D01*
X16075316Y-13519853D02*
X16075316Y-13463284D01*
X16018747Y-13463284D01*
X16018747Y-13519853D01*
X16075316Y-13519853D01*
X17091316Y-11233853D02*
X17091316Y-11177284D01*
X17034747Y-11177284D01*
X17034747Y-11233853D01*
X17091316Y-11233853D01*
X17091316Y-11614853D02*
X17091316Y-11558284D01*
X17034747Y-11558284D01*
X17034747Y-11614853D01*
X17091316Y-11614853D01*
X17091316Y-12097453D02*
X17091316Y-12040884D01*
X17034747Y-12040884D01*
X17034747Y-12097453D01*
X17091316Y-12097453D01*
X17091316Y-12453053D02*
X17091316Y-12396484D01*
X17034747Y-12396484D01*
X17034747Y-12453053D01*
X17091316Y-12453053D01*
X17091316Y-12834053D02*
X17091316Y-12777484D01*
X17034747Y-12777484D01*
X17034747Y-12834053D01*
X17091316Y-12834053D01*
X17091316Y-13164253D02*
X17091316Y-13107684D01*
X17034747Y-13107684D01*
X17034747Y-13164253D01*
X17091316Y-13164253D01*
X17091316Y-13519853D02*
X17091316Y-13463284D01*
X17034747Y-13463284D01*
X17034747Y-13519853D01*
X17091316Y-13519853D01*
X17981916Y-12097453D02*
X17981916Y-12040884D01*
X17925347Y-12040884D01*
X17925347Y-12097453D01*
X17981916Y-12097453D01*
X18181916Y-12097453D02*
X18181916Y-12040884D01*
X18125347Y-12040884D01*
X18125347Y-12097453D01*
X18181916Y-12097453D01*
X10562332Y-8342568D02*
X10612332Y-8292568D01*
X10562332Y-8242568D01*
X10512332Y-8292568D01*
X10562332Y-8342568D01*
X10562332Y-8592569D02*
X10612332Y-8542569D01*
X10562332Y-8492569D01*
X10512332Y-8542569D01*
X10562332Y-8592569D01*
X10562332Y-8842569D02*
X10612332Y-8792569D01*
X10562332Y-8742569D01*
X10512332Y-8792569D01*
X10562332Y-8842569D01*
X10562332Y-9092569D02*
X10612332Y-9042569D01*
X10562332Y-8992569D01*
X10512332Y-9042569D01*
X10562332Y-9092569D01*
X10575000Y-9849000D02*
X10625000Y-9799000D01*
X10575000Y-9749000D01*
X10525000Y-9799000D01*
X10575000Y-9849000D01*
X10575000Y-10099000D02*
X10625000Y-10049000D01*
X10575000Y-9999000D01*
X10525000Y-10049000D01*
X10575000Y-10099000D01*
X10575000Y-10349000D02*
X10625000Y-10299000D01*
X10575000Y-10249000D01*
X10525000Y-10299000D01*
X10575000Y-10349000D01*
X10575000Y-10599000D02*
X10625000Y-10549000D01*
X10575000Y-10499000D01*
X10525000Y-10549000D01*
X10575000Y-10599000D01*
X10575000Y-10849000D02*
X10625000Y-10799000D01*
X10575000Y-10749000D01*
X10525000Y-10799000D01*
X10575000Y-10849000D01*
X10967032Y-6695568D02*
X11017032Y-6645568D01*
X10967032Y-6595568D01*
X10917032Y-6645568D01*
X10967032Y-6695568D01*
X10967032Y-6945568D02*
X11017032Y-6895568D01*
X10967032Y-6845568D01*
X10917032Y-6895568D01*
X10967032Y-6945568D01*
X10967032Y-7195568D02*
X11017032Y-7145568D01*
X10967032Y-7095568D01*
X10917032Y-7145568D01*
X10967032Y-7195568D01*
X10967032Y-7445568D02*
X11017032Y-7395568D01*
X10967032Y-7345568D01*
X10917032Y-7395568D01*
X10967032Y-7445568D01*
X11226000Y-8055168D02*
X11276000Y-8005168D01*
X11226000Y-7955168D01*
X11176000Y-8005168D01*
X11226000Y-8055168D01*
X11226000Y-9833169D02*
X11276000Y-9783169D01*
X11226000Y-9733169D01*
X11176000Y-9783169D01*
X11226000Y-9833169D01*
X11244731Y-11794968D02*
X11294731Y-11744968D01*
X11244731Y-11694968D01*
X11194731Y-11744968D01*
X11244731Y-11794968D01*
X11244731Y-12044968D02*
X11294731Y-11994968D01*
X11244731Y-11944968D01*
X11194731Y-11994968D01*
X11244731Y-12044968D01*
X11244731Y-12294968D02*
X11294731Y-12244968D01*
X11244731Y-12194968D01*
X11194731Y-12244968D01*
X11244731Y-12294968D01*
X11244731Y-12544968D02*
X11294731Y-12494968D01*
X11244731Y-12444968D01*
X11194731Y-12494968D01*
X11244731Y-12544968D01*
X11480000Y-8055168D02*
X11530000Y-8005168D01*
X11480000Y-7955168D01*
X11430000Y-8005168D01*
X11480000Y-8055168D01*
X11480000Y-9833169D02*
X11530000Y-9783169D01*
X11480000Y-9733169D01*
X11430000Y-9783169D01*
X11480000Y-9833169D01*
X11678231Y-6695568D02*
X11728231Y-6645568D01*
X11678231Y-6595568D01*
X11628231Y-6645568D01*
X11678231Y-6695568D01*
X11678231Y-6945568D02*
X11728231Y-6895568D01*
X11678231Y-6845568D01*
X11628231Y-6895568D01*
X11678231Y-6945568D01*
X11678231Y-7195568D02*
X11728231Y-7145568D01*
X11678231Y-7095568D01*
X11628231Y-7145568D01*
X11678231Y-7195568D01*
X11678231Y-7445568D02*
X11728231Y-7395568D01*
X11678231Y-7345568D01*
X11628231Y-7395568D01*
X11678231Y-7445568D01*
X11734000Y-8055168D02*
X11784000Y-8005168D01*
X11734000Y-7955168D01*
X11684000Y-8005168D01*
X11734000Y-8055168D01*
X11734000Y-9833169D02*
X11784000Y-9783169D01*
X11734000Y-9733169D01*
X11684000Y-9783169D01*
X11734000Y-9833169D01*
X11988000Y-8055168D02*
X12038000Y-8005168D01*
X11988000Y-7955168D01*
X11938000Y-8005168D01*
X11988000Y-8055168D01*
X11988000Y-9833169D02*
X12038000Y-9783169D01*
X11988000Y-9733169D01*
X11938000Y-9783169D01*
X11988000Y-9833169D01*
X12242000Y-8055168D02*
X12292000Y-8005168D01*
X12242000Y-7955168D01*
X12192000Y-8005168D01*
X12242000Y-8055168D01*
X12242000Y-9833169D02*
X12292000Y-9783169D01*
X12242000Y-9733169D01*
X12192000Y-9783169D01*
X12242000Y-9833169D01*
X12389431Y-6695568D02*
X12439431Y-6645568D01*
X12389431Y-6595568D01*
X12339431Y-6645568D01*
X12389431Y-6695568D01*
X12389431Y-6945568D02*
X12439431Y-6895568D01*
X12389431Y-6845568D01*
X12339431Y-6895568D01*
X12389431Y-6945568D01*
X12389431Y-7195568D02*
X12439431Y-7145568D01*
X12389431Y-7095568D01*
X12339431Y-7145568D01*
X12389431Y-7195568D01*
X12389431Y-7445568D02*
X12439431Y-7395568D01*
X12389431Y-7345568D01*
X12339431Y-7395568D01*
X12389431Y-7445568D01*
X12496000Y-8055168D02*
X12546000Y-8005168D01*
X12496000Y-7955168D01*
X12446000Y-8005168D01*
X12496000Y-8055168D01*
X12496000Y-9833169D02*
X12546000Y-9783169D01*
X12496000Y-9733169D01*
X12446000Y-9783169D01*
X12496000Y-9833169D01*
X12750000Y-8055168D02*
X12800000Y-8005168D01*
X12750000Y-7955168D01*
X12700000Y-8005168D01*
X12750000Y-8055168D01*
X12750000Y-9833169D02*
X12800000Y-9783169D01*
X12750000Y-9733169D01*
X12700000Y-9783169D01*
X12750000Y-9833169D01*
X13004000Y-8055168D02*
X13054000Y-8005168D01*
X13004000Y-7955168D01*
X12954000Y-8005168D01*
X13004000Y-8055168D01*
X13004000Y-9833169D02*
X13054000Y-9783169D01*
X13004000Y-9733169D01*
X12954000Y-9783169D01*
X13004000Y-9833169D01*
X13100631Y-6695568D02*
X13150631Y-6645568D01*
X13100631Y-6595568D01*
X13050631Y-6645568D01*
X13100631Y-6695568D01*
X13100631Y-6945568D02*
X13150631Y-6895568D01*
X13100631Y-6845568D01*
X13050631Y-6895568D01*
X13100631Y-6945568D01*
X13100631Y-7195568D02*
X13150631Y-7145568D01*
X13100631Y-7095568D01*
X13050631Y-7145568D01*
X13100631Y-7195568D01*
X13100631Y-7445568D02*
X13150631Y-7395568D01*
X13100631Y-7345568D01*
X13050631Y-7395568D01*
X13100631Y-7445568D01*
X13258000Y-8055168D02*
X13308000Y-8005168D01*
X13258000Y-7955168D01*
X13208000Y-8005168D01*
X13258000Y-8055168D01*
X13258000Y-9833169D02*
X13308000Y-9783169D01*
X13258000Y-9733169D01*
X13208000Y-9783169D01*
X13258000Y-9833169D01*
X13512000Y-8055168D02*
X13562000Y-8005168D01*
X13512000Y-7955168D01*
X13462000Y-8005168D01*
X13512000Y-8055168D01*
X13512000Y-9833169D02*
X13562000Y-9783169D01*
X13512000Y-9733169D01*
X13462000Y-9783169D01*
X13512000Y-9833169D01*
X13766000Y-8055168D02*
X13816000Y-8005168D01*
X13766000Y-7955168D01*
X13716000Y-8005168D01*
X13766000Y-8055168D01*
X13766000Y-9833169D02*
X13816000Y-9783169D01*
X13766000Y-9733169D01*
X13716000Y-9783169D01*
X13766000Y-9833169D01*
X13811831Y-6695568D02*
X13861831Y-6645568D01*
X13811831Y-6595568D01*
X13761831Y-6645568D01*
X13811831Y-6695568D01*
X13811831Y-6945568D02*
X13861831Y-6895568D01*
X13811831Y-6845568D01*
X13761831Y-6895568D01*
X13811831Y-6945568D01*
X13811831Y-7195568D02*
X13861831Y-7145568D01*
X13811831Y-7095568D01*
X13761831Y-7145568D01*
X13811831Y-7195568D01*
X13811831Y-7445568D02*
X13861831Y-7395568D01*
X13811831Y-7345568D01*
X13761831Y-7395568D01*
X13811831Y-7445568D01*
X14020000Y-8055168D02*
X14070000Y-8005168D01*
X14020000Y-7955168D01*
X13970000Y-8005168D01*
X14020000Y-8055168D01*
X14020000Y-9833169D02*
X14070000Y-9783169D01*
X14020000Y-9733169D01*
X13970000Y-9783169D01*
X14020000Y-9833169D01*
X14523031Y-6695568D02*
X14573031Y-6645568D01*
X14523031Y-6595568D01*
X14473031Y-6645568D01*
X14523031Y-6695568D01*
X14523031Y-6945568D02*
X14573031Y-6895568D01*
X14523031Y-6845568D01*
X14473031Y-6895568D01*
X14523031Y-6945568D01*
X14523031Y-7195568D02*
X14573031Y-7145568D01*
X14523031Y-7095568D01*
X14473031Y-7145568D01*
X14523031Y-7195568D01*
X14523031Y-7445568D02*
X14573031Y-7395568D01*
X14523031Y-7345568D01*
X14473031Y-7395568D01*
X14523031Y-7445568D01*
X15130000Y-6592000D02*
X15180000Y-6542000D01*
X15130000Y-6492000D01*
X15080000Y-6542000D01*
X15130000Y-6592000D01*
X15130000Y-8370000D02*
X15180000Y-8320000D01*
X15130000Y-8270000D01*
X15080000Y-8320000D01*
X15130000Y-8370000D01*
X15137000Y-8844000D02*
X15187000Y-8794000D01*
X15137000Y-8744000D01*
X15087000Y-8794000D01*
X15137000Y-8844000D01*
X15137000Y-10622000D02*
X15187000Y-10572000D01*
X15137000Y-10522000D01*
X15087000Y-10572000D01*
X15137000Y-10622000D01*
X19179900Y-11492800D02*
X19229900Y-11442800D01*
X19179900Y-11392800D01*
X19129900Y-11442800D01*
X19179900Y-11492800D01*
X19229900Y-11542800D02*
X19229900Y-11342800D01*
X19129900Y-11342800D02*
G75*
G02*
X19229900Y-11342800I50000J0D01*
G01*
X19129900Y-11342800D02*
X19129900Y-11542800D01*
X19129900Y-11542800D02*
G75*
G03*
X19229900Y-11542800I50000J0D01*
G01*
X19194000Y-6592000D02*
X19244000Y-6542000D01*
X19194000Y-6492000D01*
X19144000Y-6542000D01*
X19194000Y-6592000D01*
X19194000Y-8370000D02*
X19244000Y-8320000D01*
X19194000Y-8270000D01*
X19144000Y-8320000D01*
X19194000Y-8370000D01*
X19201000Y-8844000D02*
X19251000Y-8794000D01*
X19201000Y-8744000D01*
X19151000Y-8794000D01*
X19201000Y-8844000D01*
X19201000Y-10622000D02*
X19251000Y-10572000D01*
X19201000Y-10522000D01*
X19151000Y-10572000D01*
X19201000Y-10622000D01*
X19479900Y-11022800D02*
X19529900Y-10972800D01*
X19479900Y-10922800D01*
X19429900Y-10972800D01*
X19479900Y-11022800D01*
X19579900Y-10922800D02*
X19379900Y-10922800D01*
X19379900Y-11022800D02*
G75*
G02*
X19379900Y-10922800I0J50000D01*
G01*
X19379900Y-11022800D02*
X19579900Y-11022800D01*
X19579900Y-11022800D02*
G75*
G03*
X19579900Y-10922800I0J50000D01*
G01*
X19750000Y-7354128D02*
X19800000Y-7304128D01*
X19750000Y-7254128D01*
X19700000Y-7304128D01*
X19750000Y-7354128D01*
X19779900Y-11492800D02*
X19829900Y-11442800D01*
X19779900Y-11392800D01*
X19729900Y-11442800D01*
X19779900Y-11492800D01*
X19829900Y-11542800D02*
X19829900Y-11342800D01*
X19729900Y-11342800D02*
G75*
G02*
X19829900Y-11342800I50000J0D01*
G01*
X19729900Y-11342800D02*
X19729900Y-11542800D01*
X19729900Y-11542800D02*
G75*
G03*
X19829900Y-11542800I50000J0D01*
G01*
X20000000Y-7354128D02*
X20050000Y-7304128D01*
X20000000Y-7254128D01*
X19950000Y-7304128D01*
X20000000Y-7354128D01*
D13*
X19681532Y-8054268D02*
X19786532Y-8159268D01*
X19786532Y-8054268D02*
X19681532Y-8159268D01*
X19786532Y-8106768D02*
G75*
G02*
X19681532Y-8106768I-52500J0D01*
G01*
X19681532Y-8106768D02*
G75*
G02*
X19786532Y-8106768I52500J0D01*
G01*
X19931532Y-8054268D02*
X20036532Y-8159268D01*
X20036532Y-8054268D02*
X19931532Y-8159268D01*
X20036532Y-8106768D02*
G75*
G02*
X19931532Y-8106768I-52500J0D01*
G01*
X19931532Y-8106768D02*
G75*
G02*
X20036532Y-8106768I52500J0D01*
G01*
D14*
X19777032Y-8687169D02*
X19937032Y-8847169D01*
X19937032Y-8687169D02*
X19777032Y-8847169D01*
X19857032Y-8687169D02*
X19857032Y-8847169D01*
X19777032Y-8767169D02*
X19937032Y-8767169D01*
X19777032Y-10211169D02*
X19937032Y-10371169D01*
X19937032Y-10211169D02*
X19777032Y-10371169D01*
X19857032Y-10211169D02*
X19857032Y-10371169D01*
X19777032Y-10291169D02*
X19937032Y-10291169D01*
D15*
X10109472Y-6633668D02*
X10409472Y-6933668D01*
X10409472Y-6633668D02*
X10109472Y-6933668D01*
X10365539Y-6889735D02*
X10365539Y-6677601D01*
X10153405Y-6677601D01*
X10153405Y-6889735D01*
X10365539Y-6889735D01*
X10209472Y-12633668D02*
X10509472Y-12933668D01*
X10509472Y-12633668D02*
X10209472Y-12933668D01*
X10465539Y-12889735D02*
X10465539Y-12677601D01*
X10253405Y-12677601D01*
X10253405Y-12889735D01*
X10465539Y-12889735D01*
X14409471Y-8633669D02*
X14709471Y-8933669D01*
X14709471Y-8633669D02*
X14409471Y-8933669D01*
X14665538Y-8889736D02*
X14665538Y-8677602D01*
X14453404Y-8677602D01*
X14453404Y-8889736D01*
X14665538Y-8889736D01*
X18209472Y-11133669D02*
X18509472Y-11433668D01*
X18509472Y-11133669D02*
X18209472Y-11433668D01*
X18465539Y-11389735D02*
X18465539Y-11177602D01*
X18253405Y-11177602D01*
X18253405Y-11389735D01*
X18465539Y-11389735D01*
D11*
X10117748Y-14097652D02*
X10117748Y-13897652D01*
X10117748Y-13897652D02*
X10165367Y-13897652D01*
X10165367Y-13897652D02*
X10193939Y-13907176D01*
X10193939Y-13907176D02*
X10212986Y-13926224D01*
X10212986Y-13926224D02*
X10222510Y-13945271D01*
X10222510Y-13945271D02*
X10232034Y-13983366D01*
X10232034Y-13983366D02*
X10232034Y-14011938D01*
X10232034Y-14011938D02*
X10222510Y-14050033D01*
X10222510Y-14050033D02*
X10212986Y-14069081D01*
X10212986Y-14069081D02*
X10193939Y-14088128D01*
X10193939Y-14088128D02*
X10165367Y-14097652D01*
X10165367Y-14097652D02*
X10117748Y-14097652D01*
X10317748Y-14097652D02*
X10317748Y-13964319D01*
X10317748Y-14002414D02*
X10327272Y-13983366D01*
X10327272Y-13983366D02*
X10336796Y-13973843D01*
X10336796Y-13973843D02*
X10355844Y-13964319D01*
X10355844Y-13964319D02*
X10374891Y-13964319D01*
X10441558Y-14097652D02*
X10441558Y-13964319D01*
X10441558Y-13897652D02*
X10432034Y-13907176D01*
X10432034Y-13907176D02*
X10441558Y-13916700D01*
X10441558Y-13916700D02*
X10451082Y-13907176D01*
X10451082Y-13907176D02*
X10441558Y-13897652D01*
X10441558Y-13897652D02*
X10441558Y-13916700D01*
X10565367Y-14097652D02*
X10546320Y-14088128D01*
X10546320Y-14088128D02*
X10536796Y-14069081D01*
X10536796Y-14069081D02*
X10536796Y-13897652D01*
X10670129Y-14097652D02*
X10651082Y-14088128D01*
X10651082Y-14088128D02*
X10641558Y-14069081D01*
X10641558Y-14069081D02*
X10641558Y-13897652D01*
X10898701Y-14097652D02*
X10898701Y-13897652D01*
X10898701Y-13897652D02*
X10965367Y-14040509D01*
X10965367Y-14040509D02*
X11032034Y-13897652D01*
X11032034Y-13897652D02*
X11032034Y-14097652D01*
X11212986Y-14097652D02*
X11212986Y-13992890D01*
X11212986Y-13992890D02*
X11203463Y-13973843D01*
X11203463Y-13973843D02*
X11184415Y-13964319D01*
X11184415Y-13964319D02*
X11146320Y-13964319D01*
X11146320Y-13964319D02*
X11127272Y-13973843D01*
X11212986Y-14088128D02*
X11193939Y-14097652D01*
X11193939Y-14097652D02*
X11146320Y-14097652D01*
X11146320Y-14097652D02*
X11127272Y-14088128D01*
X11127272Y-14088128D02*
X11117748Y-14069081D01*
X11117748Y-14069081D02*
X11117748Y-14050033D01*
X11117748Y-14050033D02*
X11127272Y-14030986D01*
X11127272Y-14030986D02*
X11146320Y-14021462D01*
X11146320Y-14021462D02*
X11193939Y-14021462D01*
X11193939Y-14021462D02*
X11212986Y-14011938D01*
X11308224Y-13964319D02*
X11308224Y-14164319D01*
X11308224Y-13973843D02*
X11327272Y-13964319D01*
X11327272Y-13964319D02*
X11365367Y-13964319D01*
X11365367Y-13964319D02*
X11384415Y-13973843D01*
X11384415Y-13973843D02*
X11393939Y-13983366D01*
X11393939Y-13983366D02*
X11403463Y-14002414D01*
X11403463Y-14002414D02*
X11403463Y-14059557D01*
X11403463Y-14059557D02*
X11393939Y-14078605D01*
X11393939Y-14078605D02*
X11384415Y-14088128D01*
X11384415Y-14088128D02*
X11365367Y-14097652D01*
X11365367Y-14097652D02*
X11327272Y-14097652D01*
X11327272Y-14097652D02*
X11308224Y-14088128D01*
X11489177Y-14078605D02*
X11498701Y-14088128D01*
X11498701Y-14088128D02*
X11489177Y-14097652D01*
X11489177Y-14097652D02*
X11479653Y-14088128D01*
X11479653Y-14088128D02*
X11489177Y-14078605D01*
X11489177Y-14078605D02*
X11489177Y-14097652D01*
X11489177Y-13973843D02*
X11498701Y-13983366D01*
X11498701Y-13983366D02*
X11489177Y-13992890D01*
X11489177Y-13992890D02*
X11479653Y-13983366D01*
X11479653Y-13983366D02*
X11489177Y-13973843D01*
X11489177Y-13973843D02*
X11489177Y-13992890D01*
D12*
X9826972Y-14411168D02*
X9856972Y-14441168D01*
X9856972Y-14411168D02*
X9826972Y-14441168D01*
D11*
X10155844Y-14317652D02*
X10174891Y-14317652D01*
X10174891Y-14317652D02*
X10193939Y-14327176D01*
X10193939Y-14327176D02*
X10203463Y-14336700D01*
X10203463Y-14336700D02*
X10212986Y-14355747D01*
X10212986Y-14355747D02*
X10222510Y-14393843D01*
X10222510Y-14393843D02*
X10222510Y-14441462D01*
X10222510Y-14441462D02*
X10212986Y-14479557D01*
X10212986Y-14479557D02*
X10203463Y-14498605D01*
X10203463Y-14498605D02*
X10193939Y-14508128D01*
X10193939Y-14508128D02*
X10174891Y-14517652D01*
X10174891Y-14517652D02*
X10155844Y-14517652D01*
X10155844Y-14517652D02*
X10136796Y-14508128D01*
X10136796Y-14508128D02*
X10127272Y-14498605D01*
X10127272Y-14498605D02*
X10117748Y-14479557D01*
X10117748Y-14479557D02*
X10108225Y-14441462D01*
X10108225Y-14441462D02*
X10108225Y-14393843D01*
X10108225Y-14393843D02*
X10117748Y-14355747D01*
X10117748Y-14355747D02*
X10127272Y-14336700D01*
X10127272Y-14336700D02*
X10136796Y-14327176D01*
X10136796Y-14327176D02*
X10155844Y-14317652D01*
X10308225Y-14498605D02*
X10317748Y-14508128D01*
X10317748Y-14508128D02*
X10308225Y-14517652D01*
X10308225Y-14517652D02*
X10298701Y-14508128D01*
X10298701Y-14508128D02*
X10308225Y-14498605D01*
X10308225Y-14498605D02*
X10308225Y-14517652D01*
X10384415Y-14317652D02*
X10508225Y-14317652D01*
X10508225Y-14317652D02*
X10441558Y-14393843D01*
X10441558Y-14393843D02*
X10470129Y-14393843D01*
X10470129Y-14393843D02*
X10489177Y-14403366D01*
X10489177Y-14403366D02*
X10498701Y-14412890D01*
X10498701Y-14412890D02*
X10508225Y-14431938D01*
X10508225Y-14431938D02*
X10508225Y-14479557D01*
X10508225Y-14479557D02*
X10498701Y-14498605D01*
X10498701Y-14498605D02*
X10489177Y-14508128D01*
X10489177Y-14508128D02*
X10470129Y-14517652D01*
X10470129Y-14517652D02*
X10412986Y-14517652D01*
X10412986Y-14517652D02*
X10393939Y-14508128D01*
X10393939Y-14508128D02*
X10384415Y-14498605D01*
X10632034Y-14317652D02*
X10651082Y-14317652D01*
X10651082Y-14317652D02*
X10670129Y-14327176D01*
X10670129Y-14327176D02*
X10679653Y-14336700D01*
X10679653Y-14336700D02*
X10689177Y-14355747D01*
X10689177Y-14355747D02*
X10698701Y-14393843D01*
X10698701Y-14393843D02*
X10698701Y-14441462D01*
X10698701Y-14441462D02*
X10689177Y-14479557D01*
X10689177Y-14479557D02*
X10679653Y-14498605D01*
X10679653Y-14498605D02*
X10670129Y-14508128D01*
X10670129Y-14508128D02*
X10651082Y-14517652D01*
X10651082Y-14517652D02*
X10632034Y-14517652D01*
X10632034Y-14517652D02*
X10612986Y-14508128D01*
X10612986Y-14508128D02*
X10603463Y-14498605D01*
X10603463Y-14498605D02*
X10593939Y-14479557D01*
X10593939Y-14479557D02*
X10584415Y-14441462D01*
X10584415Y-14441462D02*
X10584415Y-14393843D01*
X10584415Y-14393843D02*
X10593939Y-14355747D01*
X10593939Y-14355747D02*
X10603463Y-14336700D01*
X10603463Y-14336700D02*
X10612986Y-14327176D01*
X10612986Y-14327176D02*
X10632034Y-14317652D01*
X10822510Y-14317652D02*
X10841558Y-14317652D01*
X10841558Y-14317652D02*
X10860606Y-14327176D01*
X10860606Y-14327176D02*
X10870129Y-14336700D01*
X10870129Y-14336700D02*
X10879653Y-14355747D01*
X10879653Y-14355747D02*
X10889177Y-14393843D01*
X10889177Y-14393843D02*
X10889177Y-14441462D01*
X10889177Y-14441462D02*
X10879653Y-14479557D01*
X10879653Y-14479557D02*
X10870129Y-14498605D01*
X10870129Y-14498605D02*
X10860606Y-14508128D01*
X10860606Y-14508128D02*
X10841558Y-14517652D01*
X10841558Y-14517652D02*
X10822510Y-14517652D01*
X10822510Y-14517652D02*
X10803463Y-14508128D01*
X10803463Y-14508128D02*
X10793939Y-14498605D01*
X10793939Y-14498605D02*
X10784415Y-14479557D01*
X10784415Y-14479557D02*
X10774891Y-14441462D01*
X10774891Y-14441462D02*
X10774891Y-14393843D01*
X10774891Y-14393843D02*
X10784415Y-14355747D01*
X10784415Y-14355747D02*
X10793939Y-14336700D01*
X10793939Y-14336700D02*
X10803463Y-14327176D01*
X10803463Y-14327176D02*
X10822510Y-14317652D01*
X10974891Y-14517652D02*
X10974891Y-14384319D01*
X10974891Y-14403366D02*
X10984415Y-14393843D01*
X10984415Y-14393843D02*
X11003463Y-14384319D01*
X11003463Y-14384319D02*
X11032034Y-14384319D01*
X11032034Y-14384319D02*
X11051082Y-14393843D01*
X11051082Y-14393843D02*
X11060606Y-14412890D01*
X11060606Y-14412890D02*
X11060606Y-14517652D01*
X11060606Y-14412890D02*
X11070129Y-14393843D01*
X11070129Y-14393843D02*
X11089177Y-14384319D01*
X11089177Y-14384319D02*
X11117748Y-14384319D01*
X11117748Y-14384319D02*
X11136796Y-14393843D01*
X11136796Y-14393843D02*
X11146320Y-14412890D01*
X11146320Y-14412890D02*
X11146320Y-14517652D01*
X11241558Y-14517652D02*
X11241558Y-14384319D01*
X11241558Y-14403366D02*
X11251082Y-14393843D01*
X11251082Y-14393843D02*
X11270129Y-14384319D01*
X11270129Y-14384319D02*
X11298701Y-14384319D01*
X11298701Y-14384319D02*
X11317748Y-14393843D01*
X11317748Y-14393843D02*
X11327272Y-14412890D01*
X11327272Y-14412890D02*
X11327272Y-14517652D01*
X11327272Y-14412890D02*
X11336796Y-14393843D01*
X11336796Y-14393843D02*
X11355844Y-14384319D01*
X11355844Y-14384319D02*
X11384415Y-14384319D01*
X11384415Y-14384319D02*
X11403463Y-14393843D01*
X11403463Y-14393843D02*
X11412986Y-14412890D01*
X11412986Y-14412890D02*
X11412986Y-14517652D01*
X11803463Y-14308128D02*
X11632034Y-14565271D01*
X12060606Y-14317652D02*
X12079653Y-14317652D01*
X12079653Y-14317652D02*
X12098701Y-14327176D01*
X12098701Y-14327176D02*
X12108225Y-14336700D01*
X12108225Y-14336700D02*
X12117748Y-14355747D01*
X12117748Y-14355747D02*
X12127272Y-14393843D01*
X12127272Y-14393843D02*
X12127272Y-14441462D01*
X12127272Y-14441462D02*
X12117748Y-14479557D01*
X12117748Y-14479557D02*
X12108225Y-14498605D01*
X12108225Y-14498605D02*
X12098701Y-14508128D01*
X12098701Y-14508128D02*
X12079653Y-14517652D01*
X12079653Y-14517652D02*
X12060606Y-14517652D01*
X12060606Y-14517652D02*
X12041558Y-14508128D01*
X12041558Y-14508128D02*
X12032034Y-14498605D01*
X12032034Y-14498605D02*
X12022510Y-14479557D01*
X12022510Y-14479557D02*
X12012987Y-14441462D01*
X12012987Y-14441462D02*
X12012987Y-14393843D01*
X12012987Y-14393843D02*
X12022510Y-14355747D01*
X12022510Y-14355747D02*
X12032034Y-14336700D01*
X12032034Y-14336700D02*
X12041558Y-14327176D01*
X12041558Y-14327176D02*
X12060606Y-14317652D01*
X12212987Y-14498605D02*
X12222510Y-14508128D01*
X12222510Y-14508128D02*
X12212987Y-14517652D01*
X12212987Y-14517652D02*
X12203463Y-14508128D01*
X12203463Y-14508128D02*
X12212987Y-14498605D01*
X12212987Y-14498605D02*
X12212987Y-14517652D01*
X12346320Y-14317652D02*
X12365368Y-14317652D01*
X12365368Y-14317652D02*
X12384415Y-14327176D01*
X12384415Y-14327176D02*
X12393939Y-14336700D01*
X12393939Y-14336700D02*
X12403463Y-14355747D01*
X12403463Y-14355747D02*
X12412987Y-14393843D01*
X12412987Y-14393843D02*
X12412987Y-14441462D01*
X12412987Y-14441462D02*
X12403463Y-14479557D01*
X12403463Y-14479557D02*
X12393939Y-14498605D01*
X12393939Y-14498605D02*
X12384415Y-14508128D01*
X12384415Y-14508128D02*
X12365368Y-14517652D01*
X12365368Y-14517652D02*
X12346320Y-14517652D01*
X12346320Y-14517652D02*
X12327272Y-14508128D01*
X12327272Y-14508128D02*
X12317748Y-14498605D01*
X12317748Y-14498605D02*
X12308225Y-14479557D01*
X12308225Y-14479557D02*
X12298701Y-14441462D01*
X12298701Y-14441462D02*
X12298701Y-14393843D01*
X12298701Y-14393843D02*
X12308225Y-14355747D01*
X12308225Y-14355747D02*
X12317748Y-14336700D01*
X12317748Y-14336700D02*
X12327272Y-14327176D01*
X12327272Y-14327176D02*
X12346320Y-14317652D01*
X12603463Y-14517652D02*
X12489177Y-14517652D01*
X12546320Y-14517652D02*
X12546320Y-14317652D01*
X12546320Y-14317652D02*
X12527272Y-14346224D01*
X12527272Y-14346224D02*
X12508225Y-14365271D01*
X12508225Y-14365271D02*
X12489177Y-14374795D01*
X12793939Y-14517652D02*
X12679653Y-14517652D01*
X12736796Y-14517652D02*
X12736796Y-14317652D01*
X12736796Y-14317652D02*
X12717748Y-14346224D01*
X12717748Y-14346224D02*
X12698701Y-14365271D01*
X12698701Y-14365271D02*
X12679653Y-14374795D01*
X12908225Y-14403366D02*
X12889177Y-14393843D01*
X12889177Y-14393843D02*
X12879653Y-14384319D01*
X12879653Y-14384319D02*
X12870129Y-14365271D01*
X12870129Y-14365271D02*
X12870129Y-14355747D01*
X12870129Y-14355747D02*
X12879653Y-14336700D01*
X12879653Y-14336700D02*
X12889177Y-14327176D01*
X12889177Y-14327176D02*
X12908225Y-14317652D01*
X12908225Y-14317652D02*
X12946320Y-14317652D01*
X12946320Y-14317652D02*
X12965368Y-14327176D01*
X12965368Y-14327176D02*
X12974891Y-14336700D01*
X12974891Y-14336700D02*
X12984415Y-14355747D01*
X12984415Y-14355747D02*
X12984415Y-14365271D01*
X12984415Y-14365271D02*
X12974891Y-14384319D01*
X12974891Y-14384319D02*
X12965368Y-14393843D01*
X12965368Y-14393843D02*
X12946320Y-14403366D01*
X12946320Y-14403366D02*
X12908225Y-14403366D01*
X12908225Y-14403366D02*
X12889177Y-14412890D01*
X12889177Y-14412890D02*
X12879653Y-14422414D01*
X12879653Y-14422414D02*
X12870129Y-14441462D01*
X12870129Y-14441462D02*
X12870129Y-14479557D01*
X12870129Y-14479557D02*
X12879653Y-14498605D01*
X12879653Y-14498605D02*
X12889177Y-14508128D01*
X12889177Y-14508128D02*
X12908225Y-14517652D01*
X12908225Y-14517652D02*
X12946320Y-14517652D01*
X12946320Y-14517652D02*
X12965368Y-14508128D01*
X12965368Y-14508128D02*
X12974891Y-14498605D01*
X12974891Y-14498605D02*
X12984415Y-14479557D01*
X12984415Y-14479557D02*
X12984415Y-14441462D01*
X12984415Y-14441462D02*
X12974891Y-14422414D01*
X12974891Y-14422414D02*
X12965368Y-14412890D01*
X12965368Y-14412890D02*
X12946320Y-14403366D01*
X13060606Y-14317652D02*
X13060606Y-14355747D01*
X13136796Y-14317652D02*
X13136796Y-14355747D01*
X13432034Y-14593843D02*
X13422510Y-14584319D01*
X13422510Y-14584319D02*
X13403463Y-14555747D01*
X13403463Y-14555747D02*
X13393939Y-14536700D01*
X13393939Y-14536700D02*
X13384415Y-14508128D01*
X13384415Y-14508128D02*
X13374891Y-14460509D01*
X13374891Y-14460509D02*
X13374891Y-14422414D01*
X13374891Y-14422414D02*
X13384415Y-14374795D01*
X13384415Y-14374795D02*
X13393939Y-14346224D01*
X13393939Y-14346224D02*
X13403463Y-14327176D01*
X13403463Y-14327176D02*
X13422510Y-14298605D01*
X13422510Y-14298605D02*
X13432034Y-14289081D01*
X13489177Y-14317652D02*
X13612987Y-14317652D01*
X13612987Y-14317652D02*
X13546320Y-14393843D01*
X13546320Y-14393843D02*
X13574891Y-14393843D01*
X13574891Y-14393843D02*
X13593939Y-14403366D01*
X13593939Y-14403366D02*
X13603463Y-14412890D01*
X13603463Y-14412890D02*
X13612987Y-14431938D01*
X13612987Y-14431938D02*
X13612987Y-14479557D01*
X13612987Y-14479557D02*
X13603463Y-14498605D01*
X13603463Y-14498605D02*
X13593939Y-14508128D01*
X13593939Y-14508128D02*
X13574891Y-14517652D01*
X13574891Y-14517652D02*
X13517749Y-14517652D01*
X13517749Y-14517652D02*
X13498701Y-14508128D01*
X13498701Y-14508128D02*
X13489177Y-14498605D01*
X13736796Y-14317652D02*
X13755844Y-14317652D01*
X13755844Y-14317652D02*
X13774891Y-14327176D01*
X13774891Y-14327176D02*
X13784415Y-14336700D01*
X13784415Y-14336700D02*
X13793939Y-14355747D01*
X13793939Y-14355747D02*
X13803463Y-14393843D01*
X13803463Y-14393843D02*
X13803463Y-14441462D01*
X13803463Y-14441462D02*
X13793939Y-14479557D01*
X13793939Y-14479557D02*
X13784415Y-14498605D01*
X13784415Y-14498605D02*
X13774891Y-14508128D01*
X13774891Y-14508128D02*
X13755844Y-14517652D01*
X13755844Y-14517652D02*
X13736796Y-14517652D01*
X13736796Y-14517652D02*
X13717749Y-14508128D01*
X13717749Y-14508128D02*
X13708225Y-14498605D01*
X13708225Y-14498605D02*
X13698701Y-14479557D01*
X13698701Y-14479557D02*
X13689177Y-14441462D01*
X13689177Y-14441462D02*
X13689177Y-14393843D01*
X13689177Y-14393843D02*
X13698701Y-14355747D01*
X13698701Y-14355747D02*
X13708225Y-14336700D01*
X13708225Y-14336700D02*
X13717749Y-14327176D01*
X13717749Y-14327176D02*
X13736796Y-14317652D01*
X14041558Y-14517652D02*
X14041558Y-14317652D01*
X14127272Y-14517652D02*
X14127272Y-14412890D01*
X14127272Y-14412890D02*
X14117749Y-14393843D01*
X14117749Y-14393843D02*
X14098701Y-14384319D01*
X14098701Y-14384319D02*
X14070130Y-14384319D01*
X14070130Y-14384319D02*
X14051082Y-14393843D01*
X14051082Y-14393843D02*
X14041558Y-14403366D01*
X14251082Y-14517652D02*
X14232034Y-14508128D01*
X14232034Y-14508128D02*
X14222511Y-14498605D01*
X14222511Y-14498605D02*
X14212987Y-14479557D01*
X14212987Y-14479557D02*
X14212987Y-14422414D01*
X14212987Y-14422414D02*
X14222511Y-14403366D01*
X14222511Y-14403366D02*
X14232034Y-14393843D01*
X14232034Y-14393843D02*
X14251082Y-14384319D01*
X14251082Y-14384319D02*
X14279653Y-14384319D01*
X14279653Y-14384319D02*
X14298701Y-14393843D01*
X14298701Y-14393843D02*
X14308225Y-14403366D01*
X14308225Y-14403366D02*
X14317749Y-14422414D01*
X14317749Y-14422414D02*
X14317749Y-14479557D01*
X14317749Y-14479557D02*
X14308225Y-14498605D01*
X14308225Y-14498605D02*
X14298701Y-14508128D01*
X14298701Y-14508128D02*
X14279653Y-14517652D01*
X14279653Y-14517652D02*
X14251082Y-14517652D01*
X14432034Y-14517652D02*
X14412987Y-14508128D01*
X14412987Y-14508128D02*
X14403463Y-14489081D01*
X14403463Y-14489081D02*
X14403463Y-14317652D01*
X14584415Y-14508128D02*
X14565368Y-14517652D01*
X14565368Y-14517652D02*
X14527272Y-14517652D01*
X14527272Y-14517652D02*
X14508225Y-14508128D01*
X14508225Y-14508128D02*
X14498701Y-14489081D01*
X14498701Y-14489081D02*
X14498701Y-14412890D01*
X14498701Y-14412890D02*
X14508225Y-14393843D01*
X14508225Y-14393843D02*
X14527272Y-14384319D01*
X14527272Y-14384319D02*
X14565368Y-14384319D01*
X14565368Y-14384319D02*
X14584415Y-14393843D01*
X14584415Y-14393843D02*
X14593939Y-14412890D01*
X14593939Y-14412890D02*
X14593939Y-14431938D01*
X14593939Y-14431938D02*
X14498701Y-14450986D01*
X14670130Y-14508128D02*
X14689177Y-14517652D01*
X14689177Y-14517652D02*
X14727272Y-14517652D01*
X14727272Y-14517652D02*
X14746320Y-14508128D01*
X14746320Y-14508128D02*
X14755844Y-14489081D01*
X14755844Y-14489081D02*
X14755844Y-14479557D01*
X14755844Y-14479557D02*
X14746320Y-14460509D01*
X14746320Y-14460509D02*
X14727272Y-14450986D01*
X14727272Y-14450986D02*
X14698701Y-14450986D01*
X14698701Y-14450986D02*
X14679653Y-14441462D01*
X14679653Y-14441462D02*
X14670130Y-14422414D01*
X14670130Y-14422414D02*
X14670130Y-14412890D01*
X14670130Y-14412890D02*
X14679653Y-14393843D01*
X14679653Y-14393843D02*
X14698701Y-14384319D01*
X14698701Y-14384319D02*
X14727272Y-14384319D01*
X14727272Y-14384319D02*
X14746320Y-14393843D01*
X14822511Y-14593843D02*
X14832034Y-14584319D01*
X14832034Y-14584319D02*
X14851082Y-14555747D01*
X14851082Y-14555747D02*
X14860606Y-14536700D01*
X14860606Y-14536700D02*
X14870130Y-14508128D01*
X14870130Y-14508128D02*
X14879653Y-14460509D01*
X14879653Y-14460509D02*
X14879653Y-14422414D01*
X14879653Y-14422414D02*
X14870130Y-14374795D01*
X14870130Y-14374795D02*
X14860606Y-14346224D01*
X14860606Y-14346224D02*
X14851082Y-14327176D01*
X14851082Y-14327176D02*
X14832034Y-14298605D01*
X14832034Y-14298605D02*
X14822511Y-14289081D01*
D12*
X9856972Y-14690168D02*
G75*
G02*
X9806972Y-14690168I-25000J0D01*
G01*
X9806972Y-14690168D02*
G75*
G02*
X9856972Y-14690168I25000J0D01*
G01*
D11*
X10155844Y-14581652D02*
X10174891Y-14581652D01*
X10174891Y-14581652D02*
X10193939Y-14591176D01*
X10193939Y-14591176D02*
X10203463Y-14600700D01*
X10203463Y-14600700D02*
X10212986Y-14619747D01*
X10212986Y-14619747D02*
X10222510Y-14657843D01*
X10222510Y-14657843D02*
X10222510Y-14705462D01*
X10222510Y-14705462D02*
X10212986Y-14743557D01*
X10212986Y-14743557D02*
X10203463Y-14762605D01*
X10203463Y-14762605D02*
X10193939Y-14772128D01*
X10193939Y-14772128D02*
X10174891Y-14781652D01*
X10174891Y-14781652D02*
X10155844Y-14781652D01*
X10155844Y-14781652D02*
X10136796Y-14772128D01*
X10136796Y-14772128D02*
X10127272Y-14762605D01*
X10127272Y-14762605D02*
X10117748Y-14743557D01*
X10117748Y-14743557D02*
X10108225Y-14705462D01*
X10108225Y-14705462D02*
X10108225Y-14657843D01*
X10108225Y-14657843D02*
X10117748Y-14619747D01*
X10117748Y-14619747D02*
X10127272Y-14600700D01*
X10127272Y-14600700D02*
X10136796Y-14591176D01*
X10136796Y-14591176D02*
X10155844Y-14581652D01*
X10308225Y-14762605D02*
X10317748Y-14772128D01*
X10317748Y-14772128D02*
X10308225Y-14781652D01*
X10308225Y-14781652D02*
X10298701Y-14772128D01*
X10298701Y-14772128D02*
X10308225Y-14762605D01*
X10308225Y-14762605D02*
X10308225Y-14781652D01*
X10498701Y-14581652D02*
X10403463Y-14581652D01*
X10403463Y-14581652D02*
X10393939Y-14676890D01*
X10393939Y-14676890D02*
X10403463Y-14667366D01*
X10403463Y-14667366D02*
X10422510Y-14657843D01*
X10422510Y-14657843D02*
X10470129Y-14657843D01*
X10470129Y-14657843D02*
X10489177Y-14667366D01*
X10489177Y-14667366D02*
X10498701Y-14676890D01*
X10498701Y-14676890D02*
X10508225Y-14695938D01*
X10508225Y-14695938D02*
X10508225Y-14743557D01*
X10508225Y-14743557D02*
X10498701Y-14762605D01*
X10498701Y-14762605D02*
X10489177Y-14772128D01*
X10489177Y-14772128D02*
X10470129Y-14781652D01*
X10470129Y-14781652D02*
X10422510Y-14781652D01*
X10422510Y-14781652D02*
X10403463Y-14772128D01*
X10403463Y-14772128D02*
X10393939Y-14762605D01*
X10632034Y-14581652D02*
X10651082Y-14581652D01*
X10651082Y-14581652D02*
X10670129Y-14591176D01*
X10670129Y-14591176D02*
X10679653Y-14600700D01*
X10679653Y-14600700D02*
X10689177Y-14619747D01*
X10689177Y-14619747D02*
X10698701Y-14657843D01*
X10698701Y-14657843D02*
X10698701Y-14705462D01*
X10698701Y-14705462D02*
X10689177Y-14743557D01*
X10689177Y-14743557D02*
X10679653Y-14762605D01*
X10679653Y-14762605D02*
X10670129Y-14772128D01*
X10670129Y-14772128D02*
X10651082Y-14781652D01*
X10651082Y-14781652D02*
X10632034Y-14781652D01*
X10632034Y-14781652D02*
X10612986Y-14772128D01*
X10612986Y-14772128D02*
X10603463Y-14762605D01*
X10603463Y-14762605D02*
X10593939Y-14743557D01*
X10593939Y-14743557D02*
X10584415Y-14705462D01*
X10584415Y-14705462D02*
X10584415Y-14657843D01*
X10584415Y-14657843D02*
X10593939Y-14619747D01*
X10593939Y-14619747D02*
X10603463Y-14600700D01*
X10603463Y-14600700D02*
X10612986Y-14591176D01*
X10612986Y-14591176D02*
X10632034Y-14581652D01*
X10822510Y-14581652D02*
X10841558Y-14581652D01*
X10841558Y-14581652D02*
X10860606Y-14591176D01*
X10860606Y-14591176D02*
X10870129Y-14600700D01*
X10870129Y-14600700D02*
X10879653Y-14619747D01*
X10879653Y-14619747D02*
X10889177Y-14657843D01*
X10889177Y-14657843D02*
X10889177Y-14705462D01*
X10889177Y-14705462D02*
X10879653Y-14743557D01*
X10879653Y-14743557D02*
X10870129Y-14762605D01*
X10870129Y-14762605D02*
X10860606Y-14772128D01*
X10860606Y-14772128D02*
X10841558Y-14781652D01*
X10841558Y-14781652D02*
X10822510Y-14781652D01*
X10822510Y-14781652D02*
X10803463Y-14772128D01*
X10803463Y-14772128D02*
X10793939Y-14762605D01*
X10793939Y-14762605D02*
X10784415Y-14743557D01*
X10784415Y-14743557D02*
X10774891Y-14705462D01*
X10774891Y-14705462D02*
X10774891Y-14657843D01*
X10774891Y-14657843D02*
X10784415Y-14619747D01*
X10784415Y-14619747D02*
X10793939Y-14600700D01*
X10793939Y-14600700D02*
X10803463Y-14591176D01*
X10803463Y-14591176D02*
X10822510Y-14581652D01*
X10974891Y-14781652D02*
X10974891Y-14648319D01*
X10974891Y-14667366D02*
X10984415Y-14657843D01*
X10984415Y-14657843D02*
X11003463Y-14648319D01*
X11003463Y-14648319D02*
X11032034Y-14648319D01*
X11032034Y-14648319D02*
X11051082Y-14657843D01*
X11051082Y-14657843D02*
X11060606Y-14676890D01*
X11060606Y-14676890D02*
X11060606Y-14781652D01*
X11060606Y-14676890D02*
X11070129Y-14657843D01*
X11070129Y-14657843D02*
X11089177Y-14648319D01*
X11089177Y-14648319D02*
X11117748Y-14648319D01*
X11117748Y-14648319D02*
X11136796Y-14657843D01*
X11136796Y-14657843D02*
X11146320Y-14676890D01*
X11146320Y-14676890D02*
X11146320Y-14781652D01*
X11241558Y-14781652D02*
X11241558Y-14648319D01*
X11241558Y-14667366D02*
X11251082Y-14657843D01*
X11251082Y-14657843D02*
X11270129Y-14648319D01*
X11270129Y-14648319D02*
X11298701Y-14648319D01*
X11298701Y-14648319D02*
X11317748Y-14657843D01*
X11317748Y-14657843D02*
X11327272Y-14676890D01*
X11327272Y-14676890D02*
X11327272Y-14781652D01*
X11327272Y-14676890D02*
X11336796Y-14657843D01*
X11336796Y-14657843D02*
X11355844Y-14648319D01*
X11355844Y-14648319D02*
X11384415Y-14648319D01*
X11384415Y-14648319D02*
X11403463Y-14657843D01*
X11403463Y-14657843D02*
X11412986Y-14676890D01*
X11412986Y-14676890D02*
X11412986Y-14781652D01*
X11803463Y-14572128D02*
X11632034Y-14829271D01*
X12060606Y-14581652D02*
X12079653Y-14581652D01*
X12079653Y-14581652D02*
X12098701Y-14591176D01*
X12098701Y-14591176D02*
X12108225Y-14600700D01*
X12108225Y-14600700D02*
X12117748Y-14619747D01*
X12117748Y-14619747D02*
X12127272Y-14657843D01*
X12127272Y-14657843D02*
X12127272Y-14705462D01*
X12127272Y-14705462D02*
X12117748Y-14743557D01*
X12117748Y-14743557D02*
X12108225Y-14762605D01*
X12108225Y-14762605D02*
X12098701Y-14772128D01*
X12098701Y-14772128D02*
X12079653Y-14781652D01*
X12079653Y-14781652D02*
X12060606Y-14781652D01*
X12060606Y-14781652D02*
X12041558Y-14772128D01*
X12041558Y-14772128D02*
X12032034Y-14762605D01*
X12032034Y-14762605D02*
X12022510Y-14743557D01*
X12022510Y-14743557D02*
X12012987Y-14705462D01*
X12012987Y-14705462D02*
X12012987Y-14657843D01*
X12012987Y-14657843D02*
X12022510Y-14619747D01*
X12022510Y-14619747D02*
X12032034Y-14600700D01*
X12032034Y-14600700D02*
X12041558Y-14591176D01*
X12041558Y-14591176D02*
X12060606Y-14581652D01*
X12212987Y-14762605D02*
X12222510Y-14772128D01*
X12222510Y-14772128D02*
X12212987Y-14781652D01*
X12212987Y-14781652D02*
X12203463Y-14772128D01*
X12203463Y-14772128D02*
X12212987Y-14762605D01*
X12212987Y-14762605D02*
X12212987Y-14781652D01*
X12346320Y-14581652D02*
X12365368Y-14581652D01*
X12365368Y-14581652D02*
X12384415Y-14591176D01*
X12384415Y-14591176D02*
X12393939Y-14600700D01*
X12393939Y-14600700D02*
X12403463Y-14619747D01*
X12403463Y-14619747D02*
X12412987Y-14657843D01*
X12412987Y-14657843D02*
X12412987Y-14705462D01*
X12412987Y-14705462D02*
X12403463Y-14743557D01*
X12403463Y-14743557D02*
X12393939Y-14762605D01*
X12393939Y-14762605D02*
X12384415Y-14772128D01*
X12384415Y-14772128D02*
X12365368Y-14781652D01*
X12365368Y-14781652D02*
X12346320Y-14781652D01*
X12346320Y-14781652D02*
X12327272Y-14772128D01*
X12327272Y-14772128D02*
X12317748Y-14762605D01*
X12317748Y-14762605D02*
X12308225Y-14743557D01*
X12308225Y-14743557D02*
X12298701Y-14705462D01*
X12298701Y-14705462D02*
X12298701Y-14657843D01*
X12298701Y-14657843D02*
X12308225Y-14619747D01*
X12308225Y-14619747D02*
X12317748Y-14600700D01*
X12317748Y-14600700D02*
X12327272Y-14591176D01*
X12327272Y-14591176D02*
X12346320Y-14581652D01*
X12603463Y-14781652D02*
X12489177Y-14781652D01*
X12546320Y-14781652D02*
X12546320Y-14581652D01*
X12546320Y-14581652D02*
X12527272Y-14610224D01*
X12527272Y-14610224D02*
X12508225Y-14629271D01*
X12508225Y-14629271D02*
X12489177Y-14638795D01*
X12698701Y-14781652D02*
X12736796Y-14781652D01*
X12736796Y-14781652D02*
X12755844Y-14772128D01*
X12755844Y-14772128D02*
X12765368Y-14762605D01*
X12765368Y-14762605D02*
X12784415Y-14734033D01*
X12784415Y-14734033D02*
X12793939Y-14695938D01*
X12793939Y-14695938D02*
X12793939Y-14619747D01*
X12793939Y-14619747D02*
X12784415Y-14600700D01*
X12784415Y-14600700D02*
X12774891Y-14591176D01*
X12774891Y-14591176D02*
X12755844Y-14581652D01*
X12755844Y-14581652D02*
X12717748Y-14581652D01*
X12717748Y-14581652D02*
X12698701Y-14591176D01*
X12698701Y-14591176D02*
X12689177Y-14600700D01*
X12689177Y-14600700D02*
X12679653Y-14619747D01*
X12679653Y-14619747D02*
X12679653Y-14667366D01*
X12679653Y-14667366D02*
X12689177Y-14686414D01*
X12689177Y-14686414D02*
X12698701Y-14695938D01*
X12698701Y-14695938D02*
X12717748Y-14705462D01*
X12717748Y-14705462D02*
X12755844Y-14705462D01*
X12755844Y-14705462D02*
X12774891Y-14695938D01*
X12774891Y-14695938D02*
X12784415Y-14686414D01*
X12784415Y-14686414D02*
X12793939Y-14667366D01*
X12860606Y-14581652D02*
X12993939Y-14581652D01*
X12993939Y-14581652D02*
X12908225Y-14781652D01*
X13060606Y-14581652D02*
X13060606Y-14619747D01*
X13136796Y-14581652D02*
X13136796Y-14619747D01*
X13432034Y-14857843D02*
X13422510Y-14848319D01*
X13422510Y-14848319D02*
X13403463Y-14819747D01*
X13403463Y-14819747D02*
X13393939Y-14800700D01*
X13393939Y-14800700D02*
X13384415Y-14772128D01*
X13384415Y-14772128D02*
X13374891Y-14724509D01*
X13374891Y-14724509D02*
X13374891Y-14686414D01*
X13374891Y-14686414D02*
X13384415Y-14638795D01*
X13384415Y-14638795D02*
X13393939Y-14610224D01*
X13393939Y-14610224D02*
X13403463Y-14591176D01*
X13403463Y-14591176D02*
X13422510Y-14562605D01*
X13422510Y-14562605D02*
X13432034Y-14553081D01*
X13612987Y-14781652D02*
X13498701Y-14781652D01*
X13555844Y-14781652D02*
X13555844Y-14581652D01*
X13555844Y-14581652D02*
X13536796Y-14610224D01*
X13536796Y-14610224D02*
X13517749Y-14629271D01*
X13517749Y-14629271D02*
X13498701Y-14638795D01*
X13851082Y-14781652D02*
X13851082Y-14581652D01*
X13936796Y-14781652D02*
X13936796Y-14676890D01*
X13936796Y-14676890D02*
X13927272Y-14657843D01*
X13927272Y-14657843D02*
X13908225Y-14648319D01*
X13908225Y-14648319D02*
X13879653Y-14648319D01*
X13879653Y-14648319D02*
X13860606Y-14657843D01*
X13860606Y-14657843D02*
X13851082Y-14667366D01*
X14060606Y-14781652D02*
X14041558Y-14772128D01*
X14041558Y-14772128D02*
X14032034Y-14762605D01*
X14032034Y-14762605D02*
X14022511Y-14743557D01*
X14022511Y-14743557D02*
X14022511Y-14686414D01*
X14022511Y-14686414D02*
X14032034Y-14667366D01*
X14032034Y-14667366D02*
X14041558Y-14657843D01*
X14041558Y-14657843D02*
X14060606Y-14648319D01*
X14060606Y-14648319D02*
X14089177Y-14648319D01*
X14089177Y-14648319D02*
X14108225Y-14657843D01*
X14108225Y-14657843D02*
X14117749Y-14667366D01*
X14117749Y-14667366D02*
X14127272Y-14686414D01*
X14127272Y-14686414D02*
X14127272Y-14743557D01*
X14127272Y-14743557D02*
X14117749Y-14762605D01*
X14117749Y-14762605D02*
X14108225Y-14772128D01*
X14108225Y-14772128D02*
X14089177Y-14781652D01*
X14089177Y-14781652D02*
X14060606Y-14781652D01*
X14241558Y-14781652D02*
X14222511Y-14772128D01*
X14222511Y-14772128D02*
X14212987Y-14753081D01*
X14212987Y-14753081D02*
X14212987Y-14581652D01*
X14393939Y-14772128D02*
X14374892Y-14781652D01*
X14374892Y-14781652D02*
X14336796Y-14781652D01*
X14336796Y-14781652D02*
X14317749Y-14772128D01*
X14317749Y-14772128D02*
X14308225Y-14753081D01*
X14308225Y-14753081D02*
X14308225Y-14676890D01*
X14308225Y-14676890D02*
X14317749Y-14657843D01*
X14317749Y-14657843D02*
X14336796Y-14648319D01*
X14336796Y-14648319D02*
X14374892Y-14648319D01*
X14374892Y-14648319D02*
X14393939Y-14657843D01*
X14393939Y-14657843D02*
X14403463Y-14676890D01*
X14403463Y-14676890D02*
X14403463Y-14695938D01*
X14403463Y-14695938D02*
X14308225Y-14714986D01*
X14470130Y-14857843D02*
X14479653Y-14848319D01*
X14479653Y-14848319D02*
X14498701Y-14819747D01*
X14498701Y-14819747D02*
X14508225Y-14800700D01*
X14508225Y-14800700D02*
X14517749Y-14772128D01*
X14517749Y-14772128D02*
X14527272Y-14724509D01*
X14527272Y-14724509D02*
X14527272Y-14686414D01*
X14527272Y-14686414D02*
X14517749Y-14638795D01*
X14517749Y-14638795D02*
X14508225Y-14610224D01*
X14508225Y-14610224D02*
X14498701Y-14591176D01*
X14498701Y-14591176D02*
X14479653Y-14562605D01*
X14479653Y-14562605D02*
X14470130Y-14553081D01*
D12*
X9826972Y-14924168D02*
X9826972Y-14984168D01*
X9796972Y-14954168D02*
X9856972Y-14954168D01*
D11*
X10155844Y-14845652D02*
X10174891Y-14845652D01*
X10174891Y-14845652D02*
X10193939Y-14855176D01*
X10193939Y-14855176D02*
X10203463Y-14864700D01*
X10203463Y-14864700D02*
X10212986Y-14883747D01*
X10212986Y-14883747D02*
X10222510Y-14921843D01*
X10222510Y-14921843D02*
X10222510Y-14969462D01*
X10222510Y-14969462D02*
X10212986Y-15007557D01*
X10212986Y-15007557D02*
X10203463Y-15026605D01*
X10203463Y-15026605D02*
X10193939Y-15036128D01*
X10193939Y-15036128D02*
X10174891Y-15045652D01*
X10174891Y-15045652D02*
X10155844Y-15045652D01*
X10155844Y-15045652D02*
X10136796Y-15036128D01*
X10136796Y-15036128D02*
X10127272Y-15026605D01*
X10127272Y-15026605D02*
X10117748Y-15007557D01*
X10117748Y-15007557D02*
X10108225Y-14969462D01*
X10108225Y-14969462D02*
X10108225Y-14921843D01*
X10108225Y-14921843D02*
X10117748Y-14883747D01*
X10117748Y-14883747D02*
X10127272Y-14864700D01*
X10127272Y-14864700D02*
X10136796Y-14855176D01*
X10136796Y-14855176D02*
X10155844Y-14845652D01*
X10308225Y-15026605D02*
X10317748Y-15036128D01*
X10317748Y-15036128D02*
X10308225Y-15045652D01*
X10308225Y-15045652D02*
X10298701Y-15036128D01*
X10298701Y-15036128D02*
X10308225Y-15026605D01*
X10308225Y-15026605D02*
X10308225Y-15045652D01*
X10489177Y-14845652D02*
X10451082Y-14845652D01*
X10451082Y-14845652D02*
X10432034Y-14855176D01*
X10432034Y-14855176D02*
X10422510Y-14864700D01*
X10422510Y-14864700D02*
X10403463Y-14893271D01*
X10403463Y-14893271D02*
X10393939Y-14931366D01*
X10393939Y-14931366D02*
X10393939Y-15007557D01*
X10393939Y-15007557D02*
X10403463Y-15026605D01*
X10403463Y-15026605D02*
X10412986Y-15036128D01*
X10412986Y-15036128D02*
X10432034Y-15045652D01*
X10432034Y-15045652D02*
X10470129Y-15045652D01*
X10470129Y-15045652D02*
X10489177Y-15036128D01*
X10489177Y-15036128D02*
X10498701Y-15026605D01*
X10498701Y-15026605D02*
X10508225Y-15007557D01*
X10508225Y-15007557D02*
X10508225Y-14959938D01*
X10508225Y-14959938D02*
X10498701Y-14940890D01*
X10498701Y-14940890D02*
X10489177Y-14931366D01*
X10489177Y-14931366D02*
X10470129Y-14921843D01*
X10470129Y-14921843D02*
X10432034Y-14921843D01*
X10432034Y-14921843D02*
X10412986Y-14931366D01*
X10412986Y-14931366D02*
X10403463Y-14940890D01*
X10403463Y-14940890D02*
X10393939Y-14959938D01*
X10632034Y-14845652D02*
X10651082Y-14845652D01*
X10651082Y-14845652D02*
X10670129Y-14855176D01*
X10670129Y-14855176D02*
X10679653Y-14864700D01*
X10679653Y-14864700D02*
X10689177Y-14883747D01*
X10689177Y-14883747D02*
X10698701Y-14921843D01*
X10698701Y-14921843D02*
X10698701Y-14969462D01*
X10698701Y-14969462D02*
X10689177Y-15007557D01*
X10689177Y-15007557D02*
X10679653Y-15026605D01*
X10679653Y-15026605D02*
X10670129Y-15036128D01*
X10670129Y-15036128D02*
X10651082Y-15045652D01*
X10651082Y-15045652D02*
X10632034Y-15045652D01*
X10632034Y-15045652D02*
X10612986Y-15036128D01*
X10612986Y-15036128D02*
X10603463Y-15026605D01*
X10603463Y-15026605D02*
X10593939Y-15007557D01*
X10593939Y-15007557D02*
X10584415Y-14969462D01*
X10584415Y-14969462D02*
X10584415Y-14921843D01*
X10584415Y-14921843D02*
X10593939Y-14883747D01*
X10593939Y-14883747D02*
X10603463Y-14864700D01*
X10603463Y-14864700D02*
X10612986Y-14855176D01*
X10612986Y-14855176D02*
X10632034Y-14845652D01*
X10822510Y-14845652D02*
X10841558Y-14845652D01*
X10841558Y-14845652D02*
X10860606Y-14855176D01*
X10860606Y-14855176D02*
X10870129Y-14864700D01*
X10870129Y-14864700D02*
X10879653Y-14883747D01*
X10879653Y-14883747D02*
X10889177Y-14921843D01*
X10889177Y-14921843D02*
X10889177Y-14969462D01*
X10889177Y-14969462D02*
X10879653Y-15007557D01*
X10879653Y-15007557D02*
X10870129Y-15026605D01*
X10870129Y-15026605D02*
X10860606Y-15036128D01*
X10860606Y-15036128D02*
X10841558Y-15045652D01*
X10841558Y-15045652D02*
X10822510Y-15045652D01*
X10822510Y-15045652D02*
X10803463Y-15036128D01*
X10803463Y-15036128D02*
X10793939Y-15026605D01*
X10793939Y-15026605D02*
X10784415Y-15007557D01*
X10784415Y-15007557D02*
X10774891Y-14969462D01*
X10774891Y-14969462D02*
X10774891Y-14921843D01*
X10774891Y-14921843D02*
X10784415Y-14883747D01*
X10784415Y-14883747D02*
X10793939Y-14864700D01*
X10793939Y-14864700D02*
X10803463Y-14855176D01*
X10803463Y-14855176D02*
X10822510Y-14845652D01*
X10974891Y-15045652D02*
X10974891Y-14912319D01*
X10974891Y-14931366D02*
X10984415Y-14921843D01*
X10984415Y-14921843D02*
X11003463Y-14912319D01*
X11003463Y-14912319D02*
X11032034Y-14912319D01*
X11032034Y-14912319D02*
X11051082Y-14921843D01*
X11051082Y-14921843D02*
X11060606Y-14940890D01*
X11060606Y-14940890D02*
X11060606Y-15045652D01*
X11060606Y-14940890D02*
X11070129Y-14921843D01*
X11070129Y-14921843D02*
X11089177Y-14912319D01*
X11089177Y-14912319D02*
X11117748Y-14912319D01*
X11117748Y-14912319D02*
X11136796Y-14921843D01*
X11136796Y-14921843D02*
X11146320Y-14940890D01*
X11146320Y-14940890D02*
X11146320Y-15045652D01*
X11241558Y-15045652D02*
X11241558Y-14912319D01*
X11241558Y-14931366D02*
X11251082Y-14921843D01*
X11251082Y-14921843D02*
X11270129Y-14912319D01*
X11270129Y-14912319D02*
X11298701Y-14912319D01*
X11298701Y-14912319D02*
X11317748Y-14921843D01*
X11317748Y-14921843D02*
X11327272Y-14940890D01*
X11327272Y-14940890D02*
X11327272Y-15045652D01*
X11327272Y-14940890D02*
X11336796Y-14921843D01*
X11336796Y-14921843D02*
X11355844Y-14912319D01*
X11355844Y-14912319D02*
X11384415Y-14912319D01*
X11384415Y-14912319D02*
X11403463Y-14921843D01*
X11403463Y-14921843D02*
X11412986Y-14940890D01*
X11412986Y-14940890D02*
X11412986Y-15045652D01*
X11803463Y-14836128D02*
X11632034Y-15093271D01*
X12060606Y-14845652D02*
X12079653Y-14845652D01*
X12079653Y-14845652D02*
X12098701Y-14855176D01*
X12098701Y-14855176D02*
X12108225Y-14864700D01*
X12108225Y-14864700D02*
X12117748Y-14883747D01*
X12117748Y-14883747D02*
X12127272Y-14921843D01*
X12127272Y-14921843D02*
X12127272Y-14969462D01*
X12127272Y-14969462D02*
X12117748Y-15007557D01*
X12117748Y-15007557D02*
X12108225Y-15026605D01*
X12108225Y-15026605D02*
X12098701Y-15036128D01*
X12098701Y-15036128D02*
X12079653Y-15045652D01*
X12079653Y-15045652D02*
X12060606Y-15045652D01*
X12060606Y-15045652D02*
X12041558Y-15036128D01*
X12041558Y-15036128D02*
X12032034Y-15026605D01*
X12032034Y-15026605D02*
X12022510Y-15007557D01*
X12022510Y-15007557D02*
X12012987Y-14969462D01*
X12012987Y-14969462D02*
X12012987Y-14921843D01*
X12012987Y-14921843D02*
X12022510Y-14883747D01*
X12022510Y-14883747D02*
X12032034Y-14864700D01*
X12032034Y-14864700D02*
X12041558Y-14855176D01*
X12041558Y-14855176D02*
X12060606Y-14845652D01*
X12212987Y-15026605D02*
X12222510Y-15036128D01*
X12222510Y-15036128D02*
X12212987Y-15045652D01*
X12212987Y-15045652D02*
X12203463Y-15036128D01*
X12203463Y-15036128D02*
X12212987Y-15026605D01*
X12212987Y-15026605D02*
X12212987Y-15045652D01*
X12346320Y-14845652D02*
X12365368Y-14845652D01*
X12365368Y-14845652D02*
X12384415Y-14855176D01*
X12384415Y-14855176D02*
X12393939Y-14864700D01*
X12393939Y-14864700D02*
X12403463Y-14883747D01*
X12403463Y-14883747D02*
X12412987Y-14921843D01*
X12412987Y-14921843D02*
X12412987Y-14969462D01*
X12412987Y-14969462D02*
X12403463Y-15007557D01*
X12403463Y-15007557D02*
X12393939Y-15026605D01*
X12393939Y-15026605D02*
X12384415Y-15036128D01*
X12384415Y-15036128D02*
X12365368Y-15045652D01*
X12365368Y-15045652D02*
X12346320Y-15045652D01*
X12346320Y-15045652D02*
X12327272Y-15036128D01*
X12327272Y-15036128D02*
X12317748Y-15026605D01*
X12317748Y-15026605D02*
X12308225Y-15007557D01*
X12308225Y-15007557D02*
X12298701Y-14969462D01*
X12298701Y-14969462D02*
X12298701Y-14921843D01*
X12298701Y-14921843D02*
X12308225Y-14883747D01*
X12308225Y-14883747D02*
X12317748Y-14864700D01*
X12317748Y-14864700D02*
X12327272Y-14855176D01*
X12327272Y-14855176D02*
X12346320Y-14845652D01*
X12489177Y-14864700D02*
X12498701Y-14855176D01*
X12498701Y-14855176D02*
X12517748Y-14845652D01*
X12517748Y-14845652D02*
X12565368Y-14845652D01*
X12565368Y-14845652D02*
X12584415Y-14855176D01*
X12584415Y-14855176D02*
X12593939Y-14864700D01*
X12593939Y-14864700D02*
X12603463Y-14883747D01*
X12603463Y-14883747D02*
X12603463Y-14902795D01*
X12603463Y-14902795D02*
X12593939Y-14931366D01*
X12593939Y-14931366D02*
X12479653Y-15045652D01*
X12479653Y-15045652D02*
X12603463Y-15045652D01*
X12670129Y-14845652D02*
X12793939Y-14845652D01*
X12793939Y-14845652D02*
X12727272Y-14921843D01*
X12727272Y-14921843D02*
X12755844Y-14921843D01*
X12755844Y-14921843D02*
X12774891Y-14931366D01*
X12774891Y-14931366D02*
X12784415Y-14940890D01*
X12784415Y-14940890D02*
X12793939Y-14959938D01*
X12793939Y-14959938D02*
X12793939Y-15007557D01*
X12793939Y-15007557D02*
X12784415Y-15026605D01*
X12784415Y-15026605D02*
X12774891Y-15036128D01*
X12774891Y-15036128D02*
X12755844Y-15045652D01*
X12755844Y-15045652D02*
X12698701Y-15045652D01*
X12698701Y-15045652D02*
X12679653Y-15036128D01*
X12679653Y-15036128D02*
X12670129Y-15026605D01*
X12965368Y-14845652D02*
X12927272Y-14845652D01*
X12927272Y-14845652D02*
X12908225Y-14855176D01*
X12908225Y-14855176D02*
X12898701Y-14864700D01*
X12898701Y-14864700D02*
X12879653Y-14893271D01*
X12879653Y-14893271D02*
X12870129Y-14931366D01*
X12870129Y-14931366D02*
X12870129Y-15007557D01*
X12870129Y-15007557D02*
X12879653Y-15026605D01*
X12879653Y-15026605D02*
X12889177Y-15036128D01*
X12889177Y-15036128D02*
X12908225Y-15045652D01*
X12908225Y-15045652D02*
X12946320Y-15045652D01*
X12946320Y-15045652D02*
X12965368Y-15036128D01*
X12965368Y-15036128D02*
X12974891Y-15026605D01*
X12974891Y-15026605D02*
X12984415Y-15007557D01*
X12984415Y-15007557D02*
X12984415Y-14959938D01*
X12984415Y-14959938D02*
X12974891Y-14940890D01*
X12974891Y-14940890D02*
X12965368Y-14931366D01*
X12965368Y-14931366D02*
X12946320Y-14921843D01*
X12946320Y-14921843D02*
X12908225Y-14921843D01*
X12908225Y-14921843D02*
X12889177Y-14931366D01*
X12889177Y-14931366D02*
X12879653Y-14940890D01*
X12879653Y-14940890D02*
X12870129Y-14959938D01*
X13060606Y-14845652D02*
X13060606Y-14883747D01*
X13136796Y-14845652D02*
X13136796Y-14883747D01*
X13432034Y-15121843D02*
X13422510Y-15112319D01*
X13422510Y-15112319D02*
X13403463Y-15083747D01*
X13403463Y-15083747D02*
X13393939Y-15064700D01*
X13393939Y-15064700D02*
X13384415Y-15036128D01*
X13384415Y-15036128D02*
X13374891Y-14988509D01*
X13374891Y-14988509D02*
X13374891Y-14950414D01*
X13374891Y-14950414D02*
X13384415Y-14902795D01*
X13384415Y-14902795D02*
X13393939Y-14874224D01*
X13393939Y-14874224D02*
X13403463Y-14855176D01*
X13403463Y-14855176D02*
X13422510Y-14826605D01*
X13422510Y-14826605D02*
X13432034Y-14817081D01*
X13612987Y-15045652D02*
X13498701Y-15045652D01*
X13555844Y-15045652D02*
X13555844Y-14845652D01*
X13555844Y-14845652D02*
X13536796Y-14874224D01*
X13536796Y-14874224D02*
X13517749Y-14893271D01*
X13517749Y-14893271D02*
X13498701Y-14902795D01*
X13851082Y-15045652D02*
X13851082Y-14845652D01*
X13936796Y-15045652D02*
X13936796Y-14940890D01*
X13936796Y-14940890D02*
X13927272Y-14921843D01*
X13927272Y-14921843D02*
X13908225Y-14912319D01*
X13908225Y-14912319D02*
X13879653Y-14912319D01*
X13879653Y-14912319D02*
X13860606Y-14921843D01*
X13860606Y-14921843D02*
X13851082Y-14931366D01*
X14060606Y-15045652D02*
X14041558Y-15036128D01*
X14041558Y-15036128D02*
X14032034Y-15026605D01*
X14032034Y-15026605D02*
X14022511Y-15007557D01*
X14022511Y-15007557D02*
X14022511Y-14950414D01*
X14022511Y-14950414D02*
X14032034Y-14931366D01*
X14032034Y-14931366D02*
X14041558Y-14921843D01*
X14041558Y-14921843D02*
X14060606Y-14912319D01*
X14060606Y-14912319D02*
X14089177Y-14912319D01*
X14089177Y-14912319D02*
X14108225Y-14921843D01*
X14108225Y-14921843D02*
X14117749Y-14931366D01*
X14117749Y-14931366D02*
X14127272Y-14950414D01*
X14127272Y-14950414D02*
X14127272Y-15007557D01*
X14127272Y-15007557D02*
X14117749Y-15026605D01*
X14117749Y-15026605D02*
X14108225Y-15036128D01*
X14108225Y-15036128D02*
X14089177Y-15045652D01*
X14089177Y-15045652D02*
X14060606Y-15045652D01*
X14241558Y-15045652D02*
X14222511Y-15036128D01*
X14222511Y-15036128D02*
X14212987Y-15017081D01*
X14212987Y-15017081D02*
X14212987Y-14845652D01*
X14393939Y-15036128D02*
X14374892Y-15045652D01*
X14374892Y-15045652D02*
X14336796Y-15045652D01*
X14336796Y-15045652D02*
X14317749Y-15036128D01*
X14317749Y-15036128D02*
X14308225Y-15017081D01*
X14308225Y-15017081D02*
X14308225Y-14940890D01*
X14308225Y-14940890D02*
X14317749Y-14921843D01*
X14317749Y-14921843D02*
X14336796Y-14912319D01*
X14336796Y-14912319D02*
X14374892Y-14912319D01*
X14374892Y-14912319D02*
X14393939Y-14921843D01*
X14393939Y-14921843D02*
X14403463Y-14940890D01*
X14403463Y-14940890D02*
X14403463Y-14959938D01*
X14403463Y-14959938D02*
X14308225Y-14978986D01*
X14470130Y-15121843D02*
X14479653Y-15112319D01*
X14479653Y-15112319D02*
X14498701Y-15083747D01*
X14498701Y-15083747D02*
X14508225Y-15064700D01*
X14508225Y-15064700D02*
X14517749Y-15036128D01*
X14517749Y-15036128D02*
X14527272Y-14988509D01*
X14527272Y-14988509D02*
X14527272Y-14950414D01*
X14527272Y-14950414D02*
X14517749Y-14902795D01*
X14517749Y-14902795D02*
X14508225Y-14874224D01*
X14508225Y-14874224D02*
X14498701Y-14855176D01*
X14498701Y-14855176D02*
X14479653Y-14826605D01*
X14479653Y-14826605D02*
X14470130Y-14817081D01*
D12*
X9845256Y-15246453D02*
X9845256Y-15189884D01*
X9788687Y-15189884D01*
X9788687Y-15246453D01*
X9845256Y-15246453D01*
D11*
X10155844Y-15109652D02*
X10174891Y-15109652D01*
X10174891Y-15109652D02*
X10193939Y-15119176D01*
X10193939Y-15119176D02*
X10203463Y-15128700D01*
X10203463Y-15128700D02*
X10212986Y-15147747D01*
X10212986Y-15147747D02*
X10222510Y-15185843D01*
X10222510Y-15185843D02*
X10222510Y-15233462D01*
X10222510Y-15233462D02*
X10212986Y-15271557D01*
X10212986Y-15271557D02*
X10203463Y-15290605D01*
X10203463Y-15290605D02*
X10193939Y-15300128D01*
X10193939Y-15300128D02*
X10174891Y-15309652D01*
X10174891Y-15309652D02*
X10155844Y-15309652D01*
X10155844Y-15309652D02*
X10136796Y-15300128D01*
X10136796Y-15300128D02*
X10127272Y-15290605D01*
X10127272Y-15290605D02*
X10117748Y-15271557D01*
X10117748Y-15271557D02*
X10108225Y-15233462D01*
X10108225Y-15233462D02*
X10108225Y-15185843D01*
X10108225Y-15185843D02*
X10117748Y-15147747D01*
X10117748Y-15147747D02*
X10127272Y-15128700D01*
X10127272Y-15128700D02*
X10136796Y-15119176D01*
X10136796Y-15119176D02*
X10155844Y-15109652D01*
X10308225Y-15290605D02*
X10317748Y-15300128D01*
X10317748Y-15300128D02*
X10308225Y-15309652D01*
X10308225Y-15309652D02*
X10298701Y-15300128D01*
X10298701Y-15300128D02*
X10308225Y-15290605D01*
X10308225Y-15290605D02*
X10308225Y-15309652D01*
X10432034Y-15195366D02*
X10412986Y-15185843D01*
X10412986Y-15185843D02*
X10403463Y-15176319D01*
X10403463Y-15176319D02*
X10393939Y-15157271D01*
X10393939Y-15157271D02*
X10393939Y-15147747D01*
X10393939Y-15147747D02*
X10403463Y-15128700D01*
X10403463Y-15128700D02*
X10412986Y-15119176D01*
X10412986Y-15119176D02*
X10432034Y-15109652D01*
X10432034Y-15109652D02*
X10470129Y-15109652D01*
X10470129Y-15109652D02*
X10489177Y-15119176D01*
X10489177Y-15119176D02*
X10498701Y-15128700D01*
X10498701Y-15128700D02*
X10508225Y-15147747D01*
X10508225Y-15147747D02*
X10508225Y-15157271D01*
X10508225Y-15157271D02*
X10498701Y-15176319D01*
X10498701Y-15176319D02*
X10489177Y-15185843D01*
X10489177Y-15185843D02*
X10470129Y-15195366D01*
X10470129Y-15195366D02*
X10432034Y-15195366D01*
X10432034Y-15195366D02*
X10412986Y-15204890D01*
X10412986Y-15204890D02*
X10403463Y-15214414D01*
X10403463Y-15214414D02*
X10393939Y-15233462D01*
X10393939Y-15233462D02*
X10393939Y-15271557D01*
X10393939Y-15271557D02*
X10403463Y-15290605D01*
X10403463Y-15290605D02*
X10412986Y-15300128D01*
X10412986Y-15300128D02*
X10432034Y-15309652D01*
X10432034Y-15309652D02*
X10470129Y-15309652D01*
X10470129Y-15309652D02*
X10489177Y-15300128D01*
X10489177Y-15300128D02*
X10498701Y-15290605D01*
X10498701Y-15290605D02*
X10508225Y-15271557D01*
X10508225Y-15271557D02*
X10508225Y-15233462D01*
X10508225Y-15233462D02*
X10498701Y-15214414D01*
X10498701Y-15214414D02*
X10489177Y-15204890D01*
X10489177Y-15204890D02*
X10470129Y-15195366D01*
X10632034Y-15109652D02*
X10651082Y-15109652D01*
X10651082Y-15109652D02*
X10670129Y-15119176D01*
X10670129Y-15119176D02*
X10679653Y-15128700D01*
X10679653Y-15128700D02*
X10689177Y-15147747D01*
X10689177Y-15147747D02*
X10698701Y-15185843D01*
X10698701Y-15185843D02*
X10698701Y-15233462D01*
X10698701Y-15233462D02*
X10689177Y-15271557D01*
X10689177Y-15271557D02*
X10679653Y-15290605D01*
X10679653Y-15290605D02*
X10670129Y-15300128D01*
X10670129Y-15300128D02*
X10651082Y-15309652D01*
X10651082Y-15309652D02*
X10632034Y-15309652D01*
X10632034Y-15309652D02*
X10612986Y-15300128D01*
X10612986Y-15300128D02*
X10603463Y-15290605D01*
X10603463Y-15290605D02*
X10593939Y-15271557D01*
X10593939Y-15271557D02*
X10584415Y-15233462D01*
X10584415Y-15233462D02*
X10584415Y-15185843D01*
X10584415Y-15185843D02*
X10593939Y-15147747D01*
X10593939Y-15147747D02*
X10603463Y-15128700D01*
X10603463Y-15128700D02*
X10612986Y-15119176D01*
X10612986Y-15119176D02*
X10632034Y-15109652D01*
X10822510Y-15109652D02*
X10841558Y-15109652D01*
X10841558Y-15109652D02*
X10860606Y-15119176D01*
X10860606Y-15119176D02*
X10870129Y-15128700D01*
X10870129Y-15128700D02*
X10879653Y-15147747D01*
X10879653Y-15147747D02*
X10889177Y-15185843D01*
X10889177Y-15185843D02*
X10889177Y-15233462D01*
X10889177Y-15233462D02*
X10879653Y-15271557D01*
X10879653Y-15271557D02*
X10870129Y-15290605D01*
X10870129Y-15290605D02*
X10860606Y-15300128D01*
X10860606Y-15300128D02*
X10841558Y-15309652D01*
X10841558Y-15309652D02*
X10822510Y-15309652D01*
X10822510Y-15309652D02*
X10803463Y-15300128D01*
X10803463Y-15300128D02*
X10793939Y-15290605D01*
X10793939Y-15290605D02*
X10784415Y-15271557D01*
X10784415Y-15271557D02*
X10774891Y-15233462D01*
X10774891Y-15233462D02*
X10774891Y-15185843D01*
X10774891Y-15185843D02*
X10784415Y-15147747D01*
X10784415Y-15147747D02*
X10793939Y-15128700D01*
X10793939Y-15128700D02*
X10803463Y-15119176D01*
X10803463Y-15119176D02*
X10822510Y-15109652D01*
X10974891Y-15309652D02*
X10974891Y-15176319D01*
X10974891Y-15195366D02*
X10984415Y-15185843D01*
X10984415Y-15185843D02*
X11003463Y-15176319D01*
X11003463Y-15176319D02*
X11032034Y-15176319D01*
X11032034Y-15176319D02*
X11051082Y-15185843D01*
X11051082Y-15185843D02*
X11060606Y-15204890D01*
X11060606Y-15204890D02*
X11060606Y-15309652D01*
X11060606Y-15204890D02*
X11070129Y-15185843D01*
X11070129Y-15185843D02*
X11089177Y-15176319D01*
X11089177Y-15176319D02*
X11117748Y-15176319D01*
X11117748Y-15176319D02*
X11136796Y-15185843D01*
X11136796Y-15185843D02*
X11146320Y-15204890D01*
X11146320Y-15204890D02*
X11146320Y-15309652D01*
X11241558Y-15309652D02*
X11241558Y-15176319D01*
X11241558Y-15195366D02*
X11251082Y-15185843D01*
X11251082Y-15185843D02*
X11270129Y-15176319D01*
X11270129Y-15176319D02*
X11298701Y-15176319D01*
X11298701Y-15176319D02*
X11317748Y-15185843D01*
X11317748Y-15185843D02*
X11327272Y-15204890D01*
X11327272Y-15204890D02*
X11327272Y-15309652D01*
X11327272Y-15204890D02*
X11336796Y-15185843D01*
X11336796Y-15185843D02*
X11355844Y-15176319D01*
X11355844Y-15176319D02*
X11384415Y-15176319D01*
X11384415Y-15176319D02*
X11403463Y-15185843D01*
X11403463Y-15185843D02*
X11412986Y-15204890D01*
X11412986Y-15204890D02*
X11412986Y-15309652D01*
X11803463Y-15100128D02*
X11632034Y-15357271D01*
X12060606Y-15109652D02*
X12079653Y-15109652D01*
X12079653Y-15109652D02*
X12098701Y-15119176D01*
X12098701Y-15119176D02*
X12108225Y-15128700D01*
X12108225Y-15128700D02*
X12117748Y-15147747D01*
X12117748Y-15147747D02*
X12127272Y-15185843D01*
X12127272Y-15185843D02*
X12127272Y-15233462D01*
X12127272Y-15233462D02*
X12117748Y-15271557D01*
X12117748Y-15271557D02*
X12108225Y-15290605D01*
X12108225Y-15290605D02*
X12098701Y-15300128D01*
X12098701Y-15300128D02*
X12079653Y-15309652D01*
X12079653Y-15309652D02*
X12060606Y-15309652D01*
X12060606Y-15309652D02*
X12041558Y-15300128D01*
X12041558Y-15300128D02*
X12032034Y-15290605D01*
X12032034Y-15290605D02*
X12022510Y-15271557D01*
X12022510Y-15271557D02*
X12012987Y-15233462D01*
X12012987Y-15233462D02*
X12012987Y-15185843D01*
X12012987Y-15185843D02*
X12022510Y-15147747D01*
X12022510Y-15147747D02*
X12032034Y-15128700D01*
X12032034Y-15128700D02*
X12041558Y-15119176D01*
X12041558Y-15119176D02*
X12060606Y-15109652D01*
X12212987Y-15290605D02*
X12222510Y-15300128D01*
X12222510Y-15300128D02*
X12212987Y-15309652D01*
X12212987Y-15309652D02*
X12203463Y-15300128D01*
X12203463Y-15300128D02*
X12212987Y-15290605D01*
X12212987Y-15290605D02*
X12212987Y-15309652D01*
X12346320Y-15109652D02*
X12365368Y-15109652D01*
X12365368Y-15109652D02*
X12384415Y-15119176D01*
X12384415Y-15119176D02*
X12393939Y-15128700D01*
X12393939Y-15128700D02*
X12403463Y-15147747D01*
X12403463Y-15147747D02*
X12412987Y-15185843D01*
X12412987Y-15185843D02*
X12412987Y-15233462D01*
X12412987Y-15233462D02*
X12403463Y-15271557D01*
X12403463Y-15271557D02*
X12393939Y-15290605D01*
X12393939Y-15290605D02*
X12384415Y-15300128D01*
X12384415Y-15300128D02*
X12365368Y-15309652D01*
X12365368Y-15309652D02*
X12346320Y-15309652D01*
X12346320Y-15309652D02*
X12327272Y-15300128D01*
X12327272Y-15300128D02*
X12317748Y-15290605D01*
X12317748Y-15290605D02*
X12308225Y-15271557D01*
X12308225Y-15271557D02*
X12298701Y-15233462D01*
X12298701Y-15233462D02*
X12298701Y-15185843D01*
X12298701Y-15185843D02*
X12308225Y-15147747D01*
X12308225Y-15147747D02*
X12317748Y-15128700D01*
X12317748Y-15128700D02*
X12327272Y-15119176D01*
X12327272Y-15119176D02*
X12346320Y-15109652D01*
X12479653Y-15109652D02*
X12603463Y-15109652D01*
X12603463Y-15109652D02*
X12536796Y-15185843D01*
X12536796Y-15185843D02*
X12565368Y-15185843D01*
X12565368Y-15185843D02*
X12584415Y-15195366D01*
X12584415Y-15195366D02*
X12593939Y-15204890D01*
X12593939Y-15204890D02*
X12603463Y-15223938D01*
X12603463Y-15223938D02*
X12603463Y-15271557D01*
X12603463Y-15271557D02*
X12593939Y-15290605D01*
X12593939Y-15290605D02*
X12584415Y-15300128D01*
X12584415Y-15300128D02*
X12565368Y-15309652D01*
X12565368Y-15309652D02*
X12508225Y-15309652D01*
X12508225Y-15309652D02*
X12489177Y-15300128D01*
X12489177Y-15300128D02*
X12479653Y-15290605D01*
X12793939Y-15309652D02*
X12679653Y-15309652D01*
X12736796Y-15309652D02*
X12736796Y-15109652D01*
X12736796Y-15109652D02*
X12717748Y-15138224D01*
X12717748Y-15138224D02*
X12698701Y-15157271D01*
X12698701Y-15157271D02*
X12679653Y-15166795D01*
X12974891Y-15109652D02*
X12879653Y-15109652D01*
X12879653Y-15109652D02*
X12870129Y-15204890D01*
X12870129Y-15204890D02*
X12879653Y-15195366D01*
X12879653Y-15195366D02*
X12898701Y-15185843D01*
X12898701Y-15185843D02*
X12946320Y-15185843D01*
X12946320Y-15185843D02*
X12965368Y-15195366D01*
X12965368Y-15195366D02*
X12974891Y-15204890D01*
X12974891Y-15204890D02*
X12984415Y-15223938D01*
X12984415Y-15223938D02*
X12984415Y-15271557D01*
X12984415Y-15271557D02*
X12974891Y-15290605D01*
X12974891Y-15290605D02*
X12965368Y-15300128D01*
X12965368Y-15300128D02*
X12946320Y-15309652D01*
X12946320Y-15309652D02*
X12898701Y-15309652D01*
X12898701Y-15309652D02*
X12879653Y-15300128D01*
X12879653Y-15300128D02*
X12870129Y-15290605D01*
X13060606Y-15109652D02*
X13060606Y-15147747D01*
X13136796Y-15109652D02*
X13136796Y-15147747D01*
X13432034Y-15385843D02*
X13422510Y-15376319D01*
X13422510Y-15376319D02*
X13403463Y-15347747D01*
X13403463Y-15347747D02*
X13393939Y-15328700D01*
X13393939Y-15328700D02*
X13384415Y-15300128D01*
X13384415Y-15300128D02*
X13374891Y-15252509D01*
X13374891Y-15252509D02*
X13374891Y-15214414D01*
X13374891Y-15214414D02*
X13384415Y-15166795D01*
X13384415Y-15166795D02*
X13393939Y-15138224D01*
X13393939Y-15138224D02*
X13403463Y-15119176D01*
X13403463Y-15119176D02*
X13422510Y-15090605D01*
X13422510Y-15090605D02*
X13432034Y-15081081D01*
X13593939Y-15109652D02*
X13555844Y-15109652D01*
X13555844Y-15109652D02*
X13536796Y-15119176D01*
X13536796Y-15119176D02*
X13527272Y-15128700D01*
X13527272Y-15128700D02*
X13508225Y-15157271D01*
X13508225Y-15157271D02*
X13498701Y-15195366D01*
X13498701Y-15195366D02*
X13498701Y-15271557D01*
X13498701Y-15271557D02*
X13508225Y-15290605D01*
X13508225Y-15290605D02*
X13517749Y-15300128D01*
X13517749Y-15300128D02*
X13536796Y-15309652D01*
X13536796Y-15309652D02*
X13574891Y-15309652D01*
X13574891Y-15309652D02*
X13593939Y-15300128D01*
X13593939Y-15300128D02*
X13603463Y-15290605D01*
X13603463Y-15290605D02*
X13612987Y-15271557D01*
X13612987Y-15271557D02*
X13612987Y-15223938D01*
X13612987Y-15223938D02*
X13603463Y-15204890D01*
X13603463Y-15204890D02*
X13593939Y-15195366D01*
X13593939Y-15195366D02*
X13574891Y-15185843D01*
X13574891Y-15185843D02*
X13536796Y-15185843D01*
X13536796Y-15185843D02*
X13517749Y-15195366D01*
X13517749Y-15195366D02*
X13508225Y-15204890D01*
X13508225Y-15204890D02*
X13498701Y-15223938D01*
X13689177Y-15128700D02*
X13698701Y-15119176D01*
X13698701Y-15119176D02*
X13717749Y-15109652D01*
X13717749Y-15109652D02*
X13765368Y-15109652D01*
X13765368Y-15109652D02*
X13784415Y-15119176D01*
X13784415Y-15119176D02*
X13793939Y-15128700D01*
X13793939Y-15128700D02*
X13803463Y-15147747D01*
X13803463Y-15147747D02*
X13803463Y-15166795D01*
X13803463Y-15166795D02*
X13793939Y-15195366D01*
X13793939Y-15195366D02*
X13679653Y-15309652D01*
X13679653Y-15309652D02*
X13803463Y-15309652D01*
X14041558Y-15309652D02*
X14041558Y-15109652D01*
X14127272Y-15309652D02*
X14127272Y-15204890D01*
X14127272Y-15204890D02*
X14117749Y-15185843D01*
X14117749Y-15185843D02*
X14098701Y-15176319D01*
X14098701Y-15176319D02*
X14070130Y-15176319D01*
X14070130Y-15176319D02*
X14051082Y-15185843D01*
X14051082Y-15185843D02*
X14041558Y-15195366D01*
X14251082Y-15309652D02*
X14232034Y-15300128D01*
X14232034Y-15300128D02*
X14222511Y-15290605D01*
X14222511Y-15290605D02*
X14212987Y-15271557D01*
X14212987Y-15271557D02*
X14212987Y-15214414D01*
X14212987Y-15214414D02*
X14222511Y-15195366D01*
X14222511Y-15195366D02*
X14232034Y-15185843D01*
X14232034Y-15185843D02*
X14251082Y-15176319D01*
X14251082Y-15176319D02*
X14279653Y-15176319D01*
X14279653Y-15176319D02*
X14298701Y-15185843D01*
X14298701Y-15185843D02*
X14308225Y-15195366D01*
X14308225Y-15195366D02*
X14317749Y-15214414D01*
X14317749Y-15214414D02*
X14317749Y-15271557D01*
X14317749Y-15271557D02*
X14308225Y-15290605D01*
X14308225Y-15290605D02*
X14298701Y-15300128D01*
X14298701Y-15300128D02*
X14279653Y-15309652D01*
X14279653Y-15309652D02*
X14251082Y-15309652D01*
X14432034Y-15309652D02*
X14412987Y-15300128D01*
X14412987Y-15300128D02*
X14403463Y-15281081D01*
X14403463Y-15281081D02*
X14403463Y-15109652D01*
X14584415Y-15300128D02*
X14565368Y-15309652D01*
X14565368Y-15309652D02*
X14527272Y-15309652D01*
X14527272Y-15309652D02*
X14508225Y-15300128D01*
X14508225Y-15300128D02*
X14498701Y-15281081D01*
X14498701Y-15281081D02*
X14498701Y-15204890D01*
X14498701Y-15204890D02*
X14508225Y-15185843D01*
X14508225Y-15185843D02*
X14527272Y-15176319D01*
X14527272Y-15176319D02*
X14565368Y-15176319D01*
X14565368Y-15176319D02*
X14584415Y-15185843D01*
X14584415Y-15185843D02*
X14593939Y-15204890D01*
X14593939Y-15204890D02*
X14593939Y-15223938D01*
X14593939Y-15223938D02*
X14498701Y-15242986D01*
X14670130Y-15300128D02*
X14689177Y-15309652D01*
X14689177Y-15309652D02*
X14727272Y-15309652D01*
X14727272Y-15309652D02*
X14746320Y-15300128D01*
X14746320Y-15300128D02*
X14755844Y-15281081D01*
X14755844Y-15281081D02*
X14755844Y-15271557D01*
X14755844Y-15271557D02*
X14746320Y-15252509D01*
X14746320Y-15252509D02*
X14727272Y-15242986D01*
X14727272Y-15242986D02*
X14698701Y-15242986D01*
X14698701Y-15242986D02*
X14679653Y-15233462D01*
X14679653Y-15233462D02*
X14670130Y-15214414D01*
X14670130Y-15214414D02*
X14670130Y-15204890D01*
X14670130Y-15204890D02*
X14679653Y-15185843D01*
X14679653Y-15185843D02*
X14698701Y-15176319D01*
X14698701Y-15176319D02*
X14727272Y-15176319D01*
X14727272Y-15176319D02*
X14746320Y-15185843D01*
X14822511Y-15385843D02*
X14832034Y-15376319D01*
X14832034Y-15376319D02*
X14851082Y-15347747D01*
X14851082Y-15347747D02*
X14860606Y-15328700D01*
X14860606Y-15328700D02*
X14870130Y-15300128D01*
X14870130Y-15300128D02*
X14879653Y-15252509D01*
X14879653Y-15252509D02*
X14879653Y-15214414D01*
X14879653Y-15214414D02*
X14870130Y-15166795D01*
X14870130Y-15166795D02*
X14860606Y-15138224D01*
X14860606Y-15138224D02*
X14851082Y-15119176D01*
X14851082Y-15119176D02*
X14832034Y-15090605D01*
X14832034Y-15090605D02*
X14822511Y-15081081D01*
D12*
X9806972Y-15532168D02*
X9856972Y-15482168D01*
X9806972Y-15432168D01*
X9756972Y-15482168D01*
X9806972Y-15532168D01*
D11*
X10222510Y-15573652D02*
X10108225Y-15573652D01*
X10165367Y-15573652D02*
X10165367Y-15373652D01*
X10165367Y-15373652D02*
X10146320Y-15402224D01*
X10146320Y-15402224D02*
X10127272Y-15421271D01*
X10127272Y-15421271D02*
X10108225Y-15430795D01*
X10308225Y-15554605D02*
X10317748Y-15564128D01*
X10317748Y-15564128D02*
X10308225Y-15573652D01*
X10308225Y-15573652D02*
X10298701Y-15564128D01*
X10298701Y-15564128D02*
X10308225Y-15554605D01*
X10308225Y-15554605D02*
X10308225Y-15573652D01*
X10441558Y-15373652D02*
X10460606Y-15373652D01*
X10460606Y-15373652D02*
X10479653Y-15383176D01*
X10479653Y-15383176D02*
X10489177Y-15392700D01*
X10489177Y-15392700D02*
X10498701Y-15411747D01*
X10498701Y-15411747D02*
X10508225Y-15449843D01*
X10508225Y-15449843D02*
X10508225Y-15497462D01*
X10508225Y-15497462D02*
X10498701Y-15535557D01*
X10498701Y-15535557D02*
X10489177Y-15554605D01*
X10489177Y-15554605D02*
X10479653Y-15564128D01*
X10479653Y-15564128D02*
X10460606Y-15573652D01*
X10460606Y-15573652D02*
X10441558Y-15573652D01*
X10441558Y-15573652D02*
X10422510Y-15564128D01*
X10422510Y-15564128D02*
X10412986Y-15554605D01*
X10412986Y-15554605D02*
X10403463Y-15535557D01*
X10403463Y-15535557D02*
X10393939Y-15497462D01*
X10393939Y-15497462D02*
X10393939Y-15449843D01*
X10393939Y-15449843D02*
X10403463Y-15411747D01*
X10403463Y-15411747D02*
X10412986Y-15392700D01*
X10412986Y-15392700D02*
X10422510Y-15383176D01*
X10422510Y-15383176D02*
X10441558Y-15373652D01*
X10632034Y-15373652D02*
X10651082Y-15373652D01*
X10651082Y-15373652D02*
X10670129Y-15383176D01*
X10670129Y-15383176D02*
X10679653Y-15392700D01*
X10679653Y-15392700D02*
X10689177Y-15411747D01*
X10689177Y-15411747D02*
X10698701Y-15449843D01*
X10698701Y-15449843D02*
X10698701Y-15497462D01*
X10698701Y-15497462D02*
X10689177Y-15535557D01*
X10689177Y-15535557D02*
X10679653Y-15554605D01*
X10679653Y-15554605D02*
X10670129Y-15564128D01*
X10670129Y-15564128D02*
X10651082Y-15573652D01*
X10651082Y-15573652D02*
X10632034Y-15573652D01*
X10632034Y-15573652D02*
X10612986Y-15564128D01*
X10612986Y-15564128D02*
X10603463Y-15554605D01*
X10603463Y-15554605D02*
X10593939Y-15535557D01*
X10593939Y-15535557D02*
X10584415Y-15497462D01*
X10584415Y-15497462D02*
X10584415Y-15449843D01*
X10584415Y-15449843D02*
X10593939Y-15411747D01*
X10593939Y-15411747D02*
X10603463Y-15392700D01*
X10603463Y-15392700D02*
X10612986Y-15383176D01*
X10612986Y-15383176D02*
X10632034Y-15373652D01*
X10822510Y-15373652D02*
X10841558Y-15373652D01*
X10841558Y-15373652D02*
X10860606Y-15383176D01*
X10860606Y-15383176D02*
X10870129Y-15392700D01*
X10870129Y-15392700D02*
X10879653Y-15411747D01*
X10879653Y-15411747D02*
X10889177Y-15449843D01*
X10889177Y-15449843D02*
X10889177Y-15497462D01*
X10889177Y-15497462D02*
X10879653Y-15535557D01*
X10879653Y-15535557D02*
X10870129Y-15554605D01*
X10870129Y-15554605D02*
X10860606Y-15564128D01*
X10860606Y-15564128D02*
X10841558Y-15573652D01*
X10841558Y-15573652D02*
X10822510Y-15573652D01*
X10822510Y-15573652D02*
X10803463Y-15564128D01*
X10803463Y-15564128D02*
X10793939Y-15554605D01*
X10793939Y-15554605D02*
X10784415Y-15535557D01*
X10784415Y-15535557D02*
X10774891Y-15497462D01*
X10774891Y-15497462D02*
X10774891Y-15449843D01*
X10774891Y-15449843D02*
X10784415Y-15411747D01*
X10784415Y-15411747D02*
X10793939Y-15392700D01*
X10793939Y-15392700D02*
X10803463Y-15383176D01*
X10803463Y-15383176D02*
X10822510Y-15373652D01*
X10974891Y-15573652D02*
X10974891Y-15440319D01*
X10974891Y-15459366D02*
X10984415Y-15449843D01*
X10984415Y-15449843D02*
X11003463Y-15440319D01*
X11003463Y-15440319D02*
X11032034Y-15440319D01*
X11032034Y-15440319D02*
X11051082Y-15449843D01*
X11051082Y-15449843D02*
X11060606Y-15468890D01*
X11060606Y-15468890D02*
X11060606Y-15573652D01*
X11060606Y-15468890D02*
X11070129Y-15449843D01*
X11070129Y-15449843D02*
X11089177Y-15440319D01*
X11089177Y-15440319D02*
X11117748Y-15440319D01*
X11117748Y-15440319D02*
X11136796Y-15449843D01*
X11136796Y-15449843D02*
X11146320Y-15468890D01*
X11146320Y-15468890D02*
X11146320Y-15573652D01*
X11241558Y-15573652D02*
X11241558Y-15440319D01*
X11241558Y-15459366D02*
X11251082Y-15449843D01*
X11251082Y-15449843D02*
X11270129Y-15440319D01*
X11270129Y-15440319D02*
X11298701Y-15440319D01*
X11298701Y-15440319D02*
X11317748Y-15449843D01*
X11317748Y-15449843D02*
X11327272Y-15468890D01*
X11327272Y-15468890D02*
X11327272Y-15573652D01*
X11327272Y-15468890D02*
X11336796Y-15449843D01*
X11336796Y-15449843D02*
X11355844Y-15440319D01*
X11355844Y-15440319D02*
X11384415Y-15440319D01*
X11384415Y-15440319D02*
X11403463Y-15449843D01*
X11403463Y-15449843D02*
X11412986Y-15468890D01*
X11412986Y-15468890D02*
X11412986Y-15573652D01*
X11803463Y-15364128D02*
X11632034Y-15621271D01*
X12060606Y-15373652D02*
X12079653Y-15373652D01*
X12079653Y-15373652D02*
X12098701Y-15383176D01*
X12098701Y-15383176D02*
X12108225Y-15392700D01*
X12108225Y-15392700D02*
X12117748Y-15411747D01*
X12117748Y-15411747D02*
X12127272Y-15449843D01*
X12127272Y-15449843D02*
X12127272Y-15497462D01*
X12127272Y-15497462D02*
X12117748Y-15535557D01*
X12117748Y-15535557D02*
X12108225Y-15554605D01*
X12108225Y-15554605D02*
X12098701Y-15564128D01*
X12098701Y-15564128D02*
X12079653Y-15573652D01*
X12079653Y-15573652D02*
X12060606Y-15573652D01*
X12060606Y-15573652D02*
X12041558Y-15564128D01*
X12041558Y-15564128D02*
X12032034Y-15554605D01*
X12032034Y-15554605D02*
X12022510Y-15535557D01*
X12022510Y-15535557D02*
X12012987Y-15497462D01*
X12012987Y-15497462D02*
X12012987Y-15449843D01*
X12012987Y-15449843D02*
X12022510Y-15411747D01*
X12022510Y-15411747D02*
X12032034Y-15392700D01*
X12032034Y-15392700D02*
X12041558Y-15383176D01*
X12041558Y-15383176D02*
X12060606Y-15373652D01*
X12212987Y-15554605D02*
X12222510Y-15564128D01*
X12222510Y-15564128D02*
X12212987Y-15573652D01*
X12212987Y-15573652D02*
X12203463Y-15564128D01*
X12203463Y-15564128D02*
X12212987Y-15554605D01*
X12212987Y-15554605D02*
X12212987Y-15573652D01*
X12346320Y-15373652D02*
X12365368Y-15373652D01*
X12365368Y-15373652D02*
X12384415Y-15383176D01*
X12384415Y-15383176D02*
X12393939Y-15392700D01*
X12393939Y-15392700D02*
X12403463Y-15411747D01*
X12403463Y-15411747D02*
X12412987Y-15449843D01*
X12412987Y-15449843D02*
X12412987Y-15497462D01*
X12412987Y-15497462D02*
X12403463Y-15535557D01*
X12403463Y-15535557D02*
X12393939Y-15554605D01*
X12393939Y-15554605D02*
X12384415Y-15564128D01*
X12384415Y-15564128D02*
X12365368Y-15573652D01*
X12365368Y-15573652D02*
X12346320Y-15573652D01*
X12346320Y-15573652D02*
X12327272Y-15564128D01*
X12327272Y-15564128D02*
X12317748Y-15554605D01*
X12317748Y-15554605D02*
X12308225Y-15535557D01*
X12308225Y-15535557D02*
X12298701Y-15497462D01*
X12298701Y-15497462D02*
X12298701Y-15449843D01*
X12298701Y-15449843D02*
X12308225Y-15411747D01*
X12308225Y-15411747D02*
X12317748Y-15392700D01*
X12317748Y-15392700D02*
X12327272Y-15383176D01*
X12327272Y-15383176D02*
X12346320Y-15373652D01*
X12479653Y-15373652D02*
X12603463Y-15373652D01*
X12603463Y-15373652D02*
X12536796Y-15449843D01*
X12536796Y-15449843D02*
X12565368Y-15449843D01*
X12565368Y-15449843D02*
X12584415Y-15459366D01*
X12584415Y-15459366D02*
X12593939Y-15468890D01*
X12593939Y-15468890D02*
X12603463Y-15487938D01*
X12603463Y-15487938D02*
X12603463Y-15535557D01*
X12603463Y-15535557D02*
X12593939Y-15554605D01*
X12593939Y-15554605D02*
X12584415Y-15564128D01*
X12584415Y-15564128D02*
X12565368Y-15573652D01*
X12565368Y-15573652D02*
X12508225Y-15573652D01*
X12508225Y-15573652D02*
X12489177Y-15564128D01*
X12489177Y-15564128D02*
X12479653Y-15554605D01*
X12698701Y-15573652D02*
X12736796Y-15573652D01*
X12736796Y-15573652D02*
X12755844Y-15564128D01*
X12755844Y-15564128D02*
X12765368Y-15554605D01*
X12765368Y-15554605D02*
X12784415Y-15526033D01*
X12784415Y-15526033D02*
X12793939Y-15487938D01*
X12793939Y-15487938D02*
X12793939Y-15411747D01*
X12793939Y-15411747D02*
X12784415Y-15392700D01*
X12784415Y-15392700D02*
X12774891Y-15383176D01*
X12774891Y-15383176D02*
X12755844Y-15373652D01*
X12755844Y-15373652D02*
X12717748Y-15373652D01*
X12717748Y-15373652D02*
X12698701Y-15383176D01*
X12698701Y-15383176D02*
X12689177Y-15392700D01*
X12689177Y-15392700D02*
X12679653Y-15411747D01*
X12679653Y-15411747D02*
X12679653Y-15459366D01*
X12679653Y-15459366D02*
X12689177Y-15478414D01*
X12689177Y-15478414D02*
X12698701Y-15487938D01*
X12698701Y-15487938D02*
X12717748Y-15497462D01*
X12717748Y-15497462D02*
X12755844Y-15497462D01*
X12755844Y-15497462D02*
X12774891Y-15487938D01*
X12774891Y-15487938D02*
X12784415Y-15478414D01*
X12784415Y-15478414D02*
X12793939Y-15459366D01*
X12965368Y-15440319D02*
X12965368Y-15573652D01*
X12917748Y-15364128D02*
X12870129Y-15506986D01*
X12870129Y-15506986D02*
X12993939Y-15506986D01*
X13060606Y-15373652D02*
X13060606Y-15411747D01*
X13136796Y-15373652D02*
X13136796Y-15411747D01*
X13432034Y-15649843D02*
X13422510Y-15640319D01*
X13422510Y-15640319D02*
X13403463Y-15611747D01*
X13403463Y-15611747D02*
X13393939Y-15592700D01*
X13393939Y-15592700D02*
X13384415Y-15564128D01*
X13384415Y-15564128D02*
X13374891Y-15516509D01*
X13374891Y-15516509D02*
X13374891Y-15478414D01*
X13374891Y-15478414D02*
X13384415Y-15430795D01*
X13384415Y-15430795D02*
X13393939Y-15402224D01*
X13393939Y-15402224D02*
X13403463Y-15383176D01*
X13403463Y-15383176D02*
X13422510Y-15354605D01*
X13422510Y-15354605D02*
X13432034Y-15345081D01*
X13489177Y-15373652D02*
X13622510Y-15373652D01*
X13622510Y-15373652D02*
X13536796Y-15573652D01*
X13803463Y-15573652D02*
X13689177Y-15573652D01*
X13746320Y-15573652D02*
X13746320Y-15373652D01*
X13746320Y-15373652D02*
X13727272Y-15402224D01*
X13727272Y-15402224D02*
X13708225Y-15421271D01*
X13708225Y-15421271D02*
X13689177Y-15430795D01*
X14041558Y-15573652D02*
X14041558Y-15373652D01*
X14127272Y-15573652D02*
X14127272Y-15468890D01*
X14127272Y-15468890D02*
X14117749Y-15449843D01*
X14117749Y-15449843D02*
X14098701Y-15440319D01*
X14098701Y-15440319D02*
X14070130Y-15440319D01*
X14070130Y-15440319D02*
X14051082Y-15449843D01*
X14051082Y-15449843D02*
X14041558Y-15459366D01*
X14251082Y-15573652D02*
X14232034Y-15564128D01*
X14232034Y-15564128D02*
X14222511Y-15554605D01*
X14222511Y-15554605D02*
X14212987Y-15535557D01*
X14212987Y-15535557D02*
X14212987Y-15478414D01*
X14212987Y-15478414D02*
X14222511Y-15459366D01*
X14222511Y-15459366D02*
X14232034Y-15449843D01*
X14232034Y-15449843D02*
X14251082Y-15440319D01*
X14251082Y-15440319D02*
X14279653Y-15440319D01*
X14279653Y-15440319D02*
X14298701Y-15449843D01*
X14298701Y-15449843D02*
X14308225Y-15459366D01*
X14308225Y-15459366D02*
X14317749Y-15478414D01*
X14317749Y-15478414D02*
X14317749Y-15535557D01*
X14317749Y-15535557D02*
X14308225Y-15554605D01*
X14308225Y-15554605D02*
X14298701Y-15564128D01*
X14298701Y-15564128D02*
X14279653Y-15573652D01*
X14279653Y-15573652D02*
X14251082Y-15573652D01*
X14432034Y-15573652D02*
X14412987Y-15564128D01*
X14412987Y-15564128D02*
X14403463Y-15545081D01*
X14403463Y-15545081D02*
X14403463Y-15373652D01*
X14584415Y-15564128D02*
X14565368Y-15573652D01*
X14565368Y-15573652D02*
X14527272Y-15573652D01*
X14527272Y-15573652D02*
X14508225Y-15564128D01*
X14508225Y-15564128D02*
X14498701Y-15545081D01*
X14498701Y-15545081D02*
X14498701Y-15468890D01*
X14498701Y-15468890D02*
X14508225Y-15449843D01*
X14508225Y-15449843D02*
X14527272Y-15440319D01*
X14527272Y-15440319D02*
X14565368Y-15440319D01*
X14565368Y-15440319D02*
X14584415Y-15449843D01*
X14584415Y-15449843D02*
X14593939Y-15468890D01*
X14593939Y-15468890D02*
X14593939Y-15487938D01*
X14593939Y-15487938D02*
X14498701Y-15506986D01*
X14670130Y-15564128D02*
X14689177Y-15573652D01*
X14689177Y-15573652D02*
X14727272Y-15573652D01*
X14727272Y-15573652D02*
X14746320Y-15564128D01*
X14746320Y-15564128D02*
X14755844Y-15545081D01*
X14755844Y-15545081D02*
X14755844Y-15535557D01*
X14755844Y-15535557D02*
X14746320Y-15516509D01*
X14746320Y-15516509D02*
X14727272Y-15506986D01*
X14727272Y-15506986D02*
X14698701Y-15506986D01*
X14698701Y-15506986D02*
X14679653Y-15497462D01*
X14679653Y-15497462D02*
X14670130Y-15478414D01*
X14670130Y-15478414D02*
X14670130Y-15468890D01*
X14670130Y-15468890D02*
X14679653Y-15449843D01*
X14679653Y-15449843D02*
X14698701Y-15440319D01*
X14698701Y-15440319D02*
X14727272Y-15440319D01*
X14727272Y-15440319D02*
X14746320Y-15449843D01*
X14993939Y-15497462D02*
X15146320Y-15497462D01*
X15070130Y-15573652D02*
X15070130Y-15421271D01*
X15374892Y-15373652D02*
X15498701Y-15373652D01*
X15498701Y-15373652D02*
X15432034Y-15449843D01*
X15432034Y-15449843D02*
X15460606Y-15449843D01*
X15460606Y-15449843D02*
X15479654Y-15459366D01*
X15479654Y-15459366D02*
X15489177Y-15468890D01*
X15489177Y-15468890D02*
X15498701Y-15487938D01*
X15498701Y-15487938D02*
X15498701Y-15535557D01*
X15498701Y-15535557D02*
X15489177Y-15554605D01*
X15489177Y-15554605D02*
X15479654Y-15564128D01*
X15479654Y-15564128D02*
X15460606Y-15573652D01*
X15460606Y-15573652D02*
X15403463Y-15573652D01*
X15403463Y-15573652D02*
X15384415Y-15564128D01*
X15384415Y-15564128D02*
X15374892Y-15554605D01*
X15727273Y-15564128D02*
X15746320Y-15573652D01*
X15746320Y-15573652D02*
X15784415Y-15573652D01*
X15784415Y-15573652D02*
X15803463Y-15564128D01*
X15803463Y-15564128D02*
X15812987Y-15545081D01*
X15812987Y-15545081D02*
X15812987Y-15535557D01*
X15812987Y-15535557D02*
X15803463Y-15516509D01*
X15803463Y-15516509D02*
X15784415Y-15506986D01*
X15784415Y-15506986D02*
X15755844Y-15506986D01*
X15755844Y-15506986D02*
X15736796Y-15497462D01*
X15736796Y-15497462D02*
X15727273Y-15478414D01*
X15727273Y-15478414D02*
X15727273Y-15468890D01*
X15727273Y-15468890D02*
X15736796Y-15449843D01*
X15736796Y-15449843D02*
X15755844Y-15440319D01*
X15755844Y-15440319D02*
X15784415Y-15440319D01*
X15784415Y-15440319D02*
X15803463Y-15449843D01*
X15927273Y-15573652D02*
X15908225Y-15564128D01*
X15908225Y-15564128D02*
X15898701Y-15545081D01*
X15898701Y-15545081D02*
X15898701Y-15373652D01*
X16032035Y-15573652D02*
X16012987Y-15564128D01*
X16012987Y-15564128D02*
X16003463Y-15554605D01*
X16003463Y-15554605D02*
X15993939Y-15535557D01*
X15993939Y-15535557D02*
X15993939Y-15478414D01*
X15993939Y-15478414D02*
X16003463Y-15459366D01*
X16003463Y-15459366D02*
X16012987Y-15449843D01*
X16012987Y-15449843D02*
X16032035Y-15440319D01*
X16032035Y-15440319D02*
X16060606Y-15440319D01*
X16060606Y-15440319D02*
X16079654Y-15449843D01*
X16079654Y-15449843D02*
X16089177Y-15459366D01*
X16089177Y-15459366D02*
X16098701Y-15478414D01*
X16098701Y-15478414D02*
X16098701Y-15535557D01*
X16098701Y-15535557D02*
X16089177Y-15554605D01*
X16089177Y-15554605D02*
X16079654Y-15564128D01*
X16079654Y-15564128D02*
X16060606Y-15573652D01*
X16060606Y-15573652D02*
X16032035Y-15573652D01*
X16155844Y-15440319D02*
X16232035Y-15440319D01*
X16184416Y-15373652D02*
X16184416Y-15545081D01*
X16184416Y-15545081D02*
X16193939Y-15564128D01*
X16193939Y-15564128D02*
X16212987Y-15573652D01*
X16212987Y-15573652D02*
X16232035Y-15573652D01*
X16289177Y-15564128D02*
X16308225Y-15573652D01*
X16308225Y-15573652D02*
X16346320Y-15573652D01*
X16346320Y-15573652D02*
X16365368Y-15564128D01*
X16365368Y-15564128D02*
X16374892Y-15545081D01*
X16374892Y-15545081D02*
X16374892Y-15535557D01*
X16374892Y-15535557D02*
X16365368Y-15516509D01*
X16365368Y-15516509D02*
X16346320Y-15506986D01*
X16346320Y-15506986D02*
X16317749Y-15506986D01*
X16317749Y-15506986D02*
X16298701Y-15497462D01*
X16298701Y-15497462D02*
X16289177Y-15478414D01*
X16289177Y-15478414D02*
X16289177Y-15468890D01*
X16289177Y-15468890D02*
X16298701Y-15449843D01*
X16298701Y-15449843D02*
X16317749Y-15440319D01*
X16317749Y-15440319D02*
X16346320Y-15440319D01*
X16346320Y-15440319D02*
X16365368Y-15449843D01*
X16441558Y-15649843D02*
X16451082Y-15640319D01*
X16451082Y-15640319D02*
X16470130Y-15611747D01*
X16470130Y-15611747D02*
X16479654Y-15592700D01*
X16479654Y-15592700D02*
X16489177Y-15564128D01*
X16489177Y-15564128D02*
X16498701Y-15516509D01*
X16498701Y-15516509D02*
X16498701Y-15478414D01*
X16498701Y-15478414D02*
X16489177Y-15430795D01*
X16489177Y-15430795D02*
X16479654Y-15402224D01*
X16479654Y-15402224D02*
X16470130Y-15383176D01*
X16470130Y-15383176D02*
X16451082Y-15354605D01*
X16451082Y-15354605D02*
X16441558Y-15345081D01*
D13*
X9751972Y-15693668D02*
X9856972Y-15798668D01*
X9856972Y-15693668D02*
X9751972Y-15798668D01*
X9856972Y-15746168D02*
G75*
G02*
X9751972Y-15746168I-52500J0D01*
G01*
X9751972Y-15746168D02*
G75*
G02*
X9856972Y-15746168I52500J0D01*
G01*
D11*
X10222510Y-15837652D02*
X10108225Y-15837652D01*
X10165367Y-15837652D02*
X10165367Y-15637652D01*
X10165367Y-15637652D02*
X10146320Y-15666224D01*
X10146320Y-15666224D02*
X10127272Y-15685271D01*
X10127272Y-15685271D02*
X10108225Y-15694795D01*
X10308225Y-15818605D02*
X10317748Y-15828128D01*
X10317748Y-15828128D02*
X10308225Y-15837652D01*
X10308225Y-15837652D02*
X10298701Y-15828128D01*
X10298701Y-15828128D02*
X10308225Y-15818605D01*
X10308225Y-15818605D02*
X10308225Y-15837652D01*
X10441558Y-15637652D02*
X10460606Y-15637652D01*
X10460606Y-15637652D02*
X10479653Y-15647176D01*
X10479653Y-15647176D02*
X10489177Y-15656700D01*
X10489177Y-15656700D02*
X10498701Y-15675747D01*
X10498701Y-15675747D02*
X10508225Y-15713843D01*
X10508225Y-15713843D02*
X10508225Y-15761462D01*
X10508225Y-15761462D02*
X10498701Y-15799557D01*
X10498701Y-15799557D02*
X10489177Y-15818605D01*
X10489177Y-15818605D02*
X10479653Y-15828128D01*
X10479653Y-15828128D02*
X10460606Y-15837652D01*
X10460606Y-15837652D02*
X10441558Y-15837652D01*
X10441558Y-15837652D02*
X10422510Y-15828128D01*
X10422510Y-15828128D02*
X10412986Y-15818605D01*
X10412986Y-15818605D02*
X10403463Y-15799557D01*
X10403463Y-15799557D02*
X10393939Y-15761462D01*
X10393939Y-15761462D02*
X10393939Y-15713843D01*
X10393939Y-15713843D02*
X10403463Y-15675747D01*
X10403463Y-15675747D02*
X10412986Y-15656700D01*
X10412986Y-15656700D02*
X10422510Y-15647176D01*
X10422510Y-15647176D02*
X10441558Y-15637652D01*
X10689177Y-15637652D02*
X10593939Y-15637652D01*
X10593939Y-15637652D02*
X10584415Y-15732890D01*
X10584415Y-15732890D02*
X10593939Y-15723366D01*
X10593939Y-15723366D02*
X10612986Y-15713843D01*
X10612986Y-15713843D02*
X10660606Y-15713843D01*
X10660606Y-15713843D02*
X10679653Y-15723366D01*
X10679653Y-15723366D02*
X10689177Y-15732890D01*
X10689177Y-15732890D02*
X10698701Y-15751938D01*
X10698701Y-15751938D02*
X10698701Y-15799557D01*
X10698701Y-15799557D02*
X10689177Y-15818605D01*
X10689177Y-15818605D02*
X10679653Y-15828128D01*
X10679653Y-15828128D02*
X10660606Y-15837652D01*
X10660606Y-15837652D02*
X10612986Y-15837652D01*
X10612986Y-15837652D02*
X10593939Y-15828128D01*
X10593939Y-15828128D02*
X10584415Y-15818605D01*
X10822510Y-15637652D02*
X10841558Y-15637652D01*
X10841558Y-15637652D02*
X10860606Y-15647176D01*
X10860606Y-15647176D02*
X10870129Y-15656700D01*
X10870129Y-15656700D02*
X10879653Y-15675747D01*
X10879653Y-15675747D02*
X10889177Y-15713843D01*
X10889177Y-15713843D02*
X10889177Y-15761462D01*
X10889177Y-15761462D02*
X10879653Y-15799557D01*
X10879653Y-15799557D02*
X10870129Y-15818605D01*
X10870129Y-15818605D02*
X10860606Y-15828128D01*
X10860606Y-15828128D02*
X10841558Y-15837652D01*
X10841558Y-15837652D02*
X10822510Y-15837652D01*
X10822510Y-15837652D02*
X10803463Y-15828128D01*
X10803463Y-15828128D02*
X10793939Y-15818605D01*
X10793939Y-15818605D02*
X10784415Y-15799557D01*
X10784415Y-15799557D02*
X10774891Y-15761462D01*
X10774891Y-15761462D02*
X10774891Y-15713843D01*
X10774891Y-15713843D02*
X10784415Y-15675747D01*
X10784415Y-15675747D02*
X10793939Y-15656700D01*
X10793939Y-15656700D02*
X10803463Y-15647176D01*
X10803463Y-15647176D02*
X10822510Y-15637652D01*
X10974891Y-15837652D02*
X10974891Y-15704319D01*
X10974891Y-15723366D02*
X10984415Y-15713843D01*
X10984415Y-15713843D02*
X11003463Y-15704319D01*
X11003463Y-15704319D02*
X11032034Y-15704319D01*
X11032034Y-15704319D02*
X11051082Y-15713843D01*
X11051082Y-15713843D02*
X11060606Y-15732890D01*
X11060606Y-15732890D02*
X11060606Y-15837652D01*
X11060606Y-15732890D02*
X11070129Y-15713843D01*
X11070129Y-15713843D02*
X11089177Y-15704319D01*
X11089177Y-15704319D02*
X11117748Y-15704319D01*
X11117748Y-15704319D02*
X11136796Y-15713843D01*
X11136796Y-15713843D02*
X11146320Y-15732890D01*
X11146320Y-15732890D02*
X11146320Y-15837652D01*
X11241558Y-15837652D02*
X11241558Y-15704319D01*
X11241558Y-15723366D02*
X11251082Y-15713843D01*
X11251082Y-15713843D02*
X11270129Y-15704319D01*
X11270129Y-15704319D02*
X11298701Y-15704319D01*
X11298701Y-15704319D02*
X11317748Y-15713843D01*
X11317748Y-15713843D02*
X11327272Y-15732890D01*
X11327272Y-15732890D02*
X11327272Y-15837652D01*
X11327272Y-15732890D02*
X11336796Y-15713843D01*
X11336796Y-15713843D02*
X11355844Y-15704319D01*
X11355844Y-15704319D02*
X11384415Y-15704319D01*
X11384415Y-15704319D02*
X11403463Y-15713843D01*
X11403463Y-15713843D02*
X11412986Y-15732890D01*
X11412986Y-15732890D02*
X11412986Y-15837652D01*
X11803463Y-15628128D02*
X11632034Y-15885271D01*
X12060606Y-15637652D02*
X12079653Y-15637652D01*
X12079653Y-15637652D02*
X12098701Y-15647176D01*
X12098701Y-15647176D02*
X12108225Y-15656700D01*
X12108225Y-15656700D02*
X12117748Y-15675747D01*
X12117748Y-15675747D02*
X12127272Y-15713843D01*
X12127272Y-15713843D02*
X12127272Y-15761462D01*
X12127272Y-15761462D02*
X12117748Y-15799557D01*
X12117748Y-15799557D02*
X12108225Y-15818605D01*
X12108225Y-15818605D02*
X12098701Y-15828128D01*
X12098701Y-15828128D02*
X12079653Y-15837652D01*
X12079653Y-15837652D02*
X12060606Y-15837652D01*
X12060606Y-15837652D02*
X12041558Y-15828128D01*
X12041558Y-15828128D02*
X12032034Y-15818605D01*
X12032034Y-15818605D02*
X12022510Y-15799557D01*
X12022510Y-15799557D02*
X12012987Y-15761462D01*
X12012987Y-15761462D02*
X12012987Y-15713843D01*
X12012987Y-15713843D02*
X12022510Y-15675747D01*
X12022510Y-15675747D02*
X12032034Y-15656700D01*
X12032034Y-15656700D02*
X12041558Y-15647176D01*
X12041558Y-15647176D02*
X12060606Y-15637652D01*
X12212987Y-15818605D02*
X12222510Y-15828128D01*
X12222510Y-15828128D02*
X12212987Y-15837652D01*
X12212987Y-15837652D02*
X12203463Y-15828128D01*
X12203463Y-15828128D02*
X12212987Y-15818605D01*
X12212987Y-15818605D02*
X12212987Y-15837652D01*
X12346320Y-15637652D02*
X12365368Y-15637652D01*
X12365368Y-15637652D02*
X12384415Y-15647176D01*
X12384415Y-15647176D02*
X12393939Y-15656700D01*
X12393939Y-15656700D02*
X12403463Y-15675747D01*
X12403463Y-15675747D02*
X12412987Y-15713843D01*
X12412987Y-15713843D02*
X12412987Y-15761462D01*
X12412987Y-15761462D02*
X12403463Y-15799557D01*
X12403463Y-15799557D02*
X12393939Y-15818605D01*
X12393939Y-15818605D02*
X12384415Y-15828128D01*
X12384415Y-15828128D02*
X12365368Y-15837652D01*
X12365368Y-15837652D02*
X12346320Y-15837652D01*
X12346320Y-15837652D02*
X12327272Y-15828128D01*
X12327272Y-15828128D02*
X12317748Y-15818605D01*
X12317748Y-15818605D02*
X12308225Y-15799557D01*
X12308225Y-15799557D02*
X12298701Y-15761462D01*
X12298701Y-15761462D02*
X12298701Y-15713843D01*
X12298701Y-15713843D02*
X12308225Y-15675747D01*
X12308225Y-15675747D02*
X12317748Y-15656700D01*
X12317748Y-15656700D02*
X12327272Y-15647176D01*
X12327272Y-15647176D02*
X12346320Y-15637652D01*
X12584415Y-15704319D02*
X12584415Y-15837652D01*
X12536796Y-15628128D02*
X12489177Y-15770986D01*
X12489177Y-15770986D02*
X12612987Y-15770986D01*
X12793939Y-15837652D02*
X12679653Y-15837652D01*
X12736796Y-15837652D02*
X12736796Y-15637652D01*
X12736796Y-15637652D02*
X12717748Y-15666224D01*
X12717748Y-15666224D02*
X12698701Y-15685271D01*
X12698701Y-15685271D02*
X12679653Y-15694795D01*
X12860606Y-15637652D02*
X12984415Y-15637652D01*
X12984415Y-15637652D02*
X12917748Y-15713843D01*
X12917748Y-15713843D02*
X12946320Y-15713843D01*
X12946320Y-15713843D02*
X12965368Y-15723366D01*
X12965368Y-15723366D02*
X12974891Y-15732890D01*
X12974891Y-15732890D02*
X12984415Y-15751938D01*
X12984415Y-15751938D02*
X12984415Y-15799557D01*
X12984415Y-15799557D02*
X12974891Y-15818605D01*
X12974891Y-15818605D02*
X12965368Y-15828128D01*
X12965368Y-15828128D02*
X12946320Y-15837652D01*
X12946320Y-15837652D02*
X12889177Y-15837652D01*
X12889177Y-15837652D02*
X12870129Y-15828128D01*
X12870129Y-15828128D02*
X12860606Y-15818605D01*
X13060606Y-15637652D02*
X13060606Y-15675747D01*
X13136796Y-15637652D02*
X13136796Y-15675747D01*
X13432034Y-15913843D02*
X13422510Y-15904319D01*
X13422510Y-15904319D02*
X13403463Y-15875747D01*
X13403463Y-15875747D02*
X13393939Y-15856700D01*
X13393939Y-15856700D02*
X13384415Y-15828128D01*
X13384415Y-15828128D02*
X13374891Y-15780509D01*
X13374891Y-15780509D02*
X13374891Y-15742414D01*
X13374891Y-15742414D02*
X13384415Y-15694795D01*
X13384415Y-15694795D02*
X13393939Y-15666224D01*
X13393939Y-15666224D02*
X13403463Y-15647176D01*
X13403463Y-15647176D02*
X13422510Y-15618605D01*
X13422510Y-15618605D02*
X13432034Y-15609081D01*
X13498701Y-15656700D02*
X13508225Y-15647176D01*
X13508225Y-15647176D02*
X13527272Y-15637652D01*
X13527272Y-15637652D02*
X13574891Y-15637652D01*
X13574891Y-15637652D02*
X13593939Y-15647176D01*
X13593939Y-15647176D02*
X13603463Y-15656700D01*
X13603463Y-15656700D02*
X13612987Y-15675747D01*
X13612987Y-15675747D02*
X13612987Y-15694795D01*
X13612987Y-15694795D02*
X13603463Y-15723366D01*
X13603463Y-15723366D02*
X13489177Y-15837652D01*
X13489177Y-15837652D02*
X13612987Y-15837652D01*
X13851082Y-15837652D02*
X13851082Y-15637652D01*
X13936796Y-15837652D02*
X13936796Y-15732890D01*
X13936796Y-15732890D02*
X13927272Y-15713843D01*
X13927272Y-15713843D02*
X13908225Y-15704319D01*
X13908225Y-15704319D02*
X13879653Y-15704319D01*
X13879653Y-15704319D02*
X13860606Y-15713843D01*
X13860606Y-15713843D02*
X13851082Y-15723366D01*
X14060606Y-15837652D02*
X14041558Y-15828128D01*
X14041558Y-15828128D02*
X14032034Y-15818605D01*
X14032034Y-15818605D02*
X14022511Y-15799557D01*
X14022511Y-15799557D02*
X14022511Y-15742414D01*
X14022511Y-15742414D02*
X14032034Y-15723366D01*
X14032034Y-15723366D02*
X14041558Y-15713843D01*
X14041558Y-15713843D02*
X14060606Y-15704319D01*
X14060606Y-15704319D02*
X14089177Y-15704319D01*
X14089177Y-15704319D02*
X14108225Y-15713843D01*
X14108225Y-15713843D02*
X14117749Y-15723366D01*
X14117749Y-15723366D02*
X14127272Y-15742414D01*
X14127272Y-15742414D02*
X14127272Y-15799557D01*
X14127272Y-15799557D02*
X14117749Y-15818605D01*
X14117749Y-15818605D02*
X14108225Y-15828128D01*
X14108225Y-15828128D02*
X14089177Y-15837652D01*
X14089177Y-15837652D02*
X14060606Y-15837652D01*
X14241558Y-15837652D02*
X14222511Y-15828128D01*
X14222511Y-15828128D02*
X14212987Y-15809081D01*
X14212987Y-15809081D02*
X14212987Y-15637652D01*
X14393939Y-15828128D02*
X14374892Y-15837652D01*
X14374892Y-15837652D02*
X14336796Y-15837652D01*
X14336796Y-15837652D02*
X14317749Y-15828128D01*
X14317749Y-15828128D02*
X14308225Y-15809081D01*
X14308225Y-15809081D02*
X14308225Y-15732890D01*
X14308225Y-15732890D02*
X14317749Y-15713843D01*
X14317749Y-15713843D02*
X14336796Y-15704319D01*
X14336796Y-15704319D02*
X14374892Y-15704319D01*
X14374892Y-15704319D02*
X14393939Y-15713843D01*
X14393939Y-15713843D02*
X14403463Y-15732890D01*
X14403463Y-15732890D02*
X14403463Y-15751938D01*
X14403463Y-15751938D02*
X14308225Y-15770986D01*
X14479653Y-15828128D02*
X14498701Y-15837652D01*
X14498701Y-15837652D02*
X14536796Y-15837652D01*
X14536796Y-15837652D02*
X14555844Y-15828128D01*
X14555844Y-15828128D02*
X14565368Y-15809081D01*
X14565368Y-15809081D02*
X14565368Y-15799557D01*
X14565368Y-15799557D02*
X14555844Y-15780509D01*
X14555844Y-15780509D02*
X14536796Y-15770986D01*
X14536796Y-15770986D02*
X14508225Y-15770986D01*
X14508225Y-15770986D02*
X14489177Y-15761462D01*
X14489177Y-15761462D02*
X14479653Y-15742414D01*
X14479653Y-15742414D02*
X14479653Y-15732890D01*
X14479653Y-15732890D02*
X14489177Y-15713843D01*
X14489177Y-15713843D02*
X14508225Y-15704319D01*
X14508225Y-15704319D02*
X14536796Y-15704319D01*
X14536796Y-15704319D02*
X14555844Y-15713843D01*
X14632034Y-15913843D02*
X14641558Y-15904319D01*
X14641558Y-15904319D02*
X14660606Y-15875747D01*
X14660606Y-15875747D02*
X14670130Y-15856700D01*
X14670130Y-15856700D02*
X14679653Y-15828128D01*
X14679653Y-15828128D02*
X14689177Y-15780509D01*
X14689177Y-15780509D02*
X14689177Y-15742414D01*
X14689177Y-15742414D02*
X14679653Y-15694795D01*
X14679653Y-15694795D02*
X14670130Y-15666224D01*
X14670130Y-15666224D02*
X14660606Y-15647176D01*
X14660606Y-15647176D02*
X14641558Y-15618605D01*
X14641558Y-15618605D02*
X14632034Y-15609081D01*
D14*
X9696972Y-15930168D02*
X9856972Y-16090168D01*
X9856972Y-15930168D02*
X9696972Y-16090168D01*
X9776972Y-15930168D02*
X9776972Y-16090168D01*
X9696972Y-16010168D02*
X9856972Y-16010168D01*
D11*
X10222510Y-16101652D02*
X10108225Y-16101652D01*
X10165367Y-16101652D02*
X10165367Y-15901652D01*
X10165367Y-15901652D02*
X10146320Y-15930224D01*
X10146320Y-15930224D02*
X10127272Y-15949271D01*
X10127272Y-15949271D02*
X10108225Y-15958795D01*
X10308225Y-16082605D02*
X10317748Y-16092128D01*
X10317748Y-16092128D02*
X10308225Y-16101652D01*
X10308225Y-16101652D02*
X10298701Y-16092128D01*
X10298701Y-16092128D02*
X10308225Y-16082605D01*
X10308225Y-16082605D02*
X10308225Y-16101652D01*
X10489177Y-15901652D02*
X10451082Y-15901652D01*
X10451082Y-15901652D02*
X10432034Y-15911176D01*
X10432034Y-15911176D02*
X10422510Y-15920700D01*
X10422510Y-15920700D02*
X10403463Y-15949271D01*
X10403463Y-15949271D02*
X10393939Y-15987366D01*
X10393939Y-15987366D02*
X10393939Y-16063557D01*
X10393939Y-16063557D02*
X10403463Y-16082605D01*
X10403463Y-16082605D02*
X10412986Y-16092128D01*
X10412986Y-16092128D02*
X10432034Y-16101652D01*
X10432034Y-16101652D02*
X10470129Y-16101652D01*
X10470129Y-16101652D02*
X10489177Y-16092128D01*
X10489177Y-16092128D02*
X10498701Y-16082605D01*
X10498701Y-16082605D02*
X10508225Y-16063557D01*
X10508225Y-16063557D02*
X10508225Y-16015938D01*
X10508225Y-16015938D02*
X10498701Y-15996890D01*
X10498701Y-15996890D02*
X10489177Y-15987366D01*
X10489177Y-15987366D02*
X10470129Y-15977843D01*
X10470129Y-15977843D02*
X10432034Y-15977843D01*
X10432034Y-15977843D02*
X10412986Y-15987366D01*
X10412986Y-15987366D02*
X10403463Y-15996890D01*
X10403463Y-15996890D02*
X10393939Y-16015938D01*
X10632034Y-15901652D02*
X10651082Y-15901652D01*
X10651082Y-15901652D02*
X10670129Y-15911176D01*
X10670129Y-15911176D02*
X10679653Y-15920700D01*
X10679653Y-15920700D02*
X10689177Y-15939747D01*
X10689177Y-15939747D02*
X10698701Y-15977843D01*
X10698701Y-15977843D02*
X10698701Y-16025462D01*
X10698701Y-16025462D02*
X10689177Y-16063557D01*
X10689177Y-16063557D02*
X10679653Y-16082605D01*
X10679653Y-16082605D02*
X10670129Y-16092128D01*
X10670129Y-16092128D02*
X10651082Y-16101652D01*
X10651082Y-16101652D02*
X10632034Y-16101652D01*
X10632034Y-16101652D02*
X10612986Y-16092128D01*
X10612986Y-16092128D02*
X10603463Y-16082605D01*
X10603463Y-16082605D02*
X10593939Y-16063557D01*
X10593939Y-16063557D02*
X10584415Y-16025462D01*
X10584415Y-16025462D02*
X10584415Y-15977843D01*
X10584415Y-15977843D02*
X10593939Y-15939747D01*
X10593939Y-15939747D02*
X10603463Y-15920700D01*
X10603463Y-15920700D02*
X10612986Y-15911176D01*
X10612986Y-15911176D02*
X10632034Y-15901652D01*
X10822510Y-15901652D02*
X10841558Y-15901652D01*
X10841558Y-15901652D02*
X10860606Y-15911176D01*
X10860606Y-15911176D02*
X10870129Y-15920700D01*
X10870129Y-15920700D02*
X10879653Y-15939747D01*
X10879653Y-15939747D02*
X10889177Y-15977843D01*
X10889177Y-15977843D02*
X10889177Y-16025462D01*
X10889177Y-16025462D02*
X10879653Y-16063557D01*
X10879653Y-16063557D02*
X10870129Y-16082605D01*
X10870129Y-16082605D02*
X10860606Y-16092128D01*
X10860606Y-16092128D02*
X10841558Y-16101652D01*
X10841558Y-16101652D02*
X10822510Y-16101652D01*
X10822510Y-16101652D02*
X10803463Y-16092128D01*
X10803463Y-16092128D02*
X10793939Y-16082605D01*
X10793939Y-16082605D02*
X10784415Y-16063557D01*
X10784415Y-16063557D02*
X10774891Y-16025462D01*
X10774891Y-16025462D02*
X10774891Y-15977843D01*
X10774891Y-15977843D02*
X10784415Y-15939747D01*
X10784415Y-15939747D02*
X10793939Y-15920700D01*
X10793939Y-15920700D02*
X10803463Y-15911176D01*
X10803463Y-15911176D02*
X10822510Y-15901652D01*
X10974891Y-16101652D02*
X10974891Y-15968319D01*
X10974891Y-15987366D02*
X10984415Y-15977843D01*
X10984415Y-15977843D02*
X11003463Y-15968319D01*
X11003463Y-15968319D02*
X11032034Y-15968319D01*
X11032034Y-15968319D02*
X11051082Y-15977843D01*
X11051082Y-15977843D02*
X11060606Y-15996890D01*
X11060606Y-15996890D02*
X11060606Y-16101652D01*
X11060606Y-15996890D02*
X11070129Y-15977843D01*
X11070129Y-15977843D02*
X11089177Y-15968319D01*
X11089177Y-15968319D02*
X11117748Y-15968319D01*
X11117748Y-15968319D02*
X11136796Y-15977843D01*
X11136796Y-15977843D02*
X11146320Y-15996890D01*
X11146320Y-15996890D02*
X11146320Y-16101652D01*
X11241558Y-16101652D02*
X11241558Y-15968319D01*
X11241558Y-15987366D02*
X11251082Y-15977843D01*
X11251082Y-15977843D02*
X11270129Y-15968319D01*
X11270129Y-15968319D02*
X11298701Y-15968319D01*
X11298701Y-15968319D02*
X11317748Y-15977843D01*
X11317748Y-15977843D02*
X11327272Y-15996890D01*
X11327272Y-15996890D02*
X11327272Y-16101652D01*
X11327272Y-15996890D02*
X11336796Y-15977843D01*
X11336796Y-15977843D02*
X11355844Y-15968319D01*
X11355844Y-15968319D02*
X11384415Y-15968319D01*
X11384415Y-15968319D02*
X11403463Y-15977843D01*
X11403463Y-15977843D02*
X11412986Y-15996890D01*
X11412986Y-15996890D02*
X11412986Y-16101652D01*
X11803463Y-15892128D02*
X11632034Y-16149271D01*
X12060606Y-15901652D02*
X12079653Y-15901652D01*
X12079653Y-15901652D02*
X12098701Y-15911176D01*
X12098701Y-15911176D02*
X12108225Y-15920700D01*
X12108225Y-15920700D02*
X12117748Y-15939747D01*
X12117748Y-15939747D02*
X12127272Y-15977843D01*
X12127272Y-15977843D02*
X12127272Y-16025462D01*
X12127272Y-16025462D02*
X12117748Y-16063557D01*
X12117748Y-16063557D02*
X12108225Y-16082605D01*
X12108225Y-16082605D02*
X12098701Y-16092128D01*
X12098701Y-16092128D02*
X12079653Y-16101652D01*
X12079653Y-16101652D02*
X12060606Y-16101652D01*
X12060606Y-16101652D02*
X12041558Y-16092128D01*
X12041558Y-16092128D02*
X12032034Y-16082605D01*
X12032034Y-16082605D02*
X12022510Y-16063557D01*
X12022510Y-16063557D02*
X12012987Y-16025462D01*
X12012987Y-16025462D02*
X12012987Y-15977843D01*
X12012987Y-15977843D02*
X12022510Y-15939747D01*
X12022510Y-15939747D02*
X12032034Y-15920700D01*
X12032034Y-15920700D02*
X12041558Y-15911176D01*
X12041558Y-15911176D02*
X12060606Y-15901652D01*
X12212987Y-16082605D02*
X12222510Y-16092128D01*
X12222510Y-16092128D02*
X12212987Y-16101652D01*
X12212987Y-16101652D02*
X12203463Y-16092128D01*
X12203463Y-16092128D02*
X12212987Y-16082605D01*
X12212987Y-16082605D02*
X12212987Y-16101652D01*
X12346320Y-15901652D02*
X12365368Y-15901652D01*
X12365368Y-15901652D02*
X12384415Y-15911176D01*
X12384415Y-15911176D02*
X12393939Y-15920700D01*
X12393939Y-15920700D02*
X12403463Y-15939747D01*
X12403463Y-15939747D02*
X12412987Y-15977843D01*
X12412987Y-15977843D02*
X12412987Y-16025462D01*
X12412987Y-16025462D02*
X12403463Y-16063557D01*
X12403463Y-16063557D02*
X12393939Y-16082605D01*
X12393939Y-16082605D02*
X12384415Y-16092128D01*
X12384415Y-16092128D02*
X12365368Y-16101652D01*
X12365368Y-16101652D02*
X12346320Y-16101652D01*
X12346320Y-16101652D02*
X12327272Y-16092128D01*
X12327272Y-16092128D02*
X12317748Y-16082605D01*
X12317748Y-16082605D02*
X12308225Y-16063557D01*
X12308225Y-16063557D02*
X12298701Y-16025462D01*
X12298701Y-16025462D02*
X12298701Y-15977843D01*
X12298701Y-15977843D02*
X12308225Y-15939747D01*
X12308225Y-15939747D02*
X12317748Y-15920700D01*
X12317748Y-15920700D02*
X12327272Y-15911176D01*
X12327272Y-15911176D02*
X12346320Y-15901652D01*
X12584415Y-15901652D02*
X12546320Y-15901652D01*
X12546320Y-15901652D02*
X12527272Y-15911176D01*
X12527272Y-15911176D02*
X12517748Y-15920700D01*
X12517748Y-15920700D02*
X12498701Y-15949271D01*
X12498701Y-15949271D02*
X12489177Y-15987366D01*
X12489177Y-15987366D02*
X12489177Y-16063557D01*
X12489177Y-16063557D02*
X12498701Y-16082605D01*
X12498701Y-16082605D02*
X12508225Y-16092128D01*
X12508225Y-16092128D02*
X12527272Y-16101652D01*
X12527272Y-16101652D02*
X12565368Y-16101652D01*
X12565368Y-16101652D02*
X12584415Y-16092128D01*
X12584415Y-16092128D02*
X12593939Y-16082605D01*
X12593939Y-16082605D02*
X12603463Y-16063557D01*
X12603463Y-16063557D02*
X12603463Y-16015938D01*
X12603463Y-16015938D02*
X12593939Y-15996890D01*
X12593939Y-15996890D02*
X12584415Y-15987366D01*
X12584415Y-15987366D02*
X12565368Y-15977843D01*
X12565368Y-15977843D02*
X12527272Y-15977843D01*
X12527272Y-15977843D02*
X12508225Y-15987366D01*
X12508225Y-15987366D02*
X12498701Y-15996890D01*
X12498701Y-15996890D02*
X12489177Y-16015938D01*
X12670129Y-15901652D02*
X12793939Y-15901652D01*
X12793939Y-15901652D02*
X12727272Y-15977843D01*
X12727272Y-15977843D02*
X12755844Y-15977843D01*
X12755844Y-15977843D02*
X12774891Y-15987366D01*
X12774891Y-15987366D02*
X12784415Y-15996890D01*
X12784415Y-15996890D02*
X12793939Y-16015938D01*
X12793939Y-16015938D02*
X12793939Y-16063557D01*
X12793939Y-16063557D02*
X12784415Y-16082605D01*
X12784415Y-16082605D02*
X12774891Y-16092128D01*
X12774891Y-16092128D02*
X12755844Y-16101652D01*
X12755844Y-16101652D02*
X12698701Y-16101652D01*
X12698701Y-16101652D02*
X12679653Y-16092128D01*
X12679653Y-16092128D02*
X12670129Y-16082605D01*
X12917748Y-15901652D02*
X12936796Y-15901652D01*
X12936796Y-15901652D02*
X12955844Y-15911176D01*
X12955844Y-15911176D02*
X12965368Y-15920700D01*
X12965368Y-15920700D02*
X12974891Y-15939747D01*
X12974891Y-15939747D02*
X12984415Y-15977843D01*
X12984415Y-15977843D02*
X12984415Y-16025462D01*
X12984415Y-16025462D02*
X12974891Y-16063557D01*
X12974891Y-16063557D02*
X12965368Y-16082605D01*
X12965368Y-16082605D02*
X12955844Y-16092128D01*
X12955844Y-16092128D02*
X12936796Y-16101652D01*
X12936796Y-16101652D02*
X12917748Y-16101652D01*
X12917748Y-16101652D02*
X12898701Y-16092128D01*
X12898701Y-16092128D02*
X12889177Y-16082605D01*
X12889177Y-16082605D02*
X12879653Y-16063557D01*
X12879653Y-16063557D02*
X12870129Y-16025462D01*
X12870129Y-16025462D02*
X12870129Y-15977843D01*
X12870129Y-15977843D02*
X12879653Y-15939747D01*
X12879653Y-15939747D02*
X12889177Y-15920700D01*
X12889177Y-15920700D02*
X12898701Y-15911176D01*
X12898701Y-15911176D02*
X12917748Y-15901652D01*
X13060606Y-15901652D02*
X13060606Y-15939747D01*
X13136796Y-15901652D02*
X13136796Y-15939747D01*
X13432034Y-16177843D02*
X13422510Y-16168319D01*
X13422510Y-16168319D02*
X13403463Y-16139747D01*
X13403463Y-16139747D02*
X13393939Y-16120700D01*
X13393939Y-16120700D02*
X13384415Y-16092128D01*
X13384415Y-16092128D02*
X13374891Y-16044509D01*
X13374891Y-16044509D02*
X13374891Y-16006414D01*
X13374891Y-16006414D02*
X13384415Y-15958795D01*
X13384415Y-15958795D02*
X13393939Y-15930224D01*
X13393939Y-15930224D02*
X13403463Y-15911176D01*
X13403463Y-15911176D02*
X13422510Y-15882605D01*
X13422510Y-15882605D02*
X13432034Y-15873081D01*
X13498701Y-15920700D02*
X13508225Y-15911176D01*
X13508225Y-15911176D02*
X13527272Y-15901652D01*
X13527272Y-15901652D02*
X13574891Y-15901652D01*
X13574891Y-15901652D02*
X13593939Y-15911176D01*
X13593939Y-15911176D02*
X13603463Y-15920700D01*
X13603463Y-15920700D02*
X13612987Y-15939747D01*
X13612987Y-15939747D02*
X13612987Y-15958795D01*
X13612987Y-15958795D02*
X13603463Y-15987366D01*
X13603463Y-15987366D02*
X13489177Y-16101652D01*
X13489177Y-16101652D02*
X13612987Y-16101652D01*
X13851082Y-16101652D02*
X13851082Y-15901652D01*
X13936796Y-16101652D02*
X13936796Y-15996890D01*
X13936796Y-15996890D02*
X13927272Y-15977843D01*
X13927272Y-15977843D02*
X13908225Y-15968319D01*
X13908225Y-15968319D02*
X13879653Y-15968319D01*
X13879653Y-15968319D02*
X13860606Y-15977843D01*
X13860606Y-15977843D02*
X13851082Y-15987366D01*
X14060606Y-16101652D02*
X14041558Y-16092128D01*
X14041558Y-16092128D02*
X14032034Y-16082605D01*
X14032034Y-16082605D02*
X14022511Y-16063557D01*
X14022511Y-16063557D02*
X14022511Y-16006414D01*
X14022511Y-16006414D02*
X14032034Y-15987366D01*
X14032034Y-15987366D02*
X14041558Y-15977843D01*
X14041558Y-15977843D02*
X14060606Y-15968319D01*
X14060606Y-15968319D02*
X14089177Y-15968319D01*
X14089177Y-15968319D02*
X14108225Y-15977843D01*
X14108225Y-15977843D02*
X14117749Y-15987366D01*
X14117749Y-15987366D02*
X14127272Y-16006414D01*
X14127272Y-16006414D02*
X14127272Y-16063557D01*
X14127272Y-16063557D02*
X14117749Y-16082605D01*
X14117749Y-16082605D02*
X14108225Y-16092128D01*
X14108225Y-16092128D02*
X14089177Y-16101652D01*
X14089177Y-16101652D02*
X14060606Y-16101652D01*
X14241558Y-16101652D02*
X14222511Y-16092128D01*
X14222511Y-16092128D02*
X14212987Y-16073081D01*
X14212987Y-16073081D02*
X14212987Y-15901652D01*
X14393939Y-16092128D02*
X14374892Y-16101652D01*
X14374892Y-16101652D02*
X14336796Y-16101652D01*
X14336796Y-16101652D02*
X14317749Y-16092128D01*
X14317749Y-16092128D02*
X14308225Y-16073081D01*
X14308225Y-16073081D02*
X14308225Y-15996890D01*
X14308225Y-15996890D02*
X14317749Y-15977843D01*
X14317749Y-15977843D02*
X14336796Y-15968319D01*
X14336796Y-15968319D02*
X14374892Y-15968319D01*
X14374892Y-15968319D02*
X14393939Y-15977843D01*
X14393939Y-15977843D02*
X14403463Y-15996890D01*
X14403463Y-15996890D02*
X14403463Y-16015938D01*
X14403463Y-16015938D02*
X14308225Y-16034986D01*
X14479653Y-16092128D02*
X14498701Y-16101652D01*
X14498701Y-16101652D02*
X14536796Y-16101652D01*
X14536796Y-16101652D02*
X14555844Y-16092128D01*
X14555844Y-16092128D02*
X14565368Y-16073081D01*
X14565368Y-16073081D02*
X14565368Y-16063557D01*
X14565368Y-16063557D02*
X14555844Y-16044509D01*
X14555844Y-16044509D02*
X14536796Y-16034986D01*
X14536796Y-16034986D02*
X14508225Y-16034986D01*
X14508225Y-16034986D02*
X14489177Y-16025462D01*
X14489177Y-16025462D02*
X14479653Y-16006414D01*
X14479653Y-16006414D02*
X14479653Y-15996890D01*
X14479653Y-15996890D02*
X14489177Y-15977843D01*
X14489177Y-15977843D02*
X14508225Y-15968319D01*
X14508225Y-15968319D02*
X14536796Y-15968319D01*
X14536796Y-15968319D02*
X14555844Y-15977843D01*
X14632034Y-16177843D02*
X14641558Y-16168319D01*
X14641558Y-16168319D02*
X14660606Y-16139747D01*
X14660606Y-16139747D02*
X14670130Y-16120700D01*
X14670130Y-16120700D02*
X14679653Y-16092128D01*
X14679653Y-16092128D02*
X14689177Y-16044509D01*
X14689177Y-16044509D02*
X14689177Y-16006414D01*
X14689177Y-16006414D02*
X14679653Y-15958795D01*
X14679653Y-15958795D02*
X14670130Y-15930224D01*
X14670130Y-15930224D02*
X14660606Y-15911176D01*
X14660606Y-15911176D02*
X14641558Y-15882605D01*
X14641558Y-15882605D02*
X14632034Y-15873081D01*
X9656972Y-16190168D02*
X9856972Y-16390168D01*
X9856972Y-16190168D02*
X9656972Y-16390168D01*
X9827683Y-16360880D02*
X9827683Y-16219457D01*
X9686260Y-16219457D01*
X9686260Y-16360880D01*
X9827683Y-16360880D01*
X10098701Y-16181652D02*
X10222510Y-16181652D01*
X10222510Y-16181652D02*
X10155844Y-16257843D01*
X10155844Y-16257843D02*
X10184415Y-16257843D01*
X10184415Y-16257843D02*
X10203463Y-16267366D01*
X10203463Y-16267366D02*
X10212986Y-16276890D01*
X10212986Y-16276890D02*
X10222510Y-16295938D01*
X10222510Y-16295938D02*
X10222510Y-16343557D01*
X10222510Y-16343557D02*
X10212986Y-16362605D01*
X10212986Y-16362605D02*
X10203463Y-16372128D01*
X10203463Y-16372128D02*
X10184415Y-16381652D01*
X10184415Y-16381652D02*
X10127272Y-16381652D01*
X10127272Y-16381652D02*
X10108225Y-16372128D01*
X10108225Y-16372128D02*
X10098701Y-16362605D01*
X10308225Y-16362605D02*
X10317748Y-16372128D01*
X10317748Y-16372128D02*
X10308225Y-16381652D01*
X10308225Y-16381652D02*
X10298701Y-16372128D01*
X10298701Y-16372128D02*
X10308225Y-16362605D01*
X10308225Y-16362605D02*
X10308225Y-16381652D01*
X10441558Y-16181652D02*
X10460606Y-16181652D01*
X10460606Y-16181652D02*
X10479653Y-16191176D01*
X10479653Y-16191176D02*
X10489177Y-16200700D01*
X10489177Y-16200700D02*
X10498701Y-16219747D01*
X10498701Y-16219747D02*
X10508225Y-16257843D01*
X10508225Y-16257843D02*
X10508225Y-16305462D01*
X10508225Y-16305462D02*
X10498701Y-16343557D01*
X10498701Y-16343557D02*
X10489177Y-16362605D01*
X10489177Y-16362605D02*
X10479653Y-16372128D01*
X10479653Y-16372128D02*
X10460606Y-16381652D01*
X10460606Y-16381652D02*
X10441558Y-16381652D01*
X10441558Y-16381652D02*
X10422510Y-16372128D01*
X10422510Y-16372128D02*
X10412986Y-16362605D01*
X10412986Y-16362605D02*
X10403463Y-16343557D01*
X10403463Y-16343557D02*
X10393939Y-16305462D01*
X10393939Y-16305462D02*
X10393939Y-16257843D01*
X10393939Y-16257843D02*
X10403463Y-16219747D01*
X10403463Y-16219747D02*
X10412986Y-16200700D01*
X10412986Y-16200700D02*
X10422510Y-16191176D01*
X10422510Y-16191176D02*
X10441558Y-16181652D01*
X10632034Y-16181652D02*
X10651082Y-16181652D01*
X10651082Y-16181652D02*
X10670129Y-16191176D01*
X10670129Y-16191176D02*
X10679653Y-16200700D01*
X10679653Y-16200700D02*
X10689177Y-16219747D01*
X10689177Y-16219747D02*
X10698701Y-16257843D01*
X10698701Y-16257843D02*
X10698701Y-16305462D01*
X10698701Y-16305462D02*
X10689177Y-16343557D01*
X10689177Y-16343557D02*
X10679653Y-16362605D01*
X10679653Y-16362605D02*
X10670129Y-16372128D01*
X10670129Y-16372128D02*
X10651082Y-16381652D01*
X10651082Y-16381652D02*
X10632034Y-16381652D01*
X10632034Y-16381652D02*
X10612986Y-16372128D01*
X10612986Y-16372128D02*
X10603463Y-16362605D01*
X10603463Y-16362605D02*
X10593939Y-16343557D01*
X10593939Y-16343557D02*
X10584415Y-16305462D01*
X10584415Y-16305462D02*
X10584415Y-16257843D01*
X10584415Y-16257843D02*
X10593939Y-16219747D01*
X10593939Y-16219747D02*
X10603463Y-16200700D01*
X10603463Y-16200700D02*
X10612986Y-16191176D01*
X10612986Y-16191176D02*
X10632034Y-16181652D01*
X10822510Y-16181652D02*
X10841558Y-16181652D01*
X10841558Y-16181652D02*
X10860606Y-16191176D01*
X10860606Y-16191176D02*
X10870129Y-16200700D01*
X10870129Y-16200700D02*
X10879653Y-16219747D01*
X10879653Y-16219747D02*
X10889177Y-16257843D01*
X10889177Y-16257843D02*
X10889177Y-16305462D01*
X10889177Y-16305462D02*
X10879653Y-16343557D01*
X10879653Y-16343557D02*
X10870129Y-16362605D01*
X10870129Y-16362605D02*
X10860606Y-16372128D01*
X10860606Y-16372128D02*
X10841558Y-16381652D01*
X10841558Y-16381652D02*
X10822510Y-16381652D01*
X10822510Y-16381652D02*
X10803463Y-16372128D01*
X10803463Y-16372128D02*
X10793939Y-16362605D01*
X10793939Y-16362605D02*
X10784415Y-16343557D01*
X10784415Y-16343557D02*
X10774891Y-16305462D01*
X10774891Y-16305462D02*
X10774891Y-16257843D01*
X10774891Y-16257843D02*
X10784415Y-16219747D01*
X10784415Y-16219747D02*
X10793939Y-16200700D01*
X10793939Y-16200700D02*
X10803463Y-16191176D01*
X10803463Y-16191176D02*
X10822510Y-16181652D01*
X10974891Y-16381652D02*
X10974891Y-16248319D01*
X10974891Y-16267366D02*
X10984415Y-16257843D01*
X10984415Y-16257843D02*
X11003463Y-16248319D01*
X11003463Y-16248319D02*
X11032034Y-16248319D01*
X11032034Y-16248319D02*
X11051082Y-16257843D01*
X11051082Y-16257843D02*
X11060606Y-16276890D01*
X11060606Y-16276890D02*
X11060606Y-16381652D01*
X11060606Y-16276890D02*
X11070129Y-16257843D01*
X11070129Y-16257843D02*
X11089177Y-16248319D01*
X11089177Y-16248319D02*
X11117748Y-16248319D01*
X11117748Y-16248319D02*
X11136796Y-16257843D01*
X11136796Y-16257843D02*
X11146320Y-16276890D01*
X11146320Y-16276890D02*
X11146320Y-16381652D01*
X11241558Y-16381652D02*
X11241558Y-16248319D01*
X11241558Y-16267366D02*
X11251082Y-16257843D01*
X11251082Y-16257843D02*
X11270129Y-16248319D01*
X11270129Y-16248319D02*
X11298701Y-16248319D01*
X11298701Y-16248319D02*
X11317748Y-16257843D01*
X11317748Y-16257843D02*
X11327272Y-16276890D01*
X11327272Y-16276890D02*
X11327272Y-16381652D01*
X11327272Y-16276890D02*
X11336796Y-16257843D01*
X11336796Y-16257843D02*
X11355844Y-16248319D01*
X11355844Y-16248319D02*
X11384415Y-16248319D01*
X11384415Y-16248319D02*
X11403463Y-16257843D01*
X11403463Y-16257843D02*
X11412986Y-16276890D01*
X11412986Y-16276890D02*
X11412986Y-16381652D01*
X11803463Y-16172128D02*
X11632034Y-16429271D01*
X12060606Y-16181652D02*
X12079653Y-16181652D01*
X12079653Y-16181652D02*
X12098701Y-16191176D01*
X12098701Y-16191176D02*
X12108225Y-16200700D01*
X12108225Y-16200700D02*
X12117748Y-16219747D01*
X12117748Y-16219747D02*
X12127272Y-16257843D01*
X12127272Y-16257843D02*
X12127272Y-16305462D01*
X12127272Y-16305462D02*
X12117748Y-16343557D01*
X12117748Y-16343557D02*
X12108225Y-16362605D01*
X12108225Y-16362605D02*
X12098701Y-16372128D01*
X12098701Y-16372128D02*
X12079653Y-16381652D01*
X12079653Y-16381652D02*
X12060606Y-16381652D01*
X12060606Y-16381652D02*
X12041558Y-16372128D01*
X12041558Y-16372128D02*
X12032034Y-16362605D01*
X12032034Y-16362605D02*
X12022510Y-16343557D01*
X12022510Y-16343557D02*
X12012987Y-16305462D01*
X12012987Y-16305462D02*
X12012987Y-16257843D01*
X12012987Y-16257843D02*
X12022510Y-16219747D01*
X12022510Y-16219747D02*
X12032034Y-16200700D01*
X12032034Y-16200700D02*
X12041558Y-16191176D01*
X12041558Y-16191176D02*
X12060606Y-16181652D01*
X12212987Y-16362605D02*
X12222510Y-16372128D01*
X12222510Y-16372128D02*
X12212987Y-16381652D01*
X12212987Y-16381652D02*
X12203463Y-16372128D01*
X12203463Y-16372128D02*
X12212987Y-16362605D01*
X12212987Y-16362605D02*
X12212987Y-16381652D01*
X12412987Y-16381652D02*
X12298701Y-16381652D01*
X12355844Y-16381652D02*
X12355844Y-16181652D01*
X12355844Y-16181652D02*
X12336796Y-16210224D01*
X12336796Y-16210224D02*
X12317748Y-16229271D01*
X12317748Y-16229271D02*
X12298701Y-16238795D01*
X12603463Y-16381652D02*
X12489177Y-16381652D01*
X12546320Y-16381652D02*
X12546320Y-16181652D01*
X12546320Y-16181652D02*
X12527272Y-16210224D01*
X12527272Y-16210224D02*
X12508225Y-16229271D01*
X12508225Y-16229271D02*
X12489177Y-16238795D01*
X12717748Y-16267366D02*
X12698701Y-16257843D01*
X12698701Y-16257843D02*
X12689177Y-16248319D01*
X12689177Y-16248319D02*
X12679653Y-16229271D01*
X12679653Y-16229271D02*
X12679653Y-16219747D01*
X12679653Y-16219747D02*
X12689177Y-16200700D01*
X12689177Y-16200700D02*
X12698701Y-16191176D01*
X12698701Y-16191176D02*
X12717748Y-16181652D01*
X12717748Y-16181652D02*
X12755844Y-16181652D01*
X12755844Y-16181652D02*
X12774891Y-16191176D01*
X12774891Y-16191176D02*
X12784415Y-16200700D01*
X12784415Y-16200700D02*
X12793939Y-16219747D01*
X12793939Y-16219747D02*
X12793939Y-16229271D01*
X12793939Y-16229271D02*
X12784415Y-16248319D01*
X12784415Y-16248319D02*
X12774891Y-16257843D01*
X12774891Y-16257843D02*
X12755844Y-16267366D01*
X12755844Y-16267366D02*
X12717748Y-16267366D01*
X12717748Y-16267366D02*
X12698701Y-16276890D01*
X12698701Y-16276890D02*
X12689177Y-16286414D01*
X12689177Y-16286414D02*
X12679653Y-16305462D01*
X12679653Y-16305462D02*
X12679653Y-16343557D01*
X12679653Y-16343557D02*
X12689177Y-16362605D01*
X12689177Y-16362605D02*
X12698701Y-16372128D01*
X12698701Y-16372128D02*
X12717748Y-16381652D01*
X12717748Y-16381652D02*
X12755844Y-16381652D01*
X12755844Y-16381652D02*
X12774891Y-16372128D01*
X12774891Y-16372128D02*
X12784415Y-16362605D01*
X12784415Y-16362605D02*
X12793939Y-16343557D01*
X12793939Y-16343557D02*
X12793939Y-16305462D01*
X12793939Y-16305462D02*
X12784415Y-16286414D01*
X12784415Y-16286414D02*
X12774891Y-16276890D01*
X12774891Y-16276890D02*
X12755844Y-16267366D01*
X12984415Y-16381652D02*
X12870129Y-16381652D01*
X12927272Y-16381652D02*
X12927272Y-16181652D01*
X12927272Y-16181652D02*
X12908225Y-16210224D01*
X12908225Y-16210224D02*
X12889177Y-16229271D01*
X12889177Y-16229271D02*
X12870129Y-16238795D01*
X13060606Y-16181652D02*
X13060606Y-16219747D01*
X13136796Y-16181652D02*
X13136796Y-16219747D01*
X13432034Y-16457843D02*
X13422510Y-16448319D01*
X13422510Y-16448319D02*
X13403463Y-16419747D01*
X13403463Y-16419747D02*
X13393939Y-16400700D01*
X13393939Y-16400700D02*
X13384415Y-16372128D01*
X13384415Y-16372128D02*
X13374891Y-16324509D01*
X13374891Y-16324509D02*
X13374891Y-16286414D01*
X13374891Y-16286414D02*
X13384415Y-16238795D01*
X13384415Y-16238795D02*
X13393939Y-16210224D01*
X13393939Y-16210224D02*
X13403463Y-16191176D01*
X13403463Y-16191176D02*
X13422510Y-16162605D01*
X13422510Y-16162605D02*
X13432034Y-16153081D01*
X13593939Y-16248319D02*
X13593939Y-16381652D01*
X13546320Y-16172128D02*
X13498701Y-16314986D01*
X13498701Y-16314986D02*
X13622510Y-16314986D01*
X13851082Y-16381652D02*
X13851082Y-16181652D01*
X13936796Y-16381652D02*
X13936796Y-16276890D01*
X13936796Y-16276890D02*
X13927272Y-16257843D01*
X13927272Y-16257843D02*
X13908225Y-16248319D01*
X13908225Y-16248319D02*
X13879653Y-16248319D01*
X13879653Y-16248319D02*
X13860606Y-16257843D01*
X13860606Y-16257843D02*
X13851082Y-16267366D01*
X14060606Y-16381652D02*
X14041558Y-16372128D01*
X14041558Y-16372128D02*
X14032034Y-16362605D01*
X14032034Y-16362605D02*
X14022511Y-16343557D01*
X14022511Y-16343557D02*
X14022511Y-16286414D01*
X14022511Y-16286414D02*
X14032034Y-16267366D01*
X14032034Y-16267366D02*
X14041558Y-16257843D01*
X14041558Y-16257843D02*
X14060606Y-16248319D01*
X14060606Y-16248319D02*
X14089177Y-16248319D01*
X14089177Y-16248319D02*
X14108225Y-16257843D01*
X14108225Y-16257843D02*
X14117749Y-16267366D01*
X14117749Y-16267366D02*
X14127272Y-16286414D01*
X14127272Y-16286414D02*
X14127272Y-16343557D01*
X14127272Y-16343557D02*
X14117749Y-16362605D01*
X14117749Y-16362605D02*
X14108225Y-16372128D01*
X14108225Y-16372128D02*
X14089177Y-16381652D01*
X14089177Y-16381652D02*
X14060606Y-16381652D01*
X14241558Y-16381652D02*
X14222511Y-16372128D01*
X14222511Y-16372128D02*
X14212987Y-16353081D01*
X14212987Y-16353081D02*
X14212987Y-16181652D01*
X14393939Y-16372128D02*
X14374892Y-16381652D01*
X14374892Y-16381652D02*
X14336796Y-16381652D01*
X14336796Y-16381652D02*
X14317749Y-16372128D01*
X14317749Y-16372128D02*
X14308225Y-16353081D01*
X14308225Y-16353081D02*
X14308225Y-16276890D01*
X14308225Y-16276890D02*
X14317749Y-16257843D01*
X14317749Y-16257843D02*
X14336796Y-16248319D01*
X14336796Y-16248319D02*
X14374892Y-16248319D01*
X14374892Y-16248319D02*
X14393939Y-16257843D01*
X14393939Y-16257843D02*
X14403463Y-16276890D01*
X14403463Y-16276890D02*
X14403463Y-16295938D01*
X14403463Y-16295938D02*
X14308225Y-16314986D01*
X14479653Y-16372128D02*
X14498701Y-16381652D01*
X14498701Y-16381652D02*
X14536796Y-16381652D01*
X14536796Y-16381652D02*
X14555844Y-16372128D01*
X14555844Y-16372128D02*
X14565368Y-16353081D01*
X14565368Y-16353081D02*
X14565368Y-16343557D01*
X14565368Y-16343557D02*
X14555844Y-16324509D01*
X14555844Y-16324509D02*
X14536796Y-16314986D01*
X14536796Y-16314986D02*
X14508225Y-16314986D01*
X14508225Y-16314986D02*
X14489177Y-16305462D01*
X14489177Y-16305462D02*
X14479653Y-16286414D01*
X14479653Y-16286414D02*
X14479653Y-16276890D01*
X14479653Y-16276890D02*
X14489177Y-16257843D01*
X14489177Y-16257843D02*
X14508225Y-16248319D01*
X14508225Y-16248319D02*
X14536796Y-16248319D01*
X14536796Y-16248319D02*
X14555844Y-16257843D01*
X14632034Y-16457843D02*
X14641558Y-16448319D01*
X14641558Y-16448319D02*
X14660606Y-16419747D01*
X14660606Y-16419747D02*
X14670130Y-16400700D01*
X14670130Y-16400700D02*
X14679653Y-16372128D01*
X14679653Y-16372128D02*
X14689177Y-16324509D01*
X14689177Y-16324509D02*
X14689177Y-16286414D01*
X14689177Y-16286414D02*
X14679653Y-16238795D01*
X14679653Y-16238795D02*
X14670130Y-16210224D01*
X14670130Y-16210224D02*
X14660606Y-16191176D01*
X14660606Y-16191176D02*
X14641558Y-16162605D01*
X14641558Y-16162605D02*
X14632034Y-16153081D01*
X14993939Y-16457843D02*
X14984415Y-16448319D01*
X14984415Y-16448319D02*
X14965368Y-16419747D01*
X14965368Y-16419747D02*
X14955844Y-16400700D01*
X14955844Y-16400700D02*
X14946320Y-16372128D01*
X14946320Y-16372128D02*
X14936796Y-16324509D01*
X14936796Y-16324509D02*
X14936796Y-16286414D01*
X14936796Y-16286414D02*
X14946320Y-16238795D01*
X14946320Y-16238795D02*
X14955844Y-16210224D01*
X14955844Y-16210224D02*
X14965368Y-16191176D01*
X14965368Y-16191176D02*
X14984415Y-16162605D01*
X14984415Y-16162605D02*
X14993939Y-16153081D01*
X15070130Y-16248319D02*
X15070130Y-16381652D01*
X15070130Y-16267366D02*
X15079653Y-16257843D01*
X15079653Y-16257843D02*
X15098701Y-16248319D01*
X15098701Y-16248319D02*
X15127273Y-16248319D01*
X15127273Y-16248319D02*
X15146320Y-16257843D01*
X15146320Y-16257843D02*
X15155844Y-16276890D01*
X15155844Y-16276890D02*
X15155844Y-16381652D01*
X15279653Y-16381652D02*
X15260606Y-16372128D01*
X15260606Y-16372128D02*
X15251082Y-16362605D01*
X15251082Y-16362605D02*
X15241558Y-16343557D01*
X15241558Y-16343557D02*
X15241558Y-16286414D01*
X15241558Y-16286414D02*
X15251082Y-16267366D01*
X15251082Y-16267366D02*
X15260606Y-16257843D01*
X15260606Y-16257843D02*
X15279653Y-16248319D01*
X15279653Y-16248319D02*
X15308225Y-16248319D01*
X15308225Y-16248319D02*
X15327273Y-16257843D01*
X15327273Y-16257843D02*
X15336796Y-16267366D01*
X15336796Y-16267366D02*
X15346320Y-16286414D01*
X15346320Y-16286414D02*
X15346320Y-16343557D01*
X15346320Y-16343557D02*
X15336796Y-16362605D01*
X15336796Y-16362605D02*
X15327273Y-16372128D01*
X15327273Y-16372128D02*
X15308225Y-16381652D01*
X15308225Y-16381652D02*
X15279653Y-16381652D01*
X15403463Y-16248319D02*
X15479653Y-16248319D01*
X15432034Y-16181652D02*
X15432034Y-16353081D01*
X15432034Y-16353081D02*
X15441558Y-16372128D01*
X15441558Y-16372128D02*
X15460606Y-16381652D01*
X15460606Y-16381652D02*
X15479653Y-16381652D01*
X15698701Y-16248319D02*
X15698701Y-16448319D01*
X15698701Y-16257843D02*
X15717749Y-16248319D01*
X15717749Y-16248319D02*
X15755844Y-16248319D01*
X15755844Y-16248319D02*
X15774892Y-16257843D01*
X15774892Y-16257843D02*
X15784415Y-16267366D01*
X15784415Y-16267366D02*
X15793939Y-16286414D01*
X15793939Y-16286414D02*
X15793939Y-16343557D01*
X15793939Y-16343557D02*
X15784415Y-16362605D01*
X15784415Y-16362605D02*
X15774892Y-16372128D01*
X15774892Y-16372128D02*
X15755844Y-16381652D01*
X15755844Y-16381652D02*
X15717749Y-16381652D01*
X15717749Y-16381652D02*
X15698701Y-16372128D01*
X15908225Y-16381652D02*
X15889177Y-16372128D01*
X15889177Y-16372128D02*
X15879654Y-16353081D01*
X15879654Y-16353081D02*
X15879654Y-16181652D01*
X16070130Y-16381652D02*
X16070130Y-16276890D01*
X16070130Y-16276890D02*
X16060606Y-16257843D01*
X16060606Y-16257843D02*
X16041558Y-16248319D01*
X16041558Y-16248319D02*
X16003463Y-16248319D01*
X16003463Y-16248319D02*
X15984415Y-16257843D01*
X16070130Y-16372128D02*
X16051082Y-16381652D01*
X16051082Y-16381652D02*
X16003463Y-16381652D01*
X16003463Y-16381652D02*
X15984415Y-16372128D01*
X15984415Y-16372128D02*
X15974892Y-16353081D01*
X15974892Y-16353081D02*
X15974892Y-16334033D01*
X15974892Y-16334033D02*
X15984415Y-16314986D01*
X15984415Y-16314986D02*
X16003463Y-16305462D01*
X16003463Y-16305462D02*
X16051082Y-16305462D01*
X16051082Y-16305462D02*
X16070130Y-16295938D01*
X16136796Y-16248319D02*
X16212987Y-16248319D01*
X16165368Y-16181652D02*
X16165368Y-16353081D01*
X16165368Y-16353081D02*
X16174892Y-16372128D01*
X16174892Y-16372128D02*
X16193939Y-16381652D01*
X16193939Y-16381652D02*
X16212987Y-16381652D01*
X16355844Y-16372128D02*
X16336796Y-16381652D01*
X16336796Y-16381652D02*
X16298701Y-16381652D01*
X16298701Y-16381652D02*
X16279654Y-16372128D01*
X16279654Y-16372128D02*
X16270130Y-16353081D01*
X16270130Y-16353081D02*
X16270130Y-16276890D01*
X16270130Y-16276890D02*
X16279654Y-16257843D01*
X16279654Y-16257843D02*
X16298701Y-16248319D01*
X16298701Y-16248319D02*
X16336796Y-16248319D01*
X16336796Y-16248319D02*
X16355844Y-16257843D01*
X16355844Y-16257843D02*
X16365368Y-16276890D01*
X16365368Y-16276890D02*
X16365368Y-16295938D01*
X16365368Y-16295938D02*
X16270130Y-16314986D01*
X16536796Y-16381652D02*
X16536796Y-16181652D01*
X16536796Y-16372128D02*
X16517749Y-16381652D01*
X16517749Y-16381652D02*
X16479654Y-16381652D01*
X16479654Y-16381652D02*
X16460606Y-16372128D01*
X16460606Y-16372128D02*
X16451082Y-16362605D01*
X16451082Y-16362605D02*
X16441558Y-16343557D01*
X16441558Y-16343557D02*
X16441558Y-16286414D01*
X16441558Y-16286414D02*
X16451082Y-16267366D01*
X16451082Y-16267366D02*
X16460606Y-16257843D01*
X16460606Y-16257843D02*
X16479654Y-16248319D01*
X16479654Y-16248319D02*
X16517749Y-16248319D01*
X16517749Y-16248319D02*
X16536796Y-16257843D01*
X16612987Y-16457843D02*
X16622511Y-16448319D01*
X16622511Y-16448319D02*
X16641558Y-16419747D01*
X16641558Y-16419747D02*
X16651082Y-16400700D01*
X16651082Y-16400700D02*
X16660606Y-16372128D01*
X16660606Y-16372128D02*
X16670130Y-16324509D01*
X16670130Y-16324509D02*
X16670130Y-16286414D01*
X16670130Y-16286414D02*
X16660606Y-16238795D01*
X16660606Y-16238795D02*
X16651082Y-16210224D01*
X16651082Y-16210224D02*
X16641558Y-16191176D01*
X16641558Y-16191176D02*
X16622511Y-16162605D01*
X16622511Y-16162605D02*
X16612987Y-16153081D01*
M02*
