M48
; DRILL file {KiCad 8.0.2} date 2024-06-06T11:53:56+0700
; FORMAT={-:-/ absolute / metric / decimal}
; #@! TF.CreationDate,2024-06-06T11:53:56+07:00
; #@! TF.GenerationSoftware,Kicad,Pcbnew,8.0.2
; #@! TF.FileFunction,MixedPlating,1,2
FMAT,2
METRIC
; #@! TA.AperFunction,Plated,PTH,ViaDrill
T1C0.300
; #@! TA.AperFunction,Plated,PTH,ViaDrill
T2C0.500
; #@! TA.AperFunction,Plated,PTH,ViaDrill
T3C0.600
; #@! TA.AperFunction,Plated,PTH,ComponentDrill
T4C0.800
; #@! TA.AperFunction,Plated,PTH,ComponentDrill
T5C1.000
; #@! TA.AperFunction,Plated,PTH,ComponentDrill
T6C1.050
; #@! TA.AperFunction,Plated,PTH,ComponentDrill
T7C1.600
; #@! TA.AperFunction,NonPlated,NPTH,ComponentDrill
T8C3.000
%
G90
G05
T1
X107.442Y-111.125
X111.0Y-89.25
X111.194Y-77.512
X115.0Y-92.0
X119.576Y-77.512
X123.64Y-112.818
X124.91Y-77.512
X133.91Y-112.98
X135.67Y-116.7
X136.848Y-102.15
X143.29Y-105.0
X148.5Y-101.5
X175.456Y-126.28
X177.996Y-130.115
X177.996Y-133.9
X178.022Y-132.655
X178.25Y-128.82
X180.39Y-124.57
X180.435Y-131.512
X183.026Y-127.55
X183.076Y-126.28
X183.178Y-132.579
X183.203Y-128.82
X185.422Y-128.88
X185.572Y-130.92
X185.674Y-133.12
X188.341Y-129.55
X188.79Y-136.83
X190.83Y-134.86
X198.7Y-136.19
T2
X143.28Y-102.485
T3
X180.34Y-105.664
T4
X111.956Y-103.166
X111.956Y-106.722
X111.956Y-110.278
X120.592Y-115.104
X120.592Y-122.724
X122.116Y-103.166
X122.116Y-106.722
X122.116Y-110.278
X123.132Y-115.104
X123.132Y-122.724
X125.672Y-115.104
X125.672Y-122.724
X126.434Y-106.246
X126.434Y-108.246
X128.212Y-115.104
X128.212Y-122.724
X130.752Y-115.104
X130.752Y-122.724
X133.292Y-115.104
X133.292Y-122.724
X135.832Y-115.104
X135.832Y-122.724
X136.166Y-131.106
X138.372Y-115.104
X138.372Y-122.724
X138.572Y-127.042
X138.666Y-131.106
X140.912Y-115.104
X140.912Y-122.724
X143.452Y-115.104
X143.452Y-122.724
X143.452Y-127.042
X143.492Y-131.106
X144.722Y-103.928
X144.722Y-105.928
X145.23Y-109.516
X145.23Y-111.516
X145.992Y-115.104
X145.992Y-122.724
X145.992Y-131.106
X148.532Y-115.104
X148.532Y-122.724
X151.072Y-115.104
X151.072Y-122.724
X153.612Y-115.104
X153.612Y-122.724
X160.47Y-112.056
X160.47Y-115.866
X160.47Y-120.692
X160.47Y-124.248
X160.47Y-128.058
X160.47Y-131.36
X160.47Y-134.916
X170.63Y-112.056
X170.63Y-115.866
X170.63Y-120.692
X170.63Y-124.248
X170.63Y-128.058
X170.63Y-131.36
X170.63Y-134.916
X179.536Y-120.692
X181.536Y-120.692
T5
X105.623Y-82.926
X105.623Y-85.426
X105.623Y-87.926
X105.623Y-90.426
X105.75Y-97.99
X105.75Y-100.49
X105.75Y-102.99
X105.75Y-105.49
X105.75Y-107.99
X109.67Y-66.456
X109.67Y-68.956
X109.67Y-71.456
X109.67Y-73.956
X112.26Y-80.052
X112.26Y-97.832
X112.447Y-117.45
X112.447Y-119.95
X112.447Y-122.45
X112.447Y-124.95
X114.8Y-80.052
X114.8Y-97.832
X116.782Y-66.456
X116.782Y-68.956
X116.782Y-71.456
X116.782Y-73.956
X117.34Y-80.052
X117.34Y-97.832
X119.88Y-80.052
X119.88Y-97.832
X122.42Y-80.052
X122.42Y-97.832
X123.894Y-66.456
X123.894Y-68.956
X123.894Y-71.456
X123.894Y-73.956
X124.96Y-80.052
X124.96Y-97.832
X127.5Y-80.052
X127.5Y-97.832
X130.04Y-80.052
X130.04Y-97.832
X131.006Y-66.456
X131.006Y-68.956
X131.006Y-71.456
X131.006Y-73.956
X132.58Y-80.052
X132.58Y-97.832
X135.12Y-80.052
X135.12Y-97.832
X137.66Y-80.052
X137.66Y-97.832
X138.118Y-66.456
X138.118Y-68.956
X138.118Y-71.456
X138.118Y-73.956
X140.2Y-80.052
X140.2Y-97.832
X145.23Y-66.456
X145.23Y-68.956
X145.23Y-71.456
X145.23Y-73.956
X151.3Y-65.42
X151.3Y-83.2
X151.37Y-87.94
X151.37Y-105.72
X191.94Y-65.42
X191.94Y-83.2
X192.01Y-87.94
X192.01Y-105.72
X197.5Y-73.041
X200.0Y-73.041
T6
X197.34Y-81.068
X199.84Y-81.068
T7
X198.57Y-87.672
X198.57Y-102.912
T8
X102.595Y-67.837
X103.595Y-127.837
X145.595Y-87.837
X183.595Y-112.837
T5
G00X191.799Y-115.428
M15
G01X191.799Y-113.428
M16
G05
G00X195.799Y-109.728
M15
G01X193.799Y-109.728
M16
G05
G00X197.799Y-115.428
M15
G01X197.799Y-113.428
M16
G05
M30
