%TF.GenerationSoftware,KiCad,Pcbnew,7.0.9*%
%TF.CreationDate,2023-12-29T10:55:07+07:00*%
%TF.ProjectId,incuTester,696e6375-5465-4737-9465-722e6b696361,rev?*%
%TF.SameCoordinates,Original*%
%TF.FileFunction,AssemblyDrawing,Top*%
%FSLAX46Y46*%
G04 Gerber Fmt 4.6, Leading zero omitted, Abs format (unit mm)*
G04 Created by KiCad (PCBNEW 7.0.9) date 2023-12-29 10:55:07*
%MOMM*%
%LPD*%
G01*
G04 APERTURE LIST*
%ADD10C,0.150000*%
%ADD11C,0.100000*%
%TA.AperFunction,Profile*%
%ADD12C,0.100000*%
%TD*%
G04 APERTURE END LIST*
D10*
X137240000Y-64249104D02*
X137716190Y-64249104D01*
X137144762Y-64534819D02*
X137478095Y-63534819D01*
X137478095Y-63534819D02*
X137811428Y-64534819D01*
X138144762Y-64534819D02*
X138144762Y-63534819D01*
X138144762Y-63534819D02*
X138478095Y-64249104D01*
X138478095Y-64249104D02*
X138811428Y-63534819D01*
X138811428Y-63534819D02*
X138811428Y-64534819D01*
X139240000Y-64487200D02*
X139382857Y-64534819D01*
X139382857Y-64534819D02*
X139620952Y-64534819D01*
X139620952Y-64534819D02*
X139716190Y-64487200D01*
X139716190Y-64487200D02*
X139763809Y-64439580D01*
X139763809Y-64439580D02*
X139811428Y-64344342D01*
X139811428Y-64344342D02*
X139811428Y-64249104D01*
X139811428Y-64249104D02*
X139763809Y-64153866D01*
X139763809Y-64153866D02*
X139716190Y-64106247D01*
X139716190Y-64106247D02*
X139620952Y-64058628D01*
X139620952Y-64058628D02*
X139430476Y-64011009D01*
X139430476Y-64011009D02*
X139335238Y-63963390D01*
X139335238Y-63963390D02*
X139287619Y-63915771D01*
X139287619Y-63915771D02*
X139240000Y-63820533D01*
X139240000Y-63820533D02*
X139240000Y-63725295D01*
X139240000Y-63725295D02*
X139287619Y-63630057D01*
X139287619Y-63630057D02*
X139335238Y-63582438D01*
X139335238Y-63582438D02*
X139430476Y-63534819D01*
X139430476Y-63534819D02*
X139668571Y-63534819D01*
X139668571Y-63534819D02*
X139811428Y-63582438D01*
X140763809Y-64534819D02*
X140192381Y-64534819D01*
X140478095Y-64534819D02*
X140478095Y-63534819D01*
X140478095Y-63534819D02*
X140382857Y-63677676D01*
X140382857Y-63677676D02*
X140287619Y-63772914D01*
X140287619Y-63772914D02*
X140192381Y-63820533D01*
X141716190Y-64534819D02*
X141144762Y-64534819D01*
X141430476Y-64534819D02*
X141430476Y-63534819D01*
X141430476Y-63534819D02*
X141335238Y-63677676D01*
X141335238Y-63677676D02*
X141240000Y-63772914D01*
X141240000Y-63772914D02*
X141144762Y-63820533D01*
X142668571Y-64534819D02*
X142097143Y-64534819D01*
X142382857Y-64534819D02*
X142382857Y-63534819D01*
X142382857Y-63534819D02*
X142287619Y-63677676D01*
X142287619Y-63677676D02*
X142192381Y-63772914D01*
X142192381Y-63772914D02*
X142097143Y-63820533D01*
X143001905Y-63534819D02*
X143668571Y-63534819D01*
X143668571Y-63534819D02*
X143240000Y-64534819D01*
X144049524Y-64153866D02*
X144811429Y-64153866D01*
X145192381Y-63534819D02*
X145811428Y-63534819D01*
X145811428Y-63534819D02*
X145478095Y-63915771D01*
X145478095Y-63915771D02*
X145620952Y-63915771D01*
X145620952Y-63915771D02*
X145716190Y-63963390D01*
X145716190Y-63963390D02*
X145763809Y-64011009D01*
X145763809Y-64011009D02*
X145811428Y-64106247D01*
X145811428Y-64106247D02*
X145811428Y-64344342D01*
X145811428Y-64344342D02*
X145763809Y-64439580D01*
X145763809Y-64439580D02*
X145716190Y-64487200D01*
X145716190Y-64487200D02*
X145620952Y-64534819D01*
X145620952Y-64534819D02*
X145335238Y-64534819D01*
X145335238Y-64534819D02*
X145240000Y-64487200D01*
X145240000Y-64487200D02*
X145192381Y-64439580D01*
X146240000Y-64439580D02*
X146287619Y-64487200D01*
X146287619Y-64487200D02*
X146240000Y-64534819D01*
X146240000Y-64534819D02*
X146192381Y-64487200D01*
X146192381Y-64487200D02*
X146240000Y-64439580D01*
X146240000Y-64439580D02*
X146240000Y-64534819D01*
X146620952Y-63534819D02*
X147239999Y-63534819D01*
X147239999Y-63534819D02*
X146906666Y-63915771D01*
X146906666Y-63915771D02*
X147049523Y-63915771D01*
X147049523Y-63915771D02*
X147144761Y-63963390D01*
X147144761Y-63963390D02*
X147192380Y-64011009D01*
X147192380Y-64011009D02*
X147239999Y-64106247D01*
X147239999Y-64106247D02*
X147239999Y-64344342D01*
X147239999Y-64344342D02*
X147192380Y-64439580D01*
X147192380Y-64439580D02*
X147144761Y-64487200D01*
X147144761Y-64487200D02*
X147049523Y-64534819D01*
X147049523Y-64534819D02*
X146763809Y-64534819D01*
X146763809Y-64534819D02*
X146668571Y-64487200D01*
X146668571Y-64487200D02*
X146620952Y-64439580D01*
X157764819Y-97186666D02*
X157764819Y-97758094D01*
X157764819Y-97472380D02*
X156764819Y-97472380D01*
X156764819Y-97472380D02*
X156907676Y-97567618D01*
X156907676Y-97567618D02*
X157002914Y-97662856D01*
X157002914Y-97662856D02*
X157050533Y-97758094D01*
X156764819Y-96567618D02*
X156764819Y-96472380D01*
X156764819Y-96472380D02*
X156812438Y-96377142D01*
X156812438Y-96377142D02*
X156860057Y-96329523D01*
X156860057Y-96329523D02*
X156955295Y-96281904D01*
X156955295Y-96281904D02*
X157145771Y-96234285D01*
X157145771Y-96234285D02*
X157383866Y-96234285D01*
X157383866Y-96234285D02*
X157574342Y-96281904D01*
X157574342Y-96281904D02*
X157669580Y-96329523D01*
X157669580Y-96329523D02*
X157717200Y-96377142D01*
X157717200Y-96377142D02*
X157764819Y-96472380D01*
X157764819Y-96472380D02*
X157764819Y-96567618D01*
X157764819Y-96567618D02*
X157717200Y-96662856D01*
X157717200Y-96662856D02*
X157669580Y-96710475D01*
X157669580Y-96710475D02*
X157574342Y-96758094D01*
X157574342Y-96758094D02*
X157383866Y-96805713D01*
X157383866Y-96805713D02*
X157145771Y-96805713D01*
X157145771Y-96805713D02*
X156955295Y-96758094D01*
X156955295Y-96758094D02*
X156860057Y-96710475D01*
X156860057Y-96710475D02*
X156812438Y-96662856D01*
X156812438Y-96662856D02*
X156764819Y-96567618D01*
X156764819Y-95615237D02*
X156764819Y-95519999D01*
X156764819Y-95519999D02*
X156812438Y-95424761D01*
X156812438Y-95424761D02*
X156860057Y-95377142D01*
X156860057Y-95377142D02*
X156955295Y-95329523D01*
X156955295Y-95329523D02*
X157145771Y-95281904D01*
X157145771Y-95281904D02*
X157383866Y-95281904D01*
X157383866Y-95281904D02*
X157574342Y-95329523D01*
X157574342Y-95329523D02*
X157669580Y-95377142D01*
X157669580Y-95377142D02*
X157717200Y-95424761D01*
X157717200Y-95424761D02*
X157764819Y-95519999D01*
X157764819Y-95519999D02*
X157764819Y-95615237D01*
X157764819Y-95615237D02*
X157717200Y-95710475D01*
X157717200Y-95710475D02*
X157669580Y-95758094D01*
X157669580Y-95758094D02*
X157574342Y-95805713D01*
X157574342Y-95805713D02*
X157383866Y-95853332D01*
X157383866Y-95853332D02*
X157145771Y-95853332D01*
X157145771Y-95853332D02*
X156955295Y-95805713D01*
X156955295Y-95805713D02*
X156860057Y-95758094D01*
X156860057Y-95758094D02*
X156812438Y-95710475D01*
X156812438Y-95710475D02*
X156764819Y-95615237D01*
X174258009Y-130659047D02*
X174305628Y-130516190D01*
X174305628Y-130516190D02*
X174353247Y-130468571D01*
X174353247Y-130468571D02*
X174448485Y-130420952D01*
X174448485Y-130420952D02*
X174591342Y-130420952D01*
X174591342Y-130420952D02*
X174686580Y-130468571D01*
X174686580Y-130468571D02*
X174734200Y-130516190D01*
X174734200Y-130516190D02*
X174781819Y-130611428D01*
X174781819Y-130611428D02*
X174781819Y-130992380D01*
X174781819Y-130992380D02*
X173781819Y-130992380D01*
X173781819Y-130992380D02*
X173781819Y-130659047D01*
X173781819Y-130659047D02*
X173829438Y-130563809D01*
X173829438Y-130563809D02*
X173877057Y-130516190D01*
X173877057Y-130516190D02*
X173972295Y-130468571D01*
X173972295Y-130468571D02*
X174067533Y-130468571D01*
X174067533Y-130468571D02*
X174162771Y-130516190D01*
X174162771Y-130516190D02*
X174210390Y-130563809D01*
X174210390Y-130563809D02*
X174258009Y-130659047D01*
X174258009Y-130659047D02*
X174258009Y-130992380D01*
X174496104Y-130039999D02*
X174496104Y-129563809D01*
X174781819Y-130135237D02*
X173781819Y-129801904D01*
X173781819Y-129801904D02*
X174781819Y-129468571D01*
X173781819Y-129278094D02*
X173781819Y-128706666D01*
X174781819Y-128992380D02*
X173781819Y-128992380D01*
X173781819Y-128516189D02*
X173781819Y-127944761D01*
X174781819Y-128230475D02*
X173781819Y-128230475D01*
X155480057Y-123861904D02*
X155432438Y-123814285D01*
X155432438Y-123814285D02*
X155384819Y-123719047D01*
X155384819Y-123719047D02*
X155384819Y-123480952D01*
X155384819Y-123480952D02*
X155432438Y-123385714D01*
X155432438Y-123385714D02*
X155480057Y-123338095D01*
X155480057Y-123338095D02*
X155575295Y-123290476D01*
X155575295Y-123290476D02*
X155670533Y-123290476D01*
X155670533Y-123290476D02*
X155813390Y-123338095D01*
X155813390Y-123338095D02*
X156384819Y-123909523D01*
X156384819Y-123909523D02*
X156384819Y-123290476D01*
X155480057Y-122909523D02*
X155432438Y-122861904D01*
X155432438Y-122861904D02*
X155384819Y-122766666D01*
X155384819Y-122766666D02*
X155384819Y-122528571D01*
X155384819Y-122528571D02*
X155432438Y-122433333D01*
X155432438Y-122433333D02*
X155480057Y-122385714D01*
X155480057Y-122385714D02*
X155575295Y-122338095D01*
X155575295Y-122338095D02*
X155670533Y-122338095D01*
X155670533Y-122338095D02*
X155813390Y-122385714D01*
X155813390Y-122385714D02*
X156384819Y-122957142D01*
X156384819Y-122957142D02*
X156384819Y-122338095D01*
X156384819Y-121909523D02*
X155384819Y-121909523D01*
X156384819Y-121338095D02*
X155813390Y-121766666D01*
X155384819Y-121338095D02*
X155956247Y-121909523D01*
X148561905Y-121579104D02*
X149038095Y-121579104D01*
X148466667Y-121864819D02*
X148800000Y-120864819D01*
X148800000Y-120864819D02*
X149133333Y-121864819D01*
X149466667Y-120864819D02*
X149466667Y-121674342D01*
X149466667Y-121674342D02*
X149514286Y-121769580D01*
X149514286Y-121769580D02*
X149561905Y-121817200D01*
X149561905Y-121817200D02*
X149657143Y-121864819D01*
X149657143Y-121864819D02*
X149847619Y-121864819D01*
X149847619Y-121864819D02*
X149942857Y-121817200D01*
X149942857Y-121817200D02*
X149990476Y-121769580D01*
X149990476Y-121769580D02*
X150038095Y-121674342D01*
X150038095Y-121674342D02*
X150038095Y-120864819D01*
X150419048Y-120864819D02*
X151085714Y-121864819D01*
X151085714Y-120864819D02*
X150419048Y-121864819D01*
X174109523Y-67354819D02*
X173538095Y-67354819D01*
X173823809Y-67354819D02*
X173823809Y-66354819D01*
X173823809Y-66354819D02*
X173728571Y-66497676D01*
X173728571Y-66497676D02*
X173633333Y-66592914D01*
X173633333Y-66592914D02*
X173538095Y-66640533D01*
X174728571Y-66354819D02*
X174823809Y-66354819D01*
X174823809Y-66354819D02*
X174919047Y-66402438D01*
X174919047Y-66402438D02*
X174966666Y-66450057D01*
X174966666Y-66450057D02*
X175014285Y-66545295D01*
X175014285Y-66545295D02*
X175061904Y-66735771D01*
X175061904Y-66735771D02*
X175061904Y-66973866D01*
X175061904Y-66973866D02*
X175014285Y-67164342D01*
X175014285Y-67164342D02*
X174966666Y-67259580D01*
X174966666Y-67259580D02*
X174919047Y-67307200D01*
X174919047Y-67307200D02*
X174823809Y-67354819D01*
X174823809Y-67354819D02*
X174728571Y-67354819D01*
X174728571Y-67354819D02*
X174633333Y-67307200D01*
X174633333Y-67307200D02*
X174585714Y-67259580D01*
X174585714Y-67259580D02*
X174538095Y-67164342D01*
X174538095Y-67164342D02*
X174490476Y-66973866D01*
X174490476Y-66973866D02*
X174490476Y-66735771D01*
X174490476Y-66735771D02*
X174538095Y-66545295D01*
X174538095Y-66545295D02*
X174585714Y-66450057D01*
X174585714Y-66450057D02*
X174633333Y-66402438D01*
X174633333Y-66402438D02*
X174728571Y-66354819D01*
X175490476Y-67354819D02*
X175490476Y-66354819D01*
X176061904Y-67354819D02*
X175633333Y-66783390D01*
X176061904Y-66354819D02*
X175490476Y-66926247D01*
X191900000Y-127307200D02*
X192042857Y-127354819D01*
X192042857Y-127354819D02*
X192280952Y-127354819D01*
X192280952Y-127354819D02*
X192376190Y-127307200D01*
X192376190Y-127307200D02*
X192423809Y-127259580D01*
X192423809Y-127259580D02*
X192471428Y-127164342D01*
X192471428Y-127164342D02*
X192471428Y-127069104D01*
X192471428Y-127069104D02*
X192423809Y-126973866D01*
X192423809Y-126973866D02*
X192376190Y-126926247D01*
X192376190Y-126926247D02*
X192280952Y-126878628D01*
X192280952Y-126878628D02*
X192090476Y-126831009D01*
X192090476Y-126831009D02*
X191995238Y-126783390D01*
X191995238Y-126783390D02*
X191947619Y-126735771D01*
X191947619Y-126735771D02*
X191900000Y-126640533D01*
X191900000Y-126640533D02*
X191900000Y-126545295D01*
X191900000Y-126545295D02*
X191947619Y-126450057D01*
X191947619Y-126450057D02*
X191995238Y-126402438D01*
X191995238Y-126402438D02*
X192090476Y-126354819D01*
X192090476Y-126354819D02*
X192328571Y-126354819D01*
X192328571Y-126354819D02*
X192471428Y-126402438D01*
X192804762Y-126354819D02*
X193042857Y-127354819D01*
X193042857Y-127354819D02*
X193233333Y-126640533D01*
X193233333Y-126640533D02*
X193423809Y-127354819D01*
X193423809Y-127354819D02*
X193661905Y-126354819D01*
X194042857Y-127354819D02*
X194042857Y-126354819D01*
X194376190Y-126354819D02*
X194947618Y-126354819D01*
X194661904Y-127354819D02*
X194661904Y-126354819D01*
X195852380Y-127259580D02*
X195804761Y-127307200D01*
X195804761Y-127307200D02*
X195661904Y-127354819D01*
X195661904Y-127354819D02*
X195566666Y-127354819D01*
X195566666Y-127354819D02*
X195423809Y-127307200D01*
X195423809Y-127307200D02*
X195328571Y-127211961D01*
X195328571Y-127211961D02*
X195280952Y-127116723D01*
X195280952Y-127116723D02*
X195233333Y-126926247D01*
X195233333Y-126926247D02*
X195233333Y-126783390D01*
X195233333Y-126783390D02*
X195280952Y-126592914D01*
X195280952Y-126592914D02*
X195328571Y-126497676D01*
X195328571Y-126497676D02*
X195423809Y-126402438D01*
X195423809Y-126402438D02*
X195566666Y-126354819D01*
X195566666Y-126354819D02*
X195661904Y-126354819D01*
X195661904Y-126354819D02*
X195804761Y-126402438D01*
X195804761Y-126402438D02*
X195852380Y-126450057D01*
X196280952Y-127354819D02*
X196280952Y-126354819D01*
X196280952Y-126831009D02*
X196852380Y-126831009D01*
X196852380Y-127354819D02*
X196852380Y-126354819D01*
X204252381Y-118554819D02*
X204347619Y-118554819D01*
X204347619Y-118554819D02*
X204442857Y-118602438D01*
X204442857Y-118602438D02*
X204490476Y-118650057D01*
X204490476Y-118650057D02*
X204538095Y-118745295D01*
X204538095Y-118745295D02*
X204585714Y-118935771D01*
X204585714Y-118935771D02*
X204585714Y-119173866D01*
X204585714Y-119173866D02*
X204538095Y-119364342D01*
X204538095Y-119364342D02*
X204490476Y-119459580D01*
X204490476Y-119459580D02*
X204442857Y-119507200D01*
X204442857Y-119507200D02*
X204347619Y-119554819D01*
X204347619Y-119554819D02*
X204252381Y-119554819D01*
X204252381Y-119554819D02*
X204157143Y-119507200D01*
X204157143Y-119507200D02*
X204109524Y-119459580D01*
X204109524Y-119459580D02*
X204061905Y-119364342D01*
X204061905Y-119364342D02*
X204014286Y-119173866D01*
X204014286Y-119173866D02*
X204014286Y-118935771D01*
X204014286Y-118935771D02*
X204061905Y-118745295D01*
X204061905Y-118745295D02*
X204109524Y-118650057D01*
X204109524Y-118650057D02*
X204157143Y-118602438D01*
X204157143Y-118602438D02*
X204252381Y-118554819D01*
X205014286Y-119459580D02*
X205061905Y-119507200D01*
X205061905Y-119507200D02*
X205014286Y-119554819D01*
X205014286Y-119554819D02*
X204966667Y-119507200D01*
X204966667Y-119507200D02*
X205014286Y-119459580D01*
X205014286Y-119459580D02*
X205014286Y-119554819D01*
X206014285Y-119554819D02*
X205442857Y-119554819D01*
X205728571Y-119554819D02*
X205728571Y-118554819D01*
X205728571Y-118554819D02*
X205633333Y-118697676D01*
X205633333Y-118697676D02*
X205538095Y-118792914D01*
X205538095Y-118792914D02*
X205442857Y-118840533D01*
X206871428Y-118888152D02*
X206871428Y-119554819D01*
X206442857Y-118888152D02*
X206442857Y-119411961D01*
X206442857Y-119411961D02*
X206490476Y-119507200D01*
X206490476Y-119507200D02*
X206585714Y-119554819D01*
X206585714Y-119554819D02*
X206728571Y-119554819D01*
X206728571Y-119554819D02*
X206823809Y-119507200D01*
X206823809Y-119507200D02*
X206871428Y-119459580D01*
X207680952Y-119031009D02*
X207347619Y-119031009D01*
X207347619Y-119554819D02*
X207347619Y-118554819D01*
X207347619Y-118554819D02*
X207823809Y-118554819D01*
X208919047Y-118507200D02*
X208061905Y-119792914D01*
X209776190Y-119554819D02*
X209204762Y-119554819D01*
X209490476Y-119554819D02*
X209490476Y-118554819D01*
X209490476Y-118554819D02*
X209395238Y-118697676D01*
X209395238Y-118697676D02*
X209300000Y-118792914D01*
X209300000Y-118792914D02*
X209204762Y-118840533D01*
X210395238Y-118554819D02*
X210490476Y-118554819D01*
X210490476Y-118554819D02*
X210585714Y-118602438D01*
X210585714Y-118602438D02*
X210633333Y-118650057D01*
X210633333Y-118650057D02*
X210680952Y-118745295D01*
X210680952Y-118745295D02*
X210728571Y-118935771D01*
X210728571Y-118935771D02*
X210728571Y-119173866D01*
X210728571Y-119173866D02*
X210680952Y-119364342D01*
X210680952Y-119364342D02*
X210633333Y-119459580D01*
X210633333Y-119459580D02*
X210585714Y-119507200D01*
X210585714Y-119507200D02*
X210490476Y-119554819D01*
X210490476Y-119554819D02*
X210395238Y-119554819D01*
X210395238Y-119554819D02*
X210300000Y-119507200D01*
X210300000Y-119507200D02*
X210252381Y-119459580D01*
X210252381Y-119459580D02*
X210204762Y-119364342D01*
X210204762Y-119364342D02*
X210157143Y-119173866D01*
X210157143Y-119173866D02*
X210157143Y-118935771D01*
X210157143Y-118935771D02*
X210204762Y-118745295D01*
X210204762Y-118745295D02*
X210252381Y-118650057D01*
X210252381Y-118650057D02*
X210300000Y-118602438D01*
X210300000Y-118602438D02*
X210395238Y-118554819D01*
X211014286Y-118554819D02*
X211347619Y-119554819D01*
X211347619Y-119554819D02*
X211680952Y-118554819D01*
X102524819Y-96761904D02*
X102524819Y-96190476D01*
X103524819Y-96476190D02*
X102524819Y-96476190D01*
X102524819Y-95380952D02*
X102524819Y-95857142D01*
X102524819Y-95857142D02*
X103001009Y-95904761D01*
X103001009Y-95904761D02*
X102953390Y-95857142D01*
X102953390Y-95857142D02*
X102905771Y-95761904D01*
X102905771Y-95761904D02*
X102905771Y-95523809D01*
X102905771Y-95523809D02*
X102953390Y-95428571D01*
X102953390Y-95428571D02*
X103001009Y-95380952D01*
X103001009Y-95380952D02*
X103096247Y-95333333D01*
X103096247Y-95333333D02*
X103334342Y-95333333D01*
X103334342Y-95333333D02*
X103429580Y-95380952D01*
X103429580Y-95380952D02*
X103477200Y-95428571D01*
X103477200Y-95428571D02*
X103524819Y-95523809D01*
X103524819Y-95523809D02*
X103524819Y-95761904D01*
X103524819Y-95761904D02*
X103477200Y-95857142D01*
X103477200Y-95857142D02*
X103429580Y-95904761D01*
X102534819Y-108881904D02*
X102534819Y-108310476D01*
X103534819Y-108596190D02*
X102534819Y-108596190D01*
X102534819Y-108072380D02*
X102534819Y-107405714D01*
X102534819Y-107405714D02*
X103534819Y-107834285D01*
X191724819Y-101440951D02*
X190724819Y-101440951D01*
X190724819Y-101440951D02*
X190724819Y-101202856D01*
X190724819Y-101202856D02*
X190772438Y-101059999D01*
X190772438Y-101059999D02*
X190867676Y-100964761D01*
X190867676Y-100964761D02*
X190962914Y-100917142D01*
X190962914Y-100917142D02*
X191153390Y-100869523D01*
X191153390Y-100869523D02*
X191296247Y-100869523D01*
X191296247Y-100869523D02*
X191486723Y-100917142D01*
X191486723Y-100917142D02*
X191581961Y-100964761D01*
X191581961Y-100964761D02*
X191677200Y-101059999D01*
X191677200Y-101059999D02*
X191724819Y-101202856D01*
X191724819Y-101202856D02*
X191724819Y-101440951D01*
X191629580Y-99869523D02*
X191677200Y-99917142D01*
X191677200Y-99917142D02*
X191724819Y-100059999D01*
X191724819Y-100059999D02*
X191724819Y-100155237D01*
X191724819Y-100155237D02*
X191677200Y-100298094D01*
X191677200Y-100298094D02*
X191581961Y-100393332D01*
X191581961Y-100393332D02*
X191486723Y-100440951D01*
X191486723Y-100440951D02*
X191296247Y-100488570D01*
X191296247Y-100488570D02*
X191153390Y-100488570D01*
X191153390Y-100488570D02*
X190962914Y-100440951D01*
X190962914Y-100440951D02*
X190867676Y-100393332D01*
X190867676Y-100393332D02*
X190772438Y-100298094D01*
X190772438Y-100298094D02*
X190724819Y-100155237D01*
X190724819Y-100155237D02*
X190724819Y-100059999D01*
X190724819Y-100059999D02*
X190772438Y-99917142D01*
X190772438Y-99917142D02*
X190820057Y-99869523D01*
X191343866Y-99440951D02*
X191343866Y-98679047D01*
X191724819Y-98202856D02*
X190724819Y-98202856D01*
X190724819Y-98202856D02*
X190724819Y-97964761D01*
X190724819Y-97964761D02*
X190772438Y-97821904D01*
X190772438Y-97821904D02*
X190867676Y-97726666D01*
X190867676Y-97726666D02*
X190962914Y-97679047D01*
X190962914Y-97679047D02*
X191153390Y-97631428D01*
X191153390Y-97631428D02*
X191296247Y-97631428D01*
X191296247Y-97631428D02*
X191486723Y-97679047D01*
X191486723Y-97679047D02*
X191581961Y-97726666D01*
X191581961Y-97726666D02*
X191677200Y-97821904D01*
X191677200Y-97821904D02*
X191724819Y-97964761D01*
X191724819Y-97964761D02*
X191724819Y-98202856D01*
X191629580Y-96631428D02*
X191677200Y-96679047D01*
X191677200Y-96679047D02*
X191724819Y-96821904D01*
X191724819Y-96821904D02*
X191724819Y-96917142D01*
X191724819Y-96917142D02*
X191677200Y-97059999D01*
X191677200Y-97059999D02*
X191581961Y-97155237D01*
X191581961Y-97155237D02*
X191486723Y-97202856D01*
X191486723Y-97202856D02*
X191296247Y-97250475D01*
X191296247Y-97250475D02*
X191153390Y-97250475D01*
X191153390Y-97250475D02*
X190962914Y-97202856D01*
X190962914Y-97202856D02*
X190867676Y-97155237D01*
X190867676Y-97155237D02*
X190772438Y-97059999D01*
X190772438Y-97059999D02*
X190724819Y-96917142D01*
X190724819Y-96917142D02*
X190724819Y-96821904D01*
X190724819Y-96821904D02*
X190772438Y-96679047D01*
X190772438Y-96679047D02*
X190820057Y-96631428D01*
X126960952Y-82465819D02*
X127532380Y-82465819D01*
X127246666Y-83465819D02*
X127246666Y-82465819D01*
X128437142Y-83370580D02*
X128389523Y-83418200D01*
X128389523Y-83418200D02*
X128246666Y-83465819D01*
X128246666Y-83465819D02*
X128151428Y-83465819D01*
X128151428Y-83465819D02*
X128008571Y-83418200D01*
X128008571Y-83418200D02*
X127913333Y-83322961D01*
X127913333Y-83322961D02*
X127865714Y-83227723D01*
X127865714Y-83227723D02*
X127818095Y-83037247D01*
X127818095Y-83037247D02*
X127818095Y-82894390D01*
X127818095Y-82894390D02*
X127865714Y-82703914D01*
X127865714Y-82703914D02*
X127913333Y-82608676D01*
X127913333Y-82608676D02*
X128008571Y-82513438D01*
X128008571Y-82513438D02*
X128151428Y-82465819D01*
X128151428Y-82465819D02*
X128246666Y-82465819D01*
X128246666Y-82465819D02*
X128389523Y-82513438D01*
X128389523Y-82513438D02*
X128437142Y-82561057D01*
X128818095Y-83180104D02*
X129294285Y-83180104D01*
X128722857Y-83465819D02*
X129056190Y-82465819D01*
X129056190Y-82465819D02*
X129389523Y-83465819D01*
X129770476Y-83465819D02*
X129960952Y-83465819D01*
X129960952Y-83465819D02*
X130056190Y-83418200D01*
X130056190Y-83418200D02*
X130103809Y-83370580D01*
X130103809Y-83370580D02*
X130199047Y-83227723D01*
X130199047Y-83227723D02*
X130246666Y-83037247D01*
X130246666Y-83037247D02*
X130246666Y-82656295D01*
X130246666Y-82656295D02*
X130199047Y-82561057D01*
X130199047Y-82561057D02*
X130151428Y-82513438D01*
X130151428Y-82513438D02*
X130056190Y-82465819D01*
X130056190Y-82465819D02*
X129865714Y-82465819D01*
X129865714Y-82465819D02*
X129770476Y-82513438D01*
X129770476Y-82513438D02*
X129722857Y-82561057D01*
X129722857Y-82561057D02*
X129675238Y-82656295D01*
X129675238Y-82656295D02*
X129675238Y-82894390D01*
X129675238Y-82894390D02*
X129722857Y-82989628D01*
X129722857Y-82989628D02*
X129770476Y-83037247D01*
X129770476Y-83037247D02*
X129865714Y-83084866D01*
X129865714Y-83084866D02*
X130056190Y-83084866D01*
X130056190Y-83084866D02*
X130151428Y-83037247D01*
X130151428Y-83037247D02*
X130199047Y-82989628D01*
X130199047Y-82989628D02*
X130246666Y-82894390D01*
X131151428Y-82465819D02*
X130675238Y-82465819D01*
X130675238Y-82465819D02*
X130627619Y-82942009D01*
X130627619Y-82942009D02*
X130675238Y-82894390D01*
X130675238Y-82894390D02*
X130770476Y-82846771D01*
X130770476Y-82846771D02*
X131008571Y-82846771D01*
X131008571Y-82846771D02*
X131103809Y-82894390D01*
X131103809Y-82894390D02*
X131151428Y-82942009D01*
X131151428Y-82942009D02*
X131199047Y-83037247D01*
X131199047Y-83037247D02*
X131199047Y-83275342D01*
X131199047Y-83275342D02*
X131151428Y-83370580D01*
X131151428Y-83370580D02*
X131103809Y-83418200D01*
X131103809Y-83418200D02*
X131008571Y-83465819D01*
X131008571Y-83465819D02*
X130770476Y-83465819D01*
X130770476Y-83465819D02*
X130675238Y-83418200D01*
X130675238Y-83418200D02*
X130627619Y-83370580D01*
X132056190Y-82799152D02*
X132056190Y-83465819D01*
X131818095Y-82418200D02*
X131580000Y-83132485D01*
X131580000Y-83132485D02*
X132199047Y-83132485D01*
X132722857Y-82894390D02*
X132627619Y-82846771D01*
X132627619Y-82846771D02*
X132580000Y-82799152D01*
X132580000Y-82799152D02*
X132532381Y-82703914D01*
X132532381Y-82703914D02*
X132532381Y-82656295D01*
X132532381Y-82656295D02*
X132580000Y-82561057D01*
X132580000Y-82561057D02*
X132627619Y-82513438D01*
X132627619Y-82513438D02*
X132722857Y-82465819D01*
X132722857Y-82465819D02*
X132913333Y-82465819D01*
X132913333Y-82465819D02*
X133008571Y-82513438D01*
X133008571Y-82513438D02*
X133056190Y-82561057D01*
X133056190Y-82561057D02*
X133103809Y-82656295D01*
X133103809Y-82656295D02*
X133103809Y-82703914D01*
X133103809Y-82703914D02*
X133056190Y-82799152D01*
X133056190Y-82799152D02*
X133008571Y-82846771D01*
X133008571Y-82846771D02*
X132913333Y-82894390D01*
X132913333Y-82894390D02*
X132722857Y-82894390D01*
X132722857Y-82894390D02*
X132627619Y-82942009D01*
X132627619Y-82942009D02*
X132580000Y-82989628D01*
X132580000Y-82989628D02*
X132532381Y-83084866D01*
X132532381Y-83084866D02*
X132532381Y-83275342D01*
X132532381Y-83275342D02*
X132580000Y-83370580D01*
X132580000Y-83370580D02*
X132627619Y-83418200D01*
X132627619Y-83418200D02*
X132722857Y-83465819D01*
X132722857Y-83465819D02*
X132913333Y-83465819D01*
X132913333Y-83465819D02*
X133008571Y-83418200D01*
X133008571Y-83418200D02*
X133056190Y-83370580D01*
X133056190Y-83370580D02*
X133103809Y-83275342D01*
X133103809Y-83275342D02*
X133103809Y-83084866D01*
X133103809Y-83084866D02*
X133056190Y-82989628D01*
X133056190Y-82989628D02*
X133008571Y-82942009D01*
X133008571Y-82942009D02*
X132913333Y-82894390D01*
X133484762Y-83180104D02*
X133960952Y-83180104D01*
X133389524Y-83465819D02*
X133722857Y-82465819D01*
X133722857Y-82465819D02*
X134056190Y-83465819D01*
X134389524Y-83465819D02*
X134389524Y-82465819D01*
X134389524Y-82465819D02*
X134770476Y-82465819D01*
X134770476Y-82465819D02*
X134865714Y-82513438D01*
X134865714Y-82513438D02*
X134913333Y-82561057D01*
X134913333Y-82561057D02*
X134960952Y-82656295D01*
X134960952Y-82656295D02*
X134960952Y-82799152D01*
X134960952Y-82799152D02*
X134913333Y-82894390D01*
X134913333Y-82894390D02*
X134865714Y-82942009D01*
X134865714Y-82942009D02*
X134770476Y-82989628D01*
X134770476Y-82989628D02*
X134389524Y-82989628D01*
X135294286Y-82465819D02*
X135532381Y-83465819D01*
X135532381Y-83465819D02*
X135722857Y-82751533D01*
X135722857Y-82751533D02*
X135913333Y-83465819D01*
X135913333Y-83465819D02*
X136151429Y-82465819D01*
X137103809Y-83465819D02*
X136770476Y-82989628D01*
X136532381Y-83465819D02*
X136532381Y-82465819D01*
X136532381Y-82465819D02*
X136913333Y-82465819D01*
X136913333Y-82465819D02*
X137008571Y-82513438D01*
X137008571Y-82513438D02*
X137056190Y-82561057D01*
X137056190Y-82561057D02*
X137103809Y-82656295D01*
X137103809Y-82656295D02*
X137103809Y-82799152D01*
X137103809Y-82799152D02*
X137056190Y-82894390D01*
X137056190Y-82894390D02*
X137008571Y-82942009D01*
X137008571Y-82942009D02*
X136913333Y-82989628D01*
X136913333Y-82989628D02*
X136532381Y-82989628D01*
X157427333Y-77235104D02*
X157903523Y-77235104D01*
X157332095Y-77520819D02*
X157665428Y-76520819D01*
X157665428Y-76520819D02*
X157998761Y-77520819D01*
X158189238Y-76520819D02*
X158760666Y-76520819D01*
X158474952Y-77520819D02*
X158474952Y-76520819D01*
X159094000Y-77520819D02*
X159094000Y-76854152D01*
X159094000Y-76949390D02*
X159141619Y-76901771D01*
X159141619Y-76901771D02*
X159236857Y-76854152D01*
X159236857Y-76854152D02*
X159379714Y-76854152D01*
X159379714Y-76854152D02*
X159474952Y-76901771D01*
X159474952Y-76901771D02*
X159522571Y-76997009D01*
X159522571Y-76997009D02*
X159522571Y-77520819D01*
X159522571Y-76997009D02*
X159570190Y-76901771D01*
X159570190Y-76901771D02*
X159665428Y-76854152D01*
X159665428Y-76854152D02*
X159808285Y-76854152D01*
X159808285Y-76854152D02*
X159903524Y-76901771D01*
X159903524Y-76901771D02*
X159951143Y-76997009D01*
X159951143Y-76997009D02*
X159951143Y-77520819D01*
X160808285Y-77473200D02*
X160713047Y-77520819D01*
X160713047Y-77520819D02*
X160522571Y-77520819D01*
X160522571Y-77520819D02*
X160427333Y-77473200D01*
X160427333Y-77473200D02*
X160379714Y-77377961D01*
X160379714Y-77377961D02*
X160379714Y-76997009D01*
X160379714Y-76997009D02*
X160427333Y-76901771D01*
X160427333Y-76901771D02*
X160522571Y-76854152D01*
X160522571Y-76854152D02*
X160713047Y-76854152D01*
X160713047Y-76854152D02*
X160808285Y-76901771D01*
X160808285Y-76901771D02*
X160855904Y-76997009D01*
X160855904Y-76997009D02*
X160855904Y-77092247D01*
X160855904Y-77092247D02*
X160379714Y-77187485D01*
X161713047Y-76854152D02*
X161713047Y-77663676D01*
X161713047Y-77663676D02*
X161665428Y-77758914D01*
X161665428Y-77758914D02*
X161617809Y-77806533D01*
X161617809Y-77806533D02*
X161522571Y-77854152D01*
X161522571Y-77854152D02*
X161379714Y-77854152D01*
X161379714Y-77854152D02*
X161284476Y-77806533D01*
X161713047Y-77473200D02*
X161617809Y-77520819D01*
X161617809Y-77520819D02*
X161427333Y-77520819D01*
X161427333Y-77520819D02*
X161332095Y-77473200D01*
X161332095Y-77473200D02*
X161284476Y-77425580D01*
X161284476Y-77425580D02*
X161236857Y-77330342D01*
X161236857Y-77330342D02*
X161236857Y-77044628D01*
X161236857Y-77044628D02*
X161284476Y-76949390D01*
X161284476Y-76949390D02*
X161332095Y-76901771D01*
X161332095Y-76901771D02*
X161427333Y-76854152D01*
X161427333Y-76854152D02*
X161617809Y-76854152D01*
X161617809Y-76854152D02*
X161713047Y-76901771D01*
X162617809Y-77520819D02*
X162617809Y-76997009D01*
X162617809Y-76997009D02*
X162570190Y-76901771D01*
X162570190Y-76901771D02*
X162474952Y-76854152D01*
X162474952Y-76854152D02*
X162284476Y-76854152D01*
X162284476Y-76854152D02*
X162189238Y-76901771D01*
X162617809Y-77473200D02*
X162522571Y-77520819D01*
X162522571Y-77520819D02*
X162284476Y-77520819D01*
X162284476Y-77520819D02*
X162189238Y-77473200D01*
X162189238Y-77473200D02*
X162141619Y-77377961D01*
X162141619Y-77377961D02*
X162141619Y-77282723D01*
X162141619Y-77282723D02*
X162189238Y-77187485D01*
X162189238Y-77187485D02*
X162284476Y-77139866D01*
X162284476Y-77139866D02*
X162522571Y-77139866D01*
X162522571Y-77139866D02*
X162617809Y-77092247D01*
X162998762Y-76520819D02*
X163617809Y-76520819D01*
X163617809Y-76520819D02*
X163284476Y-76901771D01*
X163284476Y-76901771D02*
X163427333Y-76901771D01*
X163427333Y-76901771D02*
X163522571Y-76949390D01*
X163522571Y-76949390D02*
X163570190Y-76997009D01*
X163570190Y-76997009D02*
X163617809Y-77092247D01*
X163617809Y-77092247D02*
X163617809Y-77330342D01*
X163617809Y-77330342D02*
X163570190Y-77425580D01*
X163570190Y-77425580D02*
X163522571Y-77473200D01*
X163522571Y-77473200D02*
X163427333Y-77520819D01*
X163427333Y-77520819D02*
X163141619Y-77520819D01*
X163141619Y-77520819D02*
X163046381Y-77473200D01*
X163046381Y-77473200D02*
X162998762Y-77425580D01*
X163998762Y-76616057D02*
X164046381Y-76568438D01*
X164046381Y-76568438D02*
X164141619Y-76520819D01*
X164141619Y-76520819D02*
X164379714Y-76520819D01*
X164379714Y-76520819D02*
X164474952Y-76568438D01*
X164474952Y-76568438D02*
X164522571Y-76616057D01*
X164522571Y-76616057D02*
X164570190Y-76711295D01*
X164570190Y-76711295D02*
X164570190Y-76806533D01*
X164570190Y-76806533D02*
X164522571Y-76949390D01*
X164522571Y-76949390D02*
X163951143Y-77520819D01*
X163951143Y-77520819D02*
X164570190Y-77520819D01*
X165141619Y-76949390D02*
X165046381Y-76901771D01*
X165046381Y-76901771D02*
X164998762Y-76854152D01*
X164998762Y-76854152D02*
X164951143Y-76758914D01*
X164951143Y-76758914D02*
X164951143Y-76711295D01*
X164951143Y-76711295D02*
X164998762Y-76616057D01*
X164998762Y-76616057D02*
X165046381Y-76568438D01*
X165046381Y-76568438D02*
X165141619Y-76520819D01*
X165141619Y-76520819D02*
X165332095Y-76520819D01*
X165332095Y-76520819D02*
X165427333Y-76568438D01*
X165427333Y-76568438D02*
X165474952Y-76616057D01*
X165474952Y-76616057D02*
X165522571Y-76711295D01*
X165522571Y-76711295D02*
X165522571Y-76758914D01*
X165522571Y-76758914D02*
X165474952Y-76854152D01*
X165474952Y-76854152D02*
X165427333Y-76901771D01*
X165427333Y-76901771D02*
X165332095Y-76949390D01*
X165332095Y-76949390D02*
X165141619Y-76949390D01*
X165141619Y-76949390D02*
X165046381Y-76997009D01*
X165046381Y-76997009D02*
X164998762Y-77044628D01*
X164998762Y-77044628D02*
X164951143Y-77139866D01*
X164951143Y-77139866D02*
X164951143Y-77330342D01*
X164951143Y-77330342D02*
X164998762Y-77425580D01*
X164998762Y-77425580D02*
X165046381Y-77473200D01*
X165046381Y-77473200D02*
X165141619Y-77520819D01*
X165141619Y-77520819D02*
X165332095Y-77520819D01*
X165332095Y-77520819D02*
X165427333Y-77473200D01*
X165427333Y-77473200D02*
X165474952Y-77425580D01*
X165474952Y-77425580D02*
X165522571Y-77330342D01*
X165522571Y-77330342D02*
X165522571Y-77139866D01*
X165522571Y-77139866D02*
X165474952Y-77044628D01*
X165474952Y-77044628D02*
X165427333Y-76997009D01*
X165427333Y-76997009D02*
X165332095Y-76949390D01*
X165951143Y-77520819D02*
X165951143Y-76520819D01*
X165951143Y-76520819D02*
X166332095Y-76520819D01*
X166332095Y-76520819D02*
X166427333Y-76568438D01*
X166427333Y-76568438D02*
X166474952Y-76616057D01*
X166474952Y-76616057D02*
X166522571Y-76711295D01*
X166522571Y-76711295D02*
X166522571Y-76854152D01*
X166522571Y-76854152D02*
X166474952Y-76949390D01*
X166474952Y-76949390D02*
X166427333Y-76997009D01*
X166427333Y-76997009D02*
X166332095Y-77044628D01*
X166332095Y-77044628D02*
X165951143Y-77044628D01*
X166951143Y-77139866D02*
X167713048Y-77139866D01*
X168189238Y-77520819D02*
X168189238Y-76520819D01*
X168189238Y-76520819D02*
X168570190Y-76520819D01*
X168570190Y-76520819D02*
X168665428Y-76568438D01*
X168665428Y-76568438D02*
X168713047Y-76616057D01*
X168713047Y-76616057D02*
X168760666Y-76711295D01*
X168760666Y-76711295D02*
X168760666Y-76854152D01*
X168760666Y-76854152D02*
X168713047Y-76949390D01*
X168713047Y-76949390D02*
X168665428Y-76997009D01*
X168665428Y-76997009D02*
X168570190Y-77044628D01*
X168570190Y-77044628D02*
X168189238Y-77044628D01*
X210574819Y-110885238D02*
X210574819Y-111456666D01*
X210574819Y-111170952D02*
X209574819Y-111170952D01*
X209574819Y-111170952D02*
X209717676Y-111266190D01*
X209717676Y-111266190D02*
X209812914Y-111361428D01*
X209812914Y-111361428D02*
X209860533Y-111456666D01*
X209574819Y-110266190D02*
X209574819Y-110170952D01*
X209574819Y-110170952D02*
X209622438Y-110075714D01*
X209622438Y-110075714D02*
X209670057Y-110028095D01*
X209670057Y-110028095D02*
X209765295Y-109980476D01*
X209765295Y-109980476D02*
X209955771Y-109932857D01*
X209955771Y-109932857D02*
X210193866Y-109932857D01*
X210193866Y-109932857D02*
X210384342Y-109980476D01*
X210384342Y-109980476D02*
X210479580Y-110028095D01*
X210479580Y-110028095D02*
X210527200Y-110075714D01*
X210527200Y-110075714D02*
X210574819Y-110170952D01*
X210574819Y-110170952D02*
X210574819Y-110266190D01*
X210574819Y-110266190D02*
X210527200Y-110361428D01*
X210527200Y-110361428D02*
X210479580Y-110409047D01*
X210479580Y-110409047D02*
X210384342Y-110456666D01*
X210384342Y-110456666D02*
X210193866Y-110504285D01*
X210193866Y-110504285D02*
X209955771Y-110504285D01*
X209955771Y-110504285D02*
X209765295Y-110456666D01*
X209765295Y-110456666D02*
X209670057Y-110409047D01*
X209670057Y-110409047D02*
X209622438Y-110361428D01*
X209622438Y-110361428D02*
X209574819Y-110266190D01*
X210574819Y-109504285D02*
X209574819Y-109504285D01*
X210193866Y-109409047D02*
X210574819Y-109123333D01*
X209908152Y-109123333D02*
X210289104Y-109504285D01*
X142524819Y-99182381D02*
X142524819Y-99753809D01*
X142524819Y-99468095D02*
X141524819Y-99468095D01*
X141524819Y-99468095D02*
X141667676Y-99563333D01*
X141667676Y-99563333D02*
X141762914Y-99658571D01*
X141762914Y-99658571D02*
X141810533Y-99753809D01*
X141524819Y-98563333D02*
X141524819Y-98468095D01*
X141524819Y-98468095D02*
X141572438Y-98372857D01*
X141572438Y-98372857D02*
X141620057Y-98325238D01*
X141620057Y-98325238D02*
X141715295Y-98277619D01*
X141715295Y-98277619D02*
X141905771Y-98230000D01*
X141905771Y-98230000D02*
X142143866Y-98230000D01*
X142143866Y-98230000D02*
X142334342Y-98277619D01*
X142334342Y-98277619D02*
X142429580Y-98325238D01*
X142429580Y-98325238D02*
X142477200Y-98372857D01*
X142477200Y-98372857D02*
X142524819Y-98468095D01*
X142524819Y-98468095D02*
X142524819Y-98563333D01*
X142524819Y-98563333D02*
X142477200Y-98658571D01*
X142477200Y-98658571D02*
X142429580Y-98706190D01*
X142429580Y-98706190D02*
X142334342Y-98753809D01*
X142334342Y-98753809D02*
X142143866Y-98801428D01*
X142143866Y-98801428D02*
X141905771Y-98801428D01*
X141905771Y-98801428D02*
X141715295Y-98753809D01*
X141715295Y-98753809D02*
X141620057Y-98706190D01*
X141620057Y-98706190D02*
X141572438Y-98658571D01*
X141572438Y-98658571D02*
X141524819Y-98563333D01*
X141524819Y-97610952D02*
X141524819Y-97515714D01*
X141524819Y-97515714D02*
X141572438Y-97420476D01*
X141572438Y-97420476D02*
X141620057Y-97372857D01*
X141620057Y-97372857D02*
X141715295Y-97325238D01*
X141715295Y-97325238D02*
X141905771Y-97277619D01*
X141905771Y-97277619D02*
X142143866Y-97277619D01*
X142143866Y-97277619D02*
X142334342Y-97325238D01*
X142334342Y-97325238D02*
X142429580Y-97372857D01*
X142429580Y-97372857D02*
X142477200Y-97420476D01*
X142477200Y-97420476D02*
X142524819Y-97515714D01*
X142524819Y-97515714D02*
X142524819Y-97610952D01*
X142524819Y-97610952D02*
X142477200Y-97706190D01*
X142477200Y-97706190D02*
X142429580Y-97753809D01*
X142429580Y-97753809D02*
X142334342Y-97801428D01*
X142334342Y-97801428D02*
X142143866Y-97849047D01*
X142143866Y-97849047D02*
X141905771Y-97849047D01*
X141905771Y-97849047D02*
X141715295Y-97801428D01*
X141715295Y-97801428D02*
X141620057Y-97753809D01*
X141620057Y-97753809D02*
X141572438Y-97706190D01*
X141572438Y-97706190D02*
X141524819Y-97610952D01*
X141858152Y-96420476D02*
X142524819Y-96420476D01*
X141858152Y-96849047D02*
X142381961Y-96849047D01*
X142381961Y-96849047D02*
X142477200Y-96801428D01*
X142477200Y-96801428D02*
X142524819Y-96706190D01*
X142524819Y-96706190D02*
X142524819Y-96563333D01*
X142524819Y-96563333D02*
X142477200Y-96468095D01*
X142477200Y-96468095D02*
X142429580Y-96420476D01*
X142001009Y-95610952D02*
X142001009Y-95944285D01*
X142524819Y-95944285D02*
X141524819Y-95944285D01*
X141524819Y-95944285D02*
X141524819Y-95468095D01*
X141477200Y-94372857D02*
X142762914Y-95229999D01*
X142524819Y-93515714D02*
X142524819Y-94087142D01*
X142524819Y-93801428D02*
X141524819Y-93801428D01*
X141524819Y-93801428D02*
X141667676Y-93896666D01*
X141667676Y-93896666D02*
X141762914Y-93991904D01*
X141762914Y-93991904D02*
X141810533Y-94087142D01*
X141524819Y-92896666D02*
X141524819Y-92801428D01*
X141524819Y-92801428D02*
X141572438Y-92706190D01*
X141572438Y-92706190D02*
X141620057Y-92658571D01*
X141620057Y-92658571D02*
X141715295Y-92610952D01*
X141715295Y-92610952D02*
X141905771Y-92563333D01*
X141905771Y-92563333D02*
X142143866Y-92563333D01*
X142143866Y-92563333D02*
X142334342Y-92610952D01*
X142334342Y-92610952D02*
X142429580Y-92658571D01*
X142429580Y-92658571D02*
X142477200Y-92706190D01*
X142477200Y-92706190D02*
X142524819Y-92801428D01*
X142524819Y-92801428D02*
X142524819Y-92896666D01*
X142524819Y-92896666D02*
X142477200Y-92991904D01*
X142477200Y-92991904D02*
X142429580Y-93039523D01*
X142429580Y-93039523D02*
X142334342Y-93087142D01*
X142334342Y-93087142D02*
X142143866Y-93134761D01*
X142143866Y-93134761D02*
X141905771Y-93134761D01*
X141905771Y-93134761D02*
X141715295Y-93087142D01*
X141715295Y-93087142D02*
X141620057Y-93039523D01*
X141620057Y-93039523D02*
X141572438Y-92991904D01*
X141572438Y-92991904D02*
X141524819Y-92896666D01*
X141524819Y-92277618D02*
X142524819Y-91944285D01*
X142524819Y-91944285D02*
X141524819Y-91610952D01*
X173664761Y-119624819D02*
X173331428Y-119148628D01*
X173093333Y-119624819D02*
X173093333Y-118624819D01*
X173093333Y-118624819D02*
X173474285Y-118624819D01*
X173474285Y-118624819D02*
X173569523Y-118672438D01*
X173569523Y-118672438D02*
X173617142Y-118720057D01*
X173617142Y-118720057D02*
X173664761Y-118815295D01*
X173664761Y-118815295D02*
X173664761Y-118958152D01*
X173664761Y-118958152D02*
X173617142Y-119053390D01*
X173617142Y-119053390D02*
X173569523Y-119101009D01*
X173569523Y-119101009D02*
X173474285Y-119148628D01*
X173474285Y-119148628D02*
X173093333Y-119148628D01*
X174045714Y-119577200D02*
X174188571Y-119624819D01*
X174188571Y-119624819D02*
X174426666Y-119624819D01*
X174426666Y-119624819D02*
X174521904Y-119577200D01*
X174521904Y-119577200D02*
X174569523Y-119529580D01*
X174569523Y-119529580D02*
X174617142Y-119434342D01*
X174617142Y-119434342D02*
X174617142Y-119339104D01*
X174617142Y-119339104D02*
X174569523Y-119243866D01*
X174569523Y-119243866D02*
X174521904Y-119196247D01*
X174521904Y-119196247D02*
X174426666Y-119148628D01*
X174426666Y-119148628D02*
X174236190Y-119101009D01*
X174236190Y-119101009D02*
X174140952Y-119053390D01*
X174140952Y-119053390D02*
X174093333Y-119005771D01*
X174093333Y-119005771D02*
X174045714Y-118910533D01*
X174045714Y-118910533D02*
X174045714Y-118815295D01*
X174045714Y-118815295D02*
X174093333Y-118720057D01*
X174093333Y-118720057D02*
X174140952Y-118672438D01*
X174140952Y-118672438D02*
X174236190Y-118624819D01*
X174236190Y-118624819D02*
X174474285Y-118624819D01*
X174474285Y-118624819D02*
X174617142Y-118672438D01*
X174998095Y-118720057D02*
X175045714Y-118672438D01*
X175045714Y-118672438D02*
X175140952Y-118624819D01*
X175140952Y-118624819D02*
X175379047Y-118624819D01*
X175379047Y-118624819D02*
X175474285Y-118672438D01*
X175474285Y-118672438D02*
X175521904Y-118720057D01*
X175521904Y-118720057D02*
X175569523Y-118815295D01*
X175569523Y-118815295D02*
X175569523Y-118910533D01*
X175569523Y-118910533D02*
X175521904Y-119053390D01*
X175521904Y-119053390D02*
X174950476Y-119624819D01*
X174950476Y-119624819D02*
X175569523Y-119624819D01*
X175902857Y-118624819D02*
X176521904Y-118624819D01*
X176521904Y-118624819D02*
X176188571Y-119005771D01*
X176188571Y-119005771D02*
X176331428Y-119005771D01*
X176331428Y-119005771D02*
X176426666Y-119053390D01*
X176426666Y-119053390D02*
X176474285Y-119101009D01*
X176474285Y-119101009D02*
X176521904Y-119196247D01*
X176521904Y-119196247D02*
X176521904Y-119434342D01*
X176521904Y-119434342D02*
X176474285Y-119529580D01*
X176474285Y-119529580D02*
X176426666Y-119577200D01*
X176426666Y-119577200D02*
X176331428Y-119624819D01*
X176331428Y-119624819D02*
X176045714Y-119624819D01*
X176045714Y-119624819D02*
X175950476Y-119577200D01*
X175950476Y-119577200D02*
X175902857Y-119529580D01*
X176902857Y-118720057D02*
X176950476Y-118672438D01*
X176950476Y-118672438D02*
X177045714Y-118624819D01*
X177045714Y-118624819D02*
X177283809Y-118624819D01*
X177283809Y-118624819D02*
X177379047Y-118672438D01*
X177379047Y-118672438D02*
X177426666Y-118720057D01*
X177426666Y-118720057D02*
X177474285Y-118815295D01*
X177474285Y-118815295D02*
X177474285Y-118910533D01*
X177474285Y-118910533D02*
X177426666Y-119053390D01*
X177426666Y-119053390D02*
X176855238Y-119624819D01*
X176855238Y-119624819D02*
X177474285Y-119624819D01*
X122330819Y-131444761D02*
X121330819Y-131444761D01*
X121330819Y-131444761D02*
X121330819Y-131206666D01*
X121330819Y-131206666D02*
X121378438Y-131063809D01*
X121378438Y-131063809D02*
X121473676Y-130968571D01*
X121473676Y-130968571D02*
X121568914Y-130920952D01*
X121568914Y-130920952D02*
X121759390Y-130873333D01*
X121759390Y-130873333D02*
X121902247Y-130873333D01*
X121902247Y-130873333D02*
X122092723Y-130920952D01*
X122092723Y-130920952D02*
X122187961Y-130968571D01*
X122187961Y-130968571D02*
X122283200Y-131063809D01*
X122283200Y-131063809D02*
X122330819Y-131206666D01*
X122330819Y-131206666D02*
X122330819Y-131444761D01*
X122235580Y-129873333D02*
X122283200Y-129920952D01*
X122283200Y-129920952D02*
X122330819Y-130063809D01*
X122330819Y-130063809D02*
X122330819Y-130159047D01*
X122330819Y-130159047D02*
X122283200Y-130301904D01*
X122283200Y-130301904D02*
X122187961Y-130397142D01*
X122187961Y-130397142D02*
X122092723Y-130444761D01*
X122092723Y-130444761D02*
X121902247Y-130492380D01*
X121902247Y-130492380D02*
X121759390Y-130492380D01*
X121759390Y-130492380D02*
X121568914Y-130444761D01*
X121568914Y-130444761D02*
X121473676Y-130397142D01*
X121473676Y-130397142D02*
X121378438Y-130301904D01*
X121378438Y-130301904D02*
X121330819Y-130159047D01*
X121330819Y-130159047D02*
X121330819Y-130063809D01*
X121330819Y-130063809D02*
X121378438Y-129920952D01*
X121378438Y-129920952D02*
X121426057Y-129873333D01*
X122330819Y-128682856D02*
X121330819Y-128682856D01*
X122330819Y-128206666D02*
X121330819Y-128206666D01*
X121330819Y-128206666D02*
X122330819Y-127635238D01*
X122330819Y-127635238D02*
X121330819Y-127635238D01*
X102584819Y-84581904D02*
X102584819Y-84010476D01*
X103584819Y-84296190D02*
X102584819Y-84296190D01*
X102584819Y-83772380D02*
X102584819Y-83153333D01*
X102584819Y-83153333D02*
X102965771Y-83486666D01*
X102965771Y-83486666D02*
X102965771Y-83343809D01*
X102965771Y-83343809D02*
X103013390Y-83248571D01*
X103013390Y-83248571D02*
X103061009Y-83200952D01*
X103061009Y-83200952D02*
X103156247Y-83153333D01*
X103156247Y-83153333D02*
X103394342Y-83153333D01*
X103394342Y-83153333D02*
X103489580Y-83200952D01*
X103489580Y-83200952D02*
X103537200Y-83248571D01*
X103537200Y-83248571D02*
X103584819Y-83343809D01*
X103584819Y-83343809D02*
X103584819Y-83629523D01*
X103584819Y-83629523D02*
X103537200Y-83724761D01*
X103537200Y-83724761D02*
X103489580Y-83772380D01*
X146657142Y-134254819D02*
X146085714Y-134254819D01*
X146371428Y-134254819D02*
X146371428Y-133254819D01*
X146371428Y-133254819D02*
X146276190Y-133397676D01*
X146276190Y-133397676D02*
X146180952Y-133492914D01*
X146180952Y-133492914D02*
X146085714Y-133540533D01*
X147085714Y-134254819D02*
X147085714Y-133254819D01*
X147085714Y-133254819D02*
X147657142Y-134254819D01*
X147657142Y-134254819D02*
X147657142Y-133254819D01*
X148609523Y-133254819D02*
X148133333Y-133254819D01*
X148133333Y-133254819D02*
X148085714Y-133731009D01*
X148085714Y-133731009D02*
X148133333Y-133683390D01*
X148133333Y-133683390D02*
X148228571Y-133635771D01*
X148228571Y-133635771D02*
X148466666Y-133635771D01*
X148466666Y-133635771D02*
X148561904Y-133683390D01*
X148561904Y-133683390D02*
X148609523Y-133731009D01*
X148609523Y-133731009D02*
X148657142Y-133826247D01*
X148657142Y-133826247D02*
X148657142Y-134064342D01*
X148657142Y-134064342D02*
X148609523Y-134159580D01*
X148609523Y-134159580D02*
X148561904Y-134207200D01*
X148561904Y-134207200D02*
X148466666Y-134254819D01*
X148466666Y-134254819D02*
X148228571Y-134254819D01*
X148228571Y-134254819D02*
X148133333Y-134207200D01*
X148133333Y-134207200D02*
X148085714Y-134159580D01*
X149514285Y-133588152D02*
X149514285Y-134254819D01*
X149276190Y-133207200D02*
X149038095Y-133921485D01*
X149038095Y-133921485D02*
X149657142Y-133921485D01*
X150228571Y-133254819D02*
X150323809Y-133254819D01*
X150323809Y-133254819D02*
X150419047Y-133302438D01*
X150419047Y-133302438D02*
X150466666Y-133350057D01*
X150466666Y-133350057D02*
X150514285Y-133445295D01*
X150514285Y-133445295D02*
X150561904Y-133635771D01*
X150561904Y-133635771D02*
X150561904Y-133873866D01*
X150561904Y-133873866D02*
X150514285Y-134064342D01*
X150514285Y-134064342D02*
X150466666Y-134159580D01*
X150466666Y-134159580D02*
X150419047Y-134207200D01*
X150419047Y-134207200D02*
X150323809Y-134254819D01*
X150323809Y-134254819D02*
X150228571Y-134254819D01*
X150228571Y-134254819D02*
X150133333Y-134207200D01*
X150133333Y-134207200D02*
X150085714Y-134159580D01*
X150085714Y-134159580D02*
X150038095Y-134064342D01*
X150038095Y-134064342D02*
X149990476Y-133873866D01*
X149990476Y-133873866D02*
X149990476Y-133635771D01*
X149990476Y-133635771D02*
X150038095Y-133445295D01*
X150038095Y-133445295D02*
X150085714Y-133350057D01*
X150085714Y-133350057D02*
X150133333Y-133302438D01*
X150133333Y-133302438D02*
X150228571Y-133254819D01*
X151514285Y-134254819D02*
X150942857Y-134254819D01*
X151228571Y-134254819D02*
X151228571Y-133254819D01*
X151228571Y-133254819D02*
X151133333Y-133397676D01*
X151133333Y-133397676D02*
X151038095Y-133492914D01*
X151038095Y-133492914D02*
X150942857Y-133540533D01*
X150614095Y-132594819D02*
X150614095Y-131594819D01*
X151185523Y-132594819D02*
X150756952Y-132023390D01*
X151185523Y-131594819D02*
X150614095Y-132166247D01*
X102584819Y-114761904D02*
X102584819Y-114190476D01*
X103584819Y-114476190D02*
X102584819Y-114476190D01*
X103013390Y-113714285D02*
X102965771Y-113809523D01*
X102965771Y-113809523D02*
X102918152Y-113857142D01*
X102918152Y-113857142D02*
X102822914Y-113904761D01*
X102822914Y-113904761D02*
X102775295Y-113904761D01*
X102775295Y-113904761D02*
X102680057Y-113857142D01*
X102680057Y-113857142D02*
X102632438Y-113809523D01*
X102632438Y-113809523D02*
X102584819Y-113714285D01*
X102584819Y-113714285D02*
X102584819Y-113523809D01*
X102584819Y-113523809D02*
X102632438Y-113428571D01*
X102632438Y-113428571D02*
X102680057Y-113380952D01*
X102680057Y-113380952D02*
X102775295Y-113333333D01*
X102775295Y-113333333D02*
X102822914Y-113333333D01*
X102822914Y-113333333D02*
X102918152Y-113380952D01*
X102918152Y-113380952D02*
X102965771Y-113428571D01*
X102965771Y-113428571D02*
X103013390Y-113523809D01*
X103013390Y-113523809D02*
X103013390Y-113714285D01*
X103013390Y-113714285D02*
X103061009Y-113809523D01*
X103061009Y-113809523D02*
X103108628Y-113857142D01*
X103108628Y-113857142D02*
X103203866Y-113904761D01*
X103203866Y-113904761D02*
X103394342Y-113904761D01*
X103394342Y-113904761D02*
X103489580Y-113857142D01*
X103489580Y-113857142D02*
X103537200Y-113809523D01*
X103537200Y-113809523D02*
X103584819Y-113714285D01*
X103584819Y-113714285D02*
X103584819Y-113523809D01*
X103584819Y-113523809D02*
X103537200Y-113428571D01*
X103537200Y-113428571D02*
X103489580Y-113380952D01*
X103489580Y-113380952D02*
X103394342Y-113333333D01*
X103394342Y-113333333D02*
X103203866Y-113333333D01*
X103203866Y-113333333D02*
X103108628Y-113380952D01*
X103108628Y-113380952D02*
X103061009Y-113428571D01*
X103061009Y-113428571D02*
X103013390Y-113523809D01*
X102524819Y-102761904D02*
X102524819Y-102190476D01*
X103524819Y-102476190D02*
X102524819Y-102476190D01*
X102524819Y-101428571D02*
X102524819Y-101619047D01*
X102524819Y-101619047D02*
X102572438Y-101714285D01*
X102572438Y-101714285D02*
X102620057Y-101761904D01*
X102620057Y-101761904D02*
X102762914Y-101857142D01*
X102762914Y-101857142D02*
X102953390Y-101904761D01*
X102953390Y-101904761D02*
X103334342Y-101904761D01*
X103334342Y-101904761D02*
X103429580Y-101857142D01*
X103429580Y-101857142D02*
X103477200Y-101809523D01*
X103477200Y-101809523D02*
X103524819Y-101714285D01*
X103524819Y-101714285D02*
X103524819Y-101523809D01*
X103524819Y-101523809D02*
X103477200Y-101428571D01*
X103477200Y-101428571D02*
X103429580Y-101380952D01*
X103429580Y-101380952D02*
X103334342Y-101333333D01*
X103334342Y-101333333D02*
X103096247Y-101333333D01*
X103096247Y-101333333D02*
X103001009Y-101380952D01*
X103001009Y-101380952D02*
X102953390Y-101428571D01*
X102953390Y-101428571D02*
X102905771Y-101523809D01*
X102905771Y-101523809D02*
X102905771Y-101714285D01*
X102905771Y-101714285D02*
X102953390Y-101809523D01*
X102953390Y-101809523D02*
X103001009Y-101857142D01*
X103001009Y-101857142D02*
X103096247Y-101904761D01*
X186625238Y-134734819D02*
X186625238Y-133734819D01*
X186625238Y-133734819D02*
X186958571Y-134449104D01*
X186958571Y-134449104D02*
X187291904Y-133734819D01*
X187291904Y-133734819D02*
X187291904Y-134734819D01*
X187910952Y-134734819D02*
X187815714Y-134687200D01*
X187815714Y-134687200D02*
X187768095Y-134639580D01*
X187768095Y-134639580D02*
X187720476Y-134544342D01*
X187720476Y-134544342D02*
X187720476Y-134258628D01*
X187720476Y-134258628D02*
X187768095Y-134163390D01*
X187768095Y-134163390D02*
X187815714Y-134115771D01*
X187815714Y-134115771D02*
X187910952Y-134068152D01*
X187910952Y-134068152D02*
X188053809Y-134068152D01*
X188053809Y-134068152D02*
X188149047Y-134115771D01*
X188149047Y-134115771D02*
X188196666Y-134163390D01*
X188196666Y-134163390D02*
X188244285Y-134258628D01*
X188244285Y-134258628D02*
X188244285Y-134544342D01*
X188244285Y-134544342D02*
X188196666Y-134639580D01*
X188196666Y-134639580D02*
X188149047Y-134687200D01*
X188149047Y-134687200D02*
X188053809Y-134734819D01*
X188053809Y-134734819D02*
X187910952Y-134734819D01*
X189101428Y-134068152D02*
X189101428Y-134734819D01*
X188672857Y-134068152D02*
X188672857Y-134591961D01*
X188672857Y-134591961D02*
X188720476Y-134687200D01*
X188720476Y-134687200D02*
X188815714Y-134734819D01*
X188815714Y-134734819D02*
X188958571Y-134734819D01*
X188958571Y-134734819D02*
X189053809Y-134687200D01*
X189053809Y-134687200D02*
X189101428Y-134639580D01*
X189577619Y-134068152D02*
X189577619Y-134734819D01*
X189577619Y-134163390D02*
X189625238Y-134115771D01*
X189625238Y-134115771D02*
X189720476Y-134068152D01*
X189720476Y-134068152D02*
X189863333Y-134068152D01*
X189863333Y-134068152D02*
X189958571Y-134115771D01*
X189958571Y-134115771D02*
X190006190Y-134211009D01*
X190006190Y-134211009D02*
X190006190Y-134734819D01*
X190339524Y-134068152D02*
X190720476Y-134068152D01*
X190482381Y-133734819D02*
X190482381Y-134591961D01*
X190482381Y-134591961D02*
X190530000Y-134687200D01*
X190530000Y-134687200D02*
X190625238Y-134734819D01*
X190625238Y-134734819D02*
X190720476Y-134734819D01*
X191053810Y-134734819D02*
X191053810Y-134068152D01*
X191053810Y-133734819D02*
X191006191Y-133782438D01*
X191006191Y-133782438D02*
X191053810Y-133830057D01*
X191053810Y-133830057D02*
X191101429Y-133782438D01*
X191101429Y-133782438D02*
X191053810Y-133734819D01*
X191053810Y-133734819D02*
X191053810Y-133830057D01*
X191530000Y-134068152D02*
X191530000Y-134734819D01*
X191530000Y-134163390D02*
X191577619Y-134115771D01*
X191577619Y-134115771D02*
X191672857Y-134068152D01*
X191672857Y-134068152D02*
X191815714Y-134068152D01*
X191815714Y-134068152D02*
X191910952Y-134115771D01*
X191910952Y-134115771D02*
X191958571Y-134211009D01*
X191958571Y-134211009D02*
X191958571Y-134734819D01*
X192863333Y-134068152D02*
X192863333Y-134877676D01*
X192863333Y-134877676D02*
X192815714Y-134972914D01*
X192815714Y-134972914D02*
X192768095Y-135020533D01*
X192768095Y-135020533D02*
X192672857Y-135068152D01*
X192672857Y-135068152D02*
X192530000Y-135068152D01*
X192530000Y-135068152D02*
X192434762Y-135020533D01*
X192863333Y-134687200D02*
X192768095Y-134734819D01*
X192768095Y-134734819D02*
X192577619Y-134734819D01*
X192577619Y-134734819D02*
X192482381Y-134687200D01*
X192482381Y-134687200D02*
X192434762Y-134639580D01*
X192434762Y-134639580D02*
X192387143Y-134544342D01*
X192387143Y-134544342D02*
X192387143Y-134258628D01*
X192387143Y-134258628D02*
X192434762Y-134163390D01*
X192434762Y-134163390D02*
X192482381Y-134115771D01*
X192482381Y-134115771D02*
X192577619Y-134068152D01*
X192577619Y-134068152D02*
X192768095Y-134068152D01*
X192768095Y-134068152D02*
X192863333Y-134115771D01*
X193339524Y-134734819D02*
X193339524Y-133734819D01*
X193339524Y-134211009D02*
X193910952Y-134211009D01*
X193910952Y-134734819D02*
X193910952Y-133734819D01*
X194530000Y-134734819D02*
X194434762Y-134687200D01*
X194434762Y-134687200D02*
X194387143Y-134639580D01*
X194387143Y-134639580D02*
X194339524Y-134544342D01*
X194339524Y-134544342D02*
X194339524Y-134258628D01*
X194339524Y-134258628D02*
X194387143Y-134163390D01*
X194387143Y-134163390D02*
X194434762Y-134115771D01*
X194434762Y-134115771D02*
X194530000Y-134068152D01*
X194530000Y-134068152D02*
X194672857Y-134068152D01*
X194672857Y-134068152D02*
X194768095Y-134115771D01*
X194768095Y-134115771D02*
X194815714Y-134163390D01*
X194815714Y-134163390D02*
X194863333Y-134258628D01*
X194863333Y-134258628D02*
X194863333Y-134544342D01*
X194863333Y-134544342D02*
X194815714Y-134639580D01*
X194815714Y-134639580D02*
X194768095Y-134687200D01*
X194768095Y-134687200D02*
X194672857Y-134734819D01*
X194672857Y-134734819D02*
X194530000Y-134734819D01*
X195434762Y-134734819D02*
X195339524Y-134687200D01*
X195339524Y-134687200D02*
X195291905Y-134591961D01*
X195291905Y-134591961D02*
X195291905Y-133734819D01*
X196196667Y-134687200D02*
X196101429Y-134734819D01*
X196101429Y-134734819D02*
X195910953Y-134734819D01*
X195910953Y-134734819D02*
X195815715Y-134687200D01*
X195815715Y-134687200D02*
X195768096Y-134591961D01*
X195768096Y-134591961D02*
X195768096Y-134211009D01*
X195768096Y-134211009D02*
X195815715Y-134115771D01*
X195815715Y-134115771D02*
X195910953Y-134068152D01*
X195910953Y-134068152D02*
X196101429Y-134068152D01*
X196101429Y-134068152D02*
X196196667Y-134115771D01*
X196196667Y-134115771D02*
X196244286Y-134211009D01*
X196244286Y-134211009D02*
X196244286Y-134306247D01*
X196244286Y-134306247D02*
X195768096Y-134401485D01*
X196434763Y-134830057D02*
X197196667Y-134830057D01*
X197339525Y-133734819D02*
X197958572Y-133734819D01*
X197958572Y-133734819D02*
X197625239Y-134115771D01*
X197625239Y-134115771D02*
X197768096Y-134115771D01*
X197768096Y-134115771D02*
X197863334Y-134163390D01*
X197863334Y-134163390D02*
X197910953Y-134211009D01*
X197910953Y-134211009D02*
X197958572Y-134306247D01*
X197958572Y-134306247D02*
X197958572Y-134544342D01*
X197958572Y-134544342D02*
X197910953Y-134639580D01*
X197910953Y-134639580D02*
X197863334Y-134687200D01*
X197863334Y-134687200D02*
X197768096Y-134734819D01*
X197768096Y-134734819D02*
X197482382Y-134734819D01*
X197482382Y-134734819D02*
X197387144Y-134687200D01*
X197387144Y-134687200D02*
X197339525Y-134639580D01*
X198387144Y-134639580D02*
X198434763Y-134687200D01*
X198434763Y-134687200D02*
X198387144Y-134734819D01*
X198387144Y-134734819D02*
X198339525Y-134687200D01*
X198339525Y-134687200D02*
X198387144Y-134639580D01*
X198387144Y-134639580D02*
X198387144Y-134734819D01*
X198815715Y-133830057D02*
X198863334Y-133782438D01*
X198863334Y-133782438D02*
X198958572Y-133734819D01*
X198958572Y-133734819D02*
X199196667Y-133734819D01*
X199196667Y-133734819D02*
X199291905Y-133782438D01*
X199291905Y-133782438D02*
X199339524Y-133830057D01*
X199339524Y-133830057D02*
X199387143Y-133925295D01*
X199387143Y-133925295D02*
X199387143Y-134020533D01*
X199387143Y-134020533D02*
X199339524Y-134163390D01*
X199339524Y-134163390D02*
X198768096Y-134734819D01*
X198768096Y-134734819D02*
X199387143Y-134734819D01*
X199815715Y-134734819D02*
X199815715Y-134068152D01*
X199815715Y-134163390D02*
X199863334Y-134115771D01*
X199863334Y-134115771D02*
X199958572Y-134068152D01*
X199958572Y-134068152D02*
X200101429Y-134068152D01*
X200101429Y-134068152D02*
X200196667Y-134115771D01*
X200196667Y-134115771D02*
X200244286Y-134211009D01*
X200244286Y-134211009D02*
X200244286Y-134734819D01*
X200244286Y-134211009D02*
X200291905Y-134115771D01*
X200291905Y-134115771D02*
X200387143Y-134068152D01*
X200387143Y-134068152D02*
X200530000Y-134068152D01*
X200530000Y-134068152D02*
X200625239Y-134115771D01*
X200625239Y-134115771D02*
X200672858Y-134211009D01*
X200672858Y-134211009D02*
X200672858Y-134734819D01*
X201149048Y-134734819D02*
X201149048Y-134068152D01*
X201149048Y-134163390D02*
X201196667Y-134115771D01*
X201196667Y-134115771D02*
X201291905Y-134068152D01*
X201291905Y-134068152D02*
X201434762Y-134068152D01*
X201434762Y-134068152D02*
X201530000Y-134115771D01*
X201530000Y-134115771D02*
X201577619Y-134211009D01*
X201577619Y-134211009D02*
X201577619Y-134734819D01*
X201577619Y-134211009D02*
X201625238Y-134115771D01*
X201625238Y-134115771D02*
X201720476Y-134068152D01*
X201720476Y-134068152D02*
X201863333Y-134068152D01*
X201863333Y-134068152D02*
X201958572Y-134115771D01*
X201958572Y-134115771D02*
X202006191Y-134211009D01*
X202006191Y-134211009D02*
X202006191Y-134734819D01*
X202244286Y-134830057D02*
X203006190Y-134830057D01*
X203244286Y-134734819D02*
X203244286Y-133734819D01*
X203244286Y-133734819D02*
X203577619Y-134449104D01*
X203577619Y-134449104D02*
X203910952Y-133734819D01*
X203910952Y-133734819D02*
X203910952Y-134734819D01*
X204291905Y-133734819D02*
X204910952Y-133734819D01*
X204910952Y-133734819D02*
X204577619Y-134115771D01*
X204577619Y-134115771D02*
X204720476Y-134115771D01*
X204720476Y-134115771D02*
X204815714Y-134163390D01*
X204815714Y-134163390D02*
X204863333Y-134211009D01*
X204863333Y-134211009D02*
X204910952Y-134306247D01*
X204910952Y-134306247D02*
X204910952Y-134544342D01*
X204910952Y-134544342D02*
X204863333Y-134639580D01*
X204863333Y-134639580D02*
X204815714Y-134687200D01*
X204815714Y-134687200D02*
X204720476Y-134734819D01*
X204720476Y-134734819D02*
X204434762Y-134734819D01*
X204434762Y-134734819D02*
X204339524Y-134687200D01*
X204339524Y-134687200D02*
X204291905Y-134639580D01*
X205101429Y-134830057D02*
X205863333Y-134830057D01*
X206101429Y-134734819D02*
X206101429Y-133734819D01*
X206530000Y-134687200D02*
X206672857Y-134734819D01*
X206672857Y-134734819D02*
X206910952Y-134734819D01*
X206910952Y-134734819D02*
X207006190Y-134687200D01*
X207006190Y-134687200D02*
X207053809Y-134639580D01*
X207053809Y-134639580D02*
X207101428Y-134544342D01*
X207101428Y-134544342D02*
X207101428Y-134449104D01*
X207101428Y-134449104D02*
X207053809Y-134353866D01*
X207053809Y-134353866D02*
X207006190Y-134306247D01*
X207006190Y-134306247D02*
X206910952Y-134258628D01*
X206910952Y-134258628D02*
X206720476Y-134211009D01*
X206720476Y-134211009D02*
X206625238Y-134163390D01*
X206625238Y-134163390D02*
X206577619Y-134115771D01*
X206577619Y-134115771D02*
X206530000Y-134020533D01*
X206530000Y-134020533D02*
X206530000Y-133925295D01*
X206530000Y-133925295D02*
X206577619Y-133830057D01*
X206577619Y-133830057D02*
X206625238Y-133782438D01*
X206625238Y-133782438D02*
X206720476Y-133734819D01*
X206720476Y-133734819D02*
X206958571Y-133734819D01*
X206958571Y-133734819D02*
X207101428Y-133782438D01*
X207720476Y-133734819D02*
X207910952Y-133734819D01*
X207910952Y-133734819D02*
X208006190Y-133782438D01*
X208006190Y-133782438D02*
X208101428Y-133877676D01*
X208101428Y-133877676D02*
X208149047Y-134068152D01*
X208149047Y-134068152D02*
X208149047Y-134401485D01*
X208149047Y-134401485D02*
X208101428Y-134591961D01*
X208101428Y-134591961D02*
X208006190Y-134687200D01*
X208006190Y-134687200D02*
X207910952Y-134734819D01*
X207910952Y-134734819D02*
X207720476Y-134734819D01*
X207720476Y-134734819D02*
X207625238Y-134687200D01*
X207625238Y-134687200D02*
X207530000Y-134591961D01*
X207530000Y-134591961D02*
X207482381Y-134401485D01*
X207482381Y-134401485D02*
X207482381Y-134068152D01*
X207482381Y-134068152D02*
X207530000Y-133877676D01*
X207530000Y-133877676D02*
X207625238Y-133782438D01*
X207625238Y-133782438D02*
X207720476Y-133734819D01*
X209101428Y-134734819D02*
X208530000Y-134734819D01*
X208815714Y-134734819D02*
X208815714Y-133734819D01*
X208815714Y-133734819D02*
X208720476Y-133877676D01*
X208720476Y-133877676D02*
X208625238Y-133972914D01*
X208625238Y-133972914D02*
X208530000Y-134020533D01*
X209958571Y-134068152D02*
X209958571Y-134734819D01*
X209720476Y-133687200D02*
X209482381Y-134401485D01*
X209482381Y-134401485D02*
X210101428Y-134401485D01*
X210958571Y-133734819D02*
X210482381Y-133734819D01*
X210482381Y-133734819D02*
X210434762Y-134211009D01*
X210434762Y-134211009D02*
X210482381Y-134163390D01*
X210482381Y-134163390D02*
X210577619Y-134115771D01*
X210577619Y-134115771D02*
X210815714Y-134115771D01*
X210815714Y-134115771D02*
X210910952Y-134163390D01*
X210910952Y-134163390D02*
X210958571Y-134211009D01*
X210958571Y-134211009D02*
X211006190Y-134306247D01*
X211006190Y-134306247D02*
X211006190Y-134544342D01*
X211006190Y-134544342D02*
X210958571Y-134639580D01*
X210958571Y-134639580D02*
X210910952Y-134687200D01*
X210910952Y-134687200D02*
X210815714Y-134734819D01*
X210815714Y-134734819D02*
X210577619Y-134734819D01*
X210577619Y-134734819D02*
X210482381Y-134687200D01*
X210482381Y-134687200D02*
X210434762Y-134639580D01*
X211577619Y-134163390D02*
X211482381Y-134115771D01*
X211482381Y-134115771D02*
X211434762Y-134068152D01*
X211434762Y-134068152D02*
X211387143Y-133972914D01*
X211387143Y-133972914D02*
X211387143Y-133925295D01*
X211387143Y-133925295D02*
X211434762Y-133830057D01*
X211434762Y-133830057D02*
X211482381Y-133782438D01*
X211482381Y-133782438D02*
X211577619Y-133734819D01*
X211577619Y-133734819D02*
X211768095Y-133734819D01*
X211768095Y-133734819D02*
X211863333Y-133782438D01*
X211863333Y-133782438D02*
X211910952Y-133830057D01*
X211910952Y-133830057D02*
X211958571Y-133925295D01*
X211958571Y-133925295D02*
X211958571Y-133972914D01*
X211958571Y-133972914D02*
X211910952Y-134068152D01*
X211910952Y-134068152D02*
X211863333Y-134115771D01*
X211863333Y-134115771D02*
X211768095Y-134163390D01*
X211768095Y-134163390D02*
X211577619Y-134163390D01*
X211577619Y-134163390D02*
X211482381Y-134211009D01*
X211482381Y-134211009D02*
X211434762Y-134258628D01*
X211434762Y-134258628D02*
X211387143Y-134353866D01*
X211387143Y-134353866D02*
X211387143Y-134544342D01*
X211387143Y-134544342D02*
X211434762Y-134639580D01*
X211434762Y-134639580D02*
X211482381Y-134687200D01*
X211482381Y-134687200D02*
X211577619Y-134734819D01*
X211577619Y-134734819D02*
X211768095Y-134734819D01*
X211768095Y-134734819D02*
X211863333Y-134687200D01*
X211863333Y-134687200D02*
X211910952Y-134639580D01*
X211910952Y-134639580D02*
X211958571Y-134544342D01*
X211958571Y-134544342D02*
X211958571Y-134353866D01*
X211958571Y-134353866D02*
X211910952Y-134258628D01*
X211910952Y-134258628D02*
X211863333Y-134211009D01*
X211863333Y-134211009D02*
X211768095Y-134163390D01*
X212577619Y-133734819D02*
X212672857Y-133734819D01*
X212672857Y-133734819D02*
X212768095Y-133782438D01*
X212768095Y-133782438D02*
X212815714Y-133830057D01*
X212815714Y-133830057D02*
X212863333Y-133925295D01*
X212863333Y-133925295D02*
X212910952Y-134115771D01*
X212910952Y-134115771D02*
X212910952Y-134353866D01*
X212910952Y-134353866D02*
X212863333Y-134544342D01*
X212863333Y-134544342D02*
X212815714Y-134639580D01*
X212815714Y-134639580D02*
X212768095Y-134687200D01*
X212768095Y-134687200D02*
X212672857Y-134734819D01*
X212672857Y-134734819D02*
X212577619Y-134734819D01*
X212577619Y-134734819D02*
X212482381Y-134687200D01*
X212482381Y-134687200D02*
X212434762Y-134639580D01*
X212434762Y-134639580D02*
X212387143Y-134544342D01*
X212387143Y-134544342D02*
X212339524Y-134353866D01*
X212339524Y-134353866D02*
X212339524Y-134115771D01*
X212339524Y-134115771D02*
X212387143Y-133925295D01*
X212387143Y-133925295D02*
X212434762Y-133830057D01*
X212434762Y-133830057D02*
X212482381Y-133782438D01*
X212482381Y-133782438D02*
X212577619Y-133734819D01*
X213101429Y-134830057D02*
X213863333Y-134830057D01*
X214101429Y-134734819D02*
X214101429Y-133734819D01*
X214101429Y-133734819D02*
X214482381Y-133734819D01*
X214482381Y-133734819D02*
X214577619Y-133782438D01*
X214577619Y-133782438D02*
X214625238Y-133830057D01*
X214625238Y-133830057D02*
X214672857Y-133925295D01*
X214672857Y-133925295D02*
X214672857Y-134068152D01*
X214672857Y-134068152D02*
X214625238Y-134163390D01*
X214625238Y-134163390D02*
X214577619Y-134211009D01*
X214577619Y-134211009D02*
X214482381Y-134258628D01*
X214482381Y-134258628D02*
X214101429Y-134258628D01*
X215530000Y-134734819D02*
X215530000Y-134211009D01*
X215530000Y-134211009D02*
X215482381Y-134115771D01*
X215482381Y-134115771D02*
X215387143Y-134068152D01*
X215387143Y-134068152D02*
X215196667Y-134068152D01*
X215196667Y-134068152D02*
X215101429Y-134115771D01*
X215530000Y-134687200D02*
X215434762Y-134734819D01*
X215434762Y-134734819D02*
X215196667Y-134734819D01*
X215196667Y-134734819D02*
X215101429Y-134687200D01*
X215101429Y-134687200D02*
X215053810Y-134591961D01*
X215053810Y-134591961D02*
X215053810Y-134496723D01*
X215053810Y-134496723D02*
X215101429Y-134401485D01*
X215101429Y-134401485D02*
X215196667Y-134353866D01*
X215196667Y-134353866D02*
X215434762Y-134353866D01*
X215434762Y-134353866D02*
X215530000Y-134306247D01*
X216434762Y-134734819D02*
X216434762Y-133734819D01*
X216434762Y-134687200D02*
X216339524Y-134734819D01*
X216339524Y-134734819D02*
X216149048Y-134734819D01*
X216149048Y-134734819D02*
X216053810Y-134687200D01*
X216053810Y-134687200D02*
X216006191Y-134639580D01*
X216006191Y-134639580D02*
X215958572Y-134544342D01*
X215958572Y-134544342D02*
X215958572Y-134258628D01*
X215958572Y-134258628D02*
X216006191Y-134163390D01*
X216006191Y-134163390D02*
X216053810Y-134115771D01*
X216053810Y-134115771D02*
X216149048Y-134068152D01*
X216149048Y-134068152D02*
X216339524Y-134068152D01*
X216339524Y-134068152D02*
X216434762Y-134115771D01*
X154558152Y-74445714D02*
X155224819Y-74445714D01*
X154177200Y-74683809D02*
X154891485Y-74921904D01*
X154891485Y-74921904D02*
X154891485Y-74302857D01*
X155224819Y-73921904D02*
X154224819Y-73921904D01*
X155224819Y-73350476D02*
X154653390Y-73779047D01*
X154224819Y-73350476D02*
X154796247Y-73921904D01*
X154224819Y-73017142D02*
X154224819Y-72350476D01*
X154224819Y-72350476D02*
X155224819Y-72779047D01*
X174133333Y-75554819D02*
X173561905Y-75554819D01*
X173847619Y-75554819D02*
X173847619Y-74554819D01*
X173847619Y-74554819D02*
X173752381Y-74697676D01*
X173752381Y-74697676D02*
X173657143Y-74792914D01*
X173657143Y-74792914D02*
X173561905Y-74840533D01*
X174752381Y-74554819D02*
X174847619Y-74554819D01*
X174847619Y-74554819D02*
X174942857Y-74602438D01*
X174942857Y-74602438D02*
X174990476Y-74650057D01*
X174990476Y-74650057D02*
X175038095Y-74745295D01*
X175038095Y-74745295D02*
X175085714Y-74935771D01*
X175085714Y-74935771D02*
X175085714Y-75173866D01*
X175085714Y-75173866D02*
X175038095Y-75364342D01*
X175038095Y-75364342D02*
X174990476Y-75459580D01*
X174990476Y-75459580D02*
X174942857Y-75507200D01*
X174942857Y-75507200D02*
X174847619Y-75554819D01*
X174847619Y-75554819D02*
X174752381Y-75554819D01*
X174752381Y-75554819D02*
X174657143Y-75507200D01*
X174657143Y-75507200D02*
X174609524Y-75459580D01*
X174609524Y-75459580D02*
X174561905Y-75364342D01*
X174561905Y-75364342D02*
X174514286Y-75173866D01*
X174514286Y-75173866D02*
X174514286Y-74935771D01*
X174514286Y-74935771D02*
X174561905Y-74745295D01*
X174561905Y-74745295D02*
X174609524Y-74650057D01*
X174609524Y-74650057D02*
X174657143Y-74602438D01*
X174657143Y-74602438D02*
X174752381Y-74554819D01*
X175704762Y-74554819D02*
X175800000Y-74554819D01*
X175800000Y-74554819D02*
X175895238Y-74602438D01*
X175895238Y-74602438D02*
X175942857Y-74650057D01*
X175942857Y-74650057D02*
X175990476Y-74745295D01*
X175990476Y-74745295D02*
X176038095Y-74935771D01*
X176038095Y-74935771D02*
X176038095Y-75173866D01*
X176038095Y-75173866D02*
X175990476Y-75364342D01*
X175990476Y-75364342D02*
X175942857Y-75459580D01*
X175942857Y-75459580D02*
X175895238Y-75507200D01*
X175895238Y-75507200D02*
X175800000Y-75554819D01*
X175800000Y-75554819D02*
X175704762Y-75554819D01*
X175704762Y-75554819D02*
X175609524Y-75507200D01*
X175609524Y-75507200D02*
X175561905Y-75459580D01*
X175561905Y-75459580D02*
X175514286Y-75364342D01*
X175514286Y-75364342D02*
X175466667Y-75173866D01*
X175466667Y-75173866D02*
X175466667Y-74935771D01*
X175466667Y-74935771D02*
X175514286Y-74745295D01*
X175514286Y-74745295D02*
X175561905Y-74650057D01*
X175561905Y-74650057D02*
X175609524Y-74602438D01*
X175609524Y-74602438D02*
X175704762Y-74554819D01*
X112597618Y-132704819D02*
X112026190Y-132704819D01*
X112311904Y-132704819D02*
X112311904Y-131704819D01*
X112311904Y-131704819D02*
X112216666Y-131847676D01*
X112216666Y-131847676D02*
X112121428Y-131942914D01*
X112121428Y-131942914D02*
X112026190Y-131990533D01*
X113216666Y-131704819D02*
X113311904Y-131704819D01*
X113311904Y-131704819D02*
X113407142Y-131752438D01*
X113407142Y-131752438D02*
X113454761Y-131800057D01*
X113454761Y-131800057D02*
X113502380Y-131895295D01*
X113502380Y-131895295D02*
X113549999Y-132085771D01*
X113549999Y-132085771D02*
X113549999Y-132323866D01*
X113549999Y-132323866D02*
X113502380Y-132514342D01*
X113502380Y-132514342D02*
X113454761Y-132609580D01*
X113454761Y-132609580D02*
X113407142Y-132657200D01*
X113407142Y-132657200D02*
X113311904Y-132704819D01*
X113311904Y-132704819D02*
X113216666Y-132704819D01*
X113216666Y-132704819D02*
X113121428Y-132657200D01*
X113121428Y-132657200D02*
X113073809Y-132609580D01*
X113073809Y-132609580D02*
X113026190Y-132514342D01*
X113026190Y-132514342D02*
X112978571Y-132323866D01*
X112978571Y-132323866D02*
X112978571Y-132085771D01*
X112978571Y-132085771D02*
X113026190Y-131895295D01*
X113026190Y-131895295D02*
X113073809Y-131800057D01*
X113073809Y-131800057D02*
X113121428Y-131752438D01*
X113121428Y-131752438D02*
X113216666Y-131704819D01*
X114169047Y-131704819D02*
X114264285Y-131704819D01*
X114264285Y-131704819D02*
X114359523Y-131752438D01*
X114359523Y-131752438D02*
X114407142Y-131800057D01*
X114407142Y-131800057D02*
X114454761Y-131895295D01*
X114454761Y-131895295D02*
X114502380Y-132085771D01*
X114502380Y-132085771D02*
X114502380Y-132323866D01*
X114502380Y-132323866D02*
X114454761Y-132514342D01*
X114454761Y-132514342D02*
X114407142Y-132609580D01*
X114407142Y-132609580D02*
X114359523Y-132657200D01*
X114359523Y-132657200D02*
X114264285Y-132704819D01*
X114264285Y-132704819D02*
X114169047Y-132704819D01*
X114169047Y-132704819D02*
X114073809Y-132657200D01*
X114073809Y-132657200D02*
X114026190Y-132609580D01*
X114026190Y-132609580D02*
X113978571Y-132514342D01*
X113978571Y-132514342D02*
X113930952Y-132323866D01*
X113930952Y-132323866D02*
X113930952Y-132085771D01*
X113930952Y-132085771D02*
X113978571Y-131895295D01*
X113978571Y-131895295D02*
X114026190Y-131800057D01*
X114026190Y-131800057D02*
X114073809Y-131752438D01*
X114073809Y-131752438D02*
X114169047Y-131704819D01*
X115359523Y-132038152D02*
X115359523Y-132704819D01*
X114930952Y-132038152D02*
X114930952Y-132561961D01*
X114930952Y-132561961D02*
X114978571Y-132657200D01*
X114978571Y-132657200D02*
X115073809Y-132704819D01*
X115073809Y-132704819D02*
X115216666Y-132704819D01*
X115216666Y-132704819D02*
X115311904Y-132657200D01*
X115311904Y-132657200D02*
X115359523Y-132609580D01*
X116169047Y-132181009D02*
X115835714Y-132181009D01*
X115835714Y-132704819D02*
X115835714Y-131704819D01*
X115835714Y-131704819D02*
X116311904Y-131704819D01*
X117407142Y-131657200D02*
X116550000Y-132942914D01*
X118264285Y-132704819D02*
X117692857Y-132704819D01*
X117978571Y-132704819D02*
X117978571Y-131704819D01*
X117978571Y-131704819D02*
X117883333Y-131847676D01*
X117883333Y-131847676D02*
X117788095Y-131942914D01*
X117788095Y-131942914D02*
X117692857Y-131990533D01*
X118883333Y-131704819D02*
X118978571Y-131704819D01*
X118978571Y-131704819D02*
X119073809Y-131752438D01*
X119073809Y-131752438D02*
X119121428Y-131800057D01*
X119121428Y-131800057D02*
X119169047Y-131895295D01*
X119169047Y-131895295D02*
X119216666Y-132085771D01*
X119216666Y-132085771D02*
X119216666Y-132323866D01*
X119216666Y-132323866D02*
X119169047Y-132514342D01*
X119169047Y-132514342D02*
X119121428Y-132609580D01*
X119121428Y-132609580D02*
X119073809Y-132657200D01*
X119073809Y-132657200D02*
X118978571Y-132704819D01*
X118978571Y-132704819D02*
X118883333Y-132704819D01*
X118883333Y-132704819D02*
X118788095Y-132657200D01*
X118788095Y-132657200D02*
X118740476Y-132609580D01*
X118740476Y-132609580D02*
X118692857Y-132514342D01*
X118692857Y-132514342D02*
X118645238Y-132323866D01*
X118645238Y-132323866D02*
X118645238Y-132085771D01*
X118645238Y-132085771D02*
X118692857Y-131895295D01*
X118692857Y-131895295D02*
X118740476Y-131800057D01*
X118740476Y-131800057D02*
X118788095Y-131752438D01*
X118788095Y-131752438D02*
X118883333Y-131704819D01*
X119502381Y-131704819D02*
X119835714Y-132704819D01*
X119835714Y-132704819D02*
X120169047Y-131704819D01*
X177550057Y-86414285D02*
X177502438Y-86366666D01*
X177502438Y-86366666D02*
X177454819Y-86271428D01*
X177454819Y-86271428D02*
X177454819Y-86033333D01*
X177454819Y-86033333D02*
X177502438Y-85938095D01*
X177502438Y-85938095D02*
X177550057Y-85890476D01*
X177550057Y-85890476D02*
X177645295Y-85842857D01*
X177645295Y-85842857D02*
X177740533Y-85842857D01*
X177740533Y-85842857D02*
X177883390Y-85890476D01*
X177883390Y-85890476D02*
X178454819Y-86461904D01*
X178454819Y-86461904D02*
X178454819Y-85842857D01*
X177550057Y-85461904D02*
X177502438Y-85414285D01*
X177502438Y-85414285D02*
X177454819Y-85319047D01*
X177454819Y-85319047D02*
X177454819Y-85080952D01*
X177454819Y-85080952D02*
X177502438Y-84985714D01*
X177502438Y-84985714D02*
X177550057Y-84938095D01*
X177550057Y-84938095D02*
X177645295Y-84890476D01*
X177645295Y-84890476D02*
X177740533Y-84890476D01*
X177740533Y-84890476D02*
X177883390Y-84938095D01*
X177883390Y-84938095D02*
X178454819Y-85509523D01*
X178454819Y-85509523D02*
X178454819Y-84890476D01*
X177788152Y-84461904D02*
X178788152Y-84461904D01*
X177835771Y-84461904D02*
X177788152Y-84366666D01*
X177788152Y-84366666D02*
X177788152Y-84176190D01*
X177788152Y-84176190D02*
X177835771Y-84080952D01*
X177835771Y-84080952D02*
X177883390Y-84033333D01*
X177883390Y-84033333D02*
X177978628Y-83985714D01*
X177978628Y-83985714D02*
X178264342Y-83985714D01*
X178264342Y-83985714D02*
X178359580Y-84033333D01*
X178359580Y-84033333D02*
X178407200Y-84080952D01*
X178407200Y-84080952D02*
X178454819Y-84176190D01*
X178454819Y-84176190D02*
X178454819Y-84366666D01*
X178454819Y-84366666D02*
X178407200Y-84461904D01*
X177450057Y-98914285D02*
X177402438Y-98866666D01*
X177402438Y-98866666D02*
X177354819Y-98771428D01*
X177354819Y-98771428D02*
X177354819Y-98533333D01*
X177354819Y-98533333D02*
X177402438Y-98438095D01*
X177402438Y-98438095D02*
X177450057Y-98390476D01*
X177450057Y-98390476D02*
X177545295Y-98342857D01*
X177545295Y-98342857D02*
X177640533Y-98342857D01*
X177640533Y-98342857D02*
X177783390Y-98390476D01*
X177783390Y-98390476D02*
X178354819Y-98961904D01*
X178354819Y-98961904D02*
X178354819Y-98342857D01*
X177450057Y-97961904D02*
X177402438Y-97914285D01*
X177402438Y-97914285D02*
X177354819Y-97819047D01*
X177354819Y-97819047D02*
X177354819Y-97580952D01*
X177354819Y-97580952D02*
X177402438Y-97485714D01*
X177402438Y-97485714D02*
X177450057Y-97438095D01*
X177450057Y-97438095D02*
X177545295Y-97390476D01*
X177545295Y-97390476D02*
X177640533Y-97390476D01*
X177640533Y-97390476D02*
X177783390Y-97438095D01*
X177783390Y-97438095D02*
X178354819Y-98009523D01*
X178354819Y-98009523D02*
X178354819Y-97390476D01*
X177688152Y-96961904D02*
X178688152Y-96961904D01*
X177735771Y-96961904D02*
X177688152Y-96866666D01*
X177688152Y-96866666D02*
X177688152Y-96676190D01*
X177688152Y-96676190D02*
X177735771Y-96580952D01*
X177735771Y-96580952D02*
X177783390Y-96533333D01*
X177783390Y-96533333D02*
X177878628Y-96485714D01*
X177878628Y-96485714D02*
X178164342Y-96485714D01*
X178164342Y-96485714D02*
X178259580Y-96533333D01*
X178259580Y-96533333D02*
X178307200Y-96580952D01*
X178307200Y-96580952D02*
X178354819Y-96676190D01*
X178354819Y-96676190D02*
X178354819Y-96866666D01*
X178354819Y-96866666D02*
X178307200Y-96961904D01*
X82304819Y-77214285D02*
X81304819Y-77214285D01*
X81304819Y-77214285D02*
X82019104Y-76880952D01*
X82019104Y-76880952D02*
X81304819Y-76547619D01*
X81304819Y-76547619D02*
X82304819Y-76547619D01*
X82304819Y-76071428D02*
X81638152Y-76071428D01*
X81304819Y-76071428D02*
X81352438Y-76119047D01*
X81352438Y-76119047D02*
X81400057Y-76071428D01*
X81400057Y-76071428D02*
X81352438Y-76023809D01*
X81352438Y-76023809D02*
X81304819Y-76071428D01*
X81304819Y-76071428D02*
X81400057Y-76071428D01*
X82257200Y-75166667D02*
X82304819Y-75261905D01*
X82304819Y-75261905D02*
X82304819Y-75452381D01*
X82304819Y-75452381D02*
X82257200Y-75547619D01*
X82257200Y-75547619D02*
X82209580Y-75595238D01*
X82209580Y-75595238D02*
X82114342Y-75642857D01*
X82114342Y-75642857D02*
X81828628Y-75642857D01*
X81828628Y-75642857D02*
X81733390Y-75595238D01*
X81733390Y-75595238D02*
X81685771Y-75547619D01*
X81685771Y-75547619D02*
X81638152Y-75452381D01*
X81638152Y-75452381D02*
X81638152Y-75261905D01*
X81638152Y-75261905D02*
X81685771Y-75166667D01*
X82304819Y-74738095D02*
X81638152Y-74738095D01*
X81828628Y-74738095D02*
X81733390Y-74690476D01*
X81733390Y-74690476D02*
X81685771Y-74642857D01*
X81685771Y-74642857D02*
X81638152Y-74547619D01*
X81638152Y-74547619D02*
X81638152Y-74452381D01*
X82304819Y-73976190D02*
X82257200Y-74071428D01*
X82257200Y-74071428D02*
X82209580Y-74119047D01*
X82209580Y-74119047D02*
X82114342Y-74166666D01*
X82114342Y-74166666D02*
X81828628Y-74166666D01*
X81828628Y-74166666D02*
X81733390Y-74119047D01*
X81733390Y-74119047D02*
X81685771Y-74071428D01*
X81685771Y-74071428D02*
X81638152Y-73976190D01*
X81638152Y-73976190D02*
X81638152Y-73833333D01*
X81638152Y-73833333D02*
X81685771Y-73738095D01*
X81685771Y-73738095D02*
X81733390Y-73690476D01*
X81733390Y-73690476D02*
X81828628Y-73642857D01*
X81828628Y-73642857D02*
X82114342Y-73642857D01*
X82114342Y-73642857D02*
X82209580Y-73690476D01*
X82209580Y-73690476D02*
X82257200Y-73738095D01*
X82257200Y-73738095D02*
X82304819Y-73833333D01*
X82304819Y-73833333D02*
X82304819Y-73976190D01*
X82400057Y-73452381D02*
X82400057Y-72690476D01*
X82257200Y-72499999D02*
X82304819Y-72357142D01*
X82304819Y-72357142D02*
X82304819Y-72119047D01*
X82304819Y-72119047D02*
X82257200Y-72023809D01*
X82257200Y-72023809D02*
X82209580Y-71976190D01*
X82209580Y-71976190D02*
X82114342Y-71928571D01*
X82114342Y-71928571D02*
X82019104Y-71928571D01*
X82019104Y-71928571D02*
X81923866Y-71976190D01*
X81923866Y-71976190D02*
X81876247Y-72023809D01*
X81876247Y-72023809D02*
X81828628Y-72119047D01*
X81828628Y-72119047D02*
X81781009Y-72309523D01*
X81781009Y-72309523D02*
X81733390Y-72404761D01*
X81733390Y-72404761D02*
X81685771Y-72452380D01*
X81685771Y-72452380D02*
X81590533Y-72499999D01*
X81590533Y-72499999D02*
X81495295Y-72499999D01*
X81495295Y-72499999D02*
X81400057Y-72452380D01*
X81400057Y-72452380D02*
X81352438Y-72404761D01*
X81352438Y-72404761D02*
X81304819Y-72309523D01*
X81304819Y-72309523D02*
X81304819Y-72071428D01*
X81304819Y-72071428D02*
X81352438Y-71928571D01*
X82304819Y-71499999D02*
X81304819Y-71499999D01*
X81304819Y-71499999D02*
X81304819Y-71261904D01*
X81304819Y-71261904D02*
X81352438Y-71119047D01*
X81352438Y-71119047D02*
X81447676Y-71023809D01*
X81447676Y-71023809D02*
X81542914Y-70976190D01*
X81542914Y-70976190D02*
X81733390Y-70928571D01*
X81733390Y-70928571D02*
X81876247Y-70928571D01*
X81876247Y-70928571D02*
X82066723Y-70976190D01*
X82066723Y-70976190D02*
X82161961Y-71023809D01*
X82161961Y-71023809D02*
X82257200Y-71119047D01*
X82257200Y-71119047D02*
X82304819Y-71261904D01*
X82304819Y-71261904D02*
X82304819Y-71499999D01*
X82400057Y-70738095D02*
X82400057Y-69976190D01*
X82209580Y-69166666D02*
X82257200Y-69214285D01*
X82257200Y-69214285D02*
X82304819Y-69357142D01*
X82304819Y-69357142D02*
X82304819Y-69452380D01*
X82304819Y-69452380D02*
X82257200Y-69595237D01*
X82257200Y-69595237D02*
X82161961Y-69690475D01*
X82161961Y-69690475D02*
X82066723Y-69738094D01*
X82066723Y-69738094D02*
X81876247Y-69785713D01*
X81876247Y-69785713D02*
X81733390Y-69785713D01*
X81733390Y-69785713D02*
X81542914Y-69738094D01*
X81542914Y-69738094D02*
X81447676Y-69690475D01*
X81447676Y-69690475D02*
X81352438Y-69595237D01*
X81352438Y-69595237D02*
X81304819Y-69452380D01*
X81304819Y-69452380D02*
X81304819Y-69357142D01*
X81304819Y-69357142D02*
X81352438Y-69214285D01*
X81352438Y-69214285D02*
X81400057Y-69166666D01*
X82304819Y-68309523D02*
X81781009Y-68309523D01*
X81781009Y-68309523D02*
X81685771Y-68357142D01*
X81685771Y-68357142D02*
X81638152Y-68452380D01*
X81638152Y-68452380D02*
X81638152Y-68642856D01*
X81638152Y-68642856D02*
X81685771Y-68738094D01*
X82257200Y-68309523D02*
X82304819Y-68404761D01*
X82304819Y-68404761D02*
X82304819Y-68642856D01*
X82304819Y-68642856D02*
X82257200Y-68738094D01*
X82257200Y-68738094D02*
X82161961Y-68785713D01*
X82161961Y-68785713D02*
X82066723Y-68785713D01*
X82066723Y-68785713D02*
X81971485Y-68738094D01*
X81971485Y-68738094D02*
X81923866Y-68642856D01*
X81923866Y-68642856D02*
X81923866Y-68404761D01*
X81923866Y-68404761D02*
X81876247Y-68309523D01*
X82304819Y-67833332D02*
X81638152Y-67833332D01*
X81828628Y-67833332D02*
X81733390Y-67785713D01*
X81733390Y-67785713D02*
X81685771Y-67738094D01*
X81685771Y-67738094D02*
X81638152Y-67642856D01*
X81638152Y-67642856D02*
X81638152Y-67547618D01*
X82304819Y-66785713D02*
X81304819Y-66785713D01*
X82257200Y-66785713D02*
X82304819Y-66880951D01*
X82304819Y-66880951D02*
X82304819Y-67071427D01*
X82304819Y-67071427D02*
X82257200Y-67166665D01*
X82257200Y-67166665D02*
X82209580Y-67214284D01*
X82209580Y-67214284D02*
X82114342Y-67261903D01*
X82114342Y-67261903D02*
X81828628Y-67261903D01*
X81828628Y-67261903D02*
X81733390Y-67214284D01*
X81733390Y-67214284D02*
X81685771Y-67166665D01*
X81685771Y-67166665D02*
X81638152Y-67071427D01*
X81638152Y-67071427D02*
X81638152Y-66880951D01*
X81638152Y-66880951D02*
X81685771Y-66785713D01*
X171159580Y-84685715D02*
X171207200Y-84733334D01*
X171207200Y-84733334D02*
X171254819Y-84876191D01*
X171254819Y-84876191D02*
X171254819Y-84971429D01*
X171254819Y-84971429D02*
X171207200Y-85114286D01*
X171207200Y-85114286D02*
X171111961Y-85209524D01*
X171111961Y-85209524D02*
X171016723Y-85257143D01*
X171016723Y-85257143D02*
X170826247Y-85304762D01*
X170826247Y-85304762D02*
X170683390Y-85304762D01*
X170683390Y-85304762D02*
X170492914Y-85257143D01*
X170492914Y-85257143D02*
X170397676Y-85209524D01*
X170397676Y-85209524D02*
X170302438Y-85114286D01*
X170302438Y-85114286D02*
X170254819Y-84971429D01*
X170254819Y-84971429D02*
X170254819Y-84876191D01*
X170254819Y-84876191D02*
X170302438Y-84733334D01*
X170302438Y-84733334D02*
X170350057Y-84685715D01*
X171254819Y-84257143D02*
X170588152Y-84257143D01*
X170778628Y-84257143D02*
X170683390Y-84209524D01*
X170683390Y-84209524D02*
X170635771Y-84161905D01*
X170635771Y-84161905D02*
X170588152Y-84066667D01*
X170588152Y-84066667D02*
X170588152Y-83971429D01*
X170588152Y-83733333D02*
X171254819Y-83495238D01*
X170588152Y-83257143D02*
X171254819Y-83495238D01*
X171254819Y-83495238D02*
X171492914Y-83590476D01*
X171492914Y-83590476D02*
X171540533Y-83638095D01*
X171540533Y-83638095D02*
X171588152Y-83733333D01*
X171207200Y-82923809D02*
X171254819Y-82828571D01*
X171254819Y-82828571D02*
X171254819Y-82638095D01*
X171254819Y-82638095D02*
X171207200Y-82542857D01*
X171207200Y-82542857D02*
X171111961Y-82495238D01*
X171111961Y-82495238D02*
X171064342Y-82495238D01*
X171064342Y-82495238D02*
X170969104Y-82542857D01*
X170969104Y-82542857D02*
X170921485Y-82638095D01*
X170921485Y-82638095D02*
X170921485Y-82780952D01*
X170921485Y-82780952D02*
X170873866Y-82876190D01*
X170873866Y-82876190D02*
X170778628Y-82923809D01*
X170778628Y-82923809D02*
X170731009Y-82923809D01*
X170731009Y-82923809D02*
X170635771Y-82876190D01*
X170635771Y-82876190D02*
X170588152Y-82780952D01*
X170588152Y-82780952D02*
X170588152Y-82638095D01*
X170588152Y-82638095D02*
X170635771Y-82542857D01*
X170588152Y-82209523D02*
X170588152Y-81828571D01*
X170254819Y-82066666D02*
X171111961Y-82066666D01*
X171111961Y-82066666D02*
X171207200Y-82019047D01*
X171207200Y-82019047D02*
X171254819Y-81923809D01*
X171254819Y-81923809D02*
X171254819Y-81828571D01*
X171254819Y-81066666D02*
X170731009Y-81066666D01*
X170731009Y-81066666D02*
X170635771Y-81114285D01*
X170635771Y-81114285D02*
X170588152Y-81209523D01*
X170588152Y-81209523D02*
X170588152Y-81399999D01*
X170588152Y-81399999D02*
X170635771Y-81495237D01*
X171207200Y-81066666D02*
X171254819Y-81161904D01*
X171254819Y-81161904D02*
X171254819Y-81399999D01*
X171254819Y-81399999D02*
X171207200Y-81495237D01*
X171207200Y-81495237D02*
X171111961Y-81542856D01*
X171111961Y-81542856D02*
X171016723Y-81542856D01*
X171016723Y-81542856D02*
X170921485Y-81495237D01*
X170921485Y-81495237D02*
X170873866Y-81399999D01*
X170873866Y-81399999D02*
X170873866Y-81161904D01*
X170873866Y-81161904D02*
X170826247Y-81066666D01*
X171254819Y-80447618D02*
X171207200Y-80542856D01*
X171207200Y-80542856D02*
X171111961Y-80590475D01*
X171111961Y-80590475D02*
X170254819Y-80590475D01*
X143366666Y-103524819D02*
X143366666Y-104239104D01*
X143366666Y-104239104D02*
X143319047Y-104381961D01*
X143319047Y-104381961D02*
X143223809Y-104477200D01*
X143223809Y-104477200D02*
X143080952Y-104524819D01*
X143080952Y-104524819D02*
X142985714Y-104524819D01*
X143795238Y-103620057D02*
X143842857Y-103572438D01*
X143842857Y-103572438D02*
X143938095Y-103524819D01*
X143938095Y-103524819D02*
X144176190Y-103524819D01*
X144176190Y-103524819D02*
X144271428Y-103572438D01*
X144271428Y-103572438D02*
X144319047Y-103620057D01*
X144319047Y-103620057D02*
X144366666Y-103715295D01*
X144366666Y-103715295D02*
X144366666Y-103810533D01*
X144366666Y-103810533D02*
X144319047Y-103953390D01*
X144319047Y-103953390D02*
X143747619Y-104524819D01*
X143747619Y-104524819D02*
X144366666Y-104524819D01*
X102584819Y-90761904D02*
X102584819Y-90190476D01*
X103584819Y-90476190D02*
X102584819Y-90476190D01*
X102918152Y-89428571D02*
X103584819Y-89428571D01*
X102537200Y-89666666D02*
X103251485Y-89904761D01*
X103251485Y-89904761D02*
X103251485Y-89285714D01*
X162818475Y-128259819D02*
X162247047Y-128259819D01*
X162532761Y-128259819D02*
X162532761Y-127259819D01*
X162532761Y-127259819D02*
X162437523Y-127402676D01*
X162437523Y-127402676D02*
X162342285Y-127497914D01*
X162342285Y-127497914D02*
X162247047Y-127545533D01*
X163437523Y-127259819D02*
X163532761Y-127259819D01*
X163532761Y-127259819D02*
X163627999Y-127307438D01*
X163627999Y-127307438D02*
X163675618Y-127355057D01*
X163675618Y-127355057D02*
X163723237Y-127450295D01*
X163723237Y-127450295D02*
X163770856Y-127640771D01*
X163770856Y-127640771D02*
X163770856Y-127878866D01*
X163770856Y-127878866D02*
X163723237Y-128069342D01*
X163723237Y-128069342D02*
X163675618Y-128164580D01*
X163675618Y-128164580D02*
X163627999Y-128212200D01*
X163627999Y-128212200D02*
X163532761Y-128259819D01*
X163532761Y-128259819D02*
X163437523Y-128259819D01*
X163437523Y-128259819D02*
X163342285Y-128212200D01*
X163342285Y-128212200D02*
X163294666Y-128164580D01*
X163294666Y-128164580D02*
X163247047Y-128069342D01*
X163247047Y-128069342D02*
X163199428Y-127878866D01*
X163199428Y-127878866D02*
X163199428Y-127640771D01*
X163199428Y-127640771D02*
X163247047Y-127450295D01*
X163247047Y-127450295D02*
X163294666Y-127355057D01*
X163294666Y-127355057D02*
X163342285Y-127307438D01*
X163342285Y-127307438D02*
X163437523Y-127259819D01*
X164389904Y-127259819D02*
X164485142Y-127259819D01*
X164485142Y-127259819D02*
X164580380Y-127307438D01*
X164580380Y-127307438D02*
X164627999Y-127355057D01*
X164627999Y-127355057D02*
X164675618Y-127450295D01*
X164675618Y-127450295D02*
X164723237Y-127640771D01*
X164723237Y-127640771D02*
X164723237Y-127878866D01*
X164723237Y-127878866D02*
X164675618Y-128069342D01*
X164675618Y-128069342D02*
X164627999Y-128164580D01*
X164627999Y-128164580D02*
X164580380Y-128212200D01*
X164580380Y-128212200D02*
X164485142Y-128259819D01*
X164485142Y-128259819D02*
X164389904Y-128259819D01*
X164389904Y-128259819D02*
X164294666Y-128212200D01*
X164294666Y-128212200D02*
X164247047Y-128164580D01*
X164247047Y-128164580D02*
X164199428Y-128069342D01*
X164199428Y-128069342D02*
X164151809Y-127878866D01*
X164151809Y-127878866D02*
X164151809Y-127640771D01*
X164151809Y-127640771D02*
X164199428Y-127450295D01*
X164199428Y-127450295D02*
X164247047Y-127355057D01*
X164247047Y-127355057D02*
X164294666Y-127307438D01*
X164294666Y-127307438D02*
X164389904Y-127259819D01*
X165580380Y-127593152D02*
X165580380Y-128259819D01*
X165151809Y-127593152D02*
X165151809Y-128116961D01*
X165151809Y-128116961D02*
X165199428Y-128212200D01*
X165199428Y-128212200D02*
X165294666Y-128259819D01*
X165294666Y-128259819D02*
X165437523Y-128259819D01*
X165437523Y-128259819D02*
X165532761Y-128212200D01*
X165532761Y-128212200D02*
X165580380Y-128164580D01*
X165913714Y-127593152D02*
X166294666Y-127593152D01*
X166056571Y-128259819D02*
X166056571Y-127402676D01*
X166056571Y-127402676D02*
X166104190Y-127307438D01*
X166104190Y-127307438D02*
X166199428Y-127259819D01*
X166199428Y-127259819D02*
X166294666Y-127259819D01*
X167342285Y-127212200D02*
X166485143Y-128497914D01*
X168199428Y-128259819D02*
X167628000Y-128259819D01*
X167913714Y-128259819D02*
X167913714Y-127259819D01*
X167913714Y-127259819D02*
X167818476Y-127402676D01*
X167818476Y-127402676D02*
X167723238Y-127497914D01*
X167723238Y-127497914D02*
X167628000Y-127545533D01*
X168818476Y-127259819D02*
X168913714Y-127259819D01*
X168913714Y-127259819D02*
X169008952Y-127307438D01*
X169008952Y-127307438D02*
X169056571Y-127355057D01*
X169056571Y-127355057D02*
X169104190Y-127450295D01*
X169104190Y-127450295D02*
X169151809Y-127640771D01*
X169151809Y-127640771D02*
X169151809Y-127878866D01*
X169151809Y-127878866D02*
X169104190Y-128069342D01*
X169104190Y-128069342D02*
X169056571Y-128164580D01*
X169056571Y-128164580D02*
X169008952Y-128212200D01*
X169008952Y-128212200D02*
X168913714Y-128259819D01*
X168913714Y-128259819D02*
X168818476Y-128259819D01*
X168818476Y-128259819D02*
X168723238Y-128212200D01*
X168723238Y-128212200D02*
X168675619Y-128164580D01*
X168675619Y-128164580D02*
X168628000Y-128069342D01*
X168628000Y-128069342D02*
X168580381Y-127878866D01*
X168580381Y-127878866D02*
X168580381Y-127640771D01*
X168580381Y-127640771D02*
X168628000Y-127450295D01*
X168628000Y-127450295D02*
X168675619Y-127355057D01*
X168675619Y-127355057D02*
X168723238Y-127307438D01*
X168723238Y-127307438D02*
X168818476Y-127259819D01*
X169437524Y-127259819D02*
X169770857Y-128259819D01*
X169770857Y-128259819D02*
X170104190Y-127259819D01*
X141990476Y-119954819D02*
X142609523Y-119954819D01*
X142609523Y-119954819D02*
X142276190Y-120335771D01*
X142276190Y-120335771D02*
X142419047Y-120335771D01*
X142419047Y-120335771D02*
X142514285Y-120383390D01*
X142514285Y-120383390D02*
X142561904Y-120431009D01*
X142561904Y-120431009D02*
X142609523Y-120526247D01*
X142609523Y-120526247D02*
X142609523Y-120764342D01*
X142609523Y-120764342D02*
X142561904Y-120859580D01*
X142561904Y-120859580D02*
X142514285Y-120907200D01*
X142514285Y-120907200D02*
X142419047Y-120954819D01*
X142419047Y-120954819D02*
X142133333Y-120954819D01*
X142133333Y-120954819D02*
X142038095Y-120907200D01*
X142038095Y-120907200D02*
X141990476Y-120859580D01*
X142942857Y-119954819D02*
X143561904Y-119954819D01*
X143561904Y-119954819D02*
X143228571Y-120335771D01*
X143228571Y-120335771D02*
X143371428Y-120335771D01*
X143371428Y-120335771D02*
X143466666Y-120383390D01*
X143466666Y-120383390D02*
X143514285Y-120431009D01*
X143514285Y-120431009D02*
X143561904Y-120526247D01*
X143561904Y-120526247D02*
X143561904Y-120764342D01*
X143561904Y-120764342D02*
X143514285Y-120859580D01*
X143514285Y-120859580D02*
X143466666Y-120907200D01*
X143466666Y-120907200D02*
X143371428Y-120954819D01*
X143371428Y-120954819D02*
X143085714Y-120954819D01*
X143085714Y-120954819D02*
X142990476Y-120907200D01*
X142990476Y-120907200D02*
X142942857Y-120859580D01*
X143990476Y-120954819D02*
X143990476Y-119954819D01*
X144561904Y-120954819D02*
X144133333Y-120383390D01*
X144561904Y-119954819D02*
X143990476Y-120526247D01*
D11*
%TO.C,U3*%
X144090000Y-70930000D02*
X144090000Y-65230000D01*
X144090000Y-70930000D02*
X143090000Y-71930000D01*
X144090000Y-65230000D02*
X140390000Y-65230000D01*
X143090000Y-71930000D02*
X140390000Y-71930000D01*
X140390000Y-71930000D02*
X140390000Y-65230000D01*
%TO.C,R5*%
X154940000Y-101600000D02*
X154940000Y-99670000D01*
X153690000Y-99670000D02*
X156190000Y-99670000D01*
X156190000Y-99670000D02*
X156190000Y-93370000D01*
X153690000Y-93370000D02*
X153690000Y-99670000D01*
X156190000Y-93370000D02*
X153690000Y-93370000D01*
X154940000Y-91440000D02*
X154940000Y-93370000D01*
%TO.C,P2*%
X179832000Y-128270000D02*
X180467000Y-128905000D01*
X175387000Y-128270000D02*
X179832000Y-128270000D01*
X180467000Y-128905000D02*
X180467000Y-130810000D01*
X180467000Y-130810000D02*
X175387000Y-130810000D01*
X175387000Y-130810000D02*
X175387000Y-128270000D01*
%TO.C,R4*%
X158300000Y-117520000D02*
X158300000Y-119450000D01*
X159550000Y-119450000D02*
X157050000Y-119450000D01*
X157050000Y-119450000D02*
X157050000Y-125750000D01*
X159550000Y-125750000D02*
X159550000Y-119450000D01*
X157050000Y-125750000D02*
X159550000Y-125750000D01*
X158300000Y-127680000D02*
X158300000Y-125750000D01*
%TO.C,J3*%
X148530000Y-110825000D02*
X149165000Y-110190000D01*
X148530000Y-120350000D02*
X148530000Y-110825000D01*
X149165000Y-110190000D02*
X151070000Y-110190000D01*
X151070000Y-110190000D02*
X151070000Y-120350000D01*
X151070000Y-120350000D02*
X148530000Y-120350000D01*
%TO.C,R1*%
X179832000Y-68961000D02*
X177902000Y-68961000D01*
X177902000Y-70211000D02*
X177902000Y-67711000D01*
X177902000Y-67711000D02*
X171602000Y-67711000D01*
X171602000Y-70211000D02*
X177902000Y-70211000D01*
X171602000Y-67711000D02*
X171602000Y-70211000D01*
X169672000Y-68961000D02*
X171602000Y-68961000D01*
%TO.C,J1*%
X190881000Y-128270000D02*
X191516000Y-128905000D01*
X186436000Y-128270000D02*
X190881000Y-128270000D01*
X191516000Y-128905000D02*
X191516000Y-130810000D01*
X191516000Y-130810000D02*
X186436000Y-130810000D01*
X186436000Y-130810000D02*
X186436000Y-128270000D01*
%TO.C,C_Rst*%
X205300000Y-115350000D02*
X205300000Y-117850000D01*
X205300000Y-117850000D02*
X210300000Y-117850000D01*
X210300000Y-115350000D02*
X205300000Y-115350000D01*
X210300000Y-117850000D02*
X210300000Y-115350000D01*
%TO.C,J7*%
X113655000Y-94730000D02*
X114290000Y-95365000D01*
X104130000Y-94730000D02*
X113655000Y-94730000D01*
X114290000Y-95365000D02*
X114290000Y-97270000D01*
X114290000Y-97270000D02*
X104130000Y-97270000D01*
X104130000Y-97270000D02*
X104130000Y-94730000D01*
%TO.C,J9*%
X113715000Y-106730000D02*
X114350000Y-107365000D01*
X104190000Y-106730000D02*
X113715000Y-106730000D01*
X114350000Y-107365000D02*
X114350000Y-109270000D01*
X114350000Y-109270000D02*
X104190000Y-109270000D01*
X104190000Y-109270000D02*
X104190000Y-106730000D01*
%TO.C,U4*%
X139445000Y-113551000D02*
X138445000Y-114551000D01*
X139445000Y-84071000D02*
X139445000Y-113551000D01*
X138445000Y-114551000D02*
X124715000Y-114551000D01*
X124715000Y-114551000D02*
X124715000Y-84071000D01*
X124715000Y-84071000D02*
X139445000Y-84071000D01*
%TO.C,U2*%
X166269000Y-112686000D02*
X165269000Y-113686000D01*
X166269000Y-78126000D02*
X166269000Y-112686000D01*
X165269000Y-113686000D02*
X159919000Y-113686000D01*
X159919000Y-113686000D02*
X159919000Y-78126000D01*
X159919000Y-78126000D02*
X166269000Y-78126000D01*
%TO.C,R0*%
X208680000Y-110815000D02*
X208680000Y-109765000D01*
X209220000Y-110815000D02*
X208680000Y-110815000D01*
X208680000Y-109765000D02*
X209220000Y-109765000D01*
X209220000Y-109765000D02*
X209220000Y-110815000D01*
%TO.C,C1*%
X149067500Y-92303241D02*
X149067500Y-93103241D01*
X149467500Y-92703241D02*
X148667500Y-92703241D01*
X151320000Y-95730000D02*
G75*
G03*
X151320000Y-95730000I-4000000J0D01*
G01*
%TO.C,J2*%
X173990000Y-108585000D02*
X174625000Y-107950000D01*
X173990000Y-118110000D02*
X173990000Y-108585000D01*
X174625000Y-107950000D02*
X176530000Y-107950000D01*
X176530000Y-107950000D02*
X176530000Y-118110000D01*
X176530000Y-118110000D02*
X173990000Y-118110000D01*
%TO.C,P1*%
X127381000Y-128270000D02*
X128016000Y-128905000D01*
X122936000Y-128270000D02*
X127381000Y-128270000D01*
X128016000Y-128905000D02*
X128016000Y-130810000D01*
X128016000Y-130810000D02*
X122936000Y-130810000D01*
X122936000Y-130810000D02*
X122936000Y-128270000D01*
%TO.C,J5*%
X113715000Y-82550000D02*
X114350000Y-83185000D01*
X104190000Y-82550000D02*
X113715000Y-82550000D01*
X114350000Y-83185000D02*
X114350000Y-85090000D01*
X114350000Y-85090000D02*
X104190000Y-85090000D01*
X104190000Y-85090000D02*
X104190000Y-82550000D01*
%TO.C,D1*%
X150876000Y-129540000D02*
X148006000Y-129540000D01*
X148006000Y-132140000D02*
X148006000Y-126940000D01*
X148006000Y-126940000D02*
X138506000Y-126940000D01*
X146681000Y-132140000D02*
X146681000Y-126940000D01*
X146581000Y-132140000D02*
X146581000Y-126940000D01*
X146481000Y-132140000D02*
X146481000Y-126940000D01*
X138506000Y-132140000D02*
X148006000Y-132140000D01*
X138506000Y-126940000D02*
X138506000Y-132140000D01*
X135636000Y-129540000D02*
X138506000Y-129540000D01*
%TO.C,J10*%
X113715000Y-112730000D02*
X114350000Y-113365000D01*
X104190000Y-112730000D02*
X113715000Y-112730000D01*
X114350000Y-113365000D02*
X114350000Y-115270000D01*
X114350000Y-115270000D02*
X104190000Y-115270000D01*
X104190000Y-115270000D02*
X104190000Y-112730000D01*
%TO.C,J8*%
X113655000Y-100730000D02*
X114290000Y-101365000D01*
X104130000Y-100730000D02*
X113655000Y-100730000D01*
X114290000Y-101365000D02*
X114290000Y-103270000D01*
X114290000Y-103270000D02*
X104130000Y-103270000D01*
X104130000Y-103270000D02*
X104130000Y-100730000D01*
%TO.C,R2*%
X152400000Y-78740000D02*
X152400000Y-76810000D01*
X151150000Y-76810000D02*
X153650000Y-76810000D01*
X153650000Y-76810000D02*
X153650000Y-70510000D01*
X151150000Y-70510000D02*
X151150000Y-76810000D01*
X153650000Y-70510000D02*
X151150000Y-70510000D01*
X152400000Y-68580000D02*
X152400000Y-70510000D01*
%TO.C,R6*%
X179832000Y-73025000D02*
X177902000Y-73025000D01*
X177902000Y-74275000D02*
X177902000Y-71775000D01*
X177902000Y-71775000D02*
X171602000Y-71775000D01*
X171602000Y-74275000D02*
X177902000Y-74275000D01*
X171602000Y-71775000D02*
X171602000Y-74275000D01*
X169672000Y-73025000D02*
X171602000Y-73025000D01*
%TO.C,C3*%
X112623241Y-125252500D02*
X113423241Y-125252500D01*
X113023241Y-124852500D02*
X113023241Y-125652500D01*
X120050000Y-127000000D02*
G75*
G03*
X120050000Y-127000000I-4000000J0D01*
G01*
%TO.C,C5*%
X178100000Y-87550000D02*
X176100000Y-87550000D01*
X176100000Y-87550000D02*
X176100000Y-90550000D01*
X178100000Y-90550000D02*
X178100000Y-87550000D01*
X176100000Y-90550000D02*
X178100000Y-90550000D01*
%TO.C,C4*%
X176100000Y-95450000D02*
X178100000Y-95450000D01*
X178100000Y-95450000D02*
X178100000Y-92450000D01*
X176100000Y-92450000D02*
X176100000Y-95450000D01*
X178100000Y-92450000D02*
X176100000Y-92450000D01*
%TO.C,J4*%
X83300000Y-65150000D02*
X99250000Y-65150000D01*
X83300000Y-65960000D02*
X83300000Y-65150000D01*
X83100000Y-66150000D02*
X78200000Y-66150000D01*
X83100000Y-66160000D02*
X83300000Y-65960000D01*
X81700000Y-66650000D02*
X81700000Y-76650000D01*
X77700000Y-66650000D02*
X77700000Y-76650000D01*
X83100000Y-67960000D02*
X83100000Y-66160000D01*
X83300000Y-68160000D02*
X83100000Y-67960000D01*
X83300000Y-68160000D02*
X83450000Y-68160000D01*
X83450000Y-74585000D02*
X83450000Y-68160000D01*
X83100000Y-75110000D02*
X83450000Y-74585000D01*
X78200000Y-77150000D02*
X83100000Y-77150000D01*
X83100000Y-77360000D02*
X83100000Y-75110000D01*
X83100000Y-77360000D02*
X83300000Y-77560000D01*
X83300000Y-77560000D02*
X83300000Y-79000000D01*
X99250000Y-79000000D02*
X99250000Y-65150000D01*
X83300000Y-79000000D02*
X99250000Y-79000000D01*
X82200000Y-66150000D02*
G75*
G03*
X81700000Y-66650000I1J-500001D01*
G01*
X78200000Y-66150000D02*
G75*
G03*
X77700000Y-66650000I1J-500001D01*
G01*
X81700000Y-76650000D02*
G75*
G03*
X82200000Y-77150000I500000J0D01*
G01*
X77700000Y-76650000D02*
G75*
G03*
X78200000Y-77150000I500000J0D01*
G01*
%TO.C,X1*%
X170395000Y-94655000D02*
X170395000Y-88405000D01*
X175045000Y-94655000D02*
X175045000Y-88405000D01*
X170720000Y-94530000D02*
X170720000Y-88530000D01*
X174720000Y-94530000D02*
X174720000Y-88530000D01*
X170395000Y-94655000D02*
G75*
G03*
X175045000Y-94655000I2325000J0D01*
G01*
X170720000Y-94530000D02*
G75*
G03*
X174720000Y-94530000I2000000J0D01*
G01*
X174720000Y-88530000D02*
G75*
G03*
X170720000Y-88530000I-2000000J0D01*
G01*
X175045000Y-88405000D02*
G75*
G03*
X170395000Y-88405000I-2325000J0D01*
G01*
%TO.C,i2C1*%
X144970000Y-114655000D02*
X144335000Y-115290000D01*
X144970000Y-105130000D02*
X144970000Y-114655000D01*
X144335000Y-115290000D02*
X142430000Y-115290000D01*
X142430000Y-115290000D02*
X142430000Y-105130000D01*
X142430000Y-105130000D02*
X144970000Y-105130000D01*
%TO.C,J6*%
X113715000Y-88730000D02*
X114350000Y-89365000D01*
X104190000Y-88730000D02*
X113715000Y-88730000D01*
X114350000Y-89365000D02*
X114350000Y-91270000D01*
X114350000Y-91270000D02*
X104190000Y-91270000D01*
X104190000Y-91270000D02*
X104190000Y-88730000D01*
%TO.C,C2*%
X162701241Y-120807500D02*
X163501241Y-120807500D01*
X163101241Y-120407500D02*
X163101241Y-121207500D01*
X170128000Y-122555000D02*
G75*
G03*
X170128000Y-122555000I-4000000J0D01*
G01*
%TO.C,R3*%
X146580000Y-122900000D02*
X144650000Y-122900000D01*
X144650000Y-124150000D02*
X144650000Y-121650000D01*
X144650000Y-121650000D02*
X138350000Y-121650000D01*
X138350000Y-124150000D02*
X144650000Y-124150000D01*
X138350000Y-121650000D02*
X138350000Y-124150000D01*
X136420000Y-122900000D02*
X138350000Y-122900000D01*
%TO.C,REF\u002A\u002A*%
X216590000Y-97560000D02*
X214090000Y-97560000D01*
X214090000Y-97560000D02*
X214090000Y-100060000D01*
X218300000Y-97970000D02*
X214500000Y-97970000D01*
X214500000Y-97970000D02*
X214500000Y-115470000D01*
X218300000Y-115470000D02*
X218300000Y-97970000D01*
X214500000Y-115470000D02*
X218300000Y-115470000D01*
%TD*%
D12*
X92592500Y-136510000D02*
X221175000Y-136470000D01*
X82190000Y-62250000D02*
X82070000Y-82930000D01*
X92647500Y-82850000D02*
X92592500Y-136510000D01*
X82070000Y-82930000D02*
X92647500Y-82850000D01*
X220870000Y-62090000D02*
X82190000Y-62250000D01*
X221175000Y-136470000D02*
X220870000Y-62090000D01*
M02*
