M48
; DRILL file {KiCad 8.0.2} date 2024-07-11T13:43:31+0700
; FORMAT={-:-/ absolute / metric / decimal}
; #@! TF.CreationDate,2024-07-11T13:43:31+07:00
; #@! TF.GenerationSoftware,Kicad,Pcbnew,8.0.2
; #@! TF.FileFunction,MixedPlating,1,2
FMAT,2
METRIC
; #@! TA.AperFunction,Plated,PTH,ViaDrill
T1C0.300
; #@! TA.AperFunction,Plated,PTH,ViaDrill
T2C0.600
; #@! TA.AperFunction,Plated,PTH,ComponentDrill
T3C0.800
; #@! TA.AperFunction,Plated,PTH,ComponentDrill
T4C1.000
; #@! TA.AperFunction,Plated,PTH,ComponentDrill
T5C1.050
; #@! TA.AperFunction,Plated,PTH,ComponentDrill
T6C1.600
; #@! TA.AperFunction,NonPlated,NPTH,ComponentDrill
T7C3.000
%
G90
G05
T1
X111.194Y-77.512
X116.002Y-94.082
X118.339Y-124.485
X118.491Y-77.724
X121.793Y-121.514
X123.749Y-77.8
X125.984Y-114.402
X128.85Y-75.82
X131.42Y-77.699
X132.867Y-130.327
X133.87Y-77.71
X136.703Y-77.673
X137.084Y-104.394
X137.715Y-111.645
X140.97Y-129.591
X141.01Y-77.61
X141.375Y-120.63
X143.485Y-106.426
X144.15Y-118.155
X146.805Y-118.125
X149.606Y-130.708
X154.838Y-107.391
X163.54Y-119.68
X172.11Y-128.829
X172.605Y-121.56
X174.51Y-121.74
X175.305Y-128.25
X175.456Y-126.28
X175.72Y-116.29
X177.996Y-130.115
X177.996Y-133.9
X178.022Y-132.655
X178.25Y-128.82
X180.0Y-121.5
X180.27Y-128.79
X183.026Y-127.55
X183.076Y-126.28
X183.203Y-128.82
X183.255Y-131.985
X185.422Y-128.88
X185.572Y-130.92
X185.73Y-129.84
X188.341Y-129.55
X188.79Y-136.83
X190.83Y-134.86
T2
X180.34Y-105.664
T3
X115.57Y-102.895
X115.57Y-107.48
X115.57Y-112.065
X120.0Y-116.535
X120.0Y-124.155
X122.54Y-116.535
X122.54Y-124.155
X125.08Y-116.535
X125.08Y-124.155
X125.73Y-102.895
X125.73Y-107.48
X125.73Y-112.065
X127.62Y-116.535
X127.62Y-124.155
X130.16Y-116.535
X130.16Y-124.155
X132.7Y-116.535
X132.7Y-124.155
X134.315Y-111.039
X134.315Y-113.039
X135.24Y-116.535
X135.24Y-124.155
X135.465Y-132.57
X137.78Y-116.535
X137.78Y-124.155
X137.965Y-132.57
X137.98Y-128.43
X140.32Y-116.535
X140.32Y-124.155
X142.842Y-132.57
X142.86Y-116.535
X142.86Y-124.155
X142.86Y-128.43
X145.342Y-132.57
X145.4Y-116.535
X145.4Y-124.155
X145.466Y-104.419
X145.466Y-106.419
X145.466Y-111.049
X145.466Y-113.049
X147.94Y-116.535
X147.94Y-124.155
X150.48Y-116.535
X150.48Y-124.155
X153.02Y-116.535
X153.02Y-124.155
X160.477Y-112.014
X160.477Y-115.828
X160.477Y-119.642
X160.477Y-123.457
X160.477Y-127.271
X160.477Y-131.085
X160.477Y-134.899
X170.637Y-112.014
X170.637Y-115.828
X170.637Y-119.642
X170.637Y-123.457
X170.637Y-127.271
X170.637Y-131.085
X170.637Y-134.899
X179.534Y-119.431
X181.534Y-119.431
T4
X105.537Y-81.669
X105.537Y-84.169
X105.537Y-86.669
X105.537Y-89.169
X105.537Y-91.669
X109.669Y-68.157
X109.669Y-70.657
X109.669Y-73.157
X109.669Y-75.657
X112.344Y-80.569
X112.344Y-98.349
X114.884Y-80.569
X114.884Y-98.349
X115.164Y-117.849
X115.164Y-120.349
X115.164Y-122.849
X115.164Y-125.349
X116.781Y-68.157
X116.781Y-70.657
X116.781Y-73.157
X116.781Y-75.657
X117.424Y-80.569
X117.424Y-98.349
X119.964Y-80.569
X119.964Y-98.349
X122.504Y-80.569
X122.504Y-98.349
X123.893Y-68.157
X123.893Y-70.657
X123.893Y-73.157
X123.893Y-75.657
X125.044Y-80.569
X125.044Y-98.349
X127.584Y-80.569
X127.584Y-98.349
X130.124Y-80.569
X130.124Y-98.349
X131.005Y-68.157
X131.005Y-70.657
X131.005Y-73.157
X131.005Y-75.657
X132.664Y-80.569
X132.664Y-98.349
X135.204Y-80.569
X135.204Y-98.349
X137.744Y-80.569
X137.744Y-98.349
X138.117Y-68.157
X138.117Y-70.657
X138.117Y-73.157
X138.117Y-75.657
X140.284Y-80.569
X140.284Y-98.349
X145.229Y-68.157
X145.229Y-70.657
X145.229Y-73.157
X145.229Y-75.657
X151.3Y-65.42
X151.3Y-83.2
X151.37Y-87.94
X151.37Y-105.72
X191.94Y-65.42
X191.94Y-83.2
X192.01Y-87.94
X192.01Y-105.72
X197.5Y-73.041
X200.0Y-73.041
T5
X197.34Y-81.068
X199.84Y-81.068
T6
X198.57Y-87.672
X198.57Y-102.912
T7
X102.595Y-67.837
X103.595Y-127.837
X145.595Y-87.837
X183.595Y-112.837
T4
G00X191.799Y-115.428
M15
G01X191.799Y-113.428
M16
G05
G00X195.799Y-109.728
M15
G01X193.799Y-109.728
M16
G05
G00X197.799Y-115.428
M15
G01X197.799Y-113.428
M16
G05
M30
