%TF.GenerationSoftware,KiCad,Pcbnew,8.0.2*%
%TF.CreationDate,2024-07-11T13:43:56+07:00*%
%TF.ProjectId,IncubatorTesterV7,496e6375-6261-4746-9f72-546573746572,rev?*%
%TF.SameCoordinates,Original*%
%TF.FileFunction,Soldermask,Top*%
%TF.FilePolarity,Negative*%
%FSLAX46Y46*%
G04 Gerber Fmt 4.6, Leading zero omitted, Abs format (unit mm)*
G04 Created by KiCad (PCBNEW 8.0.2) date 2024-07-11 13:43:56*
%MOMM*%
%LPD*%
G01*
G04 APERTURE LIST*
G04 Aperture macros list*
%AMRoundRect*
0 Rectangle with rounded corners*
0 $1 Rounding radius*
0 $2 $3 $4 $5 $6 $7 $8 $9 X,Y pos of 4 corners*
0 Add a 4 corners polygon primitive as box body*
4,1,4,$2,$3,$4,$5,$6,$7,$8,$9,$2,$3,0*
0 Add four circle primitives for the rounded corners*
1,1,$1+$1,$2,$3*
1,1,$1+$1,$4,$5*
1,1,$1+$1,$6,$7*
1,1,$1+$1,$8,$9*
0 Add four rect primitives between the rounded corners*
20,1,$1+$1,$2,$3,$4,$5,0*
20,1,$1+$1,$4,$5,$6,$7,0*
20,1,$1+$1,$6,$7,$8,$9,0*
20,1,$1+$1,$8,$9,$2,$3,0*%
G04 Aperture macros list end*
%ADD10C,1.600000*%
%ADD11RoundRect,0.102000X0.754000X-0.754000X0.754000X0.754000X-0.754000X0.754000X-0.754000X-0.754000X0*%
%ADD12C,1.712000*%
%ADD13C,2.000000*%
%ADD14RoundRect,0.102000X-0.800100X-0.279400X0.800100X-0.279400X0.800100X0.279400X-0.800100X0.279400X0*%
%ADD15R,1.600000X1.600000*%
%ADD16O,1.600000X1.600000*%
%ADD17RoundRect,0.250000X0.600000X0.750000X-0.600000X0.750000X-0.600000X-0.750000X0.600000X-0.750000X0*%
%ADD18O,1.700000X2.000000*%
%ADD19RoundRect,0.375000X0.625000X0.375000X-0.625000X0.375000X-0.625000X-0.375000X0.625000X-0.375000X0*%
%ADD20RoundRect,0.500000X0.500000X1.400000X-0.500000X1.400000X-0.500000X-1.400000X0.500000X-1.400000X0*%
%ADD21R,3.500000X3.500000*%
%ADD22RoundRect,0.750000X0.750000X1.000000X-0.750000X1.000000X-0.750000X-1.000000X0.750000X-1.000000X0*%
%ADD23RoundRect,0.875000X0.875000X0.875000X-0.875000X0.875000X-0.875000X-0.875000X0.875000X-0.875000X0*%
%ADD24RoundRect,0.102000X-0.787500X-0.787500X0.787500X-0.787500X0.787500X0.787500X-0.787500X0.787500X0*%
%ADD25C,1.779000*%
%ADD26RoundRect,0.102000X0.600000X-0.350000X0.600000X0.350000X-0.600000X0.350000X-0.600000X-0.350000X0*%
%ADD27RoundRect,0.102000X0.400000X-0.500000X0.400000X0.500000X-0.400000X0.500000X-0.400000X-0.500000X0*%
%ADD28RoundRect,0.102000X0.600000X-0.500000X0.600000X0.500000X-0.600000X0.500000X-0.600000X-0.500000X0*%
%ADD29RoundRect,0.102000X1.400000X-0.500000X1.400000X0.500000X-1.400000X0.500000X-1.400000X-0.500000X0*%
%ADD30RoundRect,0.102000X0.950000X-0.650000X0.950000X0.650000X-0.950000X0.650000X-0.950000X-0.650000X0*%
%ADD31C,1.500000*%
%ADD32R,3.200000X3.200000*%
%ADD33O,3.200000X3.200000*%
%ADD34O,6.000000X6.000000*%
G04 APERTURE END LIST*
D10*
%TO.C,C4*%
X134315200Y-113039400D03*
X134315200Y-111039400D03*
%TD*%
%TO.C,C3*%
X181533800Y-119430800D03*
X179533800Y-119430800D03*
%TD*%
%TO.C,C2*%
X145465800Y-111048800D03*
X145465800Y-113048800D03*
%TD*%
%TO.C,C1*%
X145465800Y-104419400D03*
X145465800Y-106419400D03*
%TD*%
D11*
%TO.C,J6*%
X123892800Y-68157400D03*
D12*
X123892800Y-70657400D03*
X123892800Y-73157400D03*
X123892800Y-75657400D03*
%TD*%
D13*
%TO.C,TP1*%
X107920000Y-133910000D03*
%TD*%
D11*
%TO.C,J5*%
X109668800Y-68157400D03*
D12*
X109668800Y-70657400D03*
X109668800Y-73157400D03*
X109668800Y-75657400D03*
%TD*%
D13*
%TO.C,TP3*%
X115450000Y-133910000D03*
%TD*%
D14*
%TO.C,U4*%
X176726315Y-126279685D03*
X176726315Y-127549685D03*
X176726315Y-128819685D03*
X176726315Y-130089685D03*
X176726315Y-131359685D03*
X176726315Y-132629685D03*
X176726315Y-133899685D03*
X181806315Y-133899685D03*
X181806315Y-132629685D03*
X181806315Y-131359685D03*
X181806315Y-130089685D03*
X181806315Y-128819685D03*
X181806315Y-127549685D03*
X181806315Y-126279685D03*
%TD*%
D15*
%TO.C,U1*%
X120000000Y-124155000D03*
D16*
X122540000Y-124155000D03*
X125080000Y-124155000D03*
X127620000Y-124155000D03*
X130160000Y-124155000D03*
X132700000Y-124155000D03*
X135240000Y-124155000D03*
X137780000Y-124155000D03*
X140320000Y-124155000D03*
X142860000Y-124155000D03*
X145400000Y-124155000D03*
X147940000Y-124155000D03*
X150480000Y-124155000D03*
X153020000Y-124155000D03*
X153020000Y-116535000D03*
X150480000Y-116535000D03*
X147940000Y-116535000D03*
X145400000Y-116535000D03*
X142860000Y-116535000D03*
X140320000Y-116535000D03*
X137780000Y-116535000D03*
X135240000Y-116535000D03*
X132700000Y-116535000D03*
X130160000Y-116535000D03*
X127620000Y-116535000D03*
X125080000Y-116535000D03*
X122540000Y-116535000D03*
X120000000Y-116535000D03*
%TD*%
D11*
%TO.C,J2*%
X138116800Y-68157400D03*
D12*
X138116800Y-70657400D03*
X138116800Y-73157400D03*
X138116800Y-75657400D03*
%TD*%
D13*
%TO.C,TP2*%
X122980000Y-133820000D03*
%TD*%
D17*
%TO.C,J9*%
X200000000Y-73041285D03*
D18*
X197500000Y-73041285D03*
%TD*%
D10*
%TO.C,R10*%
X115570000Y-112064800D03*
D16*
X125730000Y-112064800D03*
%TD*%
D10*
%TO.C,R5*%
X115570000Y-102895400D03*
D16*
X125730000Y-102895400D03*
%TD*%
D10*
%TO.C,C6*%
X137965000Y-132570000D03*
X135465000Y-132570000D03*
%TD*%
D19*
%TO.C,U2*%
X139217800Y-107684600D03*
X139217800Y-105384600D03*
D20*
X132917800Y-105384600D03*
D19*
X139217800Y-103084600D03*
%TD*%
D11*
%TO.C,J8*%
X105537000Y-81668600D03*
D12*
X105537000Y-84168600D03*
X105537000Y-86668600D03*
X105537000Y-89168600D03*
X105537000Y-91668600D03*
%TD*%
D10*
%TO.C,R9*%
X160477200Y-127270932D03*
D16*
X170637200Y-127270932D03*
%TD*%
D13*
%TO.C,TP4*%
X130510000Y-133850000D03*
%TD*%
D10*
%TO.C,R2*%
X160477200Y-123456699D03*
D16*
X170637200Y-123456699D03*
%TD*%
D10*
%TO.C,R1*%
X160477200Y-115828233D03*
D16*
X170637200Y-115828233D03*
%TD*%
D11*
%TO.C,J4*%
X116780800Y-68157400D03*
D12*
X116780800Y-70657400D03*
X116780800Y-73157400D03*
X116780800Y-75657400D03*
%TD*%
D10*
%TO.C,R7*%
X160477200Y-134899400D03*
D16*
X170637200Y-134899400D03*
%TD*%
D21*
%TO.C,J11*%
X191799000Y-114428000D03*
D22*
X197799000Y-114428000D03*
D23*
X194799000Y-109728000D03*
%TD*%
D24*
%TO.C,J10*%
X199840315Y-81067685D03*
D25*
X197340315Y-81067685D03*
%TD*%
D10*
%TO.C,R3*%
X160477200Y-119642466D03*
D16*
X170637200Y-119642466D03*
%TD*%
D11*
%TO.C,J1*%
X131004800Y-68157400D03*
D12*
X131004800Y-70657400D03*
X131004800Y-73157400D03*
X131004800Y-75657400D03*
%TD*%
D10*
%TO.C,R6*%
X115570000Y-107480100D03*
D16*
X125730000Y-107480100D03*
%TD*%
D26*
%TO.C,J12*%
X186925000Y-126520000D03*
X186925000Y-127620000D03*
X186925000Y-128720000D03*
X186925000Y-129820000D03*
X186925000Y-130920000D03*
X186925000Y-132020000D03*
X186925000Y-133120000D03*
X186925000Y-134220000D03*
D27*
X197425000Y-136120000D03*
D26*
X186925000Y-135170000D03*
D28*
X191225000Y-136120000D03*
X186925000Y-124970000D03*
D29*
X201575000Y-136120000D03*
D30*
X202025000Y-122620000D03*
%TD*%
D10*
%TO.C,R4*%
X160477200Y-112014000D03*
D16*
X170637200Y-112014000D03*
%TD*%
D11*
%TO.C,J7*%
X115163600Y-117849000D03*
D12*
X115163600Y-120349000D03*
X115163600Y-122849000D03*
X115163600Y-125349000D03*
%TD*%
D11*
%TO.C,J3*%
X145228800Y-68157400D03*
D12*
X145228800Y-70657400D03*
X145228800Y-73157400D03*
X145228800Y-75657400D03*
%TD*%
D10*
%TO.C,R8*%
X170637200Y-131085165D03*
D16*
X160477200Y-131085165D03*
%TD*%
D10*
%TO.C,C5*%
X142841800Y-132570000D03*
X145341800Y-132570000D03*
%TD*%
D31*
%TO.C,Y1*%
X142860000Y-128430000D03*
X137980000Y-128430000D03*
%TD*%
D11*
%TO.C,U3*%
X112344200Y-98348800D03*
D12*
X114884200Y-98348800D03*
X117424200Y-98348800D03*
X119964200Y-98348800D03*
X122504200Y-98348800D03*
X125044200Y-98348800D03*
X127584200Y-98348800D03*
X130124200Y-98348800D03*
X132664200Y-98348800D03*
X135204200Y-98348800D03*
X137744200Y-98348800D03*
X140284200Y-98348800D03*
X140284200Y-80568800D03*
X137744200Y-80568800D03*
X135204200Y-80568800D03*
X132664200Y-80568800D03*
X130124200Y-80568800D03*
X127584200Y-80568800D03*
X125044200Y-80568800D03*
X122504200Y-80568800D03*
X119964200Y-80568800D03*
X117424200Y-80568800D03*
X114884200Y-80568800D03*
X112344200Y-80568800D03*
%TD*%
%TO.C,U5*%
X191940000Y-83200000D03*
X191940000Y-65420000D03*
X151300000Y-65420000D03*
X151300000Y-83200000D03*
%TD*%
%TO.C,U6*%
X192010000Y-105720000D03*
X192010000Y-87940000D03*
X151370000Y-87940000D03*
X151370000Y-105720000D03*
%TD*%
D32*
%TO.C,D1*%
X198570315Y-87671685D03*
D33*
X198570315Y-102911685D03*
%TD*%
D34*
%TO.C,*%
X183594715Y-112836685D03*
%TD*%
%TO.C,*%
X102594715Y-67836685D03*
%TD*%
%TO.C,*%
X145594715Y-87836685D03*
%TD*%
%TO.C,*%
X103594715Y-127836685D03*
%TD*%
M02*
