G04 #@! TF.GenerationSoftware,KiCad,Pcbnew,8.0.1*
G04 #@! TF.CreationDate,2024-04-23T08:11:35+07:00*
G04 #@! TF.ProjectId,IncuTester_SMD,496e6375-5465-4737-9465-725f534d442e,rev?*
G04 #@! TF.SameCoordinates,Original*
G04 #@! TF.FileFunction,Legend,Bot*
G04 #@! TF.FilePolarity,Positive*
%FSLAX46Y46*%
G04 Gerber Fmt 4.6, Leading zero omitted, Abs format (unit mm)*
G04 Created by KiCad (PCBNEW 8.0.1) date 2024-04-23 08:11:35*
%MOMM*%
%LPD*%
G01*
G04 APERTURE LIST*
G04 Aperture macros list*
%AMRoundRect*
0 Rectangle with rounded corners*
0 $1 Rounding radius*
0 $2 $3 $4 $5 $6 $7 $8 $9 X,Y pos of 4 corners*
0 Add a 4 corners polygon primitive as box body*
4,1,4,$2,$3,$4,$5,$6,$7,$8,$9,$2,$3,0*
0 Add four circle primitives for the rounded corners*
1,1,$1+$1,$2,$3*
1,1,$1+$1,$4,$5*
1,1,$1+$1,$6,$7*
1,1,$1+$1,$8,$9*
0 Add four rect primitives between the rounded corners*
20,1,$1+$1,$2,$3,$4,$5,0*
20,1,$1+$1,$4,$5,$6,$7,0*
20,1,$1+$1,$6,$7,$8,$9,0*
20,1,$1+$1,$8,$9,$2,$3,0*%
G04 Aperture macros list end*
%ADD10C,1.600000*%
%ADD11C,3.000000*%
%ADD12R,2.400000X1.600000*%
%ADD13O,2.400000X1.600000*%
%ADD14R,1.600000X1.600000*%
%ADD15O,1.600000X1.600000*%
%ADD16C,5.500000*%
%ADD17C,1.500000*%
%ADD18RoundRect,0.250000X-0.725000X0.600000X-0.725000X-0.600000X0.725000X-0.600000X0.725000X0.600000X0*%
%ADD19O,1.950000X1.700000*%
%ADD20C,0.800000*%
G04 #@! TA.AperFunction,Profile*
%ADD21C,0.100000*%
G04 #@! TD*
G04 APERTURE END LIST*
%LPC*%
D10*
X203982000Y-123190000D03*
X206482000Y-123190000D03*
D11*
X181610000Y-116840000D03*
X200660000Y-116840000D03*
X181610000Y-78740000D03*
X200660000Y-78740000D03*
D12*
X137902000Y-113797000D03*
D13*
X137902000Y-111257000D03*
X137902000Y-108717000D03*
X137902000Y-106177000D03*
X137902000Y-103637000D03*
X137902000Y-101097000D03*
X137902000Y-98557000D03*
X137902000Y-96017000D03*
X137902000Y-93477000D03*
X137902000Y-90937000D03*
X137902000Y-88397000D03*
X137902000Y-85857000D03*
X120122000Y-85857000D03*
X120122000Y-88397000D03*
X120122000Y-90937000D03*
X120122000Y-93477000D03*
X120122000Y-96017000D03*
X120122000Y-98557000D03*
X120122000Y-101097000D03*
X120122000Y-103637000D03*
X120122000Y-106177000D03*
X120122000Y-108717000D03*
X120122000Y-111257000D03*
X120122000Y-113797000D03*
D14*
X166904000Y-112416000D03*
D15*
X166904000Y-109876000D03*
X166904000Y-107336000D03*
X166904000Y-104796000D03*
X166904000Y-102256000D03*
X166904000Y-99716000D03*
X166904000Y-97176000D03*
X166904000Y-94636000D03*
X166904000Y-92096000D03*
X166904000Y-89556000D03*
X166904000Y-87016000D03*
X166904000Y-84476000D03*
X166904000Y-81936000D03*
X166904000Y-79396000D03*
X159284000Y-79396000D03*
X159284000Y-81936000D03*
X159284000Y-84476000D03*
X159284000Y-87016000D03*
X159284000Y-89556000D03*
X159284000Y-92096000D03*
X159284000Y-94636000D03*
X159284000Y-97176000D03*
X159284000Y-99716000D03*
X159284000Y-102256000D03*
X159284000Y-104796000D03*
X159284000Y-107336000D03*
X159284000Y-109876000D03*
X159284000Y-112416000D03*
D16*
X104648000Y-130048000D03*
X204724000Y-130556000D03*
D10*
X177100000Y-87800000D03*
X177100000Y-90300000D03*
X177100000Y-95200000D03*
X177100000Y-92700000D03*
D17*
X172720000Y-93980000D03*
X172720000Y-89080000D03*
D18*
X212852000Y-100470000D03*
D19*
X212852000Y-102970000D03*
X212852000Y-105470000D03*
X212852000Y-107970000D03*
X212852000Y-110470000D03*
X212852000Y-112970000D03*
D16*
X205232000Y-68072000D03*
D20*
X215752000Y-109000000D03*
X154300000Y-68300000D03*
X144600000Y-64400000D03*
X215752000Y-106500000D03*
X120650000Y-127254000D03*
X147400000Y-88100000D03*
X96300000Y-97100000D03*
X96600000Y-77400000D03*
X144900000Y-86700000D03*
X176600000Y-106900000D03*
X215752000Y-107800000D03*
X133400000Y-120200000D03*
X146000000Y-64300000D03*
X108300000Y-88100000D03*
X198000000Y-116000000D03*
X169300000Y-93400000D03*
X154400000Y-69400000D03*
X201500000Y-113800000D03*
X152000000Y-130900000D03*
X121300000Y-124500000D03*
X191000000Y-67200000D03*
X150000000Y-113800000D03*
X176600000Y-111700000D03*
X162800000Y-98700000D03*
X174200000Y-128100000D03*
X201600000Y-124300000D03*
X174200000Y-131000000D03*
X179700000Y-95200000D03*
X199600000Y-81900000D03*
X120100000Y-124700000D03*
X202500000Y-121200000D03*
X150300000Y-69300000D03*
X174200000Y-129500000D03*
X134000000Y-118900000D03*
X115800000Y-67600000D03*
X175100000Y-127100000D03*
X147700000Y-67200000D03*
X140208000Y-98552000D03*
X179600000Y-96600000D03*
X172212000Y-123698000D03*
X168800000Y-94400000D03*
X135500000Y-118600000D03*
X105600000Y-115100000D03*
X200400000Y-124600000D03*
X119380000Y-81788000D03*
X194800000Y-70300000D03*
X109600000Y-125200000D03*
X121500000Y-77700000D03*
X120500000Y-123400000D03*
X198400000Y-80900000D03*
X187900000Y-132200000D03*
X96200000Y-89900000D03*
X150500000Y-82100000D03*
X147574000Y-101600000D03*
X108300000Y-101600000D03*
X204000000Y-77900000D03*
X96100000Y-86200000D03*
X191400000Y-70200000D03*
X204000000Y-80300000D03*
X197800000Y-78000000D03*
X185500000Y-132200000D03*
X200000000Y-113800000D03*
X204000000Y-76500000D03*
X96200000Y-89900000D03*
X96300000Y-93300000D03*
X215752000Y-104470000D03*
X180100000Y-94300000D03*
X111100000Y-125300000D03*
X202600000Y-123300000D03*
X105600000Y-101600000D03*
X124100000Y-77700000D03*
X181500000Y-98900000D03*
X204000000Y-79000000D03*
X198800000Y-114700000D03*
X186700000Y-132200000D03*
X150300000Y-67900000D03*
X120650000Y-127254000D03*
X158300000Y-123800000D03*
X108300000Y-115100000D03*
X198000000Y-79700000D03*
X194400000Y-67200000D03*
X147700000Y-65400000D03*
X105600000Y-88100000D03*
X152600000Y-84600000D03*
X181640000Y-96740000D03*
X208630000Y-108450000D03*
X205330000Y-100430000D03*
X165100000Y-118872000D03*
X162560000Y-92202000D03*
X143000000Y-67000000D03*
X177800000Y-100584000D03*
X156200000Y-126400000D03*
X199410000Y-100540000D03*
X147200000Y-107400000D03*
X152000000Y-104800000D03*
X140600000Y-117800000D03*
X186944000Y-116840000D03*
X186944000Y-123190000D03*
X168881107Y-109313107D03*
X199450000Y-103470000D03*
X199760000Y-108660000D03*
X182350000Y-112340000D03*
X150000000Y-130900000D03*
X157200000Y-103600000D03*
X146600000Y-124500000D03*
X119350000Y-73770000D03*
X115768873Y-71975491D03*
X116300000Y-70900000D03*
X118330000Y-72990000D03*
X127000000Y-70815500D03*
X110400000Y-79200000D03*
X100700000Y-82100000D03*
X105600000Y-86100000D03*
X116500000Y-90100000D03*
X114000000Y-92300000D03*
X100400000Y-95300000D03*
X105600000Y-99600000D03*
X116900000Y-103600000D03*
X100800000Y-109100000D03*
X105600000Y-113100000D03*
X116500000Y-109300000D03*
X155000000Y-87900000D03*
X154940000Y-98552000D03*
X154940000Y-91440000D03*
X156800000Y-105700000D03*
X155200000Y-116000000D03*
X193220000Y-118120000D03*
X181830000Y-114120000D03*
X208980000Y-112050000D03*
%LPD*%
D21*
X95504000Y-61976000D02*
X217932000Y-61976000D01*
X217932000Y-135382000D01*
X95504000Y-135382000D01*
X95504000Y-61976000D01*
M02*
