%TF.GenerationSoftware,KiCad,Pcbnew,8.0.2*%
%TF.CreationDate,2024-06-06T11:53:52+07:00*%
%TF.ProjectId,IncubatorTesterV6,496e6375-6261-4746-9f72-546573746572,rev?*%
%TF.SameCoordinates,Original*%
%TF.FileFunction,Soldermask,Bot*%
%TF.FilePolarity,Negative*%
%FSLAX46Y46*%
G04 Gerber Fmt 4.6, Leading zero omitted, Abs format (unit mm)*
G04 Created by KiCad (PCBNEW 8.0.2) date 2024-06-06 11:53:52*
%MOMM*%
%LPD*%
G01*
G04 APERTURE LIST*
G04 Aperture macros list*
%AMRoundRect*
0 Rectangle with rounded corners*
0 $1 Rounding radius*
0 $2 $3 $4 $5 $6 $7 $8 $9 X,Y pos of 4 corners*
0 Add a 4 corners polygon primitive as box body*
4,1,4,$2,$3,$4,$5,$6,$7,$8,$9,$2,$3,0*
0 Add four circle primitives for the rounded corners*
1,1,$1+$1,$2,$3*
1,1,$1+$1,$4,$5*
1,1,$1+$1,$6,$7*
1,1,$1+$1,$8,$9*
0 Add four rect primitives between the rounded corners*
20,1,$1+$1,$2,$3,$4,$5,0*
20,1,$1+$1,$4,$5,$6,$7,0*
20,1,$1+$1,$6,$7,$8,$9,0*
20,1,$1+$1,$8,$9,$2,$3,0*%
G04 Aperture macros list end*
%ADD10C,1.712000*%
%ADD11RoundRect,0.102000X0.754000X-0.754000X0.754000X0.754000X-0.754000X0.754000X-0.754000X-0.754000X0*%
%ADD12C,1.600000*%
%ADD13R,1.600000X1.600000*%
%ADD14O,1.600000X1.600000*%
%ADD15RoundRect,0.102000X-0.754000X0.754000X-0.754000X-0.754000X0.754000X-0.754000X0.754000X0.754000X0*%
%ADD16RoundRect,0.250000X0.600000X0.750000X-0.600000X0.750000X-0.600000X-0.750000X0.600000X-0.750000X0*%
%ADD17O,1.700000X2.000000*%
%ADD18R,3.500000X3.500000*%
%ADD19RoundRect,0.750000X0.750000X1.000000X-0.750000X1.000000X-0.750000X-1.000000X0.750000X-1.000000X0*%
%ADD20RoundRect,0.875000X0.875000X0.875000X-0.875000X0.875000X-0.875000X-0.875000X0.875000X-0.875000X0*%
%ADD21RoundRect,0.102000X-0.787500X-0.787500X0.787500X-0.787500X0.787500X0.787500X-0.787500X0.787500X0*%
%ADD22C,1.779000*%
%ADD23C,1.500000*%
%ADD24R,3.200000X3.200000*%
%ADD25O,3.200000X3.200000*%
%ADD26O,6.000000X6.000000*%
G04 APERTURE END LIST*
D10*
%TO.C,U6*%
X192010000Y-105720000D03*
X192010000Y-87940000D03*
X151370000Y-87940000D03*
X151370000Y-105720000D03*
%TD*%
%TO.C,U5*%
X191940000Y-83200000D03*
X191940000Y-65420000D03*
X151300000Y-65420000D03*
X151300000Y-83200000D03*
%TD*%
D11*
%TO.C,J6*%
X123894315Y-66455685D03*
D10*
X123894315Y-68955685D03*
X123894315Y-71455685D03*
X123894315Y-73955685D03*
%TD*%
D12*
%TO.C,C4*%
X143492315Y-131105685D03*
X145992315Y-131105685D03*
%TD*%
D11*
%TO.C,J5*%
X109670315Y-66455685D03*
D10*
X109670315Y-68955685D03*
X109670315Y-71455685D03*
X109670315Y-73955685D03*
%TD*%
D11*
%TO.C,J9*%
X105750000Y-97990000D03*
D10*
X105750000Y-100490000D03*
X105750000Y-102990000D03*
X105750000Y-105490000D03*
X105750000Y-107990000D03*
%TD*%
D13*
%TO.C,U1*%
X120592315Y-122723685D03*
D14*
X123132315Y-122723685D03*
X125672315Y-122723685D03*
X128212315Y-122723685D03*
X130752315Y-122723685D03*
X133292315Y-122723685D03*
X135832315Y-122723685D03*
X138372315Y-122723685D03*
X140912315Y-122723685D03*
X143452315Y-122723685D03*
X145992315Y-122723685D03*
X148532315Y-122723685D03*
X151072315Y-122723685D03*
X153612315Y-122723685D03*
X153612315Y-115103685D03*
X151072315Y-115103685D03*
X148532315Y-115103685D03*
X145992315Y-115103685D03*
X143452315Y-115103685D03*
X140912315Y-115103685D03*
X138372315Y-115103685D03*
X135832315Y-115103685D03*
X133292315Y-115103685D03*
X130752315Y-115103685D03*
X128212315Y-115103685D03*
X125672315Y-115103685D03*
X123132315Y-115103685D03*
X120592315Y-115103685D03*
%TD*%
D11*
%TO.C,J2*%
X138118315Y-66455685D03*
D10*
X138118315Y-68955685D03*
X138118315Y-71455685D03*
X138118315Y-73955685D03*
%TD*%
D12*
%TO.C,R10*%
X122116315Y-110277685D03*
D14*
X111956315Y-110277685D03*
%TD*%
D12*
%TO.C,R5*%
X122116315Y-103165685D03*
D14*
X111956315Y-103165685D03*
%TD*%
D12*
%TO.C,C6*%
X138666315Y-131105685D03*
X136166315Y-131105685D03*
%TD*%
D15*
%TO.C,J8*%
X112447315Y-124949685D03*
D10*
X112447315Y-122449685D03*
X112447315Y-119949685D03*
X112447315Y-117449685D03*
%TD*%
D12*
%TO.C,R9*%
X160470315Y-128057685D03*
D14*
X170630315Y-128057685D03*
%TD*%
D12*
%TO.C,R2*%
X160470315Y-124247685D03*
D14*
X170630315Y-124247685D03*
%TD*%
D12*
%TO.C,R1*%
X160470315Y-115865685D03*
D14*
X170630315Y-115865685D03*
%TD*%
D16*
%TO.C,Battery1*%
X200000000Y-73041285D03*
D17*
X197500000Y-73041285D03*
%TD*%
D11*
%TO.C,J4*%
X116782315Y-66455685D03*
D10*
X116782315Y-68955685D03*
X116782315Y-71455685D03*
X116782315Y-73955685D03*
%TD*%
D18*
%TO.C,VDCIn1*%
X191799000Y-114428000D03*
D19*
X197799000Y-114428000D03*
D20*
X194799000Y-109728000D03*
%TD*%
D12*
%TO.C,R7*%
X170630315Y-134915685D03*
D14*
X160470315Y-134915685D03*
%TD*%
D12*
%TO.C,C7*%
X145230315Y-109515685D03*
X145230315Y-111515685D03*
%TD*%
%TO.C,C2*%
X126434315Y-108245685D03*
X126434315Y-106245685D03*
%TD*%
%TO.C,R3*%
X160470315Y-120691685D03*
D14*
X170630315Y-120691685D03*
%TD*%
D11*
%TO.C,J1*%
X131006315Y-66455685D03*
D10*
X131006315Y-68955685D03*
X131006315Y-71455685D03*
X131006315Y-73955685D03*
%TD*%
D12*
%TO.C,C1*%
X181536315Y-120691685D03*
X179536315Y-120691685D03*
%TD*%
%TO.C,R6*%
X111956315Y-106721685D03*
D14*
X122116315Y-106721685D03*
%TD*%
D12*
%TO.C,R4*%
X160470315Y-112055685D03*
D14*
X170630315Y-112055685D03*
%TD*%
D21*
%TO.C,SwitchSlot1*%
X199840315Y-81067685D03*
D22*
X197340315Y-81067685D03*
%TD*%
D11*
%TO.C,J7*%
X105623315Y-82925685D03*
D10*
X105623315Y-85425685D03*
X105623315Y-87925685D03*
X105623315Y-90425685D03*
%TD*%
D11*
%TO.C,J3*%
X145230315Y-66455685D03*
D10*
X145230315Y-68955685D03*
X145230315Y-71455685D03*
X145230315Y-73955685D03*
%TD*%
D12*
%TO.C,R8*%
X170630315Y-131359685D03*
D14*
X160470315Y-131359685D03*
%TD*%
D12*
%TO.C,C5*%
X144722315Y-103927685D03*
X144722315Y-105927685D03*
%TD*%
D23*
%TO.C,Y1*%
X143452315Y-127041685D03*
X138572315Y-127041685D03*
%TD*%
D11*
%TO.C,U3*%
X112260000Y-97831685D03*
D10*
X114800000Y-97831685D03*
X117340000Y-97831685D03*
X119880000Y-97831685D03*
X122420000Y-97831685D03*
X124960000Y-97831685D03*
X127500000Y-97831685D03*
X130040000Y-97831685D03*
X132580000Y-97831685D03*
X135120000Y-97831685D03*
X137660000Y-97831685D03*
X140200000Y-97831685D03*
X140200000Y-80051685D03*
X137660000Y-80051685D03*
X135120000Y-80051685D03*
X132580000Y-80051685D03*
X130040000Y-80051685D03*
X127500000Y-80051685D03*
X124960000Y-80051685D03*
X122420000Y-80051685D03*
X119880000Y-80051685D03*
X117340000Y-80051685D03*
X114800000Y-80051685D03*
X112260000Y-80051685D03*
%TD*%
D24*
%TO.C,D1*%
X198570315Y-87671685D03*
D25*
X198570315Y-102911685D03*
%TD*%
D26*
%TO.C,*%
X183594715Y-112836685D03*
%TD*%
%TO.C,*%
X102594715Y-67836685D03*
%TD*%
%TO.C,*%
X145594715Y-87836685D03*
%TD*%
%TO.C,*%
X103594715Y-127836685D03*
%TD*%
M02*
