M48
; DRILL file {KiCad 7.0.9} date Fri Dec 29 10:47:53 2023
; FORMAT={-:-/ absolute / inch / decimal}
; #@! TF.CreationDate,2023-12-29T10:47:53+07:00
; #@! TF.GenerationSoftware,Kicad,Pcbnew,7.0.9
; #@! TF.FileFunction,Plated,1,2,PTH
FMAT,2
INCH
; #@! TA.AperFunction,Plated,PTH,ViaDrill
T1C0.0157
; #@! TA.AperFunction,Plated,PTH,ComponentDrill
T2C0.0315
; #@! TA.AperFunction,Plated,PTH,ComponentDrill
T3C0.0374
; #@! TA.AperFunction,Plated,PTH,ComponentDrill
T4C0.0394
; #@! TA.AperFunction,Plated,PTH,ComponentDrill
T5C0.0630
; #@! TA.AperFunction,Plated,PTH,ComponentDrill
T6C0.1260
%
G90
G05
T1
X3.7835Y-3.3937
X3.7874Y-3.5394
X3.7874Y-3.5394
X3.7913Y-3.6732
X3.7913Y-3.8228
X3.9724Y-3.063
X3.9961Y-2.6299
X3.9965Y-3.3454
X4.0268Y-2.9862
X4.0669Y-2.6299
X4.0732Y-2.9201
X4.1811Y-4.8858
X4.2087Y-3.1811
X4.2244Y-3.3976
X4.2244Y-3.6575
X4.2244Y-3.8858
X4.2244Y-4.126
X4.2283Y-4.3622
X4.2362Y-3.1457
X4.252Y-3.4291
X4.252Y-4.5866
X4.2559Y-4.1417
X4.2598Y-3.6811
X4.2598Y-4.8976
X4.2638Y-3.9055
X4.2795Y-4.374
X4.3031Y-4.5906
X4.315Y-4.9291
X4.374Y-4.9331
X4.6587Y-2.8736
X4.6988Y-2.9043
X4.7283Y-4.9094
X4.7441Y-4.8583
X4.7598Y-4.9567
X4.7598Y-4.9567
X4.7756Y-4.9016
X4.7835Y-3.0591
X4.8858Y-3.0591
X5.0Y-2.788
X5.252Y-4.7323
X5.2756Y-4.6811
X5.3346Y-4.6693
X5.626Y-3.9094
X5.6299Y-3.9567
X5.6732Y-3.9094
X5.6811Y-3.9567
X5.6929Y-2.5354
X5.7047Y-3.4134
X5.748Y-2.5315
X5.7953Y-4.2283
X5.8031Y-3.4685
X5.815Y-2.5748
X5.815Y-2.6457
X5.9173Y-2.6732
X5.9173Y-2.7283
X5.9252Y-3.2323
X5.9843Y-4.126
X5.9843Y-4.248
X6.0079Y-3.3307
X6.0748Y-2.689
X6.0787Y-2.7323
X6.1024Y-3.4606
X6.1102Y-4.5669
X6.1732Y-4.1614
X6.189Y-4.0787
X6.4Y-3.63
X6.4094Y-3.8858
X6.6457Y-3.7165
X6.6654Y-3.6772
X6.7756Y-4.6654
X6.7874Y-4.6142
X6.8268Y-4.1299
X6.8583Y-4.1575
X6.8583Y-5.0433
X6.8583Y-5.0984
X6.8583Y-5.1575
X6.8937Y-5.0039
X7.0Y-3.96
X7.0Y-4.6181
X7.0039Y-4.5512
X7.0709Y-3.8031
X7.0748Y-3.748
X7.0906Y-3.7126
X7.1457Y-3.8937
X7.1512Y-3.8087
X7.1587Y-4.4929
X7.1728Y-4.3138
X7.1791Y-4.4228
X7.3031Y-5.2047
X7.3504Y-5.2047
X7.36Y-4.6
X7.36Y-4.85
X7.3976Y-5.2047
X7.5197Y-2.6457
X7.5354Y-2.7638
X7.6071Y-4.6504
X7.6535Y-2.6457
X7.6693Y-2.7677
X7.7874Y-3.0709
X7.7953Y-3.1378
X7.7953Y-4.5669
X7.811Y-3.185
X7.8268Y-4.5157
X7.8508Y-3.9583
X7.8524Y-4.0736
X7.8583Y-3.2244
X7.8646Y-4.278
X7.874Y-4.4803
X7.8898Y-4.9055
X7.9331Y-4.4803
X7.937Y-4.8937
X7.9724Y-4.7717
X7.9764Y-4.8543
X8.0315Y-3.0118
X8.0315Y-3.0669
X8.0315Y-3.1102
X8.0315Y-3.1614
X8.0839Y-3.9539
X8.2138Y-4.2697
X8.2276Y-4.4114
X8.6457Y-4.1457
X8.6457Y-4.1929
X8.6457Y-4.2441
X8.6457Y-4.2913
T2
X4.5Y-5.0
X4.6378Y-5.0
X4.9Y-3.3599
X4.9Y-3.4599
X4.9Y-3.5599
X4.9Y-3.6599
X4.9Y-3.7599
X4.9Y-3.8599
X4.9Y-3.9599
X4.9Y-4.0599
X4.9Y-4.1599
X4.9Y-4.2599
X4.9Y-4.3599
X4.9Y-4.4599
X5.3709Y-4.8386
X5.5Y-3.3599
X5.5Y-3.4599
X5.5Y-3.5599
X5.5Y-3.6599
X5.5Y-3.7599
X5.5Y-3.8599
X5.5Y-3.9599
X5.5Y-4.0599
X5.5Y-4.1599
X5.5Y-4.2599
X5.5Y-4.3599
X5.5Y-4.4599
X5.7709Y-4.8386
X5.8Y-3.7
X5.8Y-3.8378
X6.0Y-2.7
X6.0Y-3.1
X6.1Y-3.6
X6.1Y-4.0
X6.2323Y-4.6268
X6.2323Y-5.0268
X6.271Y-3.1258
X6.271Y-3.2258
X6.271Y-3.3258
X6.271Y-3.4258
X6.271Y-3.5258
X6.271Y-3.6258
X6.271Y-3.7258
X6.271Y-3.8258
X6.271Y-3.9258
X6.271Y-4.0258
X6.271Y-4.1258
X6.271Y-4.2258
X6.271Y-4.3258
X6.271Y-4.4258
X6.4716Y-4.825
X6.571Y-3.1258
X6.571Y-3.2258
X6.571Y-3.3258
X6.571Y-3.4258
X6.571Y-3.5258
X6.571Y-3.6258
X6.571Y-3.7258
X6.571Y-3.8258
X6.571Y-3.9258
X6.571Y-4.0258
X6.571Y-4.1258
X6.571Y-4.2258
X6.571Y-4.3258
X6.571Y-4.4258
X6.6094Y-4.825
X6.68Y-2.715
X6.68Y-2.875
X6.8Y-3.5071
X6.8Y-3.7
X6.9724Y-3.4567
X6.9724Y-3.5551
X6.9724Y-3.6496
X6.9724Y-3.748
X7.08Y-2.715
X7.08Y-2.875
X8.1319Y-4.5906
X8.2303Y-4.5906
T3
X8.5315Y-3.9555
X8.5315Y-4.0539
X8.5315Y-4.1524
X8.5315Y-4.2508
X8.5315Y-4.3492
X8.5315Y-4.4476
T4
X4.1496Y-3.7795
X4.1496Y-4.0157
X4.152Y-3.3
X4.152Y-3.5433
X4.152Y-4.252
X4.152Y-4.4882
X4.2496Y-3.7795
X4.2496Y-4.0157
X4.252Y-3.3
X4.252Y-3.5433
X4.252Y-4.252
X4.252Y-4.4882
X4.3496Y-3.7795
X4.3496Y-4.0157
X4.352Y-3.3
X4.352Y-3.5433
X4.352Y-4.252
X4.352Y-4.4882
X4.4496Y-3.7795
X4.4496Y-4.0157
X4.452Y-3.3
X4.452Y-3.5433
X4.452Y-4.252
X4.452Y-4.4882
X4.89Y-5.1
X4.99Y-5.1
X5.6575Y-4.189
X5.6575Y-4.289
X5.6575Y-4.389
X5.6575Y-4.489
X5.8976Y-4.3882
X5.8976Y-4.4882
X5.8976Y-4.5882
X5.8976Y-4.6882
X6.9Y-4.3
X6.9Y-4.4
X6.9Y-4.5
X6.9Y-4.6
X6.955Y-5.1
X7.055Y-5.1
X7.15Y-3.1
X7.15Y-4.6
X7.39Y-5.1
X7.49Y-5.1
X7.9Y-3.1
X7.9Y-4.6
T5
X5.34Y-5.1
X5.94Y-5.1
T6
X3.9142Y-5.111
X8.4382Y-5.1055
X8.4618Y-2.6992
T0
M30
