%TF.GenerationSoftware,KiCad,Pcbnew,8.0.2*%
%TF.CreationDate,2024-12-07T14:58:36+07:00*%
%TF.ProjectId,bit-v5.1.1,6269742d-7635-42e3-912e-312e6b696361,rev?*%
%TF.SameCoordinates,Original*%
%TF.FileFunction,Legend,Top*%
%TF.FilePolarity,Positive*%
%FSLAX46Y46*%
G04 Gerber Fmt 4.6, Leading zero omitted, Abs format (unit mm)*
G04 Created by KiCad (PCBNEW 8.0.2) date 2024-12-07 14:58:36*
%MOMM*%
%LPD*%
G01*
G04 APERTURE LIST*
%ADD10C,0.100000*%
%ADD11C,0.150000*%
%ADD12C,0.160000*%
%ADD13C,0.080000*%
%ADD14C,0.127000*%
%ADD15C,0.120000*%
%ADD16C,0.152400*%
G04 APERTURE END LIST*
D10*
X138894880Y-104183728D02*
X138847261Y-104159919D01*
X138847261Y-104159919D02*
X138799642Y-104112300D01*
X138799642Y-104112300D02*
X138728214Y-104040871D01*
X138728214Y-104040871D02*
X138680595Y-104017061D01*
X138680595Y-104017061D02*
X138632976Y-104017061D01*
X138656785Y-104136109D02*
X138609166Y-104112300D01*
X138609166Y-104112300D02*
X138561547Y-104064680D01*
X138561547Y-104064680D02*
X138537738Y-103969442D01*
X138537738Y-103969442D02*
X138537738Y-103802776D01*
X138537738Y-103802776D02*
X138561547Y-103707538D01*
X138561547Y-103707538D02*
X138609166Y-103659919D01*
X138609166Y-103659919D02*
X138656785Y-103636109D01*
X138656785Y-103636109D02*
X138752023Y-103636109D01*
X138752023Y-103636109D02*
X138799642Y-103659919D01*
X138799642Y-103659919D02*
X138847261Y-103707538D01*
X138847261Y-103707538D02*
X138871071Y-103802776D01*
X138871071Y-103802776D02*
X138871071Y-103969442D01*
X138871071Y-103969442D02*
X138847261Y-104064680D01*
X138847261Y-104064680D02*
X138799642Y-104112300D01*
X138799642Y-104112300D02*
X138752023Y-104136109D01*
X138752023Y-104136109D02*
X138656785Y-104136109D01*
X139347262Y-104136109D02*
X139061548Y-104136109D01*
X139204405Y-104136109D02*
X139204405Y-103636109D01*
X139204405Y-103636109D02*
X139156786Y-103707538D01*
X139156786Y-103707538D02*
X139109167Y-103755157D01*
X139109167Y-103755157D02*
X139061548Y-103778966D01*
X134858490Y-113393333D02*
X134882300Y-113417142D01*
X134882300Y-113417142D02*
X134906109Y-113488571D01*
X134906109Y-113488571D02*
X134906109Y-113536190D01*
X134906109Y-113536190D02*
X134882300Y-113607618D01*
X134882300Y-113607618D02*
X134834680Y-113655237D01*
X134834680Y-113655237D02*
X134787061Y-113679047D01*
X134787061Y-113679047D02*
X134691823Y-113702856D01*
X134691823Y-113702856D02*
X134620395Y-113702856D01*
X134620395Y-113702856D02*
X134525157Y-113679047D01*
X134525157Y-113679047D02*
X134477538Y-113655237D01*
X134477538Y-113655237D02*
X134429919Y-113607618D01*
X134429919Y-113607618D02*
X134406109Y-113536190D01*
X134406109Y-113536190D02*
X134406109Y-113488571D01*
X134406109Y-113488571D02*
X134429919Y-113417142D01*
X134429919Y-113417142D02*
X134453728Y-113393333D01*
X134572776Y-112964761D02*
X134906109Y-112964761D01*
X134382300Y-113083809D02*
X134739442Y-113202856D01*
X134739442Y-113202856D02*
X134739442Y-112893333D01*
X139062166Y-112734515D02*
X139062166Y-111972611D01*
D11*
X121738095Y-131846819D02*
X122309523Y-131846819D01*
X122023809Y-132846819D02*
X122023809Y-131846819D01*
X122642857Y-132846819D02*
X122642857Y-131846819D01*
X122642857Y-131846819D02*
X123023809Y-131846819D01*
X123023809Y-131846819D02*
X123119047Y-131894438D01*
X123119047Y-131894438D02*
X123166666Y-131942057D01*
X123166666Y-131942057D02*
X123214285Y-132037295D01*
X123214285Y-132037295D02*
X123214285Y-132180152D01*
X123214285Y-132180152D02*
X123166666Y-132275390D01*
X123166666Y-132275390D02*
X123119047Y-132323009D01*
X123119047Y-132323009D02*
X123023809Y-132370628D01*
X123023809Y-132370628D02*
X122642857Y-132370628D01*
X124166666Y-132846819D02*
X123595238Y-132846819D01*
X123880952Y-132846819D02*
X123880952Y-131846819D01*
X123880952Y-131846819D02*
X123785714Y-131989676D01*
X123785714Y-131989676D02*
X123690476Y-132084914D01*
X123690476Y-132084914D02*
X123595238Y-132132533D01*
D12*
X142063333Y-63901775D02*
X142063333Y-64473203D01*
X142063333Y-64473203D02*
X142025238Y-64587489D01*
X142025238Y-64587489D02*
X141949047Y-64663680D01*
X141949047Y-64663680D02*
X141834762Y-64701775D01*
X141834762Y-64701775D02*
X141758571Y-64701775D01*
X142368095Y-63901775D02*
X142863333Y-63901775D01*
X142863333Y-63901775D02*
X142596667Y-64206537D01*
X142596667Y-64206537D02*
X142710952Y-64206537D01*
X142710952Y-64206537D02*
X142787143Y-64244632D01*
X142787143Y-64244632D02*
X142825238Y-64282727D01*
X142825238Y-64282727D02*
X142863333Y-64358918D01*
X142863333Y-64358918D02*
X142863333Y-64549394D01*
X142863333Y-64549394D02*
X142825238Y-64625584D01*
X142825238Y-64625584D02*
X142787143Y-64663680D01*
X142787143Y-64663680D02*
X142710952Y-64701775D01*
X142710952Y-64701775D02*
X142482381Y-64701775D01*
X142482381Y-64701775D02*
X142406190Y-64663680D01*
X142406190Y-64663680D02*
X142368095Y-64625584D01*
D10*
X178885362Y-124815794D02*
X178885362Y-125220556D01*
X178885362Y-125220556D02*
X178909172Y-125268175D01*
X178909172Y-125268175D02*
X178932981Y-125291985D01*
X178932981Y-125291985D02*
X178980600Y-125315794D01*
X178980600Y-125315794D02*
X179075838Y-125315794D01*
X179075838Y-125315794D02*
X179123457Y-125291985D01*
X179123457Y-125291985D02*
X179147267Y-125268175D01*
X179147267Y-125268175D02*
X179171076Y-125220556D01*
X179171076Y-125220556D02*
X179171076Y-124815794D01*
X179623458Y-124982461D02*
X179623458Y-125315794D01*
X179504410Y-124791985D02*
X179385363Y-125149127D01*
X179385363Y-125149127D02*
X179694886Y-125149127D01*
D13*
X183171326Y-133808001D02*
X183133231Y-133788953D01*
X183133231Y-133788953D02*
X183114184Y-133769905D01*
X183114184Y-133769905D02*
X183095136Y-133731810D01*
X183095136Y-133731810D02*
X183095136Y-133712763D01*
X183095136Y-133712763D02*
X183114184Y-133674667D01*
X183114184Y-133674667D02*
X183133231Y-133655620D01*
X183133231Y-133655620D02*
X183171326Y-133636572D01*
X183171326Y-133636572D02*
X183247517Y-133636572D01*
X183247517Y-133636572D02*
X183285612Y-133655620D01*
X183285612Y-133655620D02*
X183304660Y-133674667D01*
X183304660Y-133674667D02*
X183323707Y-133712763D01*
X183323707Y-133712763D02*
X183323707Y-133731810D01*
X183323707Y-133731810D02*
X183304660Y-133769905D01*
X183304660Y-133769905D02*
X183285612Y-133788953D01*
X183285612Y-133788953D02*
X183247517Y-133808001D01*
X183247517Y-133808001D02*
X183171326Y-133808001D01*
X183171326Y-133808001D02*
X183133231Y-133827048D01*
X183133231Y-133827048D02*
X183114184Y-133846096D01*
X183114184Y-133846096D02*
X183095136Y-133884191D01*
X183095136Y-133884191D02*
X183095136Y-133960382D01*
X183095136Y-133960382D02*
X183114184Y-133998477D01*
X183114184Y-133998477D02*
X183133231Y-134017525D01*
X183133231Y-134017525D02*
X183171326Y-134036572D01*
X183171326Y-134036572D02*
X183247517Y-134036572D01*
X183247517Y-134036572D02*
X183285612Y-134017525D01*
X183285612Y-134017525D02*
X183304660Y-133998477D01*
X183304660Y-133998477D02*
X183323707Y-133960382D01*
X183323707Y-133960382D02*
X183323707Y-133884191D01*
X183323707Y-133884191D02*
X183304660Y-133846096D01*
X183304660Y-133846096D02*
X183285612Y-133827048D01*
X183285612Y-133827048D02*
X183247517Y-133808001D01*
X175623707Y-126436572D02*
X175395136Y-126436572D01*
X175509422Y-126436572D02*
X175509422Y-126036572D01*
X175509422Y-126036572D02*
X175471326Y-126093715D01*
X175471326Y-126093715D02*
X175433231Y-126131810D01*
X175433231Y-126131810D02*
X175395136Y-126150858D01*
D11*
X117124819Y-121926904D02*
X117934342Y-121926904D01*
X117934342Y-121926904D02*
X118029580Y-121879285D01*
X118029580Y-121879285D02*
X118077200Y-121831666D01*
X118077200Y-121831666D02*
X118124819Y-121736428D01*
X118124819Y-121736428D02*
X118124819Y-121545952D01*
X118124819Y-121545952D02*
X118077200Y-121450714D01*
X118077200Y-121450714D02*
X118029580Y-121403095D01*
X118029580Y-121403095D02*
X117934342Y-121355476D01*
X117934342Y-121355476D02*
X117124819Y-121355476D01*
X118124819Y-120355476D02*
X118124819Y-120926904D01*
X118124819Y-120641190D02*
X117124819Y-120641190D01*
X117124819Y-120641190D02*
X117267676Y-120736428D01*
X117267676Y-120736428D02*
X117362914Y-120831666D01*
X117362914Y-120831666D02*
X117410533Y-120926904D01*
X197116666Y-75954819D02*
X197116666Y-76669104D01*
X197116666Y-76669104D02*
X197069047Y-76811961D01*
X197069047Y-76811961D02*
X196973809Y-76907200D01*
X196973809Y-76907200D02*
X196830952Y-76954819D01*
X196830952Y-76954819D02*
X196735714Y-76954819D01*
X197640476Y-76954819D02*
X197830952Y-76954819D01*
X197830952Y-76954819D02*
X197926190Y-76907200D01*
X197926190Y-76907200D02*
X197973809Y-76859580D01*
X197973809Y-76859580D02*
X198069047Y-76716723D01*
X198069047Y-76716723D02*
X198116666Y-76526247D01*
X198116666Y-76526247D02*
X198116666Y-76145295D01*
X198116666Y-76145295D02*
X198069047Y-76050057D01*
X198069047Y-76050057D02*
X198021428Y-76002438D01*
X198021428Y-76002438D02*
X197926190Y-75954819D01*
X197926190Y-75954819D02*
X197735714Y-75954819D01*
X197735714Y-75954819D02*
X197640476Y-76002438D01*
X197640476Y-76002438D02*
X197592857Y-76050057D01*
X197592857Y-76050057D02*
X197545238Y-76145295D01*
X197545238Y-76145295D02*
X197545238Y-76383390D01*
X197545238Y-76383390D02*
X197592857Y-76478628D01*
X197592857Y-76478628D02*
X197640476Y-76526247D01*
X197640476Y-76526247D02*
X197735714Y-76573866D01*
X197735714Y-76573866D02*
X197926190Y-76573866D01*
X197926190Y-76573866D02*
X198021428Y-76526247D01*
X198021428Y-76526247D02*
X198069047Y-76478628D01*
X198069047Y-76478628D02*
X198116666Y-76383390D01*
D12*
X123185714Y-110611775D02*
X122919047Y-110230822D01*
X122728571Y-110611775D02*
X122728571Y-109811775D01*
X122728571Y-109811775D02*
X123033333Y-109811775D01*
X123033333Y-109811775D02*
X123109523Y-109849870D01*
X123109523Y-109849870D02*
X123147618Y-109887965D01*
X123147618Y-109887965D02*
X123185714Y-109964156D01*
X123185714Y-109964156D02*
X123185714Y-110078441D01*
X123185714Y-110078441D02*
X123147618Y-110154632D01*
X123147618Y-110154632D02*
X123109523Y-110192727D01*
X123109523Y-110192727D02*
X123033333Y-110230822D01*
X123033333Y-110230822D02*
X122728571Y-110230822D01*
X123947618Y-110611775D02*
X123490475Y-110611775D01*
X123719047Y-110611775D02*
X123719047Y-109811775D01*
X123719047Y-109811775D02*
X123642856Y-109926060D01*
X123642856Y-109926060D02*
X123566666Y-110002251D01*
X123566666Y-110002251D02*
X123490475Y-110040346D01*
X124442857Y-109811775D02*
X124519047Y-109811775D01*
X124519047Y-109811775D02*
X124595238Y-109849870D01*
X124595238Y-109849870D02*
X124633333Y-109887965D01*
X124633333Y-109887965D02*
X124671428Y-109964156D01*
X124671428Y-109964156D02*
X124709523Y-110116537D01*
X124709523Y-110116537D02*
X124709523Y-110307013D01*
X124709523Y-110307013D02*
X124671428Y-110459394D01*
X124671428Y-110459394D02*
X124633333Y-110535584D01*
X124633333Y-110535584D02*
X124595238Y-110573680D01*
X124595238Y-110573680D02*
X124519047Y-110611775D01*
X124519047Y-110611775D02*
X124442857Y-110611775D01*
X124442857Y-110611775D02*
X124366666Y-110573680D01*
X124366666Y-110573680D02*
X124328571Y-110535584D01*
X124328571Y-110535584D02*
X124290476Y-110459394D01*
X124290476Y-110459394D02*
X124252380Y-110307013D01*
X124252380Y-110307013D02*
X124252380Y-110116537D01*
X124252380Y-110116537D02*
X124290476Y-109964156D01*
X124290476Y-109964156D02*
X124328571Y-109887965D01*
X124328571Y-109887965D02*
X124366666Y-109849870D01*
X124366666Y-109849870D02*
X124442857Y-109811775D01*
X123566667Y-102311775D02*
X123300000Y-101930822D01*
X123109524Y-102311775D02*
X123109524Y-101511775D01*
X123109524Y-101511775D02*
X123414286Y-101511775D01*
X123414286Y-101511775D02*
X123490476Y-101549870D01*
X123490476Y-101549870D02*
X123528571Y-101587965D01*
X123528571Y-101587965D02*
X123566667Y-101664156D01*
X123566667Y-101664156D02*
X123566667Y-101778441D01*
X123566667Y-101778441D02*
X123528571Y-101854632D01*
X123528571Y-101854632D02*
X123490476Y-101892727D01*
X123490476Y-101892727D02*
X123414286Y-101930822D01*
X123414286Y-101930822D02*
X123109524Y-101930822D01*
X124290476Y-101511775D02*
X123909524Y-101511775D01*
X123909524Y-101511775D02*
X123871428Y-101892727D01*
X123871428Y-101892727D02*
X123909524Y-101854632D01*
X123909524Y-101854632D02*
X123985714Y-101816537D01*
X123985714Y-101816537D02*
X124176190Y-101816537D01*
X124176190Y-101816537D02*
X124252381Y-101854632D01*
X124252381Y-101854632D02*
X124290476Y-101892727D01*
X124290476Y-101892727D02*
X124328571Y-101968918D01*
X124328571Y-101968918D02*
X124328571Y-102159394D01*
X124328571Y-102159394D02*
X124290476Y-102235584D01*
X124290476Y-102235584D02*
X124252381Y-102273680D01*
X124252381Y-102273680D02*
X124176190Y-102311775D01*
X124176190Y-102311775D02*
X123985714Y-102311775D01*
X123985714Y-102311775D02*
X123909524Y-102273680D01*
X123909524Y-102273680D02*
X123871428Y-102235584D01*
D11*
X136548333Y-135799580D02*
X136500714Y-135847200D01*
X136500714Y-135847200D02*
X136357857Y-135894819D01*
X136357857Y-135894819D02*
X136262619Y-135894819D01*
X136262619Y-135894819D02*
X136119762Y-135847200D01*
X136119762Y-135847200D02*
X136024524Y-135751961D01*
X136024524Y-135751961D02*
X135976905Y-135656723D01*
X135976905Y-135656723D02*
X135929286Y-135466247D01*
X135929286Y-135466247D02*
X135929286Y-135323390D01*
X135929286Y-135323390D02*
X135976905Y-135132914D01*
X135976905Y-135132914D02*
X136024524Y-135037676D01*
X136024524Y-135037676D02*
X136119762Y-134942438D01*
X136119762Y-134942438D02*
X136262619Y-134894819D01*
X136262619Y-134894819D02*
X136357857Y-134894819D01*
X136357857Y-134894819D02*
X136500714Y-134942438D01*
X136500714Y-134942438D02*
X136548333Y-134990057D01*
X137405476Y-134894819D02*
X137215000Y-134894819D01*
X137215000Y-134894819D02*
X137119762Y-134942438D01*
X137119762Y-134942438D02*
X137072143Y-134990057D01*
X137072143Y-134990057D02*
X136976905Y-135132914D01*
X136976905Y-135132914D02*
X136929286Y-135323390D01*
X136929286Y-135323390D02*
X136929286Y-135704342D01*
X136929286Y-135704342D02*
X136976905Y-135799580D01*
X136976905Y-135799580D02*
X137024524Y-135847200D01*
X137024524Y-135847200D02*
X137119762Y-135894819D01*
X137119762Y-135894819D02*
X137310238Y-135894819D01*
X137310238Y-135894819D02*
X137405476Y-135847200D01*
X137405476Y-135847200D02*
X137453095Y-135799580D01*
X137453095Y-135799580D02*
X137500714Y-135704342D01*
X137500714Y-135704342D02*
X137500714Y-135466247D01*
X137500714Y-135466247D02*
X137453095Y-135371009D01*
X137453095Y-135371009D02*
X137405476Y-135323390D01*
X137405476Y-135323390D02*
X137310238Y-135275771D01*
X137310238Y-135275771D02*
X137119762Y-135275771D01*
X137119762Y-135275771D02*
X137024524Y-135323390D01*
X137024524Y-135323390D02*
X136976905Y-135371009D01*
X136976905Y-135371009D02*
X136929286Y-135466247D01*
D12*
X123185714Y-114611775D02*
X122919047Y-114230822D01*
X122728571Y-114611775D02*
X122728571Y-113811775D01*
X122728571Y-113811775D02*
X123033333Y-113811775D01*
X123033333Y-113811775D02*
X123109523Y-113849870D01*
X123109523Y-113849870D02*
X123147618Y-113887965D01*
X123147618Y-113887965D02*
X123185714Y-113964156D01*
X123185714Y-113964156D02*
X123185714Y-114078441D01*
X123185714Y-114078441D02*
X123147618Y-114154632D01*
X123147618Y-114154632D02*
X123109523Y-114192727D01*
X123109523Y-114192727D02*
X123033333Y-114230822D01*
X123033333Y-114230822D02*
X122728571Y-114230822D01*
X123947618Y-114611775D02*
X123490475Y-114611775D01*
X123719047Y-114611775D02*
X123719047Y-113811775D01*
X123719047Y-113811775D02*
X123642856Y-113926060D01*
X123642856Y-113926060D02*
X123566666Y-114002251D01*
X123566666Y-114002251D02*
X123490475Y-114040346D01*
X124709523Y-114611775D02*
X124252380Y-114611775D01*
X124480952Y-114611775D02*
X124480952Y-113811775D01*
X124480952Y-113811775D02*
X124404761Y-113926060D01*
X124404761Y-113926060D02*
X124328571Y-114002251D01*
X124328571Y-114002251D02*
X124252380Y-114040346D01*
D11*
X146034819Y-112921904D02*
X146844342Y-112921904D01*
X146844342Y-112921904D02*
X146939580Y-112874285D01*
X146939580Y-112874285D02*
X146987200Y-112826666D01*
X146987200Y-112826666D02*
X147034819Y-112731428D01*
X147034819Y-112731428D02*
X147034819Y-112540952D01*
X147034819Y-112540952D02*
X146987200Y-112445714D01*
X146987200Y-112445714D02*
X146939580Y-112398095D01*
X146939580Y-112398095D02*
X146844342Y-112350476D01*
X146844342Y-112350476D02*
X146034819Y-112350476D01*
X146130057Y-111921904D02*
X146082438Y-111874285D01*
X146082438Y-111874285D02*
X146034819Y-111779047D01*
X146034819Y-111779047D02*
X146034819Y-111540952D01*
X146034819Y-111540952D02*
X146082438Y-111445714D01*
X146082438Y-111445714D02*
X146130057Y-111398095D01*
X146130057Y-111398095D02*
X146225295Y-111350476D01*
X146225295Y-111350476D02*
X146320533Y-111350476D01*
X146320533Y-111350476D02*
X146463390Y-111398095D01*
X146463390Y-111398095D02*
X147034819Y-111969523D01*
X147034819Y-111969523D02*
X147034819Y-111350476D01*
D12*
X165546667Y-127628707D02*
X165280000Y-127247754D01*
X165089524Y-127628707D02*
X165089524Y-126828707D01*
X165089524Y-126828707D02*
X165394286Y-126828707D01*
X165394286Y-126828707D02*
X165470476Y-126866802D01*
X165470476Y-126866802D02*
X165508571Y-126904897D01*
X165508571Y-126904897D02*
X165546667Y-126981088D01*
X165546667Y-126981088D02*
X165546667Y-127095373D01*
X165546667Y-127095373D02*
X165508571Y-127171564D01*
X165508571Y-127171564D02*
X165470476Y-127209659D01*
X165470476Y-127209659D02*
X165394286Y-127247754D01*
X165394286Y-127247754D02*
X165089524Y-127247754D01*
X165927619Y-127628707D02*
X166080000Y-127628707D01*
X166080000Y-127628707D02*
X166156190Y-127590612D01*
X166156190Y-127590612D02*
X166194286Y-127552516D01*
X166194286Y-127552516D02*
X166270476Y-127438231D01*
X166270476Y-127438231D02*
X166308571Y-127285850D01*
X166308571Y-127285850D02*
X166308571Y-126981088D01*
X166308571Y-126981088D02*
X166270476Y-126904897D01*
X166270476Y-126904897D02*
X166232381Y-126866802D01*
X166232381Y-126866802D02*
X166156190Y-126828707D01*
X166156190Y-126828707D02*
X166003809Y-126828707D01*
X166003809Y-126828707D02*
X165927619Y-126866802D01*
X165927619Y-126866802D02*
X165889524Y-126904897D01*
X165889524Y-126904897D02*
X165851428Y-126981088D01*
X165851428Y-126981088D02*
X165851428Y-127171564D01*
X165851428Y-127171564D02*
X165889524Y-127247754D01*
X165889524Y-127247754D02*
X165927619Y-127285850D01*
X165927619Y-127285850D02*
X166003809Y-127323945D01*
X166003809Y-127323945D02*
X166156190Y-127323945D01*
X166156190Y-127323945D02*
X166232381Y-127285850D01*
X166232381Y-127285850D02*
X166270476Y-127247754D01*
X166270476Y-127247754D02*
X166308571Y-127171564D01*
X136285714Y-106601775D02*
X136019047Y-106220822D01*
X135828571Y-106601775D02*
X135828571Y-105801775D01*
X135828571Y-105801775D02*
X136133333Y-105801775D01*
X136133333Y-105801775D02*
X136209523Y-105839870D01*
X136209523Y-105839870D02*
X136247618Y-105877965D01*
X136247618Y-105877965D02*
X136285714Y-105954156D01*
X136285714Y-105954156D02*
X136285714Y-106068441D01*
X136285714Y-106068441D02*
X136247618Y-106144632D01*
X136247618Y-106144632D02*
X136209523Y-106182727D01*
X136209523Y-106182727D02*
X136133333Y-106220822D01*
X136133333Y-106220822D02*
X135828571Y-106220822D01*
X137047618Y-106601775D02*
X136590475Y-106601775D01*
X136819047Y-106601775D02*
X136819047Y-105801775D01*
X136819047Y-105801775D02*
X136742856Y-105916060D01*
X136742856Y-105916060D02*
X136666666Y-105992251D01*
X136666666Y-105992251D02*
X136590475Y-106030346D01*
X137352380Y-105877965D02*
X137390476Y-105839870D01*
X137390476Y-105839870D02*
X137466666Y-105801775D01*
X137466666Y-105801775D02*
X137657142Y-105801775D01*
X137657142Y-105801775D02*
X137733333Y-105839870D01*
X137733333Y-105839870D02*
X137771428Y-105877965D01*
X137771428Y-105877965D02*
X137809523Y-105954156D01*
X137809523Y-105954156D02*
X137809523Y-106030346D01*
X137809523Y-106030346D02*
X137771428Y-106144632D01*
X137771428Y-106144632D02*
X137314285Y-106601775D01*
X137314285Y-106601775D02*
X137809523Y-106601775D01*
X165546667Y-123814474D02*
X165280000Y-123433521D01*
X165089524Y-123814474D02*
X165089524Y-123014474D01*
X165089524Y-123014474D02*
X165394286Y-123014474D01*
X165394286Y-123014474D02*
X165470476Y-123052569D01*
X165470476Y-123052569D02*
X165508571Y-123090664D01*
X165508571Y-123090664D02*
X165546667Y-123166855D01*
X165546667Y-123166855D02*
X165546667Y-123281140D01*
X165546667Y-123281140D02*
X165508571Y-123357331D01*
X165508571Y-123357331D02*
X165470476Y-123395426D01*
X165470476Y-123395426D02*
X165394286Y-123433521D01*
X165394286Y-123433521D02*
X165089524Y-123433521D01*
X165851428Y-123090664D02*
X165889524Y-123052569D01*
X165889524Y-123052569D02*
X165965714Y-123014474D01*
X165965714Y-123014474D02*
X166156190Y-123014474D01*
X166156190Y-123014474D02*
X166232381Y-123052569D01*
X166232381Y-123052569D02*
X166270476Y-123090664D01*
X166270476Y-123090664D02*
X166308571Y-123166855D01*
X166308571Y-123166855D02*
X166308571Y-123243045D01*
X166308571Y-123243045D02*
X166270476Y-123357331D01*
X166270476Y-123357331D02*
X165813333Y-123814474D01*
X165813333Y-123814474D02*
X166308571Y-123814474D01*
X165546667Y-116186008D02*
X165280000Y-115805055D01*
X165089524Y-116186008D02*
X165089524Y-115386008D01*
X165089524Y-115386008D02*
X165394286Y-115386008D01*
X165394286Y-115386008D02*
X165470476Y-115424103D01*
X165470476Y-115424103D02*
X165508571Y-115462198D01*
X165508571Y-115462198D02*
X165546667Y-115538389D01*
X165546667Y-115538389D02*
X165546667Y-115652674D01*
X165546667Y-115652674D02*
X165508571Y-115728865D01*
X165508571Y-115728865D02*
X165470476Y-115766960D01*
X165470476Y-115766960D02*
X165394286Y-115805055D01*
X165394286Y-115805055D02*
X165089524Y-115805055D01*
X166308571Y-116186008D02*
X165851428Y-116186008D01*
X166080000Y-116186008D02*
X166080000Y-115386008D01*
X166080000Y-115386008D02*
X166003809Y-115500293D01*
X166003809Y-115500293D02*
X165927619Y-115576484D01*
X165927619Y-115576484D02*
X165851428Y-115614579D01*
X157263333Y-63901775D02*
X157263333Y-64473203D01*
X157263333Y-64473203D02*
X157225238Y-64587489D01*
X157225238Y-64587489D02*
X157149047Y-64663680D01*
X157149047Y-64663680D02*
X157034762Y-64701775D01*
X157034762Y-64701775D02*
X156958571Y-64701775D01*
X158063333Y-64701775D02*
X157606190Y-64701775D01*
X157834762Y-64701775D02*
X157834762Y-63901775D01*
X157834762Y-63901775D02*
X157758571Y-64016060D01*
X157758571Y-64016060D02*
X157682381Y-64092251D01*
X157682381Y-64092251D02*
X157606190Y-64130346D01*
X149663333Y-63901775D02*
X149663333Y-64473203D01*
X149663333Y-64473203D02*
X149625238Y-64587489D01*
X149625238Y-64587489D02*
X149549047Y-64663680D01*
X149549047Y-64663680D02*
X149434762Y-64701775D01*
X149434762Y-64701775D02*
X149358571Y-64701775D01*
X150006190Y-63977965D02*
X150044286Y-63939870D01*
X150044286Y-63939870D02*
X150120476Y-63901775D01*
X150120476Y-63901775D02*
X150310952Y-63901775D01*
X150310952Y-63901775D02*
X150387143Y-63939870D01*
X150387143Y-63939870D02*
X150425238Y-63977965D01*
X150425238Y-63977965D02*
X150463333Y-64054156D01*
X150463333Y-64054156D02*
X150463333Y-64130346D01*
X150463333Y-64130346D02*
X150425238Y-64244632D01*
X150425238Y-64244632D02*
X149968095Y-64701775D01*
X149968095Y-64701775D02*
X150463333Y-64701775D01*
D11*
X127738095Y-131846819D02*
X128309523Y-131846819D01*
X128023809Y-132846819D02*
X128023809Y-131846819D01*
X128642857Y-132846819D02*
X128642857Y-131846819D01*
X128642857Y-131846819D02*
X129023809Y-131846819D01*
X129023809Y-131846819D02*
X129119047Y-131894438D01*
X129119047Y-131894438D02*
X129166666Y-131942057D01*
X129166666Y-131942057D02*
X129214285Y-132037295D01*
X129214285Y-132037295D02*
X129214285Y-132180152D01*
X129214285Y-132180152D02*
X129166666Y-132275390D01*
X129166666Y-132275390D02*
X129119047Y-132323009D01*
X129119047Y-132323009D02*
X129023809Y-132370628D01*
X129023809Y-132370628D02*
X128642857Y-132370628D01*
X129595238Y-131942057D02*
X129642857Y-131894438D01*
X129642857Y-131894438D02*
X129738095Y-131846819D01*
X129738095Y-131846819D02*
X129976190Y-131846819D01*
X129976190Y-131846819D02*
X130071428Y-131894438D01*
X130071428Y-131894438D02*
X130119047Y-131942057D01*
X130119047Y-131942057D02*
X130166666Y-132037295D01*
X130166666Y-132037295D02*
X130166666Y-132132533D01*
X130166666Y-132132533D02*
X130119047Y-132275390D01*
X130119047Y-132275390D02*
X129547619Y-132846819D01*
X129547619Y-132846819D02*
X130166666Y-132846819D01*
D12*
X165546667Y-135257175D02*
X165280000Y-134876222D01*
X165089524Y-135257175D02*
X165089524Y-134457175D01*
X165089524Y-134457175D02*
X165394286Y-134457175D01*
X165394286Y-134457175D02*
X165470476Y-134495270D01*
X165470476Y-134495270D02*
X165508571Y-134533365D01*
X165508571Y-134533365D02*
X165546667Y-134609556D01*
X165546667Y-134609556D02*
X165546667Y-134723841D01*
X165546667Y-134723841D02*
X165508571Y-134800032D01*
X165508571Y-134800032D02*
X165470476Y-134838127D01*
X165470476Y-134838127D02*
X165394286Y-134876222D01*
X165394286Y-134876222D02*
X165089524Y-134876222D01*
X165813333Y-134457175D02*
X166346667Y-134457175D01*
X166346667Y-134457175D02*
X166003809Y-135257175D01*
D11*
X153298095Y-131846819D02*
X153869523Y-131846819D01*
X153583809Y-132846819D02*
X153583809Y-131846819D01*
X154202857Y-132846819D02*
X154202857Y-131846819D01*
X154202857Y-131846819D02*
X154583809Y-131846819D01*
X154583809Y-131846819D02*
X154679047Y-131894438D01*
X154679047Y-131894438D02*
X154726666Y-131942057D01*
X154726666Y-131942057D02*
X154774285Y-132037295D01*
X154774285Y-132037295D02*
X154774285Y-132180152D01*
X154774285Y-132180152D02*
X154726666Y-132275390D01*
X154726666Y-132275390D02*
X154679047Y-132323009D01*
X154679047Y-132323009D02*
X154583809Y-132370628D01*
X154583809Y-132370628D02*
X154202857Y-132370628D01*
X155107619Y-131846819D02*
X155726666Y-131846819D01*
X155726666Y-131846819D02*
X155393333Y-132227771D01*
X155393333Y-132227771D02*
X155536190Y-132227771D01*
X155536190Y-132227771D02*
X155631428Y-132275390D01*
X155631428Y-132275390D02*
X155679047Y-132323009D01*
X155679047Y-132323009D02*
X155726666Y-132418247D01*
X155726666Y-132418247D02*
X155726666Y-132656342D01*
X155726666Y-132656342D02*
X155679047Y-132751580D01*
X155679047Y-132751580D02*
X155631428Y-132799200D01*
X155631428Y-132799200D02*
X155536190Y-132846819D01*
X155536190Y-132846819D02*
X155250476Y-132846819D01*
X155250476Y-132846819D02*
X155155238Y-132799200D01*
X155155238Y-132799200D02*
X155107619Y-132751580D01*
D10*
X196094238Y-109486109D02*
X196094238Y-109843252D01*
X196094238Y-109843252D02*
X196070429Y-109914680D01*
X196070429Y-109914680D02*
X196022810Y-109962300D01*
X196022810Y-109962300D02*
X195951381Y-109986109D01*
X195951381Y-109986109D02*
X195903762Y-109986109D01*
X196594238Y-109986109D02*
X196308524Y-109986109D01*
X196451381Y-109986109D02*
X196451381Y-109486109D01*
X196451381Y-109486109D02*
X196403762Y-109557538D01*
X196403762Y-109557538D02*
X196356143Y-109605157D01*
X196356143Y-109605157D02*
X196308524Y-109628966D01*
X197070428Y-109986109D02*
X196784714Y-109986109D01*
X196927571Y-109986109D02*
X196927571Y-109486109D01*
X196927571Y-109486109D02*
X196879952Y-109557538D01*
X196879952Y-109557538D02*
X196832333Y-109605157D01*
X196832333Y-109605157D02*
X196784714Y-109628966D01*
D12*
X126863333Y-63901775D02*
X126863333Y-64473203D01*
X126863333Y-64473203D02*
X126825238Y-64587489D01*
X126825238Y-64587489D02*
X126749047Y-64663680D01*
X126749047Y-64663680D02*
X126634762Y-64701775D01*
X126634762Y-64701775D02*
X126558571Y-64701775D01*
X127625238Y-63901775D02*
X127244286Y-63901775D01*
X127244286Y-63901775D02*
X127206190Y-64282727D01*
X127206190Y-64282727D02*
X127244286Y-64244632D01*
X127244286Y-64244632D02*
X127320476Y-64206537D01*
X127320476Y-64206537D02*
X127510952Y-64206537D01*
X127510952Y-64206537D02*
X127587143Y-64244632D01*
X127587143Y-64244632D02*
X127625238Y-64282727D01*
X127625238Y-64282727D02*
X127663333Y-64358918D01*
X127663333Y-64358918D02*
X127663333Y-64549394D01*
X127663333Y-64549394D02*
X127625238Y-64625584D01*
X127625238Y-64625584D02*
X127587143Y-64663680D01*
X127587143Y-64663680D02*
X127510952Y-64701775D01*
X127510952Y-64701775D02*
X127320476Y-64701775D01*
X127320476Y-64701775D02*
X127244286Y-64663680D01*
X127244286Y-64663680D02*
X127206190Y-64625584D01*
D10*
X152088490Y-111073333D02*
X152112300Y-111097142D01*
X152112300Y-111097142D02*
X152136109Y-111168571D01*
X152136109Y-111168571D02*
X152136109Y-111216190D01*
X152136109Y-111216190D02*
X152112300Y-111287618D01*
X152112300Y-111287618D02*
X152064680Y-111335237D01*
X152064680Y-111335237D02*
X152017061Y-111359047D01*
X152017061Y-111359047D02*
X151921823Y-111382856D01*
X151921823Y-111382856D02*
X151850395Y-111382856D01*
X151850395Y-111382856D02*
X151755157Y-111359047D01*
X151755157Y-111359047D02*
X151707538Y-111335237D01*
X151707538Y-111335237D02*
X151659919Y-111287618D01*
X151659919Y-111287618D02*
X151636109Y-111216190D01*
X151636109Y-111216190D02*
X151636109Y-111168571D01*
X151636109Y-111168571D02*
X151659919Y-111097142D01*
X151659919Y-111097142D02*
X151683728Y-111073333D01*
X151683728Y-110882856D02*
X151659919Y-110859047D01*
X151659919Y-110859047D02*
X151636109Y-110811428D01*
X151636109Y-110811428D02*
X151636109Y-110692380D01*
X151636109Y-110692380D02*
X151659919Y-110644761D01*
X151659919Y-110644761D02*
X151683728Y-110620952D01*
X151683728Y-110620952D02*
X151731347Y-110597142D01*
X151731347Y-110597142D02*
X151778966Y-110597142D01*
X151778966Y-110597142D02*
X151850395Y-110620952D01*
X151850395Y-110620952D02*
X152136109Y-110906666D01*
X152136109Y-110906666D02*
X152136109Y-110597142D01*
X156292166Y-110414515D02*
X156292166Y-109652611D01*
D12*
X165546667Y-120000241D02*
X165280000Y-119619288D01*
X165089524Y-120000241D02*
X165089524Y-119200241D01*
X165089524Y-119200241D02*
X165394286Y-119200241D01*
X165394286Y-119200241D02*
X165470476Y-119238336D01*
X165470476Y-119238336D02*
X165508571Y-119276431D01*
X165508571Y-119276431D02*
X165546667Y-119352622D01*
X165546667Y-119352622D02*
X165546667Y-119466907D01*
X165546667Y-119466907D02*
X165508571Y-119543098D01*
X165508571Y-119543098D02*
X165470476Y-119581193D01*
X165470476Y-119581193D02*
X165394286Y-119619288D01*
X165394286Y-119619288D02*
X165089524Y-119619288D01*
X165813333Y-119200241D02*
X166308571Y-119200241D01*
X166308571Y-119200241D02*
X166041905Y-119505003D01*
X166041905Y-119505003D02*
X166156190Y-119505003D01*
X166156190Y-119505003D02*
X166232381Y-119543098D01*
X166232381Y-119543098D02*
X166270476Y-119581193D01*
X166270476Y-119581193D02*
X166308571Y-119657384D01*
X166308571Y-119657384D02*
X166308571Y-119847860D01*
X166308571Y-119847860D02*
X166270476Y-119924050D01*
X166270476Y-119924050D02*
X166232381Y-119962146D01*
X166232381Y-119962146D02*
X166156190Y-120000241D01*
X166156190Y-120000241D02*
X165927619Y-120000241D01*
X165927619Y-120000241D02*
X165851428Y-119962146D01*
X165851428Y-119962146D02*
X165813333Y-119924050D01*
X113458333Y-80161775D02*
X113458333Y-80733203D01*
X113458333Y-80733203D02*
X113420238Y-80847489D01*
X113420238Y-80847489D02*
X113344047Y-80923680D01*
X113344047Y-80923680D02*
X113229762Y-80961775D01*
X113229762Y-80961775D02*
X113153571Y-80961775D01*
X113953571Y-80504632D02*
X113877381Y-80466537D01*
X113877381Y-80466537D02*
X113839286Y-80428441D01*
X113839286Y-80428441D02*
X113801190Y-80352251D01*
X113801190Y-80352251D02*
X113801190Y-80314156D01*
X113801190Y-80314156D02*
X113839286Y-80237965D01*
X113839286Y-80237965D02*
X113877381Y-80199870D01*
X113877381Y-80199870D02*
X113953571Y-80161775D01*
X113953571Y-80161775D02*
X114105952Y-80161775D01*
X114105952Y-80161775D02*
X114182143Y-80199870D01*
X114182143Y-80199870D02*
X114220238Y-80237965D01*
X114220238Y-80237965D02*
X114258333Y-80314156D01*
X114258333Y-80314156D02*
X114258333Y-80352251D01*
X114258333Y-80352251D02*
X114220238Y-80428441D01*
X114220238Y-80428441D02*
X114182143Y-80466537D01*
X114182143Y-80466537D02*
X114105952Y-80504632D01*
X114105952Y-80504632D02*
X113953571Y-80504632D01*
X113953571Y-80504632D02*
X113877381Y-80542727D01*
X113877381Y-80542727D02*
X113839286Y-80580822D01*
X113839286Y-80580822D02*
X113801190Y-80657013D01*
X113801190Y-80657013D02*
X113801190Y-80809394D01*
X113801190Y-80809394D02*
X113839286Y-80885584D01*
X113839286Y-80885584D02*
X113877381Y-80923680D01*
X113877381Y-80923680D02*
X113953571Y-80961775D01*
X113953571Y-80961775D02*
X114105952Y-80961775D01*
X114105952Y-80961775D02*
X114182143Y-80923680D01*
X114182143Y-80923680D02*
X114220238Y-80885584D01*
X114220238Y-80885584D02*
X114258333Y-80809394D01*
X114258333Y-80809394D02*
X114258333Y-80657013D01*
X114258333Y-80657013D02*
X114220238Y-80580822D01*
X114220238Y-80580822D02*
X114182143Y-80542727D01*
X114182143Y-80542727D02*
X114105952Y-80504632D01*
D10*
X180350466Y-123278490D02*
X180326657Y-123302300D01*
X180326657Y-123302300D02*
X180255228Y-123326109D01*
X180255228Y-123326109D02*
X180207609Y-123326109D01*
X180207609Y-123326109D02*
X180136181Y-123302300D01*
X180136181Y-123302300D02*
X180088562Y-123254680D01*
X180088562Y-123254680D02*
X180064752Y-123207061D01*
X180064752Y-123207061D02*
X180040943Y-123111823D01*
X180040943Y-123111823D02*
X180040943Y-123040395D01*
X180040943Y-123040395D02*
X180064752Y-122945157D01*
X180064752Y-122945157D02*
X180088562Y-122897538D01*
X180088562Y-122897538D02*
X180136181Y-122849919D01*
X180136181Y-122849919D02*
X180207609Y-122826109D01*
X180207609Y-122826109D02*
X180255228Y-122826109D01*
X180255228Y-122826109D02*
X180326657Y-122849919D01*
X180326657Y-122849919D02*
X180350466Y-122873728D01*
X180517133Y-122826109D02*
X180826657Y-122826109D01*
X180826657Y-122826109D02*
X180659990Y-123016585D01*
X180659990Y-123016585D02*
X180731419Y-123016585D01*
X180731419Y-123016585D02*
X180779038Y-123040395D01*
X180779038Y-123040395D02*
X180802847Y-123064204D01*
X180802847Y-123064204D02*
X180826657Y-123111823D01*
X180826657Y-123111823D02*
X180826657Y-123230871D01*
X180826657Y-123230871D02*
X180802847Y-123278490D01*
X180802847Y-123278490D02*
X180779038Y-123302300D01*
X180779038Y-123302300D02*
X180731419Y-123326109D01*
X180731419Y-123326109D02*
X180588562Y-123326109D01*
X180588562Y-123326109D02*
X180540943Y-123302300D01*
X180540943Y-123302300D02*
X180517133Y-123278490D01*
X179858315Y-118717833D02*
X179096411Y-118717833D01*
X143438490Y-103203333D02*
X143462300Y-103227142D01*
X143462300Y-103227142D02*
X143486109Y-103298571D01*
X143486109Y-103298571D02*
X143486109Y-103346190D01*
X143486109Y-103346190D02*
X143462300Y-103417618D01*
X143462300Y-103417618D02*
X143414680Y-103465237D01*
X143414680Y-103465237D02*
X143367061Y-103489047D01*
X143367061Y-103489047D02*
X143271823Y-103512856D01*
X143271823Y-103512856D02*
X143200395Y-103512856D01*
X143200395Y-103512856D02*
X143105157Y-103489047D01*
X143105157Y-103489047D02*
X143057538Y-103465237D01*
X143057538Y-103465237D02*
X143009919Y-103417618D01*
X143009919Y-103417618D02*
X142986109Y-103346190D01*
X142986109Y-103346190D02*
X142986109Y-103298571D01*
X142986109Y-103298571D02*
X143009919Y-103227142D01*
X143009919Y-103227142D02*
X143033728Y-103203333D01*
X143486109Y-102727142D02*
X143486109Y-103012856D01*
X143486109Y-102869999D02*
X142986109Y-102869999D01*
X142986109Y-102869999D02*
X143057538Y-102917618D01*
X143057538Y-102917618D02*
X143105157Y-102965237D01*
X143105157Y-102965237D02*
X143128966Y-103012856D01*
X147642166Y-102544515D02*
X147642166Y-101782611D01*
D12*
X123566667Y-106611775D02*
X123300000Y-106230822D01*
X123109524Y-106611775D02*
X123109524Y-105811775D01*
X123109524Y-105811775D02*
X123414286Y-105811775D01*
X123414286Y-105811775D02*
X123490476Y-105849870D01*
X123490476Y-105849870D02*
X123528571Y-105887965D01*
X123528571Y-105887965D02*
X123566667Y-105964156D01*
X123566667Y-105964156D02*
X123566667Y-106078441D01*
X123566667Y-106078441D02*
X123528571Y-106154632D01*
X123528571Y-106154632D02*
X123490476Y-106192727D01*
X123490476Y-106192727D02*
X123414286Y-106230822D01*
X123414286Y-106230822D02*
X123109524Y-106230822D01*
X124252381Y-105811775D02*
X124100000Y-105811775D01*
X124100000Y-105811775D02*
X124023809Y-105849870D01*
X124023809Y-105849870D02*
X123985714Y-105887965D01*
X123985714Y-105887965D02*
X123909524Y-106002251D01*
X123909524Y-106002251D02*
X123871428Y-106154632D01*
X123871428Y-106154632D02*
X123871428Y-106459394D01*
X123871428Y-106459394D02*
X123909524Y-106535584D01*
X123909524Y-106535584D02*
X123947619Y-106573680D01*
X123947619Y-106573680D02*
X124023809Y-106611775D01*
X124023809Y-106611775D02*
X124176190Y-106611775D01*
X124176190Y-106611775D02*
X124252381Y-106573680D01*
X124252381Y-106573680D02*
X124290476Y-106535584D01*
X124290476Y-106535584D02*
X124328571Y-106459394D01*
X124328571Y-106459394D02*
X124328571Y-106268918D01*
X124328571Y-106268918D02*
X124290476Y-106192727D01*
X124290476Y-106192727D02*
X124252381Y-106154632D01*
X124252381Y-106154632D02*
X124176190Y-106116537D01*
X124176190Y-106116537D02*
X124023809Y-106116537D01*
X124023809Y-106116537D02*
X123947619Y-106154632D01*
X123947619Y-106154632D02*
X123909524Y-106192727D01*
X123909524Y-106192727D02*
X123871428Y-106268918D01*
D10*
X185456109Y-128999761D02*
X185813252Y-128999761D01*
X185813252Y-128999761D02*
X185884680Y-129023570D01*
X185884680Y-129023570D02*
X185932300Y-129071189D01*
X185932300Y-129071189D02*
X185956109Y-129142618D01*
X185956109Y-129142618D02*
X185956109Y-129190237D01*
X185956109Y-128499761D02*
X185956109Y-128785475D01*
X185956109Y-128642618D02*
X185456109Y-128642618D01*
X185456109Y-128642618D02*
X185527538Y-128690237D01*
X185527538Y-128690237D02*
X185575157Y-128737856D01*
X185575157Y-128737856D02*
X185598966Y-128785475D01*
X185503728Y-128309285D02*
X185479919Y-128285476D01*
X185479919Y-128285476D02*
X185456109Y-128237857D01*
X185456109Y-128237857D02*
X185456109Y-128118809D01*
X185456109Y-128118809D02*
X185479919Y-128071190D01*
X185479919Y-128071190D02*
X185503728Y-128047381D01*
X185503728Y-128047381D02*
X185551347Y-128023571D01*
X185551347Y-128023571D02*
X185598966Y-128023571D01*
X185598966Y-128023571D02*
X185670395Y-128047381D01*
X185670395Y-128047381D02*
X185956109Y-128333095D01*
X185956109Y-128333095D02*
X185956109Y-128023571D01*
D12*
X165546667Y-112371775D02*
X165280000Y-111990822D01*
X165089524Y-112371775D02*
X165089524Y-111571775D01*
X165089524Y-111571775D02*
X165394286Y-111571775D01*
X165394286Y-111571775D02*
X165470476Y-111609870D01*
X165470476Y-111609870D02*
X165508571Y-111647965D01*
X165508571Y-111647965D02*
X165546667Y-111724156D01*
X165546667Y-111724156D02*
X165546667Y-111838441D01*
X165546667Y-111838441D02*
X165508571Y-111914632D01*
X165508571Y-111914632D02*
X165470476Y-111952727D01*
X165470476Y-111952727D02*
X165394286Y-111990822D01*
X165394286Y-111990822D02*
X165089524Y-111990822D01*
X166232381Y-111838441D02*
X166232381Y-112371775D01*
X166041905Y-111533680D02*
X165851428Y-112105108D01*
X165851428Y-112105108D02*
X166346667Y-112105108D01*
X114371933Y-114711775D02*
X114371933Y-115283203D01*
X114371933Y-115283203D02*
X114333838Y-115397489D01*
X114333838Y-115397489D02*
X114257647Y-115473680D01*
X114257647Y-115473680D02*
X114143362Y-115511775D01*
X114143362Y-115511775D02*
X114067171Y-115511775D01*
X114676695Y-114711775D02*
X115210029Y-114711775D01*
X115210029Y-114711775D02*
X114867171Y-115511775D01*
X119263333Y-63901775D02*
X119263333Y-64473203D01*
X119263333Y-64473203D02*
X119225238Y-64587489D01*
X119225238Y-64587489D02*
X119149047Y-64663680D01*
X119149047Y-64663680D02*
X119034762Y-64701775D01*
X119034762Y-64701775D02*
X118958571Y-64701775D01*
X119987143Y-63901775D02*
X119834762Y-63901775D01*
X119834762Y-63901775D02*
X119758571Y-63939870D01*
X119758571Y-63939870D02*
X119720476Y-63977965D01*
X119720476Y-63977965D02*
X119644286Y-64092251D01*
X119644286Y-64092251D02*
X119606190Y-64244632D01*
X119606190Y-64244632D02*
X119606190Y-64549394D01*
X119606190Y-64549394D02*
X119644286Y-64625584D01*
X119644286Y-64625584D02*
X119682381Y-64663680D01*
X119682381Y-64663680D02*
X119758571Y-64701775D01*
X119758571Y-64701775D02*
X119910952Y-64701775D01*
X119910952Y-64701775D02*
X119987143Y-64663680D01*
X119987143Y-64663680D02*
X120025238Y-64625584D01*
X120025238Y-64625584D02*
X120063333Y-64549394D01*
X120063333Y-64549394D02*
X120063333Y-64358918D01*
X120063333Y-64358918D02*
X120025238Y-64282727D01*
X120025238Y-64282727D02*
X119987143Y-64244632D01*
X119987143Y-64244632D02*
X119910952Y-64206537D01*
X119910952Y-64206537D02*
X119758571Y-64206537D01*
X119758571Y-64206537D02*
X119682381Y-64244632D01*
X119682381Y-64244632D02*
X119644286Y-64282727D01*
X119644286Y-64282727D02*
X119606190Y-64358918D01*
X201721775Y-81397619D02*
X202293203Y-81397619D01*
X202293203Y-81397619D02*
X202407489Y-81435714D01*
X202407489Y-81435714D02*
X202483680Y-81511905D01*
X202483680Y-81511905D02*
X202521775Y-81626190D01*
X202521775Y-81626190D02*
X202521775Y-81702381D01*
X202521775Y-80597619D02*
X202521775Y-81054762D01*
X202521775Y-80826190D02*
X201721775Y-80826190D01*
X201721775Y-80826190D02*
X201836060Y-80902381D01*
X201836060Y-80902381D02*
X201912251Y-80978571D01*
X201912251Y-80978571D02*
X201950346Y-81054762D01*
X201721775Y-80102380D02*
X201721775Y-80026190D01*
X201721775Y-80026190D02*
X201759870Y-79949999D01*
X201759870Y-79949999D02*
X201797965Y-79911904D01*
X201797965Y-79911904D02*
X201874156Y-79873809D01*
X201874156Y-79873809D02*
X202026537Y-79835714D01*
X202026537Y-79835714D02*
X202217013Y-79835714D01*
X202217013Y-79835714D02*
X202369394Y-79873809D01*
X202369394Y-79873809D02*
X202445584Y-79911904D01*
X202445584Y-79911904D02*
X202483680Y-79949999D01*
X202483680Y-79949999D02*
X202521775Y-80026190D01*
X202521775Y-80026190D02*
X202521775Y-80102380D01*
X202521775Y-80102380D02*
X202483680Y-80178571D01*
X202483680Y-80178571D02*
X202445584Y-80216666D01*
X202445584Y-80216666D02*
X202369394Y-80254761D01*
X202369394Y-80254761D02*
X202217013Y-80292857D01*
X202217013Y-80292857D02*
X202026537Y-80292857D01*
X202026537Y-80292857D02*
X201874156Y-80254761D01*
X201874156Y-80254761D02*
X201797965Y-80216666D01*
X201797965Y-80216666D02*
X201759870Y-80178571D01*
X201759870Y-80178571D02*
X201721775Y-80102380D01*
X165546667Y-131431775D02*
X165280000Y-131050822D01*
X165089524Y-131431775D02*
X165089524Y-130631775D01*
X165089524Y-130631775D02*
X165394286Y-130631775D01*
X165394286Y-130631775D02*
X165470476Y-130669870D01*
X165470476Y-130669870D02*
X165508571Y-130707965D01*
X165508571Y-130707965D02*
X165546667Y-130784156D01*
X165546667Y-130784156D02*
X165546667Y-130898441D01*
X165546667Y-130898441D02*
X165508571Y-130974632D01*
X165508571Y-130974632D02*
X165470476Y-131012727D01*
X165470476Y-131012727D02*
X165394286Y-131050822D01*
X165394286Y-131050822D02*
X165089524Y-131050822D01*
X166003809Y-130974632D02*
X165927619Y-130936537D01*
X165927619Y-130936537D02*
X165889524Y-130898441D01*
X165889524Y-130898441D02*
X165851428Y-130822251D01*
X165851428Y-130822251D02*
X165851428Y-130784156D01*
X165851428Y-130784156D02*
X165889524Y-130707965D01*
X165889524Y-130707965D02*
X165927619Y-130669870D01*
X165927619Y-130669870D02*
X166003809Y-130631775D01*
X166003809Y-130631775D02*
X166156190Y-130631775D01*
X166156190Y-130631775D02*
X166232381Y-130669870D01*
X166232381Y-130669870D02*
X166270476Y-130707965D01*
X166270476Y-130707965D02*
X166308571Y-130784156D01*
X166308571Y-130784156D02*
X166308571Y-130822251D01*
X166308571Y-130822251D02*
X166270476Y-130898441D01*
X166270476Y-130898441D02*
X166232381Y-130936537D01*
X166232381Y-130936537D02*
X166156190Y-130974632D01*
X166156190Y-130974632D02*
X166003809Y-130974632D01*
X166003809Y-130974632D02*
X165927619Y-131012727D01*
X165927619Y-131012727D02*
X165889524Y-131050822D01*
X165889524Y-131050822D02*
X165851428Y-131127013D01*
X165851428Y-131127013D02*
X165851428Y-131279394D01*
X165851428Y-131279394D02*
X165889524Y-131355584D01*
X165889524Y-131355584D02*
X165927619Y-131393680D01*
X165927619Y-131393680D02*
X166003809Y-131431775D01*
X166003809Y-131431775D02*
X166156190Y-131431775D01*
X166156190Y-131431775D02*
X166232381Y-131393680D01*
X166232381Y-131393680D02*
X166270476Y-131355584D01*
X166270476Y-131355584D02*
X166308571Y-131279394D01*
X166308571Y-131279394D02*
X166308571Y-131127013D01*
X166308571Y-131127013D02*
X166270476Y-131050822D01*
X166270476Y-131050822D02*
X166232381Y-131012727D01*
X166232381Y-131012727D02*
X166156190Y-130974632D01*
D11*
X143943333Y-135789580D02*
X143895714Y-135837200D01*
X143895714Y-135837200D02*
X143752857Y-135884819D01*
X143752857Y-135884819D02*
X143657619Y-135884819D01*
X143657619Y-135884819D02*
X143514762Y-135837200D01*
X143514762Y-135837200D02*
X143419524Y-135741961D01*
X143419524Y-135741961D02*
X143371905Y-135646723D01*
X143371905Y-135646723D02*
X143324286Y-135456247D01*
X143324286Y-135456247D02*
X143324286Y-135313390D01*
X143324286Y-135313390D02*
X143371905Y-135122914D01*
X143371905Y-135122914D02*
X143419524Y-135027676D01*
X143419524Y-135027676D02*
X143514762Y-134932438D01*
X143514762Y-134932438D02*
X143657619Y-134884819D01*
X143657619Y-134884819D02*
X143752857Y-134884819D01*
X143752857Y-134884819D02*
X143895714Y-134932438D01*
X143895714Y-134932438D02*
X143943333Y-134980057D01*
X144848095Y-134884819D02*
X144371905Y-134884819D01*
X144371905Y-134884819D02*
X144324286Y-135361009D01*
X144324286Y-135361009D02*
X144371905Y-135313390D01*
X144371905Y-135313390D02*
X144467143Y-135265771D01*
X144467143Y-135265771D02*
X144705238Y-135265771D01*
X144705238Y-135265771D02*
X144800476Y-135313390D01*
X144800476Y-135313390D02*
X144848095Y-135361009D01*
X144848095Y-135361009D02*
X144895714Y-135456247D01*
X144895714Y-135456247D02*
X144895714Y-135694342D01*
X144895714Y-135694342D02*
X144848095Y-135789580D01*
X144848095Y-135789580D02*
X144800476Y-135837200D01*
X144800476Y-135837200D02*
X144705238Y-135884819D01*
X144705238Y-135884819D02*
X144467143Y-135884819D01*
X144467143Y-135884819D02*
X144371905Y-135837200D01*
X144371905Y-135837200D02*
X144324286Y-135789580D01*
D10*
X175166262Y-71494819D02*
X175166262Y-72304342D01*
X175166262Y-72304342D02*
X175213881Y-72399580D01*
X175213881Y-72399580D02*
X175261500Y-72447200D01*
X175261500Y-72447200D02*
X175356738Y-72494819D01*
X175356738Y-72494819D02*
X175547214Y-72494819D01*
X175547214Y-72494819D02*
X175642452Y-72447200D01*
X175642452Y-72447200D02*
X175690071Y-72399580D01*
X175690071Y-72399580D02*
X175737690Y-72304342D01*
X175737690Y-72304342D02*
X175737690Y-71494819D01*
X176642452Y-71494819D02*
X176451976Y-71494819D01*
X176451976Y-71494819D02*
X176356738Y-71542438D01*
X176356738Y-71542438D02*
X176309119Y-71590057D01*
X176309119Y-71590057D02*
X176213881Y-71732914D01*
X176213881Y-71732914D02*
X176166262Y-71923390D01*
X176166262Y-71923390D02*
X176166262Y-72304342D01*
X176166262Y-72304342D02*
X176213881Y-72399580D01*
X176213881Y-72399580D02*
X176261500Y-72447200D01*
X176261500Y-72447200D02*
X176356738Y-72494819D01*
X176356738Y-72494819D02*
X176547214Y-72494819D01*
X176547214Y-72494819D02*
X176642452Y-72447200D01*
X176642452Y-72447200D02*
X176690071Y-72399580D01*
X176690071Y-72399580D02*
X176737690Y-72304342D01*
X176737690Y-72304342D02*
X176737690Y-72066247D01*
X176737690Y-72066247D02*
X176690071Y-71971009D01*
X176690071Y-71971009D02*
X176642452Y-71923390D01*
X176642452Y-71923390D02*
X176547214Y-71875771D01*
X176547214Y-71875771D02*
X176356738Y-71875771D01*
X176356738Y-71875771D02*
X176261500Y-71923390D01*
X176261500Y-71923390D02*
X176213881Y-71971009D01*
X176213881Y-71971009D02*
X176166262Y-72066247D01*
D11*
X139943809Y-132753628D02*
X139943809Y-133229819D01*
X139610476Y-132229819D02*
X139943809Y-132753628D01*
X139943809Y-132753628D02*
X140277142Y-132229819D01*
X141134285Y-133229819D02*
X140562857Y-133229819D01*
X140848571Y-133229819D02*
X140848571Y-132229819D01*
X140848571Y-132229819D02*
X140753333Y-132372676D01*
X140753333Y-132372676D02*
X140658095Y-132467914D01*
X140658095Y-132467914D02*
X140562857Y-132515533D01*
X116279719Y-93407104D02*
X117089242Y-93407104D01*
X117089242Y-93407104D02*
X117184480Y-93359485D01*
X117184480Y-93359485D02*
X117232100Y-93311866D01*
X117232100Y-93311866D02*
X117279719Y-93216628D01*
X117279719Y-93216628D02*
X117279719Y-93026152D01*
X117279719Y-93026152D02*
X117232100Y-92930914D01*
X117232100Y-92930914D02*
X117184480Y-92883295D01*
X117184480Y-92883295D02*
X117089242Y-92835676D01*
X117089242Y-92835676D02*
X116279719Y-92835676D01*
X116279719Y-92454723D02*
X116279719Y-91835676D01*
X116279719Y-91835676D02*
X116660671Y-92169009D01*
X116660671Y-92169009D02*
X116660671Y-92026152D01*
X116660671Y-92026152D02*
X116708290Y-91930914D01*
X116708290Y-91930914D02*
X116755909Y-91883295D01*
X116755909Y-91883295D02*
X116851147Y-91835676D01*
X116851147Y-91835676D02*
X117089242Y-91835676D01*
X117089242Y-91835676D02*
X117184480Y-91883295D01*
X117184480Y-91883295D02*
X117232100Y-91930914D01*
X117232100Y-91930914D02*
X117279719Y-92026152D01*
X117279719Y-92026152D02*
X117279719Y-92311866D01*
X117279719Y-92311866D02*
X117232100Y-92407104D01*
X117232100Y-92407104D02*
X117184480Y-92454723D01*
X139987319Y-94703428D02*
X138987319Y-94703428D01*
X138987319Y-94703428D02*
X138987319Y-94322476D01*
X138987319Y-94322476D02*
X139034938Y-94227238D01*
X139034938Y-94227238D02*
X139082557Y-94179619D01*
X139082557Y-94179619D02*
X139177795Y-94132000D01*
X139177795Y-94132000D02*
X139320652Y-94132000D01*
X139320652Y-94132000D02*
X139415890Y-94179619D01*
X139415890Y-94179619D02*
X139463509Y-94227238D01*
X139463509Y-94227238D02*
X139511128Y-94322476D01*
X139511128Y-94322476D02*
X139511128Y-94703428D01*
X139892080Y-93132000D02*
X139939700Y-93179619D01*
X139939700Y-93179619D02*
X139987319Y-93322476D01*
X139987319Y-93322476D02*
X139987319Y-93417714D01*
X139987319Y-93417714D02*
X139939700Y-93560571D01*
X139939700Y-93560571D02*
X139844461Y-93655809D01*
X139844461Y-93655809D02*
X139749223Y-93703428D01*
X139749223Y-93703428D02*
X139558747Y-93751047D01*
X139558747Y-93751047D02*
X139415890Y-93751047D01*
X139415890Y-93751047D02*
X139225414Y-93703428D01*
X139225414Y-93703428D02*
X139130176Y-93655809D01*
X139130176Y-93655809D02*
X139034938Y-93560571D01*
X139034938Y-93560571D02*
X138987319Y-93417714D01*
X138987319Y-93417714D02*
X138987319Y-93322476D01*
X138987319Y-93322476D02*
X139034938Y-93179619D01*
X139034938Y-93179619D02*
X139082557Y-93132000D01*
X139701604Y-92751047D02*
X139701604Y-92274857D01*
X139987319Y-92846285D02*
X138987319Y-92512952D01*
X138987319Y-92512952D02*
X139987319Y-92179619D01*
X139987319Y-91798666D02*
X139987319Y-91608190D01*
X139987319Y-91608190D02*
X139939700Y-91512952D01*
X139939700Y-91512952D02*
X139892080Y-91465333D01*
X139892080Y-91465333D02*
X139749223Y-91370095D01*
X139749223Y-91370095D02*
X139558747Y-91322476D01*
X139558747Y-91322476D02*
X139177795Y-91322476D01*
X139177795Y-91322476D02*
X139082557Y-91370095D01*
X139082557Y-91370095D02*
X139034938Y-91417714D01*
X139034938Y-91417714D02*
X138987319Y-91512952D01*
X138987319Y-91512952D02*
X138987319Y-91703428D01*
X138987319Y-91703428D02*
X139034938Y-91798666D01*
X139034938Y-91798666D02*
X139082557Y-91846285D01*
X139082557Y-91846285D02*
X139177795Y-91893904D01*
X139177795Y-91893904D02*
X139415890Y-91893904D01*
X139415890Y-91893904D02*
X139511128Y-91846285D01*
X139511128Y-91846285D02*
X139558747Y-91798666D01*
X139558747Y-91798666D02*
X139606366Y-91703428D01*
X139606366Y-91703428D02*
X139606366Y-91512952D01*
X139606366Y-91512952D02*
X139558747Y-91417714D01*
X139558747Y-91417714D02*
X139511128Y-91370095D01*
X139511128Y-91370095D02*
X139415890Y-91322476D01*
X138987319Y-90417714D02*
X138987319Y-90893904D01*
X138987319Y-90893904D02*
X139463509Y-90941523D01*
X139463509Y-90941523D02*
X139415890Y-90893904D01*
X139415890Y-90893904D02*
X139368271Y-90798666D01*
X139368271Y-90798666D02*
X139368271Y-90560571D01*
X139368271Y-90560571D02*
X139415890Y-90465333D01*
X139415890Y-90465333D02*
X139463509Y-90417714D01*
X139463509Y-90417714D02*
X139558747Y-90370095D01*
X139558747Y-90370095D02*
X139796842Y-90370095D01*
X139796842Y-90370095D02*
X139892080Y-90417714D01*
X139892080Y-90417714D02*
X139939700Y-90465333D01*
X139939700Y-90465333D02*
X139987319Y-90560571D01*
X139987319Y-90560571D02*
X139987319Y-90798666D01*
X139987319Y-90798666D02*
X139939700Y-90893904D01*
X139939700Y-90893904D02*
X139892080Y-90941523D01*
X139320652Y-89512952D02*
X139987319Y-89512952D01*
X138939700Y-89751047D02*
X139653985Y-89989142D01*
X139653985Y-89989142D02*
X139653985Y-89370095D01*
X139415890Y-88846285D02*
X139368271Y-88941523D01*
X139368271Y-88941523D02*
X139320652Y-88989142D01*
X139320652Y-88989142D02*
X139225414Y-89036761D01*
X139225414Y-89036761D02*
X139177795Y-89036761D01*
X139177795Y-89036761D02*
X139082557Y-88989142D01*
X139082557Y-88989142D02*
X139034938Y-88941523D01*
X139034938Y-88941523D02*
X138987319Y-88846285D01*
X138987319Y-88846285D02*
X138987319Y-88655809D01*
X138987319Y-88655809D02*
X139034938Y-88560571D01*
X139034938Y-88560571D02*
X139082557Y-88512952D01*
X139082557Y-88512952D02*
X139177795Y-88465333D01*
X139177795Y-88465333D02*
X139225414Y-88465333D01*
X139225414Y-88465333D02*
X139320652Y-88512952D01*
X139320652Y-88512952D02*
X139368271Y-88560571D01*
X139368271Y-88560571D02*
X139415890Y-88655809D01*
X139415890Y-88655809D02*
X139415890Y-88846285D01*
X139415890Y-88846285D02*
X139463509Y-88941523D01*
X139463509Y-88941523D02*
X139511128Y-88989142D01*
X139511128Y-88989142D02*
X139606366Y-89036761D01*
X139606366Y-89036761D02*
X139796842Y-89036761D01*
X139796842Y-89036761D02*
X139892080Y-88989142D01*
X139892080Y-88989142D02*
X139939700Y-88941523D01*
X139939700Y-88941523D02*
X139987319Y-88846285D01*
X139987319Y-88846285D02*
X139987319Y-88655809D01*
X139987319Y-88655809D02*
X139939700Y-88560571D01*
X139939700Y-88560571D02*
X139892080Y-88512952D01*
X139892080Y-88512952D02*
X139796842Y-88465333D01*
X139796842Y-88465333D02*
X139606366Y-88465333D01*
X139606366Y-88465333D02*
X139511128Y-88512952D01*
X139511128Y-88512952D02*
X139463509Y-88560571D01*
X139463509Y-88560571D02*
X139415890Y-88655809D01*
X139701604Y-88084380D02*
X139701604Y-87608190D01*
X139987319Y-88179618D02*
X138987319Y-87846285D01*
X138987319Y-87846285D02*
X139987319Y-87512952D01*
X140082557Y-87417714D02*
X140082557Y-86655809D01*
X139463509Y-86084380D02*
X139511128Y-85941523D01*
X139511128Y-85941523D02*
X139558747Y-85893904D01*
X139558747Y-85893904D02*
X139653985Y-85846285D01*
X139653985Y-85846285D02*
X139796842Y-85846285D01*
X139796842Y-85846285D02*
X139892080Y-85893904D01*
X139892080Y-85893904D02*
X139939700Y-85941523D01*
X139939700Y-85941523D02*
X139987319Y-86036761D01*
X139987319Y-86036761D02*
X139987319Y-86417713D01*
X139987319Y-86417713D02*
X138987319Y-86417713D01*
X138987319Y-86417713D02*
X138987319Y-86084380D01*
X138987319Y-86084380D02*
X139034938Y-85989142D01*
X139034938Y-85989142D02*
X139082557Y-85941523D01*
X139082557Y-85941523D02*
X139177795Y-85893904D01*
X139177795Y-85893904D02*
X139273033Y-85893904D01*
X139273033Y-85893904D02*
X139368271Y-85941523D01*
X139368271Y-85941523D02*
X139415890Y-85989142D01*
X139415890Y-85989142D02*
X139463509Y-86084380D01*
X139463509Y-86084380D02*
X139463509Y-86417713D01*
X139987319Y-85274856D02*
X139939700Y-85370094D01*
X139939700Y-85370094D02*
X139892080Y-85417713D01*
X139892080Y-85417713D02*
X139796842Y-85465332D01*
X139796842Y-85465332D02*
X139511128Y-85465332D01*
X139511128Y-85465332D02*
X139415890Y-85417713D01*
X139415890Y-85417713D02*
X139368271Y-85370094D01*
X139368271Y-85370094D02*
X139320652Y-85274856D01*
X139320652Y-85274856D02*
X139320652Y-85131999D01*
X139320652Y-85131999D02*
X139368271Y-85036761D01*
X139368271Y-85036761D02*
X139415890Y-84989142D01*
X139415890Y-84989142D02*
X139511128Y-84941523D01*
X139511128Y-84941523D02*
X139796842Y-84941523D01*
X139796842Y-84941523D02*
X139892080Y-84989142D01*
X139892080Y-84989142D02*
X139939700Y-85036761D01*
X139939700Y-85036761D02*
X139987319Y-85131999D01*
X139987319Y-85131999D02*
X139987319Y-85274856D01*
X139987319Y-84084380D02*
X139463509Y-84084380D01*
X139463509Y-84084380D02*
X139368271Y-84131999D01*
X139368271Y-84131999D02*
X139320652Y-84227237D01*
X139320652Y-84227237D02*
X139320652Y-84417713D01*
X139320652Y-84417713D02*
X139368271Y-84512951D01*
X139939700Y-84084380D02*
X139987319Y-84179618D01*
X139987319Y-84179618D02*
X139987319Y-84417713D01*
X139987319Y-84417713D02*
X139939700Y-84512951D01*
X139939700Y-84512951D02*
X139844461Y-84560570D01*
X139844461Y-84560570D02*
X139749223Y-84560570D01*
X139749223Y-84560570D02*
X139653985Y-84512951D01*
X139653985Y-84512951D02*
X139606366Y-84417713D01*
X139606366Y-84417713D02*
X139606366Y-84179618D01*
X139606366Y-84179618D02*
X139558747Y-84084380D01*
X139987319Y-83608189D02*
X139320652Y-83608189D01*
X139511128Y-83608189D02*
X139415890Y-83560570D01*
X139415890Y-83560570D02*
X139368271Y-83512951D01*
X139368271Y-83512951D02*
X139320652Y-83417713D01*
X139320652Y-83417713D02*
X139320652Y-83322475D01*
X139987319Y-82560570D02*
X138987319Y-82560570D01*
X139939700Y-82560570D02*
X139987319Y-82655808D01*
X139987319Y-82655808D02*
X139987319Y-82846284D01*
X139987319Y-82846284D02*
X139939700Y-82941522D01*
X139939700Y-82941522D02*
X139892080Y-82989141D01*
X139892080Y-82989141D02*
X139796842Y-83036760D01*
X139796842Y-83036760D02*
X139511128Y-83036760D01*
X139511128Y-83036760D02*
X139415890Y-82989141D01*
X139415890Y-82989141D02*
X139368271Y-82941522D01*
X139368271Y-82941522D02*
X139320652Y-82846284D01*
X139320652Y-82846284D02*
X139320652Y-82655808D01*
X139320652Y-82655808D02*
X139368271Y-82560570D01*
D10*
X147866300Y-84438734D02*
X147913919Y-84295877D01*
X147913919Y-84295877D02*
X147913919Y-84057782D01*
X147913919Y-84057782D02*
X147866300Y-83962544D01*
X147866300Y-83962544D02*
X147818680Y-83914925D01*
X147818680Y-83914925D02*
X147723442Y-83867306D01*
X147723442Y-83867306D02*
X147628204Y-83867306D01*
X147628204Y-83867306D02*
X147532966Y-83914925D01*
X147532966Y-83914925D02*
X147485347Y-83962544D01*
X147485347Y-83962544D02*
X147437728Y-84057782D01*
X147437728Y-84057782D02*
X147390109Y-84248258D01*
X147390109Y-84248258D02*
X147342490Y-84343496D01*
X147342490Y-84343496D02*
X147294871Y-84391115D01*
X147294871Y-84391115D02*
X147199633Y-84438734D01*
X147199633Y-84438734D02*
X147104395Y-84438734D01*
X147104395Y-84438734D02*
X147009157Y-84391115D01*
X147009157Y-84391115D02*
X146961538Y-84343496D01*
X146961538Y-84343496D02*
X146913919Y-84248258D01*
X146913919Y-84248258D02*
X146913919Y-84010163D01*
X146913919Y-84010163D02*
X146961538Y-83867306D01*
X147913919Y-83438734D02*
X146913919Y-83438734D01*
X146913919Y-83438734D02*
X146913919Y-83200639D01*
X146913919Y-83200639D02*
X146961538Y-83057782D01*
X146961538Y-83057782D02*
X147056776Y-82962544D01*
X147056776Y-82962544D02*
X147152014Y-82914925D01*
X147152014Y-82914925D02*
X147342490Y-82867306D01*
X147342490Y-82867306D02*
X147485347Y-82867306D01*
X147485347Y-82867306D02*
X147675823Y-82914925D01*
X147675823Y-82914925D02*
X147771061Y-82962544D01*
X147771061Y-82962544D02*
X147866300Y-83057782D01*
X147866300Y-83057782D02*
X147913919Y-83200639D01*
X147913919Y-83200639D02*
X147913919Y-83438734D01*
X147009157Y-82486353D02*
X146961538Y-82438734D01*
X146961538Y-82438734D02*
X146913919Y-82343496D01*
X146913919Y-82343496D02*
X146913919Y-82105401D01*
X146913919Y-82105401D02*
X146961538Y-82010163D01*
X146961538Y-82010163D02*
X147009157Y-81962544D01*
X147009157Y-81962544D02*
X147104395Y-81914925D01*
X147104395Y-81914925D02*
X147199633Y-81914925D01*
X147199633Y-81914925D02*
X147342490Y-81962544D01*
X147342490Y-81962544D02*
X147913919Y-82533972D01*
X147913919Y-82533972D02*
X147913919Y-81914925D01*
X118973919Y-96598972D02*
X119973919Y-96265639D01*
X119973919Y-96265639D02*
X118973919Y-95932306D01*
X119973919Y-95598972D02*
X118973919Y-95598972D01*
X119973919Y-95122782D02*
X118973919Y-95122782D01*
X118973919Y-95122782D02*
X119973919Y-94551354D01*
X119973919Y-94551354D02*
X118973919Y-94551354D01*
D12*
X171240476Y-85511775D02*
X171240476Y-86159394D01*
X171240476Y-86159394D02*
X171278571Y-86235584D01*
X171278571Y-86235584D02*
X171316666Y-86273680D01*
X171316666Y-86273680D02*
X171392857Y-86311775D01*
X171392857Y-86311775D02*
X171545238Y-86311775D01*
X171545238Y-86311775D02*
X171621428Y-86273680D01*
X171621428Y-86273680D02*
X171659523Y-86235584D01*
X171659523Y-86235584D02*
X171697619Y-86159394D01*
X171697619Y-86159394D02*
X171697619Y-85511775D01*
X172459523Y-85511775D02*
X172078571Y-85511775D01*
X172078571Y-85511775D02*
X172040475Y-85892727D01*
X172040475Y-85892727D02*
X172078571Y-85854632D01*
X172078571Y-85854632D02*
X172154761Y-85816537D01*
X172154761Y-85816537D02*
X172345237Y-85816537D01*
X172345237Y-85816537D02*
X172421428Y-85854632D01*
X172421428Y-85854632D02*
X172459523Y-85892727D01*
X172459523Y-85892727D02*
X172497618Y-85968918D01*
X172497618Y-85968918D02*
X172497618Y-86159394D01*
X172497618Y-86159394D02*
X172459523Y-86235584D01*
X172459523Y-86235584D02*
X172421428Y-86273680D01*
X172421428Y-86273680D02*
X172345237Y-86311775D01*
X172345237Y-86311775D02*
X172154761Y-86311775D01*
X172154761Y-86311775D02*
X172078571Y-86273680D01*
X172078571Y-86273680D02*
X172040475Y-86235584D01*
D10*
X188463865Y-102010438D02*
X189130531Y-104010438D01*
X189130531Y-104010438D02*
X189797198Y-102010438D01*
X190463865Y-104010438D02*
X190463865Y-102010438D01*
X191416246Y-104010438D02*
X191416246Y-102010438D01*
X191416246Y-102010438D02*
X192559103Y-104010438D01*
X192559103Y-104010438D02*
X192559103Y-102010438D01*
X151125865Y-102366038D02*
X151792531Y-104366038D01*
X151792531Y-104366038D02*
X152459198Y-102366038D01*
X153506817Y-102366038D02*
X153887770Y-102366038D01*
X153887770Y-102366038D02*
X154078246Y-102461276D01*
X154078246Y-102461276D02*
X154268722Y-102651752D01*
X154268722Y-102651752D02*
X154363960Y-103032704D01*
X154363960Y-103032704D02*
X154363960Y-103699371D01*
X154363960Y-103699371D02*
X154268722Y-104080323D01*
X154268722Y-104080323D02*
X154078246Y-104270800D01*
X154078246Y-104270800D02*
X153887770Y-104366038D01*
X153887770Y-104366038D02*
X153506817Y-104366038D01*
X153506817Y-104366038D02*
X153316341Y-104270800D01*
X153316341Y-104270800D02*
X153125865Y-104080323D01*
X153125865Y-104080323D02*
X153030627Y-103699371D01*
X153030627Y-103699371D02*
X153030627Y-103032704D01*
X153030627Y-103032704D02*
X153125865Y-102651752D01*
X153125865Y-102651752D02*
X153316341Y-102461276D01*
X153316341Y-102461276D02*
X153506817Y-102366038D01*
X155221103Y-102366038D02*
X155221103Y-103985085D01*
X155221103Y-103985085D02*
X155316341Y-104175561D01*
X155316341Y-104175561D02*
X155411579Y-104270800D01*
X155411579Y-104270800D02*
X155602055Y-104366038D01*
X155602055Y-104366038D02*
X155983008Y-104366038D01*
X155983008Y-104366038D02*
X156173484Y-104270800D01*
X156173484Y-104270800D02*
X156268722Y-104175561D01*
X156268722Y-104175561D02*
X156363960Y-103985085D01*
X156363960Y-103985085D02*
X156363960Y-102366038D01*
X157030627Y-102366038D02*
X158173484Y-102366038D01*
X157602055Y-104366038D02*
X157602055Y-102366038D01*
D11*
X202734819Y-96029779D02*
X201734819Y-96029779D01*
X201734819Y-96029779D02*
X201734819Y-95791684D01*
X201734819Y-95791684D02*
X201782438Y-95648827D01*
X201782438Y-95648827D02*
X201877676Y-95553589D01*
X201877676Y-95553589D02*
X201972914Y-95505970D01*
X201972914Y-95505970D02*
X202163390Y-95458351D01*
X202163390Y-95458351D02*
X202306247Y-95458351D01*
X202306247Y-95458351D02*
X202496723Y-95505970D01*
X202496723Y-95505970D02*
X202591961Y-95553589D01*
X202591961Y-95553589D02*
X202687200Y-95648827D01*
X202687200Y-95648827D02*
X202734819Y-95791684D01*
X202734819Y-95791684D02*
X202734819Y-96029779D01*
X202734819Y-94505970D02*
X202734819Y-95077398D01*
X202734819Y-94791684D02*
X201734819Y-94791684D01*
X201734819Y-94791684D02*
X201877676Y-94886922D01*
X201877676Y-94886922D02*
X201972914Y-94982160D01*
X201972914Y-94982160D02*
X202020533Y-95077398D01*
X201614819Y-87933589D02*
X200614819Y-87933589D01*
X201614819Y-87362161D02*
X201043390Y-87790732D01*
X200614819Y-87362161D02*
X201186247Y-87933589D01*
D12*
X134463333Y-63901775D02*
X134463333Y-64473203D01*
X134463333Y-64473203D02*
X134425238Y-64587489D01*
X134425238Y-64587489D02*
X134349047Y-64663680D01*
X134349047Y-64663680D02*
X134234762Y-64701775D01*
X134234762Y-64701775D02*
X134158571Y-64701775D01*
X135187143Y-64168441D02*
X135187143Y-64701775D01*
X134996667Y-63863680D02*
X134806190Y-64435108D01*
X134806190Y-64435108D02*
X135301429Y-64435108D01*
D14*
%TO.C,Q1*%
X132442500Y-100660000D02*
X140042500Y-100660000D01*
X132442500Y-103360000D02*
X132442500Y-100660000D01*
X132695000Y-103360000D02*
X132442500Y-103360000D01*
X140042500Y-100660000D02*
X140042500Y-103360000D01*
X140042500Y-103360000D02*
X139790000Y-103360000D01*
D10*
X141242500Y-102310000D02*
X140642500Y-102010000D01*
X141242500Y-101710000D01*
X141242500Y-102310000D01*
G36*
X141242500Y-102310000D02*
G01*
X140642500Y-102010000D01*
X141242500Y-101710000D01*
X141242500Y-102310000D01*
G37*
D15*
%TO.C,C4*%
X140400000Y-113410000D02*
G75*
G02*
X135160000Y-113410000I-2620000J0D01*
G01*
X135160000Y-113410000D02*
G75*
G02*
X140400000Y-113410000I2620000J0D01*
G01*
%TO.C,TP1*%
X124200000Y-134390000D02*
G75*
G02*
X121800000Y-134390000I-1200000J0D01*
G01*
X121800000Y-134390000D02*
G75*
G02*
X124200000Y-134390000I1200000J0D01*
G01*
D10*
%TO.C,J3*%
X141822000Y-66664800D02*
X142838000Y-66664800D01*
X141822000Y-67680800D02*
X141822000Y-66664800D01*
X141720400Y-76469200D02*
X144006400Y-76469200D01*
X144006400Y-68950800D01*
X141720400Y-68950800D01*
X141720400Y-76469200D01*
X144006400Y-73624400D02*
X144514400Y-73624400D01*
X144514400Y-69306400D01*
X144006400Y-69306400D01*
X144006400Y-73624400D01*
D16*
%TO.C,U4*%
X177566315Y-134458485D02*
X180966315Y-134458485D01*
D10*
X177766315Y-125989685D02*
X177978447Y-125777553D01*
X177766315Y-126489685D02*
X178466315Y-125789685D01*
X177766315Y-126989685D02*
X178466315Y-126289685D01*
X177766315Y-127489685D02*
X178466315Y-126789685D01*
X177766315Y-127989685D02*
X178466315Y-127289685D01*
X177766315Y-128489685D02*
X178466315Y-127789685D01*
X177766315Y-128989685D02*
X178466315Y-128289685D01*
X177766315Y-129489685D02*
X178466315Y-128789685D01*
X177766315Y-129989685D02*
X178466315Y-129289685D01*
X177766315Y-130489685D02*
X178466315Y-129789685D01*
X177766315Y-130989685D02*
X178466315Y-130289685D01*
X177766315Y-131489685D02*
X178466315Y-130789685D01*
X177766315Y-131989685D02*
X178466315Y-131289685D01*
X177766315Y-132489685D02*
X178466315Y-131789685D01*
X177766315Y-132989685D02*
X178466315Y-132289685D01*
X177766315Y-133489685D02*
X178466315Y-132789685D01*
X177766315Y-133989685D02*
X178466315Y-133289685D01*
X177766315Y-134489685D02*
X177766315Y-125689685D01*
X177766315Y-134489685D02*
X178466315Y-133789685D01*
X178466315Y-134289685D02*
X178268325Y-134487675D01*
X178466315Y-134489685D02*
X178466315Y-125689685D01*
D16*
X178961515Y-125720885D02*
X177566315Y-125720885D01*
X179571115Y-125720885D02*
X178961515Y-125720885D01*
X180966315Y-125720885D02*
X179571115Y-125720885D01*
X179571115Y-125720885D02*
G75*
G02*
X178961515Y-125720885I-304800J0D01*
G01*
D10*
X175866315Y-125789685D02*
X175466315Y-125789685D01*
X175866315Y-125389685D01*
X175866315Y-125789685D01*
G36*
X175866315Y-125789685D02*
G01*
X175466315Y-125789685D01*
X175866315Y-125389685D01*
X175866315Y-125789685D01*
G37*
D15*
%TO.C,U1*%
X118670000Y-118515000D02*
X118670000Y-120165000D01*
X118670000Y-122165000D02*
X118670000Y-123815000D01*
X118670000Y-123815000D02*
X154350000Y-123815000D01*
X154350000Y-118515000D02*
X118670000Y-118515000D01*
X154350000Y-123815000D02*
X154350000Y-118515000D01*
X118670000Y-120165000D02*
G75*
G02*
X118670000Y-122165000I0J-1000000D01*
G01*
%TO.C,J9*%
X193640000Y-63690000D02*
X193640000Y-75410000D01*
X193640000Y-75410000D02*
X195060000Y-75410000D01*
X195060000Y-70910000D02*
X197450000Y-70910000D01*
X195060000Y-75410000D02*
X195060000Y-70910000D01*
X195950000Y-64300000D02*
X195950000Y-69800000D01*
X195950000Y-69800000D02*
X196450000Y-69800000D01*
X196450000Y-64300000D02*
X195950000Y-64300000D01*
X196450000Y-69800000D02*
X196450000Y-64300000D01*
X197450000Y-63690000D02*
X193640000Y-63690000D01*
X197450000Y-63690000D02*
X201260000Y-63690000D01*
X198400000Y-75100000D02*
X198700000Y-74500000D01*
X198450000Y-64300000D02*
X198450000Y-69800000D01*
X198450000Y-69800000D02*
X198950000Y-69800000D01*
X198700000Y-74500000D02*
X199000000Y-75100000D01*
X198950000Y-64300000D02*
X198450000Y-64300000D01*
X198950000Y-69800000D02*
X198950000Y-64300000D01*
X199000000Y-75100000D02*
X198400000Y-75100000D01*
X199840000Y-70910000D02*
X197450000Y-70910000D01*
X199840000Y-75410000D02*
X199840000Y-70910000D01*
X201260000Y-63690000D02*
X201260000Y-75410000D01*
X201260000Y-75410000D02*
X199840000Y-75410000D01*
%TO.C,R10*%
X119540000Y-110250000D02*
X120310000Y-110250000D01*
X120310000Y-108880000D02*
X120310000Y-111620000D01*
X120310000Y-111620000D02*
X126850000Y-111620000D01*
X126850000Y-108880000D02*
X120310000Y-108880000D01*
X126850000Y-111620000D02*
X126850000Y-108880000D01*
X127620000Y-110250000D02*
X126850000Y-110250000D01*
%TO.C,R5*%
X119540000Y-101950000D02*
X120310000Y-101950000D01*
X120310000Y-100580000D02*
X120310000Y-103320000D01*
X120310000Y-103320000D02*
X126850000Y-103320000D01*
X126850000Y-100580000D02*
X120310000Y-100580000D01*
X126850000Y-103320000D02*
X126850000Y-100580000D01*
X127620000Y-101950000D02*
X126850000Y-101950000D01*
%TO.C,C6*%
X137344000Y-132470000D02*
X136086000Y-132470000D01*
X137344000Y-134310000D02*
X136086000Y-134310000D01*
%TO.C,R11*%
X119540000Y-114250000D02*
X120310000Y-114250000D01*
X120310000Y-112880000D02*
X120310000Y-115620000D01*
X120310000Y-115620000D02*
X126850000Y-115620000D01*
X126850000Y-112880000D02*
X120310000Y-112880000D01*
X126850000Y-115620000D02*
X126850000Y-112880000D01*
X127620000Y-114250000D02*
X126850000Y-114250000D01*
%TO.C,U2*%
X144680000Y-108680000D02*
X144680000Y-109940000D01*
X144680000Y-115500000D02*
X144680000Y-114240000D01*
X148440000Y-108680000D02*
X144680000Y-108680000D01*
X148440000Y-115500000D02*
X144680000Y-115500000D01*
X149960000Y-115730000D02*
X149480000Y-115730000D01*
X149720000Y-115400000D01*
X149960000Y-115730000D01*
G36*
X149960000Y-115730000D02*
G01*
X149480000Y-115730000D01*
X149720000Y-115400000D01*
X149960000Y-115730000D01*
G37*
%TO.C,R9*%
X161520000Y-127266932D02*
X162290000Y-127266932D01*
X162290000Y-125896932D02*
X162290000Y-128636932D01*
X162290000Y-128636932D02*
X168830000Y-128636932D01*
X168830000Y-125896932D02*
X162290000Y-125896932D01*
X168830000Y-128636932D02*
X168830000Y-125896932D01*
X169600000Y-127266932D02*
X168830000Y-127266932D01*
%TO.C,R12*%
X132640000Y-106240000D02*
X133410000Y-106240000D01*
X133410000Y-104870000D02*
X133410000Y-107610000D01*
X133410000Y-107610000D02*
X139950000Y-107610000D01*
X139950000Y-104870000D02*
X133410000Y-104870000D01*
X139950000Y-107610000D02*
X139950000Y-104870000D01*
X140720000Y-106240000D02*
X139950000Y-106240000D01*
%TO.C,R2*%
X161520000Y-123452699D02*
X162290000Y-123452699D01*
X162290000Y-122082699D02*
X162290000Y-124822699D01*
X162290000Y-124822699D02*
X168830000Y-124822699D01*
X168830000Y-122082699D02*
X162290000Y-122082699D01*
X168830000Y-124822699D02*
X168830000Y-122082699D01*
X169600000Y-123452699D02*
X168830000Y-123452699D01*
%TO.C,R1*%
X161520000Y-115824233D02*
X162290000Y-115824233D01*
X162290000Y-114454233D02*
X162290000Y-117194233D01*
X162290000Y-117194233D02*
X168830000Y-117194233D01*
X168830000Y-114454233D02*
X162290000Y-114454233D01*
X168830000Y-117194233D02*
X168830000Y-114454233D01*
X169600000Y-115824233D02*
X168830000Y-115824233D01*
D10*
%TO.C,J1*%
X157022000Y-66664800D02*
X158038000Y-66664800D01*
X157022000Y-67680800D02*
X157022000Y-66664800D01*
X156920400Y-76469200D02*
X159206400Y-76469200D01*
X159206400Y-68950800D01*
X156920400Y-68950800D01*
X156920400Y-76469200D01*
X159206400Y-73624400D02*
X159714400Y-73624400D01*
X159714400Y-69306400D01*
X159206400Y-69306400D01*
X159206400Y-73624400D01*
%TO.C,J2*%
X149422000Y-66664800D02*
X150438000Y-66664800D01*
X149422000Y-67680800D02*
X149422000Y-66664800D01*
X149320400Y-76469200D02*
X151606400Y-76469200D01*
X151606400Y-68950800D01*
X149320400Y-68950800D01*
X149320400Y-76469200D01*
X151606400Y-73624400D02*
X152114400Y-73624400D01*
X152114400Y-69306400D01*
X151606400Y-69306400D01*
X151606400Y-73624400D01*
D15*
%TO.C,TP2*%
X130200000Y-134390000D02*
G75*
G02*
X127800000Y-134390000I-1200000J0D01*
G01*
X127800000Y-134390000D02*
G75*
G02*
X130200000Y-134390000I1200000J0D01*
G01*
%TO.C,R7*%
X161520000Y-134895400D02*
X162290000Y-134895400D01*
X162290000Y-133525400D02*
X162290000Y-136265400D01*
X162290000Y-136265400D02*
X168830000Y-136265400D01*
X168830000Y-133525400D02*
X162290000Y-133525400D01*
X168830000Y-136265400D02*
X168830000Y-133525400D01*
X169600000Y-134895400D02*
X168830000Y-134895400D01*
%TO.C,TP3*%
X155760000Y-134390000D02*
G75*
G02*
X153360000Y-134390000I-1200000J0D01*
G01*
X153360000Y-134390000D02*
G75*
G02*
X155760000Y-134390000I1200000J0D01*
G01*
%TO.C,J11*%
X188799000Y-118910000D02*
X188799000Y-119960000D01*
X188999000Y-110560000D02*
X190899000Y-110560000D01*
X188999000Y-113260000D02*
X188999000Y-110560000D01*
X188999000Y-119760000D02*
X188999000Y-117160000D01*
X189849000Y-119960000D02*
X188799000Y-119960000D01*
X194899000Y-110560000D02*
X200459050Y-110566350D01*
X200459050Y-119766350D02*
X188999000Y-119760000D01*
D10*
%TO.C,J5*%
X126622000Y-66664800D02*
X127638000Y-66664800D01*
X126622000Y-67680800D02*
X126622000Y-66664800D01*
X126520400Y-76469200D02*
X128806400Y-76469200D01*
X128806400Y-68950800D01*
X126520400Y-68950800D01*
X126520400Y-76469200D01*
X128806400Y-73624400D02*
X129314400Y-73624400D01*
X129314400Y-69306400D01*
X128806400Y-69306400D01*
X128806400Y-73624400D01*
D15*
%TO.C,C2*%
X157630000Y-111090000D02*
G75*
G02*
X152390000Y-111090000I-2620000J0D01*
G01*
X152390000Y-111090000D02*
G75*
G02*
X157630000Y-111090000I2620000J0D01*
G01*
%TO.C,R3*%
X161520000Y-119638466D02*
X162290000Y-119638466D01*
X162290000Y-118268466D02*
X162290000Y-121008466D01*
X162290000Y-121008466D02*
X168830000Y-121008466D01*
X168830000Y-118268466D02*
X162290000Y-118268466D01*
X168830000Y-121008466D02*
X168830000Y-118268466D01*
X169600000Y-119638466D02*
X168830000Y-119638466D01*
D10*
%TO.C,J8*%
X113217000Y-82904000D02*
X114690200Y-82904000D01*
X113217000Y-84224800D02*
X113217000Y-82904000D01*
X113217000Y-95299200D02*
X115350600Y-95299200D01*
X115350600Y-85240800D01*
X113217000Y-85240800D01*
X113217000Y-95299200D01*
X115350600Y-91400000D02*
X116061800Y-91400000D01*
X116061800Y-86624800D01*
X115350600Y-86624800D01*
X115350600Y-91400000D01*
D15*
%TO.C,C3*%
X183153800Y-120000000D02*
G75*
G02*
X177913800Y-120000000I-2620000J0D01*
G01*
X177913800Y-120000000D02*
G75*
G02*
X183153800Y-120000000I2620000J0D01*
G01*
%TO.C,C1*%
X148980000Y-103220000D02*
G75*
G02*
X143740000Y-103220000I-2620000J0D01*
G01*
X143740000Y-103220000D02*
G75*
G02*
X148980000Y-103220000I2620000J0D01*
G01*
%TO.C,R6*%
X119540000Y-106250000D02*
X120310000Y-106250000D01*
X120310000Y-104880000D02*
X120310000Y-107620000D01*
X120310000Y-107620000D02*
X126850000Y-107620000D01*
X126850000Y-104880000D02*
X120310000Y-104880000D01*
X126850000Y-107620000D02*
X126850000Y-104880000D01*
X127620000Y-106250000D02*
X126850000Y-106250000D01*
D14*
%TO.C,J12*%
X187055000Y-121670000D02*
X200985000Y-121670000D01*
X187055000Y-123450000D02*
X187055000Y-121670000D01*
X187055000Y-135520000D02*
X187055000Y-135140000D01*
X190535000Y-135520000D02*
X187055000Y-135520000D01*
X200055000Y-135520000D02*
X198455000Y-135520000D01*
X203205000Y-134600000D02*
X203205000Y-122890000D01*
D15*
%TO.C,R4*%
X161520000Y-112010000D02*
X162290000Y-112010000D01*
X162290000Y-110640000D02*
X162290000Y-113380000D01*
X162290000Y-113380000D02*
X168830000Y-113380000D01*
X168830000Y-110640000D02*
X162290000Y-110640000D01*
X168830000Y-113380000D02*
X168830000Y-110640000D01*
X169600000Y-112010000D02*
X168830000Y-112010000D01*
D10*
%TO.C,J7*%
X114130600Y-117474800D02*
X115146600Y-117474800D01*
X114130600Y-118490800D02*
X114130600Y-117474800D01*
X114029000Y-127279200D02*
X116315000Y-127279200D01*
X116315000Y-119760800D01*
X114029000Y-119760800D01*
X114029000Y-127279200D01*
X116315000Y-124434400D02*
X116823000Y-124434400D01*
X116823000Y-120116400D01*
X116315000Y-120116400D01*
X116315000Y-124434400D01*
%TO.C,J6*%
X119022000Y-66664800D02*
X120038000Y-66664800D01*
X119022000Y-67680800D02*
X119022000Y-66664800D01*
X118920400Y-76469200D02*
X121206400Y-76469200D01*
X121206400Y-68950800D01*
X118920400Y-68950800D01*
X118920400Y-76469200D01*
X121206400Y-73624400D02*
X121714400Y-73624400D01*
X121714400Y-69306400D01*
X121206400Y-69306400D01*
X121206400Y-73624400D01*
%TO.C,J10*%
X198435200Y-80217000D02*
X199756000Y-80217000D01*
X199756000Y-80217000D02*
X199756000Y-81690200D01*
X192060800Y-80217000D02*
X197419200Y-80217000D01*
X197419200Y-82350600D01*
X192060800Y-82350600D01*
X192060800Y-80217000D01*
X195222400Y-82350600D02*
X197097600Y-82350600D01*
X197097600Y-83061800D01*
X195222400Y-83061800D01*
X195222400Y-82350600D01*
D15*
%TO.C,R8*%
X161520000Y-131070000D02*
X162290000Y-131070000D01*
X162290000Y-129700000D02*
X162290000Y-132440000D01*
X162290000Y-132440000D02*
X168830000Y-132440000D01*
X168830000Y-129700000D02*
X162290000Y-129700000D01*
X168830000Y-132440000D02*
X168830000Y-129700000D01*
X169600000Y-131070000D02*
X168830000Y-131070000D01*
%TO.C,C5*%
X144739000Y-132460000D02*
X143481000Y-132460000D01*
X144739000Y-134300000D02*
X143481000Y-134300000D01*
D10*
%TO.C,U6*%
X162070000Y-67361317D02*
X162070000Y-80825783D01*
X162070000Y-67361317D02*
X163837767Y-65593550D01*
X163837767Y-82593550D02*
X162070000Y-80825783D01*
X163837767Y-82593550D02*
X188302233Y-82593550D01*
X188302233Y-65593550D02*
X163837767Y-65593550D01*
X188302233Y-82593550D02*
X190070000Y-80825783D01*
X190070000Y-67361317D02*
X188302233Y-65593550D01*
X190070000Y-80825783D02*
X190070000Y-67361317D01*
X165935038Y-68333588D02*
G75*
G02*
X163685038Y-68333588I-1125000J0D01*
G01*
X163685038Y-68333588D02*
G75*
G02*
X165935038Y-68333588I1125000J0D01*
G01*
X188454962Y-68333588D02*
G75*
G02*
X186204962Y-68333588I-1125000J0D01*
G01*
X186204962Y-68333588D02*
G75*
G02*
X188454962Y-68333588I1125000J0D01*
G01*
D15*
%TO.C,Y1*%
X143620000Y-126725000D02*
X137220000Y-126725000D01*
X143620000Y-131775000D02*
X137220000Y-131775000D01*
X137220000Y-131775000D02*
G75*
G02*
X137220000Y-126725000I0J2525000D01*
G01*
X143620000Y-126725000D02*
G75*
G02*
X143620000Y-131775000I0J-2525000D01*
G01*
D14*
%TO.C,U3*%
X118196500Y-78945000D02*
X148676500Y-78945000D01*
X118196500Y-99335000D02*
X118196500Y-78945000D01*
X148676500Y-78945000D02*
X148676500Y-99335000D01*
X148676500Y-99335000D02*
X118196500Y-99335000D01*
%TO.C,U5*%
D10*
X150260000Y-87090000D02*
X193440000Y-87090000D01*
X193440000Y-107410000D01*
X150260000Y-107410000D01*
X150260000Y-87090000D01*
D15*
%TO.C,D1*%
X195840000Y-90421685D02*
X195840000Y-100161685D01*
X195840000Y-100161685D02*
X201280000Y-100161685D01*
X198560000Y-89511685D02*
X198560000Y-90421685D01*
X198560000Y-101071685D02*
X198560000Y-100161685D01*
X201280000Y-90421685D02*
X195840000Y-90421685D01*
X201280000Y-91846685D02*
X195840000Y-91846685D01*
X201280000Y-91966685D02*
X195840000Y-91966685D01*
X201280000Y-92086685D02*
X195840000Y-92086685D01*
X201280000Y-100161685D02*
X201280000Y-90421685D01*
D10*
%TO.C,J4*%
X134222000Y-66664800D02*
X135238000Y-66664800D01*
X134222000Y-67680800D02*
X134222000Y-66664800D01*
X134120400Y-76469200D02*
X136406400Y-76469200D01*
X136406400Y-68950800D01*
X134120400Y-68950800D01*
X134120400Y-76469200D01*
X136406400Y-73624400D02*
X136914400Y-73624400D01*
X136914400Y-69306400D01*
X136406400Y-69306400D01*
X136406400Y-73624400D01*
%TD*%
M02*
