%TF.GenerationSoftware,KiCad,Pcbnew,8.0.2*%
%TF.CreationDate,2024-12-06T15:03:33+07:00*%
%TF.ProjectId,bit-v5.1.1,6269742d-7635-42e3-912e-312e6b696361,rev?*%
%TF.SameCoordinates,Original*%
%TF.FileFunction,Drillmap*%
%TF.FilePolarity,Positive*%
%FSLAX45Y45*%
G04 Gerber Fmt 4.5, Leading zero omitted, Abs format (unit mm)*
G04 Created by KiCad (PCBNEW 8.0.2) date 2024-12-06 15:03:33*
%MOMM*%
%LPD*%
G01*
G04 APERTURE LIST*
%ADD10C,0.050000*%
%ADD11C,0.200000*%
%ADD12C,0.100000*%
%ADD13C,0.125000*%
%ADD14C,0.160000*%
%ADD15C,0.300000*%
G04 APERTURE END LIST*
D10*
X10659472Y-6283668D02*
X20359472Y-6283668D01*
X20359472Y-13783668D01*
X10659472Y-13783668D01*
X10659472Y-6283668D01*
D11*
D12*
X11494000Y-10800000D02*
X11524000Y-10830000D01*
X11524000Y-10800000D02*
X11494000Y-10830000D01*
X11665000Y-10432000D02*
X11695000Y-10462000D01*
X11695000Y-10432000D02*
X11665000Y-10462000D01*
X11710000Y-8885000D02*
X11740000Y-8915000D01*
X11740000Y-8885000D02*
X11710000Y-8915000D01*
X11760000Y-12510000D02*
X11790000Y-12540000D01*
X11790000Y-12510000D02*
X11760000Y-12540000D01*
X11996000Y-7716000D02*
X12026000Y-7746000D01*
X12026000Y-7716000D02*
X11996000Y-7746000D01*
X12010000Y-12210000D02*
X12040000Y-12240000D01*
X12040000Y-12210000D02*
X12010000Y-12240000D01*
X12110000Y-11010000D02*
X12140000Y-11040000D01*
X12140000Y-11010000D02*
X12110000Y-11040000D01*
X12139000Y-10433000D02*
X12169000Y-10463000D01*
X12169000Y-10433000D02*
X12139000Y-10463000D01*
X12424000Y-9638000D02*
X12454000Y-9668000D01*
X12454000Y-9638000D02*
X12424000Y-9668000D01*
X12560000Y-7735000D02*
X12590000Y-7765000D01*
X12590000Y-7735000D02*
X12560000Y-7765000D01*
X12935000Y-7535000D02*
X12965000Y-7565000D01*
X12965000Y-7535000D02*
X12935000Y-7565000D01*
X13185000Y-7660000D02*
X13215000Y-7690000D01*
X13215000Y-7660000D02*
X13185000Y-7690000D01*
X13392000Y-11887000D02*
X13422000Y-11917000D01*
X13422000Y-11887000D02*
X13392000Y-11917000D01*
X13425000Y-8510000D02*
X13455000Y-8540000D01*
X13455000Y-8510000D02*
X13425000Y-8540000D01*
X13434000Y-11466000D02*
X13464000Y-11496000D01*
X13464000Y-11466000D02*
X13434000Y-11496000D01*
X13770000Y-8960000D02*
X13800000Y-8990000D01*
X13800000Y-8960000D02*
X13770000Y-8990000D01*
X13860000Y-7660000D02*
X13890000Y-7690000D01*
X13890000Y-7660000D02*
X13860000Y-7690000D01*
X14160000Y-12185000D02*
X14190000Y-12215000D01*
X14190000Y-12185000D02*
X14160000Y-12215000D01*
X14331000Y-10162000D02*
X14361000Y-10192000D01*
X14361000Y-10162000D02*
X14331000Y-10192000D01*
X14400000Y-11800500D02*
X14430000Y-11830500D01*
X14430000Y-11800500D02*
X14400000Y-11830500D01*
X14535000Y-12160000D02*
X14565000Y-12190000D01*
X14565000Y-12160000D02*
X14535000Y-12190000D01*
X14564000Y-11446000D02*
X14594000Y-11476000D01*
X14594000Y-11446000D02*
X14564000Y-11476000D01*
X14651000Y-11830000D02*
X14681000Y-11860000D01*
X14681000Y-11830000D02*
X14651000Y-11860000D01*
X14760000Y-7710000D02*
X14790000Y-7740000D01*
X14790000Y-7710000D02*
X14760000Y-7740000D01*
X14810000Y-7410000D02*
X14840000Y-7440000D01*
X14840000Y-7410000D02*
X14810000Y-7440000D01*
X15260000Y-12035000D02*
X15290000Y-12065000D01*
X15290000Y-12035000D02*
X15260000Y-12065000D01*
X15432960Y-10760000D02*
X15462960Y-10790000D01*
X15462960Y-10760000D02*
X15432960Y-10790000D01*
X15600000Y-7422000D02*
X15630000Y-7452000D01*
X15630000Y-7422000D02*
X15600000Y-7452000D01*
X16339000Y-11953000D02*
X16369000Y-11983000D01*
X16369000Y-11953000D02*
X16339000Y-11983000D01*
X17196040Y-12867880D02*
X17226040Y-12897880D01*
X17226040Y-12867880D02*
X17196040Y-12897880D01*
X17245500Y-12141000D02*
X17275500Y-12171000D01*
X17275500Y-12141000D02*
X17245500Y-12171000D01*
X17436000Y-12159000D02*
X17466000Y-12189000D01*
X17466000Y-12159000D02*
X17436000Y-12189000D01*
X17515500Y-12810000D02*
X17545500Y-12840000D01*
X17545500Y-12810000D02*
X17515500Y-12840000D01*
X17784632Y-12996508D02*
X17814632Y-13026508D01*
X17814632Y-12996508D02*
X17784632Y-13026508D01*
X17784632Y-13374968D02*
X17814632Y-13404968D01*
X17814632Y-13374968D02*
X17784632Y-13404968D01*
X17787172Y-13250508D02*
X17817172Y-13280508D01*
X17817172Y-13250508D02*
X17787172Y-13280508D01*
X17810032Y-12866968D02*
X17840032Y-12896968D01*
X17840032Y-12866968D02*
X17810032Y-12896968D01*
X17885000Y-7896000D02*
X17915000Y-7926000D01*
X17915000Y-7896000D02*
X17885000Y-7926000D01*
X18012000Y-12864000D02*
X18042000Y-12894000D01*
X18042000Y-12864000D02*
X18012000Y-12894000D01*
X18287552Y-12739968D02*
X18317552Y-12769968D01*
X18317552Y-12739968D02*
X18287552Y-12769968D01*
X18292632Y-12612968D02*
X18322632Y-12642968D01*
X18322632Y-12612968D02*
X18292632Y-12642968D01*
X18305332Y-12866968D02*
X18335332Y-12896968D01*
X18335332Y-12866968D02*
X18305332Y-12896968D01*
X18310500Y-13183500D02*
X18340500Y-13213500D01*
X18340500Y-13183500D02*
X18310500Y-13213500D01*
X18527232Y-12872968D02*
X18557232Y-12902968D01*
X18557232Y-12872968D02*
X18527232Y-12902968D01*
X18537000Y-13009000D02*
X18567000Y-13039000D01*
X18567000Y-13009000D02*
X18537000Y-13039000D01*
X18819000Y-12849000D02*
X18849000Y-12879000D01*
X18849000Y-12849000D02*
X18819000Y-12879000D01*
X18864000Y-13668000D02*
X18894000Y-13698000D01*
X18894000Y-13668000D02*
X18864000Y-13698000D01*
X18978000Y-13130000D02*
X19008000Y-13160000D01*
X19008000Y-13130000D02*
X18978000Y-13160000D01*
X11890000Y-10195000D02*
G75*
G02*
X11810000Y-10195000I-40000J0D01*
G01*
X11810000Y-10195000D02*
G75*
G02*
X11890000Y-10195000I40000J0D01*
G01*
X11890000Y-10625000D02*
G75*
G02*
X11810000Y-10625000I-40000J0D01*
G01*
X11810000Y-10625000D02*
G75*
G02*
X11890000Y-10625000I40000J0D01*
G01*
X11890000Y-11025000D02*
G75*
G02*
X11810000Y-11025000I-40000J0D01*
G01*
X11810000Y-11025000D02*
G75*
G02*
X11890000Y-11025000I40000J0D01*
G01*
X11890000Y-11425000D02*
G75*
G02*
X11810000Y-11425000I-40000J0D01*
G01*
X11810000Y-11425000D02*
G75*
G02*
X11890000Y-11425000I40000J0D01*
G01*
X12040000Y-11735500D02*
G75*
G02*
X11960000Y-11735500I-40000J0D01*
G01*
X11960000Y-11735500D02*
G75*
G02*
X12040000Y-11735500I40000J0D01*
G01*
X12040000Y-12497500D02*
G75*
G02*
X11960000Y-12497500I-40000J0D01*
G01*
X11960000Y-12497500D02*
G75*
G02*
X12040000Y-12497500I40000J0D01*
G01*
X12294000Y-11735500D02*
G75*
G02*
X12214000Y-11735500I-40000J0D01*
G01*
X12214000Y-11735500D02*
G75*
G02*
X12294000Y-11735500I40000J0D01*
G01*
X12294000Y-12497500D02*
G75*
G02*
X12214000Y-12497500I-40000J0D01*
G01*
X12214000Y-12497500D02*
G75*
G02*
X12294000Y-12497500I40000J0D01*
G01*
X12548000Y-11735500D02*
G75*
G02*
X12468000Y-11735500I-40000J0D01*
G01*
X12468000Y-11735500D02*
G75*
G02*
X12548000Y-11735500I40000J0D01*
G01*
X12548000Y-12497500D02*
G75*
G02*
X12468000Y-12497500I-40000J0D01*
G01*
X12468000Y-12497500D02*
G75*
G02*
X12548000Y-12497500I40000J0D01*
G01*
X12802000Y-11735500D02*
G75*
G02*
X12722000Y-11735500I-40000J0D01*
G01*
X12722000Y-11735500D02*
G75*
G02*
X12802000Y-11735500I40000J0D01*
G01*
X12802000Y-12497500D02*
G75*
G02*
X12722000Y-12497500I-40000J0D01*
G01*
X12722000Y-12497500D02*
G75*
G02*
X12802000Y-12497500I40000J0D01*
G01*
X12906000Y-10195000D02*
G75*
G02*
X12826000Y-10195000I-40000J0D01*
G01*
X12826000Y-10195000D02*
G75*
G02*
X12906000Y-10195000I40000J0D01*
G01*
X12906000Y-10625000D02*
G75*
G02*
X12826000Y-10625000I-40000J0D01*
G01*
X12826000Y-10625000D02*
G75*
G02*
X12906000Y-10625000I40000J0D01*
G01*
X12906000Y-11025000D02*
G75*
G02*
X12826000Y-11025000I-40000J0D01*
G01*
X12826000Y-11025000D02*
G75*
G02*
X12906000Y-11025000I40000J0D01*
G01*
X12906000Y-11425000D02*
G75*
G02*
X12826000Y-11425000I-40000J0D01*
G01*
X12826000Y-11425000D02*
G75*
G02*
X12906000Y-11425000I40000J0D01*
G01*
X13056000Y-11735500D02*
G75*
G02*
X12976000Y-11735500I-40000J0D01*
G01*
X12976000Y-11735500D02*
G75*
G02*
X13056000Y-11735500I40000J0D01*
G01*
X13056000Y-12497500D02*
G75*
G02*
X12976000Y-12497500I-40000J0D01*
G01*
X12976000Y-12497500D02*
G75*
G02*
X13056000Y-12497500I40000J0D01*
G01*
X13200000Y-10624000D02*
G75*
G02*
X13120000Y-10624000I-40000J0D01*
G01*
X13120000Y-10624000D02*
G75*
G02*
X13200000Y-10624000I40000J0D01*
G01*
X13310000Y-11735500D02*
G75*
G02*
X13230000Y-11735500I-40000J0D01*
G01*
X13230000Y-11735500D02*
G75*
G02*
X13310000Y-11735500I40000J0D01*
G01*
X13310000Y-12497500D02*
G75*
G02*
X13230000Y-12497500I-40000J0D01*
G01*
X13230000Y-12497500D02*
G75*
G02*
X13310000Y-12497500I40000J0D01*
G01*
X13564000Y-11735500D02*
G75*
G02*
X13484000Y-11735500I-40000J0D01*
G01*
X13484000Y-11735500D02*
G75*
G02*
X13564000Y-11735500I40000J0D01*
G01*
X13564000Y-12497500D02*
G75*
G02*
X13484000Y-12497500I-40000J0D01*
G01*
X13484000Y-12497500D02*
G75*
G02*
X13564000Y-12497500I40000J0D01*
G01*
X13586500Y-13339000D02*
G75*
G02*
X13506500Y-13339000I-40000J0D01*
G01*
X13506500Y-13339000D02*
G75*
G02*
X13586500Y-13339000I40000J0D01*
G01*
X13818000Y-11241000D02*
G75*
G02*
X13738000Y-11241000I-40000J0D01*
G01*
X13738000Y-11241000D02*
G75*
G02*
X13818000Y-11241000I40000J0D01*
G01*
X13818000Y-11441000D02*
G75*
G02*
X13738000Y-11441000I-40000J0D01*
G01*
X13738000Y-11441000D02*
G75*
G02*
X13818000Y-11441000I40000J0D01*
G01*
X13818000Y-11735500D02*
G75*
G02*
X13738000Y-11735500I-40000J0D01*
G01*
X13738000Y-11735500D02*
G75*
G02*
X13818000Y-11735500I40000J0D01*
G01*
X13818000Y-12497500D02*
G75*
G02*
X13738000Y-12497500I-40000J0D01*
G01*
X13738000Y-12497500D02*
G75*
G02*
X13818000Y-12497500I40000J0D01*
G01*
X13836500Y-13339000D02*
G75*
G02*
X13756500Y-13339000I-40000J0D01*
G01*
X13756500Y-13339000D02*
G75*
G02*
X13836500Y-13339000I40000J0D01*
G01*
X13838000Y-12925000D02*
G75*
G02*
X13758000Y-12925000I-40000J0D01*
G01*
X13758000Y-12925000D02*
G75*
G02*
X13838000Y-12925000I40000J0D01*
G01*
X14072000Y-11735500D02*
G75*
G02*
X13992000Y-11735500I-40000J0D01*
G01*
X13992000Y-11735500D02*
G75*
G02*
X14072000Y-11735500I40000J0D01*
G01*
X14072000Y-12497500D02*
G75*
G02*
X13992000Y-12497500I-40000J0D01*
G01*
X13992000Y-12497500D02*
G75*
G02*
X14072000Y-12497500I40000J0D01*
G01*
X14216000Y-10624000D02*
G75*
G02*
X14136000Y-10624000I-40000J0D01*
G01*
X14136000Y-10624000D02*
G75*
G02*
X14216000Y-10624000I40000J0D01*
G01*
X14326000Y-11735500D02*
G75*
G02*
X14246000Y-11735500I-40000J0D01*
G01*
X14246000Y-11735500D02*
G75*
G02*
X14326000Y-11735500I40000J0D01*
G01*
X14326000Y-12497500D02*
G75*
G02*
X14246000Y-12497500I-40000J0D01*
G01*
X14246000Y-12497500D02*
G75*
G02*
X14326000Y-12497500I40000J0D01*
G01*
X14326000Y-12925000D02*
G75*
G02*
X14246000Y-12925000I-40000J0D01*
G01*
X14246000Y-12925000D02*
G75*
G02*
X14326000Y-12925000I40000J0D01*
G01*
X14326000Y-13338000D02*
G75*
G02*
X14246000Y-13338000I-40000J0D01*
G01*
X14246000Y-13338000D02*
G75*
G02*
X14326000Y-13338000I40000J0D01*
G01*
X14576000Y-13338000D02*
G75*
G02*
X14496000Y-13338000I-40000J0D01*
G01*
X14496000Y-13338000D02*
G75*
G02*
X14576000Y-13338000I40000J0D01*
G01*
X14580000Y-11735500D02*
G75*
G02*
X14500000Y-11735500I-40000J0D01*
G01*
X14500000Y-11735500D02*
G75*
G02*
X14580000Y-11735500I40000J0D01*
G01*
X14580000Y-12497500D02*
G75*
G02*
X14500000Y-12497500I-40000J0D01*
G01*
X14500000Y-12497500D02*
G75*
G02*
X14580000Y-12497500I40000J0D01*
G01*
X14676000Y-10222000D02*
G75*
G02*
X14596000Y-10222000I-40000J0D01*
G01*
X14596000Y-10222000D02*
G75*
G02*
X14676000Y-10222000I40000J0D01*
G01*
X14676000Y-10422000D02*
G75*
G02*
X14596000Y-10422000I-40000J0D01*
G01*
X14596000Y-10422000D02*
G75*
G02*
X14676000Y-10422000I40000J0D01*
G01*
X14834000Y-11735500D02*
G75*
G02*
X14754000Y-11735500I-40000J0D01*
G01*
X14754000Y-11735500D02*
G75*
G02*
X14834000Y-11735500I40000J0D01*
G01*
X14834000Y-12497500D02*
G75*
G02*
X14754000Y-12497500I-40000J0D01*
G01*
X14754000Y-12497500D02*
G75*
G02*
X14834000Y-12497500I40000J0D01*
G01*
X15088000Y-11735500D02*
G75*
G02*
X15008000Y-11735500I-40000J0D01*
G01*
X15008000Y-11735500D02*
G75*
G02*
X15088000Y-11735500I40000J0D01*
G01*
X15088000Y-12497500D02*
G75*
G02*
X15008000Y-12497500I-40000J0D01*
G01*
X15008000Y-12497500D02*
G75*
G02*
X15088000Y-12497500I40000J0D01*
G01*
X15342000Y-11735500D02*
G75*
G02*
X15262000Y-11735500I-40000J0D01*
G01*
X15262000Y-11735500D02*
G75*
G02*
X15342000Y-11735500I40000J0D01*
G01*
X15342000Y-12497500D02*
G75*
G02*
X15262000Y-12497500I-40000J0D01*
G01*
X15262000Y-12497500D02*
G75*
G02*
X15342000Y-12497500I40000J0D01*
G01*
X15541000Y-11009000D02*
G75*
G02*
X15461000Y-11009000I-40000J0D01*
G01*
X15461000Y-11009000D02*
G75*
G02*
X15541000Y-11009000I40000J0D01*
G01*
X15541000Y-11209000D02*
G75*
G02*
X15461000Y-11209000I-40000J0D01*
G01*
X15461000Y-11209000D02*
G75*
G02*
X15541000Y-11209000I40000J0D01*
G01*
X16088000Y-11201000D02*
G75*
G02*
X16008000Y-11201000I-40000J0D01*
G01*
X16008000Y-11201000D02*
G75*
G02*
X16088000Y-11201000I40000J0D01*
G01*
X16088000Y-11582423D02*
G75*
G02*
X16008000Y-11582423I-40000J0D01*
G01*
X16008000Y-11582423D02*
G75*
G02*
X16088000Y-11582423I40000J0D01*
G01*
X16088000Y-11963847D02*
G75*
G02*
X16008000Y-11963847I-40000J0D01*
G01*
X16008000Y-11963847D02*
G75*
G02*
X16088000Y-11963847I40000J0D01*
G01*
X16088000Y-12345270D02*
G75*
G02*
X16008000Y-12345270I-40000J0D01*
G01*
X16008000Y-12345270D02*
G75*
G02*
X16088000Y-12345270I40000J0D01*
G01*
X16088000Y-12726693D02*
G75*
G02*
X16008000Y-12726693I-40000J0D01*
G01*
X16008000Y-12726693D02*
G75*
G02*
X16088000Y-12726693I40000J0D01*
G01*
X16088000Y-13107000D02*
G75*
G02*
X16008000Y-13107000I-40000J0D01*
G01*
X16008000Y-13107000D02*
G75*
G02*
X16088000Y-13107000I40000J0D01*
G01*
X16088000Y-13489540D02*
G75*
G02*
X16008000Y-13489540I-40000J0D01*
G01*
X16008000Y-13489540D02*
G75*
G02*
X16088000Y-13489540I40000J0D01*
G01*
X17104000Y-11201000D02*
G75*
G02*
X17024000Y-11201000I-40000J0D01*
G01*
X17024000Y-11201000D02*
G75*
G02*
X17104000Y-11201000I40000J0D01*
G01*
X17104000Y-11582423D02*
G75*
G02*
X17024000Y-11582423I-40000J0D01*
G01*
X17024000Y-11582423D02*
G75*
G02*
X17104000Y-11582423I40000J0D01*
G01*
X17104000Y-11963847D02*
G75*
G02*
X17024000Y-11963847I-40000J0D01*
G01*
X17024000Y-11963847D02*
G75*
G02*
X17104000Y-11963847I40000J0D01*
G01*
X17104000Y-12345270D02*
G75*
G02*
X17024000Y-12345270I-40000J0D01*
G01*
X17024000Y-12345270D02*
G75*
G02*
X17104000Y-12345270I40000J0D01*
G01*
X17104000Y-12726693D02*
G75*
G02*
X17024000Y-12726693I-40000J0D01*
G01*
X17024000Y-12726693D02*
G75*
G02*
X17104000Y-12726693I40000J0D01*
G01*
X17104000Y-13107000D02*
G75*
G02*
X17024000Y-13107000I-40000J0D01*
G01*
X17024000Y-13107000D02*
G75*
G02*
X17104000Y-13107000I40000J0D01*
G01*
X17104000Y-13489540D02*
G75*
G02*
X17024000Y-13489540I-40000J0D01*
G01*
X17024000Y-13489540D02*
G75*
G02*
X17104000Y-13489540I40000J0D01*
G01*
X17993380Y-12000000D02*
G75*
G02*
X17913380Y-12000000I-40000J0D01*
G01*
X17913380Y-12000000D02*
G75*
G02*
X17993380Y-12000000I40000J0D01*
G01*
X18193380Y-12000000D02*
G75*
G02*
X18113380Y-12000000I-40000J0D01*
G01*
X18113380Y-12000000D02*
G75*
G02*
X18193380Y-12000000I40000J0D01*
G01*
X11425000Y-8350000D02*
X11425000Y-8450000D01*
X11375000Y-8400000D02*
X11475000Y-8400000D01*
X11425000Y-8600000D02*
X11425000Y-8700000D01*
X11375000Y-8650000D02*
X11475000Y-8650000D01*
X11425000Y-8850000D02*
X11425000Y-8950000D01*
X11375000Y-8900000D02*
X11475000Y-8900000D01*
X11425000Y-9100000D02*
X11425000Y-9200000D01*
X11375000Y-9150000D02*
X11475000Y-9150000D01*
X11425000Y-9350000D02*
X11425000Y-9450000D01*
X11375000Y-9400000D02*
X11475000Y-9400000D01*
X11516360Y-11800000D02*
X11516360Y-11900000D01*
X11466360Y-11850000D02*
X11566360Y-11850000D01*
X11516360Y-12050000D02*
X11516360Y-12150000D01*
X11466360Y-12100000D02*
X11566360Y-12100000D01*
X11516360Y-12300000D02*
X11516360Y-12400000D01*
X11466360Y-12350000D02*
X11566360Y-12350000D01*
X11516360Y-12550000D02*
X11516360Y-12650000D01*
X11466360Y-12600000D02*
X11566360Y-12600000D01*
X11946650Y-7975000D02*
X11946650Y-8075000D01*
X11896650Y-8025000D02*
X11996650Y-8025000D01*
X11946650Y-9753000D02*
X11946650Y-9853000D01*
X11896650Y-9803000D02*
X11996650Y-9803000D01*
X12005500Y-6719000D02*
X12005500Y-6819000D01*
X11955500Y-6769000D02*
X12055500Y-6769000D01*
X12005500Y-6969000D02*
X12005500Y-7069000D01*
X11955500Y-7019000D02*
X12055500Y-7019000D01*
X12005500Y-7219000D02*
X12005500Y-7319000D01*
X11955500Y-7269000D02*
X12055500Y-7269000D01*
X12005500Y-7469000D02*
X12005500Y-7569000D01*
X11955500Y-7519000D02*
X12055500Y-7519000D01*
X12200650Y-7975000D02*
X12200650Y-8075000D01*
X12150650Y-8025000D02*
X12250650Y-8025000D01*
X12200650Y-9753000D02*
X12200650Y-9853000D01*
X12150650Y-9803000D02*
X12250650Y-9803000D01*
X12454650Y-7975000D02*
X12454650Y-8075000D01*
X12404650Y-8025000D02*
X12504650Y-8025000D01*
X12454650Y-9753000D02*
X12454650Y-9853000D01*
X12404650Y-9803000D02*
X12504650Y-9803000D01*
X12708650Y-7975000D02*
X12708650Y-8075000D01*
X12658650Y-8025000D02*
X12758650Y-8025000D01*
X12708650Y-9753000D02*
X12708650Y-9853000D01*
X12658650Y-9803000D02*
X12758650Y-9803000D01*
X12765500Y-6719000D02*
X12765500Y-6819000D01*
X12715500Y-6769000D02*
X12815500Y-6769000D01*
X12765500Y-6969000D02*
X12765500Y-7069000D01*
X12715500Y-7019000D02*
X12815500Y-7019000D01*
X12765500Y-7219000D02*
X12765500Y-7319000D01*
X12715500Y-7269000D02*
X12815500Y-7269000D01*
X12765500Y-7469000D02*
X12765500Y-7569000D01*
X12715500Y-7519000D02*
X12815500Y-7519000D01*
X12962650Y-7975000D02*
X12962650Y-8075000D01*
X12912650Y-8025000D02*
X13012650Y-8025000D01*
X12962650Y-9753000D02*
X12962650Y-9853000D01*
X12912650Y-9803000D02*
X13012650Y-9803000D01*
X13216650Y-7975000D02*
X13216650Y-8075000D01*
X13166650Y-8025000D02*
X13266650Y-8025000D01*
X13216650Y-9753000D02*
X13216650Y-9853000D01*
X13166650Y-9803000D02*
X13266650Y-9803000D01*
X13470650Y-7975000D02*
X13470650Y-8075000D01*
X13420650Y-8025000D02*
X13520650Y-8025000D01*
X13470650Y-9753000D02*
X13470650Y-9853000D01*
X13420650Y-9803000D02*
X13520650Y-9803000D01*
X13525500Y-6719000D02*
X13525500Y-6819000D01*
X13475500Y-6769000D02*
X13575500Y-6769000D01*
X13525500Y-6969000D02*
X13525500Y-7069000D01*
X13475500Y-7019000D02*
X13575500Y-7019000D01*
X13525500Y-7219000D02*
X13525500Y-7319000D01*
X13475500Y-7269000D02*
X13575500Y-7269000D01*
X13525500Y-7469000D02*
X13525500Y-7569000D01*
X13475500Y-7519000D02*
X13575500Y-7519000D01*
X13724650Y-7975000D02*
X13724650Y-8075000D01*
X13674650Y-8025000D02*
X13774650Y-8025000D01*
X13724650Y-9753000D02*
X13724650Y-9853000D01*
X13674650Y-9803000D02*
X13774650Y-9803000D01*
X13978650Y-7975000D02*
X13978650Y-8075000D01*
X13928650Y-8025000D02*
X14028650Y-8025000D01*
X13978650Y-9753000D02*
X13978650Y-9853000D01*
X13928650Y-9803000D02*
X14028650Y-9803000D01*
X14232650Y-7975000D02*
X14232650Y-8075000D01*
X14182650Y-8025000D02*
X14282650Y-8025000D01*
X14232650Y-9753000D02*
X14232650Y-9853000D01*
X14182650Y-9803000D02*
X14282650Y-9803000D01*
X14285500Y-6719000D02*
X14285500Y-6819000D01*
X14235500Y-6769000D02*
X14335500Y-6769000D01*
X14285500Y-6969000D02*
X14285500Y-7069000D01*
X14235500Y-7019000D02*
X14335500Y-7019000D01*
X14285500Y-7219000D02*
X14285500Y-7319000D01*
X14235500Y-7269000D02*
X14335500Y-7269000D01*
X14285500Y-7469000D02*
X14285500Y-7569000D01*
X14235500Y-7519000D02*
X14335500Y-7519000D01*
X14486650Y-7975000D02*
X14486650Y-8075000D01*
X14436650Y-8025000D02*
X14536650Y-8025000D01*
X14486650Y-9753000D02*
X14486650Y-9853000D01*
X14436650Y-9803000D02*
X14536650Y-9803000D01*
X14740650Y-7975000D02*
X14740650Y-8075000D01*
X14690650Y-8025000D02*
X14790650Y-8025000D01*
X14740650Y-9753000D02*
X14740650Y-9853000D01*
X14690650Y-9803000D02*
X14790650Y-9803000D01*
X15045500Y-6719000D02*
X15045500Y-6819000D01*
X14995500Y-6769000D02*
X15095500Y-6769000D01*
X15045500Y-6969000D02*
X15045500Y-7069000D01*
X14995500Y-7019000D02*
X15095500Y-7019000D01*
X15045500Y-7219000D02*
X15045500Y-7319000D01*
X14995500Y-7269000D02*
X15095500Y-7269000D01*
X15045500Y-7469000D02*
X15045500Y-7569000D01*
X14995500Y-7519000D02*
X15095500Y-7519000D01*
X15153000Y-8786000D02*
X15153000Y-8886000D01*
X15103000Y-8836000D02*
X15203000Y-8836000D01*
X15153000Y-10564000D02*
X15153000Y-10664000D01*
X15103000Y-10614000D02*
X15203000Y-10614000D01*
X15805500Y-6719000D02*
X15805500Y-6819000D01*
X15755500Y-6769000D02*
X15855500Y-6769000D01*
X15805500Y-6969000D02*
X15805500Y-7069000D01*
X15755500Y-7019000D02*
X15855500Y-7019000D01*
X15805500Y-7219000D02*
X15805500Y-7319000D01*
X15755500Y-7269000D02*
X15855500Y-7269000D01*
X15805500Y-7469000D02*
X15805500Y-7569000D01*
X15755500Y-7519000D02*
X15855500Y-7519000D01*
X16464000Y-8075000D02*
X16464000Y-8175000D01*
X16414000Y-8125000D02*
X16514000Y-8125000D01*
X16718000Y-8075000D02*
X16718000Y-8175000D01*
X16668000Y-8125000D02*
X16768000Y-8125000D01*
X16972000Y-8075000D02*
X16972000Y-8175000D01*
X16922000Y-8125000D02*
X17022000Y-8125000D01*
X17226000Y-8075000D02*
X17226000Y-8175000D01*
X17176000Y-8125000D02*
X17276000Y-8125000D01*
X17480000Y-8075000D02*
X17480000Y-8175000D01*
X17430000Y-8125000D02*
X17530000Y-8125000D01*
X17734000Y-8075000D02*
X17734000Y-8175000D01*
X17684000Y-8125000D02*
X17784000Y-8125000D01*
X17988000Y-8075000D02*
X17988000Y-8175000D01*
X17938000Y-8125000D02*
X18038000Y-8125000D01*
X18242000Y-8075000D02*
X18242000Y-8175000D01*
X18192000Y-8125000D02*
X18292000Y-8125000D01*
X18496000Y-8075000D02*
X18496000Y-8175000D01*
X18446000Y-8125000D02*
X18546000Y-8125000D01*
X18750000Y-8075000D02*
X18750000Y-8175000D01*
X18700000Y-8125000D02*
X18800000Y-8125000D01*
X18989900Y-11466000D02*
X18989900Y-11566000D01*
X18939900Y-11516000D02*
X19039900Y-11516000D01*
X19039900Y-11616000D02*
X19039900Y-11416000D01*
X18939900Y-11416000D02*
G75*
G02*
X19039900Y-11416000I50000J0D01*
G01*
X18939900Y-11416000D02*
X18939900Y-11616000D01*
X18939900Y-11616000D02*
G75*
G03*
X19039900Y-11616000I50000J0D01*
G01*
X19217000Y-8786000D02*
X19217000Y-8886000D01*
X19167000Y-8836000D02*
X19267000Y-8836000D01*
X19217000Y-10564000D02*
X19217000Y-10664000D01*
X19167000Y-10614000D02*
X19267000Y-10614000D01*
X19289900Y-10996000D02*
X19289900Y-11096000D01*
X19239900Y-11046000D02*
X19339900Y-11046000D01*
X19389900Y-10996000D02*
X19189900Y-10996000D01*
X19189900Y-11096000D02*
G75*
G02*
X19189900Y-10996000I0J50000D01*
G01*
X19189900Y-11096000D02*
X19389900Y-11096000D01*
X19389900Y-11096000D02*
G75*
G03*
X19389900Y-10996000I0J50000D01*
G01*
X19366000Y-8075000D02*
X19366000Y-8175000D01*
X19316000Y-8125000D02*
X19416000Y-8125000D01*
X19589900Y-11466000D02*
X19589900Y-11566000D01*
X19539900Y-11516000D02*
X19639900Y-11516000D01*
X19639900Y-11616000D02*
X19639900Y-11416000D01*
X19539900Y-11416000D02*
G75*
G02*
X19639900Y-11416000I50000J0D01*
G01*
X19539900Y-11416000D02*
X19539900Y-11616000D01*
X19539900Y-11616000D02*
G75*
G03*
X19639900Y-11616000I50000J0D01*
G01*
X19616000Y-8075000D02*
X19616000Y-8175000D01*
X19566000Y-8125000D02*
X19666000Y-8125000D01*
X19620000Y-7250000D02*
X19620000Y-7350000D01*
X19570000Y-7300000D02*
X19670000Y-7300000D01*
X19866000Y-8075000D02*
X19866000Y-8175000D01*
X19816000Y-8125000D02*
X19916000Y-8125000D01*
X19870000Y-7250000D02*
X19870000Y-7350000D01*
X19820000Y-7300000D02*
X19920000Y-7300000D01*
D13*
X13439445Y-10260695D02*
X13439445Y-10172305D01*
X13351055Y-10172305D01*
X13351055Y-10260695D01*
X13439445Y-10260695D01*
X13668445Y-10260695D02*
X13668445Y-10172305D01*
X13580055Y-10172305D01*
X13580055Y-10260695D01*
X13668445Y-10260695D01*
X13897445Y-10260695D02*
X13897445Y-10172305D01*
X13809055Y-10172305D01*
X13809055Y-10260695D01*
X13897445Y-10260695D01*
D14*
X19856000Y-8847169D02*
X19936000Y-8767169D01*
X19856000Y-8687169D01*
X19776000Y-8767169D01*
X19856000Y-8847169D01*
X19856000Y-10371169D02*
X19936000Y-10291169D01*
X19856000Y-10211169D01*
X19776000Y-10291169D01*
X19856000Y-10371169D01*
D15*
X11009472Y-6633668D02*
X11309471Y-6933668D01*
X11309471Y-6633668D02*
X11009472Y-6933668D01*
X11309471Y-6783668D02*
G75*
G02*
X11009472Y-6783668I-150000J0D01*
G01*
X11009472Y-6783668D02*
G75*
G02*
X11309471Y-6783668I150000J0D01*
G01*
X11009472Y-13133668D02*
X11309471Y-13433668D01*
X11309471Y-13133668D02*
X11009472Y-13433668D01*
X11309471Y-13283668D02*
G75*
G02*
X11009472Y-13283668I-150000J0D01*
G01*
X11009472Y-13283668D02*
G75*
G02*
X11309471Y-13283668I150000J0D01*
G01*
X15509471Y-8133668D02*
X15809471Y-8433669D01*
X15809471Y-8133668D02*
X15509471Y-8433669D01*
X15809471Y-8283668D02*
G75*
G02*
X15509471Y-8283668I-150000J0D01*
G01*
X15509471Y-8283668D02*
G75*
G02*
X15809471Y-8283668I150000J0D01*
G01*
X18009472Y-11140000D02*
X18309472Y-11440000D01*
X18309472Y-11140000D02*
X18009472Y-11440000D01*
X18309472Y-11290000D02*
G75*
G02*
X18009472Y-11290000I-150000J0D01*
G01*
X18009472Y-11290000D02*
G75*
G02*
X18309472Y-11290000I150000J0D01*
G01*
D11*
X10917748Y-14097652D02*
X10917748Y-13897652D01*
X10917748Y-13897652D02*
X10965367Y-13897652D01*
X10965367Y-13897652D02*
X10993939Y-13907176D01*
X10993939Y-13907176D02*
X11012986Y-13926224D01*
X11012986Y-13926224D02*
X11022510Y-13945271D01*
X11022510Y-13945271D02*
X11032034Y-13983366D01*
X11032034Y-13983366D02*
X11032034Y-14011938D01*
X11032034Y-14011938D02*
X11022510Y-14050033D01*
X11022510Y-14050033D02*
X11012986Y-14069081D01*
X11012986Y-14069081D02*
X10993939Y-14088128D01*
X10993939Y-14088128D02*
X10965367Y-14097652D01*
X10965367Y-14097652D02*
X10917748Y-14097652D01*
X11117748Y-14097652D02*
X11117748Y-13964319D01*
X11117748Y-14002414D02*
X11127272Y-13983366D01*
X11127272Y-13983366D02*
X11136796Y-13973843D01*
X11136796Y-13973843D02*
X11155844Y-13964319D01*
X11155844Y-13964319D02*
X11174891Y-13964319D01*
X11241558Y-14097652D02*
X11241558Y-13964319D01*
X11241558Y-13897652D02*
X11232034Y-13907176D01*
X11232034Y-13907176D02*
X11241558Y-13916700D01*
X11241558Y-13916700D02*
X11251082Y-13907176D01*
X11251082Y-13907176D02*
X11241558Y-13897652D01*
X11241558Y-13897652D02*
X11241558Y-13916700D01*
X11365367Y-14097652D02*
X11346320Y-14088128D01*
X11346320Y-14088128D02*
X11336796Y-14069081D01*
X11336796Y-14069081D02*
X11336796Y-13897652D01*
X11470129Y-14097652D02*
X11451082Y-14088128D01*
X11451082Y-14088128D02*
X11441558Y-14069081D01*
X11441558Y-14069081D02*
X11441558Y-13897652D01*
X11698701Y-14097652D02*
X11698701Y-13897652D01*
X11698701Y-13897652D02*
X11765367Y-14040509D01*
X11765367Y-14040509D02*
X11832034Y-13897652D01*
X11832034Y-13897652D02*
X11832034Y-14097652D01*
X12012986Y-14097652D02*
X12012986Y-13992890D01*
X12012986Y-13992890D02*
X12003463Y-13973843D01*
X12003463Y-13973843D02*
X11984415Y-13964319D01*
X11984415Y-13964319D02*
X11946320Y-13964319D01*
X11946320Y-13964319D02*
X11927272Y-13973843D01*
X12012986Y-14088128D02*
X11993939Y-14097652D01*
X11993939Y-14097652D02*
X11946320Y-14097652D01*
X11946320Y-14097652D02*
X11927272Y-14088128D01*
X11927272Y-14088128D02*
X11917748Y-14069081D01*
X11917748Y-14069081D02*
X11917748Y-14050033D01*
X11917748Y-14050033D02*
X11927272Y-14030986D01*
X11927272Y-14030986D02*
X11946320Y-14021462D01*
X11946320Y-14021462D02*
X11993939Y-14021462D01*
X11993939Y-14021462D02*
X12012986Y-14011938D01*
X12108224Y-13964319D02*
X12108224Y-14164319D01*
X12108224Y-13973843D02*
X12127272Y-13964319D01*
X12127272Y-13964319D02*
X12165367Y-13964319D01*
X12165367Y-13964319D02*
X12184415Y-13973843D01*
X12184415Y-13973843D02*
X12193939Y-13983366D01*
X12193939Y-13983366D02*
X12203463Y-14002414D01*
X12203463Y-14002414D02*
X12203463Y-14059557D01*
X12203463Y-14059557D02*
X12193939Y-14078605D01*
X12193939Y-14078605D02*
X12184415Y-14088128D01*
X12184415Y-14088128D02*
X12165367Y-14097652D01*
X12165367Y-14097652D02*
X12127272Y-14097652D01*
X12127272Y-14097652D02*
X12108224Y-14088128D01*
X12289177Y-14078605D02*
X12298701Y-14088128D01*
X12298701Y-14088128D02*
X12289177Y-14097652D01*
X12289177Y-14097652D02*
X12279653Y-14088128D01*
X12279653Y-14088128D02*
X12289177Y-14078605D01*
X12289177Y-14078605D02*
X12289177Y-14097652D01*
X12289177Y-13973843D02*
X12298701Y-13983366D01*
X12298701Y-13983366D02*
X12289177Y-13992890D01*
X12289177Y-13992890D02*
X12279653Y-13983366D01*
X12279653Y-13983366D02*
X12289177Y-13973843D01*
X12289177Y-13973843D02*
X12289177Y-13992890D01*
D12*
X10626972Y-14411168D02*
X10656972Y-14441168D01*
X10656972Y-14411168D02*
X10626972Y-14441168D01*
D11*
X10955844Y-14317652D02*
X10974891Y-14317652D01*
X10974891Y-14317652D02*
X10993939Y-14327176D01*
X10993939Y-14327176D02*
X11003463Y-14336700D01*
X11003463Y-14336700D02*
X11012986Y-14355747D01*
X11012986Y-14355747D02*
X11022510Y-14393843D01*
X11022510Y-14393843D02*
X11022510Y-14441462D01*
X11022510Y-14441462D02*
X11012986Y-14479557D01*
X11012986Y-14479557D02*
X11003463Y-14498605D01*
X11003463Y-14498605D02*
X10993939Y-14508128D01*
X10993939Y-14508128D02*
X10974891Y-14517652D01*
X10974891Y-14517652D02*
X10955844Y-14517652D01*
X10955844Y-14517652D02*
X10936796Y-14508128D01*
X10936796Y-14508128D02*
X10927272Y-14498605D01*
X10927272Y-14498605D02*
X10917748Y-14479557D01*
X10917748Y-14479557D02*
X10908225Y-14441462D01*
X10908225Y-14441462D02*
X10908225Y-14393843D01*
X10908225Y-14393843D02*
X10917748Y-14355747D01*
X10917748Y-14355747D02*
X10927272Y-14336700D01*
X10927272Y-14336700D02*
X10936796Y-14327176D01*
X10936796Y-14327176D02*
X10955844Y-14317652D01*
X11108225Y-14498605D02*
X11117748Y-14508128D01*
X11117748Y-14508128D02*
X11108225Y-14517652D01*
X11108225Y-14517652D02*
X11098701Y-14508128D01*
X11098701Y-14508128D02*
X11108225Y-14498605D01*
X11108225Y-14498605D02*
X11108225Y-14517652D01*
X11184415Y-14317652D02*
X11308224Y-14317652D01*
X11308224Y-14317652D02*
X11241558Y-14393843D01*
X11241558Y-14393843D02*
X11270129Y-14393843D01*
X11270129Y-14393843D02*
X11289177Y-14403366D01*
X11289177Y-14403366D02*
X11298701Y-14412890D01*
X11298701Y-14412890D02*
X11308224Y-14431938D01*
X11308224Y-14431938D02*
X11308224Y-14479557D01*
X11308224Y-14479557D02*
X11298701Y-14498605D01*
X11298701Y-14498605D02*
X11289177Y-14508128D01*
X11289177Y-14508128D02*
X11270129Y-14517652D01*
X11270129Y-14517652D02*
X11212986Y-14517652D01*
X11212986Y-14517652D02*
X11193939Y-14508128D01*
X11193939Y-14508128D02*
X11184415Y-14498605D01*
X11432034Y-14317652D02*
X11451082Y-14317652D01*
X11451082Y-14317652D02*
X11470129Y-14327176D01*
X11470129Y-14327176D02*
X11479653Y-14336700D01*
X11479653Y-14336700D02*
X11489177Y-14355747D01*
X11489177Y-14355747D02*
X11498701Y-14393843D01*
X11498701Y-14393843D02*
X11498701Y-14441462D01*
X11498701Y-14441462D02*
X11489177Y-14479557D01*
X11489177Y-14479557D02*
X11479653Y-14498605D01*
X11479653Y-14498605D02*
X11470129Y-14508128D01*
X11470129Y-14508128D02*
X11451082Y-14517652D01*
X11451082Y-14517652D02*
X11432034Y-14517652D01*
X11432034Y-14517652D02*
X11412986Y-14508128D01*
X11412986Y-14508128D02*
X11403463Y-14498605D01*
X11403463Y-14498605D02*
X11393939Y-14479557D01*
X11393939Y-14479557D02*
X11384415Y-14441462D01*
X11384415Y-14441462D02*
X11384415Y-14393843D01*
X11384415Y-14393843D02*
X11393939Y-14355747D01*
X11393939Y-14355747D02*
X11403463Y-14336700D01*
X11403463Y-14336700D02*
X11412986Y-14327176D01*
X11412986Y-14327176D02*
X11432034Y-14317652D01*
X11622510Y-14317652D02*
X11641558Y-14317652D01*
X11641558Y-14317652D02*
X11660605Y-14327176D01*
X11660605Y-14327176D02*
X11670129Y-14336700D01*
X11670129Y-14336700D02*
X11679653Y-14355747D01*
X11679653Y-14355747D02*
X11689177Y-14393843D01*
X11689177Y-14393843D02*
X11689177Y-14441462D01*
X11689177Y-14441462D02*
X11679653Y-14479557D01*
X11679653Y-14479557D02*
X11670129Y-14498605D01*
X11670129Y-14498605D02*
X11660605Y-14508128D01*
X11660605Y-14508128D02*
X11641558Y-14517652D01*
X11641558Y-14517652D02*
X11622510Y-14517652D01*
X11622510Y-14517652D02*
X11603463Y-14508128D01*
X11603463Y-14508128D02*
X11593939Y-14498605D01*
X11593939Y-14498605D02*
X11584415Y-14479557D01*
X11584415Y-14479557D02*
X11574891Y-14441462D01*
X11574891Y-14441462D02*
X11574891Y-14393843D01*
X11574891Y-14393843D02*
X11584415Y-14355747D01*
X11584415Y-14355747D02*
X11593939Y-14336700D01*
X11593939Y-14336700D02*
X11603463Y-14327176D01*
X11603463Y-14327176D02*
X11622510Y-14317652D01*
X11774891Y-14517652D02*
X11774891Y-14384319D01*
X11774891Y-14403366D02*
X11784415Y-14393843D01*
X11784415Y-14393843D02*
X11803463Y-14384319D01*
X11803463Y-14384319D02*
X11832034Y-14384319D01*
X11832034Y-14384319D02*
X11851082Y-14393843D01*
X11851082Y-14393843D02*
X11860605Y-14412890D01*
X11860605Y-14412890D02*
X11860605Y-14517652D01*
X11860605Y-14412890D02*
X11870129Y-14393843D01*
X11870129Y-14393843D02*
X11889177Y-14384319D01*
X11889177Y-14384319D02*
X11917748Y-14384319D01*
X11917748Y-14384319D02*
X11936796Y-14393843D01*
X11936796Y-14393843D02*
X11946320Y-14412890D01*
X11946320Y-14412890D02*
X11946320Y-14517652D01*
X12041558Y-14517652D02*
X12041558Y-14384319D01*
X12041558Y-14403366D02*
X12051082Y-14393843D01*
X12051082Y-14393843D02*
X12070129Y-14384319D01*
X12070129Y-14384319D02*
X12098701Y-14384319D01*
X12098701Y-14384319D02*
X12117748Y-14393843D01*
X12117748Y-14393843D02*
X12127272Y-14412890D01*
X12127272Y-14412890D02*
X12127272Y-14517652D01*
X12127272Y-14412890D02*
X12136796Y-14393843D01*
X12136796Y-14393843D02*
X12155844Y-14384319D01*
X12155844Y-14384319D02*
X12184415Y-14384319D01*
X12184415Y-14384319D02*
X12203463Y-14393843D01*
X12203463Y-14393843D02*
X12212986Y-14412890D01*
X12212986Y-14412890D02*
X12212986Y-14517652D01*
X12603463Y-14308128D02*
X12432034Y-14565271D01*
X12860606Y-14317652D02*
X12879653Y-14317652D01*
X12879653Y-14317652D02*
X12898701Y-14327176D01*
X12898701Y-14327176D02*
X12908225Y-14336700D01*
X12908225Y-14336700D02*
X12917748Y-14355747D01*
X12917748Y-14355747D02*
X12927272Y-14393843D01*
X12927272Y-14393843D02*
X12927272Y-14441462D01*
X12927272Y-14441462D02*
X12917748Y-14479557D01*
X12917748Y-14479557D02*
X12908225Y-14498605D01*
X12908225Y-14498605D02*
X12898701Y-14508128D01*
X12898701Y-14508128D02*
X12879653Y-14517652D01*
X12879653Y-14517652D02*
X12860606Y-14517652D01*
X12860606Y-14517652D02*
X12841558Y-14508128D01*
X12841558Y-14508128D02*
X12832034Y-14498605D01*
X12832034Y-14498605D02*
X12822510Y-14479557D01*
X12822510Y-14479557D02*
X12812987Y-14441462D01*
X12812987Y-14441462D02*
X12812987Y-14393843D01*
X12812987Y-14393843D02*
X12822510Y-14355747D01*
X12822510Y-14355747D02*
X12832034Y-14336700D01*
X12832034Y-14336700D02*
X12841558Y-14327176D01*
X12841558Y-14327176D02*
X12860606Y-14317652D01*
X13012987Y-14498605D02*
X13022510Y-14508128D01*
X13022510Y-14508128D02*
X13012987Y-14517652D01*
X13012987Y-14517652D02*
X13003463Y-14508128D01*
X13003463Y-14508128D02*
X13012987Y-14498605D01*
X13012987Y-14498605D02*
X13012987Y-14517652D01*
X13146320Y-14317652D02*
X13165368Y-14317652D01*
X13165368Y-14317652D02*
X13184415Y-14327176D01*
X13184415Y-14327176D02*
X13193939Y-14336700D01*
X13193939Y-14336700D02*
X13203463Y-14355747D01*
X13203463Y-14355747D02*
X13212987Y-14393843D01*
X13212987Y-14393843D02*
X13212987Y-14441462D01*
X13212987Y-14441462D02*
X13203463Y-14479557D01*
X13203463Y-14479557D02*
X13193939Y-14498605D01*
X13193939Y-14498605D02*
X13184415Y-14508128D01*
X13184415Y-14508128D02*
X13165368Y-14517652D01*
X13165368Y-14517652D02*
X13146320Y-14517652D01*
X13146320Y-14517652D02*
X13127272Y-14508128D01*
X13127272Y-14508128D02*
X13117748Y-14498605D01*
X13117748Y-14498605D02*
X13108225Y-14479557D01*
X13108225Y-14479557D02*
X13098701Y-14441462D01*
X13098701Y-14441462D02*
X13098701Y-14393843D01*
X13098701Y-14393843D02*
X13108225Y-14355747D01*
X13108225Y-14355747D02*
X13117748Y-14336700D01*
X13117748Y-14336700D02*
X13127272Y-14327176D01*
X13127272Y-14327176D02*
X13146320Y-14317652D01*
X13403463Y-14517652D02*
X13289177Y-14517652D01*
X13346320Y-14517652D02*
X13346320Y-14317652D01*
X13346320Y-14317652D02*
X13327272Y-14346224D01*
X13327272Y-14346224D02*
X13308225Y-14365271D01*
X13308225Y-14365271D02*
X13289177Y-14374795D01*
X13593939Y-14517652D02*
X13479653Y-14517652D01*
X13536796Y-14517652D02*
X13536796Y-14317652D01*
X13536796Y-14317652D02*
X13517748Y-14346224D01*
X13517748Y-14346224D02*
X13498701Y-14365271D01*
X13498701Y-14365271D02*
X13479653Y-14374795D01*
X13708225Y-14403366D02*
X13689177Y-14393843D01*
X13689177Y-14393843D02*
X13679653Y-14384319D01*
X13679653Y-14384319D02*
X13670129Y-14365271D01*
X13670129Y-14365271D02*
X13670129Y-14355747D01*
X13670129Y-14355747D02*
X13679653Y-14336700D01*
X13679653Y-14336700D02*
X13689177Y-14327176D01*
X13689177Y-14327176D02*
X13708225Y-14317652D01*
X13708225Y-14317652D02*
X13746320Y-14317652D01*
X13746320Y-14317652D02*
X13765368Y-14327176D01*
X13765368Y-14327176D02*
X13774891Y-14336700D01*
X13774891Y-14336700D02*
X13784415Y-14355747D01*
X13784415Y-14355747D02*
X13784415Y-14365271D01*
X13784415Y-14365271D02*
X13774891Y-14384319D01*
X13774891Y-14384319D02*
X13765368Y-14393843D01*
X13765368Y-14393843D02*
X13746320Y-14403366D01*
X13746320Y-14403366D02*
X13708225Y-14403366D01*
X13708225Y-14403366D02*
X13689177Y-14412890D01*
X13689177Y-14412890D02*
X13679653Y-14422414D01*
X13679653Y-14422414D02*
X13670129Y-14441462D01*
X13670129Y-14441462D02*
X13670129Y-14479557D01*
X13670129Y-14479557D02*
X13679653Y-14498605D01*
X13679653Y-14498605D02*
X13689177Y-14508128D01*
X13689177Y-14508128D02*
X13708225Y-14517652D01*
X13708225Y-14517652D02*
X13746320Y-14517652D01*
X13746320Y-14517652D02*
X13765368Y-14508128D01*
X13765368Y-14508128D02*
X13774891Y-14498605D01*
X13774891Y-14498605D02*
X13784415Y-14479557D01*
X13784415Y-14479557D02*
X13784415Y-14441462D01*
X13784415Y-14441462D02*
X13774891Y-14422414D01*
X13774891Y-14422414D02*
X13765368Y-14412890D01*
X13765368Y-14412890D02*
X13746320Y-14403366D01*
X13860606Y-14317652D02*
X13860606Y-14355747D01*
X13936796Y-14317652D02*
X13936796Y-14355747D01*
X14232034Y-14593843D02*
X14222510Y-14584319D01*
X14222510Y-14584319D02*
X14203463Y-14555747D01*
X14203463Y-14555747D02*
X14193939Y-14536700D01*
X14193939Y-14536700D02*
X14184415Y-14508128D01*
X14184415Y-14508128D02*
X14174891Y-14460509D01*
X14174891Y-14460509D02*
X14174891Y-14422414D01*
X14174891Y-14422414D02*
X14184415Y-14374795D01*
X14184415Y-14374795D02*
X14193939Y-14346224D01*
X14193939Y-14346224D02*
X14203463Y-14327176D01*
X14203463Y-14327176D02*
X14222510Y-14298605D01*
X14222510Y-14298605D02*
X14232034Y-14289081D01*
X14393939Y-14384319D02*
X14393939Y-14517652D01*
X14346320Y-14308128D02*
X14298701Y-14450986D01*
X14298701Y-14450986D02*
X14422510Y-14450986D01*
X14527272Y-14403366D02*
X14508225Y-14393843D01*
X14508225Y-14393843D02*
X14498701Y-14384319D01*
X14498701Y-14384319D02*
X14489177Y-14365271D01*
X14489177Y-14365271D02*
X14489177Y-14355747D01*
X14489177Y-14355747D02*
X14498701Y-14336700D01*
X14498701Y-14336700D02*
X14508225Y-14327176D01*
X14508225Y-14327176D02*
X14527272Y-14317652D01*
X14527272Y-14317652D02*
X14565368Y-14317652D01*
X14565368Y-14317652D02*
X14584415Y-14327176D01*
X14584415Y-14327176D02*
X14593939Y-14336700D01*
X14593939Y-14336700D02*
X14603463Y-14355747D01*
X14603463Y-14355747D02*
X14603463Y-14365271D01*
X14603463Y-14365271D02*
X14593939Y-14384319D01*
X14593939Y-14384319D02*
X14584415Y-14393843D01*
X14584415Y-14393843D02*
X14565368Y-14403366D01*
X14565368Y-14403366D02*
X14527272Y-14403366D01*
X14527272Y-14403366D02*
X14508225Y-14412890D01*
X14508225Y-14412890D02*
X14498701Y-14422414D01*
X14498701Y-14422414D02*
X14489177Y-14441462D01*
X14489177Y-14441462D02*
X14489177Y-14479557D01*
X14489177Y-14479557D02*
X14498701Y-14498605D01*
X14498701Y-14498605D02*
X14508225Y-14508128D01*
X14508225Y-14508128D02*
X14527272Y-14517652D01*
X14527272Y-14517652D02*
X14565368Y-14517652D01*
X14565368Y-14517652D02*
X14584415Y-14508128D01*
X14584415Y-14508128D02*
X14593939Y-14498605D01*
X14593939Y-14498605D02*
X14603463Y-14479557D01*
X14603463Y-14479557D02*
X14603463Y-14441462D01*
X14603463Y-14441462D02*
X14593939Y-14422414D01*
X14593939Y-14422414D02*
X14584415Y-14412890D01*
X14584415Y-14412890D02*
X14565368Y-14403366D01*
X14841558Y-14517652D02*
X14841558Y-14317652D01*
X14927272Y-14517652D02*
X14927272Y-14412890D01*
X14927272Y-14412890D02*
X14917749Y-14393843D01*
X14917749Y-14393843D02*
X14898701Y-14384319D01*
X14898701Y-14384319D02*
X14870130Y-14384319D01*
X14870130Y-14384319D02*
X14851082Y-14393843D01*
X14851082Y-14393843D02*
X14841558Y-14403366D01*
X15051082Y-14517652D02*
X15032034Y-14508128D01*
X15032034Y-14508128D02*
X15022511Y-14498605D01*
X15022511Y-14498605D02*
X15012987Y-14479557D01*
X15012987Y-14479557D02*
X15012987Y-14422414D01*
X15012987Y-14422414D02*
X15022511Y-14403366D01*
X15022511Y-14403366D02*
X15032034Y-14393843D01*
X15032034Y-14393843D02*
X15051082Y-14384319D01*
X15051082Y-14384319D02*
X15079653Y-14384319D01*
X15079653Y-14384319D02*
X15098701Y-14393843D01*
X15098701Y-14393843D02*
X15108225Y-14403366D01*
X15108225Y-14403366D02*
X15117749Y-14422414D01*
X15117749Y-14422414D02*
X15117749Y-14479557D01*
X15117749Y-14479557D02*
X15108225Y-14498605D01*
X15108225Y-14498605D02*
X15098701Y-14508128D01*
X15098701Y-14508128D02*
X15079653Y-14517652D01*
X15079653Y-14517652D02*
X15051082Y-14517652D01*
X15232034Y-14517652D02*
X15212987Y-14508128D01*
X15212987Y-14508128D02*
X15203463Y-14489081D01*
X15203463Y-14489081D02*
X15203463Y-14317652D01*
X15384415Y-14508128D02*
X15365368Y-14517652D01*
X15365368Y-14517652D02*
X15327272Y-14517652D01*
X15327272Y-14517652D02*
X15308225Y-14508128D01*
X15308225Y-14508128D02*
X15298701Y-14489081D01*
X15298701Y-14489081D02*
X15298701Y-14412890D01*
X15298701Y-14412890D02*
X15308225Y-14393843D01*
X15308225Y-14393843D02*
X15327272Y-14384319D01*
X15327272Y-14384319D02*
X15365368Y-14384319D01*
X15365368Y-14384319D02*
X15384415Y-14393843D01*
X15384415Y-14393843D02*
X15393939Y-14412890D01*
X15393939Y-14412890D02*
X15393939Y-14431938D01*
X15393939Y-14431938D02*
X15298701Y-14450986D01*
X15470130Y-14508128D02*
X15489177Y-14517652D01*
X15489177Y-14517652D02*
X15527272Y-14517652D01*
X15527272Y-14517652D02*
X15546320Y-14508128D01*
X15546320Y-14508128D02*
X15555844Y-14489081D01*
X15555844Y-14489081D02*
X15555844Y-14479557D01*
X15555844Y-14479557D02*
X15546320Y-14460509D01*
X15546320Y-14460509D02*
X15527272Y-14450986D01*
X15527272Y-14450986D02*
X15498701Y-14450986D01*
X15498701Y-14450986D02*
X15479653Y-14441462D01*
X15479653Y-14441462D02*
X15470130Y-14422414D01*
X15470130Y-14422414D02*
X15470130Y-14412890D01*
X15470130Y-14412890D02*
X15479653Y-14393843D01*
X15479653Y-14393843D02*
X15498701Y-14384319D01*
X15498701Y-14384319D02*
X15527272Y-14384319D01*
X15527272Y-14384319D02*
X15546320Y-14393843D01*
X15622511Y-14593843D02*
X15632034Y-14584319D01*
X15632034Y-14584319D02*
X15651082Y-14555747D01*
X15651082Y-14555747D02*
X15660606Y-14536700D01*
X15660606Y-14536700D02*
X15670130Y-14508128D01*
X15670130Y-14508128D02*
X15679653Y-14460509D01*
X15679653Y-14460509D02*
X15679653Y-14422414D01*
X15679653Y-14422414D02*
X15670130Y-14374795D01*
X15670130Y-14374795D02*
X15660606Y-14346224D01*
X15660606Y-14346224D02*
X15651082Y-14327176D01*
X15651082Y-14327176D02*
X15632034Y-14298605D01*
X15632034Y-14298605D02*
X15622511Y-14289081D01*
D12*
X10656972Y-14690168D02*
G75*
G02*
X10576972Y-14690168I-40000J0D01*
G01*
X10576972Y-14690168D02*
G75*
G02*
X10656972Y-14690168I40000J0D01*
G01*
D11*
X10955844Y-14581652D02*
X10974891Y-14581652D01*
X10974891Y-14581652D02*
X10993939Y-14591176D01*
X10993939Y-14591176D02*
X11003463Y-14600700D01*
X11003463Y-14600700D02*
X11012986Y-14619747D01*
X11012986Y-14619747D02*
X11022510Y-14657843D01*
X11022510Y-14657843D02*
X11022510Y-14705462D01*
X11022510Y-14705462D02*
X11012986Y-14743557D01*
X11012986Y-14743557D02*
X11003463Y-14762605D01*
X11003463Y-14762605D02*
X10993939Y-14772128D01*
X10993939Y-14772128D02*
X10974891Y-14781652D01*
X10974891Y-14781652D02*
X10955844Y-14781652D01*
X10955844Y-14781652D02*
X10936796Y-14772128D01*
X10936796Y-14772128D02*
X10927272Y-14762605D01*
X10927272Y-14762605D02*
X10917748Y-14743557D01*
X10917748Y-14743557D02*
X10908225Y-14705462D01*
X10908225Y-14705462D02*
X10908225Y-14657843D01*
X10908225Y-14657843D02*
X10917748Y-14619747D01*
X10917748Y-14619747D02*
X10927272Y-14600700D01*
X10927272Y-14600700D02*
X10936796Y-14591176D01*
X10936796Y-14591176D02*
X10955844Y-14581652D01*
X11108225Y-14762605D02*
X11117748Y-14772128D01*
X11117748Y-14772128D02*
X11108225Y-14781652D01*
X11108225Y-14781652D02*
X11098701Y-14772128D01*
X11098701Y-14772128D02*
X11108225Y-14762605D01*
X11108225Y-14762605D02*
X11108225Y-14781652D01*
X11232034Y-14667366D02*
X11212986Y-14657843D01*
X11212986Y-14657843D02*
X11203463Y-14648319D01*
X11203463Y-14648319D02*
X11193939Y-14629271D01*
X11193939Y-14629271D02*
X11193939Y-14619747D01*
X11193939Y-14619747D02*
X11203463Y-14600700D01*
X11203463Y-14600700D02*
X11212986Y-14591176D01*
X11212986Y-14591176D02*
X11232034Y-14581652D01*
X11232034Y-14581652D02*
X11270129Y-14581652D01*
X11270129Y-14581652D02*
X11289177Y-14591176D01*
X11289177Y-14591176D02*
X11298701Y-14600700D01*
X11298701Y-14600700D02*
X11308224Y-14619747D01*
X11308224Y-14619747D02*
X11308224Y-14629271D01*
X11308224Y-14629271D02*
X11298701Y-14648319D01*
X11298701Y-14648319D02*
X11289177Y-14657843D01*
X11289177Y-14657843D02*
X11270129Y-14667366D01*
X11270129Y-14667366D02*
X11232034Y-14667366D01*
X11232034Y-14667366D02*
X11212986Y-14676890D01*
X11212986Y-14676890D02*
X11203463Y-14686414D01*
X11203463Y-14686414D02*
X11193939Y-14705462D01*
X11193939Y-14705462D02*
X11193939Y-14743557D01*
X11193939Y-14743557D02*
X11203463Y-14762605D01*
X11203463Y-14762605D02*
X11212986Y-14772128D01*
X11212986Y-14772128D02*
X11232034Y-14781652D01*
X11232034Y-14781652D02*
X11270129Y-14781652D01*
X11270129Y-14781652D02*
X11289177Y-14772128D01*
X11289177Y-14772128D02*
X11298701Y-14762605D01*
X11298701Y-14762605D02*
X11308224Y-14743557D01*
X11308224Y-14743557D02*
X11308224Y-14705462D01*
X11308224Y-14705462D02*
X11298701Y-14686414D01*
X11298701Y-14686414D02*
X11289177Y-14676890D01*
X11289177Y-14676890D02*
X11270129Y-14667366D01*
X11432034Y-14581652D02*
X11451082Y-14581652D01*
X11451082Y-14581652D02*
X11470129Y-14591176D01*
X11470129Y-14591176D02*
X11479653Y-14600700D01*
X11479653Y-14600700D02*
X11489177Y-14619747D01*
X11489177Y-14619747D02*
X11498701Y-14657843D01*
X11498701Y-14657843D02*
X11498701Y-14705462D01*
X11498701Y-14705462D02*
X11489177Y-14743557D01*
X11489177Y-14743557D02*
X11479653Y-14762605D01*
X11479653Y-14762605D02*
X11470129Y-14772128D01*
X11470129Y-14772128D02*
X11451082Y-14781652D01*
X11451082Y-14781652D02*
X11432034Y-14781652D01*
X11432034Y-14781652D02*
X11412986Y-14772128D01*
X11412986Y-14772128D02*
X11403463Y-14762605D01*
X11403463Y-14762605D02*
X11393939Y-14743557D01*
X11393939Y-14743557D02*
X11384415Y-14705462D01*
X11384415Y-14705462D02*
X11384415Y-14657843D01*
X11384415Y-14657843D02*
X11393939Y-14619747D01*
X11393939Y-14619747D02*
X11403463Y-14600700D01*
X11403463Y-14600700D02*
X11412986Y-14591176D01*
X11412986Y-14591176D02*
X11432034Y-14581652D01*
X11622510Y-14581652D02*
X11641558Y-14581652D01*
X11641558Y-14581652D02*
X11660605Y-14591176D01*
X11660605Y-14591176D02*
X11670129Y-14600700D01*
X11670129Y-14600700D02*
X11679653Y-14619747D01*
X11679653Y-14619747D02*
X11689177Y-14657843D01*
X11689177Y-14657843D02*
X11689177Y-14705462D01*
X11689177Y-14705462D02*
X11679653Y-14743557D01*
X11679653Y-14743557D02*
X11670129Y-14762605D01*
X11670129Y-14762605D02*
X11660605Y-14772128D01*
X11660605Y-14772128D02*
X11641558Y-14781652D01*
X11641558Y-14781652D02*
X11622510Y-14781652D01*
X11622510Y-14781652D02*
X11603463Y-14772128D01*
X11603463Y-14772128D02*
X11593939Y-14762605D01*
X11593939Y-14762605D02*
X11584415Y-14743557D01*
X11584415Y-14743557D02*
X11574891Y-14705462D01*
X11574891Y-14705462D02*
X11574891Y-14657843D01*
X11574891Y-14657843D02*
X11584415Y-14619747D01*
X11584415Y-14619747D02*
X11593939Y-14600700D01*
X11593939Y-14600700D02*
X11603463Y-14591176D01*
X11603463Y-14591176D02*
X11622510Y-14581652D01*
X11774891Y-14781652D02*
X11774891Y-14648319D01*
X11774891Y-14667366D02*
X11784415Y-14657843D01*
X11784415Y-14657843D02*
X11803463Y-14648319D01*
X11803463Y-14648319D02*
X11832034Y-14648319D01*
X11832034Y-14648319D02*
X11851082Y-14657843D01*
X11851082Y-14657843D02*
X11860605Y-14676890D01*
X11860605Y-14676890D02*
X11860605Y-14781652D01*
X11860605Y-14676890D02*
X11870129Y-14657843D01*
X11870129Y-14657843D02*
X11889177Y-14648319D01*
X11889177Y-14648319D02*
X11917748Y-14648319D01*
X11917748Y-14648319D02*
X11936796Y-14657843D01*
X11936796Y-14657843D02*
X11946320Y-14676890D01*
X11946320Y-14676890D02*
X11946320Y-14781652D01*
X12041558Y-14781652D02*
X12041558Y-14648319D01*
X12041558Y-14667366D02*
X12051082Y-14657843D01*
X12051082Y-14657843D02*
X12070129Y-14648319D01*
X12070129Y-14648319D02*
X12098701Y-14648319D01*
X12098701Y-14648319D02*
X12117748Y-14657843D01*
X12117748Y-14657843D02*
X12127272Y-14676890D01*
X12127272Y-14676890D02*
X12127272Y-14781652D01*
X12127272Y-14676890D02*
X12136796Y-14657843D01*
X12136796Y-14657843D02*
X12155844Y-14648319D01*
X12155844Y-14648319D02*
X12184415Y-14648319D01*
X12184415Y-14648319D02*
X12203463Y-14657843D01*
X12203463Y-14657843D02*
X12212986Y-14676890D01*
X12212986Y-14676890D02*
X12212986Y-14781652D01*
X12603463Y-14572128D02*
X12432034Y-14829271D01*
X12860606Y-14581652D02*
X12879653Y-14581652D01*
X12879653Y-14581652D02*
X12898701Y-14591176D01*
X12898701Y-14591176D02*
X12908225Y-14600700D01*
X12908225Y-14600700D02*
X12917748Y-14619747D01*
X12917748Y-14619747D02*
X12927272Y-14657843D01*
X12927272Y-14657843D02*
X12927272Y-14705462D01*
X12927272Y-14705462D02*
X12917748Y-14743557D01*
X12917748Y-14743557D02*
X12908225Y-14762605D01*
X12908225Y-14762605D02*
X12898701Y-14772128D01*
X12898701Y-14772128D02*
X12879653Y-14781652D01*
X12879653Y-14781652D02*
X12860606Y-14781652D01*
X12860606Y-14781652D02*
X12841558Y-14772128D01*
X12841558Y-14772128D02*
X12832034Y-14762605D01*
X12832034Y-14762605D02*
X12822510Y-14743557D01*
X12822510Y-14743557D02*
X12812987Y-14705462D01*
X12812987Y-14705462D02*
X12812987Y-14657843D01*
X12812987Y-14657843D02*
X12822510Y-14619747D01*
X12822510Y-14619747D02*
X12832034Y-14600700D01*
X12832034Y-14600700D02*
X12841558Y-14591176D01*
X12841558Y-14591176D02*
X12860606Y-14581652D01*
X13012987Y-14762605D02*
X13022510Y-14772128D01*
X13022510Y-14772128D02*
X13012987Y-14781652D01*
X13012987Y-14781652D02*
X13003463Y-14772128D01*
X13003463Y-14772128D02*
X13012987Y-14762605D01*
X13012987Y-14762605D02*
X13012987Y-14781652D01*
X13146320Y-14581652D02*
X13165368Y-14581652D01*
X13165368Y-14581652D02*
X13184415Y-14591176D01*
X13184415Y-14591176D02*
X13193939Y-14600700D01*
X13193939Y-14600700D02*
X13203463Y-14619747D01*
X13203463Y-14619747D02*
X13212987Y-14657843D01*
X13212987Y-14657843D02*
X13212987Y-14705462D01*
X13212987Y-14705462D02*
X13203463Y-14743557D01*
X13203463Y-14743557D02*
X13193939Y-14762605D01*
X13193939Y-14762605D02*
X13184415Y-14772128D01*
X13184415Y-14772128D02*
X13165368Y-14781652D01*
X13165368Y-14781652D02*
X13146320Y-14781652D01*
X13146320Y-14781652D02*
X13127272Y-14772128D01*
X13127272Y-14772128D02*
X13117748Y-14762605D01*
X13117748Y-14762605D02*
X13108225Y-14743557D01*
X13108225Y-14743557D02*
X13098701Y-14705462D01*
X13098701Y-14705462D02*
X13098701Y-14657843D01*
X13098701Y-14657843D02*
X13108225Y-14619747D01*
X13108225Y-14619747D02*
X13117748Y-14600700D01*
X13117748Y-14600700D02*
X13127272Y-14591176D01*
X13127272Y-14591176D02*
X13146320Y-14581652D01*
X13279653Y-14581652D02*
X13403463Y-14581652D01*
X13403463Y-14581652D02*
X13336796Y-14657843D01*
X13336796Y-14657843D02*
X13365368Y-14657843D01*
X13365368Y-14657843D02*
X13384415Y-14667366D01*
X13384415Y-14667366D02*
X13393939Y-14676890D01*
X13393939Y-14676890D02*
X13403463Y-14695938D01*
X13403463Y-14695938D02*
X13403463Y-14743557D01*
X13403463Y-14743557D02*
X13393939Y-14762605D01*
X13393939Y-14762605D02*
X13384415Y-14772128D01*
X13384415Y-14772128D02*
X13365368Y-14781652D01*
X13365368Y-14781652D02*
X13308225Y-14781652D01*
X13308225Y-14781652D02*
X13289177Y-14772128D01*
X13289177Y-14772128D02*
X13279653Y-14762605D01*
X13593939Y-14781652D02*
X13479653Y-14781652D01*
X13536796Y-14781652D02*
X13536796Y-14581652D01*
X13536796Y-14581652D02*
X13517748Y-14610224D01*
X13517748Y-14610224D02*
X13498701Y-14629271D01*
X13498701Y-14629271D02*
X13479653Y-14638795D01*
X13774891Y-14581652D02*
X13679653Y-14581652D01*
X13679653Y-14581652D02*
X13670129Y-14676890D01*
X13670129Y-14676890D02*
X13679653Y-14667366D01*
X13679653Y-14667366D02*
X13698701Y-14657843D01*
X13698701Y-14657843D02*
X13746320Y-14657843D01*
X13746320Y-14657843D02*
X13765368Y-14667366D01*
X13765368Y-14667366D02*
X13774891Y-14676890D01*
X13774891Y-14676890D02*
X13784415Y-14695938D01*
X13784415Y-14695938D02*
X13784415Y-14743557D01*
X13784415Y-14743557D02*
X13774891Y-14762605D01*
X13774891Y-14762605D02*
X13765368Y-14772128D01*
X13765368Y-14772128D02*
X13746320Y-14781652D01*
X13746320Y-14781652D02*
X13698701Y-14781652D01*
X13698701Y-14781652D02*
X13679653Y-14772128D01*
X13679653Y-14772128D02*
X13670129Y-14762605D01*
X13860606Y-14581652D02*
X13860606Y-14619747D01*
X13936796Y-14581652D02*
X13936796Y-14619747D01*
X14232034Y-14857843D02*
X14222510Y-14848319D01*
X14222510Y-14848319D02*
X14203463Y-14819747D01*
X14203463Y-14819747D02*
X14193939Y-14800700D01*
X14193939Y-14800700D02*
X14184415Y-14772128D01*
X14184415Y-14772128D02*
X14174891Y-14724509D01*
X14174891Y-14724509D02*
X14174891Y-14686414D01*
X14174891Y-14686414D02*
X14184415Y-14638795D01*
X14184415Y-14638795D02*
X14193939Y-14610224D01*
X14193939Y-14610224D02*
X14203463Y-14591176D01*
X14203463Y-14591176D02*
X14222510Y-14562605D01*
X14222510Y-14562605D02*
X14232034Y-14553081D01*
X14393939Y-14581652D02*
X14355844Y-14581652D01*
X14355844Y-14581652D02*
X14336796Y-14591176D01*
X14336796Y-14591176D02*
X14327272Y-14600700D01*
X14327272Y-14600700D02*
X14308225Y-14629271D01*
X14308225Y-14629271D02*
X14298701Y-14667366D01*
X14298701Y-14667366D02*
X14298701Y-14743557D01*
X14298701Y-14743557D02*
X14308225Y-14762605D01*
X14308225Y-14762605D02*
X14317749Y-14772128D01*
X14317749Y-14772128D02*
X14336796Y-14781652D01*
X14336796Y-14781652D02*
X14374891Y-14781652D01*
X14374891Y-14781652D02*
X14393939Y-14772128D01*
X14393939Y-14772128D02*
X14403463Y-14762605D01*
X14403463Y-14762605D02*
X14412987Y-14743557D01*
X14412987Y-14743557D02*
X14412987Y-14695938D01*
X14412987Y-14695938D02*
X14403463Y-14676890D01*
X14403463Y-14676890D02*
X14393939Y-14667366D01*
X14393939Y-14667366D02*
X14374891Y-14657843D01*
X14374891Y-14657843D02*
X14336796Y-14657843D01*
X14336796Y-14657843D02*
X14317749Y-14667366D01*
X14317749Y-14667366D02*
X14308225Y-14676890D01*
X14308225Y-14676890D02*
X14298701Y-14695938D01*
X14584415Y-14581652D02*
X14546320Y-14581652D01*
X14546320Y-14581652D02*
X14527272Y-14591176D01*
X14527272Y-14591176D02*
X14517749Y-14600700D01*
X14517749Y-14600700D02*
X14498701Y-14629271D01*
X14498701Y-14629271D02*
X14489177Y-14667366D01*
X14489177Y-14667366D02*
X14489177Y-14743557D01*
X14489177Y-14743557D02*
X14498701Y-14762605D01*
X14498701Y-14762605D02*
X14508225Y-14772128D01*
X14508225Y-14772128D02*
X14527272Y-14781652D01*
X14527272Y-14781652D02*
X14565368Y-14781652D01*
X14565368Y-14781652D02*
X14584415Y-14772128D01*
X14584415Y-14772128D02*
X14593939Y-14762605D01*
X14593939Y-14762605D02*
X14603463Y-14743557D01*
X14603463Y-14743557D02*
X14603463Y-14695938D01*
X14603463Y-14695938D02*
X14593939Y-14676890D01*
X14593939Y-14676890D02*
X14584415Y-14667366D01*
X14584415Y-14667366D02*
X14565368Y-14657843D01*
X14565368Y-14657843D02*
X14527272Y-14657843D01*
X14527272Y-14657843D02*
X14508225Y-14667366D01*
X14508225Y-14667366D02*
X14498701Y-14676890D01*
X14498701Y-14676890D02*
X14489177Y-14695938D01*
X14841558Y-14781652D02*
X14841558Y-14581652D01*
X14927272Y-14781652D02*
X14927272Y-14676890D01*
X14927272Y-14676890D02*
X14917749Y-14657843D01*
X14917749Y-14657843D02*
X14898701Y-14648319D01*
X14898701Y-14648319D02*
X14870130Y-14648319D01*
X14870130Y-14648319D02*
X14851082Y-14657843D01*
X14851082Y-14657843D02*
X14841558Y-14667366D01*
X15051082Y-14781652D02*
X15032034Y-14772128D01*
X15032034Y-14772128D02*
X15022511Y-14762605D01*
X15022511Y-14762605D02*
X15012987Y-14743557D01*
X15012987Y-14743557D02*
X15012987Y-14686414D01*
X15012987Y-14686414D02*
X15022511Y-14667366D01*
X15022511Y-14667366D02*
X15032034Y-14657843D01*
X15032034Y-14657843D02*
X15051082Y-14648319D01*
X15051082Y-14648319D02*
X15079653Y-14648319D01*
X15079653Y-14648319D02*
X15098701Y-14657843D01*
X15098701Y-14657843D02*
X15108225Y-14667366D01*
X15108225Y-14667366D02*
X15117749Y-14686414D01*
X15117749Y-14686414D02*
X15117749Y-14743557D01*
X15117749Y-14743557D02*
X15108225Y-14762605D01*
X15108225Y-14762605D02*
X15098701Y-14772128D01*
X15098701Y-14772128D02*
X15079653Y-14781652D01*
X15079653Y-14781652D02*
X15051082Y-14781652D01*
X15232034Y-14781652D02*
X15212987Y-14772128D01*
X15212987Y-14772128D02*
X15203463Y-14753081D01*
X15203463Y-14753081D02*
X15203463Y-14581652D01*
X15384415Y-14772128D02*
X15365368Y-14781652D01*
X15365368Y-14781652D02*
X15327272Y-14781652D01*
X15327272Y-14781652D02*
X15308225Y-14772128D01*
X15308225Y-14772128D02*
X15298701Y-14753081D01*
X15298701Y-14753081D02*
X15298701Y-14676890D01*
X15298701Y-14676890D02*
X15308225Y-14657843D01*
X15308225Y-14657843D02*
X15327272Y-14648319D01*
X15327272Y-14648319D02*
X15365368Y-14648319D01*
X15365368Y-14648319D02*
X15384415Y-14657843D01*
X15384415Y-14657843D02*
X15393939Y-14676890D01*
X15393939Y-14676890D02*
X15393939Y-14695938D01*
X15393939Y-14695938D02*
X15298701Y-14714986D01*
X15470130Y-14772128D02*
X15489177Y-14781652D01*
X15489177Y-14781652D02*
X15527272Y-14781652D01*
X15527272Y-14781652D02*
X15546320Y-14772128D01*
X15546320Y-14772128D02*
X15555844Y-14753081D01*
X15555844Y-14753081D02*
X15555844Y-14743557D01*
X15555844Y-14743557D02*
X15546320Y-14724509D01*
X15546320Y-14724509D02*
X15527272Y-14714986D01*
X15527272Y-14714986D02*
X15498701Y-14714986D01*
X15498701Y-14714986D02*
X15479653Y-14705462D01*
X15479653Y-14705462D02*
X15470130Y-14686414D01*
X15470130Y-14686414D02*
X15470130Y-14676890D01*
X15470130Y-14676890D02*
X15479653Y-14657843D01*
X15479653Y-14657843D02*
X15498701Y-14648319D01*
X15498701Y-14648319D02*
X15527272Y-14648319D01*
X15527272Y-14648319D02*
X15546320Y-14657843D01*
X15622511Y-14857843D02*
X15632034Y-14848319D01*
X15632034Y-14848319D02*
X15651082Y-14819747D01*
X15651082Y-14819747D02*
X15660606Y-14800700D01*
X15660606Y-14800700D02*
X15670130Y-14772128D01*
X15670130Y-14772128D02*
X15679653Y-14724509D01*
X15679653Y-14724509D02*
X15679653Y-14686414D01*
X15679653Y-14686414D02*
X15670130Y-14638795D01*
X15670130Y-14638795D02*
X15660606Y-14610224D01*
X15660606Y-14610224D02*
X15651082Y-14591176D01*
X15651082Y-14591176D02*
X15632034Y-14562605D01*
X15632034Y-14562605D02*
X15622511Y-14553081D01*
D12*
X10606972Y-14904168D02*
X10606972Y-15004168D01*
X10556972Y-14954168D02*
X10656972Y-14954168D01*
D11*
X11022510Y-15045652D02*
X10908225Y-15045652D01*
X10965367Y-15045652D02*
X10965367Y-14845652D01*
X10965367Y-14845652D02*
X10946320Y-14874224D01*
X10946320Y-14874224D02*
X10927272Y-14893271D01*
X10927272Y-14893271D02*
X10908225Y-14902795D01*
X11108225Y-15026605D02*
X11117748Y-15036128D01*
X11117748Y-15036128D02*
X11108225Y-15045652D01*
X11108225Y-15045652D02*
X11098701Y-15036128D01*
X11098701Y-15036128D02*
X11108225Y-15026605D01*
X11108225Y-15026605D02*
X11108225Y-15045652D01*
X11241558Y-14845652D02*
X11260605Y-14845652D01*
X11260605Y-14845652D02*
X11279653Y-14855176D01*
X11279653Y-14855176D02*
X11289177Y-14864700D01*
X11289177Y-14864700D02*
X11298701Y-14883747D01*
X11298701Y-14883747D02*
X11308224Y-14921843D01*
X11308224Y-14921843D02*
X11308224Y-14969462D01*
X11308224Y-14969462D02*
X11298701Y-15007557D01*
X11298701Y-15007557D02*
X11289177Y-15026605D01*
X11289177Y-15026605D02*
X11279653Y-15036128D01*
X11279653Y-15036128D02*
X11260605Y-15045652D01*
X11260605Y-15045652D02*
X11241558Y-15045652D01*
X11241558Y-15045652D02*
X11222510Y-15036128D01*
X11222510Y-15036128D02*
X11212986Y-15026605D01*
X11212986Y-15026605D02*
X11203463Y-15007557D01*
X11203463Y-15007557D02*
X11193939Y-14969462D01*
X11193939Y-14969462D02*
X11193939Y-14921843D01*
X11193939Y-14921843D02*
X11203463Y-14883747D01*
X11203463Y-14883747D02*
X11212986Y-14864700D01*
X11212986Y-14864700D02*
X11222510Y-14855176D01*
X11222510Y-14855176D02*
X11241558Y-14845652D01*
X11432034Y-14845652D02*
X11451082Y-14845652D01*
X11451082Y-14845652D02*
X11470129Y-14855176D01*
X11470129Y-14855176D02*
X11479653Y-14864700D01*
X11479653Y-14864700D02*
X11489177Y-14883747D01*
X11489177Y-14883747D02*
X11498701Y-14921843D01*
X11498701Y-14921843D02*
X11498701Y-14969462D01*
X11498701Y-14969462D02*
X11489177Y-15007557D01*
X11489177Y-15007557D02*
X11479653Y-15026605D01*
X11479653Y-15026605D02*
X11470129Y-15036128D01*
X11470129Y-15036128D02*
X11451082Y-15045652D01*
X11451082Y-15045652D02*
X11432034Y-15045652D01*
X11432034Y-15045652D02*
X11412986Y-15036128D01*
X11412986Y-15036128D02*
X11403463Y-15026605D01*
X11403463Y-15026605D02*
X11393939Y-15007557D01*
X11393939Y-15007557D02*
X11384415Y-14969462D01*
X11384415Y-14969462D02*
X11384415Y-14921843D01*
X11384415Y-14921843D02*
X11393939Y-14883747D01*
X11393939Y-14883747D02*
X11403463Y-14864700D01*
X11403463Y-14864700D02*
X11412986Y-14855176D01*
X11412986Y-14855176D02*
X11432034Y-14845652D01*
X11622510Y-14845652D02*
X11641558Y-14845652D01*
X11641558Y-14845652D02*
X11660605Y-14855176D01*
X11660605Y-14855176D02*
X11670129Y-14864700D01*
X11670129Y-14864700D02*
X11679653Y-14883747D01*
X11679653Y-14883747D02*
X11689177Y-14921843D01*
X11689177Y-14921843D02*
X11689177Y-14969462D01*
X11689177Y-14969462D02*
X11679653Y-15007557D01*
X11679653Y-15007557D02*
X11670129Y-15026605D01*
X11670129Y-15026605D02*
X11660605Y-15036128D01*
X11660605Y-15036128D02*
X11641558Y-15045652D01*
X11641558Y-15045652D02*
X11622510Y-15045652D01*
X11622510Y-15045652D02*
X11603463Y-15036128D01*
X11603463Y-15036128D02*
X11593939Y-15026605D01*
X11593939Y-15026605D02*
X11584415Y-15007557D01*
X11584415Y-15007557D02*
X11574891Y-14969462D01*
X11574891Y-14969462D02*
X11574891Y-14921843D01*
X11574891Y-14921843D02*
X11584415Y-14883747D01*
X11584415Y-14883747D02*
X11593939Y-14864700D01*
X11593939Y-14864700D02*
X11603463Y-14855176D01*
X11603463Y-14855176D02*
X11622510Y-14845652D01*
X11774891Y-15045652D02*
X11774891Y-14912319D01*
X11774891Y-14931366D02*
X11784415Y-14921843D01*
X11784415Y-14921843D02*
X11803463Y-14912319D01*
X11803463Y-14912319D02*
X11832034Y-14912319D01*
X11832034Y-14912319D02*
X11851082Y-14921843D01*
X11851082Y-14921843D02*
X11860605Y-14940890D01*
X11860605Y-14940890D02*
X11860605Y-15045652D01*
X11860605Y-14940890D02*
X11870129Y-14921843D01*
X11870129Y-14921843D02*
X11889177Y-14912319D01*
X11889177Y-14912319D02*
X11917748Y-14912319D01*
X11917748Y-14912319D02*
X11936796Y-14921843D01*
X11936796Y-14921843D02*
X11946320Y-14940890D01*
X11946320Y-14940890D02*
X11946320Y-15045652D01*
X12041558Y-15045652D02*
X12041558Y-14912319D01*
X12041558Y-14931366D02*
X12051082Y-14921843D01*
X12051082Y-14921843D02*
X12070129Y-14912319D01*
X12070129Y-14912319D02*
X12098701Y-14912319D01*
X12098701Y-14912319D02*
X12117748Y-14921843D01*
X12117748Y-14921843D02*
X12127272Y-14940890D01*
X12127272Y-14940890D02*
X12127272Y-15045652D01*
X12127272Y-14940890D02*
X12136796Y-14921843D01*
X12136796Y-14921843D02*
X12155844Y-14912319D01*
X12155844Y-14912319D02*
X12184415Y-14912319D01*
X12184415Y-14912319D02*
X12203463Y-14921843D01*
X12203463Y-14921843D02*
X12212986Y-14940890D01*
X12212986Y-14940890D02*
X12212986Y-15045652D01*
X12603463Y-14836128D02*
X12432034Y-15093271D01*
X12860606Y-14845652D02*
X12879653Y-14845652D01*
X12879653Y-14845652D02*
X12898701Y-14855176D01*
X12898701Y-14855176D02*
X12908225Y-14864700D01*
X12908225Y-14864700D02*
X12917748Y-14883747D01*
X12917748Y-14883747D02*
X12927272Y-14921843D01*
X12927272Y-14921843D02*
X12927272Y-14969462D01*
X12927272Y-14969462D02*
X12917748Y-15007557D01*
X12917748Y-15007557D02*
X12908225Y-15026605D01*
X12908225Y-15026605D02*
X12898701Y-15036128D01*
X12898701Y-15036128D02*
X12879653Y-15045652D01*
X12879653Y-15045652D02*
X12860606Y-15045652D01*
X12860606Y-15045652D02*
X12841558Y-15036128D01*
X12841558Y-15036128D02*
X12832034Y-15026605D01*
X12832034Y-15026605D02*
X12822510Y-15007557D01*
X12822510Y-15007557D02*
X12812987Y-14969462D01*
X12812987Y-14969462D02*
X12812987Y-14921843D01*
X12812987Y-14921843D02*
X12822510Y-14883747D01*
X12822510Y-14883747D02*
X12832034Y-14864700D01*
X12832034Y-14864700D02*
X12841558Y-14855176D01*
X12841558Y-14855176D02*
X12860606Y-14845652D01*
X13012987Y-15026605D02*
X13022510Y-15036128D01*
X13022510Y-15036128D02*
X13012987Y-15045652D01*
X13012987Y-15045652D02*
X13003463Y-15036128D01*
X13003463Y-15036128D02*
X13012987Y-15026605D01*
X13012987Y-15026605D02*
X13012987Y-15045652D01*
X13146320Y-14845652D02*
X13165368Y-14845652D01*
X13165368Y-14845652D02*
X13184415Y-14855176D01*
X13184415Y-14855176D02*
X13193939Y-14864700D01*
X13193939Y-14864700D02*
X13203463Y-14883747D01*
X13203463Y-14883747D02*
X13212987Y-14921843D01*
X13212987Y-14921843D02*
X13212987Y-14969462D01*
X13212987Y-14969462D02*
X13203463Y-15007557D01*
X13203463Y-15007557D02*
X13193939Y-15026605D01*
X13193939Y-15026605D02*
X13184415Y-15036128D01*
X13184415Y-15036128D02*
X13165368Y-15045652D01*
X13165368Y-15045652D02*
X13146320Y-15045652D01*
X13146320Y-15045652D02*
X13127272Y-15036128D01*
X13127272Y-15036128D02*
X13117748Y-15026605D01*
X13117748Y-15026605D02*
X13108225Y-15007557D01*
X13108225Y-15007557D02*
X13098701Y-14969462D01*
X13098701Y-14969462D02*
X13098701Y-14921843D01*
X13098701Y-14921843D02*
X13108225Y-14883747D01*
X13108225Y-14883747D02*
X13117748Y-14864700D01*
X13117748Y-14864700D02*
X13127272Y-14855176D01*
X13127272Y-14855176D02*
X13146320Y-14845652D01*
X13279653Y-14845652D02*
X13403463Y-14845652D01*
X13403463Y-14845652D02*
X13336796Y-14921843D01*
X13336796Y-14921843D02*
X13365368Y-14921843D01*
X13365368Y-14921843D02*
X13384415Y-14931366D01*
X13384415Y-14931366D02*
X13393939Y-14940890D01*
X13393939Y-14940890D02*
X13403463Y-14959938D01*
X13403463Y-14959938D02*
X13403463Y-15007557D01*
X13403463Y-15007557D02*
X13393939Y-15026605D01*
X13393939Y-15026605D02*
X13384415Y-15036128D01*
X13384415Y-15036128D02*
X13365368Y-15045652D01*
X13365368Y-15045652D02*
X13308225Y-15045652D01*
X13308225Y-15045652D02*
X13289177Y-15036128D01*
X13289177Y-15036128D02*
X13279653Y-15026605D01*
X13498701Y-15045652D02*
X13536796Y-15045652D01*
X13536796Y-15045652D02*
X13555844Y-15036128D01*
X13555844Y-15036128D02*
X13565368Y-15026605D01*
X13565368Y-15026605D02*
X13584415Y-14998033D01*
X13584415Y-14998033D02*
X13593939Y-14959938D01*
X13593939Y-14959938D02*
X13593939Y-14883747D01*
X13593939Y-14883747D02*
X13584415Y-14864700D01*
X13584415Y-14864700D02*
X13574891Y-14855176D01*
X13574891Y-14855176D02*
X13555844Y-14845652D01*
X13555844Y-14845652D02*
X13517748Y-14845652D01*
X13517748Y-14845652D02*
X13498701Y-14855176D01*
X13498701Y-14855176D02*
X13489177Y-14864700D01*
X13489177Y-14864700D02*
X13479653Y-14883747D01*
X13479653Y-14883747D02*
X13479653Y-14931366D01*
X13479653Y-14931366D02*
X13489177Y-14950414D01*
X13489177Y-14950414D02*
X13498701Y-14959938D01*
X13498701Y-14959938D02*
X13517748Y-14969462D01*
X13517748Y-14969462D02*
X13555844Y-14969462D01*
X13555844Y-14969462D02*
X13574891Y-14959938D01*
X13574891Y-14959938D02*
X13584415Y-14950414D01*
X13584415Y-14950414D02*
X13593939Y-14931366D01*
X13765368Y-14912319D02*
X13765368Y-15045652D01*
X13717748Y-14836128D02*
X13670129Y-14978986D01*
X13670129Y-14978986D02*
X13793939Y-14978986D01*
X13860606Y-14845652D02*
X13860606Y-14883747D01*
X13936796Y-14845652D02*
X13936796Y-14883747D01*
X14232034Y-15121843D02*
X14222510Y-15112319D01*
X14222510Y-15112319D02*
X14203463Y-15083747D01*
X14203463Y-15083747D02*
X14193939Y-15064700D01*
X14193939Y-15064700D02*
X14184415Y-15036128D01*
X14184415Y-15036128D02*
X14174891Y-14988509D01*
X14174891Y-14988509D02*
X14174891Y-14950414D01*
X14174891Y-14950414D02*
X14184415Y-14902795D01*
X14184415Y-14902795D02*
X14193939Y-14874224D01*
X14193939Y-14874224D02*
X14203463Y-14855176D01*
X14203463Y-14855176D02*
X14222510Y-14826605D01*
X14222510Y-14826605D02*
X14232034Y-14817081D01*
X14289177Y-14845652D02*
X14422510Y-14845652D01*
X14422510Y-14845652D02*
X14336796Y-15045652D01*
X14584415Y-14845652D02*
X14546320Y-14845652D01*
X14546320Y-14845652D02*
X14527272Y-14855176D01*
X14527272Y-14855176D02*
X14517749Y-14864700D01*
X14517749Y-14864700D02*
X14498701Y-14893271D01*
X14498701Y-14893271D02*
X14489177Y-14931366D01*
X14489177Y-14931366D02*
X14489177Y-15007557D01*
X14489177Y-15007557D02*
X14498701Y-15026605D01*
X14498701Y-15026605D02*
X14508225Y-15036128D01*
X14508225Y-15036128D02*
X14527272Y-15045652D01*
X14527272Y-15045652D02*
X14565368Y-15045652D01*
X14565368Y-15045652D02*
X14584415Y-15036128D01*
X14584415Y-15036128D02*
X14593939Y-15026605D01*
X14593939Y-15026605D02*
X14603463Y-15007557D01*
X14603463Y-15007557D02*
X14603463Y-14959938D01*
X14603463Y-14959938D02*
X14593939Y-14940890D01*
X14593939Y-14940890D02*
X14584415Y-14931366D01*
X14584415Y-14931366D02*
X14565368Y-14921843D01*
X14565368Y-14921843D02*
X14527272Y-14921843D01*
X14527272Y-14921843D02*
X14508225Y-14931366D01*
X14508225Y-14931366D02*
X14498701Y-14940890D01*
X14498701Y-14940890D02*
X14489177Y-14959938D01*
X14841558Y-15045652D02*
X14841558Y-14845652D01*
X14927272Y-15045652D02*
X14927272Y-14940890D01*
X14927272Y-14940890D02*
X14917749Y-14921843D01*
X14917749Y-14921843D02*
X14898701Y-14912319D01*
X14898701Y-14912319D02*
X14870130Y-14912319D01*
X14870130Y-14912319D02*
X14851082Y-14921843D01*
X14851082Y-14921843D02*
X14841558Y-14931366D01*
X15051082Y-15045652D02*
X15032034Y-15036128D01*
X15032034Y-15036128D02*
X15022511Y-15026605D01*
X15022511Y-15026605D02*
X15012987Y-15007557D01*
X15012987Y-15007557D02*
X15012987Y-14950414D01*
X15012987Y-14950414D02*
X15022511Y-14931366D01*
X15022511Y-14931366D02*
X15032034Y-14921843D01*
X15032034Y-14921843D02*
X15051082Y-14912319D01*
X15051082Y-14912319D02*
X15079653Y-14912319D01*
X15079653Y-14912319D02*
X15098701Y-14921843D01*
X15098701Y-14921843D02*
X15108225Y-14931366D01*
X15108225Y-14931366D02*
X15117749Y-14950414D01*
X15117749Y-14950414D02*
X15117749Y-15007557D01*
X15117749Y-15007557D02*
X15108225Y-15026605D01*
X15108225Y-15026605D02*
X15098701Y-15036128D01*
X15098701Y-15036128D02*
X15079653Y-15045652D01*
X15079653Y-15045652D02*
X15051082Y-15045652D01*
X15232034Y-15045652D02*
X15212987Y-15036128D01*
X15212987Y-15036128D02*
X15203463Y-15017081D01*
X15203463Y-15017081D02*
X15203463Y-14845652D01*
X15384415Y-15036128D02*
X15365368Y-15045652D01*
X15365368Y-15045652D02*
X15327272Y-15045652D01*
X15327272Y-15045652D02*
X15308225Y-15036128D01*
X15308225Y-15036128D02*
X15298701Y-15017081D01*
X15298701Y-15017081D02*
X15298701Y-14940890D01*
X15298701Y-14940890D02*
X15308225Y-14921843D01*
X15308225Y-14921843D02*
X15327272Y-14912319D01*
X15327272Y-14912319D02*
X15365368Y-14912319D01*
X15365368Y-14912319D02*
X15384415Y-14921843D01*
X15384415Y-14921843D02*
X15393939Y-14940890D01*
X15393939Y-14940890D02*
X15393939Y-14959938D01*
X15393939Y-14959938D02*
X15298701Y-14978986D01*
X15470130Y-15036128D02*
X15489177Y-15045652D01*
X15489177Y-15045652D02*
X15527272Y-15045652D01*
X15527272Y-15045652D02*
X15546320Y-15036128D01*
X15546320Y-15036128D02*
X15555844Y-15017081D01*
X15555844Y-15017081D02*
X15555844Y-15007557D01*
X15555844Y-15007557D02*
X15546320Y-14988509D01*
X15546320Y-14988509D02*
X15527272Y-14978986D01*
X15527272Y-14978986D02*
X15498701Y-14978986D01*
X15498701Y-14978986D02*
X15479653Y-14969462D01*
X15479653Y-14969462D02*
X15470130Y-14950414D01*
X15470130Y-14950414D02*
X15470130Y-14940890D01*
X15470130Y-14940890D02*
X15479653Y-14921843D01*
X15479653Y-14921843D02*
X15498701Y-14912319D01*
X15498701Y-14912319D02*
X15527272Y-14912319D01*
X15527272Y-14912319D02*
X15546320Y-14921843D01*
X15793939Y-14969462D02*
X15946320Y-14969462D01*
X15870130Y-15045652D02*
X15870130Y-14893271D01*
X16174892Y-14845652D02*
X16298701Y-14845652D01*
X16298701Y-14845652D02*
X16232034Y-14921843D01*
X16232034Y-14921843D02*
X16260606Y-14921843D01*
X16260606Y-14921843D02*
X16279654Y-14931366D01*
X16279654Y-14931366D02*
X16289177Y-14940890D01*
X16289177Y-14940890D02*
X16298701Y-14959938D01*
X16298701Y-14959938D02*
X16298701Y-15007557D01*
X16298701Y-15007557D02*
X16289177Y-15026605D01*
X16289177Y-15026605D02*
X16279654Y-15036128D01*
X16279654Y-15036128D02*
X16260606Y-15045652D01*
X16260606Y-15045652D02*
X16203463Y-15045652D01*
X16203463Y-15045652D02*
X16184415Y-15036128D01*
X16184415Y-15036128D02*
X16174892Y-15026605D01*
X16527273Y-15036128D02*
X16546320Y-15045652D01*
X16546320Y-15045652D02*
X16584415Y-15045652D01*
X16584415Y-15045652D02*
X16603463Y-15036128D01*
X16603463Y-15036128D02*
X16612987Y-15017081D01*
X16612987Y-15017081D02*
X16612987Y-15007557D01*
X16612987Y-15007557D02*
X16603463Y-14988509D01*
X16603463Y-14988509D02*
X16584415Y-14978986D01*
X16584415Y-14978986D02*
X16555844Y-14978986D01*
X16555844Y-14978986D02*
X16536796Y-14969462D01*
X16536796Y-14969462D02*
X16527273Y-14950414D01*
X16527273Y-14950414D02*
X16527273Y-14940890D01*
X16527273Y-14940890D02*
X16536796Y-14921843D01*
X16536796Y-14921843D02*
X16555844Y-14912319D01*
X16555844Y-14912319D02*
X16584415Y-14912319D01*
X16584415Y-14912319D02*
X16603463Y-14921843D01*
X16727273Y-15045652D02*
X16708225Y-15036128D01*
X16708225Y-15036128D02*
X16698701Y-15017081D01*
X16698701Y-15017081D02*
X16698701Y-14845652D01*
X16832035Y-15045652D02*
X16812987Y-15036128D01*
X16812987Y-15036128D02*
X16803463Y-15026605D01*
X16803463Y-15026605D02*
X16793939Y-15007557D01*
X16793939Y-15007557D02*
X16793939Y-14950414D01*
X16793939Y-14950414D02*
X16803463Y-14931366D01*
X16803463Y-14931366D02*
X16812987Y-14921843D01*
X16812987Y-14921843D02*
X16832035Y-14912319D01*
X16832035Y-14912319D02*
X16860606Y-14912319D01*
X16860606Y-14912319D02*
X16879654Y-14921843D01*
X16879654Y-14921843D02*
X16889178Y-14931366D01*
X16889178Y-14931366D02*
X16898701Y-14950414D01*
X16898701Y-14950414D02*
X16898701Y-15007557D01*
X16898701Y-15007557D02*
X16889178Y-15026605D01*
X16889178Y-15026605D02*
X16879654Y-15036128D01*
X16879654Y-15036128D02*
X16860606Y-15045652D01*
X16860606Y-15045652D02*
X16832035Y-15045652D01*
X16955844Y-14912319D02*
X17032035Y-14912319D01*
X16984416Y-14845652D02*
X16984416Y-15017081D01*
X16984416Y-15017081D02*
X16993939Y-15036128D01*
X16993939Y-15036128D02*
X17012987Y-15045652D01*
X17012987Y-15045652D02*
X17032035Y-15045652D01*
X17089178Y-15036128D02*
X17108225Y-15045652D01*
X17108225Y-15045652D02*
X17146320Y-15045652D01*
X17146320Y-15045652D02*
X17165368Y-15036128D01*
X17165368Y-15036128D02*
X17174892Y-15017081D01*
X17174892Y-15017081D02*
X17174892Y-15007557D01*
X17174892Y-15007557D02*
X17165368Y-14988509D01*
X17165368Y-14988509D02*
X17146320Y-14978986D01*
X17146320Y-14978986D02*
X17117749Y-14978986D01*
X17117749Y-14978986D02*
X17098701Y-14969462D01*
X17098701Y-14969462D02*
X17089178Y-14950414D01*
X17089178Y-14950414D02*
X17089178Y-14940890D01*
X17089178Y-14940890D02*
X17098701Y-14921843D01*
X17098701Y-14921843D02*
X17117749Y-14912319D01*
X17117749Y-14912319D02*
X17146320Y-14912319D01*
X17146320Y-14912319D02*
X17165368Y-14921843D01*
X17241559Y-15121843D02*
X17251082Y-15112319D01*
X17251082Y-15112319D02*
X17270130Y-15083747D01*
X17270130Y-15083747D02*
X17279654Y-15064700D01*
X17279654Y-15064700D02*
X17289178Y-15036128D01*
X17289178Y-15036128D02*
X17298701Y-14988509D01*
X17298701Y-14988509D02*
X17298701Y-14950414D01*
X17298701Y-14950414D02*
X17289178Y-14902795D01*
X17289178Y-14902795D02*
X17279654Y-14874224D01*
X17279654Y-14874224D02*
X17270130Y-14855176D01*
X17270130Y-14855176D02*
X17251082Y-14826605D01*
X17251082Y-14826605D02*
X17241559Y-14817081D01*
D13*
X10638666Y-15262363D02*
X10638666Y-15173974D01*
X10550277Y-15173974D01*
X10550277Y-15262363D01*
X10638666Y-15262363D01*
D11*
X11022510Y-15309652D02*
X10908225Y-15309652D01*
X10965367Y-15309652D02*
X10965367Y-15109652D01*
X10965367Y-15109652D02*
X10946320Y-15138224D01*
X10946320Y-15138224D02*
X10927272Y-15157271D01*
X10927272Y-15157271D02*
X10908225Y-15166795D01*
X11108225Y-15290605D02*
X11117748Y-15300128D01*
X11117748Y-15300128D02*
X11108225Y-15309652D01*
X11108225Y-15309652D02*
X11098701Y-15300128D01*
X11098701Y-15300128D02*
X11108225Y-15290605D01*
X11108225Y-15290605D02*
X11108225Y-15309652D01*
X11193939Y-15128700D02*
X11203463Y-15119176D01*
X11203463Y-15119176D02*
X11222510Y-15109652D01*
X11222510Y-15109652D02*
X11270129Y-15109652D01*
X11270129Y-15109652D02*
X11289177Y-15119176D01*
X11289177Y-15119176D02*
X11298701Y-15128700D01*
X11298701Y-15128700D02*
X11308224Y-15147747D01*
X11308224Y-15147747D02*
X11308224Y-15166795D01*
X11308224Y-15166795D02*
X11298701Y-15195366D01*
X11298701Y-15195366D02*
X11184415Y-15309652D01*
X11184415Y-15309652D02*
X11308224Y-15309652D01*
X11489177Y-15109652D02*
X11393939Y-15109652D01*
X11393939Y-15109652D02*
X11384415Y-15204890D01*
X11384415Y-15204890D02*
X11393939Y-15195366D01*
X11393939Y-15195366D02*
X11412986Y-15185843D01*
X11412986Y-15185843D02*
X11460605Y-15185843D01*
X11460605Y-15185843D02*
X11479653Y-15195366D01*
X11479653Y-15195366D02*
X11489177Y-15204890D01*
X11489177Y-15204890D02*
X11498701Y-15223938D01*
X11498701Y-15223938D02*
X11498701Y-15271557D01*
X11498701Y-15271557D02*
X11489177Y-15290605D01*
X11489177Y-15290605D02*
X11479653Y-15300128D01*
X11479653Y-15300128D02*
X11460605Y-15309652D01*
X11460605Y-15309652D02*
X11412986Y-15309652D01*
X11412986Y-15309652D02*
X11393939Y-15300128D01*
X11393939Y-15300128D02*
X11384415Y-15290605D01*
X11622510Y-15109652D02*
X11641558Y-15109652D01*
X11641558Y-15109652D02*
X11660605Y-15119176D01*
X11660605Y-15119176D02*
X11670129Y-15128700D01*
X11670129Y-15128700D02*
X11679653Y-15147747D01*
X11679653Y-15147747D02*
X11689177Y-15185843D01*
X11689177Y-15185843D02*
X11689177Y-15233462D01*
X11689177Y-15233462D02*
X11679653Y-15271557D01*
X11679653Y-15271557D02*
X11670129Y-15290605D01*
X11670129Y-15290605D02*
X11660605Y-15300128D01*
X11660605Y-15300128D02*
X11641558Y-15309652D01*
X11641558Y-15309652D02*
X11622510Y-15309652D01*
X11622510Y-15309652D02*
X11603463Y-15300128D01*
X11603463Y-15300128D02*
X11593939Y-15290605D01*
X11593939Y-15290605D02*
X11584415Y-15271557D01*
X11584415Y-15271557D02*
X11574891Y-15233462D01*
X11574891Y-15233462D02*
X11574891Y-15185843D01*
X11574891Y-15185843D02*
X11584415Y-15147747D01*
X11584415Y-15147747D02*
X11593939Y-15128700D01*
X11593939Y-15128700D02*
X11603463Y-15119176D01*
X11603463Y-15119176D02*
X11622510Y-15109652D01*
X11774891Y-15309652D02*
X11774891Y-15176319D01*
X11774891Y-15195366D02*
X11784415Y-15185843D01*
X11784415Y-15185843D02*
X11803463Y-15176319D01*
X11803463Y-15176319D02*
X11832034Y-15176319D01*
X11832034Y-15176319D02*
X11851082Y-15185843D01*
X11851082Y-15185843D02*
X11860605Y-15204890D01*
X11860605Y-15204890D02*
X11860605Y-15309652D01*
X11860605Y-15204890D02*
X11870129Y-15185843D01*
X11870129Y-15185843D02*
X11889177Y-15176319D01*
X11889177Y-15176319D02*
X11917748Y-15176319D01*
X11917748Y-15176319D02*
X11936796Y-15185843D01*
X11936796Y-15185843D02*
X11946320Y-15204890D01*
X11946320Y-15204890D02*
X11946320Y-15309652D01*
X12041558Y-15309652D02*
X12041558Y-15176319D01*
X12041558Y-15195366D02*
X12051082Y-15185843D01*
X12051082Y-15185843D02*
X12070129Y-15176319D01*
X12070129Y-15176319D02*
X12098701Y-15176319D01*
X12098701Y-15176319D02*
X12117748Y-15185843D01*
X12117748Y-15185843D02*
X12127272Y-15204890D01*
X12127272Y-15204890D02*
X12127272Y-15309652D01*
X12127272Y-15204890D02*
X12136796Y-15185843D01*
X12136796Y-15185843D02*
X12155844Y-15176319D01*
X12155844Y-15176319D02*
X12184415Y-15176319D01*
X12184415Y-15176319D02*
X12203463Y-15185843D01*
X12203463Y-15185843D02*
X12212986Y-15204890D01*
X12212986Y-15204890D02*
X12212986Y-15309652D01*
X12603463Y-15100128D02*
X12432034Y-15357271D01*
X12860606Y-15109652D02*
X12879653Y-15109652D01*
X12879653Y-15109652D02*
X12898701Y-15119176D01*
X12898701Y-15119176D02*
X12908225Y-15128700D01*
X12908225Y-15128700D02*
X12917748Y-15147747D01*
X12917748Y-15147747D02*
X12927272Y-15185843D01*
X12927272Y-15185843D02*
X12927272Y-15233462D01*
X12927272Y-15233462D02*
X12917748Y-15271557D01*
X12917748Y-15271557D02*
X12908225Y-15290605D01*
X12908225Y-15290605D02*
X12898701Y-15300128D01*
X12898701Y-15300128D02*
X12879653Y-15309652D01*
X12879653Y-15309652D02*
X12860606Y-15309652D01*
X12860606Y-15309652D02*
X12841558Y-15300128D01*
X12841558Y-15300128D02*
X12832034Y-15290605D01*
X12832034Y-15290605D02*
X12822510Y-15271557D01*
X12822510Y-15271557D02*
X12812987Y-15233462D01*
X12812987Y-15233462D02*
X12812987Y-15185843D01*
X12812987Y-15185843D02*
X12822510Y-15147747D01*
X12822510Y-15147747D02*
X12832034Y-15128700D01*
X12832034Y-15128700D02*
X12841558Y-15119176D01*
X12841558Y-15119176D02*
X12860606Y-15109652D01*
X13012987Y-15290605D02*
X13022510Y-15300128D01*
X13022510Y-15300128D02*
X13012987Y-15309652D01*
X13012987Y-15309652D02*
X13003463Y-15300128D01*
X13003463Y-15300128D02*
X13012987Y-15290605D01*
X13012987Y-15290605D02*
X13012987Y-15309652D01*
X13146320Y-15109652D02*
X13165368Y-15109652D01*
X13165368Y-15109652D02*
X13184415Y-15119176D01*
X13184415Y-15119176D02*
X13193939Y-15128700D01*
X13193939Y-15128700D02*
X13203463Y-15147747D01*
X13203463Y-15147747D02*
X13212987Y-15185843D01*
X13212987Y-15185843D02*
X13212987Y-15233462D01*
X13212987Y-15233462D02*
X13203463Y-15271557D01*
X13203463Y-15271557D02*
X13193939Y-15290605D01*
X13193939Y-15290605D02*
X13184415Y-15300128D01*
X13184415Y-15300128D02*
X13165368Y-15309652D01*
X13165368Y-15309652D02*
X13146320Y-15309652D01*
X13146320Y-15309652D02*
X13127272Y-15300128D01*
X13127272Y-15300128D02*
X13117748Y-15290605D01*
X13117748Y-15290605D02*
X13108225Y-15271557D01*
X13108225Y-15271557D02*
X13098701Y-15233462D01*
X13098701Y-15233462D02*
X13098701Y-15185843D01*
X13098701Y-15185843D02*
X13108225Y-15147747D01*
X13108225Y-15147747D02*
X13117748Y-15128700D01*
X13117748Y-15128700D02*
X13127272Y-15119176D01*
X13127272Y-15119176D02*
X13146320Y-15109652D01*
X13384415Y-15176319D02*
X13384415Y-15309652D01*
X13336796Y-15100128D02*
X13289177Y-15242986D01*
X13289177Y-15242986D02*
X13412987Y-15242986D01*
X13498701Y-15309652D02*
X13536796Y-15309652D01*
X13536796Y-15309652D02*
X13555844Y-15300128D01*
X13555844Y-15300128D02*
X13565368Y-15290605D01*
X13565368Y-15290605D02*
X13584415Y-15262033D01*
X13584415Y-15262033D02*
X13593939Y-15223938D01*
X13593939Y-15223938D02*
X13593939Y-15147747D01*
X13593939Y-15147747D02*
X13584415Y-15128700D01*
X13584415Y-15128700D02*
X13574891Y-15119176D01*
X13574891Y-15119176D02*
X13555844Y-15109652D01*
X13555844Y-15109652D02*
X13517748Y-15109652D01*
X13517748Y-15109652D02*
X13498701Y-15119176D01*
X13498701Y-15119176D02*
X13489177Y-15128700D01*
X13489177Y-15128700D02*
X13479653Y-15147747D01*
X13479653Y-15147747D02*
X13479653Y-15195366D01*
X13479653Y-15195366D02*
X13489177Y-15214414D01*
X13489177Y-15214414D02*
X13498701Y-15223938D01*
X13498701Y-15223938D02*
X13517748Y-15233462D01*
X13517748Y-15233462D02*
X13555844Y-15233462D01*
X13555844Y-15233462D02*
X13574891Y-15223938D01*
X13574891Y-15223938D02*
X13584415Y-15214414D01*
X13584415Y-15214414D02*
X13593939Y-15195366D01*
X13670129Y-15128700D02*
X13679653Y-15119176D01*
X13679653Y-15119176D02*
X13698701Y-15109652D01*
X13698701Y-15109652D02*
X13746320Y-15109652D01*
X13746320Y-15109652D02*
X13765368Y-15119176D01*
X13765368Y-15119176D02*
X13774891Y-15128700D01*
X13774891Y-15128700D02*
X13784415Y-15147747D01*
X13784415Y-15147747D02*
X13784415Y-15166795D01*
X13784415Y-15166795D02*
X13774891Y-15195366D01*
X13774891Y-15195366D02*
X13660606Y-15309652D01*
X13660606Y-15309652D02*
X13784415Y-15309652D01*
X13860606Y-15109652D02*
X13860606Y-15147747D01*
X13936796Y-15109652D02*
X13936796Y-15147747D01*
X14232034Y-15385843D02*
X14222510Y-15376319D01*
X14222510Y-15376319D02*
X14203463Y-15347747D01*
X14203463Y-15347747D02*
X14193939Y-15328700D01*
X14193939Y-15328700D02*
X14184415Y-15300128D01*
X14184415Y-15300128D02*
X14174891Y-15252509D01*
X14174891Y-15252509D02*
X14174891Y-15214414D01*
X14174891Y-15214414D02*
X14184415Y-15166795D01*
X14184415Y-15166795D02*
X14193939Y-15138224D01*
X14193939Y-15138224D02*
X14203463Y-15119176D01*
X14203463Y-15119176D02*
X14222510Y-15090605D01*
X14222510Y-15090605D02*
X14232034Y-15081081D01*
X14289177Y-15109652D02*
X14412987Y-15109652D01*
X14412987Y-15109652D02*
X14346320Y-15185843D01*
X14346320Y-15185843D02*
X14374891Y-15185843D01*
X14374891Y-15185843D02*
X14393939Y-15195366D01*
X14393939Y-15195366D02*
X14403463Y-15204890D01*
X14403463Y-15204890D02*
X14412987Y-15223938D01*
X14412987Y-15223938D02*
X14412987Y-15271557D01*
X14412987Y-15271557D02*
X14403463Y-15290605D01*
X14403463Y-15290605D02*
X14393939Y-15300128D01*
X14393939Y-15300128D02*
X14374891Y-15309652D01*
X14374891Y-15309652D02*
X14317749Y-15309652D01*
X14317749Y-15309652D02*
X14298701Y-15300128D01*
X14298701Y-15300128D02*
X14289177Y-15290605D01*
X14651082Y-15309652D02*
X14651082Y-15109652D01*
X14736796Y-15309652D02*
X14736796Y-15204890D01*
X14736796Y-15204890D02*
X14727272Y-15185843D01*
X14727272Y-15185843D02*
X14708225Y-15176319D01*
X14708225Y-15176319D02*
X14679653Y-15176319D01*
X14679653Y-15176319D02*
X14660606Y-15185843D01*
X14660606Y-15185843D02*
X14651082Y-15195366D01*
X14860606Y-15309652D02*
X14841558Y-15300128D01*
X14841558Y-15300128D02*
X14832034Y-15290605D01*
X14832034Y-15290605D02*
X14822511Y-15271557D01*
X14822511Y-15271557D02*
X14822511Y-15214414D01*
X14822511Y-15214414D02*
X14832034Y-15195366D01*
X14832034Y-15195366D02*
X14841558Y-15185843D01*
X14841558Y-15185843D02*
X14860606Y-15176319D01*
X14860606Y-15176319D02*
X14889177Y-15176319D01*
X14889177Y-15176319D02*
X14908225Y-15185843D01*
X14908225Y-15185843D02*
X14917749Y-15195366D01*
X14917749Y-15195366D02*
X14927272Y-15214414D01*
X14927272Y-15214414D02*
X14927272Y-15271557D01*
X14927272Y-15271557D02*
X14917749Y-15290605D01*
X14917749Y-15290605D02*
X14908225Y-15300128D01*
X14908225Y-15300128D02*
X14889177Y-15309652D01*
X14889177Y-15309652D02*
X14860606Y-15309652D01*
X15041558Y-15309652D02*
X15022511Y-15300128D01*
X15022511Y-15300128D02*
X15012987Y-15281081D01*
X15012987Y-15281081D02*
X15012987Y-15109652D01*
X15193939Y-15300128D02*
X15174892Y-15309652D01*
X15174892Y-15309652D02*
X15136796Y-15309652D01*
X15136796Y-15309652D02*
X15117749Y-15300128D01*
X15117749Y-15300128D02*
X15108225Y-15281081D01*
X15108225Y-15281081D02*
X15108225Y-15204890D01*
X15108225Y-15204890D02*
X15117749Y-15185843D01*
X15117749Y-15185843D02*
X15136796Y-15176319D01*
X15136796Y-15176319D02*
X15174892Y-15176319D01*
X15174892Y-15176319D02*
X15193939Y-15185843D01*
X15193939Y-15185843D02*
X15203463Y-15204890D01*
X15203463Y-15204890D02*
X15203463Y-15223938D01*
X15203463Y-15223938D02*
X15108225Y-15242986D01*
X15279653Y-15300128D02*
X15298701Y-15309652D01*
X15298701Y-15309652D02*
X15336796Y-15309652D01*
X15336796Y-15309652D02*
X15355844Y-15300128D01*
X15355844Y-15300128D02*
X15365368Y-15281081D01*
X15365368Y-15281081D02*
X15365368Y-15271557D01*
X15365368Y-15271557D02*
X15355844Y-15252509D01*
X15355844Y-15252509D02*
X15336796Y-15242986D01*
X15336796Y-15242986D02*
X15308225Y-15242986D01*
X15308225Y-15242986D02*
X15289177Y-15233462D01*
X15289177Y-15233462D02*
X15279653Y-15214414D01*
X15279653Y-15214414D02*
X15279653Y-15204890D01*
X15279653Y-15204890D02*
X15289177Y-15185843D01*
X15289177Y-15185843D02*
X15308225Y-15176319D01*
X15308225Y-15176319D02*
X15336796Y-15176319D01*
X15336796Y-15176319D02*
X15355844Y-15185843D01*
X15432034Y-15385843D02*
X15441558Y-15376319D01*
X15441558Y-15376319D02*
X15460606Y-15347747D01*
X15460606Y-15347747D02*
X15470130Y-15328700D01*
X15470130Y-15328700D02*
X15479653Y-15300128D01*
X15479653Y-15300128D02*
X15489177Y-15252509D01*
X15489177Y-15252509D02*
X15489177Y-15214414D01*
X15489177Y-15214414D02*
X15479653Y-15166795D01*
X15479653Y-15166795D02*
X15470130Y-15138224D01*
X15470130Y-15138224D02*
X15460606Y-15119176D01*
X15460606Y-15119176D02*
X15441558Y-15090605D01*
X15441558Y-15090605D02*
X15432034Y-15081081D01*
D14*
X10576972Y-15562168D02*
X10656972Y-15482168D01*
X10576972Y-15402168D01*
X10496972Y-15482168D01*
X10576972Y-15562168D01*
D11*
X11022510Y-15573652D02*
X10908225Y-15573652D01*
X10965367Y-15573652D02*
X10965367Y-15373652D01*
X10965367Y-15373652D02*
X10946320Y-15402224D01*
X10946320Y-15402224D02*
X10927272Y-15421271D01*
X10927272Y-15421271D02*
X10908225Y-15430795D01*
X11108225Y-15554605D02*
X11117748Y-15564128D01*
X11117748Y-15564128D02*
X11108225Y-15573652D01*
X11108225Y-15573652D02*
X11098701Y-15564128D01*
X11098701Y-15564128D02*
X11108225Y-15554605D01*
X11108225Y-15554605D02*
X11108225Y-15573652D01*
X11289177Y-15373652D02*
X11251082Y-15373652D01*
X11251082Y-15373652D02*
X11232034Y-15383176D01*
X11232034Y-15383176D02*
X11222510Y-15392700D01*
X11222510Y-15392700D02*
X11203463Y-15421271D01*
X11203463Y-15421271D02*
X11193939Y-15459366D01*
X11193939Y-15459366D02*
X11193939Y-15535557D01*
X11193939Y-15535557D02*
X11203463Y-15554605D01*
X11203463Y-15554605D02*
X11212986Y-15564128D01*
X11212986Y-15564128D02*
X11232034Y-15573652D01*
X11232034Y-15573652D02*
X11270129Y-15573652D01*
X11270129Y-15573652D02*
X11289177Y-15564128D01*
X11289177Y-15564128D02*
X11298701Y-15554605D01*
X11298701Y-15554605D02*
X11308224Y-15535557D01*
X11308224Y-15535557D02*
X11308224Y-15487938D01*
X11308224Y-15487938D02*
X11298701Y-15468890D01*
X11298701Y-15468890D02*
X11289177Y-15459366D01*
X11289177Y-15459366D02*
X11270129Y-15449843D01*
X11270129Y-15449843D02*
X11232034Y-15449843D01*
X11232034Y-15449843D02*
X11212986Y-15459366D01*
X11212986Y-15459366D02*
X11203463Y-15468890D01*
X11203463Y-15468890D02*
X11193939Y-15487938D01*
X11432034Y-15373652D02*
X11451082Y-15373652D01*
X11451082Y-15373652D02*
X11470129Y-15383176D01*
X11470129Y-15383176D02*
X11479653Y-15392700D01*
X11479653Y-15392700D02*
X11489177Y-15411747D01*
X11489177Y-15411747D02*
X11498701Y-15449843D01*
X11498701Y-15449843D02*
X11498701Y-15497462D01*
X11498701Y-15497462D02*
X11489177Y-15535557D01*
X11489177Y-15535557D02*
X11479653Y-15554605D01*
X11479653Y-15554605D02*
X11470129Y-15564128D01*
X11470129Y-15564128D02*
X11451082Y-15573652D01*
X11451082Y-15573652D02*
X11432034Y-15573652D01*
X11432034Y-15573652D02*
X11412986Y-15564128D01*
X11412986Y-15564128D02*
X11403463Y-15554605D01*
X11403463Y-15554605D02*
X11393939Y-15535557D01*
X11393939Y-15535557D02*
X11384415Y-15497462D01*
X11384415Y-15497462D02*
X11384415Y-15449843D01*
X11384415Y-15449843D02*
X11393939Y-15411747D01*
X11393939Y-15411747D02*
X11403463Y-15392700D01*
X11403463Y-15392700D02*
X11412986Y-15383176D01*
X11412986Y-15383176D02*
X11432034Y-15373652D01*
X11622510Y-15373652D02*
X11641558Y-15373652D01*
X11641558Y-15373652D02*
X11660605Y-15383176D01*
X11660605Y-15383176D02*
X11670129Y-15392700D01*
X11670129Y-15392700D02*
X11679653Y-15411747D01*
X11679653Y-15411747D02*
X11689177Y-15449843D01*
X11689177Y-15449843D02*
X11689177Y-15497462D01*
X11689177Y-15497462D02*
X11679653Y-15535557D01*
X11679653Y-15535557D02*
X11670129Y-15554605D01*
X11670129Y-15554605D02*
X11660605Y-15564128D01*
X11660605Y-15564128D02*
X11641558Y-15573652D01*
X11641558Y-15573652D02*
X11622510Y-15573652D01*
X11622510Y-15573652D02*
X11603463Y-15564128D01*
X11603463Y-15564128D02*
X11593939Y-15554605D01*
X11593939Y-15554605D02*
X11584415Y-15535557D01*
X11584415Y-15535557D02*
X11574891Y-15497462D01*
X11574891Y-15497462D02*
X11574891Y-15449843D01*
X11574891Y-15449843D02*
X11584415Y-15411747D01*
X11584415Y-15411747D02*
X11593939Y-15392700D01*
X11593939Y-15392700D02*
X11603463Y-15383176D01*
X11603463Y-15383176D02*
X11622510Y-15373652D01*
X11774891Y-15573652D02*
X11774891Y-15440319D01*
X11774891Y-15459366D02*
X11784415Y-15449843D01*
X11784415Y-15449843D02*
X11803463Y-15440319D01*
X11803463Y-15440319D02*
X11832034Y-15440319D01*
X11832034Y-15440319D02*
X11851082Y-15449843D01*
X11851082Y-15449843D02*
X11860605Y-15468890D01*
X11860605Y-15468890D02*
X11860605Y-15573652D01*
X11860605Y-15468890D02*
X11870129Y-15449843D01*
X11870129Y-15449843D02*
X11889177Y-15440319D01*
X11889177Y-15440319D02*
X11917748Y-15440319D01*
X11917748Y-15440319D02*
X11936796Y-15449843D01*
X11936796Y-15449843D02*
X11946320Y-15468890D01*
X11946320Y-15468890D02*
X11946320Y-15573652D01*
X12041558Y-15573652D02*
X12041558Y-15440319D01*
X12041558Y-15459366D02*
X12051082Y-15449843D01*
X12051082Y-15449843D02*
X12070129Y-15440319D01*
X12070129Y-15440319D02*
X12098701Y-15440319D01*
X12098701Y-15440319D02*
X12117748Y-15449843D01*
X12117748Y-15449843D02*
X12127272Y-15468890D01*
X12127272Y-15468890D02*
X12127272Y-15573652D01*
X12127272Y-15468890D02*
X12136796Y-15449843D01*
X12136796Y-15449843D02*
X12155844Y-15440319D01*
X12155844Y-15440319D02*
X12184415Y-15440319D01*
X12184415Y-15440319D02*
X12203463Y-15449843D01*
X12203463Y-15449843D02*
X12212986Y-15468890D01*
X12212986Y-15468890D02*
X12212986Y-15573652D01*
X12603463Y-15364128D02*
X12432034Y-15621271D01*
X12860606Y-15373652D02*
X12879653Y-15373652D01*
X12879653Y-15373652D02*
X12898701Y-15383176D01*
X12898701Y-15383176D02*
X12908225Y-15392700D01*
X12908225Y-15392700D02*
X12917748Y-15411747D01*
X12917748Y-15411747D02*
X12927272Y-15449843D01*
X12927272Y-15449843D02*
X12927272Y-15497462D01*
X12927272Y-15497462D02*
X12917748Y-15535557D01*
X12917748Y-15535557D02*
X12908225Y-15554605D01*
X12908225Y-15554605D02*
X12898701Y-15564128D01*
X12898701Y-15564128D02*
X12879653Y-15573652D01*
X12879653Y-15573652D02*
X12860606Y-15573652D01*
X12860606Y-15573652D02*
X12841558Y-15564128D01*
X12841558Y-15564128D02*
X12832034Y-15554605D01*
X12832034Y-15554605D02*
X12822510Y-15535557D01*
X12822510Y-15535557D02*
X12812987Y-15497462D01*
X12812987Y-15497462D02*
X12812987Y-15449843D01*
X12812987Y-15449843D02*
X12822510Y-15411747D01*
X12822510Y-15411747D02*
X12832034Y-15392700D01*
X12832034Y-15392700D02*
X12841558Y-15383176D01*
X12841558Y-15383176D02*
X12860606Y-15373652D01*
X13012987Y-15554605D02*
X13022510Y-15564128D01*
X13022510Y-15564128D02*
X13012987Y-15573652D01*
X13012987Y-15573652D02*
X13003463Y-15564128D01*
X13003463Y-15564128D02*
X13012987Y-15554605D01*
X13012987Y-15554605D02*
X13012987Y-15573652D01*
X13146320Y-15373652D02*
X13165368Y-15373652D01*
X13165368Y-15373652D02*
X13184415Y-15383176D01*
X13184415Y-15383176D02*
X13193939Y-15392700D01*
X13193939Y-15392700D02*
X13203463Y-15411747D01*
X13203463Y-15411747D02*
X13212987Y-15449843D01*
X13212987Y-15449843D02*
X13212987Y-15497462D01*
X13212987Y-15497462D02*
X13203463Y-15535557D01*
X13203463Y-15535557D02*
X13193939Y-15554605D01*
X13193939Y-15554605D02*
X13184415Y-15564128D01*
X13184415Y-15564128D02*
X13165368Y-15573652D01*
X13165368Y-15573652D02*
X13146320Y-15573652D01*
X13146320Y-15573652D02*
X13127272Y-15564128D01*
X13127272Y-15564128D02*
X13117748Y-15554605D01*
X13117748Y-15554605D02*
X13108225Y-15535557D01*
X13108225Y-15535557D02*
X13098701Y-15497462D01*
X13098701Y-15497462D02*
X13098701Y-15449843D01*
X13098701Y-15449843D02*
X13108225Y-15411747D01*
X13108225Y-15411747D02*
X13117748Y-15392700D01*
X13117748Y-15392700D02*
X13127272Y-15383176D01*
X13127272Y-15383176D02*
X13146320Y-15373652D01*
X13384415Y-15373652D02*
X13346320Y-15373652D01*
X13346320Y-15373652D02*
X13327272Y-15383176D01*
X13327272Y-15383176D02*
X13317748Y-15392700D01*
X13317748Y-15392700D02*
X13298701Y-15421271D01*
X13298701Y-15421271D02*
X13289177Y-15459366D01*
X13289177Y-15459366D02*
X13289177Y-15535557D01*
X13289177Y-15535557D02*
X13298701Y-15554605D01*
X13298701Y-15554605D02*
X13308225Y-15564128D01*
X13308225Y-15564128D02*
X13327272Y-15573652D01*
X13327272Y-15573652D02*
X13365368Y-15573652D01*
X13365368Y-15573652D02*
X13384415Y-15564128D01*
X13384415Y-15564128D02*
X13393939Y-15554605D01*
X13393939Y-15554605D02*
X13403463Y-15535557D01*
X13403463Y-15535557D02*
X13403463Y-15487938D01*
X13403463Y-15487938D02*
X13393939Y-15468890D01*
X13393939Y-15468890D02*
X13384415Y-15459366D01*
X13384415Y-15459366D02*
X13365368Y-15449843D01*
X13365368Y-15449843D02*
X13327272Y-15449843D01*
X13327272Y-15449843D02*
X13308225Y-15459366D01*
X13308225Y-15459366D02*
X13298701Y-15468890D01*
X13298701Y-15468890D02*
X13289177Y-15487938D01*
X13470129Y-15373652D02*
X13593939Y-15373652D01*
X13593939Y-15373652D02*
X13527272Y-15449843D01*
X13527272Y-15449843D02*
X13555844Y-15449843D01*
X13555844Y-15449843D02*
X13574891Y-15459366D01*
X13574891Y-15459366D02*
X13584415Y-15468890D01*
X13584415Y-15468890D02*
X13593939Y-15487938D01*
X13593939Y-15487938D02*
X13593939Y-15535557D01*
X13593939Y-15535557D02*
X13584415Y-15554605D01*
X13584415Y-15554605D02*
X13574891Y-15564128D01*
X13574891Y-15564128D02*
X13555844Y-15573652D01*
X13555844Y-15573652D02*
X13498701Y-15573652D01*
X13498701Y-15573652D02*
X13479653Y-15564128D01*
X13479653Y-15564128D02*
X13470129Y-15554605D01*
X13717748Y-15373652D02*
X13736796Y-15373652D01*
X13736796Y-15373652D02*
X13755844Y-15383176D01*
X13755844Y-15383176D02*
X13765368Y-15392700D01*
X13765368Y-15392700D02*
X13774891Y-15411747D01*
X13774891Y-15411747D02*
X13784415Y-15449843D01*
X13784415Y-15449843D02*
X13784415Y-15497462D01*
X13784415Y-15497462D02*
X13774891Y-15535557D01*
X13774891Y-15535557D02*
X13765368Y-15554605D01*
X13765368Y-15554605D02*
X13755844Y-15564128D01*
X13755844Y-15564128D02*
X13736796Y-15573652D01*
X13736796Y-15573652D02*
X13717748Y-15573652D01*
X13717748Y-15573652D02*
X13698701Y-15564128D01*
X13698701Y-15564128D02*
X13689177Y-15554605D01*
X13689177Y-15554605D02*
X13679653Y-15535557D01*
X13679653Y-15535557D02*
X13670129Y-15497462D01*
X13670129Y-15497462D02*
X13670129Y-15449843D01*
X13670129Y-15449843D02*
X13679653Y-15411747D01*
X13679653Y-15411747D02*
X13689177Y-15392700D01*
X13689177Y-15392700D02*
X13698701Y-15383176D01*
X13698701Y-15383176D02*
X13717748Y-15373652D01*
X13860606Y-15373652D02*
X13860606Y-15411747D01*
X13936796Y-15373652D02*
X13936796Y-15411747D01*
X14232034Y-15649843D02*
X14222510Y-15640319D01*
X14222510Y-15640319D02*
X14203463Y-15611747D01*
X14203463Y-15611747D02*
X14193939Y-15592700D01*
X14193939Y-15592700D02*
X14184415Y-15564128D01*
X14184415Y-15564128D02*
X14174891Y-15516509D01*
X14174891Y-15516509D02*
X14174891Y-15478414D01*
X14174891Y-15478414D02*
X14184415Y-15430795D01*
X14184415Y-15430795D02*
X14193939Y-15402224D01*
X14193939Y-15402224D02*
X14203463Y-15383176D01*
X14203463Y-15383176D02*
X14222510Y-15354605D01*
X14222510Y-15354605D02*
X14232034Y-15345081D01*
X14298701Y-15392700D02*
X14308225Y-15383176D01*
X14308225Y-15383176D02*
X14327272Y-15373652D01*
X14327272Y-15373652D02*
X14374891Y-15373652D01*
X14374891Y-15373652D02*
X14393939Y-15383176D01*
X14393939Y-15383176D02*
X14403463Y-15392700D01*
X14403463Y-15392700D02*
X14412987Y-15411747D01*
X14412987Y-15411747D02*
X14412987Y-15430795D01*
X14412987Y-15430795D02*
X14403463Y-15459366D01*
X14403463Y-15459366D02*
X14289177Y-15573652D01*
X14289177Y-15573652D02*
X14412987Y-15573652D01*
X14651082Y-15573652D02*
X14651082Y-15373652D01*
X14736796Y-15573652D02*
X14736796Y-15468890D01*
X14736796Y-15468890D02*
X14727272Y-15449843D01*
X14727272Y-15449843D02*
X14708225Y-15440319D01*
X14708225Y-15440319D02*
X14679653Y-15440319D01*
X14679653Y-15440319D02*
X14660606Y-15449843D01*
X14660606Y-15449843D02*
X14651082Y-15459366D01*
X14860606Y-15573652D02*
X14841558Y-15564128D01*
X14841558Y-15564128D02*
X14832034Y-15554605D01*
X14832034Y-15554605D02*
X14822511Y-15535557D01*
X14822511Y-15535557D02*
X14822511Y-15478414D01*
X14822511Y-15478414D02*
X14832034Y-15459366D01*
X14832034Y-15459366D02*
X14841558Y-15449843D01*
X14841558Y-15449843D02*
X14860606Y-15440319D01*
X14860606Y-15440319D02*
X14889177Y-15440319D01*
X14889177Y-15440319D02*
X14908225Y-15449843D01*
X14908225Y-15449843D02*
X14917749Y-15459366D01*
X14917749Y-15459366D02*
X14927272Y-15478414D01*
X14927272Y-15478414D02*
X14927272Y-15535557D01*
X14927272Y-15535557D02*
X14917749Y-15554605D01*
X14917749Y-15554605D02*
X14908225Y-15564128D01*
X14908225Y-15564128D02*
X14889177Y-15573652D01*
X14889177Y-15573652D02*
X14860606Y-15573652D01*
X15041558Y-15573652D02*
X15022511Y-15564128D01*
X15022511Y-15564128D02*
X15012987Y-15545081D01*
X15012987Y-15545081D02*
X15012987Y-15373652D01*
X15193939Y-15564128D02*
X15174892Y-15573652D01*
X15174892Y-15573652D02*
X15136796Y-15573652D01*
X15136796Y-15573652D02*
X15117749Y-15564128D01*
X15117749Y-15564128D02*
X15108225Y-15545081D01*
X15108225Y-15545081D02*
X15108225Y-15468890D01*
X15108225Y-15468890D02*
X15117749Y-15449843D01*
X15117749Y-15449843D02*
X15136796Y-15440319D01*
X15136796Y-15440319D02*
X15174892Y-15440319D01*
X15174892Y-15440319D02*
X15193939Y-15449843D01*
X15193939Y-15449843D02*
X15203463Y-15468890D01*
X15203463Y-15468890D02*
X15203463Y-15487938D01*
X15203463Y-15487938D02*
X15108225Y-15506986D01*
X15279653Y-15564128D02*
X15298701Y-15573652D01*
X15298701Y-15573652D02*
X15336796Y-15573652D01*
X15336796Y-15573652D02*
X15355844Y-15564128D01*
X15355844Y-15564128D02*
X15365368Y-15545081D01*
X15365368Y-15545081D02*
X15365368Y-15535557D01*
X15365368Y-15535557D02*
X15355844Y-15516509D01*
X15355844Y-15516509D02*
X15336796Y-15506986D01*
X15336796Y-15506986D02*
X15308225Y-15506986D01*
X15308225Y-15506986D02*
X15289177Y-15497462D01*
X15289177Y-15497462D02*
X15279653Y-15478414D01*
X15279653Y-15478414D02*
X15279653Y-15468890D01*
X15279653Y-15468890D02*
X15289177Y-15449843D01*
X15289177Y-15449843D02*
X15308225Y-15440319D01*
X15308225Y-15440319D02*
X15336796Y-15440319D01*
X15336796Y-15440319D02*
X15355844Y-15449843D01*
X15432034Y-15649843D02*
X15441558Y-15640319D01*
X15441558Y-15640319D02*
X15460606Y-15611747D01*
X15460606Y-15611747D02*
X15470130Y-15592700D01*
X15470130Y-15592700D02*
X15479653Y-15564128D01*
X15479653Y-15564128D02*
X15489177Y-15516509D01*
X15489177Y-15516509D02*
X15489177Y-15478414D01*
X15489177Y-15478414D02*
X15479653Y-15430795D01*
X15479653Y-15430795D02*
X15470130Y-15402224D01*
X15470130Y-15402224D02*
X15460606Y-15383176D01*
X15460606Y-15383176D02*
X15441558Y-15354605D01*
X15441558Y-15354605D02*
X15432034Y-15345081D01*
X10456972Y-15662168D02*
X10656972Y-15862168D01*
X10656972Y-15662168D02*
X10456972Y-15862168D01*
X10656972Y-15762168D02*
G75*
G02*
X10456972Y-15762168I-100000J0D01*
G01*
X10456972Y-15762168D02*
G75*
G02*
X10656972Y-15762168I100000J0D01*
G01*
X10898701Y-15653652D02*
X11022510Y-15653652D01*
X11022510Y-15653652D02*
X10955844Y-15729843D01*
X10955844Y-15729843D02*
X10984415Y-15729843D01*
X10984415Y-15729843D02*
X11003463Y-15739366D01*
X11003463Y-15739366D02*
X11012986Y-15748890D01*
X11012986Y-15748890D02*
X11022510Y-15767938D01*
X11022510Y-15767938D02*
X11022510Y-15815557D01*
X11022510Y-15815557D02*
X11012986Y-15834605D01*
X11012986Y-15834605D02*
X11003463Y-15844128D01*
X11003463Y-15844128D02*
X10984415Y-15853652D01*
X10984415Y-15853652D02*
X10927272Y-15853652D01*
X10927272Y-15853652D02*
X10908225Y-15844128D01*
X10908225Y-15844128D02*
X10898701Y-15834605D01*
X11108225Y-15834605D02*
X11117748Y-15844128D01*
X11117748Y-15844128D02*
X11108225Y-15853652D01*
X11108225Y-15853652D02*
X11098701Y-15844128D01*
X11098701Y-15844128D02*
X11108225Y-15834605D01*
X11108225Y-15834605D02*
X11108225Y-15853652D01*
X11241558Y-15653652D02*
X11260605Y-15653652D01*
X11260605Y-15653652D02*
X11279653Y-15663176D01*
X11279653Y-15663176D02*
X11289177Y-15672700D01*
X11289177Y-15672700D02*
X11298701Y-15691747D01*
X11298701Y-15691747D02*
X11308224Y-15729843D01*
X11308224Y-15729843D02*
X11308224Y-15777462D01*
X11308224Y-15777462D02*
X11298701Y-15815557D01*
X11298701Y-15815557D02*
X11289177Y-15834605D01*
X11289177Y-15834605D02*
X11279653Y-15844128D01*
X11279653Y-15844128D02*
X11260605Y-15853652D01*
X11260605Y-15853652D02*
X11241558Y-15853652D01*
X11241558Y-15853652D02*
X11222510Y-15844128D01*
X11222510Y-15844128D02*
X11212986Y-15834605D01*
X11212986Y-15834605D02*
X11203463Y-15815557D01*
X11203463Y-15815557D02*
X11193939Y-15777462D01*
X11193939Y-15777462D02*
X11193939Y-15729843D01*
X11193939Y-15729843D02*
X11203463Y-15691747D01*
X11203463Y-15691747D02*
X11212986Y-15672700D01*
X11212986Y-15672700D02*
X11222510Y-15663176D01*
X11222510Y-15663176D02*
X11241558Y-15653652D01*
X11432034Y-15653652D02*
X11451082Y-15653652D01*
X11451082Y-15653652D02*
X11470129Y-15663176D01*
X11470129Y-15663176D02*
X11479653Y-15672700D01*
X11479653Y-15672700D02*
X11489177Y-15691747D01*
X11489177Y-15691747D02*
X11498701Y-15729843D01*
X11498701Y-15729843D02*
X11498701Y-15777462D01*
X11498701Y-15777462D02*
X11489177Y-15815557D01*
X11489177Y-15815557D02*
X11479653Y-15834605D01*
X11479653Y-15834605D02*
X11470129Y-15844128D01*
X11470129Y-15844128D02*
X11451082Y-15853652D01*
X11451082Y-15853652D02*
X11432034Y-15853652D01*
X11432034Y-15853652D02*
X11412986Y-15844128D01*
X11412986Y-15844128D02*
X11403463Y-15834605D01*
X11403463Y-15834605D02*
X11393939Y-15815557D01*
X11393939Y-15815557D02*
X11384415Y-15777462D01*
X11384415Y-15777462D02*
X11384415Y-15729843D01*
X11384415Y-15729843D02*
X11393939Y-15691747D01*
X11393939Y-15691747D02*
X11403463Y-15672700D01*
X11403463Y-15672700D02*
X11412986Y-15663176D01*
X11412986Y-15663176D02*
X11432034Y-15653652D01*
X11622510Y-15653652D02*
X11641558Y-15653652D01*
X11641558Y-15653652D02*
X11660605Y-15663176D01*
X11660605Y-15663176D02*
X11670129Y-15672700D01*
X11670129Y-15672700D02*
X11679653Y-15691747D01*
X11679653Y-15691747D02*
X11689177Y-15729843D01*
X11689177Y-15729843D02*
X11689177Y-15777462D01*
X11689177Y-15777462D02*
X11679653Y-15815557D01*
X11679653Y-15815557D02*
X11670129Y-15834605D01*
X11670129Y-15834605D02*
X11660605Y-15844128D01*
X11660605Y-15844128D02*
X11641558Y-15853652D01*
X11641558Y-15853652D02*
X11622510Y-15853652D01*
X11622510Y-15853652D02*
X11603463Y-15844128D01*
X11603463Y-15844128D02*
X11593939Y-15834605D01*
X11593939Y-15834605D02*
X11584415Y-15815557D01*
X11584415Y-15815557D02*
X11574891Y-15777462D01*
X11574891Y-15777462D02*
X11574891Y-15729843D01*
X11574891Y-15729843D02*
X11584415Y-15691747D01*
X11584415Y-15691747D02*
X11593939Y-15672700D01*
X11593939Y-15672700D02*
X11603463Y-15663176D01*
X11603463Y-15663176D02*
X11622510Y-15653652D01*
X11774891Y-15853652D02*
X11774891Y-15720319D01*
X11774891Y-15739366D02*
X11784415Y-15729843D01*
X11784415Y-15729843D02*
X11803463Y-15720319D01*
X11803463Y-15720319D02*
X11832034Y-15720319D01*
X11832034Y-15720319D02*
X11851082Y-15729843D01*
X11851082Y-15729843D02*
X11860605Y-15748890D01*
X11860605Y-15748890D02*
X11860605Y-15853652D01*
X11860605Y-15748890D02*
X11870129Y-15729843D01*
X11870129Y-15729843D02*
X11889177Y-15720319D01*
X11889177Y-15720319D02*
X11917748Y-15720319D01*
X11917748Y-15720319D02*
X11936796Y-15729843D01*
X11936796Y-15729843D02*
X11946320Y-15748890D01*
X11946320Y-15748890D02*
X11946320Y-15853652D01*
X12041558Y-15853652D02*
X12041558Y-15720319D01*
X12041558Y-15739366D02*
X12051082Y-15729843D01*
X12051082Y-15729843D02*
X12070129Y-15720319D01*
X12070129Y-15720319D02*
X12098701Y-15720319D01*
X12098701Y-15720319D02*
X12117748Y-15729843D01*
X12117748Y-15729843D02*
X12127272Y-15748890D01*
X12127272Y-15748890D02*
X12127272Y-15853652D01*
X12127272Y-15748890D02*
X12136796Y-15729843D01*
X12136796Y-15729843D02*
X12155844Y-15720319D01*
X12155844Y-15720319D02*
X12184415Y-15720319D01*
X12184415Y-15720319D02*
X12203463Y-15729843D01*
X12203463Y-15729843D02*
X12212986Y-15748890D01*
X12212986Y-15748890D02*
X12212986Y-15853652D01*
X12603463Y-15644128D02*
X12432034Y-15901271D01*
X12860606Y-15653652D02*
X12879653Y-15653652D01*
X12879653Y-15653652D02*
X12898701Y-15663176D01*
X12898701Y-15663176D02*
X12908225Y-15672700D01*
X12908225Y-15672700D02*
X12917748Y-15691747D01*
X12917748Y-15691747D02*
X12927272Y-15729843D01*
X12927272Y-15729843D02*
X12927272Y-15777462D01*
X12927272Y-15777462D02*
X12917748Y-15815557D01*
X12917748Y-15815557D02*
X12908225Y-15834605D01*
X12908225Y-15834605D02*
X12898701Y-15844128D01*
X12898701Y-15844128D02*
X12879653Y-15853652D01*
X12879653Y-15853652D02*
X12860606Y-15853652D01*
X12860606Y-15853652D02*
X12841558Y-15844128D01*
X12841558Y-15844128D02*
X12832034Y-15834605D01*
X12832034Y-15834605D02*
X12822510Y-15815557D01*
X12822510Y-15815557D02*
X12812987Y-15777462D01*
X12812987Y-15777462D02*
X12812987Y-15729843D01*
X12812987Y-15729843D02*
X12822510Y-15691747D01*
X12822510Y-15691747D02*
X12832034Y-15672700D01*
X12832034Y-15672700D02*
X12841558Y-15663176D01*
X12841558Y-15663176D02*
X12860606Y-15653652D01*
X13012987Y-15834605D02*
X13022510Y-15844128D01*
X13022510Y-15844128D02*
X13012987Y-15853652D01*
X13012987Y-15853652D02*
X13003463Y-15844128D01*
X13003463Y-15844128D02*
X13012987Y-15834605D01*
X13012987Y-15834605D02*
X13012987Y-15853652D01*
X13212987Y-15853652D02*
X13098701Y-15853652D01*
X13155844Y-15853652D02*
X13155844Y-15653652D01*
X13155844Y-15653652D02*
X13136796Y-15682224D01*
X13136796Y-15682224D02*
X13117748Y-15701271D01*
X13117748Y-15701271D02*
X13098701Y-15710795D01*
X13403463Y-15853652D02*
X13289177Y-15853652D01*
X13346320Y-15853652D02*
X13346320Y-15653652D01*
X13346320Y-15653652D02*
X13327272Y-15682224D01*
X13327272Y-15682224D02*
X13308225Y-15701271D01*
X13308225Y-15701271D02*
X13289177Y-15710795D01*
X13517748Y-15739366D02*
X13498701Y-15729843D01*
X13498701Y-15729843D02*
X13489177Y-15720319D01*
X13489177Y-15720319D02*
X13479653Y-15701271D01*
X13479653Y-15701271D02*
X13479653Y-15691747D01*
X13479653Y-15691747D02*
X13489177Y-15672700D01*
X13489177Y-15672700D02*
X13498701Y-15663176D01*
X13498701Y-15663176D02*
X13517748Y-15653652D01*
X13517748Y-15653652D02*
X13555844Y-15653652D01*
X13555844Y-15653652D02*
X13574891Y-15663176D01*
X13574891Y-15663176D02*
X13584415Y-15672700D01*
X13584415Y-15672700D02*
X13593939Y-15691747D01*
X13593939Y-15691747D02*
X13593939Y-15701271D01*
X13593939Y-15701271D02*
X13584415Y-15720319D01*
X13584415Y-15720319D02*
X13574891Y-15729843D01*
X13574891Y-15729843D02*
X13555844Y-15739366D01*
X13555844Y-15739366D02*
X13517748Y-15739366D01*
X13517748Y-15739366D02*
X13498701Y-15748890D01*
X13498701Y-15748890D02*
X13489177Y-15758414D01*
X13489177Y-15758414D02*
X13479653Y-15777462D01*
X13479653Y-15777462D02*
X13479653Y-15815557D01*
X13479653Y-15815557D02*
X13489177Y-15834605D01*
X13489177Y-15834605D02*
X13498701Y-15844128D01*
X13498701Y-15844128D02*
X13517748Y-15853652D01*
X13517748Y-15853652D02*
X13555844Y-15853652D01*
X13555844Y-15853652D02*
X13574891Y-15844128D01*
X13574891Y-15844128D02*
X13584415Y-15834605D01*
X13584415Y-15834605D02*
X13593939Y-15815557D01*
X13593939Y-15815557D02*
X13593939Y-15777462D01*
X13593939Y-15777462D02*
X13584415Y-15758414D01*
X13584415Y-15758414D02*
X13574891Y-15748890D01*
X13574891Y-15748890D02*
X13555844Y-15739366D01*
X13784415Y-15853652D02*
X13670129Y-15853652D01*
X13727272Y-15853652D02*
X13727272Y-15653652D01*
X13727272Y-15653652D02*
X13708225Y-15682224D01*
X13708225Y-15682224D02*
X13689177Y-15701271D01*
X13689177Y-15701271D02*
X13670129Y-15710795D01*
X13860606Y-15653652D02*
X13860606Y-15691747D01*
X13936796Y-15653652D02*
X13936796Y-15691747D01*
X14232034Y-15929843D02*
X14222510Y-15920319D01*
X14222510Y-15920319D02*
X14203463Y-15891747D01*
X14203463Y-15891747D02*
X14193939Y-15872700D01*
X14193939Y-15872700D02*
X14184415Y-15844128D01*
X14184415Y-15844128D02*
X14174891Y-15796509D01*
X14174891Y-15796509D02*
X14174891Y-15758414D01*
X14174891Y-15758414D02*
X14184415Y-15710795D01*
X14184415Y-15710795D02*
X14193939Y-15682224D01*
X14193939Y-15682224D02*
X14203463Y-15663176D01*
X14203463Y-15663176D02*
X14222510Y-15634605D01*
X14222510Y-15634605D02*
X14232034Y-15625081D01*
X14393939Y-15720319D02*
X14393939Y-15853652D01*
X14346320Y-15644128D02*
X14298701Y-15786986D01*
X14298701Y-15786986D02*
X14422510Y-15786986D01*
X14651082Y-15853652D02*
X14651082Y-15653652D01*
X14736796Y-15853652D02*
X14736796Y-15748890D01*
X14736796Y-15748890D02*
X14727272Y-15729843D01*
X14727272Y-15729843D02*
X14708225Y-15720319D01*
X14708225Y-15720319D02*
X14679653Y-15720319D01*
X14679653Y-15720319D02*
X14660606Y-15729843D01*
X14660606Y-15729843D02*
X14651082Y-15739366D01*
X14860606Y-15853652D02*
X14841558Y-15844128D01*
X14841558Y-15844128D02*
X14832034Y-15834605D01*
X14832034Y-15834605D02*
X14822511Y-15815557D01*
X14822511Y-15815557D02*
X14822511Y-15758414D01*
X14822511Y-15758414D02*
X14832034Y-15739366D01*
X14832034Y-15739366D02*
X14841558Y-15729843D01*
X14841558Y-15729843D02*
X14860606Y-15720319D01*
X14860606Y-15720319D02*
X14889177Y-15720319D01*
X14889177Y-15720319D02*
X14908225Y-15729843D01*
X14908225Y-15729843D02*
X14917749Y-15739366D01*
X14917749Y-15739366D02*
X14927272Y-15758414D01*
X14927272Y-15758414D02*
X14927272Y-15815557D01*
X14927272Y-15815557D02*
X14917749Y-15834605D01*
X14917749Y-15834605D02*
X14908225Y-15844128D01*
X14908225Y-15844128D02*
X14889177Y-15853652D01*
X14889177Y-15853652D02*
X14860606Y-15853652D01*
X15041558Y-15853652D02*
X15022511Y-15844128D01*
X15022511Y-15844128D02*
X15012987Y-15825081D01*
X15012987Y-15825081D02*
X15012987Y-15653652D01*
X15193939Y-15844128D02*
X15174892Y-15853652D01*
X15174892Y-15853652D02*
X15136796Y-15853652D01*
X15136796Y-15853652D02*
X15117749Y-15844128D01*
X15117749Y-15844128D02*
X15108225Y-15825081D01*
X15108225Y-15825081D02*
X15108225Y-15748890D01*
X15108225Y-15748890D02*
X15117749Y-15729843D01*
X15117749Y-15729843D02*
X15136796Y-15720319D01*
X15136796Y-15720319D02*
X15174892Y-15720319D01*
X15174892Y-15720319D02*
X15193939Y-15729843D01*
X15193939Y-15729843D02*
X15203463Y-15748890D01*
X15203463Y-15748890D02*
X15203463Y-15767938D01*
X15203463Y-15767938D02*
X15108225Y-15786986D01*
X15279653Y-15844128D02*
X15298701Y-15853652D01*
X15298701Y-15853652D02*
X15336796Y-15853652D01*
X15336796Y-15853652D02*
X15355844Y-15844128D01*
X15355844Y-15844128D02*
X15365368Y-15825081D01*
X15365368Y-15825081D02*
X15365368Y-15815557D01*
X15365368Y-15815557D02*
X15355844Y-15796509D01*
X15355844Y-15796509D02*
X15336796Y-15786986D01*
X15336796Y-15786986D02*
X15308225Y-15786986D01*
X15308225Y-15786986D02*
X15289177Y-15777462D01*
X15289177Y-15777462D02*
X15279653Y-15758414D01*
X15279653Y-15758414D02*
X15279653Y-15748890D01*
X15279653Y-15748890D02*
X15289177Y-15729843D01*
X15289177Y-15729843D02*
X15308225Y-15720319D01*
X15308225Y-15720319D02*
X15336796Y-15720319D01*
X15336796Y-15720319D02*
X15355844Y-15729843D01*
X15432034Y-15929843D02*
X15441558Y-15920319D01*
X15441558Y-15920319D02*
X15460606Y-15891747D01*
X15460606Y-15891747D02*
X15470130Y-15872700D01*
X15470130Y-15872700D02*
X15479653Y-15844128D01*
X15479653Y-15844128D02*
X15489177Y-15796509D01*
X15489177Y-15796509D02*
X15489177Y-15758414D01*
X15489177Y-15758414D02*
X15479653Y-15710795D01*
X15479653Y-15710795D02*
X15470130Y-15682224D01*
X15470130Y-15682224D02*
X15460606Y-15663176D01*
X15460606Y-15663176D02*
X15441558Y-15634605D01*
X15441558Y-15634605D02*
X15432034Y-15625081D01*
X15793939Y-15929843D02*
X15784415Y-15920319D01*
X15784415Y-15920319D02*
X15765368Y-15891747D01*
X15765368Y-15891747D02*
X15755844Y-15872700D01*
X15755844Y-15872700D02*
X15746320Y-15844128D01*
X15746320Y-15844128D02*
X15736796Y-15796509D01*
X15736796Y-15796509D02*
X15736796Y-15758414D01*
X15736796Y-15758414D02*
X15746320Y-15710795D01*
X15746320Y-15710795D02*
X15755844Y-15682224D01*
X15755844Y-15682224D02*
X15765368Y-15663176D01*
X15765368Y-15663176D02*
X15784415Y-15634605D01*
X15784415Y-15634605D02*
X15793939Y-15625081D01*
X15870130Y-15720319D02*
X15870130Y-15853652D01*
X15870130Y-15739366D02*
X15879653Y-15729843D01*
X15879653Y-15729843D02*
X15898701Y-15720319D01*
X15898701Y-15720319D02*
X15927273Y-15720319D01*
X15927273Y-15720319D02*
X15946320Y-15729843D01*
X15946320Y-15729843D02*
X15955844Y-15748890D01*
X15955844Y-15748890D02*
X15955844Y-15853652D01*
X16079653Y-15853652D02*
X16060606Y-15844128D01*
X16060606Y-15844128D02*
X16051082Y-15834605D01*
X16051082Y-15834605D02*
X16041558Y-15815557D01*
X16041558Y-15815557D02*
X16041558Y-15758414D01*
X16041558Y-15758414D02*
X16051082Y-15739366D01*
X16051082Y-15739366D02*
X16060606Y-15729843D01*
X16060606Y-15729843D02*
X16079653Y-15720319D01*
X16079653Y-15720319D02*
X16108225Y-15720319D01*
X16108225Y-15720319D02*
X16127273Y-15729843D01*
X16127273Y-15729843D02*
X16136796Y-15739366D01*
X16136796Y-15739366D02*
X16146320Y-15758414D01*
X16146320Y-15758414D02*
X16146320Y-15815557D01*
X16146320Y-15815557D02*
X16136796Y-15834605D01*
X16136796Y-15834605D02*
X16127273Y-15844128D01*
X16127273Y-15844128D02*
X16108225Y-15853652D01*
X16108225Y-15853652D02*
X16079653Y-15853652D01*
X16203463Y-15720319D02*
X16279653Y-15720319D01*
X16232034Y-15653652D02*
X16232034Y-15825081D01*
X16232034Y-15825081D02*
X16241558Y-15844128D01*
X16241558Y-15844128D02*
X16260606Y-15853652D01*
X16260606Y-15853652D02*
X16279653Y-15853652D01*
X16498701Y-15720319D02*
X16498701Y-15920319D01*
X16498701Y-15729843D02*
X16517749Y-15720319D01*
X16517749Y-15720319D02*
X16555844Y-15720319D01*
X16555844Y-15720319D02*
X16574892Y-15729843D01*
X16574892Y-15729843D02*
X16584415Y-15739366D01*
X16584415Y-15739366D02*
X16593939Y-15758414D01*
X16593939Y-15758414D02*
X16593939Y-15815557D01*
X16593939Y-15815557D02*
X16584415Y-15834605D01*
X16584415Y-15834605D02*
X16574892Y-15844128D01*
X16574892Y-15844128D02*
X16555844Y-15853652D01*
X16555844Y-15853652D02*
X16517749Y-15853652D01*
X16517749Y-15853652D02*
X16498701Y-15844128D01*
X16708225Y-15853652D02*
X16689177Y-15844128D01*
X16689177Y-15844128D02*
X16679654Y-15825081D01*
X16679654Y-15825081D02*
X16679654Y-15653652D01*
X16870130Y-15853652D02*
X16870130Y-15748890D01*
X16870130Y-15748890D02*
X16860606Y-15729843D01*
X16860606Y-15729843D02*
X16841558Y-15720319D01*
X16841558Y-15720319D02*
X16803463Y-15720319D01*
X16803463Y-15720319D02*
X16784416Y-15729843D01*
X16870130Y-15844128D02*
X16851082Y-15853652D01*
X16851082Y-15853652D02*
X16803463Y-15853652D01*
X16803463Y-15853652D02*
X16784416Y-15844128D01*
X16784416Y-15844128D02*
X16774892Y-15825081D01*
X16774892Y-15825081D02*
X16774892Y-15806033D01*
X16774892Y-15806033D02*
X16784416Y-15786986D01*
X16784416Y-15786986D02*
X16803463Y-15777462D01*
X16803463Y-15777462D02*
X16851082Y-15777462D01*
X16851082Y-15777462D02*
X16870130Y-15767938D01*
X16936797Y-15720319D02*
X17012987Y-15720319D01*
X16965368Y-15653652D02*
X16965368Y-15825081D01*
X16965368Y-15825081D02*
X16974892Y-15844128D01*
X16974892Y-15844128D02*
X16993939Y-15853652D01*
X16993939Y-15853652D02*
X17012987Y-15853652D01*
X17155844Y-15844128D02*
X17136797Y-15853652D01*
X17136797Y-15853652D02*
X17098701Y-15853652D01*
X17098701Y-15853652D02*
X17079654Y-15844128D01*
X17079654Y-15844128D02*
X17070130Y-15825081D01*
X17070130Y-15825081D02*
X17070130Y-15748890D01*
X17070130Y-15748890D02*
X17079654Y-15729843D01*
X17079654Y-15729843D02*
X17098701Y-15720319D01*
X17098701Y-15720319D02*
X17136797Y-15720319D01*
X17136797Y-15720319D02*
X17155844Y-15729843D01*
X17155844Y-15729843D02*
X17165368Y-15748890D01*
X17165368Y-15748890D02*
X17165368Y-15767938D01*
X17165368Y-15767938D02*
X17070130Y-15786986D01*
X17336797Y-15853652D02*
X17336797Y-15653652D01*
X17336797Y-15844128D02*
X17317749Y-15853652D01*
X17317749Y-15853652D02*
X17279654Y-15853652D01*
X17279654Y-15853652D02*
X17260606Y-15844128D01*
X17260606Y-15844128D02*
X17251082Y-15834605D01*
X17251082Y-15834605D02*
X17241558Y-15815557D01*
X17241558Y-15815557D02*
X17241558Y-15758414D01*
X17241558Y-15758414D02*
X17251082Y-15739366D01*
X17251082Y-15739366D02*
X17260606Y-15729843D01*
X17260606Y-15729843D02*
X17279654Y-15720319D01*
X17279654Y-15720319D02*
X17317749Y-15720319D01*
X17317749Y-15720319D02*
X17336797Y-15729843D01*
X17412987Y-15929843D02*
X17422511Y-15920319D01*
X17422511Y-15920319D02*
X17441558Y-15891747D01*
X17441558Y-15891747D02*
X17451082Y-15872700D01*
X17451082Y-15872700D02*
X17460606Y-15844128D01*
X17460606Y-15844128D02*
X17470130Y-15796509D01*
X17470130Y-15796509D02*
X17470130Y-15758414D01*
X17470130Y-15758414D02*
X17460606Y-15710795D01*
X17460606Y-15710795D02*
X17451082Y-15682224D01*
X17451082Y-15682224D02*
X17441558Y-15663176D01*
X17441558Y-15663176D02*
X17422511Y-15634605D01*
X17422511Y-15634605D02*
X17412987Y-15625081D01*
M02*
