M48
; DRILL file {KiCad 8.0.2} date 2024-12-06T15:03:31+0700
; FORMAT={-:-/ absolute / metric / decimal}
; #@! TF.CreationDate,2024-12-06T15:03:31+07:00
; #@! TF.GenerationSoftware,Kicad,Pcbnew,8.0.2
; #@! TF.FileFunction,MixedPlating,1,2
FMAT,2
METRIC
; #@! TA.AperFunction,Plated,PTH,ViaDrill
T1C0.300
; #@! TA.AperFunction,Plated,PTH,ComponentDrill
T2C0.800
; #@! TA.AperFunction,Plated,PTH,ComponentDrill
T3C1.000
; #@! TA.AperFunction,Plated,PTH,ComponentDrill
T4C1.250
; #@! TA.AperFunction,Plated,PTH,ComponentDrill
T5C1.600
; #@! TA.AperFunction,NonPlated,NPTH,ComponentDrill
T6C3.000
%
G90
G05
T1
X115.09Y-108.15
X116.8Y-104.47
X117.25Y-89.0
X117.75Y-125.25
X120.11Y-77.31
X120.25Y-122.25
X121.25Y-110.25
X121.54Y-104.48
X124.39Y-96.53
X125.75Y-77.5
X129.5Y-75.5
X132.0Y-76.75
X134.07Y-119.02
X134.4Y-85.25
X134.49Y-114.81
X137.85Y-89.75
X138.75Y-76.75
X141.75Y-122.0
X143.46Y-101.77
X144.15Y-118.155
X145.5Y-121.75
X145.79Y-114.61
X146.66Y-118.45
X147.75Y-77.25
X148.25Y-74.25
X152.75Y-120.5
X154.48Y-107.75
X156.15Y-74.37
X163.54Y-119.68
X172.11Y-128.829
X172.605Y-121.56
X174.51Y-121.74
X175.305Y-128.25
X177.996Y-130.115
X177.996Y-133.9
X178.022Y-132.655
X178.25Y-128.82
X179.0Y-79.11
X180.27Y-128.79
X183.026Y-127.55
X183.076Y-126.28
X183.203Y-128.82
X183.255Y-131.985
X185.422Y-128.88
X185.52Y-130.24
X188.34Y-128.64
X188.79Y-136.83
X189.93Y-131.45
T2
X118.5Y-101.95
X118.5Y-106.25
X118.5Y-110.25
X118.5Y-114.25
X120.0Y-117.355
X120.0Y-124.975
X122.54Y-117.355
X122.54Y-124.975
X125.08Y-117.355
X125.08Y-124.975
X127.62Y-117.355
X127.62Y-124.975
X128.66Y-101.95
X128.66Y-106.25
X128.66Y-110.25
X128.66Y-114.25
X130.16Y-117.355
X130.16Y-124.975
X131.6Y-106.24
X132.7Y-117.355
X132.7Y-124.975
X135.24Y-117.355
X135.24Y-124.975
X135.465Y-133.39
X137.78Y-112.41
X137.78Y-114.41
X137.78Y-117.355
X137.78Y-124.975
X137.965Y-133.39
X137.98Y-129.25
X140.32Y-117.355
X140.32Y-124.975
X141.76Y-106.24
X142.86Y-117.355
X142.86Y-124.975
X142.86Y-129.25
X142.86Y-133.38
X145.36Y-133.38
X145.4Y-117.355
X145.4Y-124.975
X146.36Y-102.22
X146.36Y-104.22
X147.94Y-117.355
X147.94Y-124.975
X150.48Y-117.355
X150.48Y-124.975
X153.02Y-117.355
X153.02Y-124.975
X155.01Y-110.09
X155.01Y-112.09
X160.48Y-112.01
X160.48Y-115.824
X160.48Y-119.638
X160.48Y-123.453
X160.48Y-127.267
X160.48Y-131.07
X160.48Y-134.895
X170.64Y-112.01
X170.64Y-115.824
X170.64Y-119.638
X170.64Y-123.453
X170.64Y-127.267
X170.64Y-131.07
X170.64Y-134.895
X179.534Y-120.0
X181.534Y-120.0
T3
X114.25Y-84.0
X114.25Y-86.5
X114.25Y-89.0
X114.25Y-91.5
X114.25Y-94.0
X115.164Y-118.5
X115.164Y-121.0
X115.164Y-123.5
X115.164Y-126.0
X119.466Y-80.25
X119.466Y-98.03
X120.055Y-67.69
X120.055Y-70.19
X120.055Y-72.69
X120.055Y-75.19
X122.006Y-80.25
X122.006Y-98.03
X124.546Y-80.25
X124.546Y-98.03
X127.087Y-80.25
X127.087Y-98.03
X127.655Y-67.69
X127.655Y-70.19
X127.655Y-72.69
X127.655Y-75.19
X129.626Y-80.25
X129.626Y-98.03
X132.166Y-80.25
X132.166Y-98.03
X134.707Y-80.25
X134.707Y-98.03
X135.255Y-67.69
X135.255Y-70.19
X135.255Y-72.69
X135.255Y-75.19
X137.246Y-80.25
X137.246Y-98.03
X139.786Y-80.25
X139.786Y-98.03
X142.326Y-80.25
X142.326Y-98.03
X142.855Y-67.69
X142.855Y-70.19
X142.855Y-72.69
X142.855Y-75.19
X144.867Y-80.25
X144.867Y-98.03
X147.406Y-80.25
X147.406Y-98.03
X150.455Y-67.69
X150.455Y-70.19
X150.455Y-72.69
X150.455Y-75.19
X151.53Y-88.36
X151.53Y-106.14
X158.055Y-67.69
X158.055Y-70.19
X158.055Y-72.69
X158.055Y-75.19
X164.64Y-81.25
X167.18Y-81.25
X169.72Y-81.25
X172.26Y-81.25
X174.8Y-81.25
X177.34Y-81.25
X179.88Y-81.25
X182.42Y-81.25
X184.96Y-81.25
X187.5Y-81.25
X192.17Y-88.36
X192.17Y-106.14
X193.66Y-81.25
X196.16Y-81.25
X196.2Y-73.0
X198.66Y-81.25
X198.7Y-73.0
T4
X133.952Y-102.165
X136.243Y-102.165
X138.532Y-102.165
T5
X198.56Y-87.672
X198.56Y-102.912
T6
X111.595Y-67.837
X111.595Y-132.837
X156.595Y-82.837
X181.595Y-112.9
T3
G00X189.899Y-116.16
M15
G01X189.899Y-114.16
M16
G05
G00X193.899Y-110.46
M15
G01X191.899Y-110.46
M16
G05
G00X195.899Y-116.16
M15
G01X195.899Y-114.16
M16
G05
M30
