%TF.GenerationSoftware,KiCad,Pcbnew,8.0.2*%
%TF.CreationDate,2024-12-06T15:03:26+07:00*%
%TF.ProjectId,bit-v5.1.1,6269742d-7635-42e3-912e-312e6b696361,rev?*%
%TF.SameCoordinates,Original*%
%TF.FileFunction,Soldermask,Top*%
%TF.FilePolarity,Negative*%
%FSLAX46Y46*%
G04 Gerber Fmt 4.6, Leading zero omitted, Abs format (unit mm)*
G04 Created by KiCad (PCBNEW 8.0.2) date 2024-12-06 15:03:26*
%MOMM*%
%LPD*%
G01*
G04 APERTURE LIST*
G04 Aperture macros list*
%AMRoundRect*
0 Rectangle with rounded corners*
0 $1 Rounding radius*
0 $2 $3 $4 $5 $6 $7 $8 $9 X,Y pos of 4 corners*
0 Add a 4 corners polygon primitive as box body*
4,1,4,$2,$3,$4,$5,$6,$7,$8,$9,$2,$3,0*
0 Add four circle primitives for the rounded corners*
1,1,$1+$1,$2,$3*
1,1,$1+$1,$4,$5*
1,1,$1+$1,$6,$7*
1,1,$1+$1,$8,$9*
0 Add four rect primitives between the rounded corners*
20,1,$1+$1,$2,$3,$4,$5,0*
20,1,$1+$1,$4,$5,$6,$7,0*
20,1,$1+$1,$6,$7,$8,$9,0*
20,1,$1+$1,$8,$9,$2,$3,0*%
G04 Aperture macros list end*
%ADD10RoundRect,0.102000X0.937500X0.937500X-0.937500X0.937500X-0.937500X-0.937500X0.937500X-0.937500X0*%
%ADD11C,2.079000*%
%ADD12C,1.600000*%
%ADD13C,2.000000*%
%ADD14RoundRect,0.102000X0.754000X-0.754000X0.754000X0.754000X-0.754000X0.754000X-0.754000X-0.754000X0*%
%ADD15C,1.712000*%
%ADD16O,6.000000X6.000000*%
%ADD17RoundRect,0.102000X-0.800100X-0.279400X0.800100X-0.279400X0.800100X0.279400X-0.800100X0.279400X0*%
%ADD18R,1.600000X1.600000*%
%ADD19O,1.600000X1.600000*%
%ADD20RoundRect,0.250000X0.600000X0.750000X-0.600000X0.750000X-0.600000X-0.750000X0.600000X-0.750000X0*%
%ADD21O,1.700000X2.000000*%
%ADD22RoundRect,0.375000X0.625000X0.375000X-0.625000X0.375000X-0.625000X-0.375000X0.625000X-0.375000X0*%
%ADD23RoundRect,0.500000X0.500000X1.400000X-0.500000X1.400000X-0.500000X-1.400000X0.500000X-1.400000X0*%
%ADD24R,3.500000X3.500000*%
%ADD25RoundRect,0.750000X0.750000X1.000000X-0.750000X1.000000X-0.750000X-1.000000X0.750000X-1.000000X0*%
%ADD26RoundRect,0.875000X0.875000X0.875000X-0.875000X0.875000X-0.875000X-0.875000X0.875000X-0.875000X0*%
%ADD27RoundRect,0.102000X0.600000X-0.350000X0.600000X0.350000X-0.600000X0.350000X-0.600000X-0.350000X0*%
%ADD28RoundRect,0.102000X0.400000X-0.500000X0.400000X0.500000X-0.400000X0.500000X-0.400000X-0.500000X0*%
%ADD29RoundRect,0.102000X0.600000X-0.500000X0.600000X0.500000X-0.600000X0.500000X-0.600000X-0.500000X0*%
%ADD30RoundRect,0.102000X1.400000X-0.500000X1.400000X0.500000X-1.400000X0.500000X-1.400000X-0.500000X0*%
%ADD31RoundRect,0.102000X0.950000X-0.650000X0.950000X0.650000X-0.950000X0.650000X-0.950000X-0.650000X0*%
%ADD32RoundRect,0.102000X-0.754000X-0.754000X0.754000X-0.754000X0.754000X0.754000X-0.754000X0.754000X0*%
%ADD33R,1.700000X1.700000*%
%ADD34O,1.700000X1.700000*%
%ADD35C,1.500000*%
%ADD36R,3.200000X3.200000*%
%ADD37O,3.200000X3.200000*%
G04 APERTURE END LIST*
D10*
%TO.C,Q1*%
X138532500Y-102165000D03*
D11*
X136242500Y-102165000D03*
X133952500Y-102165000D03*
%TD*%
D12*
%TO.C,C4*%
X137780000Y-114410000D03*
X137780000Y-112410000D03*
%TD*%
D13*
%TO.C,TP1*%
X123000000Y-134390000D03*
%TD*%
D14*
%TO.C,J3*%
X142855000Y-67690000D03*
D15*
X142855000Y-70190000D03*
X142855000Y-72690000D03*
X142855000Y-75190000D03*
%TD*%
D16*
%TO.C,*%
X181594715Y-112900000D03*
%TD*%
D17*
%TO.C,U4*%
X176726315Y-126279685D03*
X176726315Y-127549685D03*
X176726315Y-128819685D03*
X176726315Y-130089685D03*
X176726315Y-131359685D03*
X176726315Y-132629685D03*
X176726315Y-133899685D03*
X181806315Y-133899685D03*
X181806315Y-132629685D03*
X181806315Y-131359685D03*
X181806315Y-130089685D03*
X181806315Y-128819685D03*
X181806315Y-127549685D03*
X181806315Y-126279685D03*
%TD*%
D18*
%TO.C,U1*%
X120000000Y-124975000D03*
D19*
X122540000Y-124975000D03*
X125080000Y-124975000D03*
X127620000Y-124975000D03*
X130160000Y-124975000D03*
X132700000Y-124975000D03*
X135240000Y-124975000D03*
X137780000Y-124975000D03*
X140320000Y-124975000D03*
X142860000Y-124975000D03*
X145400000Y-124975000D03*
X147940000Y-124975000D03*
X150480000Y-124975000D03*
X153020000Y-124975000D03*
X153020000Y-117355000D03*
X150480000Y-117355000D03*
X147940000Y-117355000D03*
X145400000Y-117355000D03*
X142860000Y-117355000D03*
X140320000Y-117355000D03*
X137780000Y-117355000D03*
X135240000Y-117355000D03*
X132700000Y-117355000D03*
X130160000Y-117355000D03*
X127620000Y-117355000D03*
X125080000Y-117355000D03*
X122540000Y-117355000D03*
X120000000Y-117355000D03*
%TD*%
D20*
%TO.C,J9*%
X198700000Y-73000000D03*
D21*
X196200000Y-73000000D03*
%TD*%
D12*
%TO.C,R10*%
X118500000Y-110250000D03*
D19*
X128660000Y-110250000D03*
%TD*%
D12*
%TO.C,R5*%
X118500000Y-101950000D03*
D19*
X128660000Y-101950000D03*
%TD*%
D12*
%TO.C,C6*%
X137965000Y-133390000D03*
X135465000Y-133390000D03*
%TD*%
%TO.C,R11*%
X118500000Y-114250000D03*
D19*
X128660000Y-114250000D03*
%TD*%
D22*
%TO.C,U2*%
X149740000Y-114390000D03*
X149740000Y-112090000D03*
D23*
X143440000Y-112090000D03*
D22*
X149740000Y-109790000D03*
%TD*%
D16*
%TO.C,*%
X111594715Y-67836685D03*
%TD*%
D12*
%TO.C,R9*%
X160480000Y-127266932D03*
D19*
X170640000Y-127266932D03*
%TD*%
D12*
%TO.C,R12*%
X131600000Y-106240000D03*
D19*
X141760000Y-106240000D03*
%TD*%
D12*
%TO.C,R2*%
X160480000Y-123452699D03*
D19*
X170640000Y-123452699D03*
%TD*%
D16*
%TO.C,*%
X156594715Y-82836685D03*
%TD*%
D12*
%TO.C,R1*%
X160480000Y-115824233D03*
D19*
X170640000Y-115824233D03*
%TD*%
D16*
%TO.C,*%
X111594715Y-132836685D03*
%TD*%
D14*
%TO.C,J1*%
X158055000Y-67690000D03*
D15*
X158055000Y-70190000D03*
X158055000Y-72690000D03*
X158055000Y-75190000D03*
%TD*%
D14*
%TO.C,J2*%
X150455000Y-67690000D03*
D15*
X150455000Y-70190000D03*
X150455000Y-72690000D03*
X150455000Y-75190000D03*
%TD*%
D13*
%TO.C,TP2*%
X129000000Y-134390000D03*
%TD*%
D12*
%TO.C,R7*%
X160480000Y-134895400D03*
D19*
X170640000Y-134895400D03*
%TD*%
D13*
%TO.C,TP3*%
X154560000Y-134390000D03*
%TD*%
D24*
%TO.C,J11*%
X189899000Y-115160000D03*
D25*
X195899000Y-115160000D03*
D26*
X192899000Y-110460000D03*
%TD*%
D14*
%TO.C,J5*%
X127655000Y-67690000D03*
D15*
X127655000Y-70190000D03*
X127655000Y-72690000D03*
X127655000Y-75190000D03*
%TD*%
D12*
%TO.C,C2*%
X155010000Y-112090000D03*
X155010000Y-110090000D03*
%TD*%
%TO.C,R3*%
X160480000Y-119638466D03*
D19*
X170640000Y-119638466D03*
%TD*%
D14*
%TO.C,J8*%
X114250000Y-84000000D03*
D15*
X114250000Y-86500000D03*
X114250000Y-89000000D03*
X114250000Y-91500000D03*
X114250000Y-94000000D03*
%TD*%
D12*
%TO.C,C3*%
X181533800Y-120000000D03*
X179533800Y-120000000D03*
%TD*%
%TO.C,C1*%
X146360000Y-104220000D03*
X146360000Y-102220000D03*
%TD*%
%TO.C,R6*%
X118500000Y-106250000D03*
D19*
X128660000Y-106250000D03*
%TD*%
D27*
%TO.C,J12*%
X187155000Y-125820000D03*
X187155000Y-126920000D03*
X187155000Y-128020000D03*
X187155000Y-129120000D03*
X187155000Y-130220000D03*
X187155000Y-131320000D03*
X187155000Y-132420000D03*
X187155000Y-133520000D03*
D28*
X197655000Y-135420000D03*
D27*
X187155000Y-134470000D03*
D29*
X191455000Y-135420000D03*
X187155000Y-124270000D03*
D30*
X201805000Y-135420000D03*
D31*
X202255000Y-121920000D03*
%TD*%
D12*
%TO.C,R4*%
X160480000Y-112010000D03*
D19*
X170640000Y-112010000D03*
%TD*%
D14*
%TO.C,J7*%
X115163600Y-118500000D03*
D15*
X115163600Y-121000000D03*
X115163600Y-123500000D03*
X115163600Y-126000000D03*
%TD*%
D14*
%TO.C,J6*%
X120055000Y-67690000D03*
D15*
X120055000Y-70190000D03*
X120055000Y-72690000D03*
X120055000Y-75190000D03*
%TD*%
D32*
%TO.C,J10*%
X198660000Y-81250000D03*
D15*
X196160000Y-81250000D03*
X193660000Y-81250000D03*
%TD*%
D12*
%TO.C,R8*%
X160480000Y-131070000D03*
D19*
X170640000Y-131070000D03*
%TD*%
D12*
%TO.C,C5*%
X145360000Y-133380000D03*
X142860000Y-133380000D03*
%TD*%
D33*
%TO.C,U6*%
X164640000Y-81250000D03*
D34*
X167180000Y-81250000D03*
X169720000Y-81250000D03*
X172260000Y-81250000D03*
X174800000Y-81250000D03*
X177340000Y-81250000D03*
X179880000Y-81250000D03*
X182420000Y-81250000D03*
X184960000Y-81250000D03*
X187500000Y-81250000D03*
%TD*%
D35*
%TO.C,Y1*%
X142860000Y-129250000D03*
X137980000Y-129250000D03*
%TD*%
D14*
%TO.C,U3*%
X119466500Y-98030000D03*
D15*
X122006500Y-98030000D03*
X124546500Y-98030000D03*
X127086500Y-98030000D03*
X129626500Y-98030000D03*
X132166500Y-98030000D03*
X134706500Y-98030000D03*
X137246500Y-98030000D03*
X139786500Y-98030000D03*
X142326500Y-98030000D03*
X144866500Y-98030000D03*
X147406500Y-98030000D03*
X147406500Y-80250000D03*
X144866500Y-80250000D03*
X142326500Y-80250000D03*
X139786500Y-80250000D03*
X137246500Y-80250000D03*
X134706500Y-80250000D03*
X132166500Y-80250000D03*
X129626500Y-80250000D03*
X127086500Y-80250000D03*
X124546500Y-80250000D03*
X122006500Y-80250000D03*
X119466500Y-80250000D03*
%TD*%
%TO.C,U5*%
X192170000Y-106140000D03*
X192170000Y-88360000D03*
X151530000Y-88360000D03*
X151530000Y-106140000D03*
%TD*%
D36*
%TO.C,D1*%
X198560000Y-87671685D03*
D37*
X198560000Y-102911685D03*
%TD*%
D14*
%TO.C,J4*%
X135255000Y-67690000D03*
D15*
X135255000Y-70190000D03*
X135255000Y-72690000D03*
X135255000Y-75190000D03*
%TD*%
M02*
